<?xml version="1.0" encoding="utf-8" standalone="no"?>
<!DOCTYPE svg PUBLIC "-//W3C//DTD SVG 1.1//EN"
  "http://www.w3.org/Graphics/SVG/1.1/DTD/svg11.dtd">
<!-- Created with matplotlib (https://matplotlib.org/) -->
<svg height="144pt" version="1.1" viewBox="0 0 288 144" width="288pt" xmlns="http://www.w3.org/2000/svg" xmlns:xlink="http://www.w3.org/1999/xlink">
 <metadata>
  <rdf:RDF xmlns:cc="http://creativecommons.org/ns#" xmlns:dc="http://purl.org/dc/elements/1.1/" xmlns:rdf="http://www.w3.org/1999/02/22-rdf-syntax-ns#">
   <cc:Work>
    <dc:type rdf:resource="http://purl.org/dc/dcmitype/StillImage"/>
    <dc:date>2021-06-23T20:07:39.332433</dc:date>
    <dc:format>image/svg+xml</dc:format>
    <dc:creator>
     <cc:Agent>
      <dc:title>Matplotlib v3.3.2, https://matplotlib.org/</dc:title>
     </cc:Agent>
    </dc:creator>
   </cc:Work>
  </rdf:RDF>
 </metadata>
 <defs>
  <style type="text/css">*{stroke-linecap:butt;stroke-linejoin:round;}</style>
 </defs>
 <g id="figure_1">
  <g id="patch_1">
   <path d="M 0 144 
L 288 144 
L 288 0 
L 0 0 
z
" style="fill:#ffffff;"/>
  </g>
  <g id="axes_1">
   <g id="patch_2">
    <path d="M 31.97 109.96 
L 127.899 109.96 
L 127.899 11.52 
L 31.97 11.52 
z
" style="fill:#ffffff;"/>
   </g>
   <g id="PathCollection_1">
    <defs>
     <path d="M 0 1.581139 
C 0.419323 1.581139 0.821528 1.41454 1.118034 1.118034 
C 1.41454 0.821528 1.581139 0.419323 1.581139 0 
C 1.581139 -0.419323 1.41454 -0.821528 1.118034 -1.118034 
C 0.821528 -1.41454 0.419323 -1.581139 0 -1.581139 
C -0.419323 -1.581139 -0.821528 -1.41454 -1.118034 -1.118034 
C -1.41454 -0.821528 -1.581139 -0.419323 -1.581139 0 
C -1.581139 0.419323 -1.41454 0.821528 -1.118034 1.118034 
C -0.821528 1.41454 -0.419323 1.581139 0 1.581139 
z
" id="m4b880150e0" style="stroke:#ffffff;"/>
    </defs>
    <g clip-path="url(#p236a209e9e)">
     <use style="fill:#1f77b4;stroke:#ffffff;" x="41.159546" xlink:href="#m4b880150e0" y="90.009005"/>
     <use style="fill:#1f77b4;stroke:#ffffff;" x="46.742125" xlink:href="#m4b880150e0" y="96.688556"/>
     <use style="fill:#1f77b4;stroke:#ffffff;" x="61.111953" xlink:href="#m4b880150e0" y="63.084283"/>
     <use style="fill:#1f77b4;stroke:#ffffff;" x="36.330409" xlink:href="#m4b880150e0" y="100.992573"/>
     <use style="fill:#1f77b4;stroke:#ffffff;" x="48.463335" xlink:href="#m4b880150e0" y="92.006042"/>
     <use style="fill:#1f77b4;stroke:#ffffff;" x="60.497864" xlink:href="#m4b880150e0" y="70.899588"/>
     <use style="fill:#1f77b4;stroke:#ffffff;" x="39.600727" xlink:href="#m4b880150e0" y="95.673777"/>
     <use style="fill:#1f77b4;stroke:#ffffff;" x="46.429144" xlink:href="#m4b880150e0" y="84.626177"/>
     <use style="fill:#1f77b4;stroke:#ffffff;" x="45.829473" xlink:href="#m4b880150e0" y="96.578912"/>
     <use style="fill:#1f77b4;stroke:#ffffff;" x="61.034308" xlink:href="#m4b880150e0" y="67.675326"/>
     <use style="fill:#1f77b4;stroke:#ffffff;" x="46.576875" xlink:href="#m4b880150e0" y="92.756683"/>
     <use style="fill:#1f77b4;stroke:#ffffff;" x="48.419065" xlink:href="#m4b880150e0" y="90.725869"/>
     <use style="fill:#1f77b4;stroke:#ffffff;" x="59.443004" xlink:href="#m4b880150e0" y="75.167039"/>
     <use style="fill:#1f77b4;stroke:#ffffff;" x="46.127098" xlink:href="#m4b880150e0" y="91.807989"/>
     <use style="fill:#1f77b4;stroke:#ffffff;" x="51.207723" xlink:href="#m4b880150e0" y="90.790089"/>
     <use style="fill:#1f77b4;stroke:#ffffff;" x="45.144063" xlink:href="#m4b880150e0" y="95.16329"/>
     <use style="fill:#1f77b4;stroke:#ffffff;" x="56.33976" xlink:href="#m4b880150e0" y="83.422143"/>
     <use style="fill:#1f77b4;stroke:#ffffff;" x="48.761801" xlink:href="#m4b880150e0" y="95.614546"/>
     <use style="fill:#1f77b4;stroke:#ffffff;" x="53.042446" xlink:href="#m4b880150e0" y="89.238849"/>
     <use style="fill:#1f77b4;stroke:#ffffff;" x="55.037755" xlink:href="#m4b880150e0" y="83.04551"/>
     <use style="fill:#1f77b4;stroke:#ffffff;" x="57.501048" xlink:href="#m4b880150e0" y="89.435285"/>
     <use style="fill:#1f77b4;stroke:#ffffff;" x="55.747157" xlink:href="#m4b880150e0" y="88.210518"/>
     <use style="fill:#1f77b4;stroke:#ffffff;" x="70.510667" xlink:href="#m4b880150e0" y="68.350245"/>
     <use style="fill:#1f77b4;stroke:#ffffff;" x="52.087666" xlink:href="#m4b880150e0" y="79.380564"/>
     <use style="fill:#1f77b4;stroke:#ffffff;" x="57.744005" xlink:href="#m4b880150e0" y="81.534468"/>
     <use style="fill:#1f77b4;stroke:#ffffff;" x="60.089186" xlink:href="#m4b880150e0" y="84.949301"/>
     <use style="fill:#1f77b4;stroke:#ffffff;" x="57.920859" xlink:href="#m4b880150e0" y="82.820486"/>
     <use style="fill:#1f77b4;stroke:#ffffff;" x="57.641875" xlink:href="#m4b880150e0" y="90.331045"/>
     <use style="fill:#1f77b4;stroke:#ffffff;" x="58.697009" xlink:href="#m4b880150e0" y="85.110307"/>
     <use style="fill:#1f77b4;stroke:#ffffff;" x="45.854757" xlink:href="#m4b880150e0" y="96.528387"/>
     <use style="fill:#1f77b4;stroke:#ffffff;" x="45.050691" xlink:href="#m4b880150e0" y="86.437273"/>
     <use style="fill:#1f77b4;stroke:#ffffff;" x="58.318909" xlink:href="#m4b880150e0" y="87.151753"/>
     <use style="fill:#1f77b4;stroke:#ffffff;" x="48.457478" xlink:href="#m4b880150e0" y="94.354303"/>
     <use style="fill:#1f77b4;stroke:#ffffff;" x="58.864744" xlink:href="#m4b880150e0" y="82.025168"/>
     <use style="fill:#1f77b4;stroke:#ffffff;" x="78.387687" xlink:href="#m4b880150e0" y="63.583614"/>
     <use style="fill:#1f77b4;stroke:#ffffff;" x="53.315591" xlink:href="#m4b880150e0" y="83.435624"/>
     <use style="fill:#1f77b4;stroke:#ffffff;" x="72.587754" xlink:href="#m4b880150e0" y="60.499578"/>
     <use style="fill:#1f77b4;stroke:#ffffff;" x="59.689192" xlink:href="#m4b880150e0" y="71.864952"/>
     <use style="fill:#1f77b4;stroke:#ffffff;" x="64.295613" xlink:href="#m4b880150e0" y="83.220402"/>
     <use style="fill:#1f77b4;stroke:#ffffff;" x="51.533407" xlink:href="#m4b880150e0" y="90.910202"/>
     <use style="fill:#1f77b4;stroke:#ffffff;" x="53.72862" xlink:href="#m4b880150e0" y="90.283338"/>
     <use style="fill:#1f77b4;stroke:#ffffff;" x="61.702033" xlink:href="#m4b880150e0" y="82.011927"/>
     <use style="fill:#1f77b4;stroke:#ffffff;" x="46.927172" xlink:href="#m4b880150e0" y="92.063744"/>
     <use style="fill:#1f77b4;stroke:#ffffff;" x="123.538591" xlink:href="#m4b880150e0" y="21.439445"/>
     <use style="fill:#1f77b4;stroke:#ffffff;" x="102.032783" xlink:href="#m4b880150e0" y="48.087676"/>
     <use style="fill:#1f77b4;stroke:#ffffff;" x="77.099133" xlink:href="#m4b880150e0" y="64.820856"/>
     <use style="fill:#1f77b4;stroke:#ffffff;" x="52.099617" xlink:href="#m4b880150e0" y="92.902327"/>
     <use style="fill:#1f77b4;stroke:#ffffff;" x="60.920864" xlink:href="#m4b880150e0" y="84.386615"/>
     <use style="fill:#1f77b4;stroke:#ffffff;" x="54.620593" xlink:href="#m4b880150e0" y="88.217494"/>
     <use style="fill:#1f77b4;stroke:#ffffff;" x="62.619081" xlink:href="#m4b880150e0" y="65.291075"/>
     <use style="fill:#1f77b4;stroke:#ffffff;" x="66.162192" xlink:href="#m4b880150e0" y="70.121145"/>
     <use style="fill:#1f77b4;stroke:#ffffff;" x="56.182708" xlink:href="#m4b880150e0" y="79.88838"/>
     <use style="fill:#1f77b4;stroke:#ffffff;" x="64.59856" xlink:href="#m4b880150e0" y="76.715934"/>
     <use style="fill:#1f77b4;stroke:#ffffff;" x="52.66487" xlink:href="#m4b880150e0" y="85.73047"/>
     <use style="fill:#1f77b4;stroke:#ffffff;" x="68.456955" xlink:href="#m4b880150e0" y="71.757436"/>
     <use style="fill:#1f77b4;stroke:#ffffff;" x="48.083312" xlink:href="#m4b880150e0" y="93.457125"/>
     <use style="fill:#1f77b4;stroke:#ffffff;" x="53.799942" xlink:href="#m4b880150e0" y="81.471972"/>
     <use style="fill:#1f77b4;stroke:#ffffff;" x="46.749836" xlink:href="#m4b880150e0" y="88.277525"/>
     <use style="fill:#1f77b4;stroke:#ffffff;" x="54.7962" xlink:href="#m4b880150e0" y="82.751797"/>
     <use style="fill:#1f77b4;stroke:#ffffff;" x="71.417313" xlink:href="#m4b880150e0" y="46.229346"/>
    </g>
   </g>
   <g id="matplotlib.axis_1">
    <g id="xtick_1">
     <g id="line2d_1">
      <defs>
       <path d="M 0 0 
L 0 3.5 
" id="m8a53736993" style="stroke:#000000;stroke-width:0.8;"/>
      </defs>
      <g>
       <use style="stroke:#000000;stroke-width:0.8;" x="32.42854" xlink:href="#m8a53736993" y="109.96"/>
      </g>
     </g>
     <g id="text_1">
      <!-- 0 -->
      <g transform="translate(29.88354 123.03875)scale(0.08 -0.08)">
       <defs>
        <path d="M 31.78125 66.40625 
Q 24.171875 66.40625 20.328125 58.90625 
Q 16.5 51.421875 16.5 36.375 
Q 16.5 21.390625 20.328125 13.890625 
Q 24.171875 6.390625 31.78125 6.390625 
Q 39.453125 6.390625 43.28125 13.890625 
Q 47.125 21.390625 47.125 36.375 
Q 47.125 51.421875 43.28125 58.90625 
Q 39.453125 66.40625 31.78125 66.40625 
z
M 31.78125 74.21875 
Q 44.046875 74.21875 50.515625 64.515625 
Q 56.984375 54.828125 56.984375 36.375 
Q 56.984375 17.96875 50.515625 8.265625 
Q 44.046875 -1.421875 31.78125 -1.421875 
Q 19.53125 -1.421875 13.0625 8.265625 
Q 6.59375 17.96875 6.59375 36.375 
Q 6.59375 54.828125 13.0625 64.515625 
Q 19.53125 74.21875 31.78125 74.21875 
z
" id="DejaVuSans-48"/>
       </defs>
       <use xlink:href="#DejaVuSans-48"/>
      </g>
     </g>
    </g>
    <g id="xtick_2">
     <g id="line2d_2">
      <g>
       <use style="stroke:#000000;stroke-width:0.8;" x="85.988717" xlink:href="#m8a53736993" y="109.96"/>
      </g>
     </g>
     <g id="text_2">
      <!-- 5 -->
      <g transform="translate(83.443717 123.03875)scale(0.08 -0.08)">
       <defs>
        <path d="M 10.796875 72.90625 
L 49.515625 72.90625 
L 49.515625 64.59375 
L 19.828125 64.59375 
L 19.828125 46.734375 
Q 21.96875 47.46875 24.109375 47.828125 
Q 26.265625 48.1875 28.421875 48.1875 
Q 40.625 48.1875 47.75 41.5 
Q 54.890625 34.8125 54.890625 23.390625 
Q 54.890625 11.625 47.5625 5.09375 
Q 40.234375 -1.421875 26.90625 -1.421875 
Q 22.3125 -1.421875 17.546875 -0.640625 
Q 12.796875 0.140625 7.71875 1.703125 
L 7.71875 11.625 
Q 12.109375 9.234375 16.796875 8.0625 
Q 21.484375 6.890625 26.703125 6.890625 
Q 35.15625 6.890625 40.078125 11.328125 
Q 45.015625 15.765625 45.015625 23.390625 
Q 45.015625 31 40.078125 35.4375 
Q 35.15625 39.890625 26.703125 39.890625 
Q 22.75 39.890625 18.8125 39.015625 
Q 14.890625 38.140625 10.796875 36.28125 
z
" id="DejaVuSans-53"/>
       </defs>
       <use xlink:href="#DejaVuSans-53"/>
      </g>
     </g>
    </g>
    <g id="text_3">
     <!-- Passive -->
     <g transform="translate(65.143875 134.78125)scale(0.08 -0.08)">
      <defs>
       <path d="M 19.671875 64.796875 
L 19.671875 37.40625 
L 32.078125 37.40625 
Q 38.96875 37.40625 42.71875 40.96875 
Q 46.484375 44.53125 46.484375 51.125 
Q 46.484375 57.671875 42.71875 61.234375 
Q 38.96875 64.796875 32.078125 64.796875 
z
M 9.8125 72.90625 
L 32.078125 72.90625 
Q 44.34375 72.90625 50.609375 67.359375 
Q 56.890625 61.8125 56.890625 51.125 
Q 56.890625 40.328125 50.609375 34.8125 
Q 44.34375 29.296875 32.078125 29.296875 
L 19.671875 29.296875 
L 19.671875 0 
L 9.8125 0 
z
" id="DejaVuSans-80"/>
       <path d="M 34.28125 27.484375 
Q 23.390625 27.484375 19.1875 25 
Q 14.984375 22.515625 14.984375 16.5 
Q 14.984375 11.71875 18.140625 8.90625 
Q 21.296875 6.109375 26.703125 6.109375 
Q 34.1875 6.109375 38.703125 11.40625 
Q 43.21875 16.703125 43.21875 25.484375 
L 43.21875 27.484375 
z
M 52.203125 31.203125 
L 52.203125 0 
L 43.21875 0 
L 43.21875 8.296875 
Q 40.140625 3.328125 35.546875 0.953125 
Q 30.953125 -1.421875 24.3125 -1.421875 
Q 15.921875 -1.421875 10.953125 3.296875 
Q 6 8.015625 6 15.921875 
Q 6 25.140625 12.171875 29.828125 
Q 18.359375 34.515625 30.609375 34.515625 
L 43.21875 34.515625 
L 43.21875 35.40625 
Q 43.21875 41.609375 39.140625 45 
Q 35.0625 48.390625 27.6875 48.390625 
Q 23 48.390625 18.546875 47.265625 
Q 14.109375 46.140625 10.015625 43.890625 
L 10.015625 52.203125 
Q 14.9375 54.109375 19.578125 55.046875 
Q 24.21875 56 28.609375 56 
Q 40.484375 56 46.34375 49.84375 
Q 52.203125 43.703125 52.203125 31.203125 
z
" id="DejaVuSans-97"/>
       <path d="M 44.28125 53.078125 
L 44.28125 44.578125 
Q 40.484375 46.53125 36.375 47.5 
Q 32.28125 48.484375 27.875 48.484375 
Q 21.1875 48.484375 17.84375 46.4375 
Q 14.5 44.390625 14.5 40.28125 
Q 14.5 37.15625 16.890625 35.375 
Q 19.28125 33.59375 26.515625 31.984375 
L 29.59375 31.296875 
Q 39.15625 29.25 43.1875 25.515625 
Q 47.21875 21.78125 47.21875 15.09375 
Q 47.21875 7.46875 41.1875 3.015625 
Q 35.15625 -1.421875 24.609375 -1.421875 
Q 20.21875 -1.421875 15.453125 -0.5625 
Q 10.6875 0.296875 5.421875 2 
L 5.421875 11.28125 
Q 10.40625 8.6875 15.234375 7.390625 
Q 20.0625 6.109375 24.8125 6.109375 
Q 31.15625 6.109375 34.5625 8.28125 
Q 37.984375 10.453125 37.984375 14.40625 
Q 37.984375 18.0625 35.515625 20.015625 
Q 33.0625 21.96875 24.703125 23.78125 
L 21.578125 24.515625 
Q 13.234375 26.265625 9.515625 29.90625 
Q 5.8125 33.546875 5.8125 39.890625 
Q 5.8125 47.609375 11.28125 51.796875 
Q 16.75 56 26.8125 56 
Q 31.78125 56 36.171875 55.265625 
Q 40.578125 54.546875 44.28125 53.078125 
z
" id="DejaVuSans-115"/>
       <path d="M 9.421875 54.6875 
L 18.40625 54.6875 
L 18.40625 0 
L 9.421875 0 
z
M 9.421875 75.984375 
L 18.40625 75.984375 
L 18.40625 64.59375 
L 9.421875 64.59375 
z
" id="DejaVuSans-105"/>
       <path d="M 2.984375 54.6875 
L 12.5 54.6875 
L 29.59375 8.796875 
L 46.6875 54.6875 
L 56.203125 54.6875 
L 35.6875 0 
L 23.484375 0 
z
" id="DejaVuSans-118"/>
       <path d="M 56.203125 29.59375 
L 56.203125 25.203125 
L 14.890625 25.203125 
Q 15.484375 15.921875 20.484375 11.0625 
Q 25.484375 6.203125 34.421875 6.203125 
Q 39.59375 6.203125 44.453125 7.46875 
Q 49.3125 8.734375 54.109375 11.28125 
L 54.109375 2.78125 
Q 49.265625 0.734375 44.1875 -0.34375 
Q 39.109375 -1.421875 33.890625 -1.421875 
Q 20.796875 -1.421875 13.15625 6.1875 
Q 5.515625 13.8125 5.515625 26.8125 
Q 5.515625 40.234375 12.765625 48.109375 
Q 20.015625 56 32.328125 56 
Q 43.359375 56 49.78125 48.890625 
Q 56.203125 41.796875 56.203125 29.59375 
z
M 47.21875 32.234375 
Q 47.125 39.59375 43.09375 43.984375 
Q 39.0625 48.390625 32.421875 48.390625 
Q 24.90625 48.390625 20.390625 44.140625 
Q 15.875 39.890625 15.1875 32.171875 
z
" id="DejaVuSans-101"/>
      </defs>
      <use xlink:href="#DejaVuSans-80"/>
      <use x="55.802734" xlink:href="#DejaVuSans-97"/>
      <use x="117.082031" xlink:href="#DejaVuSans-115"/>
      <use x="169.181641" xlink:href="#DejaVuSans-115"/>
      <use x="221.28125" xlink:href="#DejaVuSans-105"/>
      <use x="249.064453" xlink:href="#DejaVuSans-118"/>
      <use x="308.244141" xlink:href="#DejaVuSans-101"/>
     </g>
    </g>
   </g>
   <g id="matplotlib.axis_2">
    <g id="ytick_1">
     <g id="line2d_3">
      <defs>
       <path d="M 0 0 
L -3.5 0 
" id="m5457f6c73e" style="stroke:#000000;stroke-width:0.8;"/>
      </defs>
      <g>
       <use style="stroke:#000000;stroke-width:0.8;" x="31.97" xlink:href="#m5457f6c73e" y="109.489458"/>
      </g>
     </g>
     <g id="text_4">
      <!-- 0 -->
      <g transform="translate(19.88 112.528833)scale(0.08 -0.08)">
       <use xlink:href="#DejaVuSans-48"/>
      </g>
     </g>
    </g>
    <g id="ytick_2">
     <g id="line2d_4">
      <g>
       <use style="stroke:#000000;stroke-width:0.8;" x="31.97" xlink:href="#m5457f6c73e" y="87.504599"/>
      </g>
     </g>
     <g id="text_5">
      <!-- 2 -->
      <g transform="translate(19.88 90.543974)scale(0.08 -0.08)">
       <defs>
        <path d="M 19.1875 8.296875 
L 53.609375 8.296875 
L 53.609375 0 
L 7.328125 0 
L 7.328125 8.296875 
Q 12.9375 14.109375 22.625 23.890625 
Q 32.328125 33.6875 34.8125 36.53125 
Q 39.546875 41.84375 41.421875 45.53125 
Q 43.3125 49.21875 43.3125 52.78125 
Q 43.3125 58.59375 39.234375 62.25 
Q 35.15625 65.921875 28.609375 65.921875 
Q 23.96875 65.921875 18.8125 64.3125 
Q 13.671875 62.703125 7.8125 59.421875 
L 7.8125 69.390625 
Q 13.765625 71.78125 18.9375 73 
Q 24.125 74.21875 28.421875 74.21875 
Q 39.75 74.21875 46.484375 68.546875 
Q 53.21875 62.890625 53.21875 53.421875 
Q 53.21875 48.921875 51.53125 44.890625 
Q 49.859375 40.875 45.40625 35.40625 
Q 44.1875 33.984375 37.640625 27.21875 
Q 31.109375 20.453125 19.1875 8.296875 
z
" id="DejaVuSans-50"/>
       </defs>
       <use xlink:href="#DejaVuSans-50"/>
      </g>
     </g>
    </g>
    <g id="ytick_3">
     <g id="line2d_5">
      <g>
       <use style="stroke:#000000;stroke-width:0.8;" x="31.97" xlink:href="#m5457f6c73e" y="65.51974"/>
      </g>
     </g>
     <g id="text_6">
      <!-- 4 -->
      <g transform="translate(19.88 68.559115)scale(0.08 -0.08)">
       <defs>
        <path d="M 37.796875 64.3125 
L 12.890625 25.390625 
L 37.796875 25.390625 
z
M 35.203125 72.90625 
L 47.609375 72.90625 
L 47.609375 25.390625 
L 58.015625 25.390625 
L 58.015625 17.1875 
L 47.609375 17.1875 
L 47.609375 0 
L 37.796875 0 
L 37.796875 17.1875 
L 4.890625 17.1875 
L 4.890625 26.703125 
z
" id="DejaVuSans-52"/>
       </defs>
       <use xlink:href="#DejaVuSans-52"/>
      </g>
     </g>
    </g>
    <g id="ytick_4">
     <g id="line2d_6">
      <g>
       <use style="stroke:#000000;stroke-width:0.8;" x="31.97" xlink:href="#m5457f6c73e" y="43.534881"/>
      </g>
     </g>
     <g id="text_7">
      <!-- 6 -->
      <g transform="translate(19.88 46.574256)scale(0.08 -0.08)">
       <defs>
        <path d="M 33.015625 40.375 
Q 26.375 40.375 22.484375 35.828125 
Q 18.609375 31.296875 18.609375 23.390625 
Q 18.609375 15.53125 22.484375 10.953125 
Q 26.375 6.390625 33.015625 6.390625 
Q 39.65625 6.390625 43.53125 10.953125 
Q 47.40625 15.53125 47.40625 23.390625 
Q 47.40625 31.296875 43.53125 35.828125 
Q 39.65625 40.375 33.015625 40.375 
z
M 52.59375 71.296875 
L 52.59375 62.3125 
Q 48.875 64.0625 45.09375 64.984375 
Q 41.3125 65.921875 37.59375 65.921875 
Q 27.828125 65.921875 22.671875 59.328125 
Q 17.53125 52.734375 16.796875 39.40625 
Q 19.671875 43.65625 24.015625 45.921875 
Q 28.375 48.1875 33.59375 48.1875 
Q 44.578125 48.1875 50.953125 41.515625 
Q 57.328125 34.859375 57.328125 23.390625 
Q 57.328125 12.15625 50.6875 5.359375 
Q 44.046875 -1.421875 33.015625 -1.421875 
Q 20.359375 -1.421875 13.671875 8.265625 
Q 6.984375 17.96875 6.984375 36.375 
Q 6.984375 53.65625 15.1875 63.9375 
Q 23.390625 74.21875 37.203125 74.21875 
Q 40.921875 74.21875 44.703125 73.484375 
Q 48.484375 72.75 52.59375 71.296875 
z
" id="DejaVuSans-54"/>
       </defs>
       <use xlink:href="#DejaVuSans-54"/>
      </g>
     </g>
    </g>
    <g id="ytick_5">
     <g id="line2d_7">
      <g>
       <use style="stroke:#000000;stroke-width:0.8;" x="31.97" xlink:href="#m5457f6c73e" y="21.550022"/>
      </g>
     </g>
     <g id="text_8">
      <!-- 8 -->
      <g transform="translate(19.88 24.589397)scale(0.08 -0.08)">
       <defs>
        <path d="M 31.78125 34.625 
Q 24.75 34.625 20.71875 30.859375 
Q 16.703125 27.09375 16.703125 20.515625 
Q 16.703125 13.921875 20.71875 10.15625 
Q 24.75 6.390625 31.78125 6.390625 
Q 38.8125 6.390625 42.859375 10.171875 
Q 46.921875 13.96875 46.921875 20.515625 
Q 46.921875 27.09375 42.890625 30.859375 
Q 38.875 34.625 31.78125 34.625 
z
M 21.921875 38.8125 
Q 15.578125 40.375 12.03125 44.71875 
Q 8.5 49.078125 8.5 55.328125 
Q 8.5 64.0625 14.71875 69.140625 
Q 20.953125 74.21875 31.78125 74.21875 
Q 42.671875 74.21875 48.875 69.140625 
Q 55.078125 64.0625 55.078125 55.328125 
Q 55.078125 49.078125 51.53125 44.71875 
Q 48 40.375 41.703125 38.8125 
Q 48.828125 37.15625 52.796875 32.3125 
Q 56.78125 27.484375 56.78125 20.515625 
Q 56.78125 9.90625 50.3125 4.234375 
Q 43.84375 -1.421875 31.78125 -1.421875 
Q 19.734375 -1.421875 13.25 4.234375 
Q 6.78125 9.90625 6.78125 20.515625 
Q 6.78125 27.484375 10.78125 32.3125 
Q 14.796875 37.15625 21.921875 38.8125 
z
M 18.3125 54.390625 
Q 18.3125 48.734375 21.84375 45.5625 
Q 25.390625 42.390625 31.78125 42.390625 
Q 38.140625 42.390625 41.71875 45.5625 
Q 45.3125 48.734375 45.3125 54.390625 
Q 45.3125 60.0625 41.71875 63.234375 
Q 38.140625 66.40625 31.78125 66.40625 
Q 25.390625 66.40625 21.84375 63.234375 
Q 18.3125 60.0625 18.3125 54.390625 
z
" id="DejaVuSans-56"/>
       </defs>
       <use xlink:href="#DejaVuSans-56"/>
      </g>
     </g>
    </g>
    <g id="text_9">
     <!-- Active -->
     <g transform="translate(14.21625 73.11375)rotate(-90)scale(0.08 -0.08)">
      <defs>
       <path d="M 34.1875 63.1875 
L 20.796875 26.90625 
L 47.609375 26.90625 
z
M 28.609375 72.90625 
L 39.796875 72.90625 
L 67.578125 0 
L 57.328125 0 
L 50.6875 18.703125 
L 17.828125 18.703125 
L 11.1875 0 
L 0.78125 0 
z
" id="DejaVuSans-65"/>
       <path d="M 48.78125 52.59375 
L 48.78125 44.1875 
Q 44.96875 46.296875 41.140625 47.34375 
Q 37.3125 48.390625 33.40625 48.390625 
Q 24.65625 48.390625 19.8125 42.84375 
Q 14.984375 37.3125 14.984375 27.296875 
Q 14.984375 17.28125 19.8125 11.734375 
Q 24.65625 6.203125 33.40625 6.203125 
Q 37.3125 6.203125 41.140625 7.25 
Q 44.96875 8.296875 48.78125 10.40625 
L 48.78125 2.09375 
Q 45.015625 0.34375 40.984375 -0.53125 
Q 36.96875 -1.421875 32.421875 -1.421875 
Q 20.0625 -1.421875 12.78125 6.34375 
Q 5.515625 14.109375 5.515625 27.296875 
Q 5.515625 40.671875 12.859375 48.328125 
Q 20.21875 56 33.015625 56 
Q 37.15625 56 41.109375 55.140625 
Q 45.0625 54.296875 48.78125 52.59375 
z
" id="DejaVuSans-99"/>
       <path d="M 18.3125 70.21875 
L 18.3125 54.6875 
L 36.8125 54.6875 
L 36.8125 47.703125 
L 18.3125 47.703125 
L 18.3125 18.015625 
Q 18.3125 11.328125 20.140625 9.421875 
Q 21.96875 7.515625 27.59375 7.515625 
L 36.8125 7.515625 
L 36.8125 0 
L 27.59375 0 
Q 17.1875 0 13.234375 3.875 
Q 9.28125 7.765625 9.28125 18.015625 
L 9.28125 47.703125 
L 2.6875 47.703125 
L 2.6875 54.6875 
L 9.28125 54.6875 
L 9.28125 70.21875 
z
" id="DejaVuSans-116"/>
      </defs>
      <use xlink:href="#DejaVuSans-65"/>
      <use x="66.658203" xlink:href="#DejaVuSans-99"/>
      <use x="121.638672" xlink:href="#DejaVuSans-116"/>
      <use x="160.847656" xlink:href="#DejaVuSans-105"/>
      <use x="188.630859" xlink:href="#DejaVuSans-118"/>
      <use x="247.810547" xlink:href="#DejaVuSans-101"/>
     </g>
    </g>
   </g>
   <g id="line2d_8">
    <path clip-path="url(#p236a209e9e)" d="M 36.330409 105.485455 
L 123.538591 15.994545 
" style="fill:none;stroke:#000000;stroke-dasharray:5.55,2.4;stroke-dashoffset:0;stroke-width:1.5;"/>
   </g>
   <g id="patch_3">
    <path d="M 31.97 109.96 
L 31.97 11.52 
" style="fill:none;stroke:#000000;stroke-linecap:square;stroke-linejoin:miter;stroke-width:0.8;"/>
   </g>
   <g id="patch_4">
    <path d="M 31.97 109.96 
L 127.899 109.96 
" style="fill:none;stroke:#000000;stroke-linecap:square;stroke-linejoin:miter;stroke-width:0.8;"/>
   </g>
  </g>
  <g id="axes_2">
   <g id="patch_5">
    <path d="M 177.041 109.96 
L 272.97 109.96 
L 272.97 11.52 
L 177.041 11.52 
z
" style="fill:#ffffff;"/>
   </g>
   <g id="PathCollection_2">
    <defs>
     <path d="M 0 1.581139 
C 0.419323 1.581139 0.821528 1.41454 1.118034 1.118034 
C 1.41454 0.821528 1.581139 0.419323 1.581139 0 
C 1.581139 -0.419323 1.41454 -0.821528 1.118034 -1.118034 
C 0.821528 -1.41454 0.419323 -1.581139 0 -1.581139 
C -0.419323 -1.581139 -0.821528 -1.41454 -1.118034 -1.118034 
C -1.41454 -0.821528 -1.581139 -0.419323 -1.581139 0 
C -1.581139 0.419323 -1.41454 0.821528 -1.118034 1.118034 
C -0.821528 1.41454 -0.419323 1.581139 0 1.581139 
z
" id="m7bb421c138" style="stroke:#ffffff;stroke-opacity:0.8;"/>
    </defs>
    <g clip-path="url(#p3c97904604)">
     <use style="fill:#1f77b4;fill-opacity:0.8;stroke:#ffffff;stroke-opacity:0.8;" x="189.222461" xlink:href="#m7bb421c138" y="45.033824"/>
     <use style="fill:#1f77b4;fill-opacity:0.8;stroke:#ffffff;stroke-opacity:0.8;" x="249.697649" xlink:href="#m7bb421c138" y="81.308239"/>
     <use style="fill:#1f77b4;fill-opacity:0.8;stroke:#ffffff;stroke-opacity:0.8;" x="225.742543" xlink:href="#m7bb421c138" y="26.177693"/>
     <use style="fill:#1f77b4;fill-opacity:0.8;stroke:#ffffff;stroke-opacity:0.8;" x="229.971" xlink:href="#m7bb421c138" y="62.656208"/>
     <use style="fill:#1f77b4;fill-opacity:0.8;stroke:#ffffff;stroke-opacity:0.8;" x="228.363208" xlink:href="#m7bb421c138" y="72.782846"/>
     <use style="fill:#1f77b4;fill-opacity:0.8;stroke:#ffffff;stroke-opacity:0.8;" x="232.999583" xlink:href="#m7bb421c138" y="47.182803"/>
     <use style="fill:#1f77b4;fill-opacity:0.8;stroke:#ffffff;stroke-opacity:0.8;" x="239.884727" xlink:href="#m7bb421c138" y="56.917923"/>
     <use style="fill:#1f77b4;fill-opacity:0.8;stroke:#ffffff;stroke-opacity:0.8;" x="220.13292" xlink:href="#m7bb421c138" y="45.106046"/>
     <use style="fill:#1f77b4;fill-opacity:0.8;stroke:#ffffff;stroke-opacity:0.8;" x="238.224617" xlink:href="#m7bb421c138" y="78.249811"/>
     <use style="fill:#1f77b4;fill-opacity:0.8;stroke:#ffffff;stroke-opacity:0.8;" x="221.830548" xlink:href="#m7bb421c138" y="39.366261"/>
     <use style="fill:#1f77b4;fill-opacity:0.8;stroke:#ffffff;stroke-opacity:0.8;" x="249.635592" xlink:href="#m7bb421c138" y="69.318029"/>
     <use style="fill:#1f77b4;fill-opacity:0.8;stroke:#ffffff;stroke-opacity:0.8;" x="233.177226" xlink:href="#m7bb421c138" y="68.90757"/>
     <use style="fill:#1f77b4;fill-opacity:0.8;stroke:#ffffff;stroke-opacity:0.8;" x="194.509556" xlink:href="#m7bb421c138" y="56.4938"/>
     <use style="fill:#1f77b4;fill-opacity:0.8;stroke:#ffffff;stroke-opacity:0.8;" x="241.919811" xlink:href="#m7bb421c138" y="65.195307"/>
     <use style="fill:#1f77b4;fill-opacity:0.8;stroke:#ffffff;stroke-opacity:0.8;" x="223.102143" xlink:href="#m7bb421c138" y="77.461092"/>
     <use style="fill:#1f77b4;fill-opacity:0.8;stroke:#ffffff;stroke-opacity:0.8;" x="231.217817" xlink:href="#m7bb421c138" y="72.055187"/>
     <use style="fill:#1f77b4;fill-opacity:0.8;stroke:#ffffff;stroke-opacity:0.8;" x="244.688892" xlink:href="#m7bb421c138" y="71.31733"/>
     <use style="fill:#1f77b4;fill-opacity:0.8;stroke:#ffffff;stroke-opacity:0.8;" x="243.943784" xlink:href="#m7bb421c138" y="84.227358"/>
     <use style="fill:#1f77b4;fill-opacity:0.8;stroke:#ffffff;stroke-opacity:0.8;" x="231.884286" xlink:href="#m7bb421c138" y="78.430225"/>
     <use style="fill:#1f77b4;fill-opacity:0.8;stroke:#ffffff;stroke-opacity:0.8;" x="247.902132" xlink:href="#m7bb421c138" y="66.310352"/>
     <use style="fill:#1f77b4;fill-opacity:0.8;stroke:#ffffff;stroke-opacity:0.8;" x="235.19308" xlink:href="#m7bb421c138" y="92.379991"/>
     <use style="fill:#1f77b4;fill-opacity:0.8;stroke:#ffffff;stroke-opacity:0.8;" x="194.079291" xlink:href="#m7bb421c138" y="83.537942"/>
     <use style="fill:#1f77b4;fill-opacity:0.8;stroke:#ffffff;stroke-opacity:0.8;" x="209.136649" xlink:href="#m7bb421c138" y="69.76775"/>
     <use style="fill:#1f77b4;fill-opacity:0.8;stroke:#ffffff;stroke-opacity:0.8;" x="196.033001" xlink:href="#m7bb421c138" y="46.746149"/>
     <use style="fill:#1f77b4;fill-opacity:0.8;stroke:#ffffff;stroke-opacity:0.8;" x="231.479798" xlink:href="#m7bb421c138" y="70.011521"/>
     <use style="fill:#1f77b4;fill-opacity:0.8;stroke:#ffffff;stroke-opacity:0.8;" x="183.387179" xlink:href="#m7bb421c138" y="87.029859"/>
     <use style="fill:#1f77b4;fill-opacity:0.8;stroke:#ffffff;stroke-opacity:0.8;" x="207.304318" xlink:href="#m7bb421c138" y="74.301627"/>
     <use style="fill:#1f77b4;fill-opacity:0.8;stroke:#ffffff;stroke-opacity:0.8;" x="239.94425" xlink:href="#m7bb421c138" y="95.421133"/>
     <use style="fill:#1f77b4;fill-opacity:0.8;stroke:#ffffff;stroke-opacity:0.8;" x="225.770894" xlink:href="#m7bb421c138" y="83.324108"/>
     <use style="fill:#1f77b4;fill-opacity:0.8;stroke:#ffffff;stroke-opacity:0.8;" x="246.918296" xlink:href="#m7bb421c138" y="78.177956"/>
     <use style="fill:#1f77b4;fill-opacity:0.8;stroke:#ffffff;stroke-opacity:0.8;" x="247.940908" xlink:href="#m7bb421c138" y="46.265357"/>
     <use style="fill:#1f77b4;fill-opacity:0.8;stroke:#ffffff;stroke-opacity:0.8;" x="236.45382" xlink:href="#m7bb421c138" y="88.157817"/>
     <use style="fill:#1f77b4;fill-opacity:0.8;stroke:#ffffff;stroke-opacity:0.8;" x="247.677069" xlink:href="#m7bb421c138" y="79.630203"/>
     <use style="fill:#1f77b4;fill-opacity:0.8;stroke:#ffffff;stroke-opacity:0.8;" x="257.533151" xlink:href="#m7bb421c138" y="74.808178"/>
     <use style="fill:#1f77b4;fill-opacity:0.8;stroke:#ffffff;stroke-opacity:0.8;" x="262.572575" xlink:href="#m7bb421c138" y="79.463454"/>
     <use style="fill:#1f77b4;fill-opacity:0.8;stroke:#ffffff;stroke-opacity:0.8;" x="252.621425" xlink:href="#m7bb421c138" y="62.28444"/>
     <use style="fill:#1f77b4;fill-opacity:0.8;stroke:#ffffff;stroke-opacity:0.8;" x="258.792556" xlink:href="#m7bb421c138" y="53.048156"/>
     <use style="fill:#1f77b4;fill-opacity:0.8;stroke:#ffffff;stroke-opacity:0.8;" x="232.298351" xlink:href="#m7bb421c138" y="47.578996"/>
     <use style="fill:#1f77b4;fill-opacity:0.8;stroke:#ffffff;stroke-opacity:0.8;" x="210.730347" xlink:href="#m7bb421c138" y="94.59457"/>
     <use style="fill:#1f77b4;fill-opacity:0.8;stroke:#ffffff;stroke-opacity:0.8;" x="244.681964" xlink:href="#m7bb421c138" y="78.789262"/>
     <use style="fill:#1f77b4;fill-opacity:0.8;stroke:#ffffff;stroke-opacity:0.8;" x="235.814959" xlink:href="#m7bb421c138" y="83.542171"/>
     <use style="fill:#1f77b4;fill-opacity:0.8;stroke:#ffffff;stroke-opacity:0.8;" x="261.126911" xlink:href="#m7bb421c138" y="83.281142"/>
     <use style="fill:#1f77b4;fill-opacity:0.8;stroke:#ffffff;stroke-opacity:0.8;" x="238.962272" xlink:href="#m7bb421c138" y="68.34315"/>
     <use style="fill:#1f77b4;fill-opacity:0.8;stroke:#ffffff;stroke-opacity:0.8;" x="202.220972" xlink:href="#m7bb421c138" y="91.708411"/>
     <use style="fill:#1f77b4;fill-opacity:0.8;stroke:#ffffff;stroke-opacity:0.8;" x="212.055088" xlink:href="#m7bb421c138" y="105.096152"/>
     <use style="fill:#1f77b4;fill-opacity:0.8;stroke:#ffffff;stroke-opacity:0.8;" x="238.882671" xlink:href="#m7bb421c138" y="79.214849"/>
     <use style="fill:#1f77b4;fill-opacity:0.8;stroke:#ffffff;stroke-opacity:0.8;" x="251.886705" xlink:href="#m7bb421c138" y="86.31165"/>
     <use style="fill:#1f77b4;fill-opacity:0.8;stroke:#ffffff;stroke-opacity:0.8;" x="226.029196" xlink:href="#m7bb421c138" y="87.879875"/>
     <use style="fill:#1f77b4;fill-opacity:0.8;stroke:#ffffff;stroke-opacity:0.8;" x="236.747029" xlink:href="#m7bb421c138" y="80.178721"/>
     <use style="fill:#1f77b4;fill-opacity:0.8;stroke:#ffffff;stroke-opacity:0.8;" x="257.34938" xlink:href="#m7bb421c138" y="37.15033"/>
     <use style="fill:#1f77b4;fill-opacity:0.8;stroke:#ffffff;stroke-opacity:0.8;" x="256.146628" xlink:href="#m7bb421c138" y="61.89969"/>
     <use style="fill:#1f77b4;fill-opacity:0.8;stroke:#ffffff;stroke-opacity:0.8;" x="253.315863" xlink:href="#m7bb421c138" y="60.515548"/>
     <use style="fill:#1f77b4;fill-opacity:0.8;stroke:#ffffff;stroke-opacity:0.8;" x="253.315863" xlink:href="#m7bb421c138" y="76.488168"/>
     <use style="fill:#1f77b4;fill-opacity:0.8;stroke:#ffffff;stroke-opacity:0.8;" x="244.546594" xlink:href="#m7bb421c138" y="67.041096"/>
     <use style="fill:#1f77b4;fill-opacity:0.8;stroke:#ffffff;stroke-opacity:0.8;" x="244.546594" xlink:href="#m7bb421c138" y="73.567371"/>
     <use style="fill:#1f77b4;fill-opacity:0.8;stroke:#ffffff;stroke-opacity:0.8;" x="232.699341" xlink:href="#m7bb421c138" y="75.884911"/>
     <use style="fill:#1f77b4;fill-opacity:0.8;stroke:#ffffff;stroke-opacity:0.8;" x="232.699341" xlink:href="#m7bb421c138" y="57.996901"/>
     <use style="fill:#1f77b4;fill-opacity:0.8;stroke:#ffffff;stroke-opacity:0.8;" x="255.562401" xlink:href="#m7bb421c138" y="56.742486"/>
     <use style="fill:#1f77b4;fill-opacity:0.8;stroke:#ffffff;stroke-opacity:0.8;" x="255.562401" xlink:href="#m7bb421c138" y="64.727061"/>
     <use style="fill:#1f77b4;fill-opacity:0.8;stroke:#ffffff;stroke-opacity:0.8;" x="239.896439" xlink:href="#m7bb421c138" y="7.819184"/>
    </g>
   </g>
   <g id="PolyCollection_1">
    <path clip-path="url(#p3c97904604)" d="M 183.387179 57.910663 
L 183.387179 85.876144 
L 184.187031 85.685128 
L 184.986884 85.494112 
L 185.786736 85.303096 
L 186.586589 85.11208 
L 187.386441 84.906791 
L 188.186294 84.639289 
L 188.986146 84.409895 
L 189.785999 84.211729 
L 190.585851 84.013563 
L 191.385704 83.815397 
L 192.185556 83.617232 
L 192.985409 83.419066 
L 193.785261 83.2209 
L 194.585114 83.045787 
L 195.384966 82.870789 
L 196.184819 82.695791 
L 196.984671 82.520388 
L 197.784524 82.344423 
L 198.584376 82.168457 
L 199.384228 81.943731 
L 200.184081 81.680689 
L 200.983933 81.432167 
L 201.783786 81.232864 
L 202.583638 81.011942 
L 203.383491 80.759546 
L 204.183343 80.506399 
L 204.983196 80.253252 
L 205.783048 80.000105 
L 206.582901 79.746957 
L 207.382753 79.490023 
L 208.182606 79.227644 
L 208.982458 78.965899 
L 209.782311 78.733757 
L 210.582163 78.56983 
L 211.382016 78.4055 
L 212.181868 78.20988 
L 212.981721 77.96858 
L 213.781573 77.7265 
L 214.581426 77.483703 
L 215.381278 77.376451 
L 216.181131 77.172981 
L 216.980983 76.884495 
L 217.780836 76.687349 
L 218.580688 76.489756 
L 219.380541 76.26414 
L 220.180393 76.099975 
L 220.980246 75.910075 
L 221.780098 75.789773 
L 222.57995 75.668786 
L 223.379803 75.548961 
L 224.179655 75.42835 
L 224.979508 75.307323 
L 225.77936 75.078847 
L 226.579213 74.848805 
L 227.379065 74.779203 
L 228.178918 74.574811 
L 228.97877 74.425753 
L 229.778623 74.288095 
L 230.578475 74.158243 
L 231.378328 74.049746 
L 232.17818 74.026933 
L 232.978033 73.859293 
L 233.777885 73.778733 
L 234.577738 73.647212 
L 235.37759 73.536587 
L 236.177443 73.529097 
L 236.977295 73.500835 
L 237.777148 73.408013 
L 238.577 73.406336 
L 239.376853 73.308968 
L 240.176705 73.248691 
L 240.976558 73.24275 
L 241.77641 73.223441 
L 242.576263 73.30893 
L 243.376115 73.380155 
L 244.175968 73.402792 
L 244.97582 73.396649 
L 245.775672 73.395397 
L 246.575525 73.394136 
L 247.375377 73.424581 
L 248.17523 73.408355 
L 248.975082 73.390351 
L 249.774935 73.429839 
L 250.574787 73.514087 
L 251.37464 73.530341 
L 252.174492 73.572891 
L 252.974345 73.633728 
L 253.774197 73.685037 
L 254.57405 73.753442 
L 255.373902 73.893041 
L 256.173755 73.945414 
L 256.973607 74.089956 
L 257.77346 74.28692 
L 258.573312 74.372906 
L 259.373165 74.457816 
L 260.173017 74.526013 
L 260.97287 74.594209 
L 261.772722 74.662405 
L 262.572575 74.802648 
L 262.572575 60.552915 
L 262.572575 60.552915 
L 261.772722 60.699873 
L 260.97287 60.84749 
L 260.173017 60.976155 
L 259.373165 61.142725 
L 258.573312 61.287483 
L 257.77346 61.431412 
L 256.973607 61.580996 
L 256.173755 61.731191 
L 255.373902 61.972286 
L 254.57405 62.138294 
L 253.774197 62.306054 
L 252.974345 62.473815 
L 252.174492 62.688109 
L 251.37464 62.834504 
L 250.574787 62.952848 
L 249.774935 63.076431 
L 248.975082 63.200015 
L 248.17523 63.386087 
L 247.375377 63.538068 
L 246.575525 63.72791 
L 245.775672 63.788514 
L 244.97582 63.831645 
L 244.175968 63.938102 
L 243.376115 64.051302 
L 242.576263 64.117439 
L 241.77641 64.244174 
L 240.976558 64.25201 
L 240.176705 64.32857 
L 239.376853 64.378346 
L 238.577 64.389074 
L 237.777148 64.355319 
L 236.977295 64.30395 
L 236.177443 64.484473 
L 235.37759 64.469272 
L 234.577738 64.447565 
L 233.777885 64.407216 
L 232.978033 64.409977 
L 232.17818 64.37518 
L 231.378328 64.307509 
L 230.578475 64.239838 
L 229.778623 64.194254 
L 228.97877 64.10863 
L 228.178918 64.135849 
L 227.379065 64.069241 
L 226.579213 64.001474 
L 225.77936 63.920165 
L 224.979508 63.895499 
L 224.179655 63.870075 
L 223.379803 63.834545 
L 222.57995 63.719753 
L 221.780098 63.588778 
L 220.980246 63.445537 
L 220.180393 63.328657 
L 219.380541 63.248114 
L 218.580688 63.180837 
L 217.780836 63.111347 
L 216.980983 63.05135 
L 216.181131 63.021755 
L 215.381278 62.931626 
L 214.581426 62.886412 
L 213.781573 62.769057 
L 212.981721 62.617945 
L 212.181868 62.411438 
L 211.382016 62.308427 
L 210.582163 62.324158 
L 209.782311 62.210199 
L 208.982458 62.059889 
L 208.182606 61.978643 
L 207.382753 61.849027 
L 206.582901 61.72053 
L 205.783048 61.616613 
L 204.983196 61.525759 
L 204.183343 61.439698 
L 203.383491 61.352045 
L 202.583638 61.194693 
L 201.783786 61.008374 
L 200.983933 60.828774 
L 200.184081 60.682477 
L 199.384228 60.569437 
L 198.584376 60.438739 
L 197.784524 60.293023 
L 196.984671 60.196014 
L 196.184819 60.104044 
L 195.384966 60.012073 
L 194.585114 59.859758 
L 193.785261 59.689064 
L 192.985409 59.518371 
L 192.185556 59.383652 
L 191.385704 59.254778 
L 190.585851 59.165642 
L 189.785999 59.032407 
L 188.986146 58.870614 
L 188.186294 58.734942 
L 187.386441 58.604327 
L 186.586589 58.473713 
L 185.786736 58.343098 
L 184.986884 58.212484 
L 184.187031 58.081869 
L 183.387179 57.910663 
z
" style="fill:#1f77b4;fill-opacity:0.15;"/>
   </g>
   <g id="PathCollection_3">
    <defs>
     <path d="M 0 1.581139 
C 0.419323 1.581139 0.821528 1.41454 1.118034 1.118034 
C 1.41454 0.821528 1.581139 0.419323 1.581139 0 
C 1.581139 -0.419323 1.41454 -0.821528 1.118034 -1.118034 
C 0.821528 -1.41454 0.419323 -1.581139 0 -1.581139 
C -0.419323 -1.581139 -0.821528 -1.41454 -1.118034 -1.118034 
C -1.41454 -0.821528 -1.581139 -0.419323 -1.581139 0 
C -1.581139 0.419323 -1.41454 0.821528 -1.118034 1.118034 
C -0.821528 1.41454 -0.419323 1.581139 0 1.581139 
z
" id="mb829b4be66" style="stroke:#ff0000;"/>
    </defs>
    <g clip-path="url(#p3c97904604)">
     <use style="fill:#ff0000;stroke:#ff0000;" x="239.896439" xlink:href="#mb829b4be66" y="14.733537"/>
    </g>
   </g>
   <g id="matplotlib.axis_3">
    <g id="xtick_3">
     <g id="line2d_9">
      <g>
       <use style="stroke:#000000;stroke-width:0.8;" x="177.041" xlink:href="#m8a53736993" y="109.96"/>
      </g>
     </g>
     <g id="text_10">
      <!-- 0.4 -->
      <g transform="translate(170.67975 123.03875)scale(0.08 -0.08)">
       <defs>
        <path d="M 10.6875 12.40625 
L 21 12.40625 
L 21 0 
L 10.6875 0 
z
" id="DejaVuSans-46"/>
       </defs>
       <use xlink:href="#DejaVuSans-48"/>
       <use x="63.623047" xlink:href="#DejaVuSans-46"/>
       <use x="95.410156" xlink:href="#DejaVuSans-52"/>
      </g>
     </g>
    </g>
    <g id="xtick_4">
     <g id="line2d_10">
      <g>
       <use style="stroke:#000000;stroke-width:0.8;" x="209.017333" xlink:href="#m8a53736993" y="109.96"/>
      </g>
     </g>
     <g id="text_11">
      <!-- 0.6 -->
      <g transform="translate(202.656083 123.03875)scale(0.08 -0.08)">
       <use xlink:href="#DejaVuSans-48"/>
       <use x="63.623047" xlink:href="#DejaVuSans-46"/>
       <use x="95.410156" xlink:href="#DejaVuSans-54"/>
      </g>
     </g>
    </g>
    <g id="xtick_5">
     <g id="line2d_11">
      <g>
       <use style="stroke:#000000;stroke-width:0.8;" x="240.993667" xlink:href="#m8a53736993" y="109.96"/>
      </g>
     </g>
     <g id="text_12">
      <!-- 0.8 -->
      <g transform="translate(234.632417 123.03875)scale(0.08 -0.08)">
       <use xlink:href="#DejaVuSans-48"/>
       <use x="63.623047" xlink:href="#DejaVuSans-46"/>
       <use x="95.410156" xlink:href="#DejaVuSans-56"/>
      </g>
     </g>
    </g>
    <g id="xtick_6">
     <g id="line2d_12">
      <g>
       <use style="stroke:#000000;stroke-width:0.8;" x="272.97" xlink:href="#m8a53736993" y="109.96"/>
      </g>
     </g>
     <g id="text_13">
      <!-- 1.0 -->
      <g transform="translate(266.60875 123.03875)scale(0.08 -0.08)">
       <defs>
        <path d="M 12.40625 8.296875 
L 28.515625 8.296875 
L 28.515625 63.921875 
L 10.984375 60.40625 
L 10.984375 69.390625 
L 28.421875 72.90625 
L 38.28125 72.90625 
L 38.28125 8.296875 
L 54.390625 8.296875 
L 54.390625 0 
L 12.40625 0 
z
" id="DejaVuSans-49"/>
       </defs>
       <use xlink:href="#DejaVuSans-49"/>
       <use x="63.623047" xlink:href="#DejaVuSans-46"/>
       <use x="95.410156" xlink:href="#DejaVuSans-48"/>
      </g>
     </g>
    </g>
    <g id="text_14">
     <!-- Behavior performance (DI) -->
     <g transform="translate(171.701125 134.78125)scale(0.08 -0.08)">
      <defs>
       <path d="M 19.671875 34.8125 
L 19.671875 8.109375 
L 35.5 8.109375 
Q 43.453125 8.109375 47.28125 11.40625 
Q 51.125 14.703125 51.125 21.484375 
Q 51.125 28.328125 47.28125 31.5625 
Q 43.453125 34.8125 35.5 34.8125 
z
M 19.671875 64.796875 
L 19.671875 42.828125 
L 34.28125 42.828125 
Q 41.5 42.828125 45.03125 45.53125 
Q 48.578125 48.25 48.578125 53.8125 
Q 48.578125 59.328125 45.03125 62.0625 
Q 41.5 64.796875 34.28125 64.796875 
z
M 9.8125 72.90625 
L 35.015625 72.90625 
Q 46.296875 72.90625 52.390625 68.21875 
Q 58.5 63.53125 58.5 54.890625 
Q 58.5 48.1875 55.375 44.234375 
Q 52.25 40.28125 46.1875 39.3125 
Q 53.46875 37.75 57.5 32.78125 
Q 61.53125 27.828125 61.53125 20.40625 
Q 61.53125 10.640625 54.890625 5.3125 
Q 48.25 0 35.984375 0 
L 9.8125 0 
z
" id="DejaVuSans-66"/>
       <path d="M 54.890625 33.015625 
L 54.890625 0 
L 45.90625 0 
L 45.90625 32.71875 
Q 45.90625 40.484375 42.875 44.328125 
Q 39.84375 48.1875 33.796875 48.1875 
Q 26.515625 48.1875 22.3125 43.546875 
Q 18.109375 38.921875 18.109375 30.90625 
L 18.109375 0 
L 9.078125 0 
L 9.078125 75.984375 
L 18.109375 75.984375 
L 18.109375 46.1875 
Q 21.34375 51.125 25.703125 53.5625 
Q 30.078125 56 35.796875 56 
Q 45.21875 56 50.046875 50.171875 
Q 54.890625 44.34375 54.890625 33.015625 
z
" id="DejaVuSans-104"/>
       <path d="M 30.609375 48.390625 
Q 23.390625 48.390625 19.1875 42.75 
Q 14.984375 37.109375 14.984375 27.296875 
Q 14.984375 17.484375 19.15625 11.84375 
Q 23.34375 6.203125 30.609375 6.203125 
Q 37.796875 6.203125 41.984375 11.859375 
Q 46.1875 17.53125 46.1875 27.296875 
Q 46.1875 37.015625 41.984375 42.703125 
Q 37.796875 48.390625 30.609375 48.390625 
z
M 30.609375 56 
Q 42.328125 56 49.015625 48.375 
Q 55.71875 40.765625 55.71875 27.296875 
Q 55.71875 13.875 49.015625 6.21875 
Q 42.328125 -1.421875 30.609375 -1.421875 
Q 18.84375 -1.421875 12.171875 6.21875 
Q 5.515625 13.875 5.515625 27.296875 
Q 5.515625 40.765625 12.171875 48.375 
Q 18.84375 56 30.609375 56 
z
" id="DejaVuSans-111"/>
       <path d="M 41.109375 46.296875 
Q 39.59375 47.171875 37.8125 47.578125 
Q 36.03125 48 33.890625 48 
Q 26.265625 48 22.1875 43.046875 
Q 18.109375 38.09375 18.109375 28.8125 
L 18.109375 0 
L 9.078125 0 
L 9.078125 54.6875 
L 18.109375 54.6875 
L 18.109375 46.1875 
Q 20.953125 51.171875 25.484375 53.578125 
Q 30.03125 56 36.53125 56 
Q 37.453125 56 38.578125 55.875 
Q 39.703125 55.765625 41.0625 55.515625 
z
" id="DejaVuSans-114"/>
       <path id="DejaVuSans-32"/>
       <path d="M 18.109375 8.203125 
L 18.109375 -20.796875 
L 9.078125 -20.796875 
L 9.078125 54.6875 
L 18.109375 54.6875 
L 18.109375 46.390625 
Q 20.953125 51.265625 25.265625 53.625 
Q 29.59375 56 35.59375 56 
Q 45.5625 56 51.78125 48.09375 
Q 58.015625 40.1875 58.015625 27.296875 
Q 58.015625 14.40625 51.78125 6.484375 
Q 45.5625 -1.421875 35.59375 -1.421875 
Q 29.59375 -1.421875 25.265625 0.953125 
Q 20.953125 3.328125 18.109375 8.203125 
z
M 48.6875 27.296875 
Q 48.6875 37.203125 44.609375 42.84375 
Q 40.53125 48.484375 33.40625 48.484375 
Q 26.265625 48.484375 22.1875 42.84375 
Q 18.109375 37.203125 18.109375 27.296875 
Q 18.109375 17.390625 22.1875 11.75 
Q 26.265625 6.109375 33.40625 6.109375 
Q 40.53125 6.109375 44.609375 11.75 
Q 48.6875 17.390625 48.6875 27.296875 
z
" id="DejaVuSans-112"/>
       <path d="M 37.109375 75.984375 
L 37.109375 68.5 
L 28.515625 68.5 
Q 23.6875 68.5 21.796875 66.546875 
Q 19.921875 64.59375 19.921875 59.515625 
L 19.921875 54.6875 
L 34.71875 54.6875 
L 34.71875 47.703125 
L 19.921875 47.703125 
L 19.921875 0 
L 10.890625 0 
L 10.890625 47.703125 
L 2.296875 47.703125 
L 2.296875 54.6875 
L 10.890625 54.6875 
L 10.890625 58.5 
Q 10.890625 67.625 15.140625 71.796875 
Q 19.390625 75.984375 28.609375 75.984375 
z
" id="DejaVuSans-102"/>
       <path d="M 52 44.1875 
Q 55.375 50.25 60.0625 53.125 
Q 64.75 56 71.09375 56 
Q 79.640625 56 84.28125 50.015625 
Q 88.921875 44.046875 88.921875 33.015625 
L 88.921875 0 
L 79.890625 0 
L 79.890625 32.71875 
Q 79.890625 40.578125 77.09375 44.375 
Q 74.3125 48.1875 68.609375 48.1875 
Q 61.625 48.1875 57.5625 43.546875 
Q 53.515625 38.921875 53.515625 30.90625 
L 53.515625 0 
L 44.484375 0 
L 44.484375 32.71875 
Q 44.484375 40.625 41.703125 44.40625 
Q 38.921875 48.1875 33.109375 48.1875 
Q 26.21875 48.1875 22.15625 43.53125 
Q 18.109375 38.875 18.109375 30.90625 
L 18.109375 0 
L 9.078125 0 
L 9.078125 54.6875 
L 18.109375 54.6875 
L 18.109375 46.1875 
Q 21.1875 51.21875 25.484375 53.609375 
Q 29.78125 56 35.6875 56 
Q 41.65625 56 45.828125 52.96875 
Q 50 49.953125 52 44.1875 
z
" id="DejaVuSans-109"/>
       <path d="M 54.890625 33.015625 
L 54.890625 0 
L 45.90625 0 
L 45.90625 32.71875 
Q 45.90625 40.484375 42.875 44.328125 
Q 39.84375 48.1875 33.796875 48.1875 
Q 26.515625 48.1875 22.3125 43.546875 
Q 18.109375 38.921875 18.109375 30.90625 
L 18.109375 0 
L 9.078125 0 
L 9.078125 54.6875 
L 18.109375 54.6875 
L 18.109375 46.1875 
Q 21.34375 51.125 25.703125 53.5625 
Q 30.078125 56 35.796875 56 
Q 45.21875 56 50.046875 50.171875 
Q 54.890625 44.34375 54.890625 33.015625 
z
" id="DejaVuSans-110"/>
       <path d="M 31 75.875 
Q 24.46875 64.65625 21.28125 53.65625 
Q 18.109375 42.671875 18.109375 31.390625 
Q 18.109375 20.125 21.3125 9.0625 
Q 24.515625 -2 31 -13.1875 
L 23.1875 -13.1875 
Q 15.875 -1.703125 12.234375 9.375 
Q 8.59375 20.453125 8.59375 31.390625 
Q 8.59375 42.28125 12.203125 53.3125 
Q 15.828125 64.359375 23.1875 75.875 
z
" id="DejaVuSans-40"/>
       <path d="M 19.671875 64.796875 
L 19.671875 8.109375 
L 31.59375 8.109375 
Q 46.6875 8.109375 53.6875 14.9375 
Q 60.6875 21.78125 60.6875 36.53125 
Q 60.6875 51.171875 53.6875 57.984375 
Q 46.6875 64.796875 31.59375 64.796875 
z
M 9.8125 72.90625 
L 30.078125 72.90625 
Q 51.265625 72.90625 61.171875 64.09375 
Q 71.09375 55.28125 71.09375 36.53125 
Q 71.09375 17.671875 61.125 8.828125 
Q 51.171875 0 30.078125 0 
L 9.8125 0 
z
" id="DejaVuSans-68"/>
       <path d="M 9.8125 72.90625 
L 19.671875 72.90625 
L 19.671875 0 
L 9.8125 0 
z
" id="DejaVuSans-73"/>
       <path d="M 8.015625 75.875 
L 15.828125 75.875 
Q 23.140625 64.359375 26.78125 53.3125 
Q 30.421875 42.28125 30.421875 31.390625 
Q 30.421875 20.453125 26.78125 9.375 
Q 23.140625 -1.703125 15.828125 -13.1875 
L 8.015625 -13.1875 
Q 14.5 -2 17.703125 9.0625 
Q 20.90625 20.125 20.90625 31.390625 
Q 20.90625 42.671875 17.703125 53.65625 
Q 14.5 64.65625 8.015625 75.875 
z
" id="DejaVuSans-41"/>
      </defs>
      <use xlink:href="#DejaVuSans-66"/>
      <use x="68.603516" xlink:href="#DejaVuSans-101"/>
      <use x="130.126953" xlink:href="#DejaVuSans-104"/>
      <use x="193.505859" xlink:href="#DejaVuSans-97"/>
      <use x="254.785156" xlink:href="#DejaVuSans-118"/>
      <use x="313.964844" xlink:href="#DejaVuSans-105"/>
      <use x="341.748047" xlink:href="#DejaVuSans-111"/>
      <use x="402.929688" xlink:href="#DejaVuSans-114"/>
      <use x="444.042969" xlink:href="#DejaVuSans-32"/>
      <use x="475.830078" xlink:href="#DejaVuSans-112"/>
      <use x="539.306641" xlink:href="#DejaVuSans-101"/>
      <use x="600.830078" xlink:href="#DejaVuSans-114"/>
      <use x="641.943359" xlink:href="#DejaVuSans-102"/>
      <use x="677.148438" xlink:href="#DejaVuSans-111"/>
      <use x="738.330078" xlink:href="#DejaVuSans-114"/>
      <use x="777.693359" xlink:href="#DejaVuSans-109"/>
      <use x="875.105469" xlink:href="#DejaVuSans-97"/>
      <use x="936.384766" xlink:href="#DejaVuSans-110"/>
      <use x="999.763672" xlink:href="#DejaVuSans-99"/>
      <use x="1054.744141" xlink:href="#DejaVuSans-101"/>
      <use x="1116.267578" xlink:href="#DejaVuSans-32"/>
      <use x="1148.054688" xlink:href="#DejaVuSans-40"/>
      <use x="1187.068359" xlink:href="#DejaVuSans-68"/>
      <use x="1264.070312" xlink:href="#DejaVuSans-73"/>
      <use x="1293.5625" xlink:href="#DejaVuSans-41"/>
     </g>
    </g>
   </g>
   <g id="matplotlib.axis_4">
    <g id="ytick_6">
     <g id="line2d_13">
      <g>
       <use style="stroke:#000000;stroke-width:0.8;" x="177.041" xlink:href="#m5457f6c73e" y="107.926112"/>
      </g>
     </g>
     <g id="text_15">
      <!-- −1 -->
      <g transform="translate(158.24725 110.965487)scale(0.08 -0.08)">
       <defs>
        <path d="M 10.59375 35.5 
L 73.1875 35.5 
L 73.1875 27.203125 
L 10.59375 27.203125 
z
" id="DejaVuSans-8722"/>
       </defs>
       <use xlink:href="#DejaVuSans-8722"/>
       <use x="83.789062" xlink:href="#DejaVuSans-49"/>
      </g>
     </g>
    </g>
    <g id="ytick_7">
     <g id="line2d_14">
      <g>
       <use style="stroke:#000000;stroke-width:0.8;" x="177.041" xlink:href="#m5457f6c73e" y="75.790741"/>
      </g>
     </g>
     <g id="text_16">
      <!-- 0 -->
      <g transform="translate(164.951 78.830116)scale(0.08 -0.08)">
       <use xlink:href="#DejaVuSans-48"/>
      </g>
     </g>
    </g>
    <g id="ytick_8">
     <g id="line2d_15">
      <g>
       <use style="stroke:#000000;stroke-width:0.8;" x="177.041" xlink:href="#m5457f6c73e" y="43.655371"/>
      </g>
     </g>
     <g id="text_17">
      <!-- 1 -->
      <g transform="translate(164.951 46.694746)scale(0.08 -0.08)">
       <use xlink:href="#DejaVuSans-49"/>
      </g>
     </g>
    </g>
    <g id="ytick_9">
     <g id="line2d_16">
      <g>
       <use style="stroke:#000000;stroke-width:0.8;" x="177.041" xlink:href="#m5457f6c73e" y="11.52"/>
      </g>
     </g>
     <g id="text_18">
      <!-- 2 -->
      <g transform="translate(164.951 14.559375)scale(0.08 -0.08)">
       <use xlink:href="#DejaVuSans-50"/>
      </g>
     </g>
    </g>
    <g id="text_19">
     <!-- $\Delta d'$ -->
     <g transform="translate(143.62525 67.22)rotate(-90)scale(0.08 -0.08)">
      <defs>
       <path d="M 34.1875 63.1875 
L 14.15625 8.203125 
L 54.25 8.203125 
z
M 0.78125 0 
L 28.609375 72.90625 
L 39.796875 72.90625 
L 67.578125 0 
z
" id="DejaVuSans-916"/>
       <path d="M 41.796875 8.203125 
Q 38.1875 3.46875 33.25 1.015625 
Q 28.328125 -1.421875 22.3125 -1.421875 
Q 14.109375 -1.421875 9.34375 4.171875 
Q 4.59375 9.765625 4.59375 19.484375 
Q 4.59375 27.59375 7.46875 34.9375 
Q 10.359375 42.28125 15.828125 48.09375 
Q 19.4375 51.953125 23.96875 53.96875 
Q 28.515625 56 33.5 56 
Q 38.765625 56 42.796875 53.453125 
Q 46.828125 50.921875 49.03125 46.1875 
L 54.890625 75.984375 
L 63.921875 75.984375 
L 49.125 0 
L 40.09375 0 
z
M 13.921875 21.09375 
Q 13.921875 14.015625 17.109375 10.0625 
Q 20.3125 6.109375 25.984375 6.109375 
Q 30.171875 6.109375 33.765625 8.125 
Q 37.359375 10.15625 40.09375 14.109375 
Q 42.96875 18.21875 44.625 23.578125 
Q 46.296875 28.953125 46.296875 34.1875 
Q 46.296875 40.96875 43.09375 44.765625 
Q 39.890625 48.578125 34.28125 48.578125 
Q 30.03125 48.578125 26.359375 46.578125 
Q 22.703125 44.578125 20.125 40.828125 
Q 17.28125 36.765625 15.59375 31.390625 
Q 13.921875 26.03125 13.921875 21.09375 
z
" id="DejaVuSans-Oblique-100"/>
       <path d="M 3.515625 5.421875 
Q 2.875 5.609375 2.875 6.390625 
L 15.09375 51.8125 
Q 15.671875 53.65625 17.078125 54.78125 
Q 18.5 55.90625 20.3125 55.90625 
Q 22.65625 55.90625 24.4375 54.359375 
Q 26.21875 52.828125 26.21875 50.484375 
Q 26.21875 49.46875 25.6875 48.1875 
L 7.625 4.984375 
Q 7.28125 4.296875 6.6875 4.296875 
Q 6.15625 4.296875 5 4.78125 
Q 3.859375 5.28125 3.515625 5.421875 
z
" id="Cmsy10-48"/>
      </defs>
      <use transform="translate(0 0.584375)" xlink:href="#DejaVuSans-916"/>
      <use transform="translate(68.408203 0.584375)" xlink:href="#DejaVuSans-Oblique-100"/>
      <use transform="translate(139.332474 38.865625)scale(0.7)" xlink:href="#Cmsy10-48"/>
     </g>
     <!-- (Active - Passive) -->
     <g transform="translate(152.5835 95.01125)rotate(-90)scale(0.08 -0.08)">
      <defs>
       <path d="M 4.890625 31.390625 
L 31.203125 31.390625 
L 31.203125 23.390625 
L 4.890625 23.390625 
z
" id="DejaVuSans-45"/>
      </defs>
      <use xlink:href="#DejaVuSans-40"/>
      <use x="39.013672" xlink:href="#DejaVuSans-65"/>
      <use x="105.671875" xlink:href="#DejaVuSans-99"/>
      <use x="160.652344" xlink:href="#DejaVuSans-116"/>
      <use x="199.861328" xlink:href="#DejaVuSans-105"/>
      <use x="227.644531" xlink:href="#DejaVuSans-118"/>
      <use x="286.824219" xlink:href="#DejaVuSans-101"/>
      <use x="348.347656" xlink:href="#DejaVuSans-32"/>
      <use x="380.134766" xlink:href="#DejaVuSans-45"/>
      <use x="416.21875" xlink:href="#DejaVuSans-32"/>
      <use x="448.005859" xlink:href="#DejaVuSans-80"/>
      <use x="503.808594" xlink:href="#DejaVuSans-97"/>
      <use x="565.087891" xlink:href="#DejaVuSans-115"/>
      <use x="617.1875" xlink:href="#DejaVuSans-115"/>
      <use x="669.287109" xlink:href="#DejaVuSans-105"/>
      <use x="697.070312" xlink:href="#DejaVuSans-118"/>
      <use x="756.25" xlink:href="#DejaVuSans-101"/>
      <use x="817.773438" xlink:href="#DejaVuSans-41"/>
     </g>
    </g>
   </g>
   <g id="line2d_17">
    <path clip-path="url(#p3c97904604)" d="M 183.387179 71.575021 
L 184.187031 71.538667 
L 184.986884 71.502312 
L 185.786736 71.465958 
L 186.586589 71.429604 
L 187.386441 71.39325 
L 188.186294 71.356895 
L 188.986146 71.320541 
L 189.785999 71.284187 
L 190.585851 71.247832 
L 191.385704 71.211478 
L 192.185556 71.175124 
L 192.985409 71.13877 
L 193.785261 71.102415 
L 194.585114 71.066061 
L 195.384966 71.029707 
L 196.184819 70.993352 
L 196.984671 70.956998 
L 197.784524 70.920644 
L 198.584376 70.88429 
L 199.384228 70.847935 
L 200.184081 70.811581 
L 200.983933 70.775227 
L 201.783786 70.738872 
L 202.583638 70.702518 
L 203.383491 70.666164 
L 204.183343 70.62981 
L 204.983196 70.593455 
L 205.783048 70.557101 
L 206.582901 70.520747 
L 207.382753 70.484392 
L 208.182606 70.448038 
L 208.982458 70.411684 
L 209.782311 70.375329 
L 210.582163 70.338975 
L 211.382016 70.302621 
L 212.181868 70.266267 
L 212.981721 70.229912 
L 213.781573 70.193558 
L 214.581426 70.157204 
L 215.381278 70.120849 
L 216.181131 70.084495 
L 216.980983 70.048141 
L 217.780836 70.011787 
L 218.580688 69.975432 
L 219.380541 69.939078 
L 220.180393 69.902724 
L 220.980246 69.866369 
L 221.780098 69.830015 
L 222.57995 69.793661 
L 223.379803 69.757307 
L 224.179655 69.720952 
L 224.979508 69.684598 
L 225.77936 69.648244 
L 226.579213 69.611889 
L 227.379065 69.575535 
L 228.178918 69.539181 
L 228.97877 69.502827 
L 229.778623 69.466472 
L 230.578475 69.430118 
L 231.378328 69.393764 
L 232.17818 69.357409 
L 232.978033 69.321055 
L 233.777885 69.284701 
L 234.577738 69.248347 
L 235.37759 69.211992 
L 236.177443 69.175638 
L 236.977295 69.139284 
L 237.777148 69.102929 
L 238.577 69.066575 
L 239.376853 69.030221 
L 240.176705 68.993867 
L 240.976558 68.957512 
L 241.77641 68.921158 
L 242.576263 68.884804 
L 243.376115 68.848449 
L 244.175968 68.812095 
L 244.97582 68.775741 
L 245.775672 68.739387 
L 246.575525 68.703032 
L 247.375377 68.666678 
L 248.17523 68.630324 
L 248.975082 68.593969 
L 249.774935 68.557615 
L 250.574787 68.521261 
L 251.37464 68.484907 
L 252.174492 68.448552 
L 252.974345 68.412198 
L 253.774197 68.375844 
L 254.57405 68.339489 
L 255.373902 68.303135 
L 256.173755 68.266781 
L 256.973607 68.230427 
L 257.77346 68.194072 
L 258.573312 68.157718 
L 259.373165 68.121364 
L 260.173017 68.085009 
L 260.97287 68.048655 
L 261.772722 68.012301 
L 262.572575 67.975947 
" style="fill:none;stroke:#1f77b4;stroke-linecap:square;stroke-width:2.25;"/>
   </g>
   <g id="line2d_18">
    <path clip-path="url(#p3c97904604)" d="M 177.041 75.790741 
L 272.97 75.790741 
" style="fill:none;stroke:#000000;stroke-dasharray:5.55,2.4;stroke-dashoffset:0;stroke-width:1.5;"/>
   </g>
   <g id="line2d_19">
    <path clip-path="url(#p3c97904604)" d="M 193.029167 109.96 
L 193.029167 11.52 
" style="fill:none;stroke:#000000;stroke-dasharray:5.55,2.4;stroke-dashoffset:0;stroke-width:1.5;"/>
   </g>
   <g id="patch_6">
    <path d="M 177.041 109.96 
L 177.041 11.52 
" style="fill:none;stroke:#000000;stroke-linecap:square;stroke-linejoin:miter;stroke-width:0.8;"/>
   </g>
   <g id="patch_7">
    <path d="M 177.041 109.96 
L 272.97 109.96 
" style="fill:none;stroke:#000000;stroke-linecap:square;stroke-linejoin:miter;stroke-width:0.8;"/>
   </g>
   <g id="text_20">
    <!-- (0.793, 2.115) -->
    <g transform="translate(247.890522 14.733537)scale(0.04 -0.04)">
     <defs>
      <path d="M 8.203125 72.90625 
L 55.078125 72.90625 
L 55.078125 68.703125 
L 28.609375 0 
L 18.3125 0 
L 43.21875 64.59375 
L 8.203125 64.59375 
z
" id="DejaVuSans-55"/>
      <path d="M 10.984375 1.515625 
L 10.984375 10.5 
Q 14.703125 8.734375 18.5 7.8125 
Q 22.3125 6.890625 25.984375 6.890625 
Q 35.75 6.890625 40.890625 13.453125 
Q 46.046875 20.015625 46.78125 33.40625 
Q 43.953125 29.203125 39.59375 26.953125 
Q 35.25 24.703125 29.984375 24.703125 
Q 19.046875 24.703125 12.671875 31.3125 
Q 6.296875 37.9375 6.296875 49.421875 
Q 6.296875 60.640625 12.9375 67.421875 
Q 19.578125 74.21875 30.609375 74.21875 
Q 43.265625 74.21875 49.921875 64.515625 
Q 56.59375 54.828125 56.59375 36.375 
Q 56.59375 19.140625 48.40625 8.859375 
Q 40.234375 -1.421875 26.421875 -1.421875 
Q 22.703125 -1.421875 18.890625 -0.6875 
Q 15.09375 0.046875 10.984375 1.515625 
z
M 30.609375 32.421875 
Q 37.25 32.421875 41.125 36.953125 
Q 45.015625 41.5 45.015625 49.421875 
Q 45.015625 57.28125 41.125 61.84375 
Q 37.25 66.40625 30.609375 66.40625 
Q 23.96875 66.40625 20.09375 61.84375 
Q 16.21875 57.28125 16.21875 49.421875 
Q 16.21875 41.5 20.09375 36.953125 
Q 23.96875 32.421875 30.609375 32.421875 
z
" id="DejaVuSans-57"/>
      <path d="M 40.578125 39.3125 
Q 47.65625 37.796875 51.625 33 
Q 55.609375 28.21875 55.609375 21.1875 
Q 55.609375 10.40625 48.1875 4.484375 
Q 40.765625 -1.421875 27.09375 -1.421875 
Q 22.515625 -1.421875 17.65625 -0.515625 
Q 12.796875 0.390625 7.625 2.203125 
L 7.625 11.71875 
Q 11.71875 9.328125 16.59375 8.109375 
Q 21.484375 6.890625 26.8125 6.890625 
Q 36.078125 6.890625 40.9375 10.546875 
Q 45.796875 14.203125 45.796875 21.1875 
Q 45.796875 27.640625 41.28125 31.265625 
Q 36.765625 34.90625 28.71875 34.90625 
L 20.21875 34.90625 
L 20.21875 43.015625 
L 29.109375 43.015625 
Q 36.375 43.015625 40.234375 45.921875 
Q 44.09375 48.828125 44.09375 54.296875 
Q 44.09375 59.90625 40.109375 62.90625 
Q 36.140625 65.921875 28.71875 65.921875 
Q 24.65625 65.921875 20.015625 65.03125 
Q 15.375 64.15625 9.8125 62.3125 
L 9.8125 71.09375 
Q 15.4375 72.65625 20.34375 73.4375 
Q 25.25 74.21875 29.59375 74.21875 
Q 40.828125 74.21875 47.359375 69.109375 
Q 53.90625 64.015625 53.90625 55.328125 
Q 53.90625 49.265625 50.4375 45.09375 
Q 46.96875 40.921875 40.578125 39.3125 
z
" id="DejaVuSans-51"/>
      <path d="M 11.71875 12.40625 
L 22.015625 12.40625 
L 22.015625 4 
L 14.015625 -11.625 
L 7.71875 -11.625 
L 11.71875 4 
z
" id="DejaVuSans-44"/>
     </defs>
     <use xlink:href="#DejaVuSans-40"/>
     <use x="39.013672" xlink:href="#DejaVuSans-48"/>
     <use x="102.636719" xlink:href="#DejaVuSans-46"/>
     <use x="134.423828" xlink:href="#DejaVuSans-55"/>
     <use x="198.046875" xlink:href="#DejaVuSans-57"/>
     <use x="261.669922" xlink:href="#DejaVuSans-51"/>
     <use x="325.292969" xlink:href="#DejaVuSans-44"/>
     <use x="357.080078" xlink:href="#DejaVuSans-32"/>
     <use x="388.867188" xlink:href="#DejaVuSans-50"/>
     <use x="452.490234" xlink:href="#DejaVuSans-46"/>
     <use x="484.277344" xlink:href="#DejaVuSans-49"/>
     <use x="547.900391" xlink:href="#DejaVuSans-49"/>
     <use x="611.523438" xlink:href="#DejaVuSans-53"/>
     <use x="675.146484" xlink:href="#DejaVuSans-41"/>
    </g>
   </g>
  </g>
 </g>
 <defs>
  <clipPath id="p236a209e9e">
   <rect height="98.44" width="95.929" x="31.97" y="11.52"/>
  </clipPath>
  <clipPath id="p3c97904604">
   <rect height="98.44" width="95.929" x="177.041" y="11.52"/>
  </clipPath>
 </defs>
</svg>
