<?xml version="1.0" encoding="utf-8" standalone="no"?>
<!DOCTYPE svg PUBLIC "-//W3C//DTD SVG 1.1//EN"
  "http://www.w3.org/Graphics/SVG/1.1/DTD/svg11.dtd">
<!-- Created with matplotlib (https://matplotlib.org/) -->
<svg height="144pt" version="1.1" viewBox="0 0 288 144" width="288pt" xmlns="http://www.w3.org/2000/svg" xmlns:xlink="http://www.w3.org/1999/xlink">
 <defs>
  <style type="text/css">
*{stroke-linecap:butt;stroke-linejoin:round;}
  </style>
 </defs>
 <g id="figure_1">
  <g id="patch_1">
   <path d="M 0 144 
L 288 144 
L 288 0 
L 0 0 
z
" style="fill:#ffffff;"/>
  </g>
  <g id="axes_1">
   <g id="patch_2">
    <path d="M 41.708 113.56 
L 135.405 113.56 
L 135.405 19.68 
L 41.708 19.68 
z
" style="fill:#ffffff;"/>
   </g>
   <g id="PathCollection_1">
    <defs>
     <path d="M 0 3 
C 0.795609 3 1.55874 2.683901 2.12132 2.12132 
C 2.683901 1.55874 3 0.795609 3 0 
C 3 -0.795609 2.683901 -1.55874 2.12132 -2.12132 
C 1.55874 -2.683901 0.795609 -3 0 -3 
C -0.795609 -3 -1.55874 -2.683901 -2.12132 -2.12132 
C -2.683901 -1.55874 -3 -0.795609 -3 0 
C -3 0.795609 -2.683901 1.55874 -2.12132 2.12132 
C -1.55874 2.683901 -0.795609 3 0 3 
z
" id="mb93f1c1710" style="stroke:#1f77b4;stroke-opacity:0.8;"/>
    </defs>
    <g clip-path="url(#p2c41b115d8)">
     <use style="fill:#1f77b4;fill-opacity:0.8;stroke:#1f77b4;stroke-opacity:0.8;" x="52.584115" xlink:href="#mb93f1c1710" y="67.042046"/>
     <use style="fill:#1f77b4;fill-opacity:0.8;stroke:#1f77b4;stroke-opacity:0.8;" x="117.02734" xlink:href="#mb93f1c1710" y="83.894832"/>
     <use style="fill:#1f77b4;fill-opacity:0.8;stroke:#1f77b4;stroke-opacity:0.8;" x="91.500437" xlink:href="#mb93f1c1710" y="70.425148"/>
     <use style="fill:#1f77b4;fill-opacity:0.8;stroke:#1f77b4;stroke-opacity:0.8;" x="96.006341" xlink:href="#mb93f1c1710" y="80.396002"/>
     <use style="fill:#1f77b4;fill-opacity:0.8;stroke:#1f77b4;stroke-opacity:0.8;" x="94.293055" xlink:href="#mb93f1c1710" y="79.545656"/>
     <use style="fill:#1f77b4;fill-opacity:0.8;stroke:#1f77b4;stroke-opacity:0.8;" x="99.233643" xlink:href="#mb93f1c1710" y="89.667681"/>
     <use style="fill:#1f77b4;fill-opacity:0.8;stroke:#1f77b4;stroke-opacity:0.8;" x="106.57055" xlink:href="#mb93f1c1710" y="84.808526"/>
     <use style="fill:#1f77b4;fill-opacity:0.8;stroke:#1f77b4;stroke-opacity:0.8;" x="85.522742" xlink:href="#mb93f1c1710" y="69.506305"/>
     <use style="fill:#1f77b4;fill-opacity:0.8;stroke:#1f77b4;stroke-opacity:0.8;" x="104.801513" xlink:href="#mb93f1c1710" y="69.896428"/>
     <use style="fill:#1f77b4;fill-opacity:0.8;stroke:#1f77b4;stroke-opacity:0.8;" x="87.331759" xlink:href="#mb93f1c1710" y="72.021071"/>
     <use style="fill:#1f77b4;fill-opacity:0.8;stroke:#1f77b4;stroke-opacity:0.8;" x="116.961211" xlink:href="#mb93f1c1710" y="77.384824"/>
     <use style="fill:#1f77b4;fill-opacity:0.8;stroke:#1f77b4;stroke-opacity:0.8;" x="99.422941" xlink:href="#mb93f1c1710" y="82.423321"/>
     <use style="fill:#1f77b4;fill-opacity:0.8;stroke:#1f77b4;stroke-opacity:0.8;" x="58.21812" xlink:href="#mb93f1c1710" y="84.954518"/>
     <use style="fill:#1f77b4;fill-opacity:0.8;stroke:#1f77b4;stroke-opacity:0.8;" x="108.739165" xlink:href="#mb93f1c1710" y="84.963258"/>
     <use style="fill:#1f77b4;fill-opacity:0.8;stroke:#1f77b4;stroke-opacity:0.8;" x="88.686788" xlink:href="#mb93f1c1710" y="70.867986"/>
     <use style="fill:#1f77b4;fill-opacity:0.8;stroke:#1f77b4;stroke-opacity:0.8;" x="97.334967" xlink:href="#mb93f1c1710" y="91.094254"/>
     <use style="fill:#1f77b4;fill-opacity:0.8;stroke:#1f77b4;stroke-opacity:0.8;" x="111.689937" xlink:href="#mb93f1c1710" y="70.576223"/>
     <use style="fill:#1f77b4;fill-opacity:0.8;stroke:#1f77b4;stroke-opacity:0.8;" x="110.895939" xlink:href="#mb93f1c1710" y="81.77341"/>
     <use style="fill:#1f77b4;fill-opacity:0.8;stroke:#1f77b4;stroke-opacity:0.8;" x="98.045165" xlink:href="#mb93f1c1710" y="79.185636"/>
     <use style="fill:#1f77b4;fill-opacity:0.8;stroke:#1f77b4;stroke-opacity:0.8;" x="115.114011" xlink:href="#mb93f1c1710" y="91.782359"/>
     <use style="fill:#1f77b4;fill-opacity:0.8;stroke:#1f77b4;stroke-opacity:0.8;" x="101.571064" xlink:href="#mb93f1c1710" y="86.607165"/>
     <use style="fill:#1f77b4;fill-opacity:0.8;stroke:#1f77b4;stroke-opacity:0.8;" x="57.759623" xlink:href="#mb93f1c1710" y="79.90534"/>
     <use style="fill:#1f77b4;fill-opacity:0.8;stroke:#1f77b4;stroke-opacity:0.8;" x="73.804959" xlink:href="#mb93f1c1710" y="84.182108"/>
     <use style="fill:#1f77b4;fill-opacity:0.8;stroke:#1f77b4;stroke-opacity:0.8;" x="59.841524" xlink:href="#mb93f1c1710" y="60.22152"/>
     <use style="fill:#1f77b4;fill-opacity:0.8;stroke:#1f77b4;stroke-opacity:0.8;" x="97.614138" xlink:href="#mb93f1c1710" y="102.825913"/>
     <use style="fill:#1f77b4;fill-opacity:0.8;stroke:#1f77b4;stroke-opacity:0.8;" x="46.365955" xlink:href="#mb93f1c1710" y="23.96357"/>
     <use style="fill:#1f77b4;fill-opacity:0.8;stroke:#1f77b4;stroke-opacity:0.8;" x="71.852401" xlink:href="#mb93f1c1710" y="79.288537"/>
     <use style="fill:#1f77b4;fill-opacity:0.8;stroke:#1f77b4;stroke-opacity:0.8;" x="106.633978" xlink:href="#mb93f1c1710" y="76.993202"/>
     <use style="fill:#1f77b4;fill-opacity:0.8;stroke:#1f77b4;stroke-opacity:0.8;" x="91.530648" xlink:href="#mb93f1c1710" y="64.854492"/>
     <use style="fill:#1f77b4;fill-opacity:0.8;stroke:#1f77b4;stroke-opacity:0.8;" x="114.065622" xlink:href="#mb93f1c1710" y="79.384542"/>
     <use style="fill:#1f77b4;fill-opacity:0.8;stroke:#1f77b4;stroke-opacity:0.8;" x="115.155332" xlink:href="#mb93f1c1710" y="82.008587"/>
     <use style="fill:#1f77b4;fill-opacity:0.8;stroke:#1f77b4;stroke-opacity:0.8;" x="102.914526" xlink:href="#mb93f1c1710" y="81.851041"/>
     <use style="fill:#1f77b4;fill-opacity:0.8;stroke:#1f77b4;stroke-opacity:0.8;" x="114.874181" xlink:href="#mb93f1c1710" y="81.863861"/>
     <use style="fill:#1f77b4;fill-opacity:0.8;stroke:#1f77b4;stroke-opacity:0.8;" x="125.376963" xlink:href="#mb93f1c1710" y="95.281112"/>
     <use style="fill:#1f77b4;fill-opacity:0.8;stroke:#1f77b4;stroke-opacity:0.8;" x="130.747045" xlink:href="#mb93f1c1710" y="60.442206"/>
     <use style="fill:#1f77b4;fill-opacity:0.8;stroke:#1f77b4;stroke-opacity:0.8;" x="120.142957" xlink:href="#mb93f1c1710" y="78.663033"/>
     <use style="fill:#1f77b4;fill-opacity:0.8;stroke:#1f77b4;stroke-opacity:0.8;" x="126.719003" xlink:href="#mb93f1c1710" y="109.27643"/>
     <use style="fill:#1f77b4;fill-opacity:0.8;stroke:#1f77b4;stroke-opacity:0.8;" x="98.486399" xlink:href="#mb93f1c1710" y="93.118183"/>
     <use style="fill:#1f77b4;fill-opacity:0.8;stroke:#1f77b4;stroke-opacity:0.8;" x="75.503226" xlink:href="#mb93f1c1710" y="76.335659"/>
     <use style="fill:#1f77b4;fill-opacity:0.8;stroke:#1f77b4;stroke-opacity:0.8;" x="111.682554" xlink:href="#mb93f1c1710" y="76.923703"/>
     <use style="fill:#1f77b4;fill-opacity:0.8;stroke:#1f77b4;stroke-opacity:0.8;" x="102.233747" xlink:href="#mb93f1c1710" y="78.954264"/>
     <use style="fill:#1f77b4;fill-opacity:0.8;stroke:#1f77b4;stroke-opacity:0.8;" x="129.206525" xlink:href="#mb93f1c1710" y="83.125485"/>
     <use style="fill:#1f77b4;fill-opacity:0.8;stroke:#1f77b4;stroke-opacity:0.8;" x="105.587569" xlink:href="#mb93f1c1710" y="82.2391"/>
     <use style="fill:#1f77b4;fill-opacity:0.8;stroke:#1f77b4;stroke-opacity:0.8;" x="66.435514" xlink:href="#mb93f1c1710" y="80.869316"/>
     <use style="fill:#1f77b4;fill-opacity:0.8;stroke:#1f77b4;stroke-opacity:0.8;" x="76.914889" xlink:href="#mb93f1c1710" y="82.46054"/>
     <use style="fill:#1f77b4;fill-opacity:0.8;stroke:#1f77b4;stroke-opacity:0.8;" x="105.502745" xlink:href="#mb93f1c1710" y="80.241846"/>
     <use style="fill:#1f77b4;fill-opacity:0.8;stroke:#1f77b4;stroke-opacity:0.8;" x="119.360029" xlink:href="#mb93f1c1710" y="78.907877"/>
     <use style="fill:#1f77b4;fill-opacity:0.8;stroke:#1f77b4;stroke-opacity:0.8;" x="91.805899" xlink:href="#mb93f1c1710" y="73.12672"/>
     <use style="fill:#1f77b4;fill-opacity:0.8;stroke:#1f77b4;stroke-opacity:0.8;" x="103.226974" xlink:href="#mb93f1c1710" y="65.712184"/>
     <use style="fill:#1f77b4;fill-opacity:0.8;stroke:#1f77b4;stroke-opacity:0.8;" x="125.181134" xlink:href="#mb93f1c1710" y="104.087951"/>
     <use style="fill:#1f77b4;fill-opacity:0.8;stroke:#1f77b4;stroke-opacity:0.8;" x="123.899465" xlink:href="#mb93f1c1710" y="89.368657"/>
     <use style="fill:#1f77b4;fill-opacity:0.8;stroke:#1f77b4;stroke-opacity:0.8;" x="120.88296" xlink:href="#mb93f1c1710" y="77.404855"/>
     <use style="fill:#1f77b4;fill-opacity:0.8;stroke:#1f77b4;stroke-opacity:0.8;" x="120.88296" xlink:href="#mb93f1c1710" y="88.708612"/>
     <use style="fill:#1f77b4;fill-opacity:0.8;stroke:#1f77b4;stroke-opacity:0.8;" x="111.538302" xlink:href="#mb93f1c1710" y="90.781016"/>
     <use style="fill:#1f77b4;fill-opacity:0.8;stroke:#1f77b4;stroke-opacity:0.8;" x="111.538302" xlink:href="#mb93f1c1710" y="94.343897"/>
     <use style="fill:#1f77b4;fill-opacity:0.8;stroke:#1f77b4;stroke-opacity:0.8;" x="98.9137" xlink:href="#mb93f1c1710" y="85.594982"/>
     <use style="fill:#1f77b4;fill-opacity:0.8;stroke:#1f77b4;stroke-opacity:0.8;" x="98.9137" xlink:href="#mb93f1c1710" y="82.056312"/>
     <use style="fill:#1f77b4;fill-opacity:0.8;stroke:#1f77b4;stroke-opacity:0.8;" x="123.276904" xlink:href="#mb93f1c1710" y="108.840123"/>
     <use style="fill:#1f77b4;fill-opacity:0.8;stroke:#1f77b4;stroke-opacity:0.8;" x="123.276904" xlink:href="#mb93f1c1710" y="99.02913"/>
     <use style="fill:#1f77b4;fill-opacity:0.8;stroke:#1f77b4;stroke-opacity:0.8;" x="106.583031" xlink:href="#mb93f1c1710" y="99.212648"/>
    </g>
   </g>
   <g id="PolyCollection_1">
    <path clip-path="url(#p2c41b115d8)" d="M 46.365955 50.648728 
L 46.365955 75.948089 
L 47.218289 76.02742 
L 48.070624 76.133267 
L 48.922958 76.234935 
L 49.775292 76.326566 
L 50.627626 76.445799 
L 51.479961 76.558761 
L 52.332295 76.665547 
L 53.184629 76.772332 
L 54.036963 76.879117 
L 54.889298 76.984958 
L 55.741632 77.081385 
L 56.593966 77.157618 
L 57.4463 77.233852 
L 58.298635 77.310085 
L 59.150969 77.386319 
L 60.003303 77.469346 
L 60.855637 77.590717 
L 61.707972 77.728835 
L 62.560306 77.866954 
L 63.41264 78.004696 
L 64.264974 78.074556 
L 65.117308 78.137945 
L 65.969643 78.249378 
L 66.821977 78.360577 
L 67.674311 78.469799 
L 68.526645 78.503484 
L 69.37898 78.530595 
L 70.231314 78.688321 
L 71.083648 78.785976 
L 71.935982 78.908622 
L 72.788317 79.041151 
L 73.640651 79.161798 
L 74.492985 79.269528 
L 75.345319 79.355199 
L 76.197654 79.459295 
L 77.049988 79.539543 
L 77.902322 79.630792 
L 78.754656 79.717335 
L 79.606991 79.812141 
L 80.459325 79.982769 
L 81.311659 80.153397 
L 82.163993 80.290264 
L 83.016327 80.433036 
L 83.868662 80.575541 
L 84.720996 80.695988 
L 85.57333 80.812329 
L 86.425664 80.923371 
L 87.277999 81.040983 
L 88.130333 81.188778 
L 88.982667 81.328042 
L 89.835001 81.48662 
L 90.687336 81.621643 
L 91.53967 81.72231 
L 92.392004 81.8917 
L 93.244338 82.083883 
L 94.096673 82.24899 
L 94.949007 82.462182 
L 95.801341 82.685152 
L 96.653675 82.902082 
L 97.506009 83.11546 
L 98.358344 83.323324 
L 99.210678 83.559856 
L 100.063012 83.779835 
L 100.915346 84.058579 
L 101.767681 84.275814 
L 102.620015 84.578166 
L 103.472349 84.889958 
L 104.324683 85.197227 
L 105.177018 85.475025 
L 106.029352 85.79105 
L 106.881686 86.115308 
L 107.73402 86.437206 
L 108.586355 86.782394 
L 109.438689 87.125921 
L 110.291023 87.525814 
L 111.143357 87.877861 
L 111.995692 88.21546 
L 112.848026 88.63847 
L 113.70036 89.112815 
L 114.552694 89.502272 
L 115.405028 89.897892 
L 116.257363 90.342524 
L 117.109697 90.672573 
L 117.962031 91.108647 
L 118.814365 91.512246 
L 119.6667 91.955095 
L 120.519034 92.398966 
L 121.371368 92.865685 
L 122.223702 93.341845 
L 123.076037 93.795166 
L 123.928371 94.17574 
L 124.780705 94.619643 
L 125.633039 95.063375 
L 126.485374 95.506333 
L 127.337708 95.949292 
L 128.190042 96.393234 
L 129.042376 96.784254 
L 129.894711 97.232428 
L 130.747045 97.680602 
L 130.747045 84.180877 
L 130.747045 84.180877 
L 129.894711 84.069903 
L 129.042376 83.978426 
L 128.190042 83.898634 
L 127.337708 83.813139 
L 126.485374 83.698439 
L 125.633039 83.595417 
L 124.780705 83.471422 
L 123.928371 83.347426 
L 123.076037 83.223431 
L 122.223702 83.080524 
L 121.371368 82.972917 
L 120.519034 82.841939 
L 119.6667 82.685379 
L 118.814365 82.532992 
L 117.962031 82.443427 
L 117.109697 82.301506 
L 116.257363 82.227486 
L 115.405028 82.10414 
L 114.552694 81.979553 
L 113.70036 81.821291 
L 112.848026 81.656237 
L 111.995692 81.504668 
L 111.143357 81.35806 
L 110.291023 81.149933 
L 109.438689 80.980968 
L 108.586355 80.732825 
L 107.73402 80.537168 
L 106.881686 80.327821 
L 106.029352 80.094625 
L 105.177018 79.850541 
L 104.324683 79.586823 
L 103.472349 79.24985 
L 102.620015 78.954809 
L 101.767681 78.678224 
L 100.915346 78.452573 
L 100.063012 78.086172 
L 99.210678 77.834563 
L 98.358344 77.450299 
L 97.506009 77.155801 
L 96.653675 76.864351 
L 95.801341 76.495387 
L 94.949007 76.202369 
L 94.096673 75.803586 
L 93.244338 75.403153 
L 92.392004 75.026553 
L 91.53967 74.604496 
L 90.687336 74.14196 
L 89.835001 73.663137 
L 88.982667 73.185365 
L 88.130333 72.7077 
L 87.277999 72.268102 
L 86.425664 71.797763 
L 85.57333 71.307919 
L 84.720996 70.867386 
L 83.868662 70.480949 
L 83.016327 70.01509 
L 82.163993 69.615165 
L 81.311659 69.261777 
L 80.459325 68.911651 
L 79.606991 68.477017 
L 78.754656 67.952185 
L 77.902322 67.50173 
L 77.049988 67.133476 
L 76.197654 66.767947 
L 75.345319 66.365527 
L 74.492985 65.913963 
L 73.640651 65.462399 
L 72.788317 65.010835 
L 71.935982 64.559271 
L 71.083648 64.107708 
L 70.231314 63.656144 
L 69.37898 63.20458 
L 68.526645 62.759702 
L 67.674311 62.345273 
L 66.821977 61.931147 
L 65.969643 61.472291 
L 65.117308 61.009278 
L 64.264974 60.547301 
L 63.41264 60.085751 
L 62.560306 59.624201 
L 61.707972 59.145276 
L 60.855637 58.679745 
L 60.003303 58.226497 
L 59.150969 57.77427 
L 58.298635 57.322429 
L 57.4463 56.854306 
L 56.593966 56.392062 
L 55.741632 55.929819 
L 54.889298 55.448364 
L 54.036963 54.963533 
L 53.184629 54.478702 
L 52.332295 53.993871 
L 51.479961 53.50904 
L 50.627626 53.024209 
L 49.775292 52.539378 
L 48.922958 52.054547 
L 48.070624 51.569716 
L 47.218289 51.084885 
L 46.365955 50.648728 
z
" style="fill:#1f77b4;fill-opacity:0.15;"/>
   </g>
   <g id="matplotlib.axis_1">
    <g id="xtick_1">
     <g id="line2d_1">
      <defs>
       <path d="M 0 0 
L 0 3.5 
" id="m622eeaa7e0" style="stroke:#000000;stroke-width:0.8;"/>
      </defs>
      <g>
       <use style="stroke:#000000;stroke-width:0.8;" x="73.677814" xlink:href="#m622eeaa7e0" y="113.56"/>
      </g>
     </g>
     <g id="text_1">
      <!-- 0.6 -->
      <defs>
       <path d="M 31.78125 66.40625 
Q 24.171875 66.40625 20.328125 58.90625 
Q 16.5 51.421875 16.5 36.375 
Q 16.5 21.390625 20.328125 13.890625 
Q 24.171875 6.390625 31.78125 6.390625 
Q 39.453125 6.390625 43.28125 13.890625 
Q 47.125 21.390625 47.125 36.375 
Q 47.125 51.421875 43.28125 58.90625 
Q 39.453125 66.40625 31.78125 66.40625 
z
M 31.78125 74.21875 
Q 44.046875 74.21875 50.515625 64.515625 
Q 56.984375 54.828125 56.984375 36.375 
Q 56.984375 17.96875 50.515625 8.265625 
Q 44.046875 -1.421875 31.78125 -1.421875 
Q 19.53125 -1.421875 13.0625 8.265625 
Q 6.59375 17.96875 6.59375 36.375 
Q 6.59375 54.828125 13.0625 64.515625 
Q 19.53125 74.21875 31.78125 74.21875 
z
" id="DejaVuSans-48"/>
       <path d="M 10.6875 12.40625 
L 21 12.40625 
L 21 0 
L 10.6875 0 
z
" id="DejaVuSans-46"/>
       <path d="M 33.015625 40.375 
Q 26.375 40.375 22.484375 35.828125 
Q 18.609375 31.296875 18.609375 23.390625 
Q 18.609375 15.53125 22.484375 10.953125 
Q 26.375 6.390625 33.015625 6.390625 
Q 39.65625 6.390625 43.53125 10.953125 
Q 47.40625 15.53125 47.40625 23.390625 
Q 47.40625 31.296875 43.53125 35.828125 
Q 39.65625 40.375 33.015625 40.375 
z
M 52.59375 71.296875 
L 52.59375 62.3125 
Q 48.875 64.0625 45.09375 64.984375 
Q 41.3125 65.921875 37.59375 65.921875 
Q 27.828125 65.921875 22.671875 59.328125 
Q 17.53125 52.734375 16.796875 39.40625 
Q 19.671875 43.65625 24.015625 45.921875 
Q 28.375 48.1875 33.59375 48.1875 
Q 44.578125 48.1875 50.953125 41.515625 
Q 57.328125 34.859375 57.328125 23.390625 
Q 57.328125 12.15625 50.6875 5.359375 
Q 44.046875 -1.421875 33.015625 -1.421875 
Q 20.359375 -1.421875 13.671875 8.265625 
Q 6.984375 17.96875 6.984375 36.375 
Q 6.984375 53.65625 15.1875 63.9375 
Q 23.390625 74.21875 37.203125 74.21875 
Q 40.921875 74.21875 44.703125 73.484375 
Q 48.484375 72.75 52.59375 71.296875 
z
" id="DejaVuSans-54"/>
      </defs>
      <g transform="translate(68.906877 125.119063)scale(0.06 -0.06)">
       <use xlink:href="#DejaVuSans-48"/>
       <use x="63.623047" xlink:href="#DejaVuSans-46"/>
       <use x="95.410156" xlink:href="#DejaVuSans-54"/>
      </g>
     </g>
    </g>
    <g id="xtick_2">
     <g id="line2d_2">
      <g>
       <use style="stroke:#000000;stroke-width:0.8;" x="107.752252" xlink:href="#m622eeaa7e0" y="113.56"/>
      </g>
     </g>
     <g id="text_2">
      <!-- 0.8 -->
      <defs>
       <path d="M 31.78125 34.625 
Q 24.75 34.625 20.71875 30.859375 
Q 16.703125 27.09375 16.703125 20.515625 
Q 16.703125 13.921875 20.71875 10.15625 
Q 24.75 6.390625 31.78125 6.390625 
Q 38.8125 6.390625 42.859375 10.171875 
Q 46.921875 13.96875 46.921875 20.515625 
Q 46.921875 27.09375 42.890625 30.859375 
Q 38.875 34.625 31.78125 34.625 
z
M 21.921875 38.8125 
Q 15.578125 40.375 12.03125 44.71875 
Q 8.5 49.078125 8.5 55.328125 
Q 8.5 64.0625 14.71875 69.140625 
Q 20.953125 74.21875 31.78125 74.21875 
Q 42.671875 74.21875 48.875 69.140625 
Q 55.078125 64.0625 55.078125 55.328125 
Q 55.078125 49.078125 51.53125 44.71875 
Q 48 40.375 41.703125 38.8125 
Q 48.828125 37.15625 52.796875 32.3125 
Q 56.78125 27.484375 56.78125 20.515625 
Q 56.78125 9.90625 50.3125 4.234375 
Q 43.84375 -1.421875 31.78125 -1.421875 
Q 19.734375 -1.421875 13.25 4.234375 
Q 6.78125 9.90625 6.78125 20.515625 
Q 6.78125 27.484375 10.78125 32.3125 
Q 14.796875 37.15625 21.921875 38.8125 
z
M 18.3125 54.390625 
Q 18.3125 48.734375 21.84375 45.5625 
Q 25.390625 42.390625 31.78125 42.390625 
Q 38.140625 42.390625 41.71875 45.5625 
Q 45.3125 48.734375 45.3125 54.390625 
Q 45.3125 60.0625 41.71875 63.234375 
Q 38.140625 66.40625 31.78125 66.40625 
Q 25.390625 66.40625 21.84375 63.234375 
Q 18.3125 60.0625 18.3125 54.390625 
z
" id="DejaVuSans-56"/>
      </defs>
      <g transform="translate(102.981315 125.119063)scale(0.06 -0.06)">
       <use xlink:href="#DejaVuSans-48"/>
       <use x="63.623047" xlink:href="#DejaVuSans-46"/>
       <use x="95.410156" xlink:href="#DejaVuSans-56"/>
      </g>
     </g>
    </g>
    <g id="text_3">
     <!-- Behavior performance (DI) -->
     <defs>
      <path d="M 19.671875 34.8125 
L 19.671875 8.109375 
L 35.5 8.109375 
Q 43.453125 8.109375 47.28125 11.40625 
Q 51.125 14.703125 51.125 21.484375 
Q 51.125 28.328125 47.28125 31.5625 
Q 43.453125 34.8125 35.5 34.8125 
z
M 19.671875 64.796875 
L 19.671875 42.828125 
L 34.28125 42.828125 
Q 41.5 42.828125 45.03125 45.53125 
Q 48.578125 48.25 48.578125 53.8125 
Q 48.578125 59.328125 45.03125 62.0625 
Q 41.5 64.796875 34.28125 64.796875 
z
M 9.8125 72.90625 
L 35.015625 72.90625 
Q 46.296875 72.90625 52.390625 68.21875 
Q 58.5 63.53125 58.5 54.890625 
Q 58.5 48.1875 55.375 44.234375 
Q 52.25 40.28125 46.1875 39.3125 
Q 53.46875 37.75 57.5 32.78125 
Q 61.53125 27.828125 61.53125 20.40625 
Q 61.53125 10.640625 54.890625 5.3125 
Q 48.25 0 35.984375 0 
L 9.8125 0 
z
" id="DejaVuSans-66"/>
      <path d="M 56.203125 29.59375 
L 56.203125 25.203125 
L 14.890625 25.203125 
Q 15.484375 15.921875 20.484375 11.0625 
Q 25.484375 6.203125 34.421875 6.203125 
Q 39.59375 6.203125 44.453125 7.46875 
Q 49.3125 8.734375 54.109375 11.28125 
L 54.109375 2.78125 
Q 49.265625 0.734375 44.1875 -0.34375 
Q 39.109375 -1.421875 33.890625 -1.421875 
Q 20.796875 -1.421875 13.15625 6.1875 
Q 5.515625 13.8125 5.515625 26.8125 
Q 5.515625 40.234375 12.765625 48.109375 
Q 20.015625 56 32.328125 56 
Q 43.359375 56 49.78125 48.890625 
Q 56.203125 41.796875 56.203125 29.59375 
z
M 47.21875 32.234375 
Q 47.125 39.59375 43.09375 43.984375 
Q 39.0625 48.390625 32.421875 48.390625 
Q 24.90625 48.390625 20.390625 44.140625 
Q 15.875 39.890625 15.1875 32.171875 
z
" id="DejaVuSans-101"/>
      <path d="M 54.890625 33.015625 
L 54.890625 0 
L 45.90625 0 
L 45.90625 32.71875 
Q 45.90625 40.484375 42.875 44.328125 
Q 39.84375 48.1875 33.796875 48.1875 
Q 26.515625 48.1875 22.3125 43.546875 
Q 18.109375 38.921875 18.109375 30.90625 
L 18.109375 0 
L 9.078125 0 
L 9.078125 75.984375 
L 18.109375 75.984375 
L 18.109375 46.1875 
Q 21.34375 51.125 25.703125 53.5625 
Q 30.078125 56 35.796875 56 
Q 45.21875 56 50.046875 50.171875 
Q 54.890625 44.34375 54.890625 33.015625 
z
" id="DejaVuSans-104"/>
      <path d="M 34.28125 27.484375 
Q 23.390625 27.484375 19.1875 25 
Q 14.984375 22.515625 14.984375 16.5 
Q 14.984375 11.71875 18.140625 8.90625 
Q 21.296875 6.109375 26.703125 6.109375 
Q 34.1875 6.109375 38.703125 11.40625 
Q 43.21875 16.703125 43.21875 25.484375 
L 43.21875 27.484375 
z
M 52.203125 31.203125 
L 52.203125 0 
L 43.21875 0 
L 43.21875 8.296875 
Q 40.140625 3.328125 35.546875 0.953125 
Q 30.953125 -1.421875 24.3125 -1.421875 
Q 15.921875 -1.421875 10.953125 3.296875 
Q 6 8.015625 6 15.921875 
Q 6 25.140625 12.171875 29.828125 
Q 18.359375 34.515625 30.609375 34.515625 
L 43.21875 34.515625 
L 43.21875 35.40625 
Q 43.21875 41.609375 39.140625 45 
Q 35.0625 48.390625 27.6875 48.390625 
Q 23 48.390625 18.546875 47.265625 
Q 14.109375 46.140625 10.015625 43.890625 
L 10.015625 52.203125 
Q 14.9375 54.109375 19.578125 55.046875 
Q 24.21875 56 28.609375 56 
Q 40.484375 56 46.34375 49.84375 
Q 52.203125 43.703125 52.203125 31.203125 
z
" id="DejaVuSans-97"/>
      <path d="M 2.984375 54.6875 
L 12.5 54.6875 
L 29.59375 8.796875 
L 46.6875 54.6875 
L 56.203125 54.6875 
L 35.6875 0 
L 23.484375 0 
z
" id="DejaVuSans-118"/>
      <path d="M 9.421875 54.6875 
L 18.40625 54.6875 
L 18.40625 0 
L 9.421875 0 
z
M 9.421875 75.984375 
L 18.40625 75.984375 
L 18.40625 64.59375 
L 9.421875 64.59375 
z
" id="DejaVuSans-105"/>
      <path d="M 30.609375 48.390625 
Q 23.390625 48.390625 19.1875 42.75 
Q 14.984375 37.109375 14.984375 27.296875 
Q 14.984375 17.484375 19.15625 11.84375 
Q 23.34375 6.203125 30.609375 6.203125 
Q 37.796875 6.203125 41.984375 11.859375 
Q 46.1875 17.53125 46.1875 27.296875 
Q 46.1875 37.015625 41.984375 42.703125 
Q 37.796875 48.390625 30.609375 48.390625 
z
M 30.609375 56 
Q 42.328125 56 49.015625 48.375 
Q 55.71875 40.765625 55.71875 27.296875 
Q 55.71875 13.875 49.015625 6.21875 
Q 42.328125 -1.421875 30.609375 -1.421875 
Q 18.84375 -1.421875 12.171875 6.21875 
Q 5.515625 13.875 5.515625 27.296875 
Q 5.515625 40.765625 12.171875 48.375 
Q 18.84375 56 30.609375 56 
z
" id="DejaVuSans-111"/>
      <path d="M 41.109375 46.296875 
Q 39.59375 47.171875 37.8125 47.578125 
Q 36.03125 48 33.890625 48 
Q 26.265625 48 22.1875 43.046875 
Q 18.109375 38.09375 18.109375 28.8125 
L 18.109375 0 
L 9.078125 0 
L 9.078125 54.6875 
L 18.109375 54.6875 
L 18.109375 46.1875 
Q 20.953125 51.171875 25.484375 53.578125 
Q 30.03125 56 36.53125 56 
Q 37.453125 56 38.578125 55.875 
Q 39.703125 55.765625 41.0625 55.515625 
z
" id="DejaVuSans-114"/>
      <path id="DejaVuSans-32"/>
      <path d="M 18.109375 8.203125 
L 18.109375 -20.796875 
L 9.078125 -20.796875 
L 9.078125 54.6875 
L 18.109375 54.6875 
L 18.109375 46.390625 
Q 20.953125 51.265625 25.265625 53.625 
Q 29.59375 56 35.59375 56 
Q 45.5625 56 51.78125 48.09375 
Q 58.015625 40.1875 58.015625 27.296875 
Q 58.015625 14.40625 51.78125 6.484375 
Q 45.5625 -1.421875 35.59375 -1.421875 
Q 29.59375 -1.421875 25.265625 0.953125 
Q 20.953125 3.328125 18.109375 8.203125 
z
M 48.6875 27.296875 
Q 48.6875 37.203125 44.609375 42.84375 
Q 40.53125 48.484375 33.40625 48.484375 
Q 26.265625 48.484375 22.1875 42.84375 
Q 18.109375 37.203125 18.109375 27.296875 
Q 18.109375 17.390625 22.1875 11.75 
Q 26.265625 6.109375 33.40625 6.109375 
Q 40.53125 6.109375 44.609375 11.75 
Q 48.6875 17.390625 48.6875 27.296875 
z
" id="DejaVuSans-112"/>
      <path d="M 37.109375 75.984375 
L 37.109375 68.5 
L 28.515625 68.5 
Q 23.6875 68.5 21.796875 66.546875 
Q 19.921875 64.59375 19.921875 59.515625 
L 19.921875 54.6875 
L 34.71875 54.6875 
L 34.71875 47.703125 
L 19.921875 47.703125 
L 19.921875 0 
L 10.890625 0 
L 10.890625 47.703125 
L 2.296875 47.703125 
L 2.296875 54.6875 
L 10.890625 54.6875 
L 10.890625 58.5 
Q 10.890625 67.625 15.140625 71.796875 
Q 19.390625 75.984375 28.609375 75.984375 
z
" id="DejaVuSans-102"/>
      <path d="M 52 44.1875 
Q 55.375 50.25 60.0625 53.125 
Q 64.75 56 71.09375 56 
Q 79.640625 56 84.28125 50.015625 
Q 88.921875 44.046875 88.921875 33.015625 
L 88.921875 0 
L 79.890625 0 
L 79.890625 32.71875 
Q 79.890625 40.578125 77.09375 44.375 
Q 74.3125 48.1875 68.609375 48.1875 
Q 61.625 48.1875 57.5625 43.546875 
Q 53.515625 38.921875 53.515625 30.90625 
L 53.515625 0 
L 44.484375 0 
L 44.484375 32.71875 
Q 44.484375 40.625 41.703125 44.40625 
Q 38.921875 48.1875 33.109375 48.1875 
Q 26.21875 48.1875 22.15625 43.53125 
Q 18.109375 38.875 18.109375 30.90625 
L 18.109375 0 
L 9.078125 0 
L 9.078125 54.6875 
L 18.109375 54.6875 
L 18.109375 46.1875 
Q 21.1875 51.21875 25.484375 53.609375 
Q 29.78125 56 35.6875 56 
Q 41.65625 56 45.828125 52.96875 
Q 50 49.953125 52 44.1875 
z
" id="DejaVuSans-109"/>
      <path d="M 54.890625 33.015625 
L 54.890625 0 
L 45.90625 0 
L 45.90625 32.71875 
Q 45.90625 40.484375 42.875 44.328125 
Q 39.84375 48.1875 33.796875 48.1875 
Q 26.515625 48.1875 22.3125 43.546875 
Q 18.109375 38.921875 18.109375 30.90625 
L 18.109375 0 
L 9.078125 0 
L 9.078125 54.6875 
L 18.109375 54.6875 
L 18.109375 46.1875 
Q 21.34375 51.125 25.703125 53.5625 
Q 30.078125 56 35.796875 56 
Q 45.21875 56 50.046875 50.171875 
Q 54.890625 44.34375 54.890625 33.015625 
z
" id="DejaVuSans-110"/>
      <path d="M 48.78125 52.59375 
L 48.78125 44.1875 
Q 44.96875 46.296875 41.140625 47.34375 
Q 37.3125 48.390625 33.40625 48.390625 
Q 24.65625 48.390625 19.8125 42.84375 
Q 14.984375 37.3125 14.984375 27.296875 
Q 14.984375 17.28125 19.8125 11.734375 
Q 24.65625 6.203125 33.40625 6.203125 
Q 37.3125 6.203125 41.140625 7.25 
Q 44.96875 8.296875 48.78125 10.40625 
L 48.78125 2.09375 
Q 45.015625 0.34375 40.984375 -0.53125 
Q 36.96875 -1.421875 32.421875 -1.421875 
Q 20.0625 -1.421875 12.78125 6.34375 
Q 5.515625 14.109375 5.515625 27.296875 
Q 5.515625 40.671875 12.859375 48.328125 
Q 20.21875 56 33.015625 56 
Q 37.15625 56 41.109375 55.140625 
Q 45.0625 54.296875 48.78125 52.59375 
z
" id="DejaVuSans-99"/>
      <path d="M 31 75.875 
Q 24.46875 64.65625 21.28125 53.65625 
Q 18.109375 42.671875 18.109375 31.390625 
Q 18.109375 20.125 21.3125 9.0625 
Q 24.515625 -2 31 -13.1875 
L 23.1875 -13.1875 
Q 15.875 -1.703125 12.234375 9.375 
Q 8.59375 20.453125 8.59375 31.390625 
Q 8.59375 42.28125 12.203125 53.3125 
Q 15.828125 64.359375 23.1875 75.875 
z
" id="DejaVuSans-40"/>
      <path d="M 19.671875 64.796875 
L 19.671875 8.109375 
L 31.59375 8.109375 
Q 46.6875 8.109375 53.6875 14.9375 
Q 60.6875 21.78125 60.6875 36.53125 
Q 60.6875 51.171875 53.6875 57.984375 
Q 46.6875 64.796875 31.59375 64.796875 
z
M 9.8125 72.90625 
L 30.078125 72.90625 
Q 51.265625 72.90625 61.171875 64.09375 
Q 71.09375 55.28125 71.09375 36.53125 
Q 71.09375 17.671875 61.125 8.828125 
Q 51.171875 0 30.078125 0 
L 9.8125 0 
z
" id="DejaVuSans-68"/>
      <path d="M 9.8125 72.90625 
L 19.671875 72.90625 
L 19.671875 0 
L 9.8125 0 
z
" id="DejaVuSans-73"/>
      <path d="M 8.015625 75.875 
L 15.828125 75.875 
Q 23.140625 64.359375 26.78125 53.3125 
Q 30.421875 42.28125 30.421875 31.390625 
Q 30.421875 20.453125 26.78125 9.375 
Q 23.140625 -1.703125 15.828125 -13.1875 
L 8.015625 -13.1875 
Q 14.5 -2 17.703125 9.0625 
Q 20.90625 20.125 20.90625 31.390625 
Q 20.90625 42.671875 17.703125 53.65625 
Q 14.5 64.65625 8.015625 75.875 
z
" id="DejaVuSans-41"/>
     </defs>
     <g transform="translate(48.526188 134.925938)scale(0.06 -0.06)">
      <use xlink:href="#DejaVuSans-66"/>
      <use x="68.603516" xlink:href="#DejaVuSans-101"/>
      <use x="130.126953" xlink:href="#DejaVuSans-104"/>
      <use x="193.505859" xlink:href="#DejaVuSans-97"/>
      <use x="254.785156" xlink:href="#DejaVuSans-118"/>
      <use x="313.964844" xlink:href="#DejaVuSans-105"/>
      <use x="341.748047" xlink:href="#DejaVuSans-111"/>
      <use x="402.929688" xlink:href="#DejaVuSans-114"/>
      <use x="444.042969" xlink:href="#DejaVuSans-32"/>
      <use x="475.830078" xlink:href="#DejaVuSans-112"/>
      <use x="539.306641" xlink:href="#DejaVuSans-101"/>
      <use x="600.830078" xlink:href="#DejaVuSans-114"/>
      <use x="641.943359" xlink:href="#DejaVuSans-102"/>
      <use x="677.148438" xlink:href="#DejaVuSans-111"/>
      <use x="738.330078" xlink:href="#DejaVuSans-114"/>
      <use x="779.427734" xlink:href="#DejaVuSans-109"/>
      <use x="876.839844" xlink:href="#DejaVuSans-97"/>
      <use x="938.119141" xlink:href="#DejaVuSans-110"/>
      <use x="1001.498047" xlink:href="#DejaVuSans-99"/>
      <use x="1056.478516" xlink:href="#DejaVuSans-101"/>
      <use x="1118.001953" xlink:href="#DejaVuSans-32"/>
      <use x="1149.789062" xlink:href="#DejaVuSans-40"/>
      <use x="1188.802734" xlink:href="#DejaVuSans-68"/>
      <use x="1265.804688" xlink:href="#DejaVuSans-73"/>
      <use x="1295.296875" xlink:href="#DejaVuSans-41"/>
     </g>
    </g>
   </g>
   <g id="matplotlib.axis_2">
    <g id="ytick_1">
     <g id="line2d_3">
      <defs>
       <path d="M 0 0 
L -3.5 0 
" id="m1fa3fdb312" style="stroke:#000000;stroke-width:0.8;"/>
      </defs>
      <g>
       <use style="stroke:#000000;stroke-width:0.8;" x="41.708" xlink:href="#m1fa3fdb312" y="110.561965"/>
      </g>
     </g>
     <g id="text_4">
      <!-- −4 -->
      <defs>
       <path d="M 10.59375 35.5 
L 73.1875 35.5 
L 73.1875 27.203125 
L 10.59375 27.203125 
z
" id="DejaVuSans-8722"/>
       <path d="M 37.796875 64.3125 
L 12.890625 25.390625 
L 37.796875 25.390625 
z
M 35.203125 72.90625 
L 47.609375 72.90625 
L 47.609375 25.390625 
L 58.015625 25.390625 
L 58.015625 17.1875 
L 47.609375 17.1875 
L 47.609375 0 
L 37.796875 0 
L 37.796875 17.1875 
L 4.890625 17.1875 
L 4.890625 26.703125 
z
" id="DejaVuSans-52"/>
      </defs>
      <g transform="translate(25.862688 112.841496)scale(0.06 -0.06)">
       <use xlink:href="#DejaVuSans-8722"/>
       <use x="83.789062" xlink:href="#DejaVuSans-52"/>
      </g>
     </g>
    </g>
    <g id="ytick_2">
     <g id="line2d_4">
      <g>
       <use style="stroke:#000000;stroke-width:0.8;" x="41.708" xlink:href="#m1fa3fdb312" y="95.351607"/>
      </g>
     </g>
     <g id="text_5">
      <!-- −2 -->
      <defs>
       <path d="M 19.1875 8.296875 
L 53.609375 8.296875 
L 53.609375 0 
L 7.328125 0 
L 7.328125 8.296875 
Q 12.9375 14.109375 22.625 23.890625 
Q 32.328125 33.6875 34.8125 36.53125 
Q 39.546875 41.84375 41.421875 45.53125 
Q 43.3125 49.21875 43.3125 52.78125 
Q 43.3125 58.59375 39.234375 62.25 
Q 35.15625 65.921875 28.609375 65.921875 
Q 23.96875 65.921875 18.8125 64.3125 
Q 13.671875 62.703125 7.8125 59.421875 
L 7.8125 69.390625 
Q 13.765625 71.78125 18.9375 73 
Q 24.125 74.21875 28.421875 74.21875 
Q 39.75 74.21875 46.484375 68.546875 
Q 53.21875 62.890625 53.21875 53.421875 
Q 53.21875 48.921875 51.53125 44.890625 
Q 49.859375 40.875 45.40625 35.40625 
Q 44.1875 33.984375 37.640625 27.21875 
Q 31.109375 20.453125 19.1875 8.296875 
z
" id="DejaVuSans-50"/>
      </defs>
      <g transform="translate(25.862688 97.631138)scale(0.06 -0.06)">
       <use xlink:href="#DejaVuSans-8722"/>
       <use x="83.789062" xlink:href="#DejaVuSans-50"/>
      </g>
     </g>
    </g>
    <g id="ytick_3">
     <g id="line2d_5">
      <g>
       <use style="stroke:#000000;stroke-width:0.8;" x="41.708" xlink:href="#m1fa3fdb312" y="80.141249"/>
      </g>
     </g>
     <g id="text_6">
      <!-- 0 -->
      <g transform="translate(30.8905 82.42078)scale(0.06 -0.06)">
       <use xlink:href="#DejaVuSans-48"/>
      </g>
     </g>
    </g>
    <g id="ytick_4">
     <g id="line2d_6">
      <g>
       <use style="stroke:#000000;stroke-width:0.8;" x="41.708" xlink:href="#m1fa3fdb312" y="64.930891"/>
      </g>
     </g>
     <g id="text_7">
      <!-- 2 -->
      <g transform="translate(30.8905 67.210422)scale(0.06 -0.06)">
       <use xlink:href="#DejaVuSans-50"/>
      </g>
     </g>
    </g>
    <g id="ytick_5">
     <g id="line2d_7">
      <g>
       <use style="stroke:#000000;stroke-width:0.8;" x="41.708" xlink:href="#m1fa3fdb312" y="49.720533"/>
      </g>
     </g>
     <g id="text_8">
      <!-- 4 -->
      <g transform="translate(30.8905 52.000064)scale(0.06 -0.06)">
       <use xlink:href="#DejaVuSans-52"/>
      </g>
     </g>
    </g>
    <g id="ytick_6">
     <g id="line2d_8">
      <g>
       <use style="stroke:#000000;stroke-width:0.8;" x="41.708" xlink:href="#m1fa3fdb312" y="34.510175"/>
      </g>
     </g>
     <g id="text_9">
      <!-- 6 -->
      <g transform="translate(30.8905 36.789706)scale(0.06 -0.06)">
       <use xlink:href="#DejaVuSans-54"/>
      </g>
     </g>
    </g>
    <g id="ytick_7">
     <g id="line2d_9">
      <g>
       <use style="stroke:#000000;stroke-width:0.8;" x="41.708" xlink:href="#m1fa3fdb312" y="19.299817"/>
      </g>
     </g>
     <g id="text_10">
      <!-- 8 -->
      <g transform="translate(30.8905 21.579348)scale(0.06 -0.06)">
       <use xlink:href="#DejaVuSans-56"/>
      </g>
     </g>
    </g>
    <g id="text_11">
     <!-- $\Delta$ variance -->
     <defs>
      <path d="M 34.1875 63.1875 
L 14.15625 8.203125 
L 54.25 8.203125 
z
M 0.78125 0 
L 28.609375 72.90625 
L 39.796875 72.90625 
L 67.578125 0 
z
" id="DejaVuSans-916"/>
     </defs>
     <g transform="translate(13.896188 82.55)rotate(-90)scale(0.06 -0.06)">
      <use transform="translate(0 0.015625)" xlink:href="#DejaVuSans-916"/>
      <use transform="translate(68.408203 0.015625)" xlink:href="#DejaVuSans-32"/>
      <use transform="translate(100.195312 0.015625)" xlink:href="#DejaVuSans-118"/>
      <use transform="translate(159.375 0.015625)" xlink:href="#DejaVuSans-97"/>
      <use transform="translate(220.654297 0.015625)" xlink:href="#DejaVuSans-114"/>
      <use transform="translate(261.767578 0.015625)" xlink:href="#DejaVuSans-105"/>
      <use transform="translate(289.550781 0.015625)" xlink:href="#DejaVuSans-97"/>
      <use transform="translate(350.830078 0.015625)" xlink:href="#DejaVuSans-110"/>
      <use transform="translate(414.208984 0.015625)" xlink:href="#DejaVuSans-99"/>
      <use transform="translate(469.189453 0.015625)" xlink:href="#DejaVuSans-101"/>
     </g>
     <!-- (Active - Passive) -->
     <defs>
      <path d="M 34.1875 63.1875 
L 20.796875 26.90625 
L 47.609375 26.90625 
z
M 28.609375 72.90625 
L 39.796875 72.90625 
L 67.578125 0 
L 57.328125 0 
L 50.6875 18.703125 
L 17.828125 18.703125 
L 11.1875 0 
L 0.78125 0 
z
" id="DejaVuSans-65"/>
      <path d="M 18.3125 70.21875 
L 18.3125 54.6875 
L 36.8125 54.6875 
L 36.8125 47.703125 
L 18.3125 47.703125 
L 18.3125 18.015625 
Q 18.3125 11.328125 20.140625 9.421875 
Q 21.96875 7.515625 27.59375 7.515625 
L 36.8125 7.515625 
L 36.8125 0 
L 27.59375 0 
Q 17.1875 0 13.234375 3.875 
Q 9.28125 7.765625 9.28125 18.015625 
L 9.28125 47.703125 
L 2.6875 47.703125 
L 2.6875 54.6875 
L 9.28125 54.6875 
L 9.28125 70.21875 
z
" id="DejaVuSans-116"/>
      <path d="M 4.890625 31.390625 
L 31.203125 31.390625 
L 31.203125 23.390625 
L 4.890625 23.390625 
z
" id="DejaVuSans-45"/>
      <path d="M 19.671875 64.796875 
L 19.671875 37.40625 
L 32.078125 37.40625 
Q 38.96875 37.40625 42.71875 40.96875 
Q 46.484375 44.53125 46.484375 51.125 
Q 46.484375 57.671875 42.71875 61.234375 
Q 38.96875 64.796875 32.078125 64.796875 
z
M 9.8125 72.90625 
L 32.078125 72.90625 
Q 44.34375 72.90625 50.609375 67.359375 
Q 56.890625 61.8125 56.890625 51.125 
Q 56.890625 40.328125 50.609375 34.8125 
Q 44.34375 29.296875 32.078125 29.296875 
L 19.671875 29.296875 
L 19.671875 0 
L 9.8125 0 
z
" id="DejaVuSans-80"/>
      <path d="M 44.28125 53.078125 
L 44.28125 44.578125 
Q 40.484375 46.53125 36.375 47.5 
Q 32.28125 48.484375 27.875 48.484375 
Q 21.1875 48.484375 17.84375 46.4375 
Q 14.5 44.390625 14.5 40.28125 
Q 14.5 37.15625 16.890625 35.375 
Q 19.28125 33.59375 26.515625 31.984375 
L 29.59375 31.296875 
Q 39.15625 29.25 43.1875 25.515625 
Q 47.21875 21.78125 47.21875 15.09375 
Q 47.21875 7.46875 41.1875 3.015625 
Q 35.15625 -1.421875 24.609375 -1.421875 
Q 20.21875 -1.421875 15.453125 -0.5625 
Q 10.6875 0.296875 5.421875 2 
L 5.421875 11.28125 
Q 10.40625 8.6875 15.234375 7.390625 
Q 20.0625 6.109375 24.8125 6.109375 
Q 31.15625 6.109375 34.5625 8.28125 
Q 37.984375 10.453125 37.984375 14.40625 
Q 37.984375 18.0625 35.515625 20.015625 
Q 33.0625 21.96875 24.703125 23.78125 
L 21.578125 24.515625 
Q 13.234375 26.265625 9.515625 29.90625 
Q 5.8125 33.546875 5.8125 39.890625 
Q 5.8125 47.609375 11.28125 51.796875 
Q 16.75 56 26.8125 56 
Q 31.78125 56 36.171875 55.265625 
Q 40.578125 54.546875 44.28125 53.078125 
z
" id="DejaVuSans-115"/>
     </defs>
     <g transform="translate(20.614875 92.508594)rotate(-90)scale(0.06 -0.06)">
      <use xlink:href="#DejaVuSans-40"/>
      <use x="39.013672" xlink:href="#DejaVuSans-65"/>
      <use x="107.40625" xlink:href="#DejaVuSans-99"/>
      <use x="162.386719" xlink:href="#DejaVuSans-116"/>
      <use x="201.595703" xlink:href="#DejaVuSans-105"/>
      <use x="229.378906" xlink:href="#DejaVuSans-118"/>
      <use x="288.558594" xlink:href="#DejaVuSans-101"/>
      <use x="350.082031" xlink:href="#DejaVuSans-32"/>
      <use x="381.869141" xlink:href="#DejaVuSans-45"/>
      <use x="417.953125" xlink:href="#DejaVuSans-32"/>
      <use x="449.740234" xlink:href="#DejaVuSans-80"/>
      <use x="509.980469" xlink:href="#DejaVuSans-97"/>
      <use x="571.259766" xlink:href="#DejaVuSans-115"/>
      <use x="623.359375" xlink:href="#DejaVuSans-115"/>
      <use x="675.458984" xlink:href="#DejaVuSans-105"/>
      <use x="703.242188" xlink:href="#DejaVuSans-118"/>
      <use x="762.421875" xlink:href="#DejaVuSans-101"/>
      <use x="823.945312" xlink:href="#DejaVuSans-41"/>
     </g>
    </g>
   </g>
   <g id="line2d_10">
    <path clip-path="url(#p2c41b115d8)" d="M 46.365955 63.920299 
L 47.218289 64.193302 
L 48.070624 64.466306 
L 48.922958 64.739309 
L 49.775292 65.012313 
L 50.627626 65.285316 
L 51.479961 65.55832 
L 52.332295 65.831323 
L 53.184629 66.104327 
L 54.036963 66.37733 
L 54.889298 66.650334 
L 55.741632 66.923337 
L 56.593966 67.196341 
L 57.4463 67.469344 
L 58.298635 67.742348 
L 59.150969 68.015351 
L 60.003303 68.288355 
L 60.855637 68.561358 
L 61.707972 68.834362 
L 62.560306 69.107365 
L 63.41264 69.380369 
L 64.264974 69.653372 
L 65.117308 69.926376 
L 65.969643 70.199379 
L 66.821977 70.472383 
L 67.674311 70.745386 
L 68.526645 71.01839 
L 69.37898 71.291393 
L 70.231314 71.564397 
L 71.083648 71.837401 
L 71.935982 72.110404 
L 72.788317 72.383408 
L 73.640651 72.656411 
L 74.492985 72.929415 
L 75.345319 73.202418 
L 76.197654 73.475422 
L 77.049988 73.748425 
L 77.902322 74.021429 
L 78.754656 74.294432 
L 79.606991 74.567436 
L 80.459325 74.840439 
L 81.311659 75.113443 
L 82.163993 75.386446 
L 83.016327 75.65945 
L 83.868662 75.932453 
L 84.720996 76.205457 
L 85.57333 76.47846 
L 86.425664 76.751464 
L 87.277999 77.024467 
L 88.130333 77.297471 
L 88.982667 77.570474 
L 89.835001 77.843478 
L 90.687336 78.116481 
L 91.53967 78.389485 
L 92.392004 78.662488 
L 93.244338 78.935492 
L 94.096673 79.208495 
L 94.949007 79.481499 
L 95.801341 79.754502 
L 96.653675 80.027506 
L 97.506009 80.30051 
L 98.358344 80.573513 
L 99.210678 80.846517 
L 100.063012 81.11952 
L 100.915346 81.392524 
L 101.767681 81.665527 
L 102.620015 81.938531 
L 103.472349 82.211534 
L 104.324683 82.484538 
L 105.177018 82.757541 
L 106.029352 83.030545 
L 106.881686 83.303548 
L 107.73402 83.576552 
L 108.586355 83.849555 
L 109.438689 84.122559 
L 110.291023 84.395562 
L 111.143357 84.668566 
L 111.995692 84.941569 
L 112.848026 85.214573 
L 113.70036 85.487576 
L 114.552694 85.76058 
L 115.405028 86.033583 
L 116.257363 86.306587 
L 117.109697 86.57959 
L 117.962031 86.852594 
L 118.814365 87.125597 
L 119.6667 87.398601 
L 120.519034 87.671604 
L 121.371368 87.944608 
L 122.223702 88.217611 
L 123.076037 88.490615 
L 123.928371 88.763619 
L 124.780705 89.036622 
L 125.633039 89.309626 
L 126.485374 89.582629 
L 127.337708 89.855633 
L 128.190042 90.128636 
L 129.042376 90.40164 
L 129.894711 90.674643 
L 130.747045 90.947647 
" style="fill:none;stroke:#1f77b4;stroke-linecap:square;stroke-width:2.25;"/>
   </g>
   <g id="line2d_11">
    <path clip-path="url(#p2c41b115d8)" d="M 41.708 80.141249 
L 135.405 80.141249 
" style="fill:none;stroke:#000000;stroke-dasharray:5.55,2.4;stroke-dashoffset:0;stroke-width:1.5;"/>
   </g>
   <g id="line2d_12">
    <path clip-path="url(#p2c41b115d8)" d="M 56.640595 113.56 
L 56.640595 19.68 
" style="fill:none;stroke:#000000;stroke-dasharray:5.55,2.4;stroke-dashoffset:0;stroke-width:1.5;"/>
   </g>
   <g id="patch_3">
    <path d="M 41.708 113.56 
L 41.708 19.68 
" style="fill:none;stroke:#000000;stroke-linecap:square;stroke-linejoin:miter;stroke-width:0.8;"/>
   </g>
   <g id="patch_4">
    <path d="M 41.708 113.56 
L 135.405 113.56 
" style="fill:none;stroke:#000000;stroke-linecap:square;stroke-linejoin:miter;stroke-width:0.8;"/>
   </g>
   <g id="text_12">
    <!-- $r$: -0.4981, $p$: 0.0001 -->
    <defs>
     <path d="M 44.578125 46.390625 
Q 43.21875 47.125 41.453125 47.515625 
Q 39.703125 47.90625 37.703125 47.90625 
Q 30.515625 47.90625 25.140625 42.453125 
Q 19.78125 37.015625 18.015625 27.875 
L 12.5 0 
L 3.515625 0 
L 14.203125 54.6875 
L 23.1875 54.6875 
L 21.484375 46.1875 
Q 25.046875 50.921875 30 53.453125 
Q 34.96875 56 40.578125 56 
Q 42.046875 56 43.453125 55.828125 
Q 44.875 55.671875 46.296875 55.28125 
z
" id="DejaVuSans-Oblique-114"/>
     <path d="M 11.71875 12.40625 
L 22.015625 12.40625 
L 22.015625 0 
L 11.71875 0 
z
M 11.71875 51.703125 
L 22.015625 51.703125 
L 22.015625 39.3125 
L 11.71875 39.3125 
z
" id="DejaVuSans-58"/>
     <path d="M 10.984375 1.515625 
L 10.984375 10.5 
Q 14.703125 8.734375 18.5 7.8125 
Q 22.3125 6.890625 25.984375 6.890625 
Q 35.75 6.890625 40.890625 13.453125 
Q 46.046875 20.015625 46.78125 33.40625 
Q 43.953125 29.203125 39.59375 26.953125 
Q 35.25 24.703125 29.984375 24.703125 
Q 19.046875 24.703125 12.671875 31.3125 
Q 6.296875 37.9375 6.296875 49.421875 
Q 6.296875 60.640625 12.9375 67.421875 
Q 19.578125 74.21875 30.609375 74.21875 
Q 43.265625 74.21875 49.921875 64.515625 
Q 56.59375 54.828125 56.59375 36.375 
Q 56.59375 19.140625 48.40625 8.859375 
Q 40.234375 -1.421875 26.421875 -1.421875 
Q 22.703125 -1.421875 18.890625 -0.6875 
Q 15.09375 0.046875 10.984375 1.515625 
z
M 30.609375 32.421875 
Q 37.25 32.421875 41.125 36.953125 
Q 45.015625 41.5 45.015625 49.421875 
Q 45.015625 57.28125 41.125 61.84375 
Q 37.25 66.40625 30.609375 66.40625 
Q 23.96875 66.40625 20.09375 61.84375 
Q 16.21875 57.28125 16.21875 49.421875 
Q 16.21875 41.5 20.09375 36.953125 
Q 23.96875 32.421875 30.609375 32.421875 
z
" id="DejaVuSans-57"/>
     <path d="M 12.40625 8.296875 
L 28.515625 8.296875 
L 28.515625 63.921875 
L 10.984375 60.40625 
L 10.984375 69.390625 
L 28.421875 72.90625 
L 38.28125 72.90625 
L 38.28125 8.296875 
L 54.390625 8.296875 
L 54.390625 0 
L 12.40625 0 
z
" id="DejaVuSans-49"/>
     <path d="M 11.71875 12.40625 
L 22.015625 12.40625 
L 22.015625 4 
L 14.015625 -11.625 
L 7.71875 -11.625 
L 11.71875 4 
z
" id="DejaVuSans-44"/>
     <path d="M 49.609375 33.6875 
Q 49.609375 40.875 46.484375 44.671875 
Q 43.359375 48.484375 37.5 48.484375 
Q 33.5 48.484375 29.859375 46.4375 
Q 26.21875 44.390625 23.390625 40.484375 
Q 20.609375 36.625 18.9375 31.15625 
Q 17.28125 25.6875 17.28125 20.3125 
Q 17.28125 13.484375 20.40625 9.796875 
Q 23.53125 6.109375 29.296875 6.109375 
Q 33.546875 6.109375 37.1875 8.109375 
Q 40.828125 10.109375 43.40625 13.921875 
Q 46.1875 17.921875 47.890625 23.34375 
Q 49.609375 28.765625 49.609375 33.6875 
z
M 21.78125 46.390625 
Q 25.390625 51.125 30.296875 53.5625 
Q 35.203125 56 41.21875 56 
Q 49.609375 56 54.25 50.5 
Q 58.890625 45.015625 58.890625 35.109375 
Q 58.890625 27 56 19.65625 
Q 53.125 12.3125 47.703125 6.5 
Q 44.09375 2.640625 39.546875 0.609375 
Q 35.015625 -1.421875 29.984375 -1.421875 
Q 24.171875 -1.421875 20.21875 1 
Q 16.265625 3.421875 14.3125 8.203125 
L 8.6875 -20.796875 
L -0.296875 -20.796875 
L 14.40625 54.6875 
L 23.390625 54.6875 
z
" id="DejaVuSans-Oblique-112"/>
    </defs>
    <g transform="translate(51.2605 13.68)scale(0.072 -0.072)">
     <use transform="translate(0 0.78125)" xlink:href="#DejaVuSans-Oblique-114"/>
     <use transform="translate(41.113281 0.78125)" xlink:href="#DejaVuSans-58"/>
     <use transform="translate(74.804688 0.78125)" xlink:href="#DejaVuSans-32"/>
     <use transform="translate(106.591797 0.78125)" xlink:href="#DejaVuSans-45"/>
     <use transform="translate(142.675781 0.78125)" xlink:href="#DejaVuSans-48"/>
     <use transform="translate(206.298828 0.78125)" xlink:href="#DejaVuSans-46"/>
     <use transform="translate(238.085938 0.78125)" xlink:href="#DejaVuSans-52"/>
     <use transform="translate(301.708984 0.78125)" xlink:href="#DejaVuSans-57"/>
     <use transform="translate(365.332031 0.78125)" xlink:href="#DejaVuSans-56"/>
     <use transform="translate(428.955078 0.78125)" xlink:href="#DejaVuSans-49"/>
     <use transform="translate(492.578125 0.78125)" xlink:href="#DejaVuSans-44"/>
     <use transform="translate(524.365234 0.78125)" xlink:href="#DejaVuSans-32"/>
     <use transform="translate(556.152344 0.78125)" xlink:href="#DejaVuSans-Oblique-112"/>
     <use transform="translate(619.628906 0.78125)" xlink:href="#DejaVuSans-58"/>
     <use transform="translate(653.320312 0.78125)" xlink:href="#DejaVuSans-32"/>
     <use transform="translate(685.107422 0.78125)" xlink:href="#DejaVuSans-48"/>
     <use transform="translate(748.730469 0.78125)" xlink:href="#DejaVuSans-46"/>
     <use transform="translate(780.517578 0.78125)" xlink:href="#DejaVuSans-48"/>
     <use transform="translate(844.140625 0.78125)" xlink:href="#DejaVuSans-48"/>
     <use transform="translate(907.763672 0.78125)" xlink:href="#DejaVuSans-48"/>
     <use transform="translate(971.386719 0.78125)" xlink:href="#DejaVuSans-49"/>
    </g>
   </g>
  </g>
  <g id="axes_2">
   <g id="patch_5">
    <path d="M 185.303 113.56 
L 279 113.56 
L 279 19.68 
L 185.303 19.68 
z
" style="fill:#ffffff;"/>
   </g>
   <g id="PathCollection_2">
    <g clip-path="url(#pc8441cb911)">
     <use style="fill:#1f77b4;fill-opacity:0.8;stroke:#1f77b4;stroke-opacity:0.8;" x="196.179115" xlink:href="#mb93f1c1710" y="54.299504"/>
     <use style="fill:#1f77b4;fill-opacity:0.8;stroke:#1f77b4;stroke-opacity:0.8;" x="260.62234" xlink:href="#mb93f1c1710" y="86.167161"/>
     <use style="fill:#1f77b4;fill-opacity:0.8;stroke:#1f77b4;stroke-opacity:0.8;" x="235.095437" xlink:href="#mb93f1c1710" y="31.882244"/>
     <use style="fill:#1f77b4;fill-opacity:0.8;stroke:#1f77b4;stroke-opacity:0.8;" x="239.601341" xlink:href="#mb93f1c1710" y="72.061346"/>
     <use style="fill:#1f77b4;fill-opacity:0.8;stroke:#1f77b4;stroke-opacity:0.8;" x="237.888055" xlink:href="#mb93f1c1710" y="80.179972"/>
     <use style="fill:#1f77b4;fill-opacity:0.8;stroke:#1f77b4;stroke-opacity:0.8;" x="242.828643" xlink:href="#mb93f1c1710" y="39.785682"/>
     <use style="fill:#1f77b4;fill-opacity:0.8;stroke:#1f77b4;stroke-opacity:0.8;" x="250.16555" xlink:href="#mb93f1c1710" y="67.071819"/>
     <use style="fill:#1f77b4;fill-opacity:0.8;stroke:#1f77b4;stroke-opacity:0.8;" x="229.117742" xlink:href="#mb93f1c1710" y="54.027497"/>
     <use style="fill:#1f77b4;fill-opacity:0.8;stroke:#1f77b4;stroke-opacity:0.8;" x="248.396513" xlink:href="#mb93f1c1710" y="77.479468"/>
     <use style="fill:#1f77b4;fill-opacity:0.8;stroke:#1f77b4;stroke-opacity:0.8;" x="230.926759" xlink:href="#mb93f1c1710" y="53.13276"/>
     <use style="fill:#1f77b4;fill-opacity:0.8;stroke:#1f77b4;stroke-opacity:0.8;" x="260.556211" xlink:href="#mb93f1c1710" y="82.687305"/>
     <use style="fill:#1f77b4;fill-opacity:0.8;stroke:#1f77b4;stroke-opacity:0.8;" x="243.017941" xlink:href="#mb93f1c1710" y="79.574704"/>
     <use style="fill:#1f77b4;fill-opacity:0.8;stroke:#1f77b4;stroke-opacity:0.8;" x="201.81312" xlink:href="#mb93f1c1710" y="66.220223"/>
     <use style="fill:#1f77b4;fill-opacity:0.8;stroke:#1f77b4;stroke-opacity:0.8;" x="252.334165" xlink:href="#mb93f1c1710" y="78.872413"/>
     <use style="fill:#1f77b4;fill-opacity:0.8;stroke:#1f77b4;stroke-opacity:0.8;" x="232.281788" xlink:href="#mb93f1c1710" y="87.840712"/>
     <use style="fill:#1f77b4;fill-opacity:0.8;stroke:#1f77b4;stroke-opacity:0.8;" x="240.929967" xlink:href="#mb93f1c1710" y="64.816991"/>
     <use style="fill:#1f77b4;fill-opacity:0.8;stroke:#1f77b4;stroke-opacity:0.8;" x="255.284937" xlink:href="#mb93f1c1710" y="78.439627"/>
     <use style="fill:#1f77b4;fill-opacity:0.8;stroke:#1f77b4;stroke-opacity:0.8;" x="254.490939" xlink:href="#mb93f1c1710" y="92.651956"/>
     <use style="fill:#1f77b4;fill-opacity:0.8;stroke:#1f77b4;stroke-opacity:0.8;" x="241.640165" xlink:href="#mb93f1c1710" y="87.794449"/>
     <use style="fill:#1f77b4;fill-opacity:0.8;stroke:#1f77b4;stroke-opacity:0.8;" x="258.709011" xlink:href="#mb93f1c1710" y="75.547812"/>
     <use style="fill:#1f77b4;fill-opacity:0.8;stroke:#1f77b4;stroke-opacity:0.8;" x="245.166064" xlink:href="#mb93f1c1710" y="98.44742"/>
     <use style="fill:#1f77b4;fill-opacity:0.8;stroke:#1f77b4;stroke-opacity:0.8;" x="201.354623" xlink:href="#mb93f1c1710" y="78.822847"/>
     <use style="fill:#1f77b4;fill-opacity:0.8;stroke:#1f77b4;stroke-opacity:0.8;" x="217.399959" xlink:href="#mb93f1c1710" y="80.856602"/>
     <use style="fill:#1f77b4;fill-opacity:0.8;stroke:#1f77b4;stroke-opacity:0.8;" x="203.436524" xlink:href="#mb93f1c1710" y="64.047739"/>
     <use style="fill:#1f77b4;fill-opacity:0.8;stroke:#1f77b4;stroke-opacity:0.8;" x="241.209138" xlink:href="#mb93f1c1710" y="71.045003"/>
     <use style="fill:#1f77b4;fill-opacity:0.8;stroke:#1f77b4;stroke-opacity:0.8;" x="189.960955" xlink:href="#mb93f1c1710" y="96.48414"/>
     <use style="fill:#1f77b4;fill-opacity:0.8;stroke:#1f77b4;stroke-opacity:0.8;" x="215.447401" xlink:href="#mb93f1c1710" y="81.989928"/>
     <use style="fill:#1f77b4;fill-opacity:0.8;stroke:#1f77b4;stroke-opacity:0.8;" x="250.228978" xlink:href="#mb93f1c1710" y="82.891023"/>
     <use style="fill:#1f77b4;fill-opacity:0.8;stroke:#1f77b4;stroke-opacity:0.8;" x="235.125648" xlink:href="#mb93f1c1710" y="92.401072"/>
     <use style="fill:#1f77b4;fill-opacity:0.8;stroke:#1f77b4;stroke-opacity:0.8;" x="257.660622" xlink:href="#mb93f1c1710" y="85.623316"/>
     <use style="fill:#1f77b4;fill-opacity:0.8;stroke:#1f77b4;stroke-opacity:0.8;" x="258.750332" xlink:href="#mb93f1c1710" y="51.9151"/>
     <use style="fill:#1f77b4;fill-opacity:0.8;stroke:#1f77b4;stroke-opacity:0.8;" x="246.509526" xlink:href="#mb93f1c1710" y="93.742012"/>
     <use style="fill:#1f77b4;fill-opacity:0.8;stroke:#1f77b4;stroke-opacity:0.8;" x="258.469181" xlink:href="#mb93f1c1710" y="89.929679"/>
     <use style="fill:#1f77b4;fill-opacity:0.8;stroke:#1f77b4;stroke-opacity:0.8;" x="268.971963" xlink:href="#mb93f1c1710" y="66.535255"/>
     <use style="fill:#1f77b4;fill-opacity:0.8;stroke:#1f77b4;stroke-opacity:0.8;" x="274.342045" xlink:href="#mb93f1c1710" y="81.605113"/>
     <use style="fill:#1f77b4;fill-opacity:0.8;stroke:#1f77b4;stroke-opacity:0.8;" x="263.737957" xlink:href="#mb93f1c1710" y="73.385806"/>
     <use style="fill:#1f77b4;fill-opacity:0.8;stroke:#1f77b4;stroke-opacity:0.8;" x="270.314003" xlink:href="#mb93f1c1710" y="44.377572"/>
     <use style="fill:#1f77b4;fill-opacity:0.8;stroke:#1f77b4;stroke-opacity:0.8;" x="242.081399" xlink:href="#mb93f1c1710" y="56.317336"/>
     <use style="fill:#1f77b4;fill-opacity:0.8;stroke:#1f77b4;stroke-opacity:0.8;" x="219.098226" xlink:href="#mb93f1c1710" y="104.472246"/>
     <use style="fill:#1f77b4;fill-opacity:0.8;stroke:#1f77b4;stroke-opacity:0.8;" x="255.277554" xlink:href="#mb93f1c1710" y="72.980047"/>
     <use style="fill:#1f77b4;fill-opacity:0.8;stroke:#1f77b4;stroke-opacity:0.8;" x="245.828747" xlink:href="#mb93f1c1710" y="92.483125"/>
     <use style="fill:#1f77b4;fill-opacity:0.8;stroke:#1f77b4;stroke-opacity:0.8;" x="272.801525" xlink:href="#mb93f1c1710" y="90.561951"/>
     <use style="fill:#1f77b4;fill-opacity:0.8;stroke:#1f77b4;stroke-opacity:0.8;" x="249.182569" xlink:href="#mb93f1c1710" y="76.695875"/>
     <use style="fill:#1f77b4;fill-opacity:0.8;stroke:#1f77b4;stroke-opacity:0.8;" x="210.030514" xlink:href="#mb93f1c1710" y="79.373278"/>
     <use style="fill:#1f77b4;fill-opacity:0.8;stroke:#1f77b4;stroke-opacity:0.8;" x="220.509889" xlink:href="#mb93f1c1710" y="56.792571"/>
     <use style="fill:#1f77b4;fill-opacity:0.8;stroke:#1f77b4;stroke-opacity:0.8;" x="249.097745" xlink:href="#mb93f1c1710" y="64.973994"/>
     <use style="fill:#1f77b4;fill-opacity:0.8;stroke:#1f77b4;stroke-opacity:0.8;" x="262.955029" xlink:href="#mb93f1c1710" y="65.651391"/>
     <use style="fill:#1f77b4;fill-opacity:0.8;stroke:#1f77b4;stroke-opacity:0.8;" x="235.400899" xlink:href="#mb93f1c1710" y="77.123609"/>
     <use style="fill:#1f77b4;fill-opacity:0.8;stroke:#1f77b4;stroke-opacity:0.8;" x="246.821974" xlink:href="#mb93f1c1710" y="88.958001"/>
     <use style="fill:#1f77b4;fill-opacity:0.8;stroke:#1f77b4;stroke-opacity:0.8;" x="268.776134" xlink:href="#mb93f1c1710" y="30.148977"/>
     <use style="fill:#1f77b4;fill-opacity:0.8;stroke:#1f77b4;stroke-opacity:0.8;" x="267.494465" xlink:href="#mb93f1c1710" y="70.990383"/>
     <use style="fill:#1f77b4;fill-opacity:0.8;stroke:#1f77b4;stroke-opacity:0.8;" x="264.47796" xlink:href="#mb93f1c1710" y="68.978211"/>
     <use style="fill:#1f77b4;fill-opacity:0.8;stroke:#1f77b4;stroke-opacity:0.8;" x="264.47796" xlink:href="#mb93f1c1710" y="85.432516"/>
     <use style="fill:#1f77b4;fill-opacity:0.8;stroke:#1f77b4;stroke-opacity:0.8;" x="255.133302" xlink:href="#mb93f1c1710" y="77.071634"/>
     <use style="fill:#1f77b4;fill-opacity:0.8;stroke:#1f77b4;stroke-opacity:0.8;" x="255.133302" xlink:href="#mb93f1c1710" y="87.573427"/>
     <use style="fill:#1f77b4;fill-opacity:0.8;stroke:#1f77b4;stroke-opacity:0.8;" x="242.5087" xlink:href="#mb93f1c1710" y="84.379268"/>
     <use style="fill:#1f77b4;fill-opacity:0.8;stroke:#1f77b4;stroke-opacity:0.8;" x="242.5087" xlink:href="#mb93f1c1710" y="67.023462"/>
     <use style="fill:#1f77b4;fill-opacity:0.8;stroke:#1f77b4;stroke-opacity:0.8;" x="266.871904" xlink:href="#mb93f1c1710" y="64.194018"/>
     <use style="fill:#1f77b4;fill-opacity:0.8;stroke:#1f77b4;stroke-opacity:0.8;" x="266.871904" xlink:href="#mb93f1c1710" y="68.771543"/>
     <use style="fill:#1f77b4;fill-opacity:0.8;stroke:#1f77b4;stroke-opacity:0.8;" x="258.812589" xlink:href="#mb93f1c1710" y="-1"/>
    </g>
   </g>
   <g id="PolyCollection_2">
    <path clip-path="url(#pc8441cb911)" d="M 189.960955 62.406613 
L 189.960955 87.910664 
L 190.813289 87.660126 
L 191.665624 87.409589 
L 192.517958 87.106326 
L 193.370292 86.799042 
L 194.222626 86.561052 
L 195.074961 86.323063 
L 195.927295 86.085073 
L 196.779629 85.884395 
L 197.631963 85.66989 
L 198.484298 85.462882 
L 199.336632 85.338348 
L 200.188966 85.190531 
L 201.0413 84.933568 
L 201.893635 84.657904 
L 202.745969 84.398837 
L 203.598303 84.166125 
L 204.450637 83.912211 
L 205.302972 83.658296 
L 206.155306 83.434896 
L 207.00764 83.236383 
L 207.859974 83.036222 
L 208.712308 82.916918 
L 209.564643 82.832719 
L 210.416977 82.649758 
L 211.269311 82.31772 
L 212.121645 82.033383 
L 212.97398 81.870234 
L 213.826314 81.645379 
L 214.678648 81.488899 
L 215.530982 81.387994 
L 216.383317 81.174809 
L 217.235651 81.061692 
L 218.087985 80.880094 
L 218.940319 80.630169 
L 219.792654 80.380018 
L 220.644988 80.166079 
L 221.497322 79.995534 
L 222.349656 79.874776 
L 223.201991 79.69778 
L 224.054325 79.525099 
L 224.906659 79.365643 
L 225.758993 79.214997 
L 226.611327 79.045249 
L 227.463662 78.888029 
L 228.315996 78.815055 
L 229.16833 78.756998 
L 230.020664 78.673728 
L 230.872999 78.586079 
L 231.725333 78.497646 
L 232.577667 78.371687 
L 233.430001 78.257163 
L 234.282336 78.107681 
L 235.13467 77.946938 
L 235.987004 77.873012 
L 236.839338 77.798205 
L 237.691673 77.727225 
L 238.544007 77.653877 
L 239.396341 77.517055 
L 240.248675 77.495406 
L 241.101009 77.414037 
L 241.953344 77.327744 
L 242.805678 77.273126 
L 243.658012 77.219049 
L 244.510346 77.193015 
L 245.362681 77.071779 
L 246.215015 76.997702 
L 247.067349 76.925443 
L 247.919683 76.881643 
L 248.772018 76.864124 
L 249.624352 76.846606 
L 250.476686 76.919008 
L 251.32902 76.950368 
L 252.181355 77.014799 
L 253.033689 77.01369 
L 253.886023 76.982664 
L 254.738357 77.083133 
L 255.590692 77.132159 
L 256.443026 77.162722 
L 257.29536 77.263662 
L 258.147694 77.243938 
L 259.000028 77.221511 
L 259.852363 77.303182 
L 260.704697 77.27631 
L 261.557031 77.308553 
L 262.409365 77.386772 
L 263.2617 77.484902 
L 264.114034 77.577648 
L 264.966368 77.637596 
L 265.818702 77.764484 
L 266.671037 77.858479 
L 267.523371 77.932496 
L 268.375705 78.045836 
L 269.228039 78.141116 
L 270.080374 78.236396 
L 270.932708 78.330143 
L 271.785042 78.423616 
L 272.637376 78.528019 
L 273.489711 78.611345 
L 274.342045 78.706914 
L 274.342045 58.763558 
L 274.342045 58.763558 
L 273.489711 58.984126 
L 272.637376 59.210871 
L 271.785042 59.400915 
L 270.932708 59.568768 
L 270.080374 59.736621 
L 269.228039 59.904474 
L 268.375705 60.073618 
L 267.523371 60.244888 
L 266.671037 60.517089 
L 265.818702 60.797416 
L 264.966368 61.043506 
L 264.114034 61.138438 
L 263.2617 61.287647 
L 262.409365 61.472886 
L 261.557031 61.658304 
L 260.704697 61.847563 
L 259.852363 62.073591 
L 259.000028 62.273019 
L 258.147694 62.431544 
L 257.29536 62.60225 
L 256.443026 62.75479 
L 255.590692 62.905207 
L 254.738357 63.062612 
L 253.886023 63.231575 
L 253.033689 63.377038 
L 252.181355 63.50533 
L 251.32902 63.622404 
L 250.476686 63.84997 
L 249.624352 64.005889 
L 248.772018 64.164313 
L 247.919683 64.340135 
L 247.067349 64.481043 
L 246.215015 64.529561 
L 245.362681 64.732319 
L 244.510346 64.839497 
L 243.658012 64.959672 
L 242.805678 65.080632 
L 241.953344 65.173461 
L 241.101009 65.261194 
L 240.248675 65.352325 
L 239.396341 65.599184 
L 238.544007 65.779768 
L 237.691673 65.757341 
L 236.839338 65.881403 
L 235.987004 65.999524 
L 235.13467 66.058321 
L 234.282336 66.113715 
L 233.430001 66.173452 
L 232.577667 66.22898 
L 231.725333 66.232031 
L 230.872999 66.129694 
L 230.020664 66.188858 
L 229.16833 66.154293 
L 228.315996 66.146442 
L 227.463662 66.119482 
L 226.611327 66.081519 
L 225.758993 65.974711 
L 224.906659 65.939426 
L 224.054325 65.976618 
L 223.201991 65.974721 
L 222.349656 66.013511 
L 221.497322 66.007304 
L 220.644988 65.929657 
L 219.792654 65.935905 
L 218.940319 65.854341 
L 218.087985 65.751925 
L 217.235651 65.596433 
L 216.383317 65.513466 
L 215.530982 65.43572 
L 214.678648 65.347867 
L 213.826314 65.264044 
L 212.97398 65.184091 
L 212.121645 65.183355 
L 211.269311 65.038503 
L 210.416977 64.935928 
L 209.564643 64.853198 
L 208.712308 64.771363 
L 207.859974 64.630739 
L 207.00764 64.452693 
L 206.155306 64.274647 
L 205.302972 64.096601 
L 204.450637 63.91917 
L 203.598303 63.801267 
L 202.745969 63.721962 
L 201.893635 63.646214 
L 201.0413 63.616107 
L 200.188966 63.542466 
L 199.336632 63.417393 
L 198.484298 63.339025 
L 197.631963 63.260656 
L 196.779629 63.182287 
L 195.927295 63.103918 
L 195.074961 63.025809 
L 194.222626 62.949238 
L 193.370292 62.872669 
L 192.517958 62.727982 
L 191.665624 62.576912 
L 190.813289 62.467794 
L 189.960955 62.406613 
z
" style="fill:#1f77b4;fill-opacity:0.15;"/>
   </g>
   <g id="matplotlib.axis_3">
    <g id="xtick_3">
     <g id="line2d_13">
      <g>
       <use style="stroke:#000000;stroke-width:0.8;" x="217.272814" xlink:href="#m622eeaa7e0" y="113.56"/>
      </g>
     </g>
     <g id="text_13">
      <!-- 0.6 -->
      <g transform="translate(212.501877 125.119063)scale(0.06 -0.06)">
       <use xlink:href="#DejaVuSans-48"/>
       <use x="63.623047" xlink:href="#DejaVuSans-46"/>
       <use x="95.410156" xlink:href="#DejaVuSans-54"/>
      </g>
     </g>
    </g>
    <g id="xtick_4">
     <g id="line2d_14">
      <g>
       <use style="stroke:#000000;stroke-width:0.8;" x="251.347252" xlink:href="#m622eeaa7e0" y="113.56"/>
      </g>
     </g>
     <g id="text_14">
      <!-- 0.8 -->
      <g transform="translate(246.576315 125.119063)scale(0.06 -0.06)">
       <use xlink:href="#DejaVuSans-48"/>
       <use x="63.623047" xlink:href="#DejaVuSans-46"/>
       <use x="95.410156" xlink:href="#DejaVuSans-56"/>
      </g>
     </g>
    </g>
    <g id="text_15">
     <!-- Behavior performance (DI) -->
     <g transform="translate(192.121188 134.925938)scale(0.06 -0.06)">
      <use xlink:href="#DejaVuSans-66"/>
      <use x="68.603516" xlink:href="#DejaVuSans-101"/>
      <use x="130.126953" xlink:href="#DejaVuSans-104"/>
      <use x="193.505859" xlink:href="#DejaVuSans-97"/>
      <use x="254.785156" xlink:href="#DejaVuSans-118"/>
      <use x="313.964844" xlink:href="#DejaVuSans-105"/>
      <use x="341.748047" xlink:href="#DejaVuSans-111"/>
      <use x="402.929688" xlink:href="#DejaVuSans-114"/>
      <use x="444.042969" xlink:href="#DejaVuSans-32"/>
      <use x="475.830078" xlink:href="#DejaVuSans-112"/>
      <use x="539.306641" xlink:href="#DejaVuSans-101"/>
      <use x="600.830078" xlink:href="#DejaVuSans-114"/>
      <use x="641.943359" xlink:href="#DejaVuSans-102"/>
      <use x="677.148438" xlink:href="#DejaVuSans-111"/>
      <use x="738.330078" xlink:href="#DejaVuSans-114"/>
      <use x="779.427734" xlink:href="#DejaVuSans-109"/>
      <use x="876.839844" xlink:href="#DejaVuSans-97"/>
      <use x="938.119141" xlink:href="#DejaVuSans-110"/>
      <use x="1001.498047" xlink:href="#DejaVuSans-99"/>
      <use x="1056.478516" xlink:href="#DejaVuSans-101"/>
      <use x="1118.001953" xlink:href="#DejaVuSans-32"/>
      <use x="1149.789062" xlink:href="#DejaVuSans-40"/>
      <use x="1188.802734" xlink:href="#DejaVuSans-68"/>
      <use x="1265.804688" xlink:href="#DejaVuSans-73"/>
      <use x="1295.296875" xlink:href="#DejaVuSans-41"/>
     </g>
    </g>
   </g>
   <g id="matplotlib.axis_4">
    <g id="ytick_8">
     <g id="line2d_15">
      <g>
       <use style="stroke:#000000;stroke-width:0.8;" x="185.303" xlink:href="#m1fa3fdb312" y="100.883371"/>
      </g>
     </g>
     <g id="text_16">
      <!-- −0.5 -->
      <defs>
       <path d="M 10.796875 72.90625 
L 49.515625 72.90625 
L 49.515625 64.59375 
L 19.828125 64.59375 
L 19.828125 46.734375 
Q 21.96875 47.46875 24.109375 47.828125 
Q 26.265625 48.1875 28.421875 48.1875 
Q 40.625 48.1875 47.75 41.5 
Q 54.890625 34.8125 54.890625 23.390625 
Q 54.890625 11.625 47.5625 5.09375 
Q 40.234375 -1.421875 26.90625 -1.421875 
Q 22.3125 -1.421875 17.546875 -0.640625 
Q 12.796875 0.140625 7.71875 1.703125 
L 7.71875 11.625 
Q 12.109375 9.234375 16.796875 8.0625 
Q 21.484375 6.890625 26.703125 6.890625 
Q 35.15625 6.890625 40.078125 11.328125 
Q 45.015625 15.765625 45.015625 23.390625 
Q 45.015625 31 40.078125 35.4375 
Q 35.15625 39.890625 26.703125 39.890625 
Q 22.75 39.890625 18.8125 39.015625 
Q 14.890625 38.140625 10.796875 36.28125 
z
" id="DejaVuSans-53"/>
      </defs>
      <g transform="translate(163.733313 103.162903)scale(0.06 -0.06)">
       <use xlink:href="#DejaVuSans-8722"/>
       <use x="83.789062" xlink:href="#DejaVuSans-48"/>
       <use x="147.412109" xlink:href="#DejaVuSans-46"/>
       <use x="179.199219" xlink:href="#DejaVuSans-53"/>
      </g>
     </g>
    </g>
    <g id="ytick_9">
     <g id="line2d_16">
      <g>
       <use style="stroke:#000000;stroke-width:0.8;" x="185.303" xlink:href="#m1fa3fdb312" y="84.642697"/>
      </g>
     </g>
     <g id="text_17">
      <!-- 0.0 -->
      <g transform="translate(168.761125 86.922228)scale(0.06 -0.06)">
       <use xlink:href="#DejaVuSans-48"/>
       <use x="63.623047" xlink:href="#DejaVuSans-46"/>
       <use x="95.410156" xlink:href="#DejaVuSans-48"/>
      </g>
     </g>
    </g>
    <g id="ytick_10">
     <g id="line2d_17">
      <g>
       <use style="stroke:#000000;stroke-width:0.8;" x="185.303" xlink:href="#m1fa3fdb312" y="68.402023"/>
      </g>
     </g>
     <g id="text_18">
      <!-- 0.5 -->
      <g transform="translate(168.761125 70.681554)scale(0.06 -0.06)">
       <use xlink:href="#DejaVuSans-48"/>
       <use x="63.623047" xlink:href="#DejaVuSans-46"/>
       <use x="95.410156" xlink:href="#DejaVuSans-53"/>
      </g>
     </g>
    </g>
    <g id="ytick_11">
     <g id="line2d_18">
      <g>
       <use style="stroke:#000000;stroke-width:0.8;" x="185.303" xlink:href="#m1fa3fdb312" y="52.161349"/>
      </g>
     </g>
     <g id="text_19">
      <!-- 1.0 -->
      <g transform="translate(168.761125 54.44088)scale(0.06 -0.06)">
       <use xlink:href="#DejaVuSans-49"/>
       <use x="63.623047" xlink:href="#DejaVuSans-46"/>
       <use x="95.410156" xlink:href="#DejaVuSans-48"/>
      </g>
     </g>
    </g>
    <g id="ytick_12">
     <g id="line2d_19">
      <g>
       <use style="stroke:#000000;stroke-width:0.8;" x="185.303" xlink:href="#m1fa3fdb312" y="35.920674"/>
      </g>
     </g>
     <g id="text_20">
      <!-- 1.5 -->
      <g transform="translate(168.761125 38.200206)scale(0.06 -0.06)">
       <use xlink:href="#DejaVuSans-49"/>
       <use x="63.623047" xlink:href="#DejaVuSans-46"/>
       <use x="95.410156" xlink:href="#DejaVuSans-53"/>
      </g>
     </g>
    </g>
    <g id="ytick_13">
     <g id="line2d_20">
      <g>
       <use style="stroke:#000000;stroke-width:0.8;" x="185.303" xlink:href="#m1fa3fdb312" y="19.68"/>
      </g>
     </g>
     <g id="text_21">
      <!-- 2.0 -->
      <g transform="translate(168.761125 21.959531)scale(0.06 -0.06)">
       <use xlink:href="#DejaVuSans-50"/>
       <use x="63.623047" xlink:href="#DejaVuSans-46"/>
       <use x="95.410156" xlink:href="#DejaVuSans-48"/>
      </g>
     </g>
    </g>
    <g id="text_22">
     <!-- $\Delta d'$ -->
     <defs>
      <path d="M 41.796875 8.203125 
Q 38.1875 3.46875 33.25 1.015625 
Q 28.328125 -1.421875 22.3125 -1.421875 
Q 14.109375 -1.421875 9.34375 4.171875 
Q 4.59375 9.765625 4.59375 19.484375 
Q 4.59375 27.59375 7.46875 34.9375 
Q 10.359375 42.28125 15.828125 48.09375 
Q 19.4375 51.953125 23.96875 53.96875 
Q 28.515625 56 33.5 56 
Q 38.765625 56 42.796875 53.453125 
Q 46.828125 50.921875 49.03125 46.1875 
L 54.890625 75.984375 
L 63.921875 75.984375 
L 49.125 0 
L 40.09375 0 
z
M 13.921875 21.09375 
Q 13.921875 14.015625 17.109375 10.0625 
Q 20.3125 6.109375 25.984375 6.109375 
Q 30.171875 6.109375 33.765625 8.125 
Q 37.359375 10.15625 40.09375 14.109375 
Q 42.96875 18.21875 44.625 23.578125 
Q 46.296875 28.953125 46.296875 34.1875 
Q 46.296875 40.96875 43.09375 44.765625 
Q 39.890625 48.578125 34.28125 48.578125 
Q 30.03125 48.578125 26.359375 46.578125 
Q 22.703125 44.578125 20.125 40.828125 
Q 17.28125 36.765625 15.59375 31.390625 
Q 13.921875 26.03125 13.921875 21.09375 
z
" id="DejaVuSans-Oblique-100"/>
      <path d="M 3.515625 5.421875 
Q 2.875 5.609375 2.875 6.390625 
L 15.09375 51.8125 
Q 15.671875 53.65625 17.078125 54.78125 
Q 18.5 55.90625 20.3125 55.90625 
Q 22.65625 55.90625 24.4375 54.359375 
Q 26.21875 52.828125 26.21875 50.484375 
Q 26.21875 49.46875 25.6875 48.1875 
L 7.625 4.984375 
Q 7.28125 4.296875 6.6875 4.296875 
Q 6.15625 4.296875 5 4.78125 
Q 3.859375 5.28125 3.515625 5.421875 
z
" id="Cmsy10-48"/>
     </defs>
     <g transform="translate(151.766813 71.48)rotate(-90)scale(0.06 -0.06)">
      <use transform="translate(0 0.584375)" xlink:href="#DejaVuSans-916"/>
      <use transform="translate(68.408203 0.584375)" xlink:href="#DejaVuSans-Oblique-100"/>
      <use transform="translate(139.332474 38.865625)scale(0.7)" xlink:href="#Cmsy10-48"/>
     </g>
     <!-- (Active - Passive) -->
     <g transform="translate(158.4855 92.508594)rotate(-90)scale(0.06 -0.06)">
      <use xlink:href="#DejaVuSans-40"/>
      <use x="39.013672" xlink:href="#DejaVuSans-65"/>
      <use x="107.40625" xlink:href="#DejaVuSans-99"/>
      <use x="162.386719" xlink:href="#DejaVuSans-116"/>
      <use x="201.595703" xlink:href="#DejaVuSans-105"/>
      <use x="229.378906" xlink:href="#DejaVuSans-118"/>
      <use x="288.558594" xlink:href="#DejaVuSans-101"/>
      <use x="350.082031" xlink:href="#DejaVuSans-32"/>
      <use x="381.869141" xlink:href="#DejaVuSans-45"/>
      <use x="417.953125" xlink:href="#DejaVuSans-32"/>
      <use x="449.740234" xlink:href="#DejaVuSans-80"/>
      <use x="509.980469" xlink:href="#DejaVuSans-97"/>
      <use x="571.259766" xlink:href="#DejaVuSans-115"/>
      <use x="623.359375" xlink:href="#DejaVuSans-115"/>
      <use x="675.458984" xlink:href="#DejaVuSans-105"/>
      <use x="703.242188" xlink:href="#DejaVuSans-118"/>
      <use x="762.421875" xlink:href="#DejaVuSans-101"/>
      <use x="823.945312" xlink:href="#DejaVuSans-41"/>
     </g>
    </g>
   </g>
   <g id="line2d_21">
    <path clip-path="url(#pc8441cb911)" d="M 189.960955 75.452016 
L 190.813289 75.392696 
L 191.665624 75.333376 
L 192.517958 75.274056 
L 193.370292 75.214736 
L 194.222626 75.155416 
L 195.074961 75.096095 
L 195.927295 75.036775 
L 196.779629 74.977455 
L 197.631963 74.918135 
L 198.484298 74.858815 
L 199.336632 74.799495 
L 200.188966 74.740175 
L 201.0413 74.680855 
L 201.893635 74.621535 
L 202.745969 74.562215 
L 203.598303 74.502895 
L 204.450637 74.443574 
L 205.302972 74.384254 
L 206.155306 74.324934 
L 207.00764 74.265614 
L 207.859974 74.206294 
L 208.712308 74.146974 
L 209.564643 74.087654 
L 210.416977 74.028334 
L 211.269311 73.969014 
L 212.121645 73.909694 
L 212.97398 73.850374 
L 213.826314 73.791053 
L 214.678648 73.731733 
L 215.530982 73.672413 
L 216.383317 73.613093 
L 217.235651 73.553773 
L 218.087985 73.494453 
L 218.940319 73.435133 
L 219.792654 73.375813 
L 220.644988 73.316493 
L 221.497322 73.257173 
L 222.349656 73.197852 
L 223.201991 73.138532 
L 224.054325 73.079212 
L 224.906659 73.019892 
L 225.758993 72.960572 
L 226.611327 72.901252 
L 227.463662 72.841932 
L 228.315996 72.782612 
L 229.16833 72.723292 
L 230.020664 72.663972 
L 230.872999 72.604652 
L 231.725333 72.545331 
L 232.577667 72.486011 
L 233.430001 72.426691 
L 234.282336 72.367371 
L 235.13467 72.308051 
L 235.987004 72.248731 
L 236.839338 72.189411 
L 237.691673 72.130091 
L 238.544007 72.070771 
L 239.396341 72.011451 
L 240.248675 71.952131 
L 241.101009 71.89281 
L 241.953344 71.83349 
L 242.805678 71.77417 
L 243.658012 71.71485 
L 244.510346 71.65553 
L 245.362681 71.59621 
L 246.215015 71.53689 
L 247.067349 71.47757 
L 247.919683 71.41825 
L 248.772018 71.35893 
L 249.624352 71.299609 
L 250.476686 71.240289 
L 251.32902 71.180969 
L 252.181355 71.121649 
L 253.033689 71.062329 
L 253.886023 71.003009 
L 254.738357 70.943689 
L 255.590692 70.884369 
L 256.443026 70.825049 
L 257.29536 70.765729 
L 258.147694 70.706409 
L 259.000028 70.647088 
L 259.852363 70.587768 
L 260.704697 70.528448 
L 261.557031 70.469128 
L 262.409365 70.409808 
L 263.2617 70.350488 
L 264.114034 70.291168 
L 264.966368 70.231848 
L 265.818702 70.172528 
L 266.671037 70.113208 
L 267.523371 70.053888 
L 268.375705 69.994567 
L 269.228039 69.935247 
L 270.080374 69.875927 
L 270.932708 69.816607 
L 271.785042 69.757287 
L 272.637376 69.697967 
L 273.489711 69.638647 
L 274.342045 69.579327 
" style="fill:none;stroke:#1f77b4;stroke-linecap:square;stroke-width:2.25;"/>
   </g>
   <g id="line2d_22">
    <path clip-path="url(#pc8441cb911)" d="M 185.303 84.642697 
L 279 84.642697 
" style="fill:none;stroke:#000000;stroke-dasharray:5.55,2.4;stroke-dashoffset:0;stroke-width:1.5;"/>
   </g>
   <g id="line2d_23">
    <path clip-path="url(#pc8441cb911)" d="M 200.235595 113.56 
L 200.235595 19.68 
" style="fill:none;stroke:#000000;stroke-dasharray:5.55,2.4;stroke-dashoffset:0;stroke-width:1.5;"/>
   </g>
   <g id="patch_6">
    <path d="M 185.303 113.56 
L 185.303 19.68 
" style="fill:none;stroke:#000000;stroke-linecap:square;stroke-linejoin:miter;stroke-width:0.8;"/>
   </g>
   <g id="patch_7">
    <path d="M 185.303 113.56 
L 279 113.56 
" style="fill:none;stroke:#000000;stroke-linecap:square;stroke-linejoin:miter;stroke-width:0.8;"/>
   </g>
   <g id="text_23">
    <!-- $r$: 0.0566, $p$: 0.6675 -->
    <defs>
     <path d="M 8.203125 72.90625 
L 55.078125 72.90625 
L 55.078125 68.703125 
L 28.609375 0 
L 18.3125 0 
L 43.21875 64.59375 
L 8.203125 64.59375 
z
" id="DejaVuSans-55"/>
    </defs>
    <g transform="translate(196.1875 13.68)scale(0.072 -0.072)">
     <use transform="translate(0 0.78125)" xlink:href="#DejaVuSans-Oblique-114"/>
     <use transform="translate(41.113281 0.78125)" xlink:href="#DejaVuSans-58"/>
     <use transform="translate(74.804688 0.78125)" xlink:href="#DejaVuSans-32"/>
     <use transform="translate(106.591797 0.78125)" xlink:href="#DejaVuSans-48"/>
     <use transform="translate(170.214844 0.78125)" xlink:href="#DejaVuSans-46"/>
     <use transform="translate(202.001953 0.78125)" xlink:href="#DejaVuSans-48"/>
     <use transform="translate(265.625 0.78125)" xlink:href="#DejaVuSans-53"/>
     <use transform="translate(329.248047 0.78125)" xlink:href="#DejaVuSans-54"/>
     <use transform="translate(392.871094 0.78125)" xlink:href="#DejaVuSans-54"/>
     <use transform="translate(456.494141 0.78125)" xlink:href="#DejaVuSans-44"/>
     <use transform="translate(488.28125 0.78125)" xlink:href="#DejaVuSans-32"/>
     <use transform="translate(520.068359 0.78125)" xlink:href="#DejaVuSans-Oblique-112"/>
     <use transform="translate(583.544922 0.78125)" xlink:href="#DejaVuSans-58"/>
     <use transform="translate(617.236328 0.78125)" xlink:href="#DejaVuSans-32"/>
     <use transform="translate(649.023438 0.78125)" xlink:href="#DejaVuSans-48"/>
     <use transform="translate(712.646484 0.78125)" xlink:href="#DejaVuSans-46"/>
     <use transform="translate(744.433594 0.78125)" xlink:href="#DejaVuSans-54"/>
     <use transform="translate(808.056641 0.78125)" xlink:href="#DejaVuSans-54"/>
     <use transform="translate(871.679688 0.78125)" xlink:href="#DejaVuSans-55"/>
     <use transform="translate(935.302734 0.78125)" xlink:href="#DejaVuSans-53"/>
    </g>
   </g>
  </g>
 </g>
 <defs>
  <clipPath id="p2c41b115d8">
   <rect height="93.88" width="93.697" x="41.708" y="19.68"/>
  </clipPath>
  <clipPath id="pc8441cb911">
   <rect height="93.88" width="93.697" x="185.303" y="19.68"/>
  </clipPath>
 </defs>
</svg>
