<?xml version="1.0" encoding="utf-8" standalone="no"?>
<!DOCTYPE svg PUBLIC "-//W3C//DTD SVG 1.1//EN"
  "http://www.w3.org/Graphics/SVG/1.1/DTD/svg11.dtd">
<!-- Created with matplotlib (https://matplotlib.org/) -->
<svg height="288pt" version="1.1" viewBox="0 0 576 288" width="576pt" xmlns="http://www.w3.org/2000/svg" xmlns:xlink="http://www.w3.org/1999/xlink">
 <defs>
  <style type="text/css">
*{stroke-linecap:butt;stroke-linejoin:round;}
  </style>
 </defs>
 <g id="figure_1">
  <g id="patch_1">
   <path d="M 0 288 
L 576 288 
L 576 0 
L 0 0 
z
" style="fill:#ffffff;"/>
  </g>
  <g id="axes_1">
   <g id="patch_2">
    <path d="M 38.27 246.04 
L 254.909183 246.04 
L 254.909183 27.816 
L 38.27 27.816 
z
" style="fill:#ffffff;"/>
   </g>
   <g id="PathCollection_1">
    <defs>
     <path d="M 0 3.535534 
C 0.937635 3.535534 1.836992 3.163008 2.5 2.5 
C 3.163008 1.836992 3.535534 0.937635 3.535534 0 
C 3.535534 -0.937635 3.163008 -1.836992 2.5 -2.5 
C 1.836992 -3.163008 0.937635 -3.535534 0 -3.535534 
C -0.937635 -3.535534 -1.836992 -3.163008 -2.5 -2.5 
C -3.163008 -1.836992 -3.535534 -0.937635 -3.535534 0 
C -3.535534 0.937635 -3.163008 1.836992 -2.5 2.5 
C -1.836992 3.163008 -0.937635 3.535534 0 3.535534 
z
" id="m2ec1d4c209" style="stroke:#ffffff;"/>
    </defs>
    <g clip-path="url(#p0ec665507a)">
     <use style="fill:#1f77b4;stroke:#ffffff;" x="59.91221" xlink:href="#m2ec1d4c209" y="200.724447"/>
     <use style="fill:#1f77b4;stroke:#ffffff;" x="73.134609" xlink:href="#m2ec1d4c209" y="212.434365"/>
     <use style="fill:#1f77b4;stroke:#ffffff;" x="106.139487" xlink:href="#m2ec1d4c209" y="136.544676"/>
     <use style="fill:#1f77b4;stroke:#ffffff;" x="48.434938" xlink:href="#m2ec1d4c209" y="226.238539"/>
     <use style="fill:#1f77b4;stroke:#ffffff;" x="76.665728" xlink:href="#m2ec1d4c209" y="204.174209"/>
     <use style="fill:#1f77b4;stroke:#ffffff;" x="104.864876" xlink:href="#m2ec1d4c209" y="144.036648"/>
     <use style="fill:#1f77b4;stroke:#ffffff;" x="56.268855" xlink:href="#m2ec1d4c209" y="214.427141"/>
     <use style="fill:#1f77b4;stroke:#ffffff;" x="72.490837" xlink:href="#m2ec1d4c209" y="187.838411"/>
     <use style="fill:#1f77b4;stroke:#ffffff;" x="65.711338" xlink:href="#m2ec1d4c209" y="213.089103"/>
     <use style="fill:#1f77b4;stroke:#ffffff;" x="106.405462" xlink:href="#m2ec1d4c209" y="152.968218"/>
     <use style="fill:#1f77b4;stroke:#ffffff;" x="74.663907" xlink:href="#m2ec1d4c209" y="208.160369"/>
     <use style="fill:#1f77b4;stroke:#ffffff;" x="77.629338" xlink:href="#m2ec1d4c209" y="202.728002"/>
     <use style="fill:#1f77b4;stroke:#ffffff;" x="103.231092" xlink:href="#m2ec1d4c209" y="166.445968"/>
     <use style="fill:#1f77b4;stroke:#ffffff;" x="70.657871" xlink:href="#m2ec1d4c209" y="209.199808"/>
     <use style="fill:#1f77b4;stroke:#ffffff;" x="84.131062" xlink:href="#m2ec1d4c209" y="202.670462"/>
     <use style="fill:#1f77b4;stroke:#ffffff;" x="59.501631" xlink:href="#m2ec1d4c209" y="209.399185"/>
     <use style="fill:#1f77b4;stroke:#ffffff;" x="94.969685" xlink:href="#m2ec1d4c209" y="184.366846"/>
     <use style="fill:#1f77b4;stroke:#ffffff;" x="77.902051" xlink:href="#m2ec1d4c209" y="212.724956"/>
     <use style="fill:#1f77b4;stroke:#ffffff;" x="88.438294" xlink:href="#m2ec1d4c209" y="198.294787"/>
     <use style="fill:#1f77b4;stroke:#ffffff;" x="92.477526" xlink:href="#m2ec1d4c209" y="184.606166"/>
     <use style="fill:#1f77b4;stroke:#ffffff;" x="96.59184" xlink:href="#m2ec1d4c209" y="198.447984"/>
     <use style="fill:#1f77b4;stroke:#ffffff;" x="89.892024" xlink:href="#m2ec1d4c209" y="189.783359"/>
     <use style="fill:#1f77b4;stroke:#ffffff;" x="129.076738" xlink:href="#m2ec1d4c209" y="151.904016"/>
     <use style="fill:#1f77b4;stroke:#ffffff;" x="88.58051" xlink:href="#m2ec1d4c209" y="179.499344"/>
     <use style="fill:#1f77b4;stroke:#ffffff;" x="95.933985" xlink:href="#m2ec1d4c209" y="177.587152"/>
     <use style="fill:#1f77b4;stroke:#ffffff;" x="104.959802" xlink:href="#m2ec1d4c209" y="188.475567"/>
     <use style="fill:#1f77b4;stroke:#ffffff;" x="98.966975" xlink:href="#m2ec1d4c209" y="183.128392"/>
     <use style="fill:#1f77b4;stroke:#ffffff;" x="84.795256" xlink:href="#m2ec1d4c209" y="198.113518"/>
     <use style="fill:#1f77b4;stroke:#ffffff;" x="101.576647" xlink:href="#m2ec1d4c209" y="188.676839"/>
     <use style="fill:#1f77b4;stroke:#ffffff;" x="70.824383" xlink:href="#m2ec1d4c209" y="214.334641"/>
     <use style="fill:#1f77b4;stroke:#ffffff;" x="68.581094" xlink:href="#m2ec1d4c209" y="190.118086"/>
     <use style="fill:#1f77b4;stroke:#ffffff;" x="98.946513" xlink:href="#m2ec1d4c209" y="192.379835"/>
     <use style="fill:#1f77b4;stroke:#ffffff;" x="76.910882" xlink:href="#m2ec1d4c209" y="211.585265"/>
     <use style="fill:#1f77b4;stroke:#ffffff;" x="95.670407" xlink:href="#m2ec1d4c209" y="174.310454"/>
     <use style="fill:#1f77b4;stroke:#ffffff;" x="143.397671" xlink:href="#m2ec1d4c209" y="138.064269"/>
     <use style="fill:#1f77b4;stroke:#ffffff;" x="90.267813" xlink:href="#m2ec1d4c209" y="185.134173"/>
     <use style="fill:#1f77b4;stroke:#ffffff;" x="124.206679" xlink:href="#m2ec1d4c209" y="128.157439"/>
     <use style="fill:#1f77b4;stroke:#ffffff;" x="103.733668" xlink:href="#m2ec1d4c209" y="158.161293"/>
     <use style="fill:#1f77b4;stroke:#ffffff;" x="114.655494" xlink:href="#m2ec1d4c209" y="184.98197"/>
     <use style="fill:#1f77b4;stroke:#ffffff;" x="74.177473" xlink:href="#m2ec1d4c209" y="201.025735"/>
     <use style="fill:#1f77b4;stroke:#ffffff;" x="89.916099" xlink:href="#m2ec1d4c209" y="200.48875"/>
     <use style="fill:#1f77b4;stroke:#ffffff;" x="107.726545" xlink:href="#m2ec1d4c209" y="181.03654"/>
     <use style="fill:#1f77b4;stroke:#ffffff;" x="73.185779" xlink:href="#m2ec1d4c209" y="204.943467"/>
     <use style="fill:#1f77b4;stroke:#ffffff;" x="240.953635" xlink:href="#m2ec1d4c209" y="38.028136"/>
     <use style="fill:#1f77b4;stroke:#ffffff;" x="170.989657" xlink:href="#m2ec1d4c209" y="90.777284"/>
     <use style="fill:#1f77b4;stroke:#ffffff;" x="129.236593" xlink:href="#m2ec1d4c209" y="139.267765"/>
     <use style="fill:#1f77b4;stroke:#ffffff;" x="71.694926" xlink:href="#m2ec1d4c209" y="197.770396"/>
     <use style="fill:#1f77b4;stroke:#ffffff;" x="91.311842" xlink:href="#m2ec1d4c209" y="187.018268"/>
     <use style="fill:#1f77b4;stroke:#ffffff;" x="91.714397" xlink:href="#m2ec1d4c209" y="195.908192"/>
     <use style="fill:#1f77b4;stroke:#ffffff;" x="105.671875" xlink:href="#m2ec1d4c209" y="135.654356"/>
     <use style="fill:#1f77b4;stroke:#ffffff;" x="117.886806" xlink:href="#m2ec1d4c209" y="155.427802"/>
     <use style="fill:#1f77b4;stroke:#ffffff;" x="94.65603" xlink:href="#m2ec1d4c209" y="177.251244"/>
     <use style="fill:#1f77b4;stroke:#ffffff;" x="114.903971" xlink:href="#m2ec1d4c209" y="169.776633"/>
     <use style="fill:#1f77b4;stroke:#ffffff;" x="86.80131" xlink:href="#m2ec1d4c209" y="191.521596"/>
     <use style="fill:#1f77b4;stroke:#ffffff;" x="125.234255" xlink:href="#m2ec1d4c209" y="161.050958"/>
     <use style="fill:#1f77b4;stroke:#ffffff;" x="75.559115" xlink:href="#m2ec1d4c209" y="208.587464"/>
     <use style="fill:#1f77b4;stroke:#ffffff;" x="88.820076" xlink:href="#m2ec1d4c209" y="181.595314"/>
     <use style="fill:#1f77b4;stroke:#ffffff;" x="71.793318" xlink:href="#m2ec1d4c209" y="196.526559"/>
     <use style="fill:#1f77b4;stroke:#ffffff;" x="90.10006" xlink:href="#m2ec1d4c209" y="181.678842"/>
     <use style="fill:#1f77b4;stroke:#ffffff;" x="96.620067" xlink:href="#m2ec1d4c209" y="61.592649"/>
    </g>
   </g>
   <g id="matplotlib.axis_1">
    <g id="xtick_1">
     <g id="line2d_1">
      <defs>
       <path d="M 0 0 
L 0 3.5 
" id="m97d3cf1691" style="stroke:#000000;stroke-width:0.8;"/>
      </defs>
      <g>
       <use style="stroke:#000000;stroke-width:0.8;" x="39.449869" xlink:href="#m97d3cf1691" y="246.04"/>
      </g>
     </g>
     <g id="text_1">
      <!-- 0 -->
      <defs>
       <path d="M 31.78125 66.40625 
Q 24.171875 66.40625 20.328125 58.90625 
Q 16.5 51.421875 16.5 36.375 
Q 16.5 21.390625 20.328125 13.890625 
Q 24.171875 6.390625 31.78125 6.390625 
Q 39.453125 6.390625 43.28125 13.890625 
Q 47.125 21.390625 47.125 36.375 
Q 47.125 51.421875 43.28125 58.90625 
Q 39.453125 66.40625 31.78125 66.40625 
z
M 31.78125 74.21875 
Q 44.046875 74.21875 50.515625 64.515625 
Q 56.984375 54.828125 56.984375 36.375 
Q 56.984375 17.96875 50.515625 8.265625 
Q 44.046875 -1.421875 31.78125 -1.421875 
Q 19.53125 -1.421875 13.0625 8.265625 
Q 6.59375 17.96875 6.59375 36.375 
Q 6.59375 54.828125 13.0625 64.515625 
Q 19.53125 74.21875 31.78125 74.21875 
z
" id="DejaVuSans-48"/>
      </defs>
      <g transform="translate(36.268619 260.638438)scale(0.1 -0.1)">
       <use xlink:href="#DejaVuSans-48"/>
      </g>
     </g>
    </g>
    <g id="xtick_2">
     <g id="line2d_2">
      <g>
       <use style="stroke:#000000;stroke-width:0.8;" x="90.098164" xlink:href="#m97d3cf1691" y="246.04"/>
      </g>
     </g>
     <g id="text_2">
      <!-- 2 -->
      <defs>
       <path d="M 19.1875 8.296875 
L 53.609375 8.296875 
L 53.609375 0 
L 7.328125 0 
L 7.328125 8.296875 
Q 12.9375 14.109375 22.625 23.890625 
Q 32.328125 33.6875 34.8125 36.53125 
Q 39.546875 41.84375 41.421875 45.53125 
Q 43.3125 49.21875 43.3125 52.78125 
Q 43.3125 58.59375 39.234375 62.25 
Q 35.15625 65.921875 28.609375 65.921875 
Q 23.96875 65.921875 18.8125 64.3125 
Q 13.671875 62.703125 7.8125 59.421875 
L 7.8125 69.390625 
Q 13.765625 71.78125 18.9375 73 
Q 24.125 74.21875 28.421875 74.21875 
Q 39.75 74.21875 46.484375 68.546875 
Q 53.21875 62.890625 53.21875 53.421875 
Q 53.21875 48.921875 51.53125 44.890625 
Q 49.859375 40.875 45.40625 35.40625 
Q 44.1875 33.984375 37.640625 27.21875 
Q 31.109375 20.453125 19.1875 8.296875 
z
" id="DejaVuSans-50"/>
      </defs>
      <g transform="translate(86.916914 260.638438)scale(0.1 -0.1)">
       <use xlink:href="#DejaVuSans-50"/>
      </g>
     </g>
    </g>
    <g id="xtick_3">
     <g id="line2d_3">
      <g>
       <use style="stroke:#000000;stroke-width:0.8;" x="140.74646" xlink:href="#m97d3cf1691" y="246.04"/>
      </g>
     </g>
     <g id="text_3">
      <!-- 4 -->
      <defs>
       <path d="M 37.796875 64.3125 
L 12.890625 25.390625 
L 37.796875 25.390625 
z
M 35.203125 72.90625 
L 47.609375 72.90625 
L 47.609375 25.390625 
L 58.015625 25.390625 
L 58.015625 17.1875 
L 47.609375 17.1875 
L 47.609375 0 
L 37.796875 0 
L 37.796875 17.1875 
L 4.890625 17.1875 
L 4.890625 26.703125 
z
" id="DejaVuSans-52"/>
      </defs>
      <g transform="translate(137.56521 260.638438)scale(0.1 -0.1)">
       <use xlink:href="#DejaVuSans-52"/>
      </g>
     </g>
    </g>
    <g id="xtick_4">
     <g id="line2d_4">
      <g>
       <use style="stroke:#000000;stroke-width:0.8;" x="191.394755" xlink:href="#m97d3cf1691" y="246.04"/>
      </g>
     </g>
     <g id="text_4">
      <!-- 6 -->
      <defs>
       <path d="M 33.015625 40.375 
Q 26.375 40.375 22.484375 35.828125 
Q 18.609375 31.296875 18.609375 23.390625 
Q 18.609375 15.53125 22.484375 10.953125 
Q 26.375 6.390625 33.015625 6.390625 
Q 39.65625 6.390625 43.53125 10.953125 
Q 47.40625 15.53125 47.40625 23.390625 
Q 47.40625 31.296875 43.53125 35.828125 
Q 39.65625 40.375 33.015625 40.375 
z
M 52.59375 71.296875 
L 52.59375 62.3125 
Q 48.875 64.0625 45.09375 64.984375 
Q 41.3125 65.921875 37.59375 65.921875 
Q 27.828125 65.921875 22.671875 59.328125 
Q 17.53125 52.734375 16.796875 39.40625 
Q 19.671875 43.65625 24.015625 45.921875 
Q 28.375 48.1875 33.59375 48.1875 
Q 44.578125 48.1875 50.953125 41.515625 
Q 57.328125 34.859375 57.328125 23.390625 
Q 57.328125 12.15625 50.6875 5.359375 
Q 44.046875 -1.421875 33.015625 -1.421875 
Q 20.359375 -1.421875 13.671875 8.265625 
Q 6.984375 17.96875 6.984375 36.375 
Q 6.984375 53.65625 15.1875 63.9375 
Q 23.390625 74.21875 37.203125 74.21875 
Q 40.921875 74.21875 44.703125 73.484375 
Q 48.484375 72.75 52.59375 71.296875 
z
" id="DejaVuSans-54"/>
      </defs>
      <g transform="translate(188.213505 260.638438)scale(0.1 -0.1)">
       <use xlink:href="#DejaVuSans-54"/>
      </g>
     </g>
    </g>
    <g id="xtick_5">
     <g id="line2d_5">
      <g>
       <use style="stroke:#000000;stroke-width:0.8;" x="242.04305" xlink:href="#m97d3cf1691" y="246.04"/>
      </g>
     </g>
     <g id="text_5">
      <!-- 8 -->
      <defs>
       <path d="M 31.78125 34.625 
Q 24.75 34.625 20.71875 30.859375 
Q 16.703125 27.09375 16.703125 20.515625 
Q 16.703125 13.921875 20.71875 10.15625 
Q 24.75 6.390625 31.78125 6.390625 
Q 38.8125 6.390625 42.859375 10.171875 
Q 46.921875 13.96875 46.921875 20.515625 
Q 46.921875 27.09375 42.890625 30.859375 
Q 38.875 34.625 31.78125 34.625 
z
M 21.921875 38.8125 
Q 15.578125 40.375 12.03125 44.71875 
Q 8.5 49.078125 8.5 55.328125 
Q 8.5 64.0625 14.71875 69.140625 
Q 20.953125 74.21875 31.78125 74.21875 
Q 42.671875 74.21875 48.875 69.140625 
Q 55.078125 64.0625 55.078125 55.328125 
Q 55.078125 49.078125 51.53125 44.71875 
Q 48 40.375 41.703125 38.8125 
Q 48.828125 37.15625 52.796875 32.3125 
Q 56.78125 27.484375 56.78125 20.515625 
Q 56.78125 9.90625 50.3125 4.234375 
Q 43.84375 -1.421875 31.78125 -1.421875 
Q 19.734375 -1.421875 13.25 4.234375 
Q 6.78125 9.90625 6.78125 20.515625 
Q 6.78125 27.484375 10.78125 32.3125 
Q 14.796875 37.15625 21.921875 38.8125 
z
M 18.3125 54.390625 
Q 18.3125 48.734375 21.84375 45.5625 
Q 25.390625 42.390625 31.78125 42.390625 
Q 38.140625 42.390625 41.71875 45.5625 
Q 45.3125 48.734375 45.3125 54.390625 
Q 45.3125 60.0625 41.71875 63.234375 
Q 38.140625 66.40625 31.78125 66.40625 
Q 25.390625 66.40625 21.84375 63.234375 
Q 18.3125 60.0625 18.3125 54.390625 
z
" id="DejaVuSans-56"/>
      </defs>
      <g transform="translate(238.8618 260.638438)scale(0.1 -0.1)">
       <use xlink:href="#DejaVuSans-56"/>
      </g>
     </g>
    </g>
    <g id="text_6">
     <!-- Passive -->
     <defs>
      <path d="M 19.671875 64.796875 
L 19.671875 37.40625 
L 32.078125 37.40625 
Q 38.96875 37.40625 42.71875 40.96875 
Q 46.484375 44.53125 46.484375 51.125 
Q 46.484375 57.671875 42.71875 61.234375 
Q 38.96875 64.796875 32.078125 64.796875 
z
M 9.8125 72.90625 
L 32.078125 72.90625 
Q 44.34375 72.90625 50.609375 67.359375 
Q 56.890625 61.8125 56.890625 51.125 
Q 56.890625 40.328125 50.609375 34.8125 
Q 44.34375 29.296875 32.078125 29.296875 
L 19.671875 29.296875 
L 19.671875 0 
L 9.8125 0 
z
" id="DejaVuSans-80"/>
      <path d="M 34.28125 27.484375 
Q 23.390625 27.484375 19.1875 25 
Q 14.984375 22.515625 14.984375 16.5 
Q 14.984375 11.71875 18.140625 8.90625 
Q 21.296875 6.109375 26.703125 6.109375 
Q 34.1875 6.109375 38.703125 11.40625 
Q 43.21875 16.703125 43.21875 25.484375 
L 43.21875 27.484375 
z
M 52.203125 31.203125 
L 52.203125 0 
L 43.21875 0 
L 43.21875 8.296875 
Q 40.140625 3.328125 35.546875 0.953125 
Q 30.953125 -1.421875 24.3125 -1.421875 
Q 15.921875 -1.421875 10.953125 3.296875 
Q 6 8.015625 6 15.921875 
Q 6 25.140625 12.171875 29.828125 
Q 18.359375 34.515625 30.609375 34.515625 
L 43.21875 34.515625 
L 43.21875 35.40625 
Q 43.21875 41.609375 39.140625 45 
Q 35.0625 48.390625 27.6875 48.390625 
Q 23 48.390625 18.546875 47.265625 
Q 14.109375 46.140625 10.015625 43.890625 
L 10.015625 52.203125 
Q 14.9375 54.109375 19.578125 55.046875 
Q 24.21875 56 28.609375 56 
Q 40.484375 56 46.34375 49.84375 
Q 52.203125 43.703125 52.203125 31.203125 
z
" id="DejaVuSans-97"/>
      <path d="M 44.28125 53.078125 
L 44.28125 44.578125 
Q 40.484375 46.53125 36.375 47.5 
Q 32.28125 48.484375 27.875 48.484375 
Q 21.1875 48.484375 17.84375 46.4375 
Q 14.5 44.390625 14.5 40.28125 
Q 14.5 37.15625 16.890625 35.375 
Q 19.28125 33.59375 26.515625 31.984375 
L 29.59375 31.296875 
Q 39.15625 29.25 43.1875 25.515625 
Q 47.21875 21.78125 47.21875 15.09375 
Q 47.21875 7.46875 41.1875 3.015625 
Q 35.15625 -1.421875 24.609375 -1.421875 
Q 20.21875 -1.421875 15.453125 -0.5625 
Q 10.6875 0.296875 5.421875 2 
L 5.421875 11.28125 
Q 10.40625 8.6875 15.234375 7.390625 
Q 20.0625 6.109375 24.8125 6.109375 
Q 31.15625 6.109375 34.5625 8.28125 
Q 37.984375 10.453125 37.984375 14.40625 
Q 37.984375 18.0625 35.515625 20.015625 
Q 33.0625 21.96875 24.703125 23.78125 
L 21.578125 24.515625 
Q 13.234375 26.265625 9.515625 29.90625 
Q 5.8125 33.546875 5.8125 39.890625 
Q 5.8125 47.609375 11.28125 51.796875 
Q 16.75 56 26.8125 56 
Q 31.78125 56 36.171875 55.265625 
Q 40.578125 54.546875 44.28125 53.078125 
z
" id="DejaVuSans-115"/>
      <path d="M 9.421875 54.6875 
L 18.40625 54.6875 
L 18.40625 0 
L 9.421875 0 
z
M 9.421875 75.984375 
L 18.40625 75.984375 
L 18.40625 64.59375 
L 9.421875 64.59375 
z
" id="DejaVuSans-105"/>
      <path d="M 2.984375 54.6875 
L 12.5 54.6875 
L 29.59375 8.796875 
L 46.6875 54.6875 
L 56.203125 54.6875 
L 35.6875 0 
L 23.484375 0 
z
" id="DejaVuSans-118"/>
      <path d="M 56.203125 29.59375 
L 56.203125 25.203125 
L 14.890625 25.203125 
Q 15.484375 15.921875 20.484375 11.0625 
Q 25.484375 6.203125 34.421875 6.203125 
Q 39.59375 6.203125 44.453125 7.46875 
Q 49.3125 8.734375 54.109375 11.28125 
L 54.109375 2.78125 
Q 49.265625 0.734375 44.1875 -0.34375 
Q 39.109375 -1.421875 33.890625 -1.421875 
Q 20.796875 -1.421875 13.15625 6.1875 
Q 5.515625 13.8125 5.515625 26.8125 
Q 5.515625 40.234375 12.765625 48.109375 
Q 20.015625 56 32.328125 56 
Q 43.359375 56 49.78125 48.890625 
Q 56.203125 41.796875 56.203125 29.59375 
z
M 47.21875 32.234375 
Q 47.125 39.59375 43.09375 43.984375 
Q 39.0625 48.390625 32.421875 48.390625 
Q 24.90625 48.390625 20.390625 44.140625 
Q 15.875 39.890625 15.1875 32.171875 
z
" id="DejaVuSans-101"/>
     </defs>
     <g transform="translate(127.879435 274.316562)scale(0.1 -0.1)">
      <use xlink:href="#DejaVuSans-80"/>
      <use x="60.240234" xlink:href="#DejaVuSans-97"/>
      <use x="121.519531" xlink:href="#DejaVuSans-115"/>
      <use x="173.619141" xlink:href="#DejaVuSans-115"/>
      <use x="225.71875" xlink:href="#DejaVuSans-105"/>
      <use x="253.501953" xlink:href="#DejaVuSans-118"/>
      <use x="312.681641" xlink:href="#DejaVuSans-101"/>
     </g>
    </g>
   </g>
   <g id="matplotlib.axis_2">
    <g id="ytick_1">
     <g id="line2d_6">
      <defs>
       <path d="M 0 0 
L -3.5 0 
" id="m0287622f74" style="stroke:#000000;stroke-width:0.8;"/>
      </defs>
      <g>
       <use style="stroke:#000000;stroke-width:0.8;" x="38.27" xlink:href="#m0287622f74" y="245.172768"/>
      </g>
     </g>
     <g id="text_7">
      <!-- 0 -->
      <g transform="translate(24.9075 248.971986)scale(0.1 -0.1)">
       <use xlink:href="#DejaVuSans-48"/>
      </g>
     </g>
    </g>
    <g id="ytick_2">
     <g id="line2d_7">
      <g>
       <use style="stroke:#000000;stroke-width:0.8;" x="38.27" xlink:href="#m0287622f74" y="219.659864"/>
      </g>
     </g>
     <g id="text_8">
      <!-- 1 -->
      <defs>
       <path d="M 12.40625 8.296875 
L 28.515625 8.296875 
L 28.515625 63.921875 
L 10.984375 60.40625 
L 10.984375 69.390625 
L 28.421875 72.90625 
L 38.28125 72.90625 
L 38.28125 8.296875 
L 54.390625 8.296875 
L 54.390625 0 
L 12.40625 0 
z
" id="DejaVuSans-49"/>
      </defs>
      <g transform="translate(24.9075 223.459082)scale(0.1 -0.1)">
       <use xlink:href="#DejaVuSans-49"/>
      </g>
     </g>
    </g>
    <g id="ytick_3">
     <g id="line2d_8">
      <g>
       <use style="stroke:#000000;stroke-width:0.8;" x="38.27" xlink:href="#m0287622f74" y="194.146959"/>
      </g>
     </g>
     <g id="text_9">
      <!-- 2 -->
      <g transform="translate(24.9075 197.946178)scale(0.1 -0.1)">
       <use xlink:href="#DejaVuSans-50"/>
      </g>
     </g>
    </g>
    <g id="ytick_4">
     <g id="line2d_9">
      <g>
       <use style="stroke:#000000;stroke-width:0.8;" x="38.27" xlink:href="#m0287622f74" y="168.634055"/>
      </g>
     </g>
     <g id="text_10">
      <!-- 3 -->
      <defs>
       <path d="M 40.578125 39.3125 
Q 47.65625 37.796875 51.625 33 
Q 55.609375 28.21875 55.609375 21.1875 
Q 55.609375 10.40625 48.1875 4.484375 
Q 40.765625 -1.421875 27.09375 -1.421875 
Q 22.515625 -1.421875 17.65625 -0.515625 
Q 12.796875 0.390625 7.625 2.203125 
L 7.625 11.71875 
Q 11.71875 9.328125 16.59375 8.109375 
Q 21.484375 6.890625 26.8125 6.890625 
Q 36.078125 6.890625 40.9375 10.546875 
Q 45.796875 14.203125 45.796875 21.1875 
Q 45.796875 27.640625 41.28125 31.265625 
Q 36.765625 34.90625 28.71875 34.90625 
L 20.21875 34.90625 
L 20.21875 43.015625 
L 29.109375 43.015625 
Q 36.375 43.015625 40.234375 45.921875 
Q 44.09375 48.828125 44.09375 54.296875 
Q 44.09375 59.90625 40.109375 62.90625 
Q 36.140625 65.921875 28.71875 65.921875 
Q 24.65625 65.921875 20.015625 65.03125 
Q 15.375 64.15625 9.8125 62.3125 
L 9.8125 71.09375 
Q 15.4375 72.65625 20.34375 73.4375 
Q 25.25 74.21875 29.59375 74.21875 
Q 40.828125 74.21875 47.359375 69.109375 
Q 53.90625 64.015625 53.90625 55.328125 
Q 53.90625 49.265625 50.4375 45.09375 
Q 46.96875 40.921875 40.578125 39.3125 
z
" id="DejaVuSans-51"/>
      </defs>
      <g transform="translate(24.9075 172.433274)scale(0.1 -0.1)">
       <use xlink:href="#DejaVuSans-51"/>
      </g>
     </g>
    </g>
    <g id="ytick_5">
     <g id="line2d_10">
      <g>
       <use style="stroke:#000000;stroke-width:0.8;" x="38.27" xlink:href="#m0287622f74" y="143.121151"/>
      </g>
     </g>
     <g id="text_11">
      <!-- 4 -->
      <g transform="translate(24.9075 146.92037)scale(0.1 -0.1)">
       <use xlink:href="#DejaVuSans-52"/>
      </g>
     </g>
    </g>
    <g id="ytick_6">
     <g id="line2d_11">
      <g>
       <use style="stroke:#000000;stroke-width:0.8;" x="38.27" xlink:href="#m0287622f74" y="117.608247"/>
      </g>
     </g>
     <g id="text_12">
      <!-- 5 -->
      <defs>
       <path d="M 10.796875 72.90625 
L 49.515625 72.90625 
L 49.515625 64.59375 
L 19.828125 64.59375 
L 19.828125 46.734375 
Q 21.96875 47.46875 24.109375 47.828125 
Q 26.265625 48.1875 28.421875 48.1875 
Q 40.625 48.1875 47.75 41.5 
Q 54.890625 34.8125 54.890625 23.390625 
Q 54.890625 11.625 47.5625 5.09375 
Q 40.234375 -1.421875 26.90625 -1.421875 
Q 22.3125 -1.421875 17.546875 -0.640625 
Q 12.796875 0.140625 7.71875 1.703125 
L 7.71875 11.625 
Q 12.109375 9.234375 16.796875 8.0625 
Q 21.484375 6.890625 26.703125 6.890625 
Q 35.15625 6.890625 40.078125 11.328125 
Q 45.015625 15.765625 45.015625 23.390625 
Q 45.015625 31 40.078125 35.4375 
Q 35.15625 39.890625 26.703125 39.890625 
Q 22.75 39.890625 18.8125 39.015625 
Q 14.890625 38.140625 10.796875 36.28125 
z
" id="DejaVuSans-53"/>
      </defs>
      <g transform="translate(24.9075 121.407466)scale(0.1 -0.1)">
       <use xlink:href="#DejaVuSans-53"/>
      </g>
     </g>
    </g>
    <g id="ytick_7">
     <g id="line2d_12">
      <g>
       <use style="stroke:#000000;stroke-width:0.8;" x="38.27" xlink:href="#m0287622f74" y="92.095343"/>
      </g>
     </g>
     <g id="text_13">
      <!-- 6 -->
      <g transform="translate(24.9075 95.894562)scale(0.1 -0.1)">
       <use xlink:href="#DejaVuSans-54"/>
      </g>
     </g>
    </g>
    <g id="ytick_8">
     <g id="line2d_13">
      <g>
       <use style="stroke:#000000;stroke-width:0.8;" x="38.27" xlink:href="#m0287622f74" y="66.582439"/>
      </g>
     </g>
     <g id="text_14">
      <!-- 7 -->
      <defs>
       <path d="M 8.203125 72.90625 
L 55.078125 72.90625 
L 55.078125 68.703125 
L 28.609375 0 
L 18.3125 0 
L 43.21875 64.59375 
L 8.203125 64.59375 
z
" id="DejaVuSans-55"/>
      </defs>
      <g transform="translate(24.9075 70.381658)scale(0.1 -0.1)">
       <use xlink:href="#DejaVuSans-55"/>
      </g>
     </g>
    </g>
    <g id="ytick_9">
     <g id="line2d_14">
      <g>
       <use style="stroke:#000000;stroke-width:0.8;" x="38.27" xlink:href="#m0287622f74" y="41.069535"/>
      </g>
     </g>
     <g id="text_15">
      <!-- 8 -->
      <g transform="translate(24.9075 44.868754)scale(0.1 -0.1)">
       <use xlink:href="#DejaVuSans-56"/>
      </g>
     </g>
    </g>
    <g id="text_16">
     <!-- Active -->
     <defs>
      <path d="M 34.1875 63.1875 
L 20.796875 26.90625 
L 47.609375 26.90625 
z
M 28.609375 72.90625 
L 39.796875 72.90625 
L 67.578125 0 
L 57.328125 0 
L 50.6875 18.703125 
L 17.828125 18.703125 
L 11.1875 0 
L 0.78125 0 
z
" id="DejaVuSans-65"/>
      <path d="M 48.78125 52.59375 
L 48.78125 44.1875 
Q 44.96875 46.296875 41.140625 47.34375 
Q 37.3125 48.390625 33.40625 48.390625 
Q 24.65625 48.390625 19.8125 42.84375 
Q 14.984375 37.3125 14.984375 27.296875 
Q 14.984375 17.28125 19.8125 11.734375 
Q 24.65625 6.203125 33.40625 6.203125 
Q 37.3125 6.203125 41.140625 7.25 
Q 44.96875 8.296875 48.78125 10.40625 
L 48.78125 2.09375 
Q 45.015625 0.34375 40.984375 -0.53125 
Q 36.96875 -1.421875 32.421875 -1.421875 
Q 20.0625 -1.421875 12.78125 6.34375 
Q 5.515625 14.109375 5.515625 27.296875 
Q 5.515625 40.671875 12.859375 48.328125 
Q 20.21875 56 33.015625 56 
Q 37.15625 56 41.109375 55.140625 
Q 45.0625 54.296875 48.78125 52.59375 
z
" id="DejaVuSans-99"/>
      <path d="M 18.3125 70.21875 
L 18.3125 54.6875 
L 36.8125 54.6875 
L 36.8125 47.703125 
L 18.3125 47.703125 
L 18.3125 18.015625 
Q 18.3125 11.328125 20.140625 9.421875 
Q 21.96875 7.515625 27.59375 7.515625 
L 36.8125 7.515625 
L 36.8125 0 
L 27.59375 0 
Q 17.1875 0 13.234375 3.875 
Q 9.28125 7.765625 9.28125 18.015625 
L 9.28125 47.703125 
L 2.6875 47.703125 
L 2.6875 54.6875 
L 9.28125 54.6875 
L 9.28125 70.21875 
z
" id="DejaVuSans-116"/>
     </defs>
     <g transform="translate(18.827813 152.481906)rotate(-90)scale(0.1 -0.1)">
      <use xlink:href="#DejaVuSans-65"/>
      <use x="68.392578" xlink:href="#DejaVuSans-99"/>
      <use x="123.373047" xlink:href="#DejaVuSans-116"/>
      <use x="162.582031" xlink:href="#DejaVuSans-105"/>
      <use x="190.365234" xlink:href="#DejaVuSans-118"/>
      <use x="249.544922" xlink:href="#DejaVuSans-101"/>
     </g>
    </g>
   </g>
   <g id="line2d_15">
    <path clip-path="url(#p0ec665507a)" d="M 48.434938 236.120727 
L 245.061948 38.028136 
" style="fill:none;stroke:#000000;stroke-dasharray:5.55,2.4;stroke-dashoffset:0;stroke-width:1.5;"/>
   </g>
   <g id="patch_3">
    <path d="M 38.27 246.04 
L 38.27 27.816 
" style="fill:none;stroke:#000000;stroke-linecap:square;stroke-linejoin:miter;stroke-width:0.8;"/>
   </g>
   <g id="patch_4">
    <path d="M 38.27 246.04 
L 254.909183 246.04 
" style="fill:none;stroke:#000000;stroke-linecap:square;stroke-linejoin:miter;stroke-width:0.8;"/>
   </g>
   <g id="text_17">
    <!-- Target vs. Reference Discriminability ($d'$) -->
    <defs>
     <path d="M -0.296875 72.90625 
L 61.375 72.90625 
L 61.375 64.59375 
L 35.5 64.59375 
L 35.5 0 
L 25.59375 0 
L 25.59375 64.59375 
L -0.296875 64.59375 
z
" id="DejaVuSans-84"/>
     <path d="M 41.109375 46.296875 
Q 39.59375 47.171875 37.8125 47.578125 
Q 36.03125 48 33.890625 48 
Q 26.265625 48 22.1875 43.046875 
Q 18.109375 38.09375 18.109375 28.8125 
L 18.109375 0 
L 9.078125 0 
L 9.078125 54.6875 
L 18.109375 54.6875 
L 18.109375 46.1875 
Q 20.953125 51.171875 25.484375 53.578125 
Q 30.03125 56 36.53125 56 
Q 37.453125 56 38.578125 55.875 
Q 39.703125 55.765625 41.0625 55.515625 
z
" id="DejaVuSans-114"/>
     <path d="M 45.40625 27.984375 
Q 45.40625 37.75 41.375 43.109375 
Q 37.359375 48.484375 30.078125 48.484375 
Q 22.859375 48.484375 18.828125 43.109375 
Q 14.796875 37.75 14.796875 27.984375 
Q 14.796875 18.265625 18.828125 12.890625 
Q 22.859375 7.515625 30.078125 7.515625 
Q 37.359375 7.515625 41.375 12.890625 
Q 45.40625 18.265625 45.40625 27.984375 
z
M 54.390625 6.78125 
Q 54.390625 -7.171875 48.1875 -13.984375 
Q 42 -20.796875 29.203125 -20.796875 
Q 24.46875 -20.796875 20.265625 -20.09375 
Q 16.0625 -19.390625 12.109375 -17.921875 
L 12.109375 -9.1875 
Q 16.0625 -11.328125 19.921875 -12.34375 
Q 23.78125 -13.375 27.78125 -13.375 
Q 36.625 -13.375 41.015625 -8.765625 
Q 45.40625 -4.15625 45.40625 5.171875 
L 45.40625 9.625 
Q 42.625 4.78125 38.28125 2.390625 
Q 33.9375 0 27.875 0 
Q 17.828125 0 11.671875 7.65625 
Q 5.515625 15.328125 5.515625 27.984375 
Q 5.515625 40.671875 11.671875 48.328125 
Q 17.828125 56 27.875 56 
Q 33.9375 56 38.28125 53.609375 
Q 42.625 51.21875 45.40625 46.390625 
L 45.40625 54.6875 
L 54.390625 54.6875 
z
" id="DejaVuSans-103"/>
     <path id="DejaVuSans-32"/>
     <path d="M 10.6875 12.40625 
L 21 12.40625 
L 21 0 
L 10.6875 0 
z
" id="DejaVuSans-46"/>
     <path d="M 44.390625 34.1875 
Q 47.5625 33.109375 50.5625 29.59375 
Q 53.5625 26.078125 56.59375 19.921875 
L 66.609375 0 
L 56 0 
L 46.6875 18.703125 
Q 43.0625 26.03125 39.671875 28.421875 
Q 36.28125 30.8125 30.421875 30.8125 
L 19.671875 30.8125 
L 19.671875 0 
L 9.8125 0 
L 9.8125 72.90625 
L 32.078125 72.90625 
Q 44.578125 72.90625 50.734375 67.671875 
Q 56.890625 62.453125 56.890625 51.90625 
Q 56.890625 45.015625 53.6875 40.46875 
Q 50.484375 35.9375 44.390625 34.1875 
z
M 19.671875 64.796875 
L 19.671875 38.921875 
L 32.078125 38.921875 
Q 39.203125 38.921875 42.84375 42.21875 
Q 46.484375 45.515625 46.484375 51.90625 
Q 46.484375 58.296875 42.84375 61.546875 
Q 39.203125 64.796875 32.078125 64.796875 
z
" id="DejaVuSans-82"/>
     <path d="M 37.109375 75.984375 
L 37.109375 68.5 
L 28.515625 68.5 
Q 23.6875 68.5 21.796875 66.546875 
Q 19.921875 64.59375 19.921875 59.515625 
L 19.921875 54.6875 
L 34.71875 54.6875 
L 34.71875 47.703125 
L 19.921875 47.703125 
L 19.921875 0 
L 10.890625 0 
L 10.890625 47.703125 
L 2.296875 47.703125 
L 2.296875 54.6875 
L 10.890625 54.6875 
L 10.890625 58.5 
Q 10.890625 67.625 15.140625 71.796875 
Q 19.390625 75.984375 28.609375 75.984375 
z
" id="DejaVuSans-102"/>
     <path d="M 54.890625 33.015625 
L 54.890625 0 
L 45.90625 0 
L 45.90625 32.71875 
Q 45.90625 40.484375 42.875 44.328125 
Q 39.84375 48.1875 33.796875 48.1875 
Q 26.515625 48.1875 22.3125 43.546875 
Q 18.109375 38.921875 18.109375 30.90625 
L 18.109375 0 
L 9.078125 0 
L 9.078125 54.6875 
L 18.109375 54.6875 
L 18.109375 46.1875 
Q 21.34375 51.125 25.703125 53.5625 
Q 30.078125 56 35.796875 56 
Q 45.21875 56 50.046875 50.171875 
Q 54.890625 44.34375 54.890625 33.015625 
z
" id="DejaVuSans-110"/>
     <path d="M 19.671875 64.796875 
L 19.671875 8.109375 
L 31.59375 8.109375 
Q 46.6875 8.109375 53.6875 14.9375 
Q 60.6875 21.78125 60.6875 36.53125 
Q 60.6875 51.171875 53.6875 57.984375 
Q 46.6875 64.796875 31.59375 64.796875 
z
M 9.8125 72.90625 
L 30.078125 72.90625 
Q 51.265625 72.90625 61.171875 64.09375 
Q 71.09375 55.28125 71.09375 36.53125 
Q 71.09375 17.671875 61.125 8.828125 
Q 51.171875 0 30.078125 0 
L 9.8125 0 
z
" id="DejaVuSans-68"/>
     <path d="M 52 44.1875 
Q 55.375 50.25 60.0625 53.125 
Q 64.75 56 71.09375 56 
Q 79.640625 56 84.28125 50.015625 
Q 88.921875 44.046875 88.921875 33.015625 
L 88.921875 0 
L 79.890625 0 
L 79.890625 32.71875 
Q 79.890625 40.578125 77.09375 44.375 
Q 74.3125 48.1875 68.609375 48.1875 
Q 61.625 48.1875 57.5625 43.546875 
Q 53.515625 38.921875 53.515625 30.90625 
L 53.515625 0 
L 44.484375 0 
L 44.484375 32.71875 
Q 44.484375 40.625 41.703125 44.40625 
Q 38.921875 48.1875 33.109375 48.1875 
Q 26.21875 48.1875 22.15625 43.53125 
Q 18.109375 38.875 18.109375 30.90625 
L 18.109375 0 
L 9.078125 0 
L 9.078125 54.6875 
L 18.109375 54.6875 
L 18.109375 46.1875 
Q 21.1875 51.21875 25.484375 53.609375 
Q 29.78125 56 35.6875 56 
Q 41.65625 56 45.828125 52.96875 
Q 50 49.953125 52 44.1875 
z
" id="DejaVuSans-109"/>
     <path d="M 48.6875 27.296875 
Q 48.6875 37.203125 44.609375 42.84375 
Q 40.53125 48.484375 33.40625 48.484375 
Q 26.265625 48.484375 22.1875 42.84375 
Q 18.109375 37.203125 18.109375 27.296875 
Q 18.109375 17.390625 22.1875 11.75 
Q 26.265625 6.109375 33.40625 6.109375 
Q 40.53125 6.109375 44.609375 11.75 
Q 48.6875 17.390625 48.6875 27.296875 
z
M 18.109375 46.390625 
Q 20.953125 51.265625 25.265625 53.625 
Q 29.59375 56 35.59375 56 
Q 45.5625 56 51.78125 48.09375 
Q 58.015625 40.1875 58.015625 27.296875 
Q 58.015625 14.40625 51.78125 6.484375 
Q 45.5625 -1.421875 35.59375 -1.421875 
Q 29.59375 -1.421875 25.265625 0.953125 
Q 20.953125 3.328125 18.109375 8.203125 
L 18.109375 0 
L 9.078125 0 
L 9.078125 75.984375 
L 18.109375 75.984375 
z
" id="DejaVuSans-98"/>
     <path d="M 9.421875 75.984375 
L 18.40625 75.984375 
L 18.40625 0 
L 9.421875 0 
z
" id="DejaVuSans-108"/>
     <path d="M 32.171875 -5.078125 
Q 28.375 -14.84375 24.75 -17.8125 
Q 21.140625 -20.796875 15.09375 -20.796875 
L 7.90625 -20.796875 
L 7.90625 -13.28125 
L 13.1875 -13.28125 
Q 16.890625 -13.28125 18.9375 -11.515625 
Q 21 -9.765625 23.484375 -3.21875 
L 25.09375 0.875 
L 2.984375 54.6875 
L 12.5 54.6875 
L 29.59375 11.921875 
L 46.6875 54.6875 
L 56.203125 54.6875 
z
" id="DejaVuSans-121"/>
     <path d="M 31 75.875 
Q 24.46875 64.65625 21.28125 53.65625 
Q 18.109375 42.671875 18.109375 31.390625 
Q 18.109375 20.125 21.3125 9.0625 
Q 24.515625 -2 31 -13.1875 
L 23.1875 -13.1875 
Q 15.875 -1.703125 12.234375 9.375 
Q 8.59375 20.453125 8.59375 31.390625 
Q 8.59375 42.28125 12.203125 53.3125 
Q 15.828125 64.359375 23.1875 75.875 
z
" id="DejaVuSans-40"/>
     <path d="M 41.796875 8.203125 
Q 38.1875 3.46875 33.25 1.015625 
Q 28.328125 -1.421875 22.3125 -1.421875 
Q 14.109375 -1.421875 9.34375 4.171875 
Q 4.59375 9.765625 4.59375 19.484375 
Q 4.59375 27.59375 7.46875 34.9375 
Q 10.359375 42.28125 15.828125 48.09375 
Q 19.4375 51.953125 23.96875 53.96875 
Q 28.515625 56 33.5 56 
Q 38.765625 56 42.796875 53.453125 
Q 46.828125 50.921875 49.03125 46.1875 
L 54.890625 75.984375 
L 63.921875 75.984375 
L 49.125 0 
L 40.09375 0 
z
M 13.921875 21.09375 
Q 13.921875 14.015625 17.109375 10.0625 
Q 20.3125 6.109375 25.984375 6.109375 
Q 30.171875 6.109375 33.765625 8.125 
Q 37.359375 10.15625 40.09375 14.109375 
Q 42.96875 18.21875 44.625 23.578125 
Q 46.296875 28.953125 46.296875 34.1875 
Q 46.296875 40.96875 43.09375 44.765625 
Q 39.890625 48.578125 34.28125 48.578125 
Q 30.03125 48.578125 26.359375 46.578125 
Q 22.703125 44.578125 20.125 40.828125 
Q 17.28125 36.765625 15.59375 31.390625 
Q 13.921875 26.03125 13.921875 21.09375 
z
" id="DejaVuSans-Oblique-100"/>
     <path d="M 3.515625 5.421875 
Q 2.875 5.609375 2.875 6.390625 
L 15.09375 51.8125 
Q 15.671875 53.65625 17.078125 54.78125 
Q 18.5 55.90625 20.3125 55.90625 
Q 22.65625 55.90625 24.4375 54.359375 
Q 26.21875 52.828125 26.21875 50.484375 
Q 26.21875 49.46875 25.6875 48.1875 
L 7.625 4.984375 
Q 7.28125 4.296875 6.6875 4.296875 
Q 6.15625 4.296875 5 4.78125 
Q 3.859375 5.28125 3.515625 5.421875 
z
" id="Cmsy10-48"/>
     <path d="M 8.015625 75.875 
L 15.828125 75.875 
Q 23.140625 64.359375 26.78125 53.3125 
Q 30.421875 42.28125 30.421875 31.390625 
Q 30.421875 20.453125 26.78125 9.375 
Q 23.140625 -1.703125 15.828125 -13.1875 
L 8.015625 -13.1875 
Q 14.5 -2 17.703125 9.0625 
Q 20.90625 20.125 20.90625 31.390625 
Q 20.90625 42.671875 17.703125 53.65625 
Q 14.5 64.65625 8.015625 75.875 
z
" id="DejaVuSans-41"/>
    </defs>
    <g transform="translate(23.289592 21.816)scale(0.12 -0.12)">
     <use transform="translate(0 0.584375)" xlink:href="#DejaVuSans-84"/>
     <use transform="translate(61.083984 0.584375)" xlink:href="#DejaVuSans-97"/>
     <use transform="translate(122.363281 0.584375)" xlink:href="#DejaVuSans-114"/>
     <use transform="translate(163.476562 0.584375)" xlink:href="#DejaVuSans-103"/>
     <use transform="translate(226.953125 0.584375)" xlink:href="#DejaVuSans-101"/>
     <use transform="translate(288.476562 0.584375)" xlink:href="#DejaVuSans-116"/>
     <use transform="translate(327.685547 0.584375)" xlink:href="#DejaVuSans-32"/>
     <use transform="translate(359.472656 0.584375)" xlink:href="#DejaVuSans-118"/>
     <use transform="translate(418.652344 0.584375)" xlink:href="#DejaVuSans-115"/>
     <use transform="translate(470.751953 0.584375)" xlink:href="#DejaVuSans-46"/>
     <use transform="translate(502.539062 0.584375)" xlink:href="#DejaVuSans-32"/>
     <use transform="translate(534.326172 0.584375)" xlink:href="#DejaVuSans-82"/>
     <use transform="translate(603.808594 0.584375)" xlink:href="#DejaVuSans-101"/>
     <use transform="translate(665.332031 0.584375)" xlink:href="#DejaVuSans-102"/>
     <use transform="translate(700.537109 0.584375)" xlink:href="#DejaVuSans-101"/>
     <use transform="translate(762.060547 0.584375)" xlink:href="#DejaVuSans-114"/>
     <use transform="translate(803.173828 0.584375)" xlink:href="#DejaVuSans-101"/>
     <use transform="translate(864.697266 0.584375)" xlink:href="#DejaVuSans-110"/>
     <use transform="translate(928.076172 0.584375)" xlink:href="#DejaVuSans-99"/>
     <use transform="translate(983.056641 0.584375)" xlink:href="#DejaVuSans-101"/>
     <use transform="translate(1044.580078 0.584375)" xlink:href="#DejaVuSans-32"/>
     <use transform="translate(1076.367188 0.584375)" xlink:href="#DejaVuSans-68"/>
     <use transform="translate(1153.369141 0.584375)" xlink:href="#DejaVuSans-105"/>
     <use transform="translate(1181.152344 0.584375)" xlink:href="#DejaVuSans-115"/>
     <use transform="translate(1233.251953 0.584375)" xlink:href="#DejaVuSans-99"/>
     <use transform="translate(1288.232422 0.584375)" xlink:href="#DejaVuSans-114"/>
     <use transform="translate(1329.345703 0.584375)" xlink:href="#DejaVuSans-105"/>
     <use transform="translate(1357.128906 0.584375)" xlink:href="#DejaVuSans-109"/>
     <use transform="translate(1454.541016 0.584375)" xlink:href="#DejaVuSans-105"/>
     <use transform="translate(1482.324219 0.584375)" xlink:href="#DejaVuSans-110"/>
     <use transform="translate(1545.703125 0.584375)" xlink:href="#DejaVuSans-97"/>
     <use transform="translate(1606.982422 0.584375)" xlink:href="#DejaVuSans-98"/>
     <use transform="translate(1670.458984 0.584375)" xlink:href="#DejaVuSans-105"/>
     <use transform="translate(1698.242188 0.584375)" xlink:href="#DejaVuSans-108"/>
     <use transform="translate(1726.025391 0.584375)" xlink:href="#DejaVuSans-105"/>
     <use transform="translate(1753.808594 0.584375)" xlink:href="#DejaVuSans-116"/>
     <use transform="translate(1793.017578 0.584375)" xlink:href="#DejaVuSans-121"/>
     <use transform="translate(1852.197266 0.584375)" xlink:href="#DejaVuSans-32"/>
     <use transform="translate(1883.984375 0.584375)" xlink:href="#DejaVuSans-40"/>
     <use transform="translate(1922.998047 0.584375)" xlink:href="#DejaVuSans-Oblique-100"/>
     <use transform="translate(1993.922318 38.865625)scale(0.7)" xlink:href="#Cmsy10-48"/>
     <use transform="translate(2015.899857 0.584375)" xlink:href="#DejaVuSans-41"/>
    </g>
   </g>
  </g>
  <g id="axes_2">
   <g id="patch_5">
    <path d="M 346.040817 246.04 
L 562.68 246.04 
L 562.68 27.816 
L 346.040817 27.816 
z
" style="fill:#ffffff;"/>
   </g>
   <g id="PathCollection_2">
    <defs>
     <path d="M 0 3 
C 0.795609 3 1.55874 2.683901 2.12132 2.12132 
C 2.683901 1.55874 3 0.795609 3 0 
C 3 -0.795609 2.683901 -1.55874 2.12132 -2.12132 
C 1.55874 -2.683901 0.795609 -3 0 -3 
C -0.795609 -3 -1.55874 -2.683901 -2.12132 -2.12132 
C -2.683901 -1.55874 -3 -0.795609 -3 0 
C -3 0.795609 -2.683901 1.55874 -2.12132 2.12132 
C -1.55874 2.683901 -0.795609 3 0 3 
z
" id="m618f90522b" style="stroke:#1f77b4;stroke-opacity:0.8;"/>
    </defs>
    <g clip-path="url(#p0f2624258c)">
     <use style="fill:#1f77b4;fill-opacity:0.8;stroke:#1f77b4;stroke-opacity:0.8;" x="370.796319" xlink:href="#m618f90522b" y="108.321844"/>
     <use style="fill:#1f77b4;fill-opacity:0.8;stroke:#1f77b4;stroke-opacity:0.8;" x="520.498359" xlink:href="#m618f90522b" y="182.428411"/>
     <use style="fill:#1f77b4;fill-opacity:0.8;stroke:#1f77b4;stroke-opacity:0.8;" x="461.199194" xlink:href="#m618f90522b" y="56.191678"/>
     <use style="fill:#1f77b4;fill-opacity:0.8;stroke:#1f77b4;stroke-opacity:0.8;" x="471.666439" xlink:href="#m618f90522b" y="149.626076"/>
     <use style="fill:#1f77b4;fill-opacity:0.8;stroke:#1f77b4;stroke-opacity:0.8;" x="467.686463" xlink:href="#m618f90522b" y="168.505515"/>
     <use style="fill:#1f77b4;fill-opacity:0.8;stroke:#1f77b4;stroke-opacity:0.8;" x="479.163481" xlink:href="#m618f90522b" y="74.570711"/>
     <use style="fill:#1f77b4;fill-opacity:0.8;stroke:#1f77b4;stroke-opacity:0.8;" x="496.207166" xlink:href="#m618f90522b" y="138.023191"/>
     <use style="fill:#1f77b4;fill-opacity:0.8;stroke:#1f77b4;stroke-opacity:0.8;" x="447.312969" xlink:href="#m618f90522b" y="107.689304"/>
     <use style="fill:#1f77b4;fill-opacity:0.8;stroke:#1f77b4;stroke-opacity:0.8;" x="492.097682" xlink:href="#m618f90522b" y="162.225635"/>
     <use style="fill:#1f77b4;fill-opacity:0.8;stroke:#1f77b4;stroke-opacity:0.8;" x="451.515328" xlink:href="#m618f90522b" y="105.608641"/>
     <use style="fill:#1f77b4;fill-opacity:0.8;stroke:#1f77b4;stroke-opacity:0.8;" x="520.34474" xlink:href="#m618f90522b" y="174.336187"/>
     <use style="fill:#1f77b4;fill-opacity:0.8;stroke:#1f77b4;stroke-opacity:0.8;" x="479.603224" xlink:href="#m618f90522b" y="167.097996"/>
     <use style="fill:#1f77b4;fill-opacity:0.8;stroke:#1f77b4;stroke-opacity:0.8;" x="383.884149" xlink:href="#m618f90522b" y="136.04285"/>
     <use style="fill:#1f77b4;fill-opacity:0.8;stroke:#1f77b4;stroke-opacity:0.8;" x="501.244873" xlink:href="#m618f90522b" y="165.464856"/>
     <use style="fill:#1f77b4;fill-opacity:0.8;stroke:#1f77b4;stroke-opacity:0.8;" x="454.663069" xlink:href="#m618f90522b" y="186.320166"/>
     <use style="fill:#1f77b4;fill-opacity:0.8;stroke:#1f77b4;stroke-opacity:0.8;" x="474.752846" xlink:href="#m618f90522b" y="132.779708"/>
     <use style="fill:#1f77b4;fill-opacity:0.8;stroke:#1f77b4;stroke-opacity:0.8;" x="508.099535" xlink:href="#m618f90522b" y="164.458435"/>
     <use style="fill:#1f77b4;fill-opacity:0.8;stroke:#1f77b4;stroke-opacity:0.8;" x="506.255074" xlink:href="#m618f90522b" y="197.50846"/>
     <use style="fill:#1f77b4;fill-opacity:0.8;stroke:#1f77b4;stroke-opacity:0.8;" x="476.402641" xlink:href="#m618f90522b" y="186.212583"/>
     <use style="fill:#1f77b4;fill-opacity:0.8;stroke:#1f77b4;stroke-opacity:0.8;" x="516.053682" xlink:href="#m618f90522b" y="157.73367"/>
     <use style="fill:#1f77b4;fill-opacity:0.8;stroke:#1f77b4;stroke-opacity:0.8;" x="484.593326" xlink:href="#m618f90522b" y="210.985508"/>
     <use style="fill:#1f77b4;fill-opacity:0.8;stroke:#1f77b4;stroke-opacity:0.8;" x="382.819058" xlink:href="#m618f90522b" y="165.349592"/>
     <use style="fill:#1f77b4;fill-opacity:0.8;stroke:#1f77b4;stroke-opacity:0.8;" x="420.092479" xlink:href="#m618f90522b" y="170.078983"/>
     <use style="fill:#1f77b4;fill-opacity:0.8;stroke:#1f77b4;stroke-opacity:0.8;" x="387.655329" xlink:href="#m618f90522b" y="130.990852"/>
     <use style="fill:#1f77b4;fill-opacity:0.8;stroke:#1f77b4;stroke-opacity:0.8;" x="475.40136" xlink:href="#m618f90522b" y="147.262623"/>
     <use style="fill:#1f77b4;fill-opacity:0.8;stroke:#1f77b4;stroke-opacity:0.8;" x="356.351493" xlink:href="#m618f90522b" y="206.420005"/>
     <use style="fill:#1f77b4;fill-opacity:0.8;stroke:#1f77b4;stroke-opacity:0.8;" x="415.556675" xlink:href="#m618f90522b" y="172.714474"/>
     <use style="fill:#1f77b4;fill-opacity:0.8;stroke:#1f77b4;stroke-opacity:0.8;" x="496.35451" xlink:href="#m618f90522b" y="174.809922"/>
     <use style="fill:#1f77b4;fill-opacity:0.8;stroke:#1f77b4;stroke-opacity:0.8;" x="461.269374" xlink:href="#m618f90522b" y="196.925044"/>
     <use style="fill:#1f77b4;fill-opacity:0.8;stroke:#1f77b4;stroke-opacity:0.8;" x="513.618267" xlink:href="#m618f90522b" y="181.163728"/>
     <use style="fill:#1f77b4;fill-opacity:0.8;stroke:#1f77b4;stroke-opacity:0.8;" x="516.14967" xlink:href="#m618f90522b" y="102.777036"/>
     <use style="fill:#1f77b4;fill-opacity:0.8;stroke:#1f77b4;stroke-opacity:0.8;" x="487.714198" xlink:href="#m618f90522b" y="200.043328"/>
     <use style="fill:#1f77b4;fill-opacity:0.8;stroke:#1f77b4;stroke-opacity:0.8;" x="515.496556" xlink:href="#m618f90522b" y="191.177949"/>
     <use style="fill:#1f77b4;fill-opacity:0.8;stroke:#1f77b4;stroke-opacity:0.8;" x="539.894587" xlink:href="#m618f90522b" y="136.775441"/>
     <use style="fill:#1f77b4;fill-opacity:0.8;stroke:#1f77b4;stroke-opacity:0.8;" x="552.369324" xlink:href="#m618f90522b" y="171.819607"/>
     <use style="fill:#1f77b4;fill-opacity:0.8;stroke:#1f77b4;stroke-opacity:0.8;" x="527.735958" xlink:href="#m618f90522b" y="152.706038"/>
     <use style="fill:#1f77b4;fill-opacity:0.8;stroke:#1f77b4;stroke-opacity:0.8;" x="543.012157" xlink:href="#m618f90522b" y="85.248911"/>
     <use style="fill:#1f77b4;fill-opacity:0.8;stroke:#1f77b4;stroke-opacity:0.8;" x="477.427629" xlink:href="#m618f90522b" y="113.014204"/>
     <use style="fill:#1f77b4;fill-opacity:0.8;stroke:#1f77b4;stroke-opacity:0.8;" x="424.037565" xlink:href="#m618f90522b" y="224.995926"/>
     <use style="fill:#1f77b4;fill-opacity:0.8;stroke:#1f77b4;stroke-opacity:0.8;" x="508.082385" xlink:href="#m618f90522b" y="151.762467"/>
     <use style="fill:#1f77b4;fill-opacity:0.8;stroke:#1f77b4;stroke-opacity:0.8;" x="486.132743" xlink:href="#m618f90522b" y="197.115854"/>
     <use style="fill:#1f77b4;fill-opacity:0.8;stroke:#1f77b4;stroke-opacity:0.8;" x="548.790686" xlink:href="#m618f90522b" y="192.648264"/>
     <use style="fill:#1f77b4;fill-opacity:0.8;stroke:#1f77b4;stroke-opacity:0.8;" x="493.923695" xlink:href="#m618f90522b" y="160.403431"/>
     <use style="fill:#1f77b4;fill-opacity:0.8;stroke:#1f77b4;stroke-opacity:0.8;" x="402.973212" xlink:href="#m618f90522b" y="166.629592"/>
     <use style="fill:#1f77b4;fill-opacity:0.8;stroke:#1f77b4;stroke-opacity:0.8;" x="427.316868" xlink:href="#m618f90522b" y="114.11934"/>
     <use style="fill:#1f77b4;fill-opacity:0.8;stroke:#1f77b4;stroke-opacity:0.8;" x="493.726647" xlink:href="#m618f90522b" y="133.144811"/>
     <use style="fill:#1f77b4;fill-opacity:0.8;stroke:#1f77b4;stroke-opacity:0.8;" x="525.91721" xlink:href="#m618f90522b" y="134.720062"/>
     <use style="fill:#1f77b4;fill-opacity:0.8;stroke:#1f77b4;stroke-opacity:0.8;" x="461.908783" xlink:href="#m618f90522b" y="161.398102"/>
     <use style="fill:#1f77b4;fill-opacity:0.8;stroke:#1f77b4;stroke-opacity:0.8;" x="488.440017" xlink:href="#m618f90522b" y="188.918361"/>
     <use style="fill:#1f77b4;fill-opacity:0.8;stroke:#1f77b4;stroke-opacity:0.8;" x="539.439676" xlink:href="#m618f90522b" y="52.161058"/>
     <use style="fill:#1f77b4;fill-opacity:0.8;stroke:#1f77b4;stroke-opacity:0.8;" x="536.46235" xlink:href="#m618f90522b" y="147.135608"/>
     <use style="fill:#1f77b4;fill-opacity:0.8;stroke:#1f77b4;stroke-opacity:0.8;" x="529.45499" xlink:href="#m618f90522b" y="142.456408"/>
     <use style="fill:#1f77b4;fill-opacity:0.8;stroke:#1f77b4;stroke-opacity:0.8;" x="529.45499" xlink:href="#m618f90522b" y="180.720031"/>
     <use style="fill:#1f77b4;fill-opacity:0.8;stroke:#1f77b4;stroke-opacity:0.8;" x="507.747288" xlink:href="#m618f90522b" y="161.277237"/>
     <use style="fill:#1f77b4;fill-opacity:0.8;stroke:#1f77b4;stroke-opacity:0.8;" x="507.747288" xlink:href="#m618f90522b" y="185.698607"/>
     <use style="fill:#1f77b4;fill-opacity:0.8;stroke:#1f77b4;stroke-opacity:0.8;" x="478.420253" xlink:href="#m618f90522b" y="178.270758"/>
     <use style="fill:#1f77b4;fill-opacity:0.8;stroke:#1f77b4;stroke-opacity:0.8;" x="478.420253" xlink:href="#m618f90522b" y="137.910741"/>
     <use style="fill:#1f77b4;fill-opacity:0.8;stroke:#1f77b4;stroke-opacity:0.8;" x="535.016137" xlink:href="#m618f90522b" y="131.331017"/>
     <use style="fill:#1f77b4;fill-opacity:0.8;stroke:#1f77b4;stroke-opacity:0.8;" x="535.016137" xlink:href="#m618f90522b" y="141.975811"/>
     <use style="fill:#1f77b4;fill-opacity:0.8;stroke:#1f77b4;stroke-opacity:0.8;" x="518.518328" xlink:href="#m618f90522b" y="-1"/>
    </g>
   </g>
   <g id="PolyCollection_1">
    <path clip-path="url(#p0f2624258c)" d="M 356.351493 128.272234 
L 356.351493 187.800931 
L 358.331471 187.194304 
L 360.311449 186.789473 
L 362.291427 186.280501 
L 364.271405 185.73083 
L 366.251383 185.237413 
L 368.231361 184.745202 
L 370.211339 184.214322 
L 372.191317 183.72369 
L 374.171296 183.214401 
L 376.151274 182.703825 
L 378.131252 182.161889 
L 380.11123 181.544522 
L 382.091208 180.927156 
L 384.071186 180.363577 
L 386.051164 179.918961 
L 388.031142 179.179226 
L 390.01112 178.668701 
L 391.991098 178.156156 
L 393.971076 177.640672 
L 395.951055 177.125187 
L 397.931033 176.609703 
L 399.911011 175.981105 
L 401.890989 175.389459 
L 403.870967 174.994843 
L 405.850945 174.561068 
L 407.830923 174.051701 
L 409.810901 173.646294 
L 411.790879 173.19521 
L 413.770857 172.649004 
L 415.750835 172.105561 
L 417.730814 171.56647 
L 419.710792 171.277869 
L 421.69077 170.907199 
L 423.670748 170.442586 
L 425.650726 169.93338 
L 427.630704 169.512715 
L 429.610682 169.047431 
L 431.59066 168.692797 
L 433.570638 168.387982 
L 435.550616 168.082384 
L 437.530594 167.648111 
L 439.510573 167.265322 
L 441.490551 166.994012 
L 443.470529 166.71721 
L 445.450507 166.135978 
L 447.430485 165.810791 
L 449.410463 165.499384 
L 451.390441 165.222492 
L 453.370419 164.957012 
L 455.350397 164.582636 
L 457.330375 164.169612 
L 459.310353 163.795688 
L 461.290332 163.632135 
L 463.27031 163.327991 
L 465.250288 163.019968 
L 467.230266 162.713385 
L 469.210244 162.453888 
L 471.190222 162.360099 
L 473.1702 162.083664 
L 475.150178 162.016843 
L 477.130156 161.86743 
L 479.110134 161.726388 
L 481.090112 161.413248 
L 483.070091 161.306783 
L 485.050069 161.105595 
L 487.030047 160.972176 
L 489.010025 161.115796 
L 490.990003 161.037485 
L 492.969981 161.127495 
L 494.949959 161.035289 
L 496.929937 161.015587 
L 498.909915 161.163783 
L 500.889893 161.31103 
L 502.869871 161.286497 
L 504.84985 161.504423 
L 506.829828 161.402655 
L 508.809806 161.482443 
L 510.789784 161.53959 
L 512.769762 161.603825 
L 514.74974 161.542315 
L 516.729718 161.529165 
L 518.709696 161.717151 
L 520.689674 161.905137 
L 522.669652 162.254228 
L 524.64963 162.336539 
L 526.629609 162.436881 
L 528.609587 162.535094 
L 530.589565 162.778789 
L 532.569543 163.046168 
L 534.549521 163.269109 
L 536.529499 163.457209 
L 538.509477 163.632639 
L 540.489455 164.003268 
L 542.469433 164.25149 
L 544.449411 164.494116 
L 546.42939 164.713119 
L 548.409368 164.951808 
L 550.389346 165.021209 
L 552.369324 165.307064 
L 552.369324 119.431502 
L 552.369324 119.431502 
L 550.389346 119.92347 
L 548.409368 120.415613 
L 546.42939 120.907909 
L 544.449411 121.398734 
L 542.469433 121.889559 
L 540.489455 122.326704 
L 538.509477 122.737686 
L 536.529499 122.958615 
L 534.549521 123.349255 
L 532.569543 123.931354 
L 530.589565 124.340979 
L 528.609587 124.831597 
L 526.629609 125.322215 
L 524.64963 125.814017 
L 522.669652 126.166082 
L 520.689674 126.43996 
L 518.709696 127.025908 
L 516.729718 127.531317 
L 514.74974 128.199496 
L 512.769762 128.464836 
L 510.789784 128.760111 
L 508.809806 129.511581 
L 506.829828 129.942577 
L 504.84985 130.200125 
L 502.869871 130.356922 
L 500.889893 130.611319 
L 498.909915 130.840499 
L 496.929937 131.202935 
L 494.949959 131.452714 
L 492.969981 131.651437 
L 490.990003 131.925354 
L 489.010025 132.169039 
L 487.030047 132.424419 
L 485.050069 132.681804 
L 483.070091 132.941977 
L 481.090112 133.204421 
L 479.110134 133.46086 
L 477.130156 133.721948 
L 475.150178 133.973738 
L 473.1702 134.234071 
L 471.190222 134.591886 
L 469.210244 134.721379 
L 467.230266 134.776441 
L 465.250288 134.835758 
L 463.27031 134.89236 
L 461.290332 134.927306 
L 459.310353 135.105979 
L 457.330375 135.134776 
L 455.350397 135.124156 
L 453.370419 135.217587 
L 451.390441 135.172916 
L 449.410463 135.164706 
L 447.430485 135.251579 
L 445.450507 135.228847 
L 443.470529 135.461243 
L 441.490551 135.435555 
L 439.510573 135.559167 
L 437.530594 135.345084 
L 435.550616 135.240382 
L 433.570638 135.237834 
L 431.59066 135.173316 
L 429.610682 135.129171 
L 427.630704 135.02395 
L 425.650726 134.913172 
L 423.670748 134.828782 
L 421.69077 134.617419 
L 419.710792 134.562858 
L 417.730814 134.495353 
L 415.750835 134.350041 
L 413.770857 134.41761 
L 411.790879 134.369105 
L 409.810901 134.281145 
L 407.830923 134.177631 
L 405.850945 133.816168 
L 403.870967 133.747332 
L 401.890989 133.539751 
L 399.911011 133.442505 
L 397.931033 133.276447 
L 395.951055 132.963104 
L 393.971076 132.728396 
L 391.991098 132.404398 
L 390.01112 132.088495 
L 388.031142 132.017324 
L 386.051164 132.01074 
L 384.071186 131.810715 
L 382.091208 131.507988 
L 380.11123 131.130266 
L 378.131252 130.967736 
L 376.151274 130.805206 
L 374.171296 130.557464 
L 372.191317 130.238157 
L 370.211339 129.924853 
L 368.231361 129.612973 
L 366.251383 129.303063 
L 364.271405 128.994779 
L 362.291427 128.971507 
L 360.311449 128.951446 
L 358.331471 128.614261 
L 356.351493 128.272234 
z
" style="fill:#1f77b4;fill-opacity:0.15;"/>
   </g>
   <g id="matplotlib.axis_3">
    <g id="xtick_6">
     <g id="line2d_16">
      <g>
       <use style="stroke:#000000;stroke-width:0.8;" x="380.21955" xlink:href="#m97d3cf1691" y="246.04"/>
      </g>
     </g>
     <g id="text_18">
      <!-- 0.5 -->
      <g transform="translate(372.267987 260.638438)scale(0.1 -0.1)">
       <use xlink:href="#DejaVuSans-48"/>
       <use x="63.623047" xlink:href="#DejaVuSans-46"/>
       <use x="95.410156" xlink:href="#DejaVuSans-53"/>
      </g>
     </g>
    </g>
    <g id="xtick_7">
     <g id="line2d_17">
      <g>
       <use style="stroke:#000000;stroke-width:0.8;" x="419.797122" xlink:href="#m97d3cf1691" y="246.04"/>
      </g>
     </g>
     <g id="text_19">
      <!-- 0.6 -->
      <g transform="translate(411.84556 260.638438)scale(0.1 -0.1)">
       <use xlink:href="#DejaVuSans-48"/>
       <use x="63.623047" xlink:href="#DejaVuSans-46"/>
       <use x="95.410156" xlink:href="#DejaVuSans-54"/>
      </g>
     </g>
    </g>
    <g id="xtick_8">
     <g id="line2d_18">
      <g>
       <use style="stroke:#000000;stroke-width:0.8;" x="459.374695" xlink:href="#m97d3cf1691" y="246.04"/>
      </g>
     </g>
     <g id="text_20">
      <!-- 0.7 -->
      <g transform="translate(451.423132 260.638438)scale(0.1 -0.1)">
       <use xlink:href="#DejaVuSans-48"/>
       <use x="63.623047" xlink:href="#DejaVuSans-46"/>
       <use x="95.410156" xlink:href="#DejaVuSans-55"/>
      </g>
     </g>
    </g>
    <g id="xtick_9">
     <g id="line2d_19">
      <g>
       <use style="stroke:#000000;stroke-width:0.8;" x="498.952268" xlink:href="#m97d3cf1691" y="246.04"/>
      </g>
     </g>
     <g id="text_21">
      <!-- 0.8 -->
      <g transform="translate(491.000705 260.638438)scale(0.1 -0.1)">
       <use xlink:href="#DejaVuSans-48"/>
       <use x="63.623047" xlink:href="#DejaVuSans-46"/>
       <use x="95.410156" xlink:href="#DejaVuSans-56"/>
      </g>
     </g>
    </g>
    <g id="xtick_10">
     <g id="line2d_20">
      <g>
       <use style="stroke:#000000;stroke-width:0.8;" x="538.52984" xlink:href="#m97d3cf1691" y="246.04"/>
      </g>
     </g>
     <g id="text_22">
      <!-- 0.9 -->
      <defs>
       <path d="M 10.984375 1.515625 
L 10.984375 10.5 
Q 14.703125 8.734375 18.5 7.8125 
Q 22.3125 6.890625 25.984375 6.890625 
Q 35.75 6.890625 40.890625 13.453125 
Q 46.046875 20.015625 46.78125 33.40625 
Q 43.953125 29.203125 39.59375 26.953125 
Q 35.25 24.703125 29.984375 24.703125 
Q 19.046875 24.703125 12.671875 31.3125 
Q 6.296875 37.9375 6.296875 49.421875 
Q 6.296875 60.640625 12.9375 67.421875 
Q 19.578125 74.21875 30.609375 74.21875 
Q 43.265625 74.21875 49.921875 64.515625 
Q 56.59375 54.828125 56.59375 36.375 
Q 56.59375 19.140625 48.40625 8.859375 
Q 40.234375 -1.421875 26.421875 -1.421875 
Q 22.703125 -1.421875 18.890625 -0.6875 
Q 15.09375 0.046875 10.984375 1.515625 
z
M 30.609375 32.421875 
Q 37.25 32.421875 41.125 36.953125 
Q 45.015625 41.5 45.015625 49.421875 
Q 45.015625 57.28125 41.125 61.84375 
Q 37.25 66.40625 30.609375 66.40625 
Q 23.96875 66.40625 20.09375 61.84375 
Q 16.21875 57.28125 16.21875 49.421875 
Q 16.21875 41.5 20.09375 36.953125 
Q 23.96875 32.421875 30.609375 32.421875 
z
" id="DejaVuSans-57"/>
      </defs>
      <g transform="translate(530.578278 260.638438)scale(0.1 -0.1)">
       <use xlink:href="#DejaVuSans-48"/>
       <use x="63.623047" xlink:href="#DejaVuSans-46"/>
       <use x="95.410156" xlink:href="#DejaVuSans-57"/>
      </g>
     </g>
    </g>
    <g id="text_23">
     <!-- Behavior performance (DI) -->
     <defs>
      <path d="M 19.671875 34.8125 
L 19.671875 8.109375 
L 35.5 8.109375 
Q 43.453125 8.109375 47.28125 11.40625 
Q 51.125 14.703125 51.125 21.484375 
Q 51.125 28.328125 47.28125 31.5625 
Q 43.453125 34.8125 35.5 34.8125 
z
M 19.671875 64.796875 
L 19.671875 42.828125 
L 34.28125 42.828125 
Q 41.5 42.828125 45.03125 45.53125 
Q 48.578125 48.25 48.578125 53.8125 
Q 48.578125 59.328125 45.03125 62.0625 
Q 41.5 64.796875 34.28125 64.796875 
z
M 9.8125 72.90625 
L 35.015625 72.90625 
Q 46.296875 72.90625 52.390625 68.21875 
Q 58.5 63.53125 58.5 54.890625 
Q 58.5 48.1875 55.375 44.234375 
Q 52.25 40.28125 46.1875 39.3125 
Q 53.46875 37.75 57.5 32.78125 
Q 61.53125 27.828125 61.53125 20.40625 
Q 61.53125 10.640625 54.890625 5.3125 
Q 48.25 0 35.984375 0 
L 9.8125 0 
z
" id="DejaVuSans-66"/>
      <path d="M 54.890625 33.015625 
L 54.890625 0 
L 45.90625 0 
L 45.90625 32.71875 
Q 45.90625 40.484375 42.875 44.328125 
Q 39.84375 48.1875 33.796875 48.1875 
Q 26.515625 48.1875 22.3125 43.546875 
Q 18.109375 38.921875 18.109375 30.90625 
L 18.109375 0 
L 9.078125 0 
L 9.078125 75.984375 
L 18.109375 75.984375 
L 18.109375 46.1875 
Q 21.34375 51.125 25.703125 53.5625 
Q 30.078125 56 35.796875 56 
Q 45.21875 56 50.046875 50.171875 
Q 54.890625 44.34375 54.890625 33.015625 
z
" id="DejaVuSans-104"/>
      <path d="M 30.609375 48.390625 
Q 23.390625 48.390625 19.1875 42.75 
Q 14.984375 37.109375 14.984375 27.296875 
Q 14.984375 17.484375 19.15625 11.84375 
Q 23.34375 6.203125 30.609375 6.203125 
Q 37.796875 6.203125 41.984375 11.859375 
Q 46.1875 17.53125 46.1875 27.296875 
Q 46.1875 37.015625 41.984375 42.703125 
Q 37.796875 48.390625 30.609375 48.390625 
z
M 30.609375 56 
Q 42.328125 56 49.015625 48.375 
Q 55.71875 40.765625 55.71875 27.296875 
Q 55.71875 13.875 49.015625 6.21875 
Q 42.328125 -1.421875 30.609375 -1.421875 
Q 18.84375 -1.421875 12.171875 6.21875 
Q 5.515625 13.875 5.515625 27.296875 
Q 5.515625 40.765625 12.171875 48.375 
Q 18.84375 56 30.609375 56 
z
" id="DejaVuSans-111"/>
      <path d="M 18.109375 8.203125 
L 18.109375 -20.796875 
L 9.078125 -20.796875 
L 9.078125 54.6875 
L 18.109375 54.6875 
L 18.109375 46.390625 
Q 20.953125 51.265625 25.265625 53.625 
Q 29.59375 56 35.59375 56 
Q 45.5625 56 51.78125 48.09375 
Q 58.015625 40.1875 58.015625 27.296875 
Q 58.015625 14.40625 51.78125 6.484375 
Q 45.5625 -1.421875 35.59375 -1.421875 
Q 29.59375 -1.421875 25.265625 0.953125 
Q 20.953125 3.328125 18.109375 8.203125 
z
M 48.6875 27.296875 
Q 48.6875 37.203125 44.609375 42.84375 
Q 40.53125 48.484375 33.40625 48.484375 
Q 26.265625 48.484375 22.1875 42.84375 
Q 18.109375 37.203125 18.109375 27.296875 
Q 18.109375 17.390625 22.1875 11.75 
Q 26.265625 6.109375 33.40625 6.109375 
Q 40.53125 6.109375 44.609375 11.75 
Q 48.6875 17.390625 48.6875 27.296875 
z
" id="DejaVuSans-112"/>
      <path d="M 9.8125 72.90625 
L 19.671875 72.90625 
L 19.671875 0 
L 9.8125 0 
z
" id="DejaVuSans-73"/>
     </defs>
     <g transform="translate(387.643221 274.316562)scale(0.1 -0.1)">
      <use xlink:href="#DejaVuSans-66"/>
      <use x="68.603516" xlink:href="#DejaVuSans-101"/>
      <use x="130.126953" xlink:href="#DejaVuSans-104"/>
      <use x="193.505859" xlink:href="#DejaVuSans-97"/>
      <use x="254.785156" xlink:href="#DejaVuSans-118"/>
      <use x="313.964844" xlink:href="#DejaVuSans-105"/>
      <use x="341.748047" xlink:href="#DejaVuSans-111"/>
      <use x="402.929688" xlink:href="#DejaVuSans-114"/>
      <use x="444.042969" xlink:href="#DejaVuSans-32"/>
      <use x="475.830078" xlink:href="#DejaVuSans-112"/>
      <use x="539.306641" xlink:href="#DejaVuSans-101"/>
      <use x="600.830078" xlink:href="#DejaVuSans-114"/>
      <use x="641.943359" xlink:href="#DejaVuSans-102"/>
      <use x="677.148438" xlink:href="#DejaVuSans-111"/>
      <use x="738.330078" xlink:href="#DejaVuSans-114"/>
      <use x="779.427734" xlink:href="#DejaVuSans-109"/>
      <use x="876.839844" xlink:href="#DejaVuSans-97"/>
      <use x="938.119141" xlink:href="#DejaVuSans-110"/>
      <use x="1001.498047" xlink:href="#DejaVuSans-99"/>
      <use x="1056.478516" xlink:href="#DejaVuSans-101"/>
      <use x="1118.001953" xlink:href="#DejaVuSans-32"/>
      <use x="1149.789062" xlink:href="#DejaVuSans-40"/>
      <use x="1188.802734" xlink:href="#DejaVuSans-68"/>
      <use x="1265.804688" xlink:href="#DejaVuSans-73"/>
      <use x="1295.296875" xlink:href="#DejaVuSans-41"/>
     </g>
    </g>
   </g>
   <g id="matplotlib.axis_4">
    <g id="ytick_10">
     <g id="line2d_21">
      <g>
       <use style="stroke:#000000;stroke-width:0.8;" x="346.040817" xlink:href="#m0287622f74" y="216.650186"/>
      </g>
     </g>
     <g id="text_24">
      <!-- 0.5 -->
      <defs>
       <path d="M 10.59375 35.5 
L 73.1875 35.5 
L 73.1875 27.203125 
L 10.59375 27.203125 
z
" id="DejaVuSans-8722"/>
      </defs>
      <g transform="translate(314.758004 220.449405)scale(0.1 -0.1)">
       <use xlink:href="#DejaVuSans-8722"/>
       <use x="83.789062" xlink:href="#DejaVuSans-48"/>
       <use x="147.412109" xlink:href="#DejaVuSans-46"/>
       <use x="179.199219" xlink:href="#DejaVuSans-53"/>
      </g>
     </g>
    </g>
    <g id="ytick_11">
     <g id="line2d_22">
      <g>
       <use style="stroke:#000000;stroke-width:0.8;" x="346.040817" xlink:href="#m0287622f74" y="178.883349"/>
      </g>
     </g>
     <g id="text_25">
      <!-- 0.0 -->
      <g transform="translate(323.137692 182.682567)scale(0.1 -0.1)">
       <use xlink:href="#DejaVuSans-48"/>
       <use x="63.623047" xlink:href="#DejaVuSans-46"/>
       <use x="95.410156" xlink:href="#DejaVuSans-48"/>
      </g>
     </g>
    </g>
    <g id="ytick_12">
     <g id="line2d_23">
      <g>
       <use style="stroke:#000000;stroke-width:0.8;" x="346.040817" xlink:href="#m0287622f74" y="141.116512"/>
      </g>
     </g>
     <g id="text_26">
      <!-- 0.5 -->
      <g transform="translate(323.137692 144.91573)scale(0.1 -0.1)">
       <use xlink:href="#DejaVuSans-48"/>
       <use x="63.623047" xlink:href="#DejaVuSans-46"/>
       <use x="95.410156" xlink:href="#DejaVuSans-53"/>
      </g>
     </g>
    </g>
    <g id="ytick_13">
     <g id="line2d_24">
      <g>
       <use style="stroke:#000000;stroke-width:0.8;" x="346.040817" xlink:href="#m0287622f74" y="103.349674"/>
      </g>
     </g>
     <g id="text_27">
      <!-- 1.0 -->
      <g transform="translate(323.137692 107.148893)scale(0.1 -0.1)">
       <use xlink:href="#DejaVuSans-49"/>
       <use x="63.623047" xlink:href="#DejaVuSans-46"/>
       <use x="95.410156" xlink:href="#DejaVuSans-48"/>
      </g>
     </g>
    </g>
    <g id="ytick_14">
     <g id="line2d_25">
      <g>
       <use style="stroke:#000000;stroke-width:0.8;" x="346.040817" xlink:href="#m0287622f74" y="65.582837"/>
      </g>
     </g>
     <g id="text_28">
      <!-- 1.5 -->
      <g transform="translate(323.137692 69.382056)scale(0.1 -0.1)">
       <use xlink:href="#DejaVuSans-49"/>
       <use x="63.623047" xlink:href="#DejaVuSans-46"/>
       <use x="95.410156" xlink:href="#DejaVuSans-53"/>
      </g>
     </g>
    </g>
    <g id="ytick_15">
     <g id="line2d_26">
      <g>
       <use style="stroke:#000000;stroke-width:0.8;" x="346.040817" xlink:href="#m0287622f74" y="27.816"/>
      </g>
     </g>
     <g id="text_29">
      <!-- 2.0 -->
      <g transform="translate(323.137692 31.615219)scale(0.1 -0.1)">
       <use xlink:href="#DejaVuSans-50"/>
       <use x="63.623047" xlink:href="#DejaVuSans-46"/>
       <use x="95.410156" xlink:href="#DejaVuSans-48"/>
      </g>
     </g>
    </g>
    <g id="text_30">
     <!-- $\Delta d'$ -->
     <defs>
      <path d="M 34.1875 63.1875 
L 14.15625 8.203125 
L 54.25 8.203125 
z
M 0.78125 0 
L 28.609375 72.90625 
L 39.796875 72.90625 
L 67.578125 0 
z
" id="DejaVuSans-916"/>
     </defs>
     <g transform="translate(297.480504 145.028)rotate(-90)scale(0.1 -0.1)">
      <use transform="translate(0 0.584375)" xlink:href="#DejaVuSans-916"/>
      <use transform="translate(68.408203 0.584375)" xlink:href="#DejaVuSans-Oblique-100"/>
      <use transform="translate(139.332474 38.865625)scale(0.7)" xlink:href="#Cmsy10-48"/>
     </g>
     <!-- (Active - Passive) -->
     <defs>
      <path d="M 4.890625 31.390625 
L 31.203125 31.390625 
L 31.203125 23.390625 
L 4.890625 23.390625 
z
" id="DejaVuSans-45"/>
     </defs>
     <g transform="translate(308.678317 180.075656)rotate(-90)scale(0.1 -0.1)">
      <use xlink:href="#DejaVuSans-40"/>
      <use x="39.013672" xlink:href="#DejaVuSans-65"/>
      <use x="107.40625" xlink:href="#DejaVuSans-99"/>
      <use x="162.386719" xlink:href="#DejaVuSans-116"/>
      <use x="201.595703" xlink:href="#DejaVuSans-105"/>
      <use x="229.378906" xlink:href="#DejaVuSans-118"/>
      <use x="288.558594" xlink:href="#DejaVuSans-101"/>
      <use x="350.082031" xlink:href="#DejaVuSans-32"/>
      <use x="381.869141" xlink:href="#DejaVuSans-45"/>
      <use x="417.953125" xlink:href="#DejaVuSans-32"/>
      <use x="449.740234" xlink:href="#DejaVuSans-80"/>
      <use x="509.980469" xlink:href="#DejaVuSans-97"/>
      <use x="571.259766" xlink:href="#DejaVuSans-115"/>
      <use x="623.359375" xlink:href="#DejaVuSans-115"/>
      <use x="675.458984" xlink:href="#DejaVuSans-105"/>
      <use x="703.242188" xlink:href="#DejaVuSans-118"/>
      <use x="762.421875" xlink:href="#DejaVuSans-101"/>
      <use x="823.945312" xlink:href="#DejaVuSans-41"/>
     </g>
    </g>
   </g>
   <g id="line2d_27">
    <path clip-path="url(#p0f2624258c)" d="M 356.351493 157.510902 
L 358.331471 157.372956 
L 360.311449 157.23501 
L 362.291427 157.097064 
L 364.271405 156.959118 
L 366.251383 156.821173 
L 368.231361 156.683227 
L 370.211339 156.545281 
L 372.191317 156.407335 
L 374.171296 156.26939 
L 376.151274 156.131444 
L 378.131252 155.993498 
L 380.11123 155.855552 
L 382.091208 155.717607 
L 384.071186 155.579661 
L 386.051164 155.441715 
L 388.031142 155.303769 
L 390.01112 155.165823 
L 391.991098 155.027878 
L 393.971076 154.889932 
L 395.951055 154.751986 
L 397.931033 154.61404 
L 399.911011 154.476095 
L 401.890989 154.338149 
L 403.870967 154.200203 
L 405.850945 154.062257 
L 407.830923 153.924312 
L 409.810901 153.786366 
L 411.790879 153.64842 
L 413.770857 153.510474 
L 415.750835 153.372528 
L 417.730814 153.234583 
L 419.710792 153.096637 
L 421.69077 152.958691 
L 423.670748 152.820745 
L 425.650726 152.6828 
L 427.630704 152.544854 
L 429.610682 152.406908 
L 431.59066 152.268962 
L 433.570638 152.131016 
L 435.550616 151.993071 
L 437.530594 151.855125 
L 439.510573 151.717179 
L 441.490551 151.579233 
L 443.470529 151.441288 
L 445.450507 151.303342 
L 447.430485 151.165396 
L 449.410463 151.02745 
L 451.390441 150.889505 
L 453.370419 150.751559 
L 455.350397 150.613613 
L 457.330375 150.475667 
L 459.310353 150.337721 
L 461.290332 150.199776 
L 463.27031 150.06183 
L 465.250288 149.923884 
L 467.230266 149.785938 
L 469.210244 149.647993 
L 471.190222 149.510047 
L 473.1702 149.372101 
L 475.150178 149.234155 
L 477.130156 149.09621 
L 479.110134 148.958264 
L 481.090112 148.820318 
L 483.070091 148.682372 
L 485.050069 148.544426 
L 487.030047 148.406481 
L 489.010025 148.268535 
L 490.990003 148.130589 
L 492.969981 147.992643 
L 494.949959 147.854698 
L 496.929937 147.716752 
L 498.909915 147.578806 
L 500.889893 147.44086 
L 502.869871 147.302915 
L 504.84985 147.164969 
L 506.829828 147.027023 
L 508.809806 146.889077 
L 510.789784 146.751131 
L 512.769762 146.613186 
L 514.74974 146.47524 
L 516.729718 146.337294 
L 518.709696 146.199348 
L 520.689674 146.061403 
L 522.669652 145.923457 
L 524.64963 145.785511 
L 526.629609 145.647565 
L 528.609587 145.50962 
L 530.589565 145.371674 
L 532.569543 145.233728 
L 534.549521 145.095782 
L 536.529499 144.957836 
L 538.509477 144.819891 
L 540.489455 144.681945 
L 542.469433 144.543999 
L 544.449411 144.406053 
L 546.42939 144.268108 
L 548.409368 144.130162 
L 550.389346 143.992216 
L 552.369324 143.85427 
" style="fill:none;stroke:#1f77b4;stroke-linecap:square;stroke-width:2.25;"/>
   </g>
   <g id="line2d_28">
    <path clip-path="url(#p0f2624258c)" d="M 346.040817 178.883349 
L 562.68 178.883349 
" style="fill:none;stroke:#000000;stroke-dasharray:5.55,2.4;stroke-dashoffset:0;stroke-width:1.5;"/>
   </g>
   <g id="line2d_29">
    <path clip-path="url(#p0f2624258c)" d="M 380.21955 246.04 
L 380.21955 27.816 
" style="fill:none;stroke:#000000;stroke-dasharray:5.55,2.4;stroke-dashoffset:0;stroke-width:1.5;"/>
   </g>
   <g id="patch_6">
    <path d="M 346.040817 246.04 
L 346.040817 27.816 
" style="fill:none;stroke:#000000;stroke-linecap:square;stroke-linejoin:miter;stroke-width:0.8;"/>
   </g>
   <g id="patch_7">
    <path d="M 346.040817 246.04 
L 562.68 246.04 
" style="fill:none;stroke:#000000;stroke-linecap:square;stroke-linejoin:miter;stroke-width:0.8;"/>
   </g>
   <g id="text_31">
    <!-- $r$: 0.057, $p$: 0.668 -->
    <defs>
     <path d="M 44.578125 46.390625 
Q 43.21875 47.125 41.453125 47.515625 
Q 39.703125 47.90625 37.703125 47.90625 
Q 30.515625 47.90625 25.140625 42.453125 
Q 19.78125 37.015625 18.015625 27.875 
L 12.5 0 
L 3.515625 0 
L 14.203125 54.6875 
L 23.1875 54.6875 
L 21.484375 46.1875 
Q 25.046875 50.921875 30 53.453125 
Q 34.96875 56 40.578125 56 
Q 42.046875 56 43.453125 55.828125 
Q 44.875 55.671875 46.296875 55.28125 
z
" id="DejaVuSans-Oblique-114"/>
     <path d="M 11.71875 12.40625 
L 22.015625 12.40625 
L 22.015625 0 
L 11.71875 0 
z
M 11.71875 51.703125 
L 22.015625 51.703125 
L 22.015625 39.3125 
L 11.71875 39.3125 
z
" id="DejaVuSans-58"/>
     <path d="M 11.71875 12.40625 
L 22.015625 12.40625 
L 22.015625 4 
L 14.015625 -11.625 
L 7.71875 -11.625 
L 11.71875 4 
z
" id="DejaVuSans-44"/>
     <path d="M 49.609375 33.6875 
Q 49.609375 40.875 46.484375 44.671875 
Q 43.359375 48.484375 37.5 48.484375 
Q 33.5 48.484375 29.859375 46.4375 
Q 26.21875 44.390625 23.390625 40.484375 
Q 20.609375 36.625 18.9375 31.15625 
Q 17.28125 25.6875 17.28125 20.3125 
Q 17.28125 13.484375 20.40625 9.796875 
Q 23.53125 6.109375 29.296875 6.109375 
Q 33.546875 6.109375 37.1875 8.109375 
Q 40.828125 10.109375 43.40625 13.921875 
Q 46.1875 17.921875 47.890625 23.34375 
Q 49.609375 28.765625 49.609375 33.6875 
z
M 21.78125 46.390625 
Q 25.390625 51.125 30.296875 53.5625 
Q 35.203125 56 41.21875 56 
Q 49.609375 56 54.25 50.5 
Q 58.890625 45.015625 58.890625 35.109375 
Q 58.890625 27 56 19.65625 
Q 53.125 12.3125 47.703125 6.5 
Q 44.09375 2.640625 39.546875 0.609375 
Q 35.015625 -1.421875 29.984375 -1.421875 
Q 24.171875 -1.421875 20.21875 1 
Q 16.265625 3.421875 14.3125 8.203125 
L 8.6875 -20.796875 
L -0.296875 -20.796875 
L 14.40625 54.6875 
L 23.390625 54.6875 
z
" id="DejaVuSans-Oblique-112"/>
    </defs>
    <g transform="translate(402.040408 21.816)scale(0.12 -0.12)">
     <use transform="translate(0 0.78125)" xlink:href="#DejaVuSans-Oblique-114"/>
     <use transform="translate(41.113281 0.78125)" xlink:href="#DejaVuSans-58"/>
     <use transform="translate(74.804688 0.78125)" xlink:href="#DejaVuSans-32"/>
     <use transform="translate(106.591797 0.78125)" xlink:href="#DejaVuSans-48"/>
     <use transform="translate(170.214844 0.78125)" xlink:href="#DejaVuSans-46"/>
     <use transform="translate(202.001953 0.78125)" xlink:href="#DejaVuSans-48"/>
     <use transform="translate(265.625 0.78125)" xlink:href="#DejaVuSans-53"/>
     <use transform="translate(329.138672 0.78125)" xlink:href="#DejaVuSans-55"/>
     <use transform="translate(392.761719 0.78125)" xlink:href="#DejaVuSans-44"/>
     <use transform="translate(424.548828 0.78125)" xlink:href="#DejaVuSans-32"/>
     <use transform="translate(456.335938 0.78125)" xlink:href="#DejaVuSans-Oblique-112"/>
     <use transform="translate(519.8125 0.78125)" xlink:href="#DejaVuSans-58"/>
     <use transform="translate(553.503906 0.78125)" xlink:href="#DejaVuSans-32"/>
     <use transform="translate(585.291016 0.78125)" xlink:href="#DejaVuSans-48"/>
     <use transform="translate(648.914062 0.78125)" xlink:href="#DejaVuSans-46"/>
     <use transform="translate(680.701172 0.78125)" xlink:href="#DejaVuSans-54"/>
     <use transform="translate(744.324219 0.78125)" xlink:href="#DejaVuSans-54"/>
     <use transform="translate(807.947266 0.78125)" xlink:href="#DejaVuSans-56"/>
    </g>
   </g>
  </g>
 </g>
 <defs>
  <clipPath id="p0ec665507a">
   <rect height="218.224" width="216.639183" x="38.27" y="27.816"/>
  </clipPath>
  <clipPath id="p0f2624258c">
   <rect height="218.224" width="216.639183" x="346.040817" y="27.816"/>
  </clipPath>
 </defs>
</svg>
