<?xml version="1.0" encoding="utf-8" standalone="no"?>
<!DOCTYPE svg PUBLIC "-//W3C//DTD SVG 1.1//EN"
  "http://www.w3.org/Graphics/SVG/1.1/DTD/svg11.dtd">
<!-- Created with matplotlib (https://matplotlib.org/) -->
<svg height="144pt" version="1.1" viewBox="0 0 288 144" width="288pt" xmlns="http://www.w3.org/2000/svg" xmlns:xlink="http://www.w3.org/1999/xlink">
 <defs>
  <style type="text/css">
*{stroke-linecap:butt;stroke-linejoin:round;}
  </style>
 </defs>
 <g id="figure_1">
  <g id="patch_1">
   <path d="M 0 144 
L 288 144 
L 288 0 
L 0 0 
z
" style="fill:#ffffff;"/>
  </g>
  <g id="axes_1">
   <g id="patch_2">
    <path d="M 31.97 109.96 
L 126.621 109.96 
L 126.621 11.52 
L 31.97 11.52 
z
" style="fill:#ffffff;"/>
   </g>
   <g id="PathCollection_1">
    <defs>
     <path d="M 0 1.581139 
C 0.419323 1.581139 0.821528 1.41454 1.118034 1.118034 
C 1.41454 0.821528 1.581139 0.419323 1.581139 0 
C 1.581139 -0.419323 1.41454 -0.821528 1.118034 -1.118034 
C 0.821528 -1.41454 0.419323 -1.581139 0 -1.581139 
C -0.419323 -1.581139 -0.821528 -1.41454 -1.118034 -1.118034 
C -1.41454 -0.821528 -1.581139 -0.419323 -1.581139 0 
C -1.581139 0.419323 -1.41454 0.821528 -1.118034 1.118034 
C -0.821528 1.41454 -0.419323 1.581139 0 1.581139 
z
" id="m605fca3bf2" style="stroke:#ffffff;"/>
    </defs>
    <g clip-path="url(#pa0f15ac846)">
     <use style="fill:#1f77b4;stroke:#ffffff;" x="41.142294" xlink:href="#m605fca3bf2" y="90.009005"/>
     <use style="fill:#1f77b4;stroke:#ffffff;" x="46.635357" xlink:href="#m605fca3bf2" y="96.688556"/>
     <use style="fill:#1f77b4;stroke:#ffffff;" x="60.774768" xlink:href="#m605fca3bf2" y="63.084283"/>
     <use style="fill:#1f77b4;stroke:#ffffff;" x="36.39059" xlink:href="#m605fca3bf2" y="100.992573"/>
     <use style="fill:#1f77b4;stroke:#ffffff;" x="48.328968" xlink:href="#m605fca3bf2" y="92.006042"/>
     <use style="fill:#1f77b4;stroke:#ffffff;" x="60.170526" xlink:href="#m605fca3bf2" y="70.899588"/>
     <use style="fill:#1f77b4;stroke:#ffffff;" x="39.60847" xlink:href="#m605fca3bf2" y="95.673777"/>
     <use style="fill:#1f77b4;stroke:#ffffff;" x="46.327394" xlink:href="#m605fca3bf2" y="84.626177"/>
     <use style="fill:#1f77b4;stroke:#ffffff;" x="45.737339" xlink:href="#m605fca3bf2" y="96.578912"/>
     <use style="fill:#1f77b4;stroke:#ffffff;" x="60.698368" xlink:href="#m605fca3bf2" y="67.675326"/>
     <use style="fill:#1f77b4;stroke:#ffffff;" x="46.472757" xlink:href="#m605fca3bf2" y="92.756683"/>
     <use style="fill:#1f77b4;stroke:#ffffff;" x="48.285408" xlink:href="#m605fca3bf2" y="90.725869"/>
     <use style="fill:#1f77b4;stroke:#ffffff;" x="59.13258" xlink:href="#m605fca3bf2" y="75.167039"/>
     <use style="fill:#1f77b4;stroke:#ffffff;" x="46.030192" xlink:href="#m605fca3bf2" y="91.807989"/>
     <use style="fill:#1f77b4;stroke:#ffffff;" x="51.02935" xlink:href="#m605fca3bf2" y="90.790089"/>
     <use style="fill:#1f77b4;stroke:#ffffff;" x="45.06292" xlink:href="#m605fca3bf2" y="95.16329"/>
     <use style="fill:#1f77b4;stroke:#ffffff;" x="56.079096" xlink:href="#m605fca3bf2" y="83.422143"/>
     <use style="fill:#1f77b4;stroke:#ffffff;" x="48.622648" xlink:href="#m605fca3bf2" y="95.614546"/>
     <use style="fill:#1f77b4;stroke:#ffffff;" x="52.834654" xlink:href="#m605fca3bf2" y="89.238849"/>
     <use style="fill:#1f77b4;stroke:#ffffff;" x="54.797968" xlink:href="#m605fca3bf2" y="83.04551"/>
     <use style="fill:#1f77b4;stroke:#ffffff;" x="57.221763" xlink:href="#m605fca3bf2" y="89.435285"/>
     <use style="fill:#1f77b4;stroke:#ffffff;" x="55.495996" xlink:href="#m605fca3bf2" y="88.210518"/>
     <use style="fill:#1f77b4;stroke:#ffffff;" x="70.022776" xlink:href="#m605fca3bf2" y="68.350245"/>
     <use style="fill:#1f77b4;stroke:#ffffff;" x="51.895184" xlink:href="#m605fca3bf2" y="79.380564"/>
     <use style="fill:#1f77b4;stroke:#ffffff;" x="57.460825" xlink:href="#m605fca3bf2" y="81.534468"/>
     <use style="fill:#1f77b4;stroke:#ffffff;" x="59.768401" xlink:href="#m605fca3bf2" y="84.949301"/>
     <use style="fill:#1f77b4;stroke:#ffffff;" x="57.634842" xlink:href="#m605fca3bf2" y="82.820486"/>
     <use style="fill:#1f77b4;stroke:#ffffff;" x="57.360332" xlink:href="#m605fca3bf2" y="90.331045"/>
     <use style="fill:#1f77b4;stroke:#ffffff;" x="58.398547" xlink:href="#m605fca3bf2" y="85.110307"/>
     <use style="fill:#1f77b4;stroke:#ffffff;" x="45.762217" xlink:href="#m605fca3bf2" y="96.528387"/>
     <use style="fill:#1f77b4;stroke:#ffffff;" x="44.971044" xlink:href="#m605fca3bf2" y="86.437273"/>
     <use style="fill:#1f77b4;stroke:#ffffff;" x="58.02651" xlink:href="#m605fca3bf2" y="87.151753"/>
     <use style="fill:#1f77b4;stroke:#ffffff;" x="48.323204" xlink:href="#m605fca3bf2" y="94.354303"/>
     <use style="fill:#1f77b4;stroke:#ffffff;" x="58.563593" xlink:href="#m605fca3bf2" y="82.025168"/>
     <use style="fill:#1f77b4;stroke:#ffffff;" x="77.773489" xlink:href="#m605fca3bf2" y="63.583614"/>
     <use style="fill:#1f77b4;stroke:#ffffff;" x="53.103418" xlink:href="#m605fca3bf2" y="83.435624"/>
     <use style="fill:#1f77b4;stroke:#ffffff;" x="72.066558" xlink:href="#m605fca3bf2" y="60.499578"/>
     <use style="fill:#1f77b4;stroke:#ffffff;" x="59.374821" xlink:href="#m605fca3bf2" y="71.864952"/>
     <use style="fill:#1f77b4;stroke:#ffffff;" x="63.907379" xlink:href="#m605fca3bf2" y="83.220402"/>
     <use style="fill:#1f77b4;stroke:#ffffff;" x="51.349812" xlink:href="#m605fca3bf2" y="90.910202"/>
     <use style="fill:#1f77b4;stroke:#ffffff;" x="53.509825" xlink:href="#m605fca3bf2" y="90.283338"/>
     <use style="fill:#1f77b4;stroke:#ffffff;" x="61.355386" xlink:href="#m605fca3bf2" y="82.011927"/>
     <use style="fill:#1f77b4;stroke:#ffffff;" x="46.817437" xlink:href="#m605fca3bf2" y="92.063744"/>
     <use style="fill:#1f77b4;stroke:#ffffff;" x="122.20041" xlink:href="#m605fca3bf2" y="21.439445"/>
     <use style="fill:#1f77b4;stroke:#ffffff;" x="101.039443" xlink:href="#m605fca3bf2" y="48.087676"/>
     <use style="fill:#1f77b4;stroke:#ffffff;" x="76.505597" xlink:href="#m605fca3bf2" y="64.820856"/>
     <use style="fill:#1f77b4;stroke:#ffffff;" x="51.906943" xlink:href="#m605fca3bf2" y="92.902327"/>
     <use style="fill:#1f77b4;stroke:#ffffff;" x="60.586743" xlink:href="#m605fca3bf2" y="84.386615"/>
     <use style="fill:#1f77b4;stroke:#ffffff;" x="54.387496" xlink:href="#m605fca3bf2" y="88.217494"/>
     <use style="fill:#1f77b4;stroke:#ffffff;" x="62.25773" xlink:href="#m605fca3bf2" y="65.291075"/>
     <use style="fill:#1f77b4;stroke:#ffffff;" x="65.744027" xlink:href="#m605fca3bf2" y="70.121145"/>
     <use style="fill:#1f77b4;stroke:#ffffff;" x="55.924562" xlink:href="#m605fca3bf2" y="79.88838"/>
     <use style="fill:#1f77b4;stroke:#ffffff;" x="64.205468" xlink:href="#m605fca3bf2" y="76.715934"/>
     <use style="fill:#1f77b4;stroke:#ffffff;" x="52.463132" xlink:href="#m605fca3bf2" y="85.73047"/>
     <use style="fill:#1f77b4;stroke:#ffffff;" x="68.001995" xlink:href="#m605fca3bf2" y="71.757436"/>
     <use style="fill:#1f77b4;stroke:#ffffff;" x="47.955038" xlink:href="#m605fca3bf2" y="93.457125"/>
     <use style="fill:#1f77b4;stroke:#ffffff;" x="53.580003" xlink:href="#m605fca3bf2" y="81.471972"/>
     <use style="fill:#1f77b4;stroke:#ffffff;" x="46.642945" xlink:href="#m605fca3bf2" y="88.277525"/>
     <use style="fill:#1f77b4;stroke:#ffffff;" x="54.560287" xlink:href="#m605fca3bf2" y="82.751797"/>
     <use style="fill:#1f77b4;stroke:#ffffff;" x="70.914884" xlink:href="#m605fca3bf2" y="46.229346"/>
    </g>
   </g>
   <g id="matplotlib.axis_1">
    <g id="xtick_1">
     <g id="line2d_1">
      <defs>
       <path d="M 0 0 
L 0 3.5 
" id="m5f6f01f982" style="stroke:#000000;stroke-width:0.8;"/>
      </defs>
      <g>
       <use style="stroke:#000000;stroke-width:0.8;" x="32.551286" xlink:href="#m5f6f01f982" y="109.96"/>
      </g>
     </g>
     <g id="text_1">
      <!-- 0 -->
      <defs>
       <path d="M 31.78125 66.40625 
Q 24.171875 66.40625 20.328125 58.90625 
Q 16.5 51.421875 16.5 36.375 
Q 16.5 21.390625 20.328125 13.890625 
Q 24.171875 6.390625 31.78125 6.390625 
Q 39.453125 6.390625 43.28125 13.890625 
Q 47.125 21.390625 47.125 36.375 
Q 47.125 51.421875 43.28125 58.90625 
Q 39.453125 66.40625 31.78125 66.40625 
z
M 31.78125 74.21875 
Q 44.046875 74.21875 50.515625 64.515625 
Q 56.984375 54.828125 56.984375 36.375 
Q 56.984375 17.96875 50.515625 8.265625 
Q 44.046875 -1.421875 31.78125 -1.421875 
Q 19.53125 -1.421875 13.0625 8.265625 
Q 6.59375 17.96875 6.59375 36.375 
Q 6.59375 54.828125 13.0625 64.515625 
Q 19.53125 74.21875 31.78125 74.21875 
z
" id="DejaVuSans-48"/>
      </defs>
      <g transform="translate(30.006286 123.03875)scale(0.08 -0.08)">
       <use xlink:href="#DejaVuSans-48"/>
      </g>
     </g>
    </g>
    <g id="xtick_2">
     <g id="line2d_2">
      <g>
       <use style="stroke:#000000;stroke-width:0.8;" x="85.252639" xlink:href="#m5f6f01f982" y="109.96"/>
      </g>
     </g>
     <g id="text_2">
      <!-- 5 -->
      <defs>
       <path d="M 10.796875 72.90625 
L 49.515625 72.90625 
L 49.515625 64.59375 
L 19.828125 64.59375 
L 19.828125 46.734375 
Q 21.96875 47.46875 24.109375 47.828125 
Q 26.265625 48.1875 28.421875 48.1875 
Q 40.625 48.1875 47.75 41.5 
Q 54.890625 34.8125 54.890625 23.390625 
Q 54.890625 11.625 47.5625 5.09375 
Q 40.234375 -1.421875 26.90625 -1.421875 
Q 22.3125 -1.421875 17.546875 -0.640625 
Q 12.796875 0.140625 7.71875 1.703125 
L 7.71875 11.625 
Q 12.109375 9.234375 16.796875 8.0625 
Q 21.484375 6.890625 26.703125 6.890625 
Q 35.15625 6.890625 40.078125 11.328125 
Q 45.015625 15.765625 45.015625 23.390625 
Q 45.015625 31 40.078125 35.4375 
Q 35.15625 39.890625 26.703125 39.890625 
Q 22.75 39.890625 18.8125 39.015625 
Q 14.890625 38.140625 10.796875 36.28125 
z
" id="DejaVuSans-53"/>
      </defs>
      <g transform="translate(82.707639 123.03875)scale(0.08 -0.08)">
       <use xlink:href="#DejaVuSans-53"/>
      </g>
     </g>
    </g>
    <g id="text_3">
     <!-- Passive -->
     <defs>
      <path d="M 19.671875 64.796875 
L 19.671875 37.40625 
L 32.078125 37.40625 
Q 38.96875 37.40625 42.71875 40.96875 
Q 46.484375 44.53125 46.484375 51.125 
Q 46.484375 57.671875 42.71875 61.234375 
Q 38.96875 64.796875 32.078125 64.796875 
z
M 9.8125 72.90625 
L 32.078125 72.90625 
Q 44.34375 72.90625 50.609375 67.359375 
Q 56.890625 61.8125 56.890625 51.125 
Q 56.890625 40.328125 50.609375 34.8125 
Q 44.34375 29.296875 32.078125 29.296875 
L 19.671875 29.296875 
L 19.671875 0 
L 9.8125 0 
z
" id="DejaVuSans-80"/>
      <path d="M 34.28125 27.484375 
Q 23.390625 27.484375 19.1875 25 
Q 14.984375 22.515625 14.984375 16.5 
Q 14.984375 11.71875 18.140625 8.90625 
Q 21.296875 6.109375 26.703125 6.109375 
Q 34.1875 6.109375 38.703125 11.40625 
Q 43.21875 16.703125 43.21875 25.484375 
L 43.21875 27.484375 
z
M 52.203125 31.203125 
L 52.203125 0 
L 43.21875 0 
L 43.21875 8.296875 
Q 40.140625 3.328125 35.546875 0.953125 
Q 30.953125 -1.421875 24.3125 -1.421875 
Q 15.921875 -1.421875 10.953125 3.296875 
Q 6 8.015625 6 15.921875 
Q 6 25.140625 12.171875 29.828125 
Q 18.359375 34.515625 30.609375 34.515625 
L 43.21875 34.515625 
L 43.21875 35.40625 
Q 43.21875 41.609375 39.140625 45 
Q 35.0625 48.390625 27.6875 48.390625 
Q 23 48.390625 18.546875 47.265625 
Q 14.109375 46.140625 10.015625 43.890625 
L 10.015625 52.203125 
Q 14.9375 54.109375 19.578125 55.046875 
Q 24.21875 56 28.609375 56 
Q 40.484375 56 46.34375 49.84375 
Q 52.203125 43.703125 52.203125 31.203125 
z
" id="DejaVuSans-97"/>
      <path d="M 44.28125 53.078125 
L 44.28125 44.578125 
Q 40.484375 46.53125 36.375 47.5 
Q 32.28125 48.484375 27.875 48.484375 
Q 21.1875 48.484375 17.84375 46.4375 
Q 14.5 44.390625 14.5 40.28125 
Q 14.5 37.15625 16.890625 35.375 
Q 19.28125 33.59375 26.515625 31.984375 
L 29.59375 31.296875 
Q 39.15625 29.25 43.1875 25.515625 
Q 47.21875 21.78125 47.21875 15.09375 
Q 47.21875 7.46875 41.1875 3.015625 
Q 35.15625 -1.421875 24.609375 -1.421875 
Q 20.21875 -1.421875 15.453125 -0.5625 
Q 10.6875 0.296875 5.421875 2 
L 5.421875 11.28125 
Q 10.40625 8.6875 15.234375 7.390625 
Q 20.0625 6.109375 24.8125 6.109375 
Q 31.15625 6.109375 34.5625 8.28125 
Q 37.984375 10.453125 37.984375 14.40625 
Q 37.984375 18.0625 35.515625 20.015625 
Q 33.0625 21.96875 24.703125 23.78125 
L 21.578125 24.515625 
Q 13.234375 26.265625 9.515625 29.90625 
Q 5.8125 33.546875 5.8125 39.890625 
Q 5.8125 47.609375 11.28125 51.796875 
Q 16.75 56 26.8125 56 
Q 31.78125 56 36.171875 55.265625 
Q 40.578125 54.546875 44.28125 53.078125 
z
" id="DejaVuSans-115"/>
      <path d="M 9.421875 54.6875 
L 18.40625 54.6875 
L 18.40625 0 
L 9.421875 0 
z
M 9.421875 75.984375 
L 18.40625 75.984375 
L 18.40625 64.59375 
L 9.421875 64.59375 
z
" id="DejaVuSans-105"/>
      <path d="M 2.984375 54.6875 
L 12.5 54.6875 
L 29.59375 8.796875 
L 46.6875 54.6875 
L 56.203125 54.6875 
L 35.6875 0 
L 23.484375 0 
z
" id="DejaVuSans-118"/>
      <path d="M 56.203125 29.59375 
L 56.203125 25.203125 
L 14.890625 25.203125 
Q 15.484375 15.921875 20.484375 11.0625 
Q 25.484375 6.203125 34.421875 6.203125 
Q 39.59375 6.203125 44.453125 7.46875 
Q 49.3125 8.734375 54.109375 11.28125 
L 54.109375 2.78125 
Q 49.265625 0.734375 44.1875 -0.34375 
Q 39.109375 -1.421875 33.890625 -1.421875 
Q 20.796875 -1.421875 13.15625 6.1875 
Q 5.515625 13.8125 5.515625 26.8125 
Q 5.515625 40.234375 12.765625 48.109375 
Q 20.015625 56 32.328125 56 
Q 43.359375 56 49.78125 48.890625 
Q 56.203125 41.796875 56.203125 29.59375 
z
M 47.21875 32.234375 
Q 47.125 39.59375 43.09375 43.984375 
Q 39.0625 48.390625 32.421875 48.390625 
Q 24.90625 48.390625 20.390625 44.140625 
Q 15.875 39.890625 15.1875 32.171875 
z
" id="DejaVuSans-101"/>
     </defs>
     <g transform="translate(64.327375 134.78125)scale(0.08 -0.08)">
      <use xlink:href="#DejaVuSans-80"/>
      <use x="60.240234" xlink:href="#DejaVuSans-97"/>
      <use x="121.519531" xlink:href="#DejaVuSans-115"/>
      <use x="173.619141" xlink:href="#DejaVuSans-115"/>
      <use x="225.71875" xlink:href="#DejaVuSans-105"/>
      <use x="253.501953" xlink:href="#DejaVuSans-118"/>
      <use x="312.681641" xlink:href="#DejaVuSans-101"/>
     </g>
    </g>
   </g>
   <g id="matplotlib.axis_2">
    <g id="ytick_1">
     <g id="line2d_3">
      <defs>
       <path d="M 0 0 
L -3.5 0 
" id="m9b1e526ee6" style="stroke:#000000;stroke-width:0.8;"/>
      </defs>
      <g>
       <use style="stroke:#000000;stroke-width:0.8;" x="31.97" xlink:href="#m9b1e526ee6" y="109.489458"/>
      </g>
     </g>
     <g id="text_4">
      <!-- 0 -->
      <g transform="translate(19.88 112.528833)scale(0.08 -0.08)">
       <use xlink:href="#DejaVuSans-48"/>
      </g>
     </g>
    </g>
    <g id="ytick_2">
     <g id="line2d_4">
      <g>
       <use style="stroke:#000000;stroke-width:0.8;" x="31.97" xlink:href="#m9b1e526ee6" y="87.504599"/>
      </g>
     </g>
     <g id="text_5">
      <!-- 2 -->
      <defs>
       <path d="M 19.1875 8.296875 
L 53.609375 8.296875 
L 53.609375 0 
L 7.328125 0 
L 7.328125 8.296875 
Q 12.9375 14.109375 22.625 23.890625 
Q 32.328125 33.6875 34.8125 36.53125 
Q 39.546875 41.84375 41.421875 45.53125 
Q 43.3125 49.21875 43.3125 52.78125 
Q 43.3125 58.59375 39.234375 62.25 
Q 35.15625 65.921875 28.609375 65.921875 
Q 23.96875 65.921875 18.8125 64.3125 
Q 13.671875 62.703125 7.8125 59.421875 
L 7.8125 69.390625 
Q 13.765625 71.78125 18.9375 73 
Q 24.125 74.21875 28.421875 74.21875 
Q 39.75 74.21875 46.484375 68.546875 
Q 53.21875 62.890625 53.21875 53.421875 
Q 53.21875 48.921875 51.53125 44.890625 
Q 49.859375 40.875 45.40625 35.40625 
Q 44.1875 33.984375 37.640625 27.21875 
Q 31.109375 20.453125 19.1875 8.296875 
z
" id="DejaVuSans-50"/>
      </defs>
      <g transform="translate(19.88 90.543974)scale(0.08 -0.08)">
       <use xlink:href="#DejaVuSans-50"/>
      </g>
     </g>
    </g>
    <g id="ytick_3">
     <g id="line2d_5">
      <g>
       <use style="stroke:#000000;stroke-width:0.8;" x="31.97" xlink:href="#m9b1e526ee6" y="65.51974"/>
      </g>
     </g>
     <g id="text_6">
      <!-- 4 -->
      <defs>
       <path d="M 37.796875 64.3125 
L 12.890625 25.390625 
L 37.796875 25.390625 
z
M 35.203125 72.90625 
L 47.609375 72.90625 
L 47.609375 25.390625 
L 58.015625 25.390625 
L 58.015625 17.1875 
L 47.609375 17.1875 
L 47.609375 0 
L 37.796875 0 
L 37.796875 17.1875 
L 4.890625 17.1875 
L 4.890625 26.703125 
z
" id="DejaVuSans-52"/>
      </defs>
      <g transform="translate(19.88 68.559115)scale(0.08 -0.08)">
       <use xlink:href="#DejaVuSans-52"/>
      </g>
     </g>
    </g>
    <g id="ytick_4">
     <g id="line2d_6">
      <g>
       <use style="stroke:#000000;stroke-width:0.8;" x="31.97" xlink:href="#m9b1e526ee6" y="43.534881"/>
      </g>
     </g>
     <g id="text_7">
      <!-- 6 -->
      <defs>
       <path d="M 33.015625 40.375 
Q 26.375 40.375 22.484375 35.828125 
Q 18.609375 31.296875 18.609375 23.390625 
Q 18.609375 15.53125 22.484375 10.953125 
Q 26.375 6.390625 33.015625 6.390625 
Q 39.65625 6.390625 43.53125 10.953125 
Q 47.40625 15.53125 47.40625 23.390625 
Q 47.40625 31.296875 43.53125 35.828125 
Q 39.65625 40.375 33.015625 40.375 
z
M 52.59375 71.296875 
L 52.59375 62.3125 
Q 48.875 64.0625 45.09375 64.984375 
Q 41.3125 65.921875 37.59375 65.921875 
Q 27.828125 65.921875 22.671875 59.328125 
Q 17.53125 52.734375 16.796875 39.40625 
Q 19.671875 43.65625 24.015625 45.921875 
Q 28.375 48.1875 33.59375 48.1875 
Q 44.578125 48.1875 50.953125 41.515625 
Q 57.328125 34.859375 57.328125 23.390625 
Q 57.328125 12.15625 50.6875 5.359375 
Q 44.046875 -1.421875 33.015625 -1.421875 
Q 20.359375 -1.421875 13.671875 8.265625 
Q 6.984375 17.96875 6.984375 36.375 
Q 6.984375 53.65625 15.1875 63.9375 
Q 23.390625 74.21875 37.203125 74.21875 
Q 40.921875 74.21875 44.703125 73.484375 
Q 48.484375 72.75 52.59375 71.296875 
z
" id="DejaVuSans-54"/>
      </defs>
      <g transform="translate(19.88 46.574256)scale(0.08 -0.08)">
       <use xlink:href="#DejaVuSans-54"/>
      </g>
     </g>
    </g>
    <g id="ytick_5">
     <g id="line2d_7">
      <g>
       <use style="stroke:#000000;stroke-width:0.8;" x="31.97" xlink:href="#m9b1e526ee6" y="21.550022"/>
      </g>
     </g>
     <g id="text_8">
      <!-- 8 -->
      <defs>
       <path d="M 31.78125 34.625 
Q 24.75 34.625 20.71875 30.859375 
Q 16.703125 27.09375 16.703125 20.515625 
Q 16.703125 13.921875 20.71875 10.15625 
Q 24.75 6.390625 31.78125 6.390625 
Q 38.8125 6.390625 42.859375 10.171875 
Q 46.921875 13.96875 46.921875 20.515625 
Q 46.921875 27.09375 42.890625 30.859375 
Q 38.875 34.625 31.78125 34.625 
z
M 21.921875 38.8125 
Q 15.578125 40.375 12.03125 44.71875 
Q 8.5 49.078125 8.5 55.328125 
Q 8.5 64.0625 14.71875 69.140625 
Q 20.953125 74.21875 31.78125 74.21875 
Q 42.671875 74.21875 48.875 69.140625 
Q 55.078125 64.0625 55.078125 55.328125 
Q 55.078125 49.078125 51.53125 44.71875 
Q 48 40.375 41.703125 38.8125 
Q 48.828125 37.15625 52.796875 32.3125 
Q 56.78125 27.484375 56.78125 20.515625 
Q 56.78125 9.90625 50.3125 4.234375 
Q 43.84375 -1.421875 31.78125 -1.421875 
Q 19.734375 -1.421875 13.25 4.234375 
Q 6.78125 9.90625 6.78125 20.515625 
Q 6.78125 27.484375 10.78125 32.3125 
Q 14.796875 37.15625 21.921875 38.8125 
z
M 18.3125 54.390625 
Q 18.3125 48.734375 21.84375 45.5625 
Q 25.390625 42.390625 31.78125 42.390625 
Q 38.140625 42.390625 41.71875 45.5625 
Q 45.3125 48.734375 45.3125 54.390625 
Q 45.3125 60.0625 41.71875 63.234375 
Q 38.140625 66.40625 31.78125 66.40625 
Q 25.390625 66.40625 21.84375 63.234375 
Q 18.3125 60.0625 18.3125 54.390625 
z
" id="DejaVuSans-56"/>
      </defs>
      <g transform="translate(19.88 24.589397)scale(0.08 -0.08)">
       <use xlink:href="#DejaVuSans-56"/>
      </g>
     </g>
    </g>
    <g id="text_9">
     <!-- Active -->
     <defs>
      <path d="M 34.1875 63.1875 
L 20.796875 26.90625 
L 47.609375 26.90625 
z
M 28.609375 72.90625 
L 39.796875 72.90625 
L 67.578125 0 
L 57.328125 0 
L 50.6875 18.703125 
L 17.828125 18.703125 
L 11.1875 0 
L 0.78125 0 
z
" id="DejaVuSans-65"/>
      <path d="M 48.78125 52.59375 
L 48.78125 44.1875 
Q 44.96875 46.296875 41.140625 47.34375 
Q 37.3125 48.390625 33.40625 48.390625 
Q 24.65625 48.390625 19.8125 42.84375 
Q 14.984375 37.3125 14.984375 27.296875 
Q 14.984375 17.28125 19.8125 11.734375 
Q 24.65625 6.203125 33.40625 6.203125 
Q 37.3125 6.203125 41.140625 7.25 
Q 44.96875 8.296875 48.78125 10.40625 
L 48.78125 2.09375 
Q 45.015625 0.34375 40.984375 -0.53125 
Q 36.96875 -1.421875 32.421875 -1.421875 
Q 20.0625 -1.421875 12.78125 6.34375 
Q 5.515625 14.109375 5.515625 27.296875 
Q 5.515625 40.671875 12.859375 48.328125 
Q 20.21875 56 33.015625 56 
Q 37.15625 56 41.109375 55.140625 
Q 45.0625 54.296875 48.78125 52.59375 
z
" id="DejaVuSans-99"/>
      <path d="M 18.3125 70.21875 
L 18.3125 54.6875 
L 36.8125 54.6875 
L 36.8125 47.703125 
L 18.3125 47.703125 
L 18.3125 18.015625 
Q 18.3125 11.328125 20.140625 9.421875 
Q 21.96875 7.515625 27.59375 7.515625 
L 36.8125 7.515625 
L 36.8125 0 
L 27.59375 0 
Q 17.1875 0 13.234375 3.875 
Q 9.28125 7.765625 9.28125 18.015625 
L 9.28125 47.703125 
L 2.6875 47.703125 
L 2.6875 54.6875 
L 9.28125 54.6875 
L 9.28125 70.21875 
z
" id="DejaVuSans-116"/>
     </defs>
     <g transform="translate(14.21625 73.183125)rotate(-90)scale(0.08 -0.08)">
      <use xlink:href="#DejaVuSans-65"/>
      <use x="68.392578" xlink:href="#DejaVuSans-99"/>
      <use x="123.373047" xlink:href="#DejaVuSans-116"/>
      <use x="162.582031" xlink:href="#DejaVuSans-105"/>
      <use x="190.365234" xlink:href="#DejaVuSans-118"/>
      <use x="249.544922" xlink:href="#DejaVuSans-101"/>
     </g>
    </g>
   </g>
   <g id="line2d_8">
    <path clip-path="url(#pa0f15ac846)" d="M 36.39059 105.485455 
L 122.20041 15.994545 
" style="fill:none;stroke:#000000;stroke-dasharray:5.55,2.4;stroke-dashoffset:0;stroke-width:1.5;"/>
   </g>
   <g id="patch_3">
    <path d="M 31.97 109.96 
L 31.97 11.52 
" style="fill:none;stroke:#000000;stroke-linecap:square;stroke-linejoin:miter;stroke-width:0.8;"/>
   </g>
   <g id="patch_4">
    <path d="M 31.97 109.96 
L 126.621 109.96 
" style="fill:none;stroke:#000000;stroke-linecap:square;stroke-linejoin:miter;stroke-width:0.8;"/>
   </g>
  </g>
  <g id="axes_2">
   <g id="patch_5">
    <path d="M 178.409 109.96 
L 273.06 109.96 
L 273.06 11.52 
L 178.409 11.52 
z
" style="fill:#ffffff;"/>
   </g>
   <g id="PathCollection_2">
    <defs>
     <path d="M 0 1.581139 
C 0.419323 1.581139 0.821528 1.41454 1.118034 1.118034 
C 1.41454 0.821528 1.581139 0.419323 1.581139 0 
C 1.581139 -0.419323 1.41454 -0.821528 1.118034 -1.118034 
C 0.821528 -1.41454 0.419323 -1.581139 0 -1.581139 
C -0.419323 -1.581139 -0.821528 -1.41454 -1.118034 -1.118034 
C -1.41454 -0.821528 -1.581139 -0.419323 -1.581139 0 
C -1.581139 0.419323 -1.41454 0.821528 -1.118034 1.118034 
C -0.821528 1.41454 -0.419323 1.581139 0 1.581139 
z
" id="m702edfddb1" style="stroke:#ffffff;stroke-opacity:0.8;"/>
    </defs>
    <g clip-path="url(#pc33e730ad8)">
     <use style="fill:#1f77b4;fill-opacity:0.8;stroke:#ffffff;stroke-opacity:0.8;" x="190.428175" xlink:href="#m702edfddb1" y="45.020238"/>
     <use style="fill:#1f77b4;fill-opacity:0.8;stroke:#ffffff;stroke-opacity:0.8;" x="250.097691" xlink:href="#m702edfddb1" y="81.279948"/>
     <use style="fill:#1f77b4;fill-opacity:0.8;stroke:#ffffff;stroke-opacity:0.8;" x="226.461724" xlink:href="#m702edfddb1" y="26.171751"/>
     <use style="fill:#1f77b4;fill-opacity:0.8;stroke:#ffffff;stroke-opacity:0.8;" x="230.633848" xlink:href="#m702edfddb1" y="62.635478"/>
     <use style="fill:#1f77b4;fill-opacity:0.8;stroke:#ffffff;stroke-opacity:0.8;" x="229.047476" xlink:href="#m702edfddb1" y="72.758011"/>
     <use style="fill:#1f77b4;fill-opacity:0.8;stroke:#ffffff;stroke-opacity:0.8;" x="233.622083" xlink:href="#m702edfddb1" y="47.168346"/>
     <use style="fill:#1f77b4;fill-opacity:0.8;stroke:#ffffff;stroke-opacity:0.8;" x="240.415501" xlink:href="#m702edfddb1" y="56.89952"/>
     <use style="fill:#1f77b4;fill-opacity:0.8;stroke:#ffffff;stroke-opacity:0.8;" x="220.926834" xlink:href="#m702edfddb1" y="45.092431"/>
     <use style="fill:#1f77b4;fill-opacity:0.8;stroke:#ffffff;stroke-opacity:0.8;" x="238.777507" xlink:href="#m702edfddb1" y="78.22276"/>
     <use style="fill:#1f77b4;fill-opacity:0.8;stroke:#ffffff;stroke-opacity:0.8;" x="222.601846" xlink:href="#m702edfddb1" y="39.354972"/>
     <use style="fill:#1f77b4;fill-opacity:0.8;stroke:#ffffff;stroke-opacity:0.8;" x="250.036461" xlink:href="#m702edfddb1" y="69.294598"/>
     <use style="fill:#1f77b4;fill-opacity:0.8;stroke:#ffffff;stroke-opacity:0.8;" x="233.79736" xlink:href="#m702edfddb1" y="68.884306"/>
     <use style="fill:#1f77b4;fill-opacity:0.8;stroke:#ffffff;stroke-opacity:0.8;" x="195.644834" xlink:href="#m702edfddb1" y="56.475568"/>
     <use style="fill:#1f77b4;fill-opacity:0.8;stroke:#ffffff;stroke-opacity:0.8;" x="242.423473" xlink:href="#m702edfddb1" y="65.173548"/>
     <use style="fill:#1f77b4;fill-opacity:0.8;stroke:#ffffff;stroke-opacity:0.8;" x="223.8565" xlink:href="#m702edfddb1" y="77.434361"/>
     <use style="fill:#1f77b4;fill-opacity:0.8;stroke:#ffffff;stroke-opacity:0.8;" x="231.864055" xlink:href="#m702edfddb1" y="72.030647"/>
     <use style="fill:#1f77b4;fill-opacity:0.8;stroke:#ffffff;stroke-opacity:0.8;" x="245.155663" xlink:href="#m702edfddb1" y="71.293089"/>
     <use style="fill:#1f77b4;fill-opacity:0.8;stroke:#ffffff;stroke-opacity:0.8;" x="244.420482" xlink:href="#m702edfddb1" y="84.197883"/>
     <use style="fill:#1f77b4;fill-opacity:0.8;stroke:#ffffff;stroke-opacity:0.8;" x="232.521644" xlink:href="#m702edfddb1" y="78.4031"/>
     <use style="fill:#1f77b4;fill-opacity:0.8;stroke:#ffffff;stroke-opacity:0.8;" x="248.326095" xlink:href="#m702edfddb1" y="66.288141"/>
     <use style="fill:#1f77b4;fill-opacity:0.8;stroke:#ffffff;stroke-opacity:0.8;" x="235.786357" xlink:href="#m702edfddb1" y="92.347211"/>
     <use style="fill:#1f77b4;fill-opacity:0.8;stroke:#ffffff;stroke-opacity:0.8;" x="195.220301" xlink:href="#m702edfddb1" y="83.508746"/>
     <use style="fill:#1f77b4;fill-opacity:0.8;stroke:#ffffff;stroke-opacity:0.8;" x="210.077059" xlink:href="#m702edfddb1" y="69.744137"/>
     <use style="fill:#1f77b4;fill-opacity:0.8;stroke:#ffffff;stroke-opacity:0.8;" x="197.147983" xlink:href="#m702edfddb1" y="46.731869"/>
     <use style="fill:#1f77b4;fill-opacity:0.8;stroke:#ffffff;stroke-opacity:0.8;" x="232.122545" xlink:href="#m702edfddb1" y="69.987809"/>
     <use style="fill:#1f77b4;fill-opacity:0.8;stroke:#ffffff;stroke-opacity:0.8;" x="184.670633" xlink:href="#m702edfddb1" y="86.999248"/>
     <use style="fill:#1f77b4;fill-opacity:0.8;stroke:#ffffff;stroke-opacity:0.8;" x="208.26914" xlink:href="#m702edfddb1" y="74.276176"/>
     <use style="fill:#1f77b4;fill-opacity:0.8;stroke:#ffffff;stroke-opacity:0.8;" x="240.47423" xlink:href="#m702edfddb1" y="95.387121"/>
     <use style="fill:#1f77b4;fill-opacity:0.8;stroke:#ffffff;stroke-opacity:0.8;" x="226.489697" xlink:href="#m702edfddb1" y="83.295"/>
     <use style="fill:#1f77b4;fill-opacity:0.8;stroke:#ffffff;stroke-opacity:0.8;" x="247.355366" xlink:href="#m702edfddb1" y="78.150934"/>
     <use style="fill:#1f77b4;fill-opacity:0.8;stroke:#ffffff;stroke-opacity:0.8;" x="248.364354" xlink:href="#m702edfddb1" y="46.251271"/>
     <use style="fill:#1f77b4;fill-opacity:0.8;stroke:#ffffff;stroke-opacity:0.8;" x="237.030301" xlink:href="#m702edfddb1" y="88.126749"/>
     <use style="fill:#1f77b4;fill-opacity:0.8;stroke:#ffffff;stroke-opacity:0.8;" x="248.10403" xlink:href="#m702edfddb1" y="79.602592"/>
     <use style="fill:#1f77b4;fill-opacity:0.8;stroke:#ffffff;stroke-opacity:0.8;" x="257.828806" xlink:href="#m702edfddb1" y="74.782522"/>
     <use style="fill:#1f77b4;fill-opacity:0.8;stroke:#ffffff;stroke-opacity:0.8;" x="262.801093" xlink:href="#m702edfddb1" y="79.435911"/>
     <use style="fill:#1f77b4;fill-opacity:0.8;stroke:#ffffff;stroke-opacity:0.8;" x="252.982515" xlink:href="#m702edfddb1" y="62.263861"/>
     <use style="fill:#1f77b4;fill-opacity:0.8;stroke:#ffffff;stroke-opacity:0.8;" x="259.071433" xlink:href="#m702edfddb1" y="53.031321"/>
     <use style="fill:#1f77b4;fill-opacity:0.8;stroke:#ffffff;stroke-opacity:0.8;" x="232.930193" xlink:href="#m702edfddb1" y="47.564378"/>
     <use style="fill:#1f77b4;fill-opacity:0.8;stroke:#ffffff;stroke-opacity:0.8;" x="211.649525" xlink:href="#m702edfddb1" y="94.560892"/>
     <use style="fill:#1f77b4;fill-opacity:0.8;stroke:#ffffff;stroke-opacity:0.8;" x="245.148827" xlink:href="#m702edfddb1" y="78.761992"/>
     <use style="fill:#1f77b4;fill-opacity:0.8;stroke:#ffffff;stroke-opacity:0.8;" x="236.399951" xlink:href="#m702edfddb1" y="83.512974"/>
     <use style="fill:#1f77b4;fill-opacity:0.8;stroke:#ffffff;stroke-opacity:0.8;" x="261.374689" xlink:href="#m702edfddb1" y="83.252051"/>
     <use style="fill:#1f77b4;fill-opacity:0.8;stroke:#ffffff;stroke-opacity:0.8;" x="239.505335" xlink:href="#m702edfddb1" y="68.320115"/>
     <use style="fill:#1f77b4;fill-opacity:0.8;stroke:#ffffff;stroke-opacity:0.8;" x="203.253515" xlink:href="#m702edfddb1" y="91.675904"/>
     <use style="fill:#1f77b4;fill-opacity:0.8;stroke:#ffffff;stroke-opacity:0.8;" x="212.956618" xlink:href="#m702edfddb1" y="105.058217"/>
     <use style="fill:#1f77b4;fill-opacity:0.8;stroke:#ffffff;stroke-opacity:0.8;" x="239.426794" xlink:href="#m702edfddb1" y="79.187406"/>
     <use style="fill:#1f77b4;fill-opacity:0.8;stroke:#ffffff;stroke-opacity:0.8;" x="252.257584" xlink:href="#m702edfddb1" y="86.28133"/>
     <use style="fill:#1f77b4;fill-opacity:0.8;stroke:#ffffff;stroke-opacity:0.8;" x="226.744558" xlink:href="#m702edfddb1" y="87.848919"/>
     <use style="fill:#1f77b4;fill-opacity:0.8;stroke:#ffffff;stroke-opacity:0.8;" x="237.319604" xlink:href="#m702edfddb1" y="80.150888"/>
     <use style="fill:#1f77b4;fill-opacity:0.8;stroke:#ffffff;stroke-opacity:0.8;" x="257.647484" xlink:href="#m702edfddb1" y="37.13994"/>
     <use style="fill:#1f77b4;fill-opacity:0.8;stroke:#ffffff;stroke-opacity:0.8;" x="256.460755" xlink:href="#m702edfddb1" y="61.879267"/>
     <use style="fill:#1f77b4;fill-opacity:0.8;stroke:#ffffff;stroke-opacity:0.8;" x="253.667702" xlink:href="#m702edfddb1" y="60.495686"/>
     <use style="fill:#1f77b4;fill-opacity:0.8;stroke:#ffffff;stroke-opacity:0.8;" x="253.667702" xlink:href="#m702edfddb1" y="76.46183"/>
     <use style="fill:#1f77b4;fill-opacity:0.8;stroke:#ffffff;stroke-opacity:0.8;" x="245.015261" xlink:href="#m702edfddb1" y="67.018588"/>
     <use style="fill:#1f77b4;fill-opacity:0.8;stroke:#ffffff;stroke-opacity:0.8;" x="245.015261" xlink:href="#m702edfddb1" y="73.542217"/>
     <use style="fill:#1f77b4;fill-opacity:0.8;stroke:#ffffff;stroke-opacity:0.8;" x="233.325841" xlink:href="#m702edfddb1" y="75.858818"/>
     <use style="fill:#1f77b4;fill-opacity:0.8;stroke:#ffffff;stroke-opacity:0.8;" x="233.325841" xlink:href="#m702edfddb1" y="57.97806"/>
     <use style="fill:#1f77b4;fill-opacity:0.8;stroke:#ffffff;stroke-opacity:0.8;" x="255.884311" xlink:href="#m702edfddb1" y="56.724154"/>
     <use style="fill:#1f77b4;fill-opacity:0.8;stroke:#ffffff;stroke-opacity:0.8;" x="255.884311" xlink:href="#m702edfddb1" y="64.705491"/>
     <use style="fill:#1f77b4;fill-opacity:0.8;stroke:#ffffff;stroke-opacity:0.8;" x="240.427057" xlink:href="#m702edfddb1" y="7.820684"/>
    </g>
   </g>
   <g id="PolyCollection_1">
    <path clip-path="url(#pc33e730ad8)" d="M 184.670633 57.608306 
L 184.670633 86.764963 
L 185.459829 86.560898 
L 186.249026 86.355514 
L 187.038223 86.150129 
L 187.827419 85.944744 
L 188.616616 85.706572 
L 189.405812 85.447082 
L 190.195009 85.187262 
L 190.984205 84.926636 
L 191.773402 84.665055 
L 192.562598 84.402125 
L 193.351795 84.111436 
L 194.140992 83.880382 
L 194.930188 83.621275 
L 195.719385 83.362168 
L 196.508581 83.10225 
L 197.297778 82.841623 
L 198.086974 82.59325 
L 198.876171 82.370503 
L 199.665368 82.147756 
L 200.454564 81.925009 
L 201.243761 81.702262 
L 202.032957 81.479515 
L 202.822154 81.256768 
L 203.61135 81.034021 
L 204.400547 80.811274 
L 205.189744 80.580232 
L 205.97894 80.340784 
L 206.768137 80.131515 
L 207.557333 79.895735 
L 208.34653 79.626245 
L 209.135726 79.478704 
L 209.924923 79.257344 
L 210.714119 79.035609 
L 211.503316 78.813874 
L 212.292513 78.592139 
L 213.081709 78.370404 
L 213.870906 78.146293 
L 214.660102 77.924109 
L 215.449299 77.734794 
L 216.238495 77.488986 
L 217.027692 77.259176 
L 217.816889 77.036464 
L 218.606085 76.813752 
L 219.395282 76.593949 
L 220.184478 76.373138 
L 220.973675 76.152327 
L 221.762871 75.978533 
L 222.552068 75.830356 
L 223.341265 75.639675 
L 224.130461 75.471172 
L 224.919658 75.325711 
L 225.708854 75.178434 
L 226.498051 75.063339 
L 227.287247 74.965631 
L 228.076444 74.830473 
L 228.86564 74.62391 
L 229.654837 74.460897 
L 230.444034 74.424237 
L 231.23323 74.275518 
L 232.022427 74.073309 
L 232.811623 73.960091 
L 233.60082 73.745139 
L 234.390016 73.626579 
L 235.179213 73.461311 
L 235.96841 73.421012 
L 236.757606 73.320562 
L 237.546803 73.299169 
L 238.335999 73.166294 
L 239.125196 73.079109 
L 239.914392 73.0568 
L 240.703589 73.019454 
L 241.492786 73.056875 
L 242.281982 73.143172 
L 243.071179 73.182932 
L 243.860375 73.196546 
L 244.649572 73.211357 
L 245.438768 73.259681 
L 246.227965 73.309585 
L 247.017161 73.342187 
L 247.806358 73.372959 
L 248.595555 73.405105 
L 249.384751 73.438361 
L 250.173948 73.470599 
L 250.963144 73.609172 
L 251.752341 73.686323 
L 252.541537 73.837581 
L 253.330734 73.929909 
L 254.119931 73.975773 
L 254.909127 74.065916 
L 255.698324 74.171511 
L 256.48752 74.257205 
L 257.276717 74.286708 
L 258.065913 74.351429 
L 258.85511 74.443641 
L 259.644307 74.572983 
L 260.433503 74.628698 
L 261.2227 74.739152 
L 262.011896 74.91202 
L 262.801093 75.073631 
L 262.801093 60.440982 
L 262.801093 60.440982 
L 262.011896 60.650703 
L 261.2227 60.941036 
L 260.433503 61.178774 
L 259.644307 61.412754 
L 258.85511 61.533339 
L 258.065913 61.662741 
L 257.276717 61.829521 
L 256.48752 61.991775 
L 255.698324 62.189447 
L 254.909127 62.500314 
L 254.119931 62.687249 
L 253.330734 62.822961 
L 252.541537 62.985179 
L 251.752341 63.076932 
L 250.963144 63.168685 
L 250.173948 63.264228 
L 249.384751 63.486796 
L 248.595555 63.509909 
L 247.806358 63.539897 
L 247.017161 63.632671 
L 246.227965 63.725477 
L 245.438768 63.817707 
L 244.649572 63.896024 
L 243.860375 64.055268 
L 243.071179 64.115856 
L 242.281982 64.244634 
L 241.492786 64.366506 
L 240.703589 64.37034 
L 239.914392 64.437067 
L 239.125196 64.495269 
L 238.335999 64.572179 
L 237.546803 64.547481 
L 236.757606 64.625308 
L 235.96841 64.648859 
L 235.179213 64.632867 
L 234.390016 64.657958 
L 233.60082 64.669468 
L 232.811623 64.607797 
L 232.022427 64.631488 
L 231.23323 64.570266 
L 230.444034 64.458771 
L 229.654837 64.431098 
L 228.86564 64.424616 
L 228.076444 64.373943 
L 227.287247 64.363342 
L 226.498051 64.26961 
L 225.708854 64.215499 
L 224.919658 64.161997 
L 224.130461 64.001322 
L 223.341265 63.892762 
L 222.552068 63.711049 
L 221.762871 63.665624 
L 220.973675 63.580605 
L 220.184478 63.50772 
L 219.395282 63.425427 
L 218.606085 63.264391 
L 217.816889 63.118579 
L 217.027692 63.037479 
L 216.238495 62.957929 
L 215.449299 62.794599 
L 214.660102 62.641507 
L 213.870906 62.549855 
L 213.081709 62.482307 
L 212.292513 62.473823 
L 211.503316 62.338831 
L 210.714119 62.199575 
L 209.924923 62.086464 
L 209.135726 62.005212 
L 208.34653 61.891324 
L 207.557333 61.722618 
L 206.768137 61.545622 
L 205.97894 61.373859 
L 205.189744 61.231047 
L 204.400547 61.088526 
L 203.61135 60.934368 
L 202.822154 60.803484 
L 202.032957 60.660962 
L 201.243761 60.518441 
L 200.454564 60.37592 
L 199.665368 60.233399 
L 198.876171 60.092168 
L 198.086974 59.947948 
L 197.297778 59.805024 
L 196.508581 59.6621 
L 195.719385 59.519417 
L 194.930188 59.389599 
L 194.140992 59.249049 
L 193.351795 59.108499 
L 192.562598 58.967949 
L 191.773402 58.827399 
L 190.984205 58.686849 
L 190.195009 58.546299 
L 189.405812 58.406327 
L 188.616616 58.297328 
L 187.827419 58.191456 
L 187.038223 58.047723 
L 186.249026 57.901251 
L 185.459829 57.754778 
L 184.670633 57.608306 
z
" style="fill:#1f77b4;fill-opacity:0.15;"/>
   </g>
   <g id="PathCollection_3">
    <defs>
     <path d="M 0 1.581139 
C 0.419323 1.581139 0.821528 1.41454 1.118034 1.118034 
C 1.41454 0.821528 1.581139 0.419323 1.581139 0 
C 1.581139 -0.419323 1.41454 -0.821528 1.118034 -1.118034 
C 0.821528 -1.41454 0.419323 -1.581139 0 -1.581139 
C -0.419323 -1.581139 -0.821528 -1.41454 -1.118034 -1.118034 
C -1.41454 -0.821528 -1.581139 -0.419323 -1.581139 0 
C -1.581139 0.419323 -1.41454 0.821528 -1.118034 1.118034 
C -0.821528 1.41454 -0.419323 1.581139 0 1.581139 
z
" id="mc81cbc1eda" style="stroke:#ff0000;"/>
    </defs>
    <g clip-path="url(#pc33e730ad8)">
     <use style="fill:#ff0000;stroke:#ff0000;" x="240.427057" xlink:href="#mc81cbc1eda" y="14.732234"/>
    </g>
   </g>
   <g id="matplotlib.axis_3">
    <g id="xtick_3">
     <g id="line2d_9">
      <g>
       <use style="stroke:#000000;stroke-width:0.8;" x="178.409" xlink:href="#m5f6f01f982" y="109.96"/>
      </g>
     </g>
     <g id="text_10">
      <!-- 0.4 -->
      <defs>
       <path d="M 10.6875 12.40625 
L 21 12.40625 
L 21 0 
L 10.6875 0 
z
" id="DejaVuSans-46"/>
      </defs>
      <g transform="translate(172.04775 123.03875)scale(0.08 -0.08)">
       <use xlink:href="#DejaVuSans-48"/>
       <use x="63.623047" xlink:href="#DejaVuSans-46"/>
       <use x="95.410156" xlink:href="#DejaVuSans-52"/>
      </g>
     </g>
    </g>
    <g id="xtick_4">
     <g id="line2d_10">
      <g>
       <use style="stroke:#000000;stroke-width:0.8;" x="209.959333" xlink:href="#m5f6f01f982" y="109.96"/>
      </g>
     </g>
     <g id="text_11">
      <!-- 0.6 -->
      <g transform="translate(203.598083 123.03875)scale(0.08 -0.08)">
       <use xlink:href="#DejaVuSans-48"/>
       <use x="63.623047" xlink:href="#DejaVuSans-46"/>
       <use x="95.410156" xlink:href="#DejaVuSans-54"/>
      </g>
     </g>
    </g>
    <g id="xtick_5">
     <g id="line2d_11">
      <g>
       <use style="stroke:#000000;stroke-width:0.8;" x="241.509667" xlink:href="#m5f6f01f982" y="109.96"/>
      </g>
     </g>
     <g id="text_12">
      <!-- 0.8 -->
      <g transform="translate(235.148417 123.03875)scale(0.08 -0.08)">
       <use xlink:href="#DejaVuSans-48"/>
       <use x="63.623047" xlink:href="#DejaVuSans-46"/>
       <use x="95.410156" xlink:href="#DejaVuSans-56"/>
      </g>
     </g>
    </g>
    <g id="xtick_6">
     <g id="line2d_12">
      <g>
       <use style="stroke:#000000;stroke-width:0.8;" x="273.06" xlink:href="#m5f6f01f982" y="109.96"/>
      </g>
     </g>
     <g id="text_13">
      <!-- 1.0 -->
      <defs>
       <path d="M 12.40625 8.296875 
L 28.515625 8.296875 
L 28.515625 63.921875 
L 10.984375 60.40625 
L 10.984375 69.390625 
L 28.421875 72.90625 
L 38.28125 72.90625 
L 38.28125 8.296875 
L 54.390625 8.296875 
L 54.390625 0 
L 12.40625 0 
z
" id="DejaVuSans-49"/>
      </defs>
      <g transform="translate(266.69875 123.03875)scale(0.08 -0.08)">
       <use xlink:href="#DejaVuSans-49"/>
       <use x="63.623047" xlink:href="#DejaVuSans-46"/>
       <use x="95.410156" xlink:href="#DejaVuSans-48"/>
      </g>
     </g>
    </g>
    <g id="text_14">
     <!-- Behavior performance (DI) -->
     <defs>
      <path d="M 19.671875 34.8125 
L 19.671875 8.109375 
L 35.5 8.109375 
Q 43.453125 8.109375 47.28125 11.40625 
Q 51.125 14.703125 51.125 21.484375 
Q 51.125 28.328125 47.28125 31.5625 
Q 43.453125 34.8125 35.5 34.8125 
z
M 19.671875 64.796875 
L 19.671875 42.828125 
L 34.28125 42.828125 
Q 41.5 42.828125 45.03125 45.53125 
Q 48.578125 48.25 48.578125 53.8125 
Q 48.578125 59.328125 45.03125 62.0625 
Q 41.5 64.796875 34.28125 64.796875 
z
M 9.8125 72.90625 
L 35.015625 72.90625 
Q 46.296875 72.90625 52.390625 68.21875 
Q 58.5 63.53125 58.5 54.890625 
Q 58.5 48.1875 55.375 44.234375 
Q 52.25 40.28125 46.1875 39.3125 
Q 53.46875 37.75 57.5 32.78125 
Q 61.53125 27.828125 61.53125 20.40625 
Q 61.53125 10.640625 54.890625 5.3125 
Q 48.25 0 35.984375 0 
L 9.8125 0 
z
" id="DejaVuSans-66"/>
      <path d="M 54.890625 33.015625 
L 54.890625 0 
L 45.90625 0 
L 45.90625 32.71875 
Q 45.90625 40.484375 42.875 44.328125 
Q 39.84375 48.1875 33.796875 48.1875 
Q 26.515625 48.1875 22.3125 43.546875 
Q 18.109375 38.921875 18.109375 30.90625 
L 18.109375 0 
L 9.078125 0 
L 9.078125 75.984375 
L 18.109375 75.984375 
L 18.109375 46.1875 
Q 21.34375 51.125 25.703125 53.5625 
Q 30.078125 56 35.796875 56 
Q 45.21875 56 50.046875 50.171875 
Q 54.890625 44.34375 54.890625 33.015625 
z
" id="DejaVuSans-104"/>
      <path d="M 30.609375 48.390625 
Q 23.390625 48.390625 19.1875 42.75 
Q 14.984375 37.109375 14.984375 27.296875 
Q 14.984375 17.484375 19.15625 11.84375 
Q 23.34375 6.203125 30.609375 6.203125 
Q 37.796875 6.203125 41.984375 11.859375 
Q 46.1875 17.53125 46.1875 27.296875 
Q 46.1875 37.015625 41.984375 42.703125 
Q 37.796875 48.390625 30.609375 48.390625 
z
M 30.609375 56 
Q 42.328125 56 49.015625 48.375 
Q 55.71875 40.765625 55.71875 27.296875 
Q 55.71875 13.875 49.015625 6.21875 
Q 42.328125 -1.421875 30.609375 -1.421875 
Q 18.84375 -1.421875 12.171875 6.21875 
Q 5.515625 13.875 5.515625 27.296875 
Q 5.515625 40.765625 12.171875 48.375 
Q 18.84375 56 30.609375 56 
z
" id="DejaVuSans-111"/>
      <path d="M 41.109375 46.296875 
Q 39.59375 47.171875 37.8125 47.578125 
Q 36.03125 48 33.890625 48 
Q 26.265625 48 22.1875 43.046875 
Q 18.109375 38.09375 18.109375 28.8125 
L 18.109375 0 
L 9.078125 0 
L 9.078125 54.6875 
L 18.109375 54.6875 
L 18.109375 46.1875 
Q 20.953125 51.171875 25.484375 53.578125 
Q 30.03125 56 36.53125 56 
Q 37.453125 56 38.578125 55.875 
Q 39.703125 55.765625 41.0625 55.515625 
z
" id="DejaVuSans-114"/>
      <path id="DejaVuSans-32"/>
      <path d="M 18.109375 8.203125 
L 18.109375 -20.796875 
L 9.078125 -20.796875 
L 9.078125 54.6875 
L 18.109375 54.6875 
L 18.109375 46.390625 
Q 20.953125 51.265625 25.265625 53.625 
Q 29.59375 56 35.59375 56 
Q 45.5625 56 51.78125 48.09375 
Q 58.015625 40.1875 58.015625 27.296875 
Q 58.015625 14.40625 51.78125 6.484375 
Q 45.5625 -1.421875 35.59375 -1.421875 
Q 29.59375 -1.421875 25.265625 0.953125 
Q 20.953125 3.328125 18.109375 8.203125 
z
M 48.6875 27.296875 
Q 48.6875 37.203125 44.609375 42.84375 
Q 40.53125 48.484375 33.40625 48.484375 
Q 26.265625 48.484375 22.1875 42.84375 
Q 18.109375 37.203125 18.109375 27.296875 
Q 18.109375 17.390625 22.1875 11.75 
Q 26.265625 6.109375 33.40625 6.109375 
Q 40.53125 6.109375 44.609375 11.75 
Q 48.6875 17.390625 48.6875 27.296875 
z
" id="DejaVuSans-112"/>
      <path d="M 37.109375 75.984375 
L 37.109375 68.5 
L 28.515625 68.5 
Q 23.6875 68.5 21.796875 66.546875 
Q 19.921875 64.59375 19.921875 59.515625 
L 19.921875 54.6875 
L 34.71875 54.6875 
L 34.71875 47.703125 
L 19.921875 47.703125 
L 19.921875 0 
L 10.890625 0 
L 10.890625 47.703125 
L 2.296875 47.703125 
L 2.296875 54.6875 
L 10.890625 54.6875 
L 10.890625 58.5 
Q 10.890625 67.625 15.140625 71.796875 
Q 19.390625 75.984375 28.609375 75.984375 
z
" id="DejaVuSans-102"/>
      <path d="M 52 44.1875 
Q 55.375 50.25 60.0625 53.125 
Q 64.75 56 71.09375 56 
Q 79.640625 56 84.28125 50.015625 
Q 88.921875 44.046875 88.921875 33.015625 
L 88.921875 0 
L 79.890625 0 
L 79.890625 32.71875 
Q 79.890625 40.578125 77.09375 44.375 
Q 74.3125 48.1875 68.609375 48.1875 
Q 61.625 48.1875 57.5625 43.546875 
Q 53.515625 38.921875 53.515625 30.90625 
L 53.515625 0 
L 44.484375 0 
L 44.484375 32.71875 
Q 44.484375 40.625 41.703125 44.40625 
Q 38.921875 48.1875 33.109375 48.1875 
Q 26.21875 48.1875 22.15625 43.53125 
Q 18.109375 38.875 18.109375 30.90625 
L 18.109375 0 
L 9.078125 0 
L 9.078125 54.6875 
L 18.109375 54.6875 
L 18.109375 46.1875 
Q 21.1875 51.21875 25.484375 53.609375 
Q 29.78125 56 35.6875 56 
Q 41.65625 56 45.828125 52.96875 
Q 50 49.953125 52 44.1875 
z
" id="DejaVuSans-109"/>
      <path d="M 54.890625 33.015625 
L 54.890625 0 
L 45.90625 0 
L 45.90625 32.71875 
Q 45.90625 40.484375 42.875 44.328125 
Q 39.84375 48.1875 33.796875 48.1875 
Q 26.515625 48.1875 22.3125 43.546875 
Q 18.109375 38.921875 18.109375 30.90625 
L 18.109375 0 
L 9.078125 0 
L 9.078125 54.6875 
L 18.109375 54.6875 
L 18.109375 46.1875 
Q 21.34375 51.125 25.703125 53.5625 
Q 30.078125 56 35.796875 56 
Q 45.21875 56 50.046875 50.171875 
Q 54.890625 44.34375 54.890625 33.015625 
z
" id="DejaVuSans-110"/>
      <path d="M 31 75.875 
Q 24.46875 64.65625 21.28125 53.65625 
Q 18.109375 42.671875 18.109375 31.390625 
Q 18.109375 20.125 21.3125 9.0625 
Q 24.515625 -2 31 -13.1875 
L 23.1875 -13.1875 
Q 15.875 -1.703125 12.234375 9.375 
Q 8.59375 20.453125 8.59375 31.390625 
Q 8.59375 42.28125 12.203125 53.3125 
Q 15.828125 64.359375 23.1875 75.875 
z
" id="DejaVuSans-40"/>
      <path d="M 19.671875 64.796875 
L 19.671875 8.109375 
L 31.59375 8.109375 
Q 46.6875 8.109375 53.6875 14.9375 
Q 60.6875 21.78125 60.6875 36.53125 
Q 60.6875 51.171875 53.6875 57.984375 
Q 46.6875 64.796875 31.59375 64.796875 
z
M 9.8125 72.90625 
L 30.078125 72.90625 
Q 51.265625 72.90625 61.171875 64.09375 
Q 71.09375 55.28125 71.09375 36.53125 
Q 71.09375 17.671875 61.125 8.828125 
Q 51.171875 0 30.078125 0 
L 9.8125 0 
z
" id="DejaVuSans-68"/>
      <path d="M 9.8125 72.90625 
L 19.671875 72.90625 
L 19.671875 0 
L 9.8125 0 
z
" id="DejaVuSans-73"/>
      <path d="M 8.015625 75.875 
L 15.828125 75.875 
Q 23.140625 64.359375 26.78125 53.3125 
Q 30.421875 42.28125 30.421875 31.390625 
Q 30.421875 20.453125 26.78125 9.375 
Q 23.140625 -1.703125 15.828125 -13.1875 
L 8.015625 -13.1875 
Q 14.5 -2 17.703125 9.0625 
Q 20.90625 20.125 20.90625 31.390625 
Q 20.90625 42.671875 17.703125 53.65625 
Q 14.5 64.65625 8.015625 75.875 
z
" id="DejaVuSans-41"/>
     </defs>
     <g transform="translate(172.36075 134.78125)scale(0.08 -0.08)">
      <use xlink:href="#DejaVuSans-66"/>
      <use x="68.603516" xlink:href="#DejaVuSans-101"/>
      <use x="130.126953" xlink:href="#DejaVuSans-104"/>
      <use x="193.505859" xlink:href="#DejaVuSans-97"/>
      <use x="254.785156" xlink:href="#DejaVuSans-118"/>
      <use x="313.964844" xlink:href="#DejaVuSans-105"/>
      <use x="341.748047" xlink:href="#DejaVuSans-111"/>
      <use x="402.929688" xlink:href="#DejaVuSans-114"/>
      <use x="444.042969" xlink:href="#DejaVuSans-32"/>
      <use x="475.830078" xlink:href="#DejaVuSans-112"/>
      <use x="539.306641" xlink:href="#DejaVuSans-101"/>
      <use x="600.830078" xlink:href="#DejaVuSans-114"/>
      <use x="641.943359" xlink:href="#DejaVuSans-102"/>
      <use x="677.148438" xlink:href="#DejaVuSans-111"/>
      <use x="738.330078" xlink:href="#DejaVuSans-114"/>
      <use x="779.427734" xlink:href="#DejaVuSans-109"/>
      <use x="876.839844" xlink:href="#DejaVuSans-97"/>
      <use x="938.119141" xlink:href="#DejaVuSans-110"/>
      <use x="1001.498047" xlink:href="#DejaVuSans-99"/>
      <use x="1056.478516" xlink:href="#DejaVuSans-101"/>
      <use x="1118.001953" xlink:href="#DejaVuSans-32"/>
      <use x="1149.789062" xlink:href="#DejaVuSans-40"/>
      <use x="1188.802734" xlink:href="#DejaVuSans-68"/>
      <use x="1265.804688" xlink:href="#DejaVuSans-73"/>
      <use x="1295.296875" xlink:href="#DejaVuSans-41"/>
     </g>
    </g>
   </g>
   <g id="matplotlib.axis_4">
    <g id="ytick_6">
     <g id="line2d_13">
      <g>
       <use style="stroke:#000000;stroke-width:0.8;" x="178.409" xlink:href="#m9b1e526ee6" y="107.88703"/>
      </g>
     </g>
     <g id="text_15">
      <!-- −1 -->
      <defs>
       <path d="M 10.59375 35.5 
L 73.1875 35.5 
L 73.1875 27.203125 
L 10.59375 27.203125 
z
" id="DejaVuSans-8722"/>
      </defs>
      <g transform="translate(159.61525 110.926405)scale(0.08 -0.08)">
       <use xlink:href="#DejaVuSans-8722"/>
       <use x="83.789062" xlink:href="#DejaVuSans-49"/>
      </g>
     </g>
    </g>
    <g id="ytick_7">
     <g id="line2d_14">
      <g>
       <use style="stroke:#000000;stroke-width:0.8;" x="178.409" xlink:href="#m9b1e526ee6" y="75.764687"/>
      </g>
     </g>
     <g id="text_16">
      <!-- 0 -->
      <g transform="translate(166.319 78.804062)scale(0.08 -0.08)">
       <use xlink:href="#DejaVuSans-48"/>
      </g>
     </g>
    </g>
    <g id="ytick_8">
     <g id="line2d_15">
      <g>
       <use style="stroke:#000000;stroke-width:0.8;" x="178.409" xlink:href="#m9b1e526ee6" y="43.642343"/>
      </g>
     </g>
     <g id="text_17">
      <!-- 1 -->
      <g transform="translate(166.319 46.681718)scale(0.08 -0.08)">
       <use xlink:href="#DejaVuSans-49"/>
      </g>
     </g>
    </g>
    <g id="ytick_9">
     <g id="line2d_16">
      <g>
       <use style="stroke:#000000;stroke-width:0.8;" x="178.409" xlink:href="#m9b1e526ee6" y="11.52"/>
      </g>
     </g>
     <g id="text_18">
      <!-- 2 -->
      <g transform="translate(166.319 14.559375)scale(0.08 -0.08)">
       <use xlink:href="#DejaVuSans-50"/>
      </g>
     </g>
    </g>
    <g id="text_19">
     <!-- $\Delta d'$ -->
     <defs>
      <path d="M 34.1875 63.1875 
L 14.15625 8.203125 
L 54.25 8.203125 
z
M 0.78125 0 
L 28.609375 72.90625 
L 39.796875 72.90625 
L 67.578125 0 
z
" id="DejaVuSans-916"/>
      <path d="M 41.796875 8.203125 
Q 38.1875 3.46875 33.25 1.015625 
Q 28.328125 -1.421875 22.3125 -1.421875 
Q 14.109375 -1.421875 9.34375 4.171875 
Q 4.59375 9.765625 4.59375 19.484375 
Q 4.59375 27.59375 7.46875 34.9375 
Q 10.359375 42.28125 15.828125 48.09375 
Q 19.4375 51.953125 23.96875 53.96875 
Q 28.515625 56 33.5 56 
Q 38.765625 56 42.796875 53.453125 
Q 46.828125 50.921875 49.03125 46.1875 
L 54.890625 75.984375 
L 63.921875 75.984375 
L 49.125 0 
L 40.09375 0 
z
M 13.921875 21.09375 
Q 13.921875 14.015625 17.109375 10.0625 
Q 20.3125 6.109375 25.984375 6.109375 
Q 30.171875 6.109375 33.765625 8.125 
Q 37.359375 10.15625 40.09375 14.109375 
Q 42.96875 18.21875 44.625 23.578125 
Q 46.296875 28.953125 46.296875 34.1875 
Q 46.296875 40.96875 43.09375 44.765625 
Q 39.890625 48.578125 34.28125 48.578125 
Q 30.03125 48.578125 26.359375 46.578125 
Q 22.703125 44.578125 20.125 40.828125 
Q 17.28125 36.765625 15.59375 31.390625 
Q 13.921875 26.03125 13.921875 21.09375 
z
" id="DejaVuSans-Oblique-100"/>
      <path d="M 3.515625 5.421875 
Q 2.875 5.609375 2.875 6.390625 
L 15.09375 51.8125 
Q 15.671875 53.65625 17.078125 54.78125 
Q 18.5 55.90625 20.3125 55.90625 
Q 22.65625 55.90625 24.4375 54.359375 
Q 26.21875 52.828125 26.21875 50.484375 
Q 26.21875 49.46875 25.6875 48.1875 
L 7.625 4.984375 
Q 7.28125 4.296875 6.6875 4.296875 
Q 6.15625 4.296875 5 4.78125 
Q 3.859375 5.28125 3.515625 5.421875 
z
" id="Cmsy10-48"/>
     </defs>
     <g transform="translate(144.99325 67.22)rotate(-90)scale(0.08 -0.08)">
      <use transform="translate(0 0.584375)" xlink:href="#DejaVuSans-916"/>
      <use transform="translate(68.408203 0.584375)" xlink:href="#DejaVuSans-Oblique-100"/>
      <use transform="translate(139.332474 38.865625)scale(0.7)" xlink:href="#Cmsy10-48"/>
     </g>
     <!-- (Active - Passive) -->
     <defs>
      <path d="M 4.890625 31.390625 
L 31.203125 31.390625 
L 31.203125 23.390625 
L 4.890625 23.390625 
z
" id="DejaVuSans-45"/>
     </defs>
     <g transform="translate(153.9515 95.258125)rotate(-90)scale(0.08 -0.08)">
      <use xlink:href="#DejaVuSans-40"/>
      <use x="39.013672" xlink:href="#DejaVuSans-65"/>
      <use x="107.40625" xlink:href="#DejaVuSans-99"/>
      <use x="162.386719" xlink:href="#DejaVuSans-116"/>
      <use x="201.595703" xlink:href="#DejaVuSans-105"/>
      <use x="229.378906" xlink:href="#DejaVuSans-118"/>
      <use x="288.558594" xlink:href="#DejaVuSans-101"/>
      <use x="350.082031" xlink:href="#DejaVuSans-32"/>
      <use x="381.869141" xlink:href="#DejaVuSans-45"/>
      <use x="417.953125" xlink:href="#DejaVuSans-32"/>
      <use x="449.740234" xlink:href="#DejaVuSans-80"/>
      <use x="509.980469" xlink:href="#DejaVuSans-97"/>
      <use x="571.259766" xlink:href="#DejaVuSans-115"/>
      <use x="623.359375" xlink:href="#DejaVuSans-115"/>
      <use x="675.458984" xlink:href="#DejaVuSans-105"/>
      <use x="703.242188" xlink:href="#DejaVuSans-118"/>
      <use x="762.421875" xlink:href="#DejaVuSans-101"/>
      <use x="823.945312" xlink:href="#DejaVuSans-41"/>
     </g>
    </g>
   </g>
   <g id="line2d_17">
    <path clip-path="url(#pc33e730ad8)" d="M 184.670633 71.550675 
L 185.459829 71.514336 
L 186.249026 71.477996 
L 187.038223 71.441657 
L 187.827419 71.405317 
L 188.616616 71.368978 
L 189.405812 71.332638 
L 190.195009 71.296299 
L 190.984205 71.259959 
L 191.773402 71.223619 
L 192.562598 71.18728 
L 193.351795 71.15094 
L 194.140992 71.114601 
L 194.930188 71.078261 
L 195.719385 71.041922 
L 196.508581 71.005582 
L 197.297778 70.969243 
L 198.086974 70.932903 
L 198.876171 70.896564 
L 199.665368 70.860224 
L 200.454564 70.823884 
L 201.243761 70.787545 
L 202.032957 70.751205 
L 202.822154 70.714866 
L 203.61135 70.678526 
L 204.400547 70.642187 
L 205.189744 70.605847 
L 205.97894 70.569508 
L 206.768137 70.533168 
L 207.557333 70.496828 
L 208.34653 70.460489 
L 209.135726 70.424149 
L 209.924923 70.38781 
L 210.714119 70.35147 
L 211.503316 70.315131 
L 212.292513 70.278791 
L 213.081709 70.242452 
L 213.870906 70.206112 
L 214.660102 70.169773 
L 215.449299 70.133433 
L 216.238495 70.097093 
L 217.027692 70.060754 
L 217.816889 70.024414 
L 218.606085 69.988075 
L 219.395282 69.951735 
L 220.184478 69.915396 
L 220.973675 69.879056 
L 221.762871 69.842717 
L 222.552068 69.806377 
L 223.341265 69.770038 
L 224.130461 69.733698 
L 224.919658 69.697358 
L 225.708854 69.661019 
L 226.498051 69.624679 
L 227.287247 69.58834 
L 228.076444 69.552 
L 228.86564 69.515661 
L 229.654837 69.479321 
L 230.444034 69.442982 
L 231.23323 69.406642 
L 232.022427 69.370302 
L 232.811623 69.333963 
L 233.60082 69.297623 
L 234.390016 69.261284 
L 235.179213 69.224944 
L 235.96841 69.188605 
L 236.757606 69.152265 
L 237.546803 69.115926 
L 238.335999 69.079586 
L 239.125196 69.043247 
L 239.914392 69.006907 
L 240.703589 68.970567 
L 241.492786 68.934228 
L 242.281982 68.897888 
L 243.071179 68.861549 
L 243.860375 68.825209 
L 244.649572 68.78887 
L 245.438768 68.75253 
L 246.227965 68.716191 
L 247.017161 68.679851 
L 247.806358 68.643511 
L 248.595555 68.607172 
L 249.384751 68.570832 
L 250.173948 68.534493 
L 250.963144 68.498153 
L 251.752341 68.461814 
L 252.541537 68.425474 
L 253.330734 68.389135 
L 254.119931 68.352795 
L 254.909127 68.316456 
L 255.698324 68.280116 
L 256.48752 68.243776 
L 257.276717 68.207437 
L 258.065913 68.171097 
L 258.85511 68.134758 
L 259.644307 68.098418 
L 260.433503 68.062079 
L 261.2227 68.025739 
L 262.011896 67.9894 
L 262.801093 67.95306 
" style="fill:none;stroke:#1f77b4;stroke-linecap:square;stroke-width:2.25;"/>
   </g>
   <g id="line2d_18">
    <path clip-path="url(#pc33e730ad8)" d="M 178.409 75.764687 
L 273.06 75.764687 
" style="fill:none;stroke:#000000;stroke-dasharray:5.55,2.4;stroke-dashoffset:0;stroke-width:1.5;"/>
   </g>
   <g id="line2d_19">
    <path clip-path="url(#pc33e730ad8)" d="M 194.184167 109.96 
L 194.184167 11.52 
" style="fill:none;stroke:#000000;stroke-dasharray:5.55,2.4;stroke-dashoffset:0;stroke-width:1.5;"/>
   </g>
   <g id="patch_6">
    <path d="M 178.409 109.96 
L 178.409 11.52 
" style="fill:none;stroke:#000000;stroke-linecap:square;stroke-linejoin:miter;stroke-width:0.8;"/>
   </g>
   <g id="patch_7">
    <path d="M 178.409 109.96 
L 273.06 109.96 
" style="fill:none;stroke:#000000;stroke-linecap:square;stroke-linejoin:miter;stroke-width:0.8;"/>
   </g>
   <g id="text_20">
    <!-- (0.793, 2.115) -->
    <defs>
     <path d="M 8.203125 72.90625 
L 55.078125 72.90625 
L 55.078125 68.703125 
L 28.609375 0 
L 18.3125 0 
L 43.21875 64.59375 
L 8.203125 64.59375 
z
" id="DejaVuSans-55"/>
     <path d="M 10.984375 1.515625 
L 10.984375 10.5 
Q 14.703125 8.734375 18.5 7.8125 
Q 22.3125 6.890625 25.984375 6.890625 
Q 35.75 6.890625 40.890625 13.453125 
Q 46.046875 20.015625 46.78125 33.40625 
Q 43.953125 29.203125 39.59375 26.953125 
Q 35.25 24.703125 29.984375 24.703125 
Q 19.046875 24.703125 12.671875 31.3125 
Q 6.296875 37.9375 6.296875 49.421875 
Q 6.296875 60.640625 12.9375 67.421875 
Q 19.578125 74.21875 30.609375 74.21875 
Q 43.265625 74.21875 49.921875 64.515625 
Q 56.59375 54.828125 56.59375 36.375 
Q 56.59375 19.140625 48.40625 8.859375 
Q 40.234375 -1.421875 26.421875 -1.421875 
Q 22.703125 -1.421875 18.890625 -0.6875 
Q 15.09375 0.046875 10.984375 1.515625 
z
M 30.609375 32.421875 
Q 37.25 32.421875 41.125 36.953125 
Q 45.015625 41.5 45.015625 49.421875 
Q 45.015625 57.28125 41.125 61.84375 
Q 37.25 66.40625 30.609375 66.40625 
Q 23.96875 66.40625 20.09375 61.84375 
Q 16.21875 57.28125 16.21875 49.421875 
Q 16.21875 41.5 20.09375 36.953125 
Q 23.96875 32.421875 30.609375 32.421875 
z
" id="DejaVuSans-57"/>
     <path d="M 40.578125 39.3125 
Q 47.65625 37.796875 51.625 33 
Q 55.609375 28.21875 55.609375 21.1875 
Q 55.609375 10.40625 48.1875 4.484375 
Q 40.765625 -1.421875 27.09375 -1.421875 
Q 22.515625 -1.421875 17.65625 -0.515625 
Q 12.796875 0.390625 7.625 2.203125 
L 7.625 11.71875 
Q 11.71875 9.328125 16.59375 8.109375 
Q 21.484375 6.890625 26.8125 6.890625 
Q 36.078125 6.890625 40.9375 10.546875 
Q 45.796875 14.203125 45.796875 21.1875 
Q 45.796875 27.640625 41.28125 31.265625 
Q 36.765625 34.90625 28.71875 34.90625 
L 20.21875 34.90625 
L 20.21875 43.015625 
L 29.109375 43.015625 
Q 36.375 43.015625 40.234375 45.921875 
Q 44.09375 48.828125 44.09375 54.296875 
Q 44.09375 59.90625 40.109375 62.90625 
Q 36.140625 65.921875 28.71875 65.921875 
Q 24.65625 65.921875 20.015625 65.03125 
Q 15.375 64.15625 9.8125 62.3125 
L 9.8125 71.09375 
Q 15.4375 72.65625 20.34375 73.4375 
Q 25.25 74.21875 29.59375 74.21875 
Q 40.828125 74.21875 47.359375 69.109375 
Q 53.90625 64.015625 53.90625 55.328125 
Q 53.90625 49.265625 50.4375 45.09375 
Q 46.96875 40.921875 40.578125 39.3125 
z
" id="DejaVuSans-51"/>
     <path d="M 11.71875 12.40625 
L 22.015625 12.40625 
L 22.015625 4 
L 14.015625 -11.625 
L 7.71875 -11.625 
L 11.71875 4 
z
" id="DejaVuSans-44"/>
    </defs>
    <g transform="translate(248.31464 14.732234)scale(0.04 -0.04)">
     <use xlink:href="#DejaVuSans-40"/>
     <use x="39.013672" xlink:href="#DejaVuSans-48"/>
     <use x="102.636719" xlink:href="#DejaVuSans-46"/>
     <use x="134.423828" xlink:href="#DejaVuSans-55"/>
     <use x="198.046875" xlink:href="#DejaVuSans-57"/>
     <use x="261.669922" xlink:href="#DejaVuSans-51"/>
     <use x="325.292969" xlink:href="#DejaVuSans-44"/>
     <use x="357.080078" xlink:href="#DejaVuSans-32"/>
     <use x="388.867188" xlink:href="#DejaVuSans-50"/>
     <use x="452.490234" xlink:href="#DejaVuSans-46"/>
     <use x="484.277344" xlink:href="#DejaVuSans-49"/>
     <use x="547.900391" xlink:href="#DejaVuSans-49"/>
     <use x="611.523438" xlink:href="#DejaVuSans-53"/>
     <use x="675.146484" xlink:href="#DejaVuSans-41"/>
    </g>
   </g>
  </g>
 </g>
 <defs>
  <clipPath id="pa0f15ac846">
   <rect height="98.44" width="94.651" x="31.97" y="11.52"/>
  </clipPath>
  <clipPath id="pc33e730ad8">
   <rect height="98.44" width="94.651" x="178.409" y="11.52"/>
  </clipPath>
 </defs>
</svg>
