<?xml version="1.0" encoding="utf-8" standalone="no"?>
<!DOCTYPE svg PUBLIC "-//W3C//DTD SVG 1.1//EN"
  "http://www.w3.org/Graphics/SVG/1.1/DTD/svg11.dtd">
<!-- Created with matplotlib (https://matplotlib.org/) -->
<svg height="288pt" version="1.1" viewBox="0 0 576 288" width="576pt" xmlns="http://www.w3.org/2000/svg" xmlns:xlink="http://www.w3.org/1999/xlink">
 <defs>
  <style type="text/css">
*{stroke-linecap:butt;stroke-linejoin:round;}
  </style>
 </defs>
 <g id="figure_1">
  <g id="patch_1">
   <path d="M 0 288 
L 576 288 
L 576 0 
L 0 0 
z
" style="fill:#ffffff;"/>
  </g>
  <g id="axes_1">
   <g id="patch_2">
    <path d="M 38.27 246.04 
L 263.819183 246.04 
L 263.819183 27.816 
L 38.27 27.816 
z
" style="fill:#ffffff;"/>
   </g>
   <g id="PathCollection_1">
    <defs>
     <path d="M 0 3.535534 
C 0.937635 3.535534 1.836992 3.163008 2.5 2.5 
C 3.163008 1.836992 3.535534 0.937635 3.535534 0 
C 3.535534 -0.937635 3.163008 -1.836992 2.5 -2.5 
C 1.836992 -3.163008 0.937635 -3.535534 0 -3.535534 
C -0.937635 -3.535534 -1.836992 -3.163008 -2.5 -2.5 
C -3.163008 -1.836992 -3.535534 -0.937635 -3.535534 0 
C -3.535534 0.937635 -3.163008 1.836992 -2.5 2.5 
C -1.836992 3.163008 -0.937635 3.535534 0 3.535534 
z
" id="m4bb0825c64" style="stroke:#ffffff;"/>
    </defs>
    <g clip-path="url(#pb24ed1042e)">
     <use style="fill:#1f77b4;stroke:#ffffff;" x="60.802317" xlink:href="#m4bb0825c64" y="200.724447"/>
     <use style="fill:#1f77b4;stroke:#ffffff;" x="74.568531" xlink:href="#m4bb0825c64" y="212.434365"/>
     <use style="fill:#1f77b4;stroke:#ffffff;" x="108.930843" xlink:href="#m4bb0825c64" y="136.544676"/>
     <use style="fill:#1f77b4;stroke:#ffffff;" x="48.853005" xlink:href="#m4bb0825c64" y="226.238539"/>
     <use style="fill:#1f77b4;stroke:#ffffff;" x="78.244879" xlink:href="#m4bb0825c64" y="204.174209"/>
     <use style="fill:#1f77b4;stroke:#ffffff;" x="107.60381" xlink:href="#m4bb0825c64" y="144.036648"/>
     <use style="fill:#1f77b4;stroke:#ffffff;" x="57.009117" xlink:href="#m4bb0825c64" y="214.427141"/>
     <use style="fill:#1f77b4;stroke:#ffffff;" x="73.898282" xlink:href="#m4bb0825c64" y="187.838411"/>
     <use style="fill:#1f77b4;stroke:#ffffff;" x="66.839953" xlink:href="#m4bb0825c64" y="213.089103"/>
     <use style="fill:#1f77b4;stroke:#ffffff;" x="109.207757" xlink:href="#m4bb0825c64" y="152.968218"/>
     <use style="fill:#1f77b4;stroke:#ffffff;" x="76.160727" xlink:href="#m4bb0825c64" y="208.160369"/>
     <use style="fill:#1f77b4;stroke:#ffffff;" x="79.24812" xlink:href="#m4bb0825c64" y="202.728002"/>
     <use style="fill:#1f77b4;stroke:#ffffff;" x="105.902831" xlink:href="#m4bb0825c64" y="166.445968"/>
     <use style="fill:#1f77b4;stroke:#ffffff;" x="71.989929" xlink:href="#m4bb0825c64" y="209.199808"/>
     <use style="fill:#1f77b4;stroke:#ffffff;" x="86.017249" xlink:href="#m4bb0825c64" y="202.670462"/>
     <use style="fill:#1f77b4;stroke:#ffffff;" x="60.374852" xlink:href="#m4bb0825c64" y="209.399185"/>
     <use style="fill:#1f77b4;stroke:#ffffff;" x="97.301646" xlink:href="#m4bb0825c64" y="184.366846"/>
     <use style="fill:#1f77b4;stroke:#ffffff;" x="79.532049" xlink:href="#m4bb0825c64" y="212.724956"/>
     <use style="fill:#1f77b4;stroke:#ffffff;" x="90.50163" xlink:href="#m4bb0825c64" y="198.294787"/>
     <use style="fill:#1f77b4;stroke:#ffffff;" x="94.706989" xlink:href="#m4bb0825c64" y="184.606166"/>
     <use style="fill:#1f77b4;stroke:#ffffff;" x="98.990518" xlink:href="#m4bb0825c64" y="198.447984"/>
     <use style="fill:#1f77b4;stroke:#ffffff;" x="92.015149" xlink:href="#m4bb0825c64" y="189.783359"/>
     <use style="fill:#1f77b4;stroke:#ffffff;" x="132.811464" xlink:href="#m4bb0825c64" y="151.904016"/>
     <use style="fill:#1f77b4;stroke:#ffffff;" x="90.649696" xlink:href="#m4bb0825c64" y="179.499344"/>
     <use style="fill:#1f77b4;stroke:#ffffff;" x="98.305607" xlink:href="#m4bb0825c64" y="177.587152"/>
     <use style="fill:#1f77b4;stroke:#ffffff;" x="107.702639" xlink:href="#m4bb0825c64" y="188.475567"/>
     <use style="fill:#1f77b4;stroke:#ffffff;" x="101.463338" xlink:href="#m4bb0825c64" y="183.128392"/>
     <use style="fill:#1f77b4;stroke:#ffffff;" x="86.708761" xlink:href="#m4bb0825c64" y="198.113518"/>
     <use style="fill:#1f77b4;stroke:#ffffff;" x="104.180341" xlink:href="#m4bb0825c64" y="188.676839"/>
     <use style="fill:#1f77b4;stroke:#ffffff;" x="72.163289" xlink:href="#m4bb0825c64" y="214.334641"/>
     <use style="fill:#1f77b4;stroke:#ffffff;" x="69.827738" xlink:href="#m4bb0825c64" y="190.118086"/>
     <use style="fill:#1f77b4;stroke:#ffffff;" x="101.442035" xlink:href="#m4bb0825c64" y="192.379835"/>
     <use style="fill:#1f77b4;stroke:#ffffff;" x="78.500116" xlink:href="#m4bb0825c64" y="211.585265"/>
     <use style="fill:#1f77b4;stroke:#ffffff;" x="98.031188" xlink:href="#m4bb0825c64" y="174.310454"/>
     <use style="fill:#1f77b4;stroke:#ffffff;" x="147.721392" xlink:href="#m4bb0825c64" y="138.064269"/>
     <use style="fill:#1f77b4;stroke:#ffffff;" x="92.406394" xlink:href="#m4bb0825c64" y="185.134173"/>
     <use style="fill:#1f77b4;stroke:#ffffff;" x="127.741108" xlink:href="#m4bb0825c64" y="128.157439"/>
     <use style="fill:#1f77b4;stroke:#ffffff;" x="106.426077" xlink:href="#m4bb0825c64" y="158.161293"/>
     <use style="fill:#1f77b4;stroke:#ffffff;" x="117.797099" xlink:href="#m4bb0825c64" y="184.98197"/>
     <use style="fill:#1f77b4;stroke:#ffffff;" x="75.654286" xlink:href="#m4bb0825c64" y="201.025735"/>
     <use style="fill:#1f77b4;stroke:#ffffff;" x="92.040215" xlink:href="#m4bb0825c64" y="200.48875"/>
     <use style="fill:#1f77b4;stroke:#ffffff;" x="110.583174" xlink:href="#m4bb0825c64" y="181.03654"/>
     <use style="fill:#1f77b4;stroke:#ffffff;" x="74.621806" xlink:href="#m4bb0825c64" y="204.943467"/>
     <use style="fill:#1f77b4;stroke:#ffffff;" x="249.289667" xlink:href="#m4bb0825c64" y="38.028136"/>
     <use style="fill:#1f77b4;stroke:#ffffff;" x="176.44819" xlink:href="#m4bb0825c64" y="90.777284"/>
     <use style="fill:#1f77b4;stroke:#ffffff;" x="132.977894" xlink:href="#m4bb0825c64" y="139.267765"/>
     <use style="fill:#1f77b4;stroke:#ffffff;" x="73.069637" xlink:href="#m4bb0825c64" y="197.770396"/>
     <use style="fill:#1f77b4;stroke:#ffffff;" x="93.493363" xlink:href="#m4bb0825c64" y="187.018268"/>
     <use style="fill:#1f77b4;stroke:#ffffff;" x="93.912474" xlink:href="#m4bb0825c64" y="195.908192"/>
     <use style="fill:#1f77b4;stroke:#ffffff;" x="108.444" xlink:href="#m4bb0825c64" y="135.654356"/>
     <use style="fill:#1f77b4;stroke:#ffffff;" x="121.161309" xlink:href="#m4bb0825c64" y="155.427802"/>
     <use style="fill:#1f77b4;stroke:#ffffff;" x="96.975091" xlink:href="#m4bb0825c64" y="177.251244"/>
     <use style="fill:#1f77b4;stroke:#ffffff;" x="118.055796" xlink:href="#m4bb0825c64" y="169.776633"/>
     <use style="fill:#1f77b4;stroke:#ffffff;" x="88.79732" xlink:href="#m4bb0825c64" y="191.521596"/>
     <use style="fill:#1f77b4;stroke:#ffffff;" x="128.810947" xlink:href="#m4bb0825c64" y="161.050958"/>
     <use style="fill:#1f77b4;stroke:#ffffff;" x="77.092753" xlink:href="#m4bb0825c64" y="208.587464"/>
     <use style="fill:#1f77b4;stroke:#ffffff;" x="90.899114" xlink:href="#m4bb0825c64" y="181.595314"/>
     <use style="fill:#1f77b4;stroke:#ffffff;" x="73.172074" xlink:href="#m4bb0825c64" y="196.526559"/>
     <use style="fill:#1f77b4;stroke:#ffffff;" x="92.231742" xlink:href="#m4bb0825c64" y="181.678842"/>
     <use style="fill:#1f77b4;stroke:#ffffff;" x="99.019905" xlink:href="#m4bb0825c64" y="61.592649"/>
    </g>
   </g>
   <g id="matplotlib.axis_1">
    <g id="xtick_1">
     <g id="line2d_1">
      <defs>
       <path d="M 0 0 
L 0 3.5 
" id="m9c7da00862" style="stroke:#000000;stroke-width:0.8;"/>
      </defs>
      <g>
       <use style="stroke:#000000;stroke-width:0.8;" x="39.498395" xlink:href="#m9c7da00862" y="246.04"/>
      </g>
     </g>
     <g id="text_1">
      <!-- 0 -->
      <defs>
       <path d="M 31.78125 66.40625 
Q 24.171875 66.40625 20.328125 58.90625 
Q 16.5 51.421875 16.5 36.375 
Q 16.5 21.390625 20.328125 13.890625 
Q 24.171875 6.390625 31.78125 6.390625 
Q 39.453125 6.390625 43.28125 13.890625 
Q 47.125 21.390625 47.125 36.375 
Q 47.125 51.421875 43.28125 58.90625 
Q 39.453125 66.40625 31.78125 66.40625 
z
M 31.78125 74.21875 
Q 44.046875 74.21875 50.515625 64.515625 
Q 56.984375 54.828125 56.984375 36.375 
Q 56.984375 17.96875 50.515625 8.265625 
Q 44.046875 -1.421875 31.78125 -1.421875 
Q 19.53125 -1.421875 13.0625 8.265625 
Q 6.59375 17.96875 6.59375 36.375 
Q 6.59375 54.828125 13.0625 64.515625 
Q 19.53125 74.21875 31.78125 74.21875 
z
" id="DejaVuSans-48"/>
      </defs>
      <g transform="translate(36.317145 260.638438)scale(0.1 -0.1)">
       <use xlink:href="#DejaVuSans-48"/>
      </g>
     </g>
    </g>
    <g id="xtick_2">
     <g id="line2d_2">
      <g>
       <use style="stroke:#000000;stroke-width:0.8;" x="92.229768" xlink:href="#m9c7da00862" y="246.04"/>
      </g>
     </g>
     <g id="text_2">
      <!-- 2 -->
      <defs>
       <path d="M 19.1875 8.296875 
L 53.609375 8.296875 
L 53.609375 0 
L 7.328125 0 
L 7.328125 8.296875 
Q 12.9375 14.109375 22.625 23.890625 
Q 32.328125 33.6875 34.8125 36.53125 
Q 39.546875 41.84375 41.421875 45.53125 
Q 43.3125 49.21875 43.3125 52.78125 
Q 43.3125 58.59375 39.234375 62.25 
Q 35.15625 65.921875 28.609375 65.921875 
Q 23.96875 65.921875 18.8125 64.3125 
Q 13.671875 62.703125 7.8125 59.421875 
L 7.8125 69.390625 
Q 13.765625 71.78125 18.9375 73 
Q 24.125 74.21875 28.421875 74.21875 
Q 39.75 74.21875 46.484375 68.546875 
Q 53.21875 62.890625 53.21875 53.421875 
Q 53.21875 48.921875 51.53125 44.890625 
Q 49.859375 40.875 45.40625 35.40625 
Q 44.1875 33.984375 37.640625 27.21875 
Q 31.109375 20.453125 19.1875 8.296875 
z
" id="DejaVuSans-50"/>
      </defs>
      <g transform="translate(89.048518 260.638438)scale(0.1 -0.1)">
       <use xlink:href="#DejaVuSans-50"/>
      </g>
     </g>
    </g>
    <g id="xtick_3">
     <g id="line2d_3">
      <g>
       <use style="stroke:#000000;stroke-width:0.8;" x="144.961142" xlink:href="#m9c7da00862" y="246.04"/>
      </g>
     </g>
     <g id="text_3">
      <!-- 4 -->
      <defs>
       <path d="M 37.796875 64.3125 
L 12.890625 25.390625 
L 37.796875 25.390625 
z
M 35.203125 72.90625 
L 47.609375 72.90625 
L 47.609375 25.390625 
L 58.015625 25.390625 
L 58.015625 17.1875 
L 47.609375 17.1875 
L 47.609375 0 
L 37.796875 0 
L 37.796875 17.1875 
L 4.890625 17.1875 
L 4.890625 26.703125 
z
" id="DejaVuSans-52"/>
      </defs>
      <g transform="translate(141.779892 260.638438)scale(0.1 -0.1)">
       <use xlink:href="#DejaVuSans-52"/>
      </g>
     </g>
    </g>
    <g id="xtick_4">
     <g id="line2d_4">
      <g>
       <use style="stroke:#000000;stroke-width:0.8;" x="197.692515" xlink:href="#m9c7da00862" y="246.04"/>
      </g>
     </g>
     <g id="text_4">
      <!-- 6 -->
      <defs>
       <path d="M 33.015625 40.375 
Q 26.375 40.375 22.484375 35.828125 
Q 18.609375 31.296875 18.609375 23.390625 
Q 18.609375 15.53125 22.484375 10.953125 
Q 26.375 6.390625 33.015625 6.390625 
Q 39.65625 6.390625 43.53125 10.953125 
Q 47.40625 15.53125 47.40625 23.390625 
Q 47.40625 31.296875 43.53125 35.828125 
Q 39.65625 40.375 33.015625 40.375 
z
M 52.59375 71.296875 
L 52.59375 62.3125 
Q 48.875 64.0625 45.09375 64.984375 
Q 41.3125 65.921875 37.59375 65.921875 
Q 27.828125 65.921875 22.671875 59.328125 
Q 17.53125 52.734375 16.796875 39.40625 
Q 19.671875 43.65625 24.015625 45.921875 
Q 28.375 48.1875 33.59375 48.1875 
Q 44.578125 48.1875 50.953125 41.515625 
Q 57.328125 34.859375 57.328125 23.390625 
Q 57.328125 12.15625 50.6875 5.359375 
Q 44.046875 -1.421875 33.015625 -1.421875 
Q 20.359375 -1.421875 13.671875 8.265625 
Q 6.984375 17.96875 6.984375 36.375 
Q 6.984375 53.65625 15.1875 63.9375 
Q 23.390625 74.21875 37.203125 74.21875 
Q 40.921875 74.21875 44.703125 73.484375 
Q 48.484375 72.75 52.59375 71.296875 
z
" id="DejaVuSans-54"/>
      </defs>
      <g transform="translate(194.511265 260.638438)scale(0.1 -0.1)">
       <use xlink:href="#DejaVuSans-54"/>
      </g>
     </g>
    </g>
    <g id="xtick_5">
     <g id="line2d_5">
      <g>
       <use style="stroke:#000000;stroke-width:0.8;" x="250.423888" xlink:href="#m9c7da00862" y="246.04"/>
      </g>
     </g>
     <g id="text_5">
      <!-- 8 -->
      <defs>
       <path d="M 31.78125 34.625 
Q 24.75 34.625 20.71875 30.859375 
Q 16.703125 27.09375 16.703125 20.515625 
Q 16.703125 13.921875 20.71875 10.15625 
Q 24.75 6.390625 31.78125 6.390625 
Q 38.8125 6.390625 42.859375 10.171875 
Q 46.921875 13.96875 46.921875 20.515625 
Q 46.921875 27.09375 42.890625 30.859375 
Q 38.875 34.625 31.78125 34.625 
z
M 21.921875 38.8125 
Q 15.578125 40.375 12.03125 44.71875 
Q 8.5 49.078125 8.5 55.328125 
Q 8.5 64.0625 14.71875 69.140625 
Q 20.953125 74.21875 31.78125 74.21875 
Q 42.671875 74.21875 48.875 69.140625 
Q 55.078125 64.0625 55.078125 55.328125 
Q 55.078125 49.078125 51.53125 44.71875 
Q 48 40.375 41.703125 38.8125 
Q 48.828125 37.15625 52.796875 32.3125 
Q 56.78125 27.484375 56.78125 20.515625 
Q 56.78125 9.90625 50.3125 4.234375 
Q 43.84375 -1.421875 31.78125 -1.421875 
Q 19.734375 -1.421875 13.25 4.234375 
Q 6.78125 9.90625 6.78125 20.515625 
Q 6.78125 27.484375 10.78125 32.3125 
Q 14.796875 37.15625 21.921875 38.8125 
z
M 18.3125 54.390625 
Q 18.3125 48.734375 21.84375 45.5625 
Q 25.390625 42.390625 31.78125 42.390625 
Q 38.140625 42.390625 41.71875 45.5625 
Q 45.3125 48.734375 45.3125 54.390625 
Q 45.3125 60.0625 41.71875 63.234375 
Q 38.140625 66.40625 31.78125 66.40625 
Q 25.390625 66.40625 21.84375 63.234375 
Q 18.3125 60.0625 18.3125 54.390625 
z
" id="DejaVuSans-56"/>
      </defs>
      <g transform="translate(247.242638 260.638438)scale(0.1 -0.1)">
       <use xlink:href="#DejaVuSans-56"/>
      </g>
     </g>
    </g>
    <g id="text_6">
     <!-- Passive -->
     <defs>
      <path d="M 19.671875 64.796875 
L 19.671875 37.40625 
L 32.078125 37.40625 
Q 38.96875 37.40625 42.71875 40.96875 
Q 46.484375 44.53125 46.484375 51.125 
Q 46.484375 57.671875 42.71875 61.234375 
Q 38.96875 64.796875 32.078125 64.796875 
z
M 9.8125 72.90625 
L 32.078125 72.90625 
Q 44.34375 72.90625 50.609375 67.359375 
Q 56.890625 61.8125 56.890625 51.125 
Q 56.890625 40.328125 50.609375 34.8125 
Q 44.34375 29.296875 32.078125 29.296875 
L 19.671875 29.296875 
L 19.671875 0 
L 9.8125 0 
z
" id="DejaVuSans-80"/>
      <path d="M 34.28125 27.484375 
Q 23.390625 27.484375 19.1875 25 
Q 14.984375 22.515625 14.984375 16.5 
Q 14.984375 11.71875 18.140625 8.90625 
Q 21.296875 6.109375 26.703125 6.109375 
Q 34.1875 6.109375 38.703125 11.40625 
Q 43.21875 16.703125 43.21875 25.484375 
L 43.21875 27.484375 
z
M 52.203125 31.203125 
L 52.203125 0 
L 43.21875 0 
L 43.21875 8.296875 
Q 40.140625 3.328125 35.546875 0.953125 
Q 30.953125 -1.421875 24.3125 -1.421875 
Q 15.921875 -1.421875 10.953125 3.296875 
Q 6 8.015625 6 15.921875 
Q 6 25.140625 12.171875 29.828125 
Q 18.359375 34.515625 30.609375 34.515625 
L 43.21875 34.515625 
L 43.21875 35.40625 
Q 43.21875 41.609375 39.140625 45 
Q 35.0625 48.390625 27.6875 48.390625 
Q 23 48.390625 18.546875 47.265625 
Q 14.109375 46.140625 10.015625 43.890625 
L 10.015625 52.203125 
Q 14.9375 54.109375 19.578125 55.046875 
Q 24.21875 56 28.609375 56 
Q 40.484375 56 46.34375 49.84375 
Q 52.203125 43.703125 52.203125 31.203125 
z
" id="DejaVuSans-97"/>
      <path d="M 44.28125 53.078125 
L 44.28125 44.578125 
Q 40.484375 46.53125 36.375 47.5 
Q 32.28125 48.484375 27.875 48.484375 
Q 21.1875 48.484375 17.84375 46.4375 
Q 14.5 44.390625 14.5 40.28125 
Q 14.5 37.15625 16.890625 35.375 
Q 19.28125 33.59375 26.515625 31.984375 
L 29.59375 31.296875 
Q 39.15625 29.25 43.1875 25.515625 
Q 47.21875 21.78125 47.21875 15.09375 
Q 47.21875 7.46875 41.1875 3.015625 
Q 35.15625 -1.421875 24.609375 -1.421875 
Q 20.21875 -1.421875 15.453125 -0.5625 
Q 10.6875 0.296875 5.421875 2 
L 5.421875 11.28125 
Q 10.40625 8.6875 15.234375 7.390625 
Q 20.0625 6.109375 24.8125 6.109375 
Q 31.15625 6.109375 34.5625 8.28125 
Q 37.984375 10.453125 37.984375 14.40625 
Q 37.984375 18.0625 35.515625 20.015625 
Q 33.0625 21.96875 24.703125 23.78125 
L 21.578125 24.515625 
Q 13.234375 26.265625 9.515625 29.90625 
Q 5.8125 33.546875 5.8125 39.890625 
Q 5.8125 47.609375 11.28125 51.796875 
Q 16.75 56 26.8125 56 
Q 31.78125 56 36.171875 55.265625 
Q 40.578125 54.546875 44.28125 53.078125 
z
" id="DejaVuSans-115"/>
      <path d="M 9.421875 54.6875 
L 18.40625 54.6875 
L 18.40625 0 
L 9.421875 0 
z
M 9.421875 75.984375 
L 18.40625 75.984375 
L 18.40625 64.59375 
L 9.421875 64.59375 
z
" id="DejaVuSans-105"/>
      <path d="M 2.984375 54.6875 
L 12.5 54.6875 
L 29.59375 8.796875 
L 46.6875 54.6875 
L 56.203125 54.6875 
L 35.6875 0 
L 23.484375 0 
z
" id="DejaVuSans-118"/>
      <path d="M 56.203125 29.59375 
L 56.203125 25.203125 
L 14.890625 25.203125 
Q 15.484375 15.921875 20.484375 11.0625 
Q 25.484375 6.203125 34.421875 6.203125 
Q 39.59375 6.203125 44.453125 7.46875 
Q 49.3125 8.734375 54.109375 11.28125 
L 54.109375 2.78125 
Q 49.265625 0.734375 44.1875 -0.34375 
Q 39.109375 -1.421875 33.890625 -1.421875 
Q 20.796875 -1.421875 13.15625 6.1875 
Q 5.515625 13.8125 5.515625 26.8125 
Q 5.515625 40.234375 12.765625 48.109375 
Q 20.015625 56 32.328125 56 
Q 43.359375 56 49.78125 48.890625 
Q 56.203125 41.796875 56.203125 29.59375 
z
M 47.21875 32.234375 
Q 47.125 39.59375 43.09375 43.984375 
Q 39.0625 48.390625 32.421875 48.390625 
Q 24.90625 48.390625 20.390625 44.140625 
Q 15.875 39.890625 15.1875 32.171875 
z
" id="DejaVuSans-101"/>
     </defs>
     <g transform="translate(132.334435 274.316562)scale(0.1 -0.1)">
      <use xlink:href="#DejaVuSans-80"/>
      <use x="60.240234" xlink:href="#DejaVuSans-97"/>
      <use x="121.519531" xlink:href="#DejaVuSans-115"/>
      <use x="173.619141" xlink:href="#DejaVuSans-115"/>
      <use x="225.71875" xlink:href="#DejaVuSans-105"/>
      <use x="253.501953" xlink:href="#DejaVuSans-118"/>
      <use x="312.681641" xlink:href="#DejaVuSans-101"/>
     </g>
    </g>
   </g>
   <g id="matplotlib.axis_2">
    <g id="ytick_1">
     <g id="line2d_6">
      <defs>
       <path d="M 0 0 
L -3.5 0 
" id="me30c4dc539" style="stroke:#000000;stroke-width:0.8;"/>
      </defs>
      <g>
       <use style="stroke:#000000;stroke-width:0.8;" x="38.27" xlink:href="#me30c4dc539" y="245.172768"/>
      </g>
     </g>
     <g id="text_7">
      <!-- 0 -->
      <g transform="translate(24.9075 248.971986)scale(0.1 -0.1)">
       <use xlink:href="#DejaVuSans-48"/>
      </g>
     </g>
    </g>
    <g id="ytick_2">
     <g id="line2d_7">
      <g>
       <use style="stroke:#000000;stroke-width:0.8;" x="38.27" xlink:href="#me30c4dc539" y="219.659864"/>
      </g>
     </g>
     <g id="text_8">
      <!-- 1 -->
      <defs>
       <path d="M 12.40625 8.296875 
L 28.515625 8.296875 
L 28.515625 63.921875 
L 10.984375 60.40625 
L 10.984375 69.390625 
L 28.421875 72.90625 
L 38.28125 72.90625 
L 38.28125 8.296875 
L 54.390625 8.296875 
L 54.390625 0 
L 12.40625 0 
z
" id="DejaVuSans-49"/>
      </defs>
      <g transform="translate(24.9075 223.459082)scale(0.1 -0.1)">
       <use xlink:href="#DejaVuSans-49"/>
      </g>
     </g>
    </g>
    <g id="ytick_3">
     <g id="line2d_8">
      <g>
       <use style="stroke:#000000;stroke-width:0.8;" x="38.27" xlink:href="#me30c4dc539" y="194.146959"/>
      </g>
     </g>
     <g id="text_9">
      <!-- 2 -->
      <g transform="translate(24.9075 197.946178)scale(0.1 -0.1)">
       <use xlink:href="#DejaVuSans-50"/>
      </g>
     </g>
    </g>
    <g id="ytick_4">
     <g id="line2d_9">
      <g>
       <use style="stroke:#000000;stroke-width:0.8;" x="38.27" xlink:href="#me30c4dc539" y="168.634055"/>
      </g>
     </g>
     <g id="text_10">
      <!-- 3 -->
      <defs>
       <path d="M 40.578125 39.3125 
Q 47.65625 37.796875 51.625 33 
Q 55.609375 28.21875 55.609375 21.1875 
Q 55.609375 10.40625 48.1875 4.484375 
Q 40.765625 -1.421875 27.09375 -1.421875 
Q 22.515625 -1.421875 17.65625 -0.515625 
Q 12.796875 0.390625 7.625 2.203125 
L 7.625 11.71875 
Q 11.71875 9.328125 16.59375 8.109375 
Q 21.484375 6.890625 26.8125 6.890625 
Q 36.078125 6.890625 40.9375 10.546875 
Q 45.796875 14.203125 45.796875 21.1875 
Q 45.796875 27.640625 41.28125 31.265625 
Q 36.765625 34.90625 28.71875 34.90625 
L 20.21875 34.90625 
L 20.21875 43.015625 
L 29.109375 43.015625 
Q 36.375 43.015625 40.234375 45.921875 
Q 44.09375 48.828125 44.09375 54.296875 
Q 44.09375 59.90625 40.109375 62.90625 
Q 36.140625 65.921875 28.71875 65.921875 
Q 24.65625 65.921875 20.015625 65.03125 
Q 15.375 64.15625 9.8125 62.3125 
L 9.8125 71.09375 
Q 15.4375 72.65625 20.34375 73.4375 
Q 25.25 74.21875 29.59375 74.21875 
Q 40.828125 74.21875 47.359375 69.109375 
Q 53.90625 64.015625 53.90625 55.328125 
Q 53.90625 49.265625 50.4375 45.09375 
Q 46.96875 40.921875 40.578125 39.3125 
z
" id="DejaVuSans-51"/>
      </defs>
      <g transform="translate(24.9075 172.433274)scale(0.1 -0.1)">
       <use xlink:href="#DejaVuSans-51"/>
      </g>
     </g>
    </g>
    <g id="ytick_5">
     <g id="line2d_10">
      <g>
       <use style="stroke:#000000;stroke-width:0.8;" x="38.27" xlink:href="#me30c4dc539" y="143.121151"/>
      </g>
     </g>
     <g id="text_11">
      <!-- 4 -->
      <g transform="translate(24.9075 146.92037)scale(0.1 -0.1)">
       <use xlink:href="#DejaVuSans-52"/>
      </g>
     </g>
    </g>
    <g id="ytick_6">
     <g id="line2d_11">
      <g>
       <use style="stroke:#000000;stroke-width:0.8;" x="38.27" xlink:href="#me30c4dc539" y="117.608247"/>
      </g>
     </g>
     <g id="text_12">
      <!-- 5 -->
      <defs>
       <path d="M 10.796875 72.90625 
L 49.515625 72.90625 
L 49.515625 64.59375 
L 19.828125 64.59375 
L 19.828125 46.734375 
Q 21.96875 47.46875 24.109375 47.828125 
Q 26.265625 48.1875 28.421875 48.1875 
Q 40.625 48.1875 47.75 41.5 
Q 54.890625 34.8125 54.890625 23.390625 
Q 54.890625 11.625 47.5625 5.09375 
Q 40.234375 -1.421875 26.90625 -1.421875 
Q 22.3125 -1.421875 17.546875 -0.640625 
Q 12.796875 0.140625 7.71875 1.703125 
L 7.71875 11.625 
Q 12.109375 9.234375 16.796875 8.0625 
Q 21.484375 6.890625 26.703125 6.890625 
Q 35.15625 6.890625 40.078125 11.328125 
Q 45.015625 15.765625 45.015625 23.390625 
Q 45.015625 31 40.078125 35.4375 
Q 35.15625 39.890625 26.703125 39.890625 
Q 22.75 39.890625 18.8125 39.015625 
Q 14.890625 38.140625 10.796875 36.28125 
z
" id="DejaVuSans-53"/>
      </defs>
      <g transform="translate(24.9075 121.407466)scale(0.1 -0.1)">
       <use xlink:href="#DejaVuSans-53"/>
      </g>
     </g>
    </g>
    <g id="ytick_7">
     <g id="line2d_12">
      <g>
       <use style="stroke:#000000;stroke-width:0.8;" x="38.27" xlink:href="#me30c4dc539" y="92.095343"/>
      </g>
     </g>
     <g id="text_13">
      <!-- 6 -->
      <g transform="translate(24.9075 95.894562)scale(0.1 -0.1)">
       <use xlink:href="#DejaVuSans-54"/>
      </g>
     </g>
    </g>
    <g id="ytick_8">
     <g id="line2d_13">
      <g>
       <use style="stroke:#000000;stroke-width:0.8;" x="38.27" xlink:href="#me30c4dc539" y="66.582439"/>
      </g>
     </g>
     <g id="text_14">
      <!-- 7 -->
      <defs>
       <path d="M 8.203125 72.90625 
L 55.078125 72.90625 
L 55.078125 68.703125 
L 28.609375 0 
L 18.3125 0 
L 43.21875 64.59375 
L 8.203125 64.59375 
z
" id="DejaVuSans-55"/>
      </defs>
      <g transform="translate(24.9075 70.381658)scale(0.1 -0.1)">
       <use xlink:href="#DejaVuSans-55"/>
      </g>
     </g>
    </g>
    <g id="ytick_9">
     <g id="line2d_14">
      <g>
       <use style="stroke:#000000;stroke-width:0.8;" x="38.27" xlink:href="#me30c4dc539" y="41.069535"/>
      </g>
     </g>
     <g id="text_15">
      <!-- 8 -->
      <g transform="translate(24.9075 44.868754)scale(0.1 -0.1)">
       <use xlink:href="#DejaVuSans-56"/>
      </g>
     </g>
    </g>
    <g id="text_16">
     <!-- Active -->
     <defs>
      <path d="M 34.1875 63.1875 
L 20.796875 26.90625 
L 47.609375 26.90625 
z
M 28.609375 72.90625 
L 39.796875 72.90625 
L 67.578125 0 
L 57.328125 0 
L 50.6875 18.703125 
L 17.828125 18.703125 
L 11.1875 0 
L 0.78125 0 
z
" id="DejaVuSans-65"/>
      <path d="M 48.78125 52.59375 
L 48.78125 44.1875 
Q 44.96875 46.296875 41.140625 47.34375 
Q 37.3125 48.390625 33.40625 48.390625 
Q 24.65625 48.390625 19.8125 42.84375 
Q 14.984375 37.3125 14.984375 27.296875 
Q 14.984375 17.28125 19.8125 11.734375 
Q 24.65625 6.203125 33.40625 6.203125 
Q 37.3125 6.203125 41.140625 7.25 
Q 44.96875 8.296875 48.78125 10.40625 
L 48.78125 2.09375 
Q 45.015625 0.34375 40.984375 -0.53125 
Q 36.96875 -1.421875 32.421875 -1.421875 
Q 20.0625 -1.421875 12.78125 6.34375 
Q 5.515625 14.109375 5.515625 27.296875 
Q 5.515625 40.671875 12.859375 48.328125 
Q 20.21875 56 33.015625 56 
Q 37.15625 56 41.109375 55.140625 
Q 45.0625 54.296875 48.78125 52.59375 
z
" id="DejaVuSans-99"/>
      <path d="M 18.3125 70.21875 
L 18.3125 54.6875 
L 36.8125 54.6875 
L 36.8125 47.703125 
L 18.3125 47.703125 
L 18.3125 18.015625 
Q 18.3125 11.328125 20.140625 9.421875 
Q 21.96875 7.515625 27.59375 7.515625 
L 36.8125 7.515625 
L 36.8125 0 
L 27.59375 0 
Q 17.1875 0 13.234375 3.875 
Q 9.28125 7.765625 9.28125 18.015625 
L 9.28125 47.703125 
L 2.6875 47.703125 
L 2.6875 54.6875 
L 9.28125 54.6875 
L 9.28125 70.21875 
z
" id="DejaVuSans-116"/>
     </defs>
     <g transform="translate(18.827813 152.481906)rotate(-90)scale(0.1 -0.1)">
      <use xlink:href="#DejaVuSans-65"/>
      <use x="68.392578" xlink:href="#DejaVuSans-99"/>
      <use x="123.373047" xlink:href="#DejaVuSans-116"/>
      <use x="162.582031" xlink:href="#DejaVuSans-105"/>
      <use x="190.365234" xlink:href="#DejaVuSans-118"/>
      <use x="249.544922" xlink:href="#DejaVuSans-101"/>
     </g>
    </g>
   </g>
   <g id="line2d_15">
    <path clip-path="url(#pb24ed1042e)" d="M 48.853005 236.120727 
L 253.566948 38.028136 
" style="fill:none;stroke:#000000;stroke-dasharray:5.55,2.4;stroke-dashoffset:0;stroke-width:1.5;"/>
   </g>
   <g id="patch_3">
    <path d="M 38.27 246.04 
L 38.27 27.816 
" style="fill:none;stroke:#000000;stroke-linecap:square;stroke-linejoin:miter;stroke-width:0.8;"/>
   </g>
   <g id="patch_4">
    <path d="M 38.27 246.04 
L 263.819183 246.04 
" style="fill:none;stroke:#000000;stroke-linecap:square;stroke-linejoin:miter;stroke-width:0.8;"/>
   </g>
   <g id="text_17">
    <!-- Target vs. Reference Discriminability ($d'$) -->
    <defs>
     <path d="M -0.296875 72.90625 
L 61.375 72.90625 
L 61.375 64.59375 
L 35.5 64.59375 
L 35.5 0 
L 25.59375 0 
L 25.59375 64.59375 
L -0.296875 64.59375 
z
" id="DejaVuSans-84"/>
     <path d="M 41.109375 46.296875 
Q 39.59375 47.171875 37.8125 47.578125 
Q 36.03125 48 33.890625 48 
Q 26.265625 48 22.1875 43.046875 
Q 18.109375 38.09375 18.109375 28.8125 
L 18.109375 0 
L 9.078125 0 
L 9.078125 54.6875 
L 18.109375 54.6875 
L 18.109375 46.1875 
Q 20.953125 51.171875 25.484375 53.578125 
Q 30.03125 56 36.53125 56 
Q 37.453125 56 38.578125 55.875 
Q 39.703125 55.765625 41.0625 55.515625 
z
" id="DejaVuSans-114"/>
     <path d="M 45.40625 27.984375 
Q 45.40625 37.75 41.375 43.109375 
Q 37.359375 48.484375 30.078125 48.484375 
Q 22.859375 48.484375 18.828125 43.109375 
Q 14.796875 37.75 14.796875 27.984375 
Q 14.796875 18.265625 18.828125 12.890625 
Q 22.859375 7.515625 30.078125 7.515625 
Q 37.359375 7.515625 41.375 12.890625 
Q 45.40625 18.265625 45.40625 27.984375 
z
M 54.390625 6.78125 
Q 54.390625 -7.171875 48.1875 -13.984375 
Q 42 -20.796875 29.203125 -20.796875 
Q 24.46875 -20.796875 20.265625 -20.09375 
Q 16.0625 -19.390625 12.109375 -17.921875 
L 12.109375 -9.1875 
Q 16.0625 -11.328125 19.921875 -12.34375 
Q 23.78125 -13.375 27.78125 -13.375 
Q 36.625 -13.375 41.015625 -8.765625 
Q 45.40625 -4.15625 45.40625 5.171875 
L 45.40625 9.625 
Q 42.625 4.78125 38.28125 2.390625 
Q 33.9375 0 27.875 0 
Q 17.828125 0 11.671875 7.65625 
Q 5.515625 15.328125 5.515625 27.984375 
Q 5.515625 40.671875 11.671875 48.328125 
Q 17.828125 56 27.875 56 
Q 33.9375 56 38.28125 53.609375 
Q 42.625 51.21875 45.40625 46.390625 
L 45.40625 54.6875 
L 54.390625 54.6875 
z
" id="DejaVuSans-103"/>
     <path id="DejaVuSans-32"/>
     <path d="M 10.6875 12.40625 
L 21 12.40625 
L 21 0 
L 10.6875 0 
z
" id="DejaVuSans-46"/>
     <path d="M 44.390625 34.1875 
Q 47.5625 33.109375 50.5625 29.59375 
Q 53.5625 26.078125 56.59375 19.921875 
L 66.609375 0 
L 56 0 
L 46.6875 18.703125 
Q 43.0625 26.03125 39.671875 28.421875 
Q 36.28125 30.8125 30.421875 30.8125 
L 19.671875 30.8125 
L 19.671875 0 
L 9.8125 0 
L 9.8125 72.90625 
L 32.078125 72.90625 
Q 44.578125 72.90625 50.734375 67.671875 
Q 56.890625 62.453125 56.890625 51.90625 
Q 56.890625 45.015625 53.6875 40.46875 
Q 50.484375 35.9375 44.390625 34.1875 
z
M 19.671875 64.796875 
L 19.671875 38.921875 
L 32.078125 38.921875 
Q 39.203125 38.921875 42.84375 42.21875 
Q 46.484375 45.515625 46.484375 51.90625 
Q 46.484375 58.296875 42.84375 61.546875 
Q 39.203125 64.796875 32.078125 64.796875 
z
" id="DejaVuSans-82"/>
     <path d="M 37.109375 75.984375 
L 37.109375 68.5 
L 28.515625 68.5 
Q 23.6875 68.5 21.796875 66.546875 
Q 19.921875 64.59375 19.921875 59.515625 
L 19.921875 54.6875 
L 34.71875 54.6875 
L 34.71875 47.703125 
L 19.921875 47.703125 
L 19.921875 0 
L 10.890625 0 
L 10.890625 47.703125 
L 2.296875 47.703125 
L 2.296875 54.6875 
L 10.890625 54.6875 
L 10.890625 58.5 
Q 10.890625 67.625 15.140625 71.796875 
Q 19.390625 75.984375 28.609375 75.984375 
z
" id="DejaVuSans-102"/>
     <path d="M 54.890625 33.015625 
L 54.890625 0 
L 45.90625 0 
L 45.90625 32.71875 
Q 45.90625 40.484375 42.875 44.328125 
Q 39.84375 48.1875 33.796875 48.1875 
Q 26.515625 48.1875 22.3125 43.546875 
Q 18.109375 38.921875 18.109375 30.90625 
L 18.109375 0 
L 9.078125 0 
L 9.078125 54.6875 
L 18.109375 54.6875 
L 18.109375 46.1875 
Q 21.34375 51.125 25.703125 53.5625 
Q 30.078125 56 35.796875 56 
Q 45.21875 56 50.046875 50.171875 
Q 54.890625 44.34375 54.890625 33.015625 
z
" id="DejaVuSans-110"/>
     <path d="M 19.671875 64.796875 
L 19.671875 8.109375 
L 31.59375 8.109375 
Q 46.6875 8.109375 53.6875 14.9375 
Q 60.6875 21.78125 60.6875 36.53125 
Q 60.6875 51.171875 53.6875 57.984375 
Q 46.6875 64.796875 31.59375 64.796875 
z
M 9.8125 72.90625 
L 30.078125 72.90625 
Q 51.265625 72.90625 61.171875 64.09375 
Q 71.09375 55.28125 71.09375 36.53125 
Q 71.09375 17.671875 61.125 8.828125 
Q 51.171875 0 30.078125 0 
L 9.8125 0 
z
" id="DejaVuSans-68"/>
     <path d="M 52 44.1875 
Q 55.375 50.25 60.0625 53.125 
Q 64.75 56 71.09375 56 
Q 79.640625 56 84.28125 50.015625 
Q 88.921875 44.046875 88.921875 33.015625 
L 88.921875 0 
L 79.890625 0 
L 79.890625 32.71875 
Q 79.890625 40.578125 77.09375 44.375 
Q 74.3125 48.1875 68.609375 48.1875 
Q 61.625 48.1875 57.5625 43.546875 
Q 53.515625 38.921875 53.515625 30.90625 
L 53.515625 0 
L 44.484375 0 
L 44.484375 32.71875 
Q 44.484375 40.625 41.703125 44.40625 
Q 38.921875 48.1875 33.109375 48.1875 
Q 26.21875 48.1875 22.15625 43.53125 
Q 18.109375 38.875 18.109375 30.90625 
L 18.109375 0 
L 9.078125 0 
L 9.078125 54.6875 
L 18.109375 54.6875 
L 18.109375 46.1875 
Q 21.1875 51.21875 25.484375 53.609375 
Q 29.78125 56 35.6875 56 
Q 41.65625 56 45.828125 52.96875 
Q 50 49.953125 52 44.1875 
z
" id="DejaVuSans-109"/>
     <path d="M 48.6875 27.296875 
Q 48.6875 37.203125 44.609375 42.84375 
Q 40.53125 48.484375 33.40625 48.484375 
Q 26.265625 48.484375 22.1875 42.84375 
Q 18.109375 37.203125 18.109375 27.296875 
Q 18.109375 17.390625 22.1875 11.75 
Q 26.265625 6.109375 33.40625 6.109375 
Q 40.53125 6.109375 44.609375 11.75 
Q 48.6875 17.390625 48.6875 27.296875 
z
M 18.109375 46.390625 
Q 20.953125 51.265625 25.265625 53.625 
Q 29.59375 56 35.59375 56 
Q 45.5625 56 51.78125 48.09375 
Q 58.015625 40.1875 58.015625 27.296875 
Q 58.015625 14.40625 51.78125 6.484375 
Q 45.5625 -1.421875 35.59375 -1.421875 
Q 29.59375 -1.421875 25.265625 0.953125 
Q 20.953125 3.328125 18.109375 8.203125 
L 18.109375 0 
L 9.078125 0 
L 9.078125 75.984375 
L 18.109375 75.984375 
z
" id="DejaVuSans-98"/>
     <path d="M 9.421875 75.984375 
L 18.40625 75.984375 
L 18.40625 0 
L 9.421875 0 
z
" id="DejaVuSans-108"/>
     <path d="M 32.171875 -5.078125 
Q 28.375 -14.84375 24.75 -17.8125 
Q 21.140625 -20.796875 15.09375 -20.796875 
L 7.90625 -20.796875 
L 7.90625 -13.28125 
L 13.1875 -13.28125 
Q 16.890625 -13.28125 18.9375 -11.515625 
Q 21 -9.765625 23.484375 -3.21875 
L 25.09375 0.875 
L 2.984375 54.6875 
L 12.5 54.6875 
L 29.59375 11.921875 
L 46.6875 54.6875 
L 56.203125 54.6875 
z
" id="DejaVuSans-121"/>
     <path d="M 31 75.875 
Q 24.46875 64.65625 21.28125 53.65625 
Q 18.109375 42.671875 18.109375 31.390625 
Q 18.109375 20.125 21.3125 9.0625 
Q 24.515625 -2 31 -13.1875 
L 23.1875 -13.1875 
Q 15.875 -1.703125 12.234375 9.375 
Q 8.59375 20.453125 8.59375 31.390625 
Q 8.59375 42.28125 12.203125 53.3125 
Q 15.828125 64.359375 23.1875 75.875 
z
" id="DejaVuSans-40"/>
     <path d="M 41.796875 8.203125 
Q 38.1875 3.46875 33.25 1.015625 
Q 28.328125 -1.421875 22.3125 -1.421875 
Q 14.109375 -1.421875 9.34375 4.171875 
Q 4.59375 9.765625 4.59375 19.484375 
Q 4.59375 27.59375 7.46875 34.9375 
Q 10.359375 42.28125 15.828125 48.09375 
Q 19.4375 51.953125 23.96875 53.96875 
Q 28.515625 56 33.5 56 
Q 38.765625 56 42.796875 53.453125 
Q 46.828125 50.921875 49.03125 46.1875 
L 54.890625 75.984375 
L 63.921875 75.984375 
L 49.125 0 
L 40.09375 0 
z
M 13.921875 21.09375 
Q 13.921875 14.015625 17.109375 10.0625 
Q 20.3125 6.109375 25.984375 6.109375 
Q 30.171875 6.109375 33.765625 8.125 
Q 37.359375 10.15625 40.09375 14.109375 
Q 42.96875 18.21875 44.625 23.578125 
Q 46.296875 28.953125 46.296875 34.1875 
Q 46.296875 40.96875 43.09375 44.765625 
Q 39.890625 48.578125 34.28125 48.578125 
Q 30.03125 48.578125 26.359375 46.578125 
Q 22.703125 44.578125 20.125 40.828125 
Q 17.28125 36.765625 15.59375 31.390625 
Q 13.921875 26.03125 13.921875 21.09375 
z
" id="DejaVuSans-Oblique-100"/>
     <path d="M 3.515625 5.421875 
Q 2.875 5.609375 2.875 6.390625 
L 15.09375 51.8125 
Q 15.671875 53.65625 17.078125 54.78125 
Q 18.5 55.90625 20.3125 55.90625 
Q 22.65625 55.90625 24.4375 54.359375 
Q 26.21875 52.828125 26.21875 50.484375 
Q 26.21875 49.46875 25.6875 48.1875 
L 7.625 4.984375 
Q 7.28125 4.296875 6.6875 4.296875 
Q 6.15625 4.296875 5 4.78125 
Q 3.859375 5.28125 3.515625 5.421875 
z
" id="Cmsy10-48"/>
     <path d="M 8.015625 75.875 
L 15.828125 75.875 
Q 23.140625 64.359375 26.78125 53.3125 
Q 30.421875 42.28125 30.421875 31.390625 
Q 30.421875 20.453125 26.78125 9.375 
Q 23.140625 -1.703125 15.828125 -13.1875 
L 8.015625 -13.1875 
Q 14.5 -2 17.703125 9.0625 
Q 20.90625 20.125 20.90625 31.390625 
Q 20.90625 42.671875 17.703125 53.65625 
Q 14.5 64.65625 8.015625 75.875 
z
" id="DejaVuSans-41"/>
    </defs>
    <g transform="translate(27.744592 21.816)scale(0.12 -0.12)">
     <use transform="translate(0 0.584375)" xlink:href="#DejaVuSans-84"/>
     <use transform="translate(61.083984 0.584375)" xlink:href="#DejaVuSans-97"/>
     <use transform="translate(122.363281 0.584375)" xlink:href="#DejaVuSans-114"/>
     <use transform="translate(163.476562 0.584375)" xlink:href="#DejaVuSans-103"/>
     <use transform="translate(226.953125 0.584375)" xlink:href="#DejaVuSans-101"/>
     <use transform="translate(288.476562 0.584375)" xlink:href="#DejaVuSans-116"/>
     <use transform="translate(327.685547 0.584375)" xlink:href="#DejaVuSans-32"/>
     <use transform="translate(359.472656 0.584375)" xlink:href="#DejaVuSans-118"/>
     <use transform="translate(418.652344 0.584375)" xlink:href="#DejaVuSans-115"/>
     <use transform="translate(470.751953 0.584375)" xlink:href="#DejaVuSans-46"/>
     <use transform="translate(502.539062 0.584375)" xlink:href="#DejaVuSans-32"/>
     <use transform="translate(534.326172 0.584375)" xlink:href="#DejaVuSans-82"/>
     <use transform="translate(603.808594 0.584375)" xlink:href="#DejaVuSans-101"/>
     <use transform="translate(665.332031 0.584375)" xlink:href="#DejaVuSans-102"/>
     <use transform="translate(700.537109 0.584375)" xlink:href="#DejaVuSans-101"/>
     <use transform="translate(762.060547 0.584375)" xlink:href="#DejaVuSans-114"/>
     <use transform="translate(803.173828 0.584375)" xlink:href="#DejaVuSans-101"/>
     <use transform="translate(864.697266 0.584375)" xlink:href="#DejaVuSans-110"/>
     <use transform="translate(928.076172 0.584375)" xlink:href="#DejaVuSans-99"/>
     <use transform="translate(983.056641 0.584375)" xlink:href="#DejaVuSans-101"/>
     <use transform="translate(1044.580078 0.584375)" xlink:href="#DejaVuSans-32"/>
     <use transform="translate(1076.367188 0.584375)" xlink:href="#DejaVuSans-68"/>
     <use transform="translate(1153.369141 0.584375)" xlink:href="#DejaVuSans-105"/>
     <use transform="translate(1181.152344 0.584375)" xlink:href="#DejaVuSans-115"/>
     <use transform="translate(1233.251953 0.584375)" xlink:href="#DejaVuSans-99"/>
     <use transform="translate(1288.232422 0.584375)" xlink:href="#DejaVuSans-114"/>
     <use transform="translate(1329.345703 0.584375)" xlink:href="#DejaVuSans-105"/>
     <use transform="translate(1357.128906 0.584375)" xlink:href="#DejaVuSans-109"/>
     <use transform="translate(1454.541016 0.584375)" xlink:href="#DejaVuSans-105"/>
     <use transform="translate(1482.324219 0.584375)" xlink:href="#DejaVuSans-110"/>
     <use transform="translate(1545.703125 0.584375)" xlink:href="#DejaVuSans-97"/>
     <use transform="translate(1606.982422 0.584375)" xlink:href="#DejaVuSans-98"/>
     <use transform="translate(1670.458984 0.584375)" xlink:href="#DejaVuSans-105"/>
     <use transform="translate(1698.242188 0.584375)" xlink:href="#DejaVuSans-108"/>
     <use transform="translate(1726.025391 0.584375)" xlink:href="#DejaVuSans-105"/>
     <use transform="translate(1753.808594 0.584375)" xlink:href="#DejaVuSans-116"/>
     <use transform="translate(1793.017578 0.584375)" xlink:href="#DejaVuSans-121"/>
     <use transform="translate(1852.197266 0.584375)" xlink:href="#DejaVuSans-32"/>
     <use transform="translate(1883.984375 0.584375)" xlink:href="#DejaVuSans-40"/>
     <use transform="translate(1922.998047 0.584375)" xlink:href="#DejaVuSans-Oblique-100"/>
     <use transform="translate(1993.922318 38.865625)scale(0.7)" xlink:href="#Cmsy10-48"/>
     <use transform="translate(2015.899857 0.584375)" xlink:href="#DejaVuSans-41"/>
    </g>
   </g>
  </g>
  <g id="axes_2">
   <g id="patch_5">
    <path d="M 337.130817 246.04 
L 562.68 246.04 
L 562.68 27.816 
L 337.130817 27.816 
z
" style="fill:#ffffff;"/>
   </g>
   <g id="PathCollection_2">
    <defs>
     <path d="M 0 3 
C 0.795609 3 1.55874 2.683901 2.12132 2.12132 
C 2.683901 1.55874 3 0.795609 3 0 
C 3 -0.795609 2.683901 -1.55874 2.12132 -2.12132 
C 1.55874 -2.683901 0.795609 -3 0 -3 
C -0.795609 -3 -1.55874 -2.683901 -2.12132 -2.12132 
C -2.683901 -1.55874 -3 -0.795609 -3 0 
C -3 0.795609 -2.683901 1.55874 -2.12132 2.12132 
C -1.55874 2.683901 -0.795609 3 0 3 
z
" id="m5c3bb63ff2" style="stroke:#1f77b4;stroke-opacity:0.8;"/>
    </defs>
    <g clip-path="url(#pedac26ef65)">
     <use style="fill:#1f77b4;fill-opacity:0.8;stroke:#1f77b4;stroke-opacity:0.8;" x="362.90447" xlink:href="#m5c3bb63ff2" y="180.874972"/>
     <use style="fill:#1f77b4;fill-opacity:0.8;stroke:#1f77b4;stroke-opacity:0.8;" x="518.7635" xlink:href="#m5c3bb63ff2" y="215.940476"/>
     <use style="fill:#1f77b4;fill-opacity:0.8;stroke:#1f77b4;stroke-opacity:0.8;" x="457.025461" xlink:href="#m5c3bb63ff2" y="156.20819"/>
     <use style="fill:#1f77b4;fill-opacity:0.8;stroke:#1f77b4;stroke-opacity:0.8;" x="467.923206" xlink:href="#m5c3bb63ff2" y="200.419174"/>
     <use style="fill:#1f77b4;fill-opacity:0.8;stroke:#1f77b4;stroke-opacity:0.8;" x="463.779541" xlink:href="#m5c3bb63ff2" y="209.352485"/>
     <use style="fill:#1f77b4;fill-opacity:0.8;stroke:#1f77b4;stroke-opacity:0.8;" x="475.728589" xlink:href="#m5c3bb63ff2" y="164.904721"/>
     <use style="fill:#1f77b4;fill-opacity:0.8;stroke:#1f77b4;stroke-opacity:0.8;" x="493.473252" xlink:href="#m5c3bb63ff2" y="194.928959"/>
     <use style="fill:#1f77b4;fill-opacity:0.8;stroke:#1f77b4;stroke-opacity:0.8;" x="442.56812" xlink:href="#m5c3bb63ff2" y="180.575669"/>
     <use style="fill:#1f77b4;fill-opacity:0.8;stroke:#1f77b4;stroke-opacity:0.8;" x="489.194751" xlink:href="#m5c3bb63ff2" y="206.380992"/>
     <use style="fill:#1f77b4;fill-opacity:0.8;stroke:#1f77b4;stroke-opacity:0.8;" x="446.943314" xlink:href="#m5c3bb63ff2" y="179.591147"/>
     <use style="fill:#1f77b4;fill-opacity:0.8;stroke:#1f77b4;stroke-opacity:0.8;" x="518.603563" xlink:href="#m5c3bb63ff2" y="212.111424"/>
     <use style="fill:#1f77b4;fill-opacity:0.8;stroke:#1f77b4;stroke-opacity:0.8;" x="476.186418" xlink:href="#m5c3bb63ff2" y="208.68648"/>
     <use style="fill:#1f77b4;fill-opacity:0.8;stroke:#1f77b4;stroke-opacity:0.8;" x="376.530581" xlink:href="#m5c3bb63ff2" y="193.991907"/>
     <use style="fill:#1f77b4;fill-opacity:0.8;stroke:#1f77b4;stroke-opacity:0.8;" x="498.718152" xlink:href="#m5c3bb63ff2" y="207.913716"/>
     <use style="fill:#1f77b4;fill-opacity:0.8;stroke:#1f77b4;stroke-opacity:0.8;" x="450.220517" xlink:href="#m5c3bb63ff2" y="217.781964"/>
     <use style="fill:#1f77b4;fill-opacity:0.8;stroke:#1f77b4;stroke-opacity:0.8;" x="471.136552" xlink:href="#m5c3bb63ff2" y="192.447864"/>
     <use style="fill:#1f77b4;fill-opacity:0.8;stroke:#1f77b4;stroke-opacity:0.8;" x="505.854734" xlink:href="#m5c3bb63ff2" y="207.437501"/>
     <use style="fill:#1f77b4;fill-opacity:0.8;stroke:#1f77b4;stroke-opacity:0.8;" x="503.934413" xlink:href="#m5c3bb63ff2" y="223.076004"/>
     <use style="fill:#1f77b4;fill-opacity:0.8;stroke:#1f77b4;stroke-opacity:0.8;" x="472.8542" xlink:href="#m5c3bb63ff2" y="217.731058"/>
     <use style="fill:#1f77b4;fill-opacity:0.8;stroke:#1f77b4;stroke-opacity:0.8;" x="514.136022" xlink:href="#m5c3bb63ff2" y="204.255498"/>
     <use style="fill:#1f77b4;fill-opacity:0.8;stroke:#1f77b4;stroke-opacity:0.8;" x="481.381754" xlink:href="#m5c3bb63ff2" y="229.45303"/>
     <use style="fill:#1f77b4;fill-opacity:0.8;stroke:#1f77b4;stroke-opacity:0.8;" x="375.421684" xlink:href="#m5c3bb63ff2" y="207.859176"/>
     <use style="fill:#1f77b4;fill-opacity:0.8;stroke:#1f77b4;stroke-opacity:0.8;" x="414.228098" xlink:href="#m5c3bb63ff2" y="210.097013"/>
     <use style="fill:#1f77b4;fill-opacity:0.8;stroke:#1f77b4;stroke-opacity:0.8;" x="380.456863" xlink:href="#m5c3bb63ff2" y="191.601419"/>
     <use style="fill:#1f77b4;fill-opacity:0.8;stroke:#1f77b4;stroke-opacity:0.8;" x="471.811739" xlink:href="#m5c3bb63ff2" y="199.300843"/>
     <use style="fill:#1f77b4;fill-opacity:0.8;stroke:#1f77b4;stroke-opacity:0.8;" x="347.865553" xlink:href="#m5c3bb63ff2" y="227.29274"/>
     <use style="fill:#1f77b4;fill-opacity:0.8;stroke:#1f77b4;stroke-opacity:0.8;" x="409.505744" xlink:href="#m5c3bb63ff2" y="211.344067"/>
     <use style="fill:#1f77b4;fill-opacity:0.8;stroke:#1f77b4;stroke-opacity:0.8;" x="493.626656" xlink:href="#m5c3bb63ff2" y="212.335584"/>
     <use style="fill:#1f77b4;fill-opacity:0.8;stroke:#1f77b4;stroke-opacity:0.8;" x="457.098528" xlink:href="#m5c3bb63ff2" y="222.799945"/>
     <use style="fill:#1f77b4;fill-opacity:0.8;stroke:#1f77b4;stroke-opacity:0.8;" x="511.600442" xlink:href="#m5c3bb63ff2" y="215.342057"/>
     <use style="fill:#1f77b4;fill-opacity:0.8;stroke:#1f77b4;stroke-opacity:0.8;" x="514.235957" xlink:href="#m5c3bb63ff2" y="178.251297"/>
     <use style="fill:#1f77b4;fill-opacity:0.8;stroke:#1f77b4;stroke-opacity:0.8;" x="484.630983" xlink:href="#m5c3bb63ff2" y="224.275445"/>
     <use style="fill:#1f77b4;fill-opacity:0.8;stroke:#1f77b4;stroke-opacity:0.8;" x="513.555981" xlink:href="#m5c3bb63ff2" y="220.080554"/>
     <use style="fill:#1f77b4;fill-opacity:0.8;stroke:#1f77b4;stroke-opacity:0.8;" x="538.957462" xlink:href="#m5c3bb63ff2" y="194.338552"/>
     <use style="fill:#1f77b4;fill-opacity:0.8;stroke:#1f77b4;stroke-opacity:0.8;" x="551.945263" xlink:href="#m5c3bb63ff2" y="210.920636"/>
     <use style="fill:#1f77b4;fill-opacity:0.8;stroke:#1f77b4;stroke-opacity:0.8;" x="526.298769" xlink:href="#m5c3bb63ff2" y="201.87654"/>
     <use style="fill:#1f77b4;fill-opacity:0.8;stroke:#1f77b4;stroke-opacity:0.8;" x="542.203252" xlink:href="#m5c3bb63ff2" y="169.957396"/>
     <use style="fill:#1f77b4;fill-opacity:0.8;stroke:#1f77b4;stroke-opacity:0.8;" x="473.921345" xlink:href="#m5c3bb63ff2" y="183.095288"/>
     <use style="fill:#1f77b4;fill-opacity:0.8;stroke:#1f77b4;stroke-opacity:0.8;" x="418.335438" xlink:href="#m5c3bb63ff2" y="236.082434"/>
     <use style="fill:#1f77b4;fill-opacity:0.8;stroke:#1f77b4;stroke-opacity:0.8;" x="505.836878" xlink:href="#m5c3bb63ff2" y="201.430064"/>
     <use style="fill:#1f77b4;fill-opacity:0.8;stroke:#1f77b4;stroke-opacity:0.8;" x="482.984485" xlink:href="#m5c3bb63ff2" y="222.890232"/>
     <use style="fill:#1f77b4;fill-opacity:0.8;stroke:#1f77b4;stroke-opacity:0.8;" x="548.219443" xlink:href="#m5c3bb63ff2" y="220.776272"/>
     <use style="fill:#1f77b4;fill-opacity:0.8;stroke:#1f77b4;stroke-opacity:0.8;" x="491.095865" xlink:href="#m5c3bb63ff2" y="205.518768"/>
     <use style="fill:#1f77b4;fill-opacity:0.8;stroke:#1f77b4;stroke-opacity:0.8;" x="396.404744" xlink:href="#m5c3bb63ff2" y="208.464842"/>
     <use style="fill:#1f77b4;fill-opacity:0.8;stroke:#1f77b4;stroke-opacity:0.8;" x="421.749613" xlink:href="#m5c3bb63ff2" y="183.618212"/>
     <use style="fill:#1f77b4;fill-opacity:0.8;stroke:#1f77b4;stroke-opacity:0.8;" x="490.890713" xlink:href="#m5c3bb63ff2" y="192.620622"/>
     <use style="fill:#1f77b4;fill-opacity:0.8;stroke:#1f77b4;stroke-opacity:0.8;" x="524.40522" xlink:href="#m5c3bb63ff2" y="193.365994"/>
     <use style="fill:#1f77b4;fill-opacity:0.8;stroke:#1f77b4;stroke-opacity:0.8;" x="457.764235" xlink:href="#m5c3bb63ff2" y="205.989423"/>
     <use style="fill:#1f77b4;fill-opacity:0.8;stroke:#1f77b4;stroke-opacity:0.8;" x="485.386654" xlink:href="#m5c3bb63ff2" y="219.011369"/>
     <use style="fill:#1f77b4;fill-opacity:0.8;stroke:#1f77b4;stroke-opacity:0.8;" x="538.483841" xlink:href="#m5c3bb63ff2" y="154.300994"/>
     <use style="fill:#1f77b4;fill-opacity:0.8;stroke:#1f77b4;stroke-opacity:0.8;" x="535.384063" xlink:href="#m5c3bb63ff2" y="199.240742"/>
     <use style="fill:#1f77b4;fill-opacity:0.8;stroke:#1f77b4;stroke-opacity:0.8;" x="528.088502" xlink:href="#m5c3bb63ff2" y="197.026653"/>
     <use style="fill:#1f77b4;fill-opacity:0.8;stroke:#1f77b4;stroke-opacity:0.8;" x="528.088502" xlink:href="#m5c3bb63ff2" y="215.13211"/>
     <use style="fill:#1f77b4;fill-opacity:0.8;stroke:#1f77b4;stroke-opacity:0.8;" x="505.487999" xlink:href="#m5c3bb63ff2" y="205.932232"/>
     <use style="fill:#1f77b4;fill-opacity:0.8;stroke:#1f77b4;stroke-opacity:0.8;" x="505.487999" xlink:href="#m5c3bb63ff2" y="217.487856"/>
     <use style="fill:#1f77b4;fill-opacity:0.8;stroke:#1f77b4;stroke-opacity:0.8;" x="474.954793" xlink:href="#m5c3bb63ff2" y="213.973171"/>
     <use style="fill:#1f77b4;fill-opacity:0.8;stroke:#1f77b4;stroke-opacity:0.8;" x="474.954793" xlink:href="#m5c3bb63ff2" y="194.87575"/>
     <use style="fill:#1f77b4;fill-opacity:0.8;stroke:#1f77b4;stroke-opacity:0.8;" x="533.878369" xlink:href="#m5c3bb63ff2" y="191.762377"/>
     <use style="fill:#1f77b4;fill-opacity:0.8;stroke:#1f77b4;stroke-opacity:0.8;" x="533.878369" xlink:href="#m5c3bb63ff2" y="196.799246"/>
     <use style="fill:#1f77b4;fill-opacity:0.8;stroke:#1f77b4;stroke-opacity:0.8;" x="493.503437" xlink:href="#m5c3bb63ff2" y="37.773566"/>
    </g>
   </g>
   <g id="PolyCollection_1">
    <path clip-path="url(#pedac26ef65)" d="M 347.865553 190.023532 
L 347.865553 216.241206 
L 349.926964 216.03652 
L 351.988376 215.831833 
L 354.049787 215.627147 
L 356.111198 215.422461 
L 358.172609 215.217774 
L 360.234021 215.013088 
L 362.295432 214.807755 
L 364.356843 214.549422 
L 366.418254 214.286572 
L 368.479665 214.097574 
L 370.541077 213.808143 
L 372.602488 213.613576 
L 374.663899 213.383369 
L 376.72531 213.21238 
L 378.786721 212.975296 
L 380.848133 212.641348 
L 382.909544 212.305111 
L 384.970955 212.081264 
L 387.032366 211.916855 
L 389.093777 211.739932 
L 391.155189 211.574409 
L 393.2166 211.384777 
L 395.278011 211.242104 
L 397.339422 211.077696 
L 399.400834 210.931237 
L 401.462245 210.801625 
L 403.523656 210.671801 
L 405.585067 210.452167 
L 407.646478 210.313954 
L 409.70789 210.082898 
L 411.769301 209.916934 
L 413.830712 209.739656 
L 415.892123 209.56393 
L 417.953534 209.367164 
L 420.014946 209.160894 
L 422.076357 209.009249 
L 424.137768 208.891279 
L 426.199179 208.768488 
L 428.260591 208.649157 
L 430.322002 208.529826 
L 432.383413 208.40627 
L 434.444824 208.227602 
L 436.506235 208.153188 
L 438.567647 208.051982 
L 440.629058 207.92945 
L 442.690469 207.774624 
L 444.75188 207.63283 
L 446.813291 207.418559 
L 448.874703 207.278737 
L 450.936114 207.180576 
L 452.997525 207.091307 
L 455.058936 207.061487 
L 457.120347 206.929365 
L 459.181759 206.844848 
L 461.24317 206.737321 
L 463.304581 206.608394 
L 465.365992 206.47585 
L 467.427404 206.380021 
L 469.488815 206.333043 
L 471.550226 206.273071 
L 473.611637 206.275556 
L 475.673048 206.148399 
L 477.73446 206.206811 
L 479.795871 206.16409 
L 481.857282 206.070602 
L 483.918693 206.003447 
L 485.980104 206.085353 
L 488.041516 205.997908 
L 490.102927 206.007099 
L 492.164338 206.039548 
L 494.225749 206.049994 
L 496.287161 205.991357 
L 498.348572 205.956872 
L 500.409983 205.977133 
L 502.471394 206.036397 
L 504.532805 205.964038 
L 506.594217 206.034617 
L 508.655628 206.106275 
L 510.717039 206.179029 
L 512.77845 206.335289 
L 514.839861 206.438277 
L 516.901273 206.480157 
L 518.962684 206.536002 
L 521.024095 206.573793 
L 523.085506 206.613983 
L 525.146917 206.685764 
L 527.208329 206.755156 
L 529.26974 206.849172 
L 531.331151 206.955952 
L 533.392562 207.058053 
L 535.453974 207.159116 
L 537.515385 207.260903 
L 539.576796 207.366521 
L 541.638207 207.467652 
L 543.699618 207.487172 
L 545.76103 207.4937 
L 547.822441 207.498566 
L 549.883852 207.547396 
L 551.945263 207.617545 
L 551.945263 185.868872 
L 551.945263 185.868872 
L 549.883852 186.122821 
L 547.822441 186.410945 
L 545.76103 186.69907 
L 543.699618 186.987194 
L 541.638207 187.275318 
L 539.576796 187.433484 
L 537.515385 187.703384 
L 535.453974 187.970589 
L 533.392562 188.239141 
L 531.331151 188.437029 
L 529.26974 188.531669 
L 527.208329 188.700265 
L 525.146917 188.807138 
L 523.085506 188.958488 
L 521.024095 189.22493 
L 518.962684 189.496884 
L 516.901273 189.772726 
L 514.839861 189.994466 
L 512.77845 190.127024 
L 510.717039 190.290208 
L 508.655628 190.454634 
L 506.594217 190.620658 
L 504.532805 190.870879 
L 502.471394 191.059316 
L 500.409983 191.213796 
L 498.348572 191.34346 
L 496.287161 191.477091 
L 494.225749 191.612485 
L 492.164338 191.775297 
L 490.102927 191.857594 
L 488.041516 191.935039 
L 485.980104 192.014133 
L 483.918693 192.170476 
L 481.857282 192.356899 
L 479.795871 192.409177 
L 477.73446 192.591524 
L 475.673048 192.808357 
L 473.611637 192.913883 
L 471.550226 192.951996 
L 469.488815 192.975615 
L 467.427404 193.024243 
L 465.365992 193.1563 
L 463.304581 193.285628 
L 461.24317 193.388088 
L 459.181759 193.549228 
L 457.120347 193.662405 
L 455.058936 193.734442 
L 452.997525 193.781577 
L 450.936114 193.755725 
L 448.874703 193.714464 
L 446.813291 193.700927 
L 444.75188 193.82827 
L 442.690469 193.684151 
L 440.629058 193.701337 
L 438.567647 193.863205 
L 436.506235 193.825495 
L 434.444824 193.777851 
L 432.383413 193.869003 
L 430.322002 193.96834 
L 428.260591 193.850639 
L 426.199179 193.726728 
L 424.137768 193.601784 
L 422.076357 193.489868 
L 420.014946 193.511978 
L 417.953534 193.440921 
L 415.892123 193.399063 
L 413.830712 193.506012 
L 411.769301 193.440992 
L 409.70789 193.289204 
L 407.646478 193.235547 
L 405.585067 193.159924 
L 403.523656 193.132227 
L 401.462245 193.056419 
L 399.400834 192.924153 
L 397.339422 192.791887 
L 395.278011 192.659621 
L 393.2166 192.528414 
L 391.155189 192.3974 
L 389.093777 192.266385 
L 387.032366 192.135875 
L 384.970955 192.007639 
L 382.909544 191.927885 
L 380.848133 191.916814 
L 378.786721 191.903807 
L 376.72531 191.890801 
L 374.663899 191.769565 
L 372.602488 191.639191 
L 370.541077 191.590751 
L 368.479665 191.448394 
L 366.418254 191.306038 
L 364.356843 191.163681 
L 362.295432 191.021324 
L 360.234021 190.878968 
L 358.172609 190.736611 
L 356.111198 190.594254 
L 354.049787 190.451898 
L 351.988376 190.309541 
L 349.926964 190.167184 
L 347.865553 190.023532 
z
" style="fill:#1f77b4;fill-opacity:0.15;"/>
   </g>
   <g id="matplotlib.axis_3">
    <g id="xtick_6">
     <g id="line2d_16">
      <g>
       <use style="stroke:#000000;stroke-width:0.8;" x="372.715263" xlink:href="#m9c7da00862" y="246.04"/>
      </g>
     </g>
     <g id="text_18">
      <!-- 0.5 -->
      <g transform="translate(364.7637 260.638438)scale(0.1 -0.1)">
       <use xlink:href="#DejaVuSans-48"/>
       <use x="63.623047" xlink:href="#DejaVuSans-46"/>
       <use x="95.410156" xlink:href="#DejaVuSans-53"/>
      </g>
     </g>
    </g>
    <g id="xtick_7">
     <g id="line2d_17">
      <g>
       <use style="stroke:#000000;stroke-width:0.8;" x="413.920593" xlink:href="#m9c7da00862" y="246.04"/>
      </g>
     </g>
     <g id="text_19">
      <!-- 0.6 -->
      <g transform="translate(405.969031 260.638438)scale(0.1 -0.1)">
       <use xlink:href="#DejaVuSans-48"/>
       <use x="63.623047" xlink:href="#DejaVuSans-46"/>
       <use x="95.410156" xlink:href="#DejaVuSans-54"/>
      </g>
     </g>
    </g>
    <g id="xtick_8">
     <g id="line2d_18">
      <g>
       <use style="stroke:#000000;stroke-width:0.8;" x="455.125924" xlink:href="#m9c7da00862" y="246.04"/>
      </g>
     </g>
     <g id="text_20">
      <!-- 0.7 -->
      <g transform="translate(447.174362 260.638438)scale(0.1 -0.1)">
       <use xlink:href="#DejaVuSans-48"/>
       <use x="63.623047" xlink:href="#DejaVuSans-46"/>
       <use x="95.410156" xlink:href="#DejaVuSans-55"/>
      </g>
     </g>
    </g>
    <g id="xtick_9">
     <g id="line2d_19">
      <g>
       <use style="stroke:#000000;stroke-width:0.8;" x="496.331255" xlink:href="#m9c7da00862" y="246.04"/>
      </g>
     </g>
     <g id="text_21">
      <!-- 0.8 -->
      <g transform="translate(488.379692 260.638438)scale(0.1 -0.1)">
       <use xlink:href="#DejaVuSans-48"/>
       <use x="63.623047" xlink:href="#DejaVuSans-46"/>
       <use x="95.410156" xlink:href="#DejaVuSans-56"/>
      </g>
     </g>
    </g>
    <g id="xtick_10">
     <g id="line2d_20">
      <g>
       <use style="stroke:#000000;stroke-width:0.8;" x="537.536585" xlink:href="#m9c7da00862" y="246.04"/>
      </g>
     </g>
     <g id="text_22">
      <!-- 0.9 -->
      <defs>
       <path d="M 10.984375 1.515625 
L 10.984375 10.5 
Q 14.703125 8.734375 18.5 7.8125 
Q 22.3125 6.890625 25.984375 6.890625 
Q 35.75 6.890625 40.890625 13.453125 
Q 46.046875 20.015625 46.78125 33.40625 
Q 43.953125 29.203125 39.59375 26.953125 
Q 35.25 24.703125 29.984375 24.703125 
Q 19.046875 24.703125 12.671875 31.3125 
Q 6.296875 37.9375 6.296875 49.421875 
Q 6.296875 60.640625 12.9375 67.421875 
Q 19.578125 74.21875 30.609375 74.21875 
Q 43.265625 74.21875 49.921875 64.515625 
Q 56.59375 54.828125 56.59375 36.375 
Q 56.59375 19.140625 48.40625 8.859375 
Q 40.234375 -1.421875 26.421875 -1.421875 
Q 22.703125 -1.421875 18.890625 -0.6875 
Q 15.09375 0.046875 10.984375 1.515625 
z
M 30.609375 32.421875 
Q 37.25 32.421875 41.125 36.953125 
Q 45.015625 41.5 45.015625 49.421875 
Q 45.015625 57.28125 41.125 61.84375 
Q 37.25 66.40625 30.609375 66.40625 
Q 23.96875 66.40625 20.09375 61.84375 
Q 16.21875 57.28125 16.21875 49.421875 
Q 16.21875 41.5 20.09375 36.953125 
Q 23.96875 32.421875 30.609375 32.421875 
z
" id="DejaVuSans-57"/>
      </defs>
      <g transform="translate(529.585023 260.638438)scale(0.1 -0.1)">
       <use xlink:href="#DejaVuSans-48"/>
       <use x="63.623047" xlink:href="#DejaVuSans-46"/>
       <use x="95.410156" xlink:href="#DejaVuSans-57"/>
      </g>
     </g>
    </g>
    <g id="text_23">
     <!-- Behavior performance (DI) -->
     <defs>
      <path d="M 19.671875 34.8125 
L 19.671875 8.109375 
L 35.5 8.109375 
Q 43.453125 8.109375 47.28125 11.40625 
Q 51.125 14.703125 51.125 21.484375 
Q 51.125 28.328125 47.28125 31.5625 
Q 43.453125 34.8125 35.5 34.8125 
z
M 19.671875 64.796875 
L 19.671875 42.828125 
L 34.28125 42.828125 
Q 41.5 42.828125 45.03125 45.53125 
Q 48.578125 48.25 48.578125 53.8125 
Q 48.578125 59.328125 45.03125 62.0625 
Q 41.5 64.796875 34.28125 64.796875 
z
M 9.8125 72.90625 
L 35.015625 72.90625 
Q 46.296875 72.90625 52.390625 68.21875 
Q 58.5 63.53125 58.5 54.890625 
Q 58.5 48.1875 55.375 44.234375 
Q 52.25 40.28125 46.1875 39.3125 
Q 53.46875 37.75 57.5 32.78125 
Q 61.53125 27.828125 61.53125 20.40625 
Q 61.53125 10.640625 54.890625 5.3125 
Q 48.25 0 35.984375 0 
L 9.8125 0 
z
" id="DejaVuSans-66"/>
      <path d="M 54.890625 33.015625 
L 54.890625 0 
L 45.90625 0 
L 45.90625 32.71875 
Q 45.90625 40.484375 42.875 44.328125 
Q 39.84375 48.1875 33.796875 48.1875 
Q 26.515625 48.1875 22.3125 43.546875 
Q 18.109375 38.921875 18.109375 30.90625 
L 18.109375 0 
L 9.078125 0 
L 9.078125 75.984375 
L 18.109375 75.984375 
L 18.109375 46.1875 
Q 21.34375 51.125 25.703125 53.5625 
Q 30.078125 56 35.796875 56 
Q 45.21875 56 50.046875 50.171875 
Q 54.890625 44.34375 54.890625 33.015625 
z
" id="DejaVuSans-104"/>
      <path d="M 30.609375 48.390625 
Q 23.390625 48.390625 19.1875 42.75 
Q 14.984375 37.109375 14.984375 27.296875 
Q 14.984375 17.484375 19.15625 11.84375 
Q 23.34375 6.203125 30.609375 6.203125 
Q 37.796875 6.203125 41.984375 11.859375 
Q 46.1875 17.53125 46.1875 27.296875 
Q 46.1875 37.015625 41.984375 42.703125 
Q 37.796875 48.390625 30.609375 48.390625 
z
M 30.609375 56 
Q 42.328125 56 49.015625 48.375 
Q 55.71875 40.765625 55.71875 27.296875 
Q 55.71875 13.875 49.015625 6.21875 
Q 42.328125 -1.421875 30.609375 -1.421875 
Q 18.84375 -1.421875 12.171875 6.21875 
Q 5.515625 13.875 5.515625 27.296875 
Q 5.515625 40.765625 12.171875 48.375 
Q 18.84375 56 30.609375 56 
z
" id="DejaVuSans-111"/>
      <path d="M 18.109375 8.203125 
L 18.109375 -20.796875 
L 9.078125 -20.796875 
L 9.078125 54.6875 
L 18.109375 54.6875 
L 18.109375 46.390625 
Q 20.953125 51.265625 25.265625 53.625 
Q 29.59375 56 35.59375 56 
Q 45.5625 56 51.78125 48.09375 
Q 58.015625 40.1875 58.015625 27.296875 
Q 58.015625 14.40625 51.78125 6.484375 
Q 45.5625 -1.421875 35.59375 -1.421875 
Q 29.59375 -1.421875 25.265625 0.953125 
Q 20.953125 3.328125 18.109375 8.203125 
z
M 48.6875 27.296875 
Q 48.6875 37.203125 44.609375 42.84375 
Q 40.53125 48.484375 33.40625 48.484375 
Q 26.265625 48.484375 22.1875 42.84375 
Q 18.109375 37.203125 18.109375 27.296875 
Q 18.109375 17.390625 22.1875 11.75 
Q 26.265625 6.109375 33.40625 6.109375 
Q 40.53125 6.109375 44.609375 11.75 
Q 48.6875 17.390625 48.6875 27.296875 
z
" id="DejaVuSans-112"/>
      <path d="M 9.8125 72.90625 
L 19.671875 72.90625 
L 19.671875 0 
L 9.8125 0 
z
" id="DejaVuSans-73"/>
     </defs>
     <g transform="translate(383.188221 274.316562)scale(0.1 -0.1)">
      <use xlink:href="#DejaVuSans-66"/>
      <use x="68.603516" xlink:href="#DejaVuSans-101"/>
      <use x="130.126953" xlink:href="#DejaVuSans-104"/>
      <use x="193.505859" xlink:href="#DejaVuSans-97"/>
      <use x="254.785156" xlink:href="#DejaVuSans-118"/>
      <use x="313.964844" xlink:href="#DejaVuSans-105"/>
      <use x="341.748047" xlink:href="#DejaVuSans-111"/>
      <use x="402.929688" xlink:href="#DejaVuSans-114"/>
      <use x="444.042969" xlink:href="#DejaVuSans-32"/>
      <use x="475.830078" xlink:href="#DejaVuSans-112"/>
      <use x="539.306641" xlink:href="#DejaVuSans-101"/>
      <use x="600.830078" xlink:href="#DejaVuSans-114"/>
      <use x="641.943359" xlink:href="#DejaVuSans-102"/>
      <use x="677.148438" xlink:href="#DejaVuSans-111"/>
      <use x="738.330078" xlink:href="#DejaVuSans-114"/>
      <use x="779.427734" xlink:href="#DejaVuSans-109"/>
      <use x="876.839844" xlink:href="#DejaVuSans-97"/>
      <use x="938.119141" xlink:href="#DejaVuSans-110"/>
      <use x="1001.498047" xlink:href="#DejaVuSans-99"/>
      <use x="1056.478516" xlink:href="#DejaVuSans-101"/>
      <use x="1118.001953" xlink:href="#DejaVuSans-32"/>
      <use x="1149.789062" xlink:href="#DejaVuSans-40"/>
      <use x="1188.802734" xlink:href="#DejaVuSans-68"/>
      <use x="1265.804688" xlink:href="#DejaVuSans-73"/>
      <use x="1295.296875" xlink:href="#DejaVuSans-41"/>
     </g>
    </g>
   </g>
   <g id="matplotlib.axis_4">
    <g id="ytick_10">
     <g id="line2d_21">
      <g>
       <use style="stroke:#000000;stroke-width:0.8;" x="337.130817" xlink:href="#me30c4dc539" y="214.263035"/>
      </g>
     </g>
     <g id="text_24">
      <!-- 0 -->
      <g transform="translate(323.768317 218.062253)scale(0.1 -0.1)">
       <use xlink:href="#DejaVuSans-48"/>
      </g>
     </g>
    </g>
    <g id="ytick_11">
     <g id="line2d_22">
      <g>
       <use style="stroke:#000000;stroke-width:0.8;" x="337.130817" xlink:href="#me30c4dc539" y="178.522257"/>
      </g>
     </g>
     <g id="text_25">
      <!-- 1 -->
      <g transform="translate(323.768317 182.321475)scale(0.1 -0.1)">
       <use xlink:href="#DejaVuSans-49"/>
      </g>
     </g>
    </g>
    <g id="ytick_12">
     <g id="line2d_23">
      <g>
       <use style="stroke:#000000;stroke-width:0.8;" x="337.130817" xlink:href="#me30c4dc539" y="142.781479"/>
      </g>
     </g>
     <g id="text_26">
      <!-- 2 -->
      <g transform="translate(323.768317 146.580698)scale(0.1 -0.1)">
       <use xlink:href="#DejaVuSans-50"/>
      </g>
     </g>
    </g>
    <g id="ytick_13">
     <g id="line2d_24">
      <g>
       <use style="stroke:#000000;stroke-width:0.8;" x="337.130817" xlink:href="#me30c4dc539" y="107.040701"/>
      </g>
     </g>
     <g id="text_27">
      <!-- 3 -->
      <g transform="translate(323.768317 110.83992)scale(0.1 -0.1)">
       <use xlink:href="#DejaVuSans-51"/>
      </g>
     </g>
    </g>
    <g id="ytick_14">
     <g id="line2d_25">
      <g>
       <use style="stroke:#000000;stroke-width:0.8;" x="337.130817" xlink:href="#me30c4dc539" y="71.299923"/>
      </g>
     </g>
     <g id="text_28">
      <!-- 4 -->
      <g transform="translate(323.768317 75.099142)scale(0.1 -0.1)">
       <use xlink:href="#DejaVuSans-52"/>
      </g>
     </g>
    </g>
    <g id="ytick_15">
     <g id="line2d_26">
      <g>
       <use style="stroke:#000000;stroke-width:0.8;" x="337.130817" xlink:href="#me30c4dc539" y="35.559145"/>
      </g>
     </g>
     <g id="text_29">
      <!-- 5 -->
      <g transform="translate(323.768317 39.358364)scale(0.1 -0.1)">
       <use xlink:href="#DejaVuSans-53"/>
      </g>
     </g>
    </g>
    <g id="text_30">
     <!-- $\Delta d'$ -->
     <defs>
      <path d="M 34.1875 63.1875 
L 14.15625 8.203125 
L 54.25 8.203125 
z
M 0.78125 0 
L 28.609375 72.90625 
L 39.796875 72.90625 
L 67.578125 0 
z
" id="DejaVuSans-916"/>
     </defs>
     <g transform="translate(306.490817 145.028)rotate(-90)scale(0.1 -0.1)">
      <use transform="translate(0 0.584375)" xlink:href="#DejaVuSans-916"/>
      <use transform="translate(68.408203 0.584375)" xlink:href="#DejaVuSans-Oblique-100"/>
      <use transform="translate(139.332474 38.865625)scale(0.7)" xlink:href="#Cmsy10-48"/>
     </g>
     <!-- (Active - Passive) -->
     <defs>
      <path d="M 4.890625 31.390625 
L 31.203125 31.390625 
L 31.203125 23.390625 
L 4.890625 23.390625 
z
" id="DejaVuSans-45"/>
     </defs>
     <g transform="translate(317.688629 180.075656)rotate(-90)scale(0.1 -0.1)">
      <use xlink:href="#DejaVuSans-40"/>
      <use x="39.013672" xlink:href="#DejaVuSans-65"/>
      <use x="107.40625" xlink:href="#DejaVuSans-99"/>
      <use x="162.386719" xlink:href="#DejaVuSans-116"/>
      <use x="201.595703" xlink:href="#DejaVuSans-105"/>
      <use x="229.378906" xlink:href="#DejaVuSans-118"/>
      <use x="288.558594" xlink:href="#DejaVuSans-101"/>
      <use x="350.082031" xlink:href="#DejaVuSans-32"/>
      <use x="381.869141" xlink:href="#DejaVuSans-45"/>
      <use x="417.953125" xlink:href="#DejaVuSans-32"/>
      <use x="449.740234" xlink:href="#DejaVuSans-80"/>
      <use x="509.980469" xlink:href="#DejaVuSans-97"/>
      <use x="571.259766" xlink:href="#DejaVuSans-115"/>
      <use x="623.359375" xlink:href="#DejaVuSans-115"/>
      <use x="675.458984" xlink:href="#DejaVuSans-105"/>
      <use x="703.242188" xlink:href="#DejaVuSans-118"/>
      <use x="762.421875" xlink:href="#DejaVuSans-101"/>
      <use x="823.945312" xlink:href="#DejaVuSans-41"/>
     </g>
    </g>
   </g>
   <g id="line2d_27">
    <path clip-path="url(#pedac26ef65)" d="M 347.865553 204.15009 
L 349.926964 204.084817 
L 351.988376 204.019544 
L 354.049787 203.954271 
L 356.111198 203.888999 
L 358.172609 203.823726 
L 360.234021 203.758453 
L 362.295432 203.693181 
L 364.356843 203.627908 
L 366.418254 203.562635 
L 368.479665 203.497362 
L 370.541077 203.43209 
L 372.602488 203.366817 
L 374.663899 203.301544 
L 376.72531 203.236271 
L 378.786721 203.170999 
L 380.848133 203.105726 
L 382.909544 203.040453 
L 384.970955 202.975181 
L 387.032366 202.909908 
L 389.093777 202.844635 
L 391.155189 202.779362 
L 393.2166 202.71409 
L 395.278011 202.648817 
L 397.339422 202.583544 
L 399.400834 202.518271 
L 401.462245 202.452999 
L 403.523656 202.387726 
L 405.585067 202.322453 
L 407.646478 202.257181 
L 409.70789 202.191908 
L 411.769301 202.126635 
L 413.830712 202.061362 
L 415.892123 201.99609 
L 417.953534 201.930817 
L 420.014946 201.865544 
L 422.076357 201.800271 
L 424.137768 201.734999 
L 426.199179 201.669726 
L 428.260591 201.604453 
L 430.322002 201.53918 
L 432.383413 201.473908 
L 434.444824 201.408635 
L 436.506235 201.343362 
L 438.567647 201.27809 
L 440.629058 201.212817 
L 442.690469 201.147544 
L 444.75188 201.082271 
L 446.813291 201.016999 
L 448.874703 200.951726 
L 450.936114 200.886453 
L 452.997525 200.82118 
L 455.058936 200.755908 
L 457.120347 200.690635 
L 459.181759 200.625362 
L 461.24317 200.56009 
L 463.304581 200.494817 
L 465.365992 200.429544 
L 467.427404 200.364271 
L 469.488815 200.298999 
L 471.550226 200.233726 
L 473.611637 200.168453 
L 475.673048 200.10318 
L 477.73446 200.037908 
L 479.795871 199.972635 
L 481.857282 199.907362 
L 483.918693 199.842089 
L 485.980104 199.776817 
L 488.041516 199.711544 
L 490.102927 199.646271 
L 492.164338 199.580999 
L 494.225749 199.515726 
L 496.287161 199.450453 
L 498.348572 199.38518 
L 500.409983 199.319908 
L 502.471394 199.254635 
L 504.532805 199.189362 
L 506.594217 199.124089 
L 508.655628 199.058817 
L 510.717039 198.993544 
L 512.77845 198.928271 
L 514.839861 198.862999 
L 516.901273 198.797726 
L 518.962684 198.732453 
L 521.024095 198.66718 
L 523.085506 198.601908 
L 525.146917 198.536635 
L 527.208329 198.471362 
L 529.26974 198.406089 
L 531.331151 198.340817 
L 533.392562 198.275544 
L 535.453974 198.210271 
L 537.515385 198.144999 
L 539.576796 198.079726 
L 541.638207 198.014453 
L 543.699618 197.94918 
L 545.76103 197.883908 
L 547.822441 197.818635 
L 549.883852 197.753362 
L 551.945263 197.688089 
" style="fill:none;stroke:#1f77b4;stroke-linecap:square;stroke-width:2.25;"/>
   </g>
   <g id="line2d_28">
    <path clip-path="url(#pedac26ef65)" d="M 337.130817 214.263035 
L 562.68 214.263035 
" style="fill:none;stroke:#000000;stroke-dasharray:5.55,2.4;stroke-dashoffset:0;stroke-width:1.5;"/>
   </g>
   <g id="line2d_29">
    <path clip-path="url(#pedac26ef65)" d="M 372.715263 246.04 
L 372.715263 27.816 
" style="fill:none;stroke:#000000;stroke-dasharray:5.55,2.4;stroke-dashoffset:0;stroke-width:1.5;"/>
   </g>
   <g id="patch_6">
    <path d="M 337.130817 246.04 
L 337.130817 27.816 
" style="fill:none;stroke:#000000;stroke-linecap:square;stroke-linejoin:miter;stroke-width:0.8;"/>
   </g>
   <g id="patch_7">
    <path d="M 337.130817 246.04 
L 562.68 246.04 
" style="fill:none;stroke:#000000;stroke-linecap:square;stroke-linejoin:miter;stroke-width:0.8;"/>
   </g>
   <g id="text_31">
    <!-- $r$: 0.057, $p$: 0.668 -->
    <defs>
     <path d="M 44.578125 46.390625 
Q 43.21875 47.125 41.453125 47.515625 
Q 39.703125 47.90625 37.703125 47.90625 
Q 30.515625 47.90625 25.140625 42.453125 
Q 19.78125 37.015625 18.015625 27.875 
L 12.5 0 
L 3.515625 0 
L 14.203125 54.6875 
L 23.1875 54.6875 
L 21.484375 46.1875 
Q 25.046875 50.921875 30 53.453125 
Q 34.96875 56 40.578125 56 
Q 42.046875 56 43.453125 55.828125 
Q 44.875 55.671875 46.296875 55.28125 
z
" id="DejaVuSans-Oblique-114"/>
     <path d="M 11.71875 12.40625 
L 22.015625 12.40625 
L 22.015625 0 
L 11.71875 0 
z
M 11.71875 51.703125 
L 22.015625 51.703125 
L 22.015625 39.3125 
L 11.71875 39.3125 
z
" id="DejaVuSans-58"/>
     <path d="M 11.71875 12.40625 
L 22.015625 12.40625 
L 22.015625 4 
L 14.015625 -11.625 
L 7.71875 -11.625 
L 11.71875 4 
z
" id="DejaVuSans-44"/>
     <path d="M 49.609375 33.6875 
Q 49.609375 40.875 46.484375 44.671875 
Q 43.359375 48.484375 37.5 48.484375 
Q 33.5 48.484375 29.859375 46.4375 
Q 26.21875 44.390625 23.390625 40.484375 
Q 20.609375 36.625 18.9375 31.15625 
Q 17.28125 25.6875 17.28125 20.3125 
Q 17.28125 13.484375 20.40625 9.796875 
Q 23.53125 6.109375 29.296875 6.109375 
Q 33.546875 6.109375 37.1875 8.109375 
Q 40.828125 10.109375 43.40625 13.921875 
Q 46.1875 17.921875 47.890625 23.34375 
Q 49.609375 28.765625 49.609375 33.6875 
z
M 21.78125 46.390625 
Q 25.390625 51.125 30.296875 53.5625 
Q 35.203125 56 41.21875 56 
Q 49.609375 56 54.25 50.5 
Q 58.890625 45.015625 58.890625 35.109375 
Q 58.890625 27 56 19.65625 
Q 53.125 12.3125 47.703125 6.5 
Q 44.09375 2.640625 39.546875 0.609375 
Q 35.015625 -1.421875 29.984375 -1.421875 
Q 24.171875 -1.421875 20.21875 1 
Q 16.265625 3.421875 14.3125 8.203125 
L 8.6875 -20.796875 
L -0.296875 -20.796875 
L 14.40625 54.6875 
L 23.390625 54.6875 
z
" id="DejaVuSans-Oblique-112"/>
    </defs>
    <g transform="translate(397.585408 21.816)scale(0.12 -0.12)">
     <use transform="translate(0 0.78125)" xlink:href="#DejaVuSans-Oblique-114"/>
     <use transform="translate(41.113281 0.78125)" xlink:href="#DejaVuSans-58"/>
     <use transform="translate(74.804688 0.78125)" xlink:href="#DejaVuSans-32"/>
     <use transform="translate(106.591797 0.78125)" xlink:href="#DejaVuSans-48"/>
     <use transform="translate(170.214844 0.78125)" xlink:href="#DejaVuSans-46"/>
     <use transform="translate(202.001953 0.78125)" xlink:href="#DejaVuSans-48"/>
     <use transform="translate(265.625 0.78125)" xlink:href="#DejaVuSans-53"/>
     <use transform="translate(329.138672 0.78125)" xlink:href="#DejaVuSans-55"/>
     <use transform="translate(392.761719 0.78125)" xlink:href="#DejaVuSans-44"/>
     <use transform="translate(424.548828 0.78125)" xlink:href="#DejaVuSans-32"/>
     <use transform="translate(456.335938 0.78125)" xlink:href="#DejaVuSans-Oblique-112"/>
     <use transform="translate(519.8125 0.78125)" xlink:href="#DejaVuSans-58"/>
     <use transform="translate(553.503906 0.78125)" xlink:href="#DejaVuSans-32"/>
     <use transform="translate(585.291016 0.78125)" xlink:href="#DejaVuSans-48"/>
     <use transform="translate(648.914062 0.78125)" xlink:href="#DejaVuSans-46"/>
     <use transform="translate(680.701172 0.78125)" xlink:href="#DejaVuSans-54"/>
     <use transform="translate(744.324219 0.78125)" xlink:href="#DejaVuSans-54"/>
     <use transform="translate(807.947266 0.78125)" xlink:href="#DejaVuSans-56"/>
    </g>
   </g>
  </g>
 </g>
 <defs>
  <clipPath id="pb24ed1042e">
   <rect height="218.224" width="225.549183" x="38.27" y="27.816"/>
  </clipPath>
  <clipPath id="pedac26ef65">
   <rect height="218.224" width="225.549183" x="337.130817" y="27.816"/>
  </clipPath>
 </defs>
</svg>
