<?xml version="1.0" encoding="utf-8" standalone="no"?>
<!DOCTYPE svg PUBLIC "-//W3C//DTD SVG 1.1//EN"
  "http://www.w3.org/Graphics/SVG/1.1/DTD/svg11.dtd">
<!-- Created with matplotlib (https://matplotlib.org/) -->
<svg height="288pt" version="1.1" viewBox="0 0 165.6 288" width="165.6pt" xmlns="http://www.w3.org/2000/svg" xmlns:xlink="http://www.w3.org/1999/xlink">
 <metadata>
  <rdf:RDF xmlns:cc="http://creativecommons.org/ns#" xmlns:dc="http://purl.org/dc/elements/1.1/" xmlns:rdf="http://www.w3.org/1999/02/22-rdf-syntax-ns#">
   <cc:Work>
    <dc:type rdf:resource="http://purl.org/dc/dcmitype/StillImage"/>
    <dc:date>2021-06-23T22:46:59.095712</dc:date>
    <dc:format>image/svg+xml</dc:format>
    <dc:creator>
     <cc:Agent>
      <dc:title>Matplotlib v3.3.2, https://matplotlib.org/</dc:title>
     </cc:Agent>
    </dc:creator>
   </cc:Work>
  </rdf:RDF>
 </metadata>
 <defs>
  <style type="text/css">*{stroke-linecap:butt;stroke-linejoin:round;}</style>
 </defs>
 <g id="figure_1">
  <g id="patch_1">
   <path d="M 0 288 
L 165.6 288 
L 165.6 0 
L 0 0 
z
" style="fill:#ffffff;"/>
  </g>
  <g id="axes_1">
   <g id="patch_2">
    <path d="M 47.72 121.38 
L 156.96 121.38 
L 156.96 25.152 
L 47.72 25.152 
z
" style="fill:#ffffff;"/>
   </g>
   <g id="PathCollection_1">
    <defs>
     <path d="M 0 1.936492 
C 0.513564 1.936492 1.006162 1.732451 1.369306 1.369306 
C 1.732451 1.006162 1.936492 0.513564 1.936492 0 
C 1.936492 -0.513564 1.732451 -1.006162 1.369306 -1.369306 
C 1.006162 -1.732451 0.513564 -1.936492 0 -1.936492 
C -0.513564 -1.936492 -1.006162 -1.732451 -1.369306 -1.369306 
C -1.732451 -1.006162 -1.936492 -0.513564 -1.936492 0 
C -1.936492 0.513564 -1.732451 1.006162 -1.369306 1.369306 
C -1.006162 1.732451 -0.513564 1.936492 0 1.936492 
z
" id="m5241678a37" style="stroke:#1f77b4;stroke-opacity:0.8;"/>
    </defs>
    <g clip-path="url(#pf6587cb780)">
     <use style="fill:#1f77b4;fill-opacity:0.8;stroke:#1f77b4;stroke-opacity:0.8;" x="146.440123" xlink:href="#m5241678a37" y="91.685158"/>
     <use style="fill:#1f77b4;fill-opacity:0.8;stroke:#1f77b4;stroke-opacity:0.8;" x="145.905422" xlink:href="#m5241678a37" y="79.224306"/>
     <use style="fill:#1f77b4;fill-opacity:0.8;stroke:#1f77b4;stroke-opacity:0.8;" x="139.555849" xlink:href="#m5241678a37" y="88.688216"/>
     <use style="fill:#1f77b4;fill-opacity:0.8;stroke:#1f77b4;stroke-opacity:0.8;" x="141.226789" xlink:href="#m5241678a37" y="91.316696"/>
     <use style="fill:#1f77b4;fill-opacity:0.8;stroke:#1f77b4;stroke-opacity:0.8;" x="111.502853" xlink:href="#m5241678a37" y="83.139767"/>
     <use style="fill:#1f77b4;fill-opacity:0.8;stroke:#1f77b4;stroke-opacity:0.8;" x="106.066407" xlink:href="#m5241678a37" y="103.789941"/>
     <use style="fill:#1f77b4;fill-opacity:0.8;stroke:#1f77b4;stroke-opacity:0.8;" x="134.002425" xlink:href="#m5241678a37" y="81.926325"/>
     <use style="fill:#1f77b4;fill-opacity:0.8;stroke:#1f77b4;stroke-opacity:0.8;" x="150.977219" xlink:href="#m5241678a37" y="85.414316"/>
     <use style="fill:#1f77b4;fill-opacity:0.8;stroke:#1f77b4;stroke-opacity:0.8;" x="146.440123" xlink:href="#m5241678a37" y="76.808942"/>
     <use style="fill:#1f77b4;fill-opacity:0.8;stroke:#1f77b4;stroke-opacity:0.8;" x="145.905422" xlink:href="#m5241678a37" y="84.547171"/>
     <use style="fill:#1f77b4;fill-opacity:0.8;stroke:#1f77b4;stroke-opacity:0.8;" x="139.555849" xlink:href="#m5241678a37" y="84.632018"/>
     <use style="fill:#1f77b4;fill-opacity:0.8;stroke:#1f77b4;stroke-opacity:0.8;" x="141.226789" xlink:href="#m5241678a37" y="98.925467"/>
     <use style="fill:#1f77b4;fill-opacity:0.8;stroke:#1f77b4;stroke-opacity:0.8;" x="111.502853" xlink:href="#m5241678a37" y="80.804745"/>
     <use style="fill:#1f77b4;fill-opacity:0.8;stroke:#1f77b4;stroke-opacity:0.8;" x="106.066407" xlink:href="#m5241678a37" y="115.479929"/>
     <use style="fill:#1f77b4;fill-opacity:0.8;stroke:#1f77b4;stroke-opacity:0.8;" x="134.002425" xlink:href="#m5241678a37" y="88.818885"/>
     <use style="fill:#1f77b4;fill-opacity:0.8;stroke:#1f77b4;stroke-opacity:0.8;" x="150.977219" xlink:href="#m5241678a37" y="95.851395"/>
     <use style="fill:#1f77b4;fill-opacity:0.8;stroke:#1f77b4;stroke-opacity:0.8;" x="73.702109" xlink:href="#m5241678a37" y="88.763224"/>
     <use style="fill:#1f77b4;fill-opacity:0.8;stroke:#1f77b4;stroke-opacity:0.8;" x="87.268737" xlink:href="#m5241678a37" y="79.161769"/>
     <use style="fill:#1f77b4;fill-opacity:0.8;stroke:#1f77b4;stroke-opacity:0.8;" x="124.278657" xlink:href="#m5241678a37" y="91.855687"/>
     <use style="fill:#1f77b4;fill-opacity:0.8;stroke:#1f77b4;stroke-opacity:0.8;" x="142.218337" xlink:href="#m5241678a37" y="75.961026"/>
     <use style="fill:#1f77b4;fill-opacity:0.8;stroke:#1f77b4;stroke-opacity:0.8;" x="139.198431" xlink:href="#m5241678a37" y="99.942253"/>
     <use style="fill:#1f77b4;fill-opacity:0.8;stroke:#1f77b4;stroke-opacity:0.8;" x="123.370841" xlink:href="#m5241678a37" y="76.186299"/>
     <use style="fill:#1f77b4;fill-opacity:0.8;stroke:#1f77b4;stroke-opacity:0.8;" x="113.704629" xlink:href="#m5241678a37" y="78.510866"/>
     <use style="fill:#1f77b4;fill-opacity:0.8;stroke:#1f77b4;stroke-opacity:0.8;" x="125.743155" xlink:href="#m5241678a37" y="81.468624"/>
     <use style="fill:#1f77b4;fill-opacity:0.8;stroke:#1f77b4;stroke-opacity:0.8;" x="106.546681" xlink:href="#m5241678a37" y="70.738141"/>
     <use style="fill:#1f77b4;fill-opacity:0.8;stroke:#1f77b4;stroke-opacity:0.8;" x="106.151229" xlink:href="#m5241678a37" y="75.972199"/>
     <use style="fill:#1f77b4;fill-opacity:0.8;stroke:#1f77b4;stroke-opacity:0.8;" x="100.754447" xlink:href="#m5241678a37" y="86.596132"/>
     <use style="fill:#1f77b4;fill-opacity:0.8;stroke:#1f77b4;stroke-opacity:0.8;" x="132.288613" xlink:href="#m5241678a37" y="82.574349"/>
     <use style="fill:#1f77b4;fill-opacity:0.8;stroke:#1f77b4;stroke-opacity:0.8;" x="106.190341" xlink:href="#m5241678a37" y="94.422777"/>
     <use style="fill:#1f77b4;fill-opacity:0.8;stroke:#1f77b4;stroke-opacity:0.8;" x="121.332438" xlink:href="#m5241678a37" y="92.295023"/>
     <use style="fill:#1f77b4;fill-opacity:0.8;stroke:#1f77b4;stroke-opacity:0.8;" x="111.984586" xlink:href="#m5241678a37" y="73.564719"/>
     <use style="fill:#1f77b4;fill-opacity:0.8;stroke:#1f77b4;stroke-opacity:0.8;" x="139.11282" xlink:href="#m5241678a37" y="97.015271"/>
     <use style="fill:#1f77b4;fill-opacity:0.8;stroke:#1f77b4;stroke-opacity:0.8;" x="131.260702" xlink:href="#m5241678a37" y="117.006"/>
     <use style="fill:#1f77b4;fill-opacity:0.8;stroke:#1f77b4;stroke-opacity:0.8;" x="135.364182" xlink:href="#m5241678a37" y="91.442523"/>
     <use style="fill:#1f77b4;fill-opacity:0.8;stroke:#1f77b4;stroke-opacity:0.8;" x="132.279056" xlink:href="#m5241678a37" y="90.060904"/>
     <use style="fill:#1f77b4;fill-opacity:0.8;stroke:#1f77b4;stroke-opacity:0.8;" x="109.76656" xlink:href="#m5241678a37" y="92.269309"/>
     <use style="fill:#1f77b4;fill-opacity:0.8;stroke:#1f77b4;stroke-opacity:0.8;" x="116.407726" xlink:href="#m5241678a37" y="95.502473"/>
     <use style="fill:#1f77b4;fill-opacity:0.8;stroke:#1f77b4;stroke-opacity:0.8;" x="114.624053" xlink:href="#m5241678a37" y="105.213593"/>
     <use style="fill:#1f77b4;fill-opacity:0.8;stroke:#1f77b4;stroke-opacity:0.8;" x="136.774923" xlink:href="#m5241678a37" y="64.058888"/>
     <use style="fill:#1f77b4;fill-opacity:0.8;stroke:#1f77b4;stroke-opacity:0.8;" x="120.046603" xlink:href="#m5241678a37" y="106.031954"/>
     <use style="fill:#1f77b4;fill-opacity:0.8;stroke:#1f77b4;stroke-opacity:0.8;" x="116.162659" xlink:href="#m5241678a37" y="72.99845"/>
     <use style="fill:#1f77b4;fill-opacity:0.8;stroke:#1f77b4;stroke-opacity:0.8;" x="63.063846" xlink:href="#m5241678a37" y="78.074367"/>
     <use style="fill:#1f77b4;fill-opacity:0.8;stroke:#1f77b4;stroke-opacity:0.8;" x="136.72143" xlink:href="#m5241678a37" y="84.569493"/>
     <use style="fill:#1f77b4;fill-opacity:0.8;stroke:#1f77b4;stroke-opacity:0.8;" x="120.927942" xlink:href="#m5241678a37" y="96.037629"/>
     <use style="fill:#1f77b4;fill-opacity:0.8;stroke:#1f77b4;stroke-opacity:0.8;" x="154.965639" xlink:href="#m5241678a37" y="99.407879"/>
     <use style="fill:#1f77b4;fill-opacity:0.8;stroke:#1f77b4;stroke-opacity:0.8;" x="125.661041" xlink:href="#m5241678a37" y="92.434164"/>
     <use style="fill:#1f77b4;fill-opacity:0.8;stroke:#1f77b4;stroke-opacity:0.8;" x="128.468536" xlink:href="#m5241678a37" y="98.784326"/>
     <use style="fill:#1f77b4;fill-opacity:0.8;stroke:#1f77b4;stroke-opacity:0.8;" x="119.188691" xlink:href="#m5241678a37" y="105.4372"/>
     <use style="fill:#1f77b4;fill-opacity:0.8;stroke:#1f77b4;stroke-opacity:0.8;" x="136.410945" xlink:href="#m5241678a37" y="101.625842"/>
     <use style="fill:#1f77b4;fill-opacity:0.8;stroke:#1f77b4;stroke-opacity:0.8;" x="124.388471" xlink:href="#m5241678a37" y="94.254927"/>
     <use style="fill:#1f77b4;fill-opacity:0.8;stroke:#1f77b4;stroke-opacity:0.8;" x="125.677198" xlink:href="#m5241678a37" y="32.286906"/>
     <use style="fill:#1f77b4;fill-opacity:0.8;stroke:#1f77b4;stroke-opacity:0.8;" x="55.770047" xlink:href="#m5241678a37" y="51.98466"/>
     <use style="fill:#1f77b4;fill-opacity:0.8;stroke:#1f77b4;stroke-opacity:0.8;" x="98.412488" xlink:href="#m5241678a37" y="41.970364"/>
     <use style="fill:#1f77b4;fill-opacity:0.8;stroke:#1f77b4;stroke-opacity:0.8;" x="102.508672" xlink:href="#m5241678a37" y="88.306523"/>
     <use style="fill:#1f77b4;fill-opacity:0.8;stroke:#1f77b4;stroke-opacity:0.8;" x="80.714825" xlink:href="#m5241678a37" y="94.59518"/>
     <use style="fill:#1f77b4;fill-opacity:0.8;stroke:#1f77b4;stroke-opacity:0.8;" x="85.441194" xlink:href="#m5241678a37" y="104.233183"/>
     <use style="fill:#1f77b4;fill-opacity:0.8;stroke:#1f77b4;stroke-opacity:0.8;" x="62.470274" xlink:href="#m5241678a37" y="95.787185"/>
     <use style="fill:#1f77b4;fill-opacity:0.8;stroke:#1f77b4;stroke-opacity:0.8;" x="150.007876" xlink:href="#m5241678a37" y="85.509253"/>
     <use style="fill:#1f77b4;fill-opacity:0.8;stroke:#1f77b4;stroke-opacity:0.8;" x="149.754356" xlink:href="#m5241678a37" y="90.739442"/>
     <use style="fill:#1f77b4;fill-opacity:0.8;stroke:#1f77b4;stroke-opacity:0.8;" x="83.242612" xlink:href="#m5241678a37" y="65.686593"/>
     <use style="fill:#1f77b4;fill-opacity:0.8;stroke:#1f77b4;stroke-opacity:0.8;" x="156.96" xlink:href="#m5241678a37" y="49.914454"/>
     <use style="fill:#1f77b4;fill-opacity:0.8;stroke:#1f77b4;stroke-opacity:0.8;" x="148.095103" xlink:href="#m5241678a37" y="29.526"/>
     <use style="fill:#1f77b4;fill-opacity:0.8;stroke:#1f77b4;stroke-opacity:0.8;" x="65.16551" xlink:href="#m5241678a37" y="34.415253"/>
     <use style="fill:#1f77b4;fill-opacity:0.8;stroke:#1f77b4;stroke-opacity:0.8;" x="143.231918" xlink:href="#m5241678a37" y="64.805689"/>
     <use style="fill:#1f77b4;fill-opacity:0.8;stroke:#1f77b4;stroke-opacity:0.8;" x="114.066043" xlink:href="#m5241678a37" y="80.633477"/>
     <use style="fill:#1f77b4;fill-opacity:0.8;stroke:#1f77b4;stroke-opacity:0.8;" x="151.745286" xlink:href="#m5241678a37" y="90.240252"/>
     <use style="fill:#1f77b4;fill-opacity:0.8;stroke:#1f77b4;stroke-opacity:0.8;" x="47.72" xlink:href="#m5241678a37" y="80.225497"/>
     <use style="fill:#1f77b4;fill-opacity:0.8;stroke:#1f77b4;stroke-opacity:0.8;" x="115.195276" xlink:href="#m5241678a37" y="60.742427"/>
    </g>
   </g>
   <g id="PolyCollection_1">
    <path clip-path="url(#pf6587cb780)" d="M 47.72 64.164675 
L 47.72 93.022732 
L 48.823434 92.959184 
L 49.926869 92.895345 
L 51.030303 92.824643 
L 52.133737 92.710948 
L 53.237172 92.596569 
L 54.340606 92.481302 
L 55.44404 92.366036 
L 56.547475 92.25077 
L 57.650909 92.135504 
L 58.754343 92.020237 
L 59.857778 91.904971 
L 60.961212 91.787543 
L 62.064646 91.661046 
L 63.168081 91.53455 
L 64.271515 91.408053 
L 65.374949 91.281557 
L 66.478384 91.15506 
L 67.581818 91.028564 
L 68.685253 90.902067 
L 69.788687 90.801493 
L 70.892121 90.715424 
L 71.995556 90.629356 
L 73.09899 90.52555 
L 74.202424 90.411321 
L 75.305859 90.334614 
L 76.409293 90.277127 
L 77.512727 90.202887 
L 78.616162 90.083062 
L 79.719596 90.032167 
L 80.82303 89.946839 
L 81.926465 89.806145 
L 83.029899 89.651239 
L 84.133333 89.496333 
L 85.236768 89.341428 
L 86.340202 89.186522 
L 87.443636 89.148674 
L 88.547071 89.151674 
L 89.650505 89.154675 
L 90.753939 89.157275 
L 91.857374 89.002795 
L 92.960808 88.841078 
L 94.064242 88.708859 
L 95.167677 88.538404 
L 96.271111 88.488287 
L 97.374545 88.438611 
L 98.47798 88.411622 
L 99.581414 88.391954 
L 100.684848 88.380246 
L 101.788283 88.274384 
L 102.891717 88.198837 
L 103.995152 88.150171 
L 105.098586 88.117794 
L 106.20202 88.090028 
L 107.305455 88.062838 
L 108.408889 88.029647 
L 109.512323 87.996457 
L 110.615758 87.963267 
L 111.719192 87.929002 
L 112.822626 87.895451 
L 113.926061 87.914678 
L 115.029495 87.924311 
L 116.132929 87.97964 
L 117.236364 87.928544 
L 118.339798 87.8833 
L 119.443232 87.960002 
L 120.546667 87.996949 
L 121.650101 88.029032 
L 122.753535 88.159646 
L 123.85697 88.258741 
L 124.960404 88.289387 
L 126.063838 88.312662 
L 127.167273 88.420738 
L 128.270707 88.490129 
L 129.374141 88.661596 
L 130.477576 88.898395 
L 131.58101 89.080126 
L 132.684444 89.21434 
L 133.787879 89.346974 
L 134.891313 89.481471 
L 135.994747 89.728427 
L 137.098182 89.921569 
L 138.201616 90.016653 
L 139.305051 90.322967 
L 140.408485 90.535627 
L 141.511919 90.755347 
L 142.615354 90.942716 
L 143.718788 91.159298 
L 144.822222 91.43926 
L 145.925657 91.643798 
L 147.029091 91.939976 
L 148.132525 92.216148 
L 149.23596 92.467036 
L 150.339394 92.762429 
L 151.442828 93.057713 
L 152.546263 93.352998 
L 153.649697 93.600278 
L 154.753131 93.826799 
L 155.856566 94.129944 
L 156.96 94.356681 
L 156.96 79.025579 
L 156.96 79.025579 
L 155.856566 79.110379 
L 154.753131 79.211036 
L 153.649697 79.312071 
L 152.546263 79.413105 
L 151.442828 79.481289 
L 150.339394 79.615061 
L 149.23596 79.716209 
L 148.132525 79.819915 
L 147.029091 79.917903 
L 145.925657 80.000894 
L 144.822222 79.98412 
L 143.718788 80.146803 
L 142.615354 80.180322 
L 141.511919 80.115014 
L 140.408485 80.247142 
L 139.305051 80.386644 
L 138.201616 80.463585 
L 137.098182 80.518543 
L 135.994747 80.464353 
L 134.891313 80.396486 
L 133.787879 80.431864 
L 132.684444 80.427814 
L 131.58101 80.363029 
L 130.477576 80.243642 
L 129.374141 80.167286 
L 128.270707 80.237954 
L 127.167273 80.119117 
L 126.063838 79.972768 
L 124.960404 79.857129 
L 123.85697 79.822956 
L 122.753535 79.664913 
L 121.650101 79.556498 
L 120.546667 79.578059 
L 119.443232 79.483976 
L 118.339798 79.36006 
L 117.236364 79.30937 
L 116.132929 79.100254 
L 115.029495 78.873698 
L 113.926061 78.657517 
L 112.822626 78.481358 
L 111.719192 78.345387 
L 110.615758 78.211063 
L 109.512323 78.037041 
L 108.408889 77.876412 
L 107.305455 77.67165 
L 106.20202 77.491402 
L 105.098586 77.264519 
L 103.995152 76.997593 
L 102.891717 76.723168 
L 101.788283 76.510452 
L 100.684848 76.315687 
L 99.581414 76.134665 
L 98.47798 75.869206 
L 97.374545 75.653863 
L 96.271111 75.473844 
L 95.167677 75.32271 
L 94.064242 75.107678 
L 92.960808 74.877048 
L 91.857374 74.583057 
L 90.753939 74.41957 
L 89.650505 74.173763 
L 88.547071 73.939021 
L 87.443636 73.723765 
L 86.340202 73.510215 
L 85.236768 73.324199 
L 84.133333 73.09771 
L 83.029899 72.866889 
L 81.926465 72.651804 
L 80.82303 72.403749 
L 79.719596 72.127399 
L 78.616162 71.886832 
L 77.512727 71.615873 
L 76.409293 71.344478 
L 75.305859 71.088315 
L 74.202424 70.804918 
L 73.09899 70.533199 
L 71.995556 70.261481 
L 70.892121 69.991628 
L 69.788687 69.722315 
L 68.685253 69.482389 
L 67.581818 69.292766 
L 66.478384 69.070652 
L 65.374949 68.796214 
L 64.271515 68.570445 
L 63.168081 68.292905 
L 62.064646 67.962764 
L 60.961212 67.632624 
L 59.857778 67.304209 
L 58.754343 67.04374 
L 57.650909 66.83212 
L 56.547475 66.592993 
L 55.44404 66.287948 
L 54.340606 65.982904 
L 53.237172 65.677859 
L 52.133737 65.394893 
L 51.030303 65.090685 
L 49.926869 64.760346 
L 48.823434 64.453809 
L 47.72 64.164675 
z
" style="fill:#1f77b4;fill-opacity:0.15;"/>
   </g>
   <g id="matplotlib.axis_1">
    <g id="xtick_1">
     <g id="line2d_1">
      <defs>
       <path d="M 0 0 
L 0 3.5 
" id="mc2d5727ed2" style="stroke:#000000;stroke-width:0.8;"/>
      </defs>
      <g>
       <use style="stroke:#000000;stroke-width:0.8;" x="83.078011" xlink:href="#mc2d5727ed2" y="121.38"/>
      </g>
     </g>
    </g>
    <g id="xtick_2">
     <g id="line2d_2">
      <g>
       <use style="stroke:#000000;stroke-width:0.8;" x="127.190876" xlink:href="#mc2d5727ed2" y="121.38"/>
      </g>
     </g>
    </g>
    <g id="text_1">
     <!-- DI -->
     <g transform="translate(98.08 131.45875)scale(0.08 -0.08)">
      <defs>
       <path d="M 19.671875 64.796875 
L 19.671875 8.109375 
L 31.59375 8.109375 
Q 46.6875 8.109375 53.6875 14.9375 
Q 60.6875 21.78125 60.6875 36.53125 
Q 60.6875 51.171875 53.6875 57.984375 
Q 46.6875 64.796875 31.59375 64.796875 
z
M 9.8125 72.90625 
L 30.078125 72.90625 
Q 51.265625 72.90625 61.171875 64.09375 
Q 71.09375 55.28125 71.09375 36.53125 
Q 71.09375 17.671875 61.125 8.828125 
Q 51.171875 0 30.078125 0 
L 9.8125 0 
z
" id="DejaVuSans-68"/>
       <path d="M 9.8125 72.90625 
L 19.671875 72.90625 
L 19.671875 0 
L 9.8125 0 
z
" id="DejaVuSans-73"/>
      </defs>
      <use xlink:href="#DejaVuSans-68"/>
      <use x="77.001953" xlink:href="#DejaVuSans-73"/>
     </g>
    </g>
   </g>
   <g id="matplotlib.axis_2">
    <g id="ytick_1">
     <g id="line2d_3">
      <defs>
       <path d="M 0 0 
L -3.5 0 
" id="m013ab14252" style="stroke:#000000;stroke-width:0.8;"/>
      </defs>
      <g>
       <use style="stroke:#000000;stroke-width:0.8;" x="47.72" xlink:href="#m013ab14252" y="101.866263"/>
      </g>
     </g>
     <g id="text_2">
      <!-- 0 -->
      <g transform="translate(35.63 104.905638)scale(0.08 -0.08)">
       <defs>
        <path d="M 31.78125 66.40625 
Q 24.171875 66.40625 20.328125 58.90625 
Q 16.5 51.421875 16.5 36.375 
Q 16.5 21.390625 20.328125 13.890625 
Q 24.171875 6.390625 31.78125 6.390625 
Q 39.453125 6.390625 43.28125 13.890625 
Q 47.125 21.390625 47.125 36.375 
Q 47.125 51.421875 43.28125 58.90625 
Q 39.453125 66.40625 31.78125 66.40625 
z
M 31.78125 74.21875 
Q 44.046875 74.21875 50.515625 64.515625 
Q 56.984375 54.828125 56.984375 36.375 
Q 56.984375 17.96875 50.515625 8.265625 
Q 44.046875 -1.421875 31.78125 -1.421875 
Q 19.53125 -1.421875 13.0625 8.265625 
Q 6.59375 17.96875 6.59375 36.375 
Q 6.59375 54.828125 13.0625 64.515625 
Q 19.53125 74.21875 31.78125 74.21875 
z
" id="DejaVuSans-48"/>
       </defs>
       <use xlink:href="#DejaVuSans-48"/>
      </g>
     </g>
    </g>
    <g id="ytick_2">
     <g id="line2d_4">
      <g>
       <use style="stroke:#000000;stroke-width:0.8;" x="47.72" xlink:href="#m013ab14252" y="77.142762"/>
      </g>
     </g>
     <g id="text_3">
      <!-- 1 -->
      <g transform="translate(35.63 80.182137)scale(0.08 -0.08)">
       <defs>
        <path d="M 12.40625 8.296875 
L 28.515625 8.296875 
L 28.515625 63.921875 
L 10.984375 60.40625 
L 10.984375 69.390625 
L 28.421875 72.90625 
L 38.28125 72.90625 
L 38.28125 8.296875 
L 54.390625 8.296875 
L 54.390625 0 
L 12.40625 0 
z
" id="DejaVuSans-49"/>
       </defs>
       <use xlink:href="#DejaVuSans-49"/>
      </g>
     </g>
    </g>
    <g id="ytick_3">
     <g id="line2d_5">
      <g>
       <use style="stroke:#000000;stroke-width:0.8;" x="47.72" xlink:href="#m013ab14252" y="52.41926"/>
      </g>
     </g>
     <g id="text_4">
      <!-- 2 -->
      <g transform="translate(35.63 55.458635)scale(0.08 -0.08)">
       <defs>
        <path d="M 19.1875 8.296875 
L 53.609375 8.296875 
L 53.609375 0 
L 7.328125 0 
L 7.328125 8.296875 
Q 12.9375 14.109375 22.625 23.890625 
Q 32.328125 33.6875 34.8125 36.53125 
Q 39.546875 41.84375 41.421875 45.53125 
Q 43.3125 49.21875 43.3125 52.78125 
Q 43.3125 58.59375 39.234375 62.25 
Q 35.15625 65.921875 28.609375 65.921875 
Q 23.96875 65.921875 18.8125 64.3125 
Q 13.671875 62.703125 7.8125 59.421875 
L 7.8125 69.390625 
Q 13.765625 71.78125 18.9375 73 
Q 24.125 74.21875 28.421875 74.21875 
Q 39.75 74.21875 46.484375 68.546875 
Q 53.21875 62.890625 53.21875 53.421875 
Q 53.21875 48.921875 51.53125 44.890625 
Q 49.859375 40.875 45.40625 35.40625 
Q 44.1875 33.984375 37.640625 27.21875 
Q 31.109375 20.453125 19.1875 8.296875 
z
" id="DejaVuSans-50"/>
       </defs>
       <use xlink:href="#DejaVuSans-50"/>
      </g>
     </g>
    </g>
    <g id="ytick_4">
     <g id="line2d_6">
      <g>
       <use style="stroke:#000000;stroke-width:0.8;" x="47.72" xlink:href="#m013ab14252" y="27.695759"/>
      </g>
     </g>
     <g id="text_5">
      <!-- 3 -->
      <g transform="translate(35.63 30.735134)scale(0.08 -0.08)">
       <defs>
        <path d="M 40.578125 39.3125 
Q 47.65625 37.796875 51.625 33 
Q 55.609375 28.21875 55.609375 21.1875 
Q 55.609375 10.40625 48.1875 4.484375 
Q 40.765625 -1.421875 27.09375 -1.421875 
Q 22.515625 -1.421875 17.65625 -0.515625 
Q 12.796875 0.390625 7.625 2.203125 
L 7.625 11.71875 
Q 11.71875 9.328125 16.59375 8.109375 
Q 21.484375 6.890625 26.8125 6.890625 
Q 36.078125 6.890625 40.9375 10.546875 
Q 45.796875 14.203125 45.796875 21.1875 
Q 45.796875 27.640625 41.28125 31.265625 
Q 36.765625 34.90625 28.71875 34.90625 
L 20.21875 34.90625 
L 20.21875 43.015625 
L 29.109375 43.015625 
Q 36.375 43.015625 40.234375 45.921875 
Q 44.09375 48.828125 44.09375 54.296875 
Q 44.09375 59.90625 40.109375 62.90625 
Q 36.140625 65.921875 28.71875 65.921875 
Q 24.65625 65.921875 20.015625 65.03125 
Q 15.375 64.15625 9.8125 62.3125 
L 9.8125 71.09375 
Q 15.4375 72.65625 20.34375 73.4375 
Q 25.25 74.21875 29.59375 74.21875 
Q 40.828125 74.21875 47.359375 69.109375 
Q 53.90625 64.015625 53.90625 55.328125 
Q 53.90625 49.265625 50.4375 45.09375 
Q 46.96875 40.921875 40.578125 39.3125 
z
" id="DejaVuSans-51"/>
       </defs>
       <use xlink:href="#DejaVuSans-51"/>
      </g>
     </g>
    </g>
    <g id="text_6">
     <!-- $\Delta$ Signal magnitude -->
     <g transform="translate(29.95 112.506)rotate(-90)scale(0.08 -0.08)">
      <defs>
       <path d="M 34.1875 63.1875 
L 14.15625 8.203125 
L 54.25 8.203125 
z
M 0.78125 0 
L 28.609375 72.90625 
L 39.796875 72.90625 
L 67.578125 0 
z
" id="DejaVuSans-916"/>
       <path id="DejaVuSans-32"/>
       <path d="M 53.515625 70.515625 
L 53.515625 60.890625 
Q 47.90625 63.578125 42.921875 64.890625 
Q 37.9375 66.21875 33.296875 66.21875 
Q 25.25 66.21875 20.875 63.09375 
Q 16.5 59.96875 16.5 54.203125 
Q 16.5 49.359375 19.40625 46.890625 
Q 22.3125 44.4375 30.421875 42.921875 
L 36.375 41.703125 
Q 47.40625 39.59375 52.65625 34.296875 
Q 57.90625 29 57.90625 20.125 
Q 57.90625 9.515625 50.796875 4.046875 
Q 43.703125 -1.421875 29.984375 -1.421875 
Q 24.8125 -1.421875 18.96875 -0.25 
Q 13.140625 0.921875 6.890625 3.21875 
L 6.890625 13.375 
Q 12.890625 10.015625 18.65625 8.296875 
Q 24.421875 6.59375 29.984375 6.59375 
Q 38.421875 6.59375 43.015625 9.90625 
Q 47.609375 13.234375 47.609375 19.390625 
Q 47.609375 24.75 44.3125 27.78125 
Q 41.015625 30.8125 33.5 32.328125 
L 27.484375 33.5 
Q 16.453125 35.6875 11.515625 40.375 
Q 6.59375 45.0625 6.59375 53.421875 
Q 6.59375 63.09375 13.40625 68.65625 
Q 20.21875 74.21875 32.171875 74.21875 
Q 37.3125 74.21875 42.625 73.28125 
Q 47.953125 72.359375 53.515625 70.515625 
z
" id="DejaVuSans-83"/>
       <path d="M 9.421875 54.6875 
L 18.40625 54.6875 
L 18.40625 0 
L 9.421875 0 
z
M 9.421875 75.984375 
L 18.40625 75.984375 
L 18.40625 64.59375 
L 9.421875 64.59375 
z
" id="DejaVuSans-105"/>
       <path d="M 45.40625 27.984375 
Q 45.40625 37.75 41.375 43.109375 
Q 37.359375 48.484375 30.078125 48.484375 
Q 22.859375 48.484375 18.828125 43.109375 
Q 14.796875 37.75 14.796875 27.984375 
Q 14.796875 18.265625 18.828125 12.890625 
Q 22.859375 7.515625 30.078125 7.515625 
Q 37.359375 7.515625 41.375 12.890625 
Q 45.40625 18.265625 45.40625 27.984375 
z
M 54.390625 6.78125 
Q 54.390625 -7.171875 48.1875 -13.984375 
Q 42 -20.796875 29.203125 -20.796875 
Q 24.46875 -20.796875 20.265625 -20.09375 
Q 16.0625 -19.390625 12.109375 -17.921875 
L 12.109375 -9.1875 
Q 16.0625 -11.328125 19.921875 -12.34375 
Q 23.78125 -13.375 27.78125 -13.375 
Q 36.625 -13.375 41.015625 -8.765625 
Q 45.40625 -4.15625 45.40625 5.171875 
L 45.40625 9.625 
Q 42.625 4.78125 38.28125 2.390625 
Q 33.9375 0 27.875 0 
Q 17.828125 0 11.671875 7.65625 
Q 5.515625 15.328125 5.515625 27.984375 
Q 5.515625 40.671875 11.671875 48.328125 
Q 17.828125 56 27.875 56 
Q 33.9375 56 38.28125 53.609375 
Q 42.625 51.21875 45.40625 46.390625 
L 45.40625 54.6875 
L 54.390625 54.6875 
z
" id="DejaVuSans-103"/>
       <path d="M 54.890625 33.015625 
L 54.890625 0 
L 45.90625 0 
L 45.90625 32.71875 
Q 45.90625 40.484375 42.875 44.328125 
Q 39.84375 48.1875 33.796875 48.1875 
Q 26.515625 48.1875 22.3125 43.546875 
Q 18.109375 38.921875 18.109375 30.90625 
L 18.109375 0 
L 9.078125 0 
L 9.078125 54.6875 
L 18.109375 54.6875 
L 18.109375 46.1875 
Q 21.34375 51.125 25.703125 53.5625 
Q 30.078125 56 35.796875 56 
Q 45.21875 56 50.046875 50.171875 
Q 54.890625 44.34375 54.890625 33.015625 
z
" id="DejaVuSans-110"/>
       <path d="M 34.28125 27.484375 
Q 23.390625 27.484375 19.1875 25 
Q 14.984375 22.515625 14.984375 16.5 
Q 14.984375 11.71875 18.140625 8.90625 
Q 21.296875 6.109375 26.703125 6.109375 
Q 34.1875 6.109375 38.703125 11.40625 
Q 43.21875 16.703125 43.21875 25.484375 
L 43.21875 27.484375 
z
M 52.203125 31.203125 
L 52.203125 0 
L 43.21875 0 
L 43.21875 8.296875 
Q 40.140625 3.328125 35.546875 0.953125 
Q 30.953125 -1.421875 24.3125 -1.421875 
Q 15.921875 -1.421875 10.953125 3.296875 
Q 6 8.015625 6 15.921875 
Q 6 25.140625 12.171875 29.828125 
Q 18.359375 34.515625 30.609375 34.515625 
L 43.21875 34.515625 
L 43.21875 35.40625 
Q 43.21875 41.609375 39.140625 45 
Q 35.0625 48.390625 27.6875 48.390625 
Q 23 48.390625 18.546875 47.265625 
Q 14.109375 46.140625 10.015625 43.890625 
L 10.015625 52.203125 
Q 14.9375 54.109375 19.578125 55.046875 
Q 24.21875 56 28.609375 56 
Q 40.484375 56 46.34375 49.84375 
Q 52.203125 43.703125 52.203125 31.203125 
z
" id="DejaVuSans-97"/>
       <path d="M 9.421875 75.984375 
L 18.40625 75.984375 
L 18.40625 0 
L 9.421875 0 
z
" id="DejaVuSans-108"/>
       <path d="M 52 44.1875 
Q 55.375 50.25 60.0625 53.125 
Q 64.75 56 71.09375 56 
Q 79.640625 56 84.28125 50.015625 
Q 88.921875 44.046875 88.921875 33.015625 
L 88.921875 0 
L 79.890625 0 
L 79.890625 32.71875 
Q 79.890625 40.578125 77.09375 44.375 
Q 74.3125 48.1875 68.609375 48.1875 
Q 61.625 48.1875 57.5625 43.546875 
Q 53.515625 38.921875 53.515625 30.90625 
L 53.515625 0 
L 44.484375 0 
L 44.484375 32.71875 
Q 44.484375 40.625 41.703125 44.40625 
Q 38.921875 48.1875 33.109375 48.1875 
Q 26.21875 48.1875 22.15625 43.53125 
Q 18.109375 38.875 18.109375 30.90625 
L 18.109375 0 
L 9.078125 0 
L 9.078125 54.6875 
L 18.109375 54.6875 
L 18.109375 46.1875 
Q 21.1875 51.21875 25.484375 53.609375 
Q 29.78125 56 35.6875 56 
Q 41.65625 56 45.828125 52.96875 
Q 50 49.953125 52 44.1875 
z
" id="DejaVuSans-109"/>
       <path d="M 18.3125 70.21875 
L 18.3125 54.6875 
L 36.8125 54.6875 
L 36.8125 47.703125 
L 18.3125 47.703125 
L 18.3125 18.015625 
Q 18.3125 11.328125 20.140625 9.421875 
Q 21.96875 7.515625 27.59375 7.515625 
L 36.8125 7.515625 
L 36.8125 0 
L 27.59375 0 
Q 17.1875 0 13.234375 3.875 
Q 9.28125 7.765625 9.28125 18.015625 
L 9.28125 47.703125 
L 2.6875 47.703125 
L 2.6875 54.6875 
L 9.28125 54.6875 
L 9.28125 70.21875 
z
" id="DejaVuSans-116"/>
       <path d="M 8.5 21.578125 
L 8.5 54.6875 
L 17.484375 54.6875 
L 17.484375 21.921875 
Q 17.484375 14.15625 20.5 10.265625 
Q 23.53125 6.390625 29.59375 6.390625 
Q 36.859375 6.390625 41.078125 11.03125 
Q 45.3125 15.671875 45.3125 23.6875 
L 45.3125 54.6875 
L 54.296875 54.6875 
L 54.296875 0 
L 45.3125 0 
L 45.3125 8.40625 
Q 42.046875 3.421875 37.71875 1 
Q 33.40625 -1.421875 27.6875 -1.421875 
Q 18.265625 -1.421875 13.375 4.4375 
Q 8.5 10.296875 8.5 21.578125 
z
M 31.109375 56 
z
" id="DejaVuSans-117"/>
       <path d="M 45.40625 46.390625 
L 45.40625 75.984375 
L 54.390625 75.984375 
L 54.390625 0 
L 45.40625 0 
L 45.40625 8.203125 
Q 42.578125 3.328125 38.25 0.953125 
Q 33.9375 -1.421875 27.875 -1.421875 
Q 17.96875 -1.421875 11.734375 6.484375 
Q 5.515625 14.40625 5.515625 27.296875 
Q 5.515625 40.1875 11.734375 48.09375 
Q 17.96875 56 27.875 56 
Q 33.9375 56 38.25 53.625 
Q 42.578125 51.265625 45.40625 46.390625 
z
M 14.796875 27.296875 
Q 14.796875 17.390625 18.875 11.75 
Q 22.953125 6.109375 30.078125 6.109375 
Q 37.203125 6.109375 41.296875 11.75 
Q 45.40625 17.390625 45.40625 27.296875 
Q 45.40625 37.203125 41.296875 42.84375 
Q 37.203125 48.484375 30.078125 48.484375 
Q 22.953125 48.484375 18.875 42.84375 
Q 14.796875 37.203125 14.796875 27.296875 
z
" id="DejaVuSans-100"/>
       <path d="M 56.203125 29.59375 
L 56.203125 25.203125 
L 14.890625 25.203125 
Q 15.484375 15.921875 20.484375 11.0625 
Q 25.484375 6.203125 34.421875 6.203125 
Q 39.59375 6.203125 44.453125 7.46875 
Q 49.3125 8.734375 54.109375 11.28125 
L 54.109375 2.78125 
Q 49.265625 0.734375 44.1875 -0.34375 
Q 39.109375 -1.421875 33.890625 -1.421875 
Q 20.796875 -1.421875 13.15625 6.1875 
Q 5.515625 13.8125 5.515625 26.8125 
Q 5.515625 40.234375 12.765625 48.109375 
Q 20.015625 56 32.328125 56 
Q 43.359375 56 49.78125 48.890625 
Q 56.203125 41.796875 56.203125 29.59375 
z
M 47.21875 32.234375 
Q 47.125 39.59375 43.09375 43.984375 
Q 39.0625 48.390625 32.421875 48.390625 
Q 24.90625 48.390625 20.390625 44.140625 
Q 15.875 39.890625 15.1875 32.171875 
z
" id="DejaVuSans-101"/>
      </defs>
      <use transform="translate(0 0.015625)" xlink:href="#DejaVuSans-916"/>
      <use transform="translate(68.408203 0.015625)" xlink:href="#DejaVuSans-32"/>
      <use transform="translate(100.195312 0.015625)" xlink:href="#DejaVuSans-83"/>
      <use transform="translate(163.671875 0.015625)" xlink:href="#DejaVuSans-105"/>
      <use transform="translate(191.455078 0.015625)" xlink:href="#DejaVuSans-103"/>
      <use transform="translate(254.931641 0.015625)" xlink:href="#DejaVuSans-110"/>
      <use transform="translate(318.310547 0.015625)" xlink:href="#DejaVuSans-97"/>
      <use transform="translate(379.589844 0.015625)" xlink:href="#DejaVuSans-108"/>
      <use transform="translate(407.373047 0.015625)" xlink:href="#DejaVuSans-32"/>
      <use transform="translate(439.160156 0.015625)" xlink:href="#DejaVuSans-109"/>
      <use transform="translate(536.572266 0.015625)" xlink:href="#DejaVuSans-97"/>
      <use transform="translate(597.851562 0.015625)" xlink:href="#DejaVuSans-103"/>
      <use transform="translate(661.328125 0.015625)" xlink:href="#DejaVuSans-110"/>
      <use transform="translate(724.707031 0.015625)" xlink:href="#DejaVuSans-105"/>
      <use transform="translate(752.490234 0.015625)" xlink:href="#DejaVuSans-116"/>
      <use transform="translate(791.699219 0.015625)" xlink:href="#DejaVuSans-117"/>
      <use transform="translate(855.078125 0.015625)" xlink:href="#DejaVuSans-100"/>
      <use transform="translate(918.554688 0.015625)" xlink:href="#DejaVuSans-101"/>
     </g>
    </g>
   </g>
   <g id="line2d_7">
    <path clip-path="url(#pf6587cb780)" d="M 47.72 77.480568 
L 48.823434 77.577973 
L 49.926869 77.675379 
L 51.030303 77.772784 
L 52.133737 77.87019 
L 53.237172 77.967595 
L 54.340606 78.065001 
L 55.44404 78.162406 
L 56.547475 78.259812 
L 57.650909 78.357217 
L 58.754343 78.454623 
L 59.857778 78.552028 
L 60.961212 78.649434 
L 62.064646 78.746839 
L 63.168081 78.844245 
L 64.271515 78.94165 
L 65.374949 79.039056 
L 66.478384 79.136461 
L 67.581818 79.233867 
L 68.685253 79.331272 
L 69.788687 79.428678 
L 70.892121 79.526083 
L 71.995556 79.623489 
L 73.09899 79.720894 
L 74.202424 79.8183 
L 75.305859 79.915705 
L 76.409293 80.013111 
L 77.512727 80.110516 
L 78.616162 80.207922 
L 79.719596 80.305327 
L 80.82303 80.402733 
L 81.926465 80.500138 
L 83.029899 80.597544 
L 84.133333 80.694949 
L 85.236768 80.792355 
L 86.340202 80.88976 
L 87.443636 80.987166 
L 88.547071 81.084571 
L 89.650505 81.181977 
L 90.753939 81.279382 
L 91.857374 81.376787 
L 92.960808 81.474193 
L 94.064242 81.571598 
L 95.167677 81.669004 
L 96.271111 81.766409 
L 97.374545 81.863815 
L 98.47798 81.96122 
L 99.581414 82.058626 
L 100.684848 82.156031 
L 101.788283 82.253437 
L 102.891717 82.350842 
L 103.995152 82.448248 
L 105.098586 82.545653 
L 106.20202 82.643059 
L 107.305455 82.740464 
L 108.408889 82.83787 
L 109.512323 82.935275 
L 110.615758 83.032681 
L 111.719192 83.130086 
L 112.822626 83.227492 
L 113.926061 83.324897 
L 115.029495 83.422303 
L 116.132929 83.519708 
L 117.236364 83.617114 
L 118.339798 83.714519 
L 119.443232 83.811925 
L 120.546667 83.90933 
L 121.650101 84.006736 
L 122.753535 84.104141 
L 123.85697 84.201547 
L 124.960404 84.298952 
L 126.063838 84.396358 
L 127.167273 84.493763 
L 128.270707 84.591169 
L 129.374141 84.688574 
L 130.477576 84.78598 
L 131.58101 84.883385 
L 132.684444 84.980791 
L 133.787879 85.078196 
L 134.891313 85.175602 
L 135.994747 85.273007 
L 137.098182 85.370413 
L 138.201616 85.467818 
L 139.305051 85.565224 
L 140.408485 85.662629 
L 141.511919 85.760035 
L 142.615354 85.85744 
L 143.718788 85.954846 
L 144.822222 86.052251 
L 145.925657 86.149657 
L 147.029091 86.247062 
L 148.132525 86.344467 
L 149.23596 86.441873 
L 150.339394 86.539278 
L 151.442828 86.636684 
L 152.546263 86.734089 
L 153.649697 86.831495 
L 154.753131 86.9289 
L 155.856566 87.026306 
L 156.96 87.123711 
" style="fill:none;stroke:#1f77b4;stroke-linecap:square;stroke-width:2.25;"/>
   </g>
   <g id="line2d_8">
    <path clip-path="url(#pf6587cb780)" d="M 47.72 101.866263 
L 156.96 101.866263 
" style="fill:none;stroke:#808080;stroke-dasharray:5.55,2.4;stroke-dashoffset:0;stroke-width:1.5;"/>
   </g>
   <g id="line2d_9">
    <path clip-path="url(#pf6587cb780)" d="M 61.021578 121.38 
L 61.021578 25.152 
" style="fill:none;stroke:#808080;stroke-dasharray:5.55,2.4;stroke-dashoffset:0;stroke-width:1.5;"/>
   </g>
   <g id="patch_3">
    <path d="M 47.72 121.38 
L 47.72 25.152 
" style="fill:none;stroke:#000000;stroke-linecap:square;stroke-linejoin:miter;stroke-width:0.8;"/>
   </g>
   <g id="patch_4">
    <path d="M 47.72 121.38 
L 156.96 121.38 
" style="fill:none;stroke:#000000;stroke-linecap:square;stroke-linejoin:miter;stroke-width:0.8;"/>
   </g>
   <g id="text_7">
    <!-- $R^2$: -0.073, $p &gt; 0.05$ -->
    <g transform="translate(55.06 19.152)scale(0.096 -0.096)">
     <defs>
      <path d="M 25.203125 64.796875 
L 20.21875 38.921875 
L 32.90625 38.921875 
Q 40.375 38.921875 44.984375 43.046875 
Q 49.609375 47.171875 49.609375 53.8125 
Q 49.609375 59.125 46.5 61.953125 
Q 43.40625 64.796875 37.59375 64.796875 
z
M 43.3125 35.015625 
Q 46.4375 34.28125 48.515625 31.390625 
Q 50.59375 28.515625 53.328125 19.921875 
L 59.515625 0 
L 49.125 0 
L 43.40625 18.703125 
Q 41.21875 25.921875 38.328125 28.359375 
Q 35.453125 30.8125 29.5 30.8125 
L 18.609375 30.8125 
L 12.59375 0 
L 2.6875 0 
L 16.890625 72.90625 
L 39.109375 72.90625 
Q 49.21875 72.90625 54.609375 68.328125 
Q 60.015625 63.765625 60.015625 55.171875 
Q 60.015625 47.5625 55.421875 41.984375 
Q 50.828125 36.421875 43.3125 35.015625 
z
" id="DejaVuSans-Oblique-82"/>
      <path d="M 11.71875 12.40625 
L 22.015625 12.40625 
L 22.015625 0 
L 11.71875 0 
z
M 11.71875 51.703125 
L 22.015625 51.703125 
L 22.015625 39.3125 
L 11.71875 39.3125 
z
" id="DejaVuSans-58"/>
      <path d="M 4.890625 31.390625 
L 31.203125 31.390625 
L 31.203125 23.390625 
L 4.890625 23.390625 
z
" id="DejaVuSans-45"/>
      <path d="M 10.6875 12.40625 
L 21 12.40625 
L 21 0 
L 10.6875 0 
z
" id="DejaVuSans-46"/>
      <path d="M 8.203125 72.90625 
L 55.078125 72.90625 
L 55.078125 68.703125 
L 28.609375 0 
L 18.3125 0 
L 43.21875 64.59375 
L 8.203125 64.59375 
z
" id="DejaVuSans-55"/>
      <path d="M 11.71875 12.40625 
L 22.015625 12.40625 
L 22.015625 4 
L 14.015625 -11.625 
L 7.71875 -11.625 
L 11.71875 4 
z
" id="DejaVuSans-44"/>
      <path d="M 49.609375 33.6875 
Q 49.609375 40.875 46.484375 44.671875 
Q 43.359375 48.484375 37.5 48.484375 
Q 33.5 48.484375 29.859375 46.4375 
Q 26.21875 44.390625 23.390625 40.484375 
Q 20.609375 36.625 18.9375 31.15625 
Q 17.28125 25.6875 17.28125 20.3125 
Q 17.28125 13.484375 20.40625 9.796875 
Q 23.53125 6.109375 29.296875 6.109375 
Q 33.546875 6.109375 37.1875 8.109375 
Q 40.828125 10.109375 43.40625 13.921875 
Q 46.1875 17.921875 47.890625 23.34375 
Q 49.609375 28.765625 49.609375 33.6875 
z
M 21.78125 46.390625 
Q 25.390625 51.125 30.296875 53.5625 
Q 35.203125 56 41.21875 56 
Q 49.609375 56 54.25 50.5 
Q 58.890625 45.015625 58.890625 35.109375 
Q 58.890625 27 56 19.65625 
Q 53.125 12.3125 47.703125 6.5 
Q 44.09375 2.640625 39.546875 0.609375 
Q 35.015625 -1.421875 29.984375 -1.421875 
Q 24.171875 -1.421875 20.21875 1 
Q 16.265625 3.421875 14.3125 8.203125 
L 8.6875 -20.796875 
L -0.296875 -20.796875 
L 14.40625 54.6875 
L 23.390625 54.6875 
z
" id="DejaVuSans-Oblique-112"/>
      <path d="M 10.59375 49.21875 
L 10.59375 58.109375 
L 73.1875 35.40625 
L 73.1875 27.296875 
L 10.59375 4.59375 
L 10.59375 13.484375 
L 60.890625 31.296875 
z
" id="DejaVuSans-62"/>
      <path d="M 10.796875 72.90625 
L 49.515625 72.90625 
L 49.515625 64.59375 
L 19.828125 64.59375 
L 19.828125 46.734375 
Q 21.96875 47.46875 24.109375 47.828125 
Q 26.265625 48.1875 28.421875 48.1875 
Q 40.625 48.1875 47.75 41.5 
Q 54.890625 34.8125 54.890625 23.390625 
Q 54.890625 11.625 47.5625 5.09375 
Q 40.234375 -1.421875 26.90625 -1.421875 
Q 22.3125 -1.421875 17.546875 -0.640625 
Q 12.796875 0.140625 7.71875 1.703125 
L 7.71875 11.625 
Q 12.109375 9.234375 16.796875 8.0625 
Q 21.484375 6.890625 26.703125 6.890625 
Q 35.15625 6.890625 40.078125 11.328125 
Q 45.015625 15.765625 45.015625 23.390625 
Q 45.015625 31 40.078125 35.4375 
Q 35.15625 39.890625 26.703125 39.890625 
Q 22.75 39.890625 18.8125 39.015625 
Q 14.890625 38.140625 10.796875 36.28125 
z
" id="DejaVuSans-53"/>
     </defs>
     <use transform="translate(0 0.765625)" xlink:href="#DejaVuSans-Oblique-82"/>
     <use transform="translate(76.499193 39.046875)scale(0.7)" xlink:href="#DejaVuSans-50"/>
     <use transform="translate(123.769701 0.765625)" xlink:href="#DejaVuSans-58"/>
     <use transform="translate(157.461107 0.765625)" xlink:href="#DejaVuSans-32"/>
     <use transform="translate(189.248216 0.765625)" xlink:href="#DejaVuSans-45"/>
     <use transform="translate(225.332201 0.765625)" xlink:href="#DejaVuSans-48"/>
     <use transform="translate(288.955247 0.765625)" xlink:href="#DejaVuSans-46"/>
     <use transform="translate(320.742357 0.765625)" xlink:href="#DejaVuSans-48"/>
     <use transform="translate(384.365404 0.765625)" xlink:href="#DejaVuSans-55"/>
     <use transform="translate(447.988451 0.765625)" xlink:href="#DejaVuSans-51"/>
     <use transform="translate(511.611497 0.765625)" xlink:href="#DejaVuSans-44"/>
     <use transform="translate(543.398607 0.765625)" xlink:href="#DejaVuSans-32"/>
     <use transform="translate(575.185716 0.765625)" xlink:href="#DejaVuSans-Oblique-112"/>
     <use transform="translate(658.144701 0.765625)" xlink:href="#DejaVuSans-62"/>
     <use transform="translate(761.416185 0.765625)" xlink:href="#DejaVuSans-48"/>
     <use transform="translate(825.039232 0.765625)" xlink:href="#DejaVuSans-46"/>
     <use transform="translate(856.826341 0.765625)" xlink:href="#DejaVuSans-48"/>
     <use transform="translate(920.449388 0.765625)" xlink:href="#DejaVuSans-53"/>
    </g>
   </g>
  </g>
  <g id="axes_2">
   <g id="patch_5">
    <path d="M 47.72 253.96 
L 156.96 253.96 
L 156.96 157.732 
L 47.72 157.732 
z
" style="fill:#ffffff;"/>
   </g>
   <g id="PathCollection_2">
    <defs>
     <path d="M 0 1.936492 
C 0.513564 1.936492 1.006162 1.732451 1.369306 1.369306 
C 1.732451 1.006162 1.936492 0.513564 1.936492 0 
C 1.936492 -0.513564 1.732451 -1.006162 1.369306 -1.369306 
C 1.006162 -1.732451 0.513564 -1.936492 0 -1.936492 
C -0.513564 -1.936492 -1.006162 -1.732451 -1.369306 -1.369306 
C -1.732451 -1.006162 -1.936492 -0.513564 -1.936492 0 
C -1.936492 0.513564 -1.732451 1.006162 -1.369306 1.369306 
C -1.006162 1.732451 -0.513564 1.936492 0 1.936492 
z
" id="m972d63b46b" style="stroke:#ff7f0e;stroke-opacity:0.8;"/>
    </defs>
    <g clip-path="url(#pa1300fc1cc)">
     <use style="fill:#ff7f0e;fill-opacity:0.8;stroke:#ff7f0e;stroke-opacity:0.8;" x="146.440123" xlink:href="#m972d63b46b" y="208.355966"/>
     <use style="fill:#ff7f0e;fill-opacity:0.8;stroke:#ff7f0e;stroke-opacity:0.8;" x="145.905422" xlink:href="#m972d63b46b" y="208.682128"/>
     <use style="fill:#ff7f0e;fill-opacity:0.8;stroke:#ff7f0e;stroke-opacity:0.8;" x="139.555849" xlink:href="#m972d63b46b" y="208.304168"/>
     <use style="fill:#ff7f0e;fill-opacity:0.8;stroke:#ff7f0e;stroke-opacity:0.8;" x="141.226789" xlink:href="#m972d63b46b" y="240.106942"/>
     <use style="fill:#ff7f0e;fill-opacity:0.8;stroke:#ff7f0e;stroke-opacity:0.8;" x="111.502853" xlink:href="#m972d63b46b" y="214.190006"/>
     <use style="fill:#ff7f0e;fill-opacity:0.8;stroke:#ff7f0e;stroke-opacity:0.8;" x="106.066407" xlink:href="#m972d63b46b" y="221.381183"/>
     <use style="fill:#ff7f0e;fill-opacity:0.8;stroke:#ff7f0e;stroke-opacity:0.8;" x="134.002425" xlink:href="#m972d63b46b" y="227.739039"/>
     <use style="fill:#ff7f0e;fill-opacity:0.8;stroke:#ff7f0e;stroke-opacity:0.8;" x="150.977219" xlink:href="#m972d63b46b" y="245.29007"/>
     <use style="fill:#ff7f0e;fill-opacity:0.8;stroke:#ff7f0e;stroke-opacity:0.8;" x="146.440123" xlink:href="#m972d63b46b" y="225.216176"/>
     <use style="fill:#ff7f0e;fill-opacity:0.8;stroke:#ff7f0e;stroke-opacity:0.8;" x="145.905422" xlink:href="#m972d63b46b" y="221.826599"/>
     <use style="fill:#ff7f0e;fill-opacity:0.8;stroke:#ff7f0e;stroke-opacity:0.8;" x="139.555849" xlink:href="#m972d63b46b" y="210.962052"/>
     <use style="fill:#ff7f0e;fill-opacity:0.8;stroke:#ff7f0e;stroke-opacity:0.8;" x="141.226789" xlink:href="#m972d63b46b" y="249.586"/>
     <use style="fill:#ff7f0e;fill-opacity:0.8;stroke:#ff7f0e;stroke-opacity:0.8;" x="111.502853" xlink:href="#m972d63b46b" y="215.806374"/>
     <use style="fill:#ff7f0e;fill-opacity:0.8;stroke:#ff7f0e;stroke-opacity:0.8;" x="106.066407" xlink:href="#m972d63b46b" y="212.328842"/>
     <use style="fill:#ff7f0e;fill-opacity:0.8;stroke:#ff7f0e;stroke-opacity:0.8;" x="134.002425" xlink:href="#m972d63b46b" y="231.743105"/>
     <use style="fill:#ff7f0e;fill-opacity:0.8;stroke:#ff7f0e;stroke-opacity:0.8;" x="150.977219" xlink:href="#m972d63b46b" y="227.398304"/>
     <use style="fill:#ff7f0e;fill-opacity:0.8;stroke:#ff7f0e;stroke-opacity:0.8;" x="73.702109" xlink:href="#m972d63b46b" y="211.789464"/>
     <use style="fill:#ff7f0e;fill-opacity:0.8;stroke:#ff7f0e;stroke-opacity:0.8;" x="87.268737" xlink:href="#m972d63b46b" y="213.178735"/>
     <use style="fill:#ff7f0e;fill-opacity:0.8;stroke:#ff7f0e;stroke-opacity:0.8;" x="124.278657" xlink:href="#m972d63b46b" y="211.24163"/>
     <use style="fill:#ff7f0e;fill-opacity:0.8;stroke:#ff7f0e;stroke-opacity:0.8;" x="142.218337" xlink:href="#m972d63b46b" y="210.076964"/>
     <use style="fill:#ff7f0e;fill-opacity:0.8;stroke:#ff7f0e;stroke-opacity:0.8;" x="139.198431" xlink:href="#m972d63b46b" y="214.430992"/>
     <use style="fill:#ff7f0e;fill-opacity:0.8;stroke:#ff7f0e;stroke-opacity:0.8;" x="123.370841" xlink:href="#m972d63b46b" y="202.209217"/>
     <use style="fill:#ff7f0e;fill-opacity:0.8;stroke:#ff7f0e;stroke-opacity:0.8;" x="113.704629" xlink:href="#m972d63b46b" y="220.716688"/>
     <use style="fill:#ff7f0e;fill-opacity:0.8;stroke:#ff7f0e;stroke-opacity:0.8;" x="125.743155" xlink:href="#m972d63b46b" y="208.405293"/>
     <use style="fill:#ff7f0e;fill-opacity:0.8;stroke:#ff7f0e;stroke-opacity:0.8;" x="106.546681" xlink:href="#m972d63b46b" y="205.029531"/>
     <use style="fill:#ff7f0e;fill-opacity:0.8;stroke:#ff7f0e;stroke-opacity:0.8;" x="106.151229" xlink:href="#m972d63b46b" y="202.670834"/>
     <use style="fill:#ff7f0e;fill-opacity:0.8;stroke:#ff7f0e;stroke-opacity:0.8;" x="100.754447" xlink:href="#m972d63b46b" y="204.064208"/>
     <use style="fill:#ff7f0e;fill-opacity:0.8;stroke:#ff7f0e;stroke-opacity:0.8;" x="132.288613" xlink:href="#m972d63b46b" y="202.802735"/>
     <use style="fill:#ff7f0e;fill-opacity:0.8;stroke:#ff7f0e;stroke-opacity:0.8;" x="106.190341" xlink:href="#m972d63b46b" y="197.807186"/>
     <use style="fill:#ff7f0e;fill-opacity:0.8;stroke:#ff7f0e;stroke-opacity:0.8;" x="121.332438" xlink:href="#m972d63b46b" y="198.556023"/>
     <use style="fill:#ff7f0e;fill-opacity:0.8;stroke:#ff7f0e;stroke-opacity:0.8;" x="111.984586" xlink:href="#m972d63b46b" y="211.376221"/>
     <use style="fill:#ff7f0e;fill-opacity:0.8;stroke:#ff7f0e;stroke-opacity:0.8;" x="139.11282" xlink:href="#m972d63b46b" y="208.747212"/>
     <use style="fill:#ff7f0e;fill-opacity:0.8;stroke:#ff7f0e;stroke-opacity:0.8;" x="131.260702" xlink:href="#m972d63b46b" y="212.578813"/>
     <use style="fill:#ff7f0e;fill-opacity:0.8;stroke:#ff7f0e;stroke-opacity:0.8;" x="135.364182" xlink:href="#m972d63b46b" y="210.493132"/>
     <use style="fill:#ff7f0e;fill-opacity:0.8;stroke:#ff7f0e;stroke-opacity:0.8;" x="132.279056" xlink:href="#m972d63b46b" y="208.344615"/>
     <use style="fill:#ff7f0e;fill-opacity:0.8;stroke:#ff7f0e;stroke-opacity:0.8;" x="109.76656" xlink:href="#m972d63b46b" y="210.633798"/>
     <use style="fill:#ff7f0e;fill-opacity:0.8;stroke:#ff7f0e;stroke-opacity:0.8;" x="116.407726" xlink:href="#m972d63b46b" y="213.146239"/>
     <use style="fill:#ff7f0e;fill-opacity:0.8;stroke:#ff7f0e;stroke-opacity:0.8;" x="114.624053" xlink:href="#m972d63b46b" y="210.31947"/>
     <use style="fill:#ff7f0e;fill-opacity:0.8;stroke:#ff7f0e;stroke-opacity:0.8;" x="136.774923" xlink:href="#m972d63b46b" y="212.784142"/>
     <use style="fill:#ff7f0e;fill-opacity:0.8;stroke:#ff7f0e;stroke-opacity:0.8;" x="120.046603" xlink:href="#m972d63b46b" y="210.117463"/>
     <use style="fill:#ff7f0e;fill-opacity:0.8;stroke:#ff7f0e;stroke-opacity:0.8;" x="116.162659" xlink:href="#m972d63b46b" y="219.47117"/>
     <use style="fill:#ff7f0e;fill-opacity:0.8;stroke:#ff7f0e;stroke-opacity:0.8;" x="63.063846" xlink:href="#m972d63b46b" y="215.356185"/>
     <use style="fill:#ff7f0e;fill-opacity:0.8;stroke:#ff7f0e;stroke-opacity:0.8;" x="136.72143" xlink:href="#m972d63b46b" y="221.317461"/>
     <use style="fill:#ff7f0e;fill-opacity:0.8;stroke:#ff7f0e;stroke-opacity:0.8;" x="120.927942" xlink:href="#m972d63b46b" y="212.646591"/>
     <use style="fill:#ff7f0e;fill-opacity:0.8;stroke:#ff7f0e;stroke-opacity:0.8;" x="154.965639" xlink:href="#m972d63b46b" y="213.759287"/>
     <use style="fill:#ff7f0e;fill-opacity:0.8;stroke:#ff7f0e;stroke-opacity:0.8;" x="125.661041" xlink:href="#m972d63b46b" y="215.228723"/>
     <use style="fill:#ff7f0e;fill-opacity:0.8;stroke:#ff7f0e;stroke-opacity:0.8;" x="128.468536" xlink:href="#m972d63b46b" y="215.363816"/>
     <use style="fill:#ff7f0e;fill-opacity:0.8;stroke:#ff7f0e;stroke-opacity:0.8;" x="119.188691" xlink:href="#m972d63b46b" y="216.799084"/>
     <use style="fill:#ff7f0e;fill-opacity:0.8;stroke:#ff7f0e;stroke-opacity:0.8;" x="136.410945" xlink:href="#m972d63b46b" y="212.657785"/>
     <use style="fill:#ff7f0e;fill-opacity:0.8;stroke:#ff7f0e;stroke-opacity:0.8;" x="124.388471" xlink:href="#m972d63b46b" y="212.9854"/>
     <use style="fill:#ff7f0e;fill-opacity:0.8;stroke:#ff7f0e;stroke-opacity:0.8;" x="125.677198" xlink:href="#m972d63b46b" y="227.804723"/>
     <use style="fill:#ff7f0e;fill-opacity:0.8;stroke:#ff7f0e;stroke-opacity:0.8;" x="55.770047" xlink:href="#m972d63b46b" y="199.717103"/>
     <use style="fill:#ff7f0e;fill-opacity:0.8;stroke:#ff7f0e;stroke-opacity:0.8;" x="98.412488" xlink:href="#m972d63b46b" y="201.868608"/>
     <use style="fill:#ff7f0e;fill-opacity:0.8;stroke:#ff7f0e;stroke-opacity:0.8;" x="102.508672" xlink:href="#m972d63b46b" y="203.057468"/>
     <use style="fill:#ff7f0e;fill-opacity:0.8;stroke:#ff7f0e;stroke-opacity:0.8;" x="80.714825" xlink:href="#m972d63b46b" y="210.409312"/>
     <use style="fill:#ff7f0e;fill-opacity:0.8;stroke:#ff7f0e;stroke-opacity:0.8;" x="85.441194" xlink:href="#m972d63b46b" y="207.831203"/>
     <use style="fill:#ff7f0e;fill-opacity:0.8;stroke:#ff7f0e;stroke-opacity:0.8;" x="62.470274" xlink:href="#m972d63b46b" y="210.947832"/>
     <use style="fill:#ff7f0e;fill-opacity:0.8;stroke:#ff7f0e;stroke-opacity:0.8;" x="150.007876" xlink:href="#m972d63b46b" y="224.372163"/>
     <use style="fill:#ff7f0e;fill-opacity:0.8;stroke:#ff7f0e;stroke-opacity:0.8;" x="149.754356" xlink:href="#m972d63b46b" y="232.061269"/>
     <use style="fill:#ff7f0e;fill-opacity:0.8;stroke:#ff7f0e;stroke-opacity:0.8;" x="83.242612" xlink:href="#m972d63b46b" y="214.681808"/>
     <use style="fill:#ff7f0e;fill-opacity:0.8;stroke:#ff7f0e;stroke-opacity:0.8;" x="156.96" xlink:href="#m972d63b46b" y="193.954892"/>
     <use style="fill:#ff7f0e;fill-opacity:0.8;stroke:#ff7f0e;stroke-opacity:0.8;" x="148.095103" xlink:href="#m972d63b46b" y="219.210098"/>
     <use style="fill:#ff7f0e;fill-opacity:0.8;stroke:#ff7f0e;stroke-opacity:0.8;" x="65.16551" xlink:href="#m972d63b46b" y="193.762215"/>
     <use style="fill:#ff7f0e;fill-opacity:0.8;stroke:#ff7f0e;stroke-opacity:0.8;" x="143.231918" xlink:href="#m972d63b46b" y="209.863194"/>
     <use style="fill:#ff7f0e;fill-opacity:0.8;stroke:#ff7f0e;stroke-opacity:0.8;" x="114.066043" xlink:href="#m972d63b46b" y="230.959404"/>
     <use style="fill:#ff7f0e;fill-opacity:0.8;stroke:#ff7f0e;stroke-opacity:0.8;" x="151.745286" xlink:href="#m972d63b46b" y="236.591244"/>
     <use style="fill:#ff7f0e;fill-opacity:0.8;stroke:#ff7f0e;stroke-opacity:0.8;" x="47.72" xlink:href="#m972d63b46b" y="162.106"/>
     <use style="fill:#ff7f0e;fill-opacity:0.8;stroke:#ff7f0e;stroke-opacity:0.8;" x="115.195276" xlink:href="#m972d63b46b" y="222.483747"/>
    </g>
   </g>
   <g id="PolyCollection_2">
    <path clip-path="url(#pa1300fc1cc)" d="M 47.72 185.302341 
L 47.72 206.602586 
L 48.823434 206.70874 
L 49.926869 206.82636 
L 51.030303 206.966657 
L 52.133737 207.106955 
L 53.237172 207.240265 
L 54.340606 207.353898 
L 55.44404 207.486819 
L 56.547475 207.619739 
L 57.650909 207.752659 
L 58.754343 207.88584 
L 59.857778 208.032274 
L 60.961212 208.17069 
L 62.064646 208.304979 
L 63.168081 208.451544 
L 64.271515 208.593356 
L 65.374949 208.681561 
L 66.478384 208.814603 
L 67.581818 208.947646 
L 68.685253 209.079589 
L 69.788687 209.211337 
L 70.892121 209.329726 
L 71.995556 209.425458 
L 73.09899 209.52119 
L 74.202424 209.616922 
L 75.305859 209.712505 
L 76.409293 209.807783 
L 77.512727 209.903061 
L 78.616162 210.039428 
L 79.719596 210.180277 
L 80.82303 210.321126 
L 81.926465 210.461974 
L 83.029899 210.602385 
L 84.133333 210.719015 
L 85.236768 210.853611 
L 86.340202 211.013824 
L 87.443636 211.126482 
L 88.547071 211.263536 
L 89.650505 211.38786 
L 90.753939 211.474657 
L 91.857374 211.616286 
L 92.960808 211.738198 
L 94.064242 211.845057 
L 95.167677 211.925932 
L 96.271111 212.027896 
L 97.374545 212.159567 
L 98.47798 212.278262 
L 99.581414 212.41869 
L 100.684848 212.583424 
L 101.788283 212.703446 
L 102.891717 212.905919 
L 103.995152 213.120464 
L 105.098586 213.298144 
L 106.20202 213.468465 
L 107.305455 213.653024 
L 108.408889 213.852462 
L 109.512323 214.019999 
L 110.615758 214.231996 
L 111.719192 214.446247 
L 112.822626 214.651633 
L 113.926061 214.836288 
L 115.029495 215.088036 
L 116.132929 215.32901 
L 117.236364 215.630526 
L 118.339798 215.837405 
L 119.443232 216.067609 
L 120.546667 216.356813 
L 121.650101 216.602554 
L 122.753535 216.903523 
L 123.85697 217.216771 
L 124.960404 217.554867 
L 126.063838 217.951256 
L 127.167273 218.307795 
L 128.270707 218.671795 
L 129.374141 218.977344 
L 130.477576 219.253697 
L 131.58101 219.57922 
L 132.684444 219.947066 
L 133.787879 220.304 
L 134.891313 220.701126 
L 135.994747 221.076344 
L 137.098182 221.449826 
L 138.201616 221.80855 
L 139.305051 222.194314 
L 140.408485 222.619373 
L 141.511919 223.0101 
L 142.615354 223.419062 
L 143.718788 223.841058 
L 144.822222 224.267506 
L 145.925657 224.695513 
L 147.029091 225.122409 
L 148.132525 225.548526 
L 149.23596 225.949317 
L 150.339394 226.380507 
L 151.442828 226.750898 
L 152.546263 227.187983 
L 153.649697 227.663033 
L 154.753131 228.099537 
L 155.856566 228.492095 
L 156.96 228.884458 
L 156.96 216.588763 
L 156.96 216.588763 
L 155.856566 216.478506 
L 154.753131 216.368248 
L 153.649697 216.258193 
L 152.546263 216.148783 
L 151.442828 216.04925 
L 150.339394 215.967661 
L 149.23596 215.886073 
L 148.132525 215.769264 
L 147.029091 215.597656 
L 145.925657 215.488395 
L 144.822222 215.37768 
L 143.718788 215.25071 
L 142.615354 215.066955 
L 141.511919 214.940868 
L 140.408485 214.74401 
L 139.305051 214.599763 
L 138.201616 214.436695 
L 137.098182 214.304872 
L 135.994747 214.176223 
L 134.891313 214.028939 
L 133.787879 213.858099 
L 132.684444 213.706279 
L 131.58101 213.516022 
L 130.477576 213.346237 
L 129.374141 213.188648 
L 128.270707 213.0047 
L 127.167273 212.833039 
L 126.063838 212.637662 
L 124.960404 212.404188 
L 123.85697 212.156807 
L 122.753535 211.846575 
L 121.650101 211.534463 
L 120.546667 211.230318 
L 119.443232 210.916073 
L 118.339798 210.564797 
L 117.236364 210.273971 
L 116.132929 209.914558 
L 115.029495 209.585262 
L 113.926061 209.267983 
L 112.822626 208.953938 
L 111.719192 208.64652 
L 110.615758 208.344469 
L 109.512323 208.025274 
L 108.408889 207.672687 
L 107.305455 207.353367 
L 106.20202 207.055146 
L 105.098586 206.677603 
L 103.995152 206.353975 
L 102.891717 206.000549 
L 101.788283 205.598574 
L 100.684848 205.227539 
L 99.581414 204.915051 
L 98.47798 204.562293 
L 97.374545 204.119682 
L 96.271111 203.668698 
L 95.167677 203.318525 
L 94.064242 202.89438 
L 92.960808 202.544832 
L 91.857374 202.126215 
L 90.753939 201.660775 
L 89.650505 201.247158 
L 88.547071 200.784793 
L 87.443636 200.411333 
L 86.340202 200.027911 
L 85.236768 199.59252 
L 84.133333 199.157771 
L 83.029899 198.723022 
L 81.926465 198.288273 
L 80.82303 197.853524 
L 79.719596 197.418775 
L 78.616162 196.984026 
L 77.512727 196.549701 
L 76.409293 196.116279 
L 75.305859 195.682858 
L 74.202424 195.249437 
L 73.09899 194.823681 
L 71.995556 194.439209 
L 70.892121 194.054738 
L 69.788687 193.631601 
L 68.685253 193.155335 
L 67.581818 192.682074 
L 66.478384 192.295538 
L 65.374949 191.897793 
L 64.271515 191.504662 
L 63.168081 191.052832 
L 62.064646 190.582115 
L 60.961212 190.111398 
L 59.857778 189.64071 
L 58.754343 189.213036 
L 57.650909 188.821835 
L 56.547475 188.43078 
L 55.44404 188.039725 
L 54.340606 187.648671 
L 53.237172 187.257616 
L 52.133737 186.866561 
L 51.030303 186.475506 
L 49.926869 186.084451 
L 48.823434 185.693396 
L 47.72 185.302341 
z
" style="fill:#ff7f0e;fill-opacity:0.15;"/>
   </g>
   <g id="matplotlib.axis_3">
    <g id="xtick_3">
     <g id="line2d_10">
      <g>
       <use style="stroke:#000000;stroke-width:0.8;" x="83.078011" xlink:href="#mc2d5727ed2" y="253.96"/>
      </g>
     </g>
     <g id="text_8">
      <!-- 0.6 -->
      <g transform="translate(76.716761 267.03875)scale(0.08 -0.08)">
       <defs>
        <path d="M 33.015625 40.375 
Q 26.375 40.375 22.484375 35.828125 
Q 18.609375 31.296875 18.609375 23.390625 
Q 18.609375 15.53125 22.484375 10.953125 
Q 26.375 6.390625 33.015625 6.390625 
Q 39.65625 6.390625 43.53125 10.953125 
Q 47.40625 15.53125 47.40625 23.390625 
Q 47.40625 31.296875 43.53125 35.828125 
Q 39.65625 40.375 33.015625 40.375 
z
M 52.59375 71.296875 
L 52.59375 62.3125 
Q 48.875 64.0625 45.09375 64.984375 
Q 41.3125 65.921875 37.59375 65.921875 
Q 27.828125 65.921875 22.671875 59.328125 
Q 17.53125 52.734375 16.796875 39.40625 
Q 19.671875 43.65625 24.015625 45.921875 
Q 28.375 48.1875 33.59375 48.1875 
Q 44.578125 48.1875 50.953125 41.515625 
Q 57.328125 34.859375 57.328125 23.390625 
Q 57.328125 12.15625 50.6875 5.359375 
Q 44.046875 -1.421875 33.015625 -1.421875 
Q 20.359375 -1.421875 13.671875 8.265625 
Q 6.984375 17.96875 6.984375 36.375 
Q 6.984375 53.65625 15.1875 63.9375 
Q 23.390625 74.21875 37.203125 74.21875 
Q 40.921875 74.21875 44.703125 73.484375 
Q 48.484375 72.75 52.59375 71.296875 
z
" id="DejaVuSans-54"/>
       </defs>
       <use xlink:href="#DejaVuSans-48"/>
       <use x="63.623047" xlink:href="#DejaVuSans-46"/>
       <use x="95.410156" xlink:href="#DejaVuSans-54"/>
      </g>
     </g>
    </g>
    <g id="xtick_4">
     <g id="line2d_11">
      <g>
       <use style="stroke:#000000;stroke-width:0.8;" x="127.190876" xlink:href="#mc2d5727ed2" y="253.96"/>
      </g>
     </g>
     <g id="text_9">
      <!-- 0.8 -->
      <g transform="translate(120.829626 267.03875)scale(0.08 -0.08)">
       <defs>
        <path d="M 31.78125 34.625 
Q 24.75 34.625 20.71875 30.859375 
Q 16.703125 27.09375 16.703125 20.515625 
Q 16.703125 13.921875 20.71875 10.15625 
Q 24.75 6.390625 31.78125 6.390625 
Q 38.8125 6.390625 42.859375 10.171875 
Q 46.921875 13.96875 46.921875 20.515625 
Q 46.921875 27.09375 42.890625 30.859375 
Q 38.875 34.625 31.78125 34.625 
z
M 21.921875 38.8125 
Q 15.578125 40.375 12.03125 44.71875 
Q 8.5 49.078125 8.5 55.328125 
Q 8.5 64.0625 14.71875 69.140625 
Q 20.953125 74.21875 31.78125 74.21875 
Q 42.671875 74.21875 48.875 69.140625 
Q 55.078125 64.0625 55.078125 55.328125 
Q 55.078125 49.078125 51.53125 44.71875 
Q 48 40.375 41.703125 38.8125 
Q 48.828125 37.15625 52.796875 32.3125 
Q 56.78125 27.484375 56.78125 20.515625 
Q 56.78125 9.90625 50.3125 4.234375 
Q 43.84375 -1.421875 31.78125 -1.421875 
Q 19.734375 -1.421875 13.25 4.234375 
Q 6.78125 9.90625 6.78125 20.515625 
Q 6.78125 27.484375 10.78125 32.3125 
Q 14.796875 37.15625 21.921875 38.8125 
z
M 18.3125 54.390625 
Q 18.3125 48.734375 21.84375 45.5625 
Q 25.390625 42.390625 31.78125 42.390625 
Q 38.140625 42.390625 41.71875 45.5625 
Q 45.3125 48.734375 45.3125 54.390625 
Q 45.3125 60.0625 41.71875 63.234375 
Q 38.140625 66.40625 31.78125 66.40625 
Q 25.390625 66.40625 21.84375 63.234375 
Q 18.3125 60.0625 18.3125 54.390625 
z
" id="DejaVuSans-56"/>
       </defs>
       <use xlink:href="#DejaVuSans-48"/>
       <use x="63.623047" xlink:href="#DejaVuSans-46"/>
       <use x="95.410156" xlink:href="#DejaVuSans-56"/>
      </g>
     </g>
    </g>
    <g id="text_10">
     <!-- Behavior performance (DI) -->
     <g transform="translate(49.035625 278.78125)scale(0.08 -0.08)">
      <defs>
       <path d="M 19.671875 34.8125 
L 19.671875 8.109375 
L 35.5 8.109375 
Q 43.453125 8.109375 47.28125 11.40625 
Q 51.125 14.703125 51.125 21.484375 
Q 51.125 28.328125 47.28125 31.5625 
Q 43.453125 34.8125 35.5 34.8125 
z
M 19.671875 64.796875 
L 19.671875 42.828125 
L 34.28125 42.828125 
Q 41.5 42.828125 45.03125 45.53125 
Q 48.578125 48.25 48.578125 53.8125 
Q 48.578125 59.328125 45.03125 62.0625 
Q 41.5 64.796875 34.28125 64.796875 
z
M 9.8125 72.90625 
L 35.015625 72.90625 
Q 46.296875 72.90625 52.390625 68.21875 
Q 58.5 63.53125 58.5 54.890625 
Q 58.5 48.1875 55.375 44.234375 
Q 52.25 40.28125 46.1875 39.3125 
Q 53.46875 37.75 57.5 32.78125 
Q 61.53125 27.828125 61.53125 20.40625 
Q 61.53125 10.640625 54.890625 5.3125 
Q 48.25 0 35.984375 0 
L 9.8125 0 
z
" id="DejaVuSans-66"/>
       <path d="M 54.890625 33.015625 
L 54.890625 0 
L 45.90625 0 
L 45.90625 32.71875 
Q 45.90625 40.484375 42.875 44.328125 
Q 39.84375 48.1875 33.796875 48.1875 
Q 26.515625 48.1875 22.3125 43.546875 
Q 18.109375 38.921875 18.109375 30.90625 
L 18.109375 0 
L 9.078125 0 
L 9.078125 75.984375 
L 18.109375 75.984375 
L 18.109375 46.1875 
Q 21.34375 51.125 25.703125 53.5625 
Q 30.078125 56 35.796875 56 
Q 45.21875 56 50.046875 50.171875 
Q 54.890625 44.34375 54.890625 33.015625 
z
" id="DejaVuSans-104"/>
       <path d="M 2.984375 54.6875 
L 12.5 54.6875 
L 29.59375 8.796875 
L 46.6875 54.6875 
L 56.203125 54.6875 
L 35.6875 0 
L 23.484375 0 
z
" id="DejaVuSans-118"/>
       <path d="M 30.609375 48.390625 
Q 23.390625 48.390625 19.1875 42.75 
Q 14.984375 37.109375 14.984375 27.296875 
Q 14.984375 17.484375 19.15625 11.84375 
Q 23.34375 6.203125 30.609375 6.203125 
Q 37.796875 6.203125 41.984375 11.859375 
Q 46.1875 17.53125 46.1875 27.296875 
Q 46.1875 37.015625 41.984375 42.703125 
Q 37.796875 48.390625 30.609375 48.390625 
z
M 30.609375 56 
Q 42.328125 56 49.015625 48.375 
Q 55.71875 40.765625 55.71875 27.296875 
Q 55.71875 13.875 49.015625 6.21875 
Q 42.328125 -1.421875 30.609375 -1.421875 
Q 18.84375 -1.421875 12.171875 6.21875 
Q 5.515625 13.875 5.515625 27.296875 
Q 5.515625 40.765625 12.171875 48.375 
Q 18.84375 56 30.609375 56 
z
" id="DejaVuSans-111"/>
       <path d="M 41.109375 46.296875 
Q 39.59375 47.171875 37.8125 47.578125 
Q 36.03125 48 33.890625 48 
Q 26.265625 48 22.1875 43.046875 
Q 18.109375 38.09375 18.109375 28.8125 
L 18.109375 0 
L 9.078125 0 
L 9.078125 54.6875 
L 18.109375 54.6875 
L 18.109375 46.1875 
Q 20.953125 51.171875 25.484375 53.578125 
Q 30.03125 56 36.53125 56 
Q 37.453125 56 38.578125 55.875 
Q 39.703125 55.765625 41.0625 55.515625 
z
" id="DejaVuSans-114"/>
       <path d="M 18.109375 8.203125 
L 18.109375 -20.796875 
L 9.078125 -20.796875 
L 9.078125 54.6875 
L 18.109375 54.6875 
L 18.109375 46.390625 
Q 20.953125 51.265625 25.265625 53.625 
Q 29.59375 56 35.59375 56 
Q 45.5625 56 51.78125 48.09375 
Q 58.015625 40.1875 58.015625 27.296875 
Q 58.015625 14.40625 51.78125 6.484375 
Q 45.5625 -1.421875 35.59375 -1.421875 
Q 29.59375 -1.421875 25.265625 0.953125 
Q 20.953125 3.328125 18.109375 8.203125 
z
M 48.6875 27.296875 
Q 48.6875 37.203125 44.609375 42.84375 
Q 40.53125 48.484375 33.40625 48.484375 
Q 26.265625 48.484375 22.1875 42.84375 
Q 18.109375 37.203125 18.109375 27.296875 
Q 18.109375 17.390625 22.1875 11.75 
Q 26.265625 6.109375 33.40625 6.109375 
Q 40.53125 6.109375 44.609375 11.75 
Q 48.6875 17.390625 48.6875 27.296875 
z
" id="DejaVuSans-112"/>
       <path d="M 37.109375 75.984375 
L 37.109375 68.5 
L 28.515625 68.5 
Q 23.6875 68.5 21.796875 66.546875 
Q 19.921875 64.59375 19.921875 59.515625 
L 19.921875 54.6875 
L 34.71875 54.6875 
L 34.71875 47.703125 
L 19.921875 47.703125 
L 19.921875 0 
L 10.890625 0 
L 10.890625 47.703125 
L 2.296875 47.703125 
L 2.296875 54.6875 
L 10.890625 54.6875 
L 10.890625 58.5 
Q 10.890625 67.625 15.140625 71.796875 
Q 19.390625 75.984375 28.609375 75.984375 
z
" id="DejaVuSans-102"/>
       <path d="M 48.78125 52.59375 
L 48.78125 44.1875 
Q 44.96875 46.296875 41.140625 47.34375 
Q 37.3125 48.390625 33.40625 48.390625 
Q 24.65625 48.390625 19.8125 42.84375 
Q 14.984375 37.3125 14.984375 27.296875 
Q 14.984375 17.28125 19.8125 11.734375 
Q 24.65625 6.203125 33.40625 6.203125 
Q 37.3125 6.203125 41.140625 7.25 
Q 44.96875 8.296875 48.78125 10.40625 
L 48.78125 2.09375 
Q 45.015625 0.34375 40.984375 -0.53125 
Q 36.96875 -1.421875 32.421875 -1.421875 
Q 20.0625 -1.421875 12.78125 6.34375 
Q 5.515625 14.109375 5.515625 27.296875 
Q 5.515625 40.671875 12.859375 48.328125 
Q 20.21875 56 33.015625 56 
Q 37.15625 56 41.109375 55.140625 
Q 45.0625 54.296875 48.78125 52.59375 
z
" id="DejaVuSans-99"/>
       <path d="M 31 75.875 
Q 24.46875 64.65625 21.28125 53.65625 
Q 18.109375 42.671875 18.109375 31.390625 
Q 18.109375 20.125 21.3125 9.0625 
Q 24.515625 -2 31 -13.1875 
L 23.1875 -13.1875 
Q 15.875 -1.703125 12.234375 9.375 
Q 8.59375 20.453125 8.59375 31.390625 
Q 8.59375 42.28125 12.203125 53.3125 
Q 15.828125 64.359375 23.1875 75.875 
z
" id="DejaVuSans-40"/>
       <path d="M 8.015625 75.875 
L 15.828125 75.875 
Q 23.140625 64.359375 26.78125 53.3125 
Q 30.421875 42.28125 30.421875 31.390625 
Q 30.421875 20.453125 26.78125 9.375 
Q 23.140625 -1.703125 15.828125 -13.1875 
L 8.015625 -13.1875 
Q 14.5 -2 17.703125 9.0625 
Q 20.90625 20.125 20.90625 31.390625 
Q 20.90625 42.671875 17.703125 53.65625 
Q 14.5 64.65625 8.015625 75.875 
z
" id="DejaVuSans-41"/>
      </defs>
      <use xlink:href="#DejaVuSans-66"/>
      <use x="68.603516" xlink:href="#DejaVuSans-101"/>
      <use x="130.126953" xlink:href="#DejaVuSans-104"/>
      <use x="193.505859" xlink:href="#DejaVuSans-97"/>
      <use x="254.785156" xlink:href="#DejaVuSans-118"/>
      <use x="313.964844" xlink:href="#DejaVuSans-105"/>
      <use x="341.748047" xlink:href="#DejaVuSans-111"/>
      <use x="402.929688" xlink:href="#DejaVuSans-114"/>
      <use x="444.042969" xlink:href="#DejaVuSans-32"/>
      <use x="475.830078" xlink:href="#DejaVuSans-112"/>
      <use x="539.306641" xlink:href="#DejaVuSans-101"/>
      <use x="600.830078" xlink:href="#DejaVuSans-114"/>
      <use x="641.943359" xlink:href="#DejaVuSans-102"/>
      <use x="677.148438" xlink:href="#DejaVuSans-111"/>
      <use x="738.330078" xlink:href="#DejaVuSans-114"/>
      <use x="777.693359" xlink:href="#DejaVuSans-109"/>
      <use x="875.105469" xlink:href="#DejaVuSans-97"/>
      <use x="936.384766" xlink:href="#DejaVuSans-110"/>
      <use x="999.763672" xlink:href="#DejaVuSans-99"/>
      <use x="1054.744141" xlink:href="#DejaVuSans-101"/>
      <use x="1116.267578" xlink:href="#DejaVuSans-32"/>
      <use x="1148.054688" xlink:href="#DejaVuSans-40"/>
      <use x="1187.068359" xlink:href="#DejaVuSans-68"/>
      <use x="1264.070312" xlink:href="#DejaVuSans-73"/>
      <use x="1293.5625" xlink:href="#DejaVuSans-41"/>
     </g>
    </g>
   </g>
   <g id="matplotlib.axis_4">
    <g id="ytick_5">
     <g id="line2d_12">
      <g>
       <use style="stroke:#000000;stroke-width:0.8;" x="47.72" xlink:href="#m013ab14252" y="244.353579"/>
      </g>
     </g>
     <g id="text_11">
      <!-- 5.0 -->
      <g transform="translate(21.29375 247.392954)scale(0.08 -0.08)">
       <defs>
        <path d="M 10.59375 35.5 
L 73.1875 35.5 
L 73.1875 27.203125 
L 10.59375 27.203125 
z
" id="DejaVuSans-8722"/>
       </defs>
       <use xlink:href="#DejaVuSans-8722"/>
       <use x="83.789062" xlink:href="#DejaVuSans-53"/>
       <use x="147.412109" xlink:href="#DejaVuSans-46"/>
       <use x="179.199219" xlink:href="#DejaVuSans-48"/>
      </g>
     </g>
    </g>
    <g id="ytick_6">
     <g id="line2d_13">
      <g>
       <use style="stroke:#000000;stroke-width:0.8;" x="47.72" xlink:href="#m013ab14252" y="227.753689"/>
      </g>
     </g>
     <g id="text_12">
      <!-- 2.5 -->
      <g transform="translate(21.29375 230.793064)scale(0.08 -0.08)">
       <use xlink:href="#DejaVuSans-8722"/>
       <use x="83.789062" xlink:href="#DejaVuSans-50"/>
       <use x="147.412109" xlink:href="#DejaVuSans-46"/>
       <use x="179.199219" xlink:href="#DejaVuSans-53"/>
      </g>
     </g>
    </g>
    <g id="ytick_7">
     <g id="line2d_14">
      <g>
       <use style="stroke:#000000;stroke-width:0.8;" x="47.72" xlink:href="#m013ab14252" y="211.1538"/>
      </g>
     </g>
     <g id="text_13">
      <!-- 0.0 -->
      <g transform="translate(27.9975 214.193175)scale(0.08 -0.08)">
       <use xlink:href="#DejaVuSans-48"/>
       <use x="63.623047" xlink:href="#DejaVuSans-46"/>
       <use x="95.410156" xlink:href="#DejaVuSans-48"/>
      </g>
     </g>
    </g>
    <g id="ytick_8">
     <g id="line2d_15">
      <g>
       <use style="stroke:#000000;stroke-width:0.8;" x="47.72" xlink:href="#m013ab14252" y="194.553911"/>
      </g>
     </g>
     <g id="text_14">
      <!-- 2.5 -->
      <g transform="translate(27.9975 197.593286)scale(0.08 -0.08)">
       <use xlink:href="#DejaVuSans-50"/>
       <use x="63.623047" xlink:href="#DejaVuSans-46"/>
       <use x="95.410156" xlink:href="#DejaVuSans-53"/>
      </g>
     </g>
    </g>
    <g id="ytick_9">
     <g id="line2d_16">
      <g>
       <use style="stroke:#000000;stroke-width:0.8;" x="47.72" xlink:href="#m013ab14252" y="177.954022"/>
      </g>
     </g>
     <g id="text_15">
      <!-- 5.0 -->
      <g transform="translate(27.9975 180.993397)scale(0.08 -0.08)">
       <use xlink:href="#DejaVuSans-53"/>
       <use x="63.623047" xlink:href="#DejaVuSans-46"/>
       <use x="95.410156" xlink:href="#DejaVuSans-48"/>
      </g>
     </g>
    </g>
    <g id="ytick_10">
     <g id="line2d_17">
      <g>
       <use style="stroke:#000000;stroke-width:0.8;" x="47.72" xlink:href="#m013ab14252" y="161.354133"/>
      </g>
     </g>
     <g id="text_16">
      <!-- 7.5 -->
      <g transform="translate(27.9975 164.393508)scale(0.08 -0.08)">
       <use xlink:href="#DejaVuSans-55"/>
       <use x="63.623047" xlink:href="#DejaVuSans-46"/>
       <use x="95.410156" xlink:href="#DejaVuSans-53"/>
      </g>
     </g>
    </g>
    <g id="text_17">
     <!-- $\Delta$ Shared noise variance -->
     <g transform="translate(15.63 254.446)rotate(-90)scale(0.08 -0.08)">
      <defs>
       <path d="M 44.28125 53.078125 
L 44.28125 44.578125 
Q 40.484375 46.53125 36.375 47.5 
Q 32.28125 48.484375 27.875 48.484375 
Q 21.1875 48.484375 17.84375 46.4375 
Q 14.5 44.390625 14.5 40.28125 
Q 14.5 37.15625 16.890625 35.375 
Q 19.28125 33.59375 26.515625 31.984375 
L 29.59375 31.296875 
Q 39.15625 29.25 43.1875 25.515625 
Q 47.21875 21.78125 47.21875 15.09375 
Q 47.21875 7.46875 41.1875 3.015625 
Q 35.15625 -1.421875 24.609375 -1.421875 
Q 20.21875 -1.421875 15.453125 -0.5625 
Q 10.6875 0.296875 5.421875 2 
L 5.421875 11.28125 
Q 10.40625 8.6875 15.234375 7.390625 
Q 20.0625 6.109375 24.8125 6.109375 
Q 31.15625 6.109375 34.5625 8.28125 
Q 37.984375 10.453125 37.984375 14.40625 
Q 37.984375 18.0625 35.515625 20.015625 
Q 33.0625 21.96875 24.703125 23.78125 
L 21.578125 24.515625 
Q 13.234375 26.265625 9.515625 29.90625 
Q 5.8125 33.546875 5.8125 39.890625 
Q 5.8125 47.609375 11.28125 51.796875 
Q 16.75 56 26.8125 56 
Q 31.78125 56 36.171875 55.265625 
Q 40.578125 54.546875 44.28125 53.078125 
z
" id="DejaVuSans-115"/>
      </defs>
      <use transform="translate(0 0.015625)" xlink:href="#DejaVuSans-916"/>
      <use transform="translate(68.408203 0.015625)" xlink:href="#DejaVuSans-32"/>
      <use transform="translate(100.195312 0.015625)" xlink:href="#DejaVuSans-83"/>
      <use transform="translate(163.671875 0.015625)" xlink:href="#DejaVuSans-104"/>
      <use transform="translate(227.050781 0.015625)" xlink:href="#DejaVuSans-97"/>
      <use transform="translate(288.330078 0.015625)" xlink:href="#DejaVuSans-114"/>
      <use transform="translate(329.443359 0.015625)" xlink:href="#DejaVuSans-101"/>
      <use transform="translate(390.966797 0.015625)" xlink:href="#DejaVuSans-100"/>
      <use transform="translate(454.443359 0.015625)" xlink:href="#DejaVuSans-32"/>
      <use transform="translate(486.230469 0.015625)" xlink:href="#DejaVuSans-110"/>
      <use transform="translate(549.609375 0.015625)" xlink:href="#DejaVuSans-111"/>
      <use transform="translate(610.791016 0.015625)" xlink:href="#DejaVuSans-105"/>
      <use transform="translate(638.574219 0.015625)" xlink:href="#DejaVuSans-115"/>
      <use transform="translate(690.673828 0.015625)" xlink:href="#DejaVuSans-101"/>
      <use transform="translate(752.197266 0.015625)" xlink:href="#DejaVuSans-32"/>
      <use transform="translate(783.984375 0.015625)" xlink:href="#DejaVuSans-118"/>
      <use transform="translate(843.164062 0.015625)" xlink:href="#DejaVuSans-97"/>
      <use transform="translate(904.443359 0.015625)" xlink:href="#DejaVuSans-114"/>
      <use transform="translate(945.556641 0.015625)" xlink:href="#DejaVuSans-105"/>
      <use transform="translate(973.339844 0.015625)" xlink:href="#DejaVuSans-97"/>
      <use transform="translate(1034.619141 0.015625)" xlink:href="#DejaVuSans-110"/>
      <use transform="translate(1097.998047 0.015625)" xlink:href="#DejaVuSans-99"/>
      <use transform="translate(1152.978516 0.015625)" xlink:href="#DejaVuSans-101"/>
     </g>
    </g>
   </g>
   <g id="line2d_18">
    <path clip-path="url(#pa1300fc1cc)" d="M 47.72 196.309437 
L 48.823434 196.576084 
L 49.926869 196.842732 
L 51.030303 197.109379 
L 52.133737 197.376027 
L 53.237172 197.642674 
L 54.340606 197.909321 
L 55.44404 198.175969 
L 56.547475 198.442616 
L 57.650909 198.709263 
L 58.754343 198.975911 
L 59.857778 199.242558 
L 60.961212 199.509206 
L 62.064646 199.775853 
L 63.168081 200.0425 
L 64.271515 200.309148 
L 65.374949 200.575795 
L 66.478384 200.842442 
L 67.581818 201.10909 
L 68.685253 201.375737 
L 69.788687 201.642385 
L 70.892121 201.909032 
L 71.995556 202.175679 
L 73.09899 202.442327 
L 74.202424 202.708974 
L 75.305859 202.975621 
L 76.409293 203.242269 
L 77.512727 203.508916 
L 78.616162 203.775563 
L 79.719596 204.042211 
L 80.82303 204.308858 
L 81.926465 204.575506 
L 83.029899 204.842153 
L 84.133333 205.1088 
L 85.236768 205.375448 
L 86.340202 205.642095 
L 87.443636 205.908742 
L 88.547071 206.17539 
L 89.650505 206.442037 
L 90.753939 206.708685 
L 91.857374 206.975332 
L 92.960808 207.241979 
L 94.064242 207.508627 
L 95.167677 207.775274 
L 96.271111 208.041921 
L 97.374545 208.308569 
L 98.47798 208.575216 
L 99.581414 208.841864 
L 100.684848 209.108511 
L 101.788283 209.375158 
L 102.891717 209.641806 
L 103.995152 209.908453 
L 105.098586 210.1751 
L 106.20202 210.441748 
L 107.305455 210.708395 
L 108.408889 210.975043 
L 109.512323 211.24169 
L 110.615758 211.508337 
L 111.719192 211.774985 
L 112.822626 212.041632 
L 113.926061 212.308279 
L 115.029495 212.574927 
L 116.132929 212.841574 
L 117.236364 213.108221 
L 118.339798 213.374869 
L 119.443232 213.641516 
L 120.546667 213.908164 
L 121.650101 214.174811 
L 122.753535 214.441458 
L 123.85697 214.708106 
L 124.960404 214.974753 
L 126.063838 215.2414 
L 127.167273 215.508048 
L 128.270707 215.774695 
L 129.374141 216.041343 
L 130.477576 216.30799 
L 131.58101 216.574637 
L 132.684444 216.841285 
L 133.787879 217.107932 
L 134.891313 217.374579 
L 135.994747 217.641227 
L 137.098182 217.907874 
L 138.201616 218.174522 
L 139.305051 218.441169 
L 140.408485 218.707816 
L 141.511919 218.974464 
L 142.615354 219.241111 
L 143.718788 219.507758 
L 144.822222 219.774406 
L 145.925657 220.041053 
L 147.029091 220.307701 
L 148.132525 220.574348 
L 149.23596 220.840995 
L 150.339394 221.107643 
L 151.442828 221.37429 
L 152.546263 221.640937 
L 153.649697 221.907585 
L 154.753131 222.174232 
L 155.856566 222.44088 
L 156.96 222.707527 
" style="fill:none;stroke:#ff7f0e;stroke-linecap:square;stroke-width:2.25;"/>
   </g>
   <g id="line2d_19">
    <path clip-path="url(#pa1300fc1cc)" d="M 47.72 211.1538 
L 156.96 211.1538 
" style="fill:none;stroke:#808080;stroke-dasharray:5.55,2.4;stroke-dashoffset:0;stroke-width:1.5;"/>
   </g>
   <g id="line2d_20">
    <path clip-path="url(#pa1300fc1cc)" d="M 61.021578 253.96 
L 61.021578 157.732 
" style="fill:none;stroke:#808080;stroke-dasharray:5.55,2.4;stroke-dashoffset:0;stroke-width:1.5;"/>
   </g>
   <g id="patch_6">
    <path d="M 47.72 253.96 
L 47.72 157.732 
" style="fill:none;stroke:#000000;stroke-linecap:square;stroke-linejoin:miter;stroke-width:0.8;"/>
   </g>
   <g id="patch_7">
    <path d="M 47.72 253.96 
L 156.96 253.96 
" style="fill:none;stroke:#000000;stroke-linecap:square;stroke-linejoin:miter;stroke-width:0.8;"/>
   </g>
   <g id="text_18">
    <!-- $R^2$: 0.188, $p &lt; 0.05$ -->
    <g transform="translate(56.836 151.732)scale(0.096 -0.096)">
     <defs>
      <path d="M 73.1875 49.21875 
L 22.796875 31.296875 
L 73.1875 13.484375 
L 73.1875 4.59375 
L 10.59375 27.296875 
L 10.59375 35.40625 
L 73.1875 58.109375 
z
" id="DejaVuSans-60"/>
     </defs>
     <use transform="translate(0 0.765625)" xlink:href="#DejaVuSans-Oblique-82"/>
     <use transform="translate(76.499193 39.046875)scale(0.7)" xlink:href="#DejaVuSans-50"/>
     <use transform="translate(123.769701 0.765625)" xlink:href="#DejaVuSans-58"/>
     <use transform="translate(157.461107 0.765625)" xlink:href="#DejaVuSans-32"/>
     <use transform="translate(189.248216 0.765625)" xlink:href="#DejaVuSans-48"/>
     <use transform="translate(252.871263 0.765625)" xlink:href="#DejaVuSans-46"/>
     <use transform="translate(284.658372 0.765625)" xlink:href="#DejaVuSans-49"/>
     <use transform="translate(348.281419 0.765625)" xlink:href="#DejaVuSans-56"/>
     <use transform="translate(411.904466 0.765625)" xlink:href="#DejaVuSans-56"/>
     <use transform="translate(475.527513 0.765625)" xlink:href="#DejaVuSans-44"/>
     <use transform="translate(507.314622 0.765625)" xlink:href="#DejaVuSans-32"/>
     <use transform="translate(539.101732 0.765625)" xlink:href="#DejaVuSans-Oblique-112"/>
     <use transform="translate(622.060716 0.765625)" xlink:href="#DejaVuSans-60"/>
     <use transform="translate(725.332201 0.765625)" xlink:href="#DejaVuSans-48"/>
     <use transform="translate(788.955247 0.765625)" xlink:href="#DejaVuSans-46"/>
     <use transform="translate(820.742357 0.765625)" xlink:href="#DejaVuSans-48"/>
     <use transform="translate(884.365404 0.765625)" xlink:href="#DejaVuSans-53"/>
    </g>
   </g>
  </g>
 </g>
 <defs>
  <clipPath id="pf6587cb780">
   <rect height="96.228" width="109.24" x="47.72" y="25.152"/>
  </clipPath>
  <clipPath id="pa1300fc1cc">
   <rect height="96.228" width="109.24" x="47.72" y="157.732"/>
  </clipPath>
 </defs>
</svg>
