<?xml version="1.0" encoding="utf-8" standalone="no"?>
<!DOCTYPE svg PUBLIC "-//W3C//DTD SVG 1.1//EN"
  "http://www.w3.org/Graphics/SVG/1.1/DTD/svg11.dtd">
<!-- Created with matplotlib (https://matplotlib.org/) -->
<svg height="144pt" version="1.1" viewBox="0 0 432 144" width="432pt" xmlns="http://www.w3.org/2000/svg" xmlns:xlink="http://www.w3.org/1999/xlink">
 <metadata>
  <rdf:RDF xmlns:cc="http://creativecommons.org/ns#" xmlns:dc="http://purl.org/dc/elements/1.1/" xmlns:rdf="http://www.w3.org/1999/02/22-rdf-syntax-ns#">
   <cc:Work>
    <dc:type rdf:resource="http://purl.org/dc/dcmitype/StillImage"/>
    <dc:date>2021-06-23T22:46:53.184782</dc:date>
    <dc:format>image/svg+xml</dc:format>
    <dc:creator>
     <cc:Agent>
      <dc:title>Matplotlib v3.3.2, https://matplotlib.org/</dc:title>
     </cc:Agent>
    </dc:creator>
   </cc:Work>
  </rdf:RDF>
 </metadata>
 <defs>
  <style type="text/css">*{stroke-linecap:butt;stroke-linejoin:round;}</style>
 </defs>
 <g id="figure_1">
  <g id="patch_1">
   <path d="M 0 144 
L 432 144 
L 432 0 
L 0 0 
z
" style="fill:#ffffff;"/>
  </g>
  <g id="axes_1">
   <g id="patch_2">
    <path d="M 37.1 109.96 
L 130.773 109.96 
L 130.773 22.56 
L 37.1 22.56 
z
" style="fill:#ffffff;"/>
   </g>
   <g id="PathCollection_1">
    <defs>
     <path d="M 0 1.936492 
C 0.513564 1.936492 1.006162 1.732451 1.369306 1.369306 
C 1.732451 1.006162 1.936492 0.513564 1.936492 0 
C 1.936492 -0.513564 1.732451 -1.006162 1.369306 -1.369306 
C 1.006162 -1.732451 0.513564 -1.936492 0 -1.936492 
C -0.513564 -1.936492 -1.006162 -1.732451 -1.369306 -1.369306 
C -1.732451 -1.006162 -1.936492 -0.513564 -1.936492 0 
C -1.936492 0.513564 -1.732451 1.006162 -1.369306 1.369306 
C -1.006162 1.732451 -0.513564 1.936492 0 1.936492 
z
" id="mde79635881" style="stroke:#ffffff;"/>
    </defs>
    <g clip-path="url(#p04427771f2)">
     <use style="fill:#1f77b4;stroke:#ffffff;" x="61.494094" xlink:href="#mde79635881" y="85.370199"/>
     <use style="fill:#1f77b4;stroke:#ffffff;" x="58.24107" xlink:href="#mde79635881" y="86.166455"/>
     <use style="fill:#1f77b4;stroke:#ffffff;" x="54.63323" xlink:href="#mde79635881" y="91.233131"/>
     <use style="fill:#1f77b4;stroke:#ffffff;" x="58.323355" xlink:href="#mde79635881" y="88.262399"/>
     <use style="fill:#1f77b4;stroke:#ffffff;" x="53.668982" xlink:href="#mde79635881" y="91.13588"/>
     <use style="fill:#1f77b4;stroke:#ffffff;" x="55.80763" xlink:href="#mde79635881" y="92.850804"/>
     <use style="fill:#1f77b4;stroke:#ffffff;" x="54.192238" xlink:href="#mde79635881" y="90.429638"/>
     <use style="fill:#1f77b4;stroke:#ffffff;" x="57.290222" xlink:href="#mde79635881" y="88.165827"/>
     <use style="fill:#1f77b4;stroke:#ffffff;" x="70.642273" xlink:href="#mde79635881" y="74.161739"/>
     <use style="fill:#1f77b4;stroke:#ffffff;" x="77.807377" xlink:href="#mde79635881" y="68.866839"/>
     <use style="fill:#1f77b4;stroke:#ffffff;" x="57.78878" xlink:href="#mde79635881" y="87.560096"/>
     <use style="fill:#1f77b4;stroke:#ffffff;" x="60.6769" xlink:href="#mde79635881" y="87.433582"/>
     <use style="fill:#1f77b4;stroke:#ffffff;" x="59.296367" xlink:href="#mde79635881" y="85.465796"/>
     <use style="fill:#1f77b4;stroke:#ffffff;" x="63.008475" xlink:href="#mde79635881" y="88.232595"/>
     <use style="fill:#1f77b4;stroke:#ffffff;" x="54.271032" xlink:href="#mde79635881" y="91.594552"/>
     <use style="fill:#1f77b4;stroke:#ffffff;" x="54.927049" xlink:href="#mde79635881" y="92.246044"/>
     <use style="fill:#1f77b4;stroke:#ffffff;" x="62.406518" xlink:href="#mde79635881" y="83.993874"/>
     <use style="fill:#1f77b4;stroke:#ffffff;" x="57.727142" xlink:href="#mde79635881" y="86.63473"/>
     <use style="fill:#1f77b4;stroke:#ffffff;" x="53.816296" xlink:href="#mde79635881" y="92.564478"/>
     <use style="fill:#1f77b4;stroke:#ffffff;" x="48.876297" xlink:href="#mde79635881" y="94.317763"/>
     <use style="fill:#1f77b4;stroke:#ffffff;" x="47.267318" xlink:href="#mde79635881" y="100.127857"/>
     <use style="fill:#1f77b4;stroke:#ffffff;" x="45.872634" xlink:href="#mde79635881" y="97.160756"/>
     <use style="fill:#1f77b4;stroke:#ffffff;" x="48.367108" xlink:href="#mde79635881" y="95.250999"/>
     <use style="fill:#1f77b4;stroke:#ffffff;" x="57.428348" xlink:href="#mde79635881" y="87.328002"/>
     <use style="fill:#1f77b4;stroke:#ffffff;" x="57.106237" xlink:href="#mde79635881" y="85.700526"/>
     <use style="fill:#1f77b4;stroke:#ffffff;" x="58.034859" xlink:href="#mde79635881" y="85.774529"/>
     <use style="fill:#1f77b4;stroke:#ffffff;" x="65.866494" xlink:href="#mde79635881" y="80.376227"/>
     <use style="fill:#1f77b4;stroke:#ffffff;" x="68.688323" xlink:href="#mde79635881" y="77.020747"/>
     <use style="fill:#1f77b4;stroke:#ffffff;" x="70.592004" xlink:href="#mde79635881" y="77.373435"/>
     <use style="fill:#1f77b4;stroke:#ffffff;" x="66.61464" xlink:href="#mde79635881" y="80.70214"/>
     <use style="fill:#1f77b4;stroke:#ffffff;" x="44.757707" xlink:href="#mde79635881" y="97.729982"/>
     <use style="fill:#1f77b4;stroke:#ffffff;" x="47.987183" xlink:href="#mde79635881" y="98.93029"/>
     <use style="fill:#1f77b4;stroke:#ffffff;" x="51.594169" xlink:href="#mde79635881" y="99.156718"/>
     <use style="fill:#1f77b4;stroke:#ffffff;" x="49.57426" xlink:href="#mde79635881" y="96.448202"/>
     <use style="fill:#1f77b4;stroke:#ffffff;" x="48.974778" xlink:href="#mde79635881" y="96.759294"/>
     <use style="fill:#1f77b4;stroke:#ffffff;" x="49.376138" xlink:href="#mde79635881" y="96.781611"/>
     <use style="fill:#1f77b4;stroke:#ffffff;" x="50.985409" xlink:href="#mde79635881" y="95.861031"/>
     <use style="fill:#1f77b4;stroke:#ffffff;" x="53.56855" xlink:href="#mde79635881" y="95.195737"/>
     <use style="fill:#1f77b4;stroke:#ffffff;" x="52.203125" xlink:href="#mde79635881" y="89.075187"/>
     <use style="fill:#1f77b4;stroke:#ffffff;" x="53.19891" xlink:href="#mde79635881" y="95.687662"/>
     <use style="fill:#1f77b4;stroke:#ffffff;" x="68.801509" xlink:href="#mde79635881" y="75.194577"/>
     <use style="fill:#1f77b4;stroke:#ffffff;" x="67.67814" xlink:href="#mde79635881" y="77.15474"/>
     <use style="fill:#1f77b4;stroke:#ffffff;" x="62.333921" xlink:href="#mde79635881" y="83.308095"/>
     <use style="fill:#1f77b4;stroke:#ffffff;" x="57.94071" xlink:href="#mde79635881" y="89.467661"/>
     <use style="fill:#1f77b4;stroke:#ffffff;" x="59.963235" xlink:href="#mde79635881" y="88.186133"/>
     <use style="fill:#1f77b4;stroke:#ffffff;" x="46.334648" xlink:href="#mde79635881" y="99.649042"/>
     <use style="fill:#1f77b4;stroke:#ffffff;" x="48.205612" xlink:href="#mde79635881" y="99.044346"/>
     <use style="fill:#1f77b4;stroke:#ffffff;" x="50.247989" xlink:href="#mde79635881" y="98.334107"/>
     <use style="fill:#1f77b4;stroke:#ffffff;" x="48.815151" xlink:href="#mde79635881" y="98.986179"/>
     <use style="fill:#1f77b4;stroke:#ffffff;" x="48.441807" xlink:href="#mde79635881" y="98.010141"/>
     <use style="fill:#1f77b4;stroke:#ffffff;" x="54.908965" xlink:href="#mde79635881" y="80.841868"/>
     <use style="fill:#1f77b4;stroke:#ffffff;" x="47.546696" xlink:href="#mde79635881" y="91.250333"/>
     <use style="fill:#1f77b4;stroke:#ffffff;" x="52.053883" xlink:href="#mde79635881" y="85.245644"/>
     <use style="fill:#1f77b4;stroke:#ffffff;" x="53.509716" xlink:href="#mde79635881" y="92.212826"/>
     <use style="fill:#1f77b4;stroke:#ffffff;" x="59.270975" xlink:href="#mde79635881" y="87.967306"/>
     <use style="fill:#1f77b4;stroke:#ffffff;" x="63.293603" xlink:href="#mde79635881" y="85.945784"/>
     <use style="fill:#1f77b4;stroke:#ffffff;" x="64.29664" xlink:href="#mde79635881" y="83.49237"/>
     <use style="fill:#1f77b4;stroke:#ffffff;" x="65.358339" xlink:href="#mde79635881" y="80.655066"/>
     <use style="fill:#1f77b4;stroke:#ffffff;" x="73.044983" xlink:href="#mde79635881" y="74.422915"/>
     <use style="fill:#1f77b4;stroke:#ffffff;" x="109.099511" xlink:href="#mde79635881" y="36.281442"/>
     <use style="fill:#1f77b4;stroke:#ffffff;" x="112.75458" xlink:href="#mde79635881" y="30.037257"/>
     <use style="fill:#1f77b4;stroke:#ffffff;" x="96.648788" xlink:href="#mde79635881" y="41.401165"/>
     <use style="fill:#1f77b4;stroke:#ffffff;" x="65.815555" xlink:href="#mde79635881" y="71.048074"/>
     <use style="fill:#1f77b4;stroke:#ffffff;" x="67.363232" xlink:href="#mde79635881" y="75.064489"/>
     <use style="fill:#1f77b4;stroke:#ffffff;" x="64.681274" xlink:href="#mde79635881" y="80.410727"/>
     <use style="fill:#1f77b4;stroke:#ffffff;" x="72.167387" xlink:href="#mde79635881" y="75.152049"/>
     <use style="fill:#1f77b4;stroke:#ffffff;" x="83.616513" xlink:href="#mde79635881" y="62.670219"/>
     <use style="fill:#1f77b4;stroke:#ffffff;" x="81.801054" xlink:href="#mde79635881" y="60.863452"/>
    </g>
   </g>
   <g id="matplotlib.axis_1">
    <g id="xtick_1">
     <g id="line2d_1">
      <defs>
       <path d="M 0 0 
L 0 3.5 
" id="m2d43c66eea" style="stroke:#000000;stroke-width:0.8;"/>
      </defs>
      <g>
       <use style="stroke:#000000;stroke-width:0.8;" x="43.206954" xlink:href="#m2d43c66eea" y="109.96"/>
      </g>
     </g>
     <g id="text_1">
      <!-- 0 -->
      <g transform="translate(40.661954 123.03875)scale(0.08 -0.08)">
       <defs>
        <path d="M 31.78125 66.40625 
Q 24.171875 66.40625 20.328125 58.90625 
Q 16.5 51.421875 16.5 36.375 
Q 16.5 21.390625 20.328125 13.890625 
Q 24.171875 6.390625 31.78125 6.390625 
Q 39.453125 6.390625 43.28125 13.890625 
Q 47.125 21.390625 47.125 36.375 
Q 47.125 51.421875 43.28125 58.90625 
Q 39.453125 66.40625 31.78125 66.40625 
z
M 31.78125 74.21875 
Q 44.046875 74.21875 50.515625 64.515625 
Q 56.984375 54.828125 56.984375 36.375 
Q 56.984375 17.96875 50.515625 8.265625 
Q 44.046875 -1.421875 31.78125 -1.421875 
Q 19.53125 -1.421875 13.0625 8.265625 
Q 6.59375 17.96875 6.59375 36.375 
Q 6.59375 54.828125 13.0625 64.515625 
Q 19.53125 74.21875 31.78125 74.21875 
z
" id="DejaVuSans-48"/>
       </defs>
       <use xlink:href="#DejaVuSans-48"/>
      </g>
     </g>
    </g>
    <g id="xtick_2">
     <g id="line2d_2">
      <g>
       <use style="stroke:#000000;stroke-width:0.8;" x="90.817638" xlink:href="#m2d43c66eea" y="109.96"/>
      </g>
     </g>
     <g id="text_2">
      <!-- 10 -->
      <g transform="translate(85.727638 123.03875)scale(0.08 -0.08)">
       <defs>
        <path d="M 12.40625 8.296875 
L 28.515625 8.296875 
L 28.515625 63.921875 
L 10.984375 60.40625 
L 10.984375 69.390625 
L 28.421875 72.90625 
L 38.28125 72.90625 
L 38.28125 8.296875 
L 54.390625 8.296875 
L 54.390625 0 
L 12.40625 0 
z
" id="DejaVuSans-49"/>
       </defs>
       <use xlink:href="#DejaVuSans-49"/>
       <use x="63.623047" xlink:href="#DejaVuSans-48"/>
      </g>
     </g>
    </g>
    <g id="text_3">
     <!-- Passive -->
     <g transform="translate(69.145875 134.78125)scale(0.08 -0.08)">
      <defs>
       <path d="M 19.671875 64.796875 
L 19.671875 37.40625 
L 32.078125 37.40625 
Q 38.96875 37.40625 42.71875 40.96875 
Q 46.484375 44.53125 46.484375 51.125 
Q 46.484375 57.671875 42.71875 61.234375 
Q 38.96875 64.796875 32.078125 64.796875 
z
M 9.8125 72.90625 
L 32.078125 72.90625 
Q 44.34375 72.90625 50.609375 67.359375 
Q 56.890625 61.8125 56.890625 51.125 
Q 56.890625 40.328125 50.609375 34.8125 
Q 44.34375 29.296875 32.078125 29.296875 
L 19.671875 29.296875 
L 19.671875 0 
L 9.8125 0 
z
" id="DejaVuSans-80"/>
       <path d="M 34.28125 27.484375 
Q 23.390625 27.484375 19.1875 25 
Q 14.984375 22.515625 14.984375 16.5 
Q 14.984375 11.71875 18.140625 8.90625 
Q 21.296875 6.109375 26.703125 6.109375 
Q 34.1875 6.109375 38.703125 11.40625 
Q 43.21875 16.703125 43.21875 25.484375 
L 43.21875 27.484375 
z
M 52.203125 31.203125 
L 52.203125 0 
L 43.21875 0 
L 43.21875 8.296875 
Q 40.140625 3.328125 35.546875 0.953125 
Q 30.953125 -1.421875 24.3125 -1.421875 
Q 15.921875 -1.421875 10.953125 3.296875 
Q 6 8.015625 6 15.921875 
Q 6 25.140625 12.171875 29.828125 
Q 18.359375 34.515625 30.609375 34.515625 
L 43.21875 34.515625 
L 43.21875 35.40625 
Q 43.21875 41.609375 39.140625 45 
Q 35.0625 48.390625 27.6875 48.390625 
Q 23 48.390625 18.546875 47.265625 
Q 14.109375 46.140625 10.015625 43.890625 
L 10.015625 52.203125 
Q 14.9375 54.109375 19.578125 55.046875 
Q 24.21875 56 28.609375 56 
Q 40.484375 56 46.34375 49.84375 
Q 52.203125 43.703125 52.203125 31.203125 
z
" id="DejaVuSans-97"/>
       <path d="M 44.28125 53.078125 
L 44.28125 44.578125 
Q 40.484375 46.53125 36.375 47.5 
Q 32.28125 48.484375 27.875 48.484375 
Q 21.1875 48.484375 17.84375 46.4375 
Q 14.5 44.390625 14.5 40.28125 
Q 14.5 37.15625 16.890625 35.375 
Q 19.28125 33.59375 26.515625 31.984375 
L 29.59375 31.296875 
Q 39.15625 29.25 43.1875 25.515625 
Q 47.21875 21.78125 47.21875 15.09375 
Q 47.21875 7.46875 41.1875 3.015625 
Q 35.15625 -1.421875 24.609375 -1.421875 
Q 20.21875 -1.421875 15.453125 -0.5625 
Q 10.6875 0.296875 5.421875 2 
L 5.421875 11.28125 
Q 10.40625 8.6875 15.234375 7.390625 
Q 20.0625 6.109375 24.8125 6.109375 
Q 31.15625 6.109375 34.5625 8.28125 
Q 37.984375 10.453125 37.984375 14.40625 
Q 37.984375 18.0625 35.515625 20.015625 
Q 33.0625 21.96875 24.703125 23.78125 
L 21.578125 24.515625 
Q 13.234375 26.265625 9.515625 29.90625 
Q 5.8125 33.546875 5.8125 39.890625 
Q 5.8125 47.609375 11.28125 51.796875 
Q 16.75 56 26.8125 56 
Q 31.78125 56 36.171875 55.265625 
Q 40.578125 54.546875 44.28125 53.078125 
z
" id="DejaVuSans-115"/>
       <path d="M 9.421875 54.6875 
L 18.40625 54.6875 
L 18.40625 0 
L 9.421875 0 
z
M 9.421875 75.984375 
L 18.40625 75.984375 
L 18.40625 64.59375 
L 9.421875 64.59375 
z
" id="DejaVuSans-105"/>
       <path d="M 2.984375 54.6875 
L 12.5 54.6875 
L 29.59375 8.796875 
L 46.6875 54.6875 
L 56.203125 54.6875 
L 35.6875 0 
L 23.484375 0 
z
" id="DejaVuSans-118"/>
       <path d="M 56.203125 29.59375 
L 56.203125 25.203125 
L 14.890625 25.203125 
Q 15.484375 15.921875 20.484375 11.0625 
Q 25.484375 6.203125 34.421875 6.203125 
Q 39.59375 6.203125 44.453125 7.46875 
Q 49.3125 8.734375 54.109375 11.28125 
L 54.109375 2.78125 
Q 49.265625 0.734375 44.1875 -0.34375 
Q 39.109375 -1.421875 33.890625 -1.421875 
Q 20.796875 -1.421875 13.15625 6.1875 
Q 5.515625 13.8125 5.515625 26.8125 
Q 5.515625 40.234375 12.765625 48.109375 
Q 20.015625 56 32.328125 56 
Q 43.359375 56 49.78125 48.890625 
Q 56.203125 41.796875 56.203125 29.59375 
z
M 47.21875 32.234375 
Q 47.125 39.59375 43.09375 43.984375 
Q 39.0625 48.390625 32.421875 48.390625 
Q 24.90625 48.390625 20.390625 44.140625 
Q 15.875 39.890625 15.1875 32.171875 
z
" id="DejaVuSans-101"/>
      </defs>
      <use xlink:href="#DejaVuSans-80"/>
      <use x="55.802734" xlink:href="#DejaVuSans-97"/>
      <use x="117.082031" xlink:href="#DejaVuSans-115"/>
      <use x="169.181641" xlink:href="#DejaVuSans-115"/>
      <use x="221.28125" xlink:href="#DejaVuSans-105"/>
      <use x="249.064453" xlink:href="#DejaVuSans-118"/>
      <use x="308.244141" xlink:href="#DejaVuSans-101"/>
     </g>
    </g>
   </g>
   <g id="matplotlib.axis_2">
    <g id="ytick_1">
     <g id="line2d_3">
      <defs>
       <path d="M 0 0 
L -3.5 0 
" id="m2feb0caaee" style="stroke:#000000;stroke-width:0.8;"/>
      </defs>
      <g>
       <use style="stroke:#000000;stroke-width:0.8;" x="37.1" xlink:href="#m2feb0caaee" y="104.26201"/>
      </g>
     </g>
     <g id="text_4">
      <!-- 0 -->
      <g transform="translate(25.01 107.301385)scale(0.08 -0.08)">
       <use xlink:href="#DejaVuSans-48"/>
      </g>
     </g>
    </g>
    <g id="ytick_2">
     <g id="line2d_4">
      <g>
       <use style="stroke:#000000;stroke-width:0.8;" x="37.1" xlink:href="#m2feb0caaee" y="82.050841"/>
      </g>
     </g>
     <g id="text_5">
      <!-- 5 -->
      <g transform="translate(25.01 85.090216)scale(0.08 -0.08)">
       <defs>
        <path d="M 10.796875 72.90625 
L 49.515625 72.90625 
L 49.515625 64.59375 
L 19.828125 64.59375 
L 19.828125 46.734375 
Q 21.96875 47.46875 24.109375 47.828125 
Q 26.265625 48.1875 28.421875 48.1875 
Q 40.625 48.1875 47.75 41.5 
Q 54.890625 34.8125 54.890625 23.390625 
Q 54.890625 11.625 47.5625 5.09375 
Q 40.234375 -1.421875 26.90625 -1.421875 
Q 22.3125 -1.421875 17.546875 -0.640625 
Q 12.796875 0.140625 7.71875 1.703125 
L 7.71875 11.625 
Q 12.109375 9.234375 16.796875 8.0625 
Q 21.484375 6.890625 26.703125 6.890625 
Q 35.15625 6.890625 40.078125 11.328125 
Q 45.015625 15.765625 45.015625 23.390625 
Q 45.015625 31 40.078125 35.4375 
Q 35.15625 39.890625 26.703125 39.890625 
Q 22.75 39.890625 18.8125 39.015625 
Q 14.890625 38.140625 10.796875 36.28125 
z
" id="DejaVuSans-53"/>
       </defs>
       <use xlink:href="#DejaVuSans-53"/>
      </g>
     </g>
    </g>
    <g id="ytick_3">
     <g id="line2d_5">
      <g>
       <use style="stroke:#000000;stroke-width:0.8;" x="37.1" xlink:href="#m2feb0caaee" y="59.839671"/>
      </g>
     </g>
     <g id="text_6">
      <!-- 10 -->
      <g transform="translate(19.92 62.879046)scale(0.08 -0.08)">
       <use xlink:href="#DejaVuSans-49"/>
       <use x="63.623047" xlink:href="#DejaVuSans-48"/>
      </g>
     </g>
    </g>
    <g id="ytick_4">
     <g id="line2d_6">
      <g>
       <use style="stroke:#000000;stroke-width:0.8;" x="37.1" xlink:href="#m2feb0caaee" y="37.628502"/>
      </g>
     </g>
     <g id="text_7">
      <!-- 15 -->
      <g transform="translate(19.92 40.667877)scale(0.08 -0.08)">
       <use xlink:href="#DejaVuSans-49"/>
       <use x="63.623047" xlink:href="#DejaVuSans-53"/>
      </g>
     </g>
    </g>
    <g id="text_8">
     <!-- Active -->
     <g transform="translate(14.25625 78.63375)rotate(-90)scale(0.08 -0.08)">
      <defs>
       <path d="M 34.1875 63.1875 
L 20.796875 26.90625 
L 47.609375 26.90625 
z
M 28.609375 72.90625 
L 39.796875 72.90625 
L 67.578125 0 
L 57.328125 0 
L 50.6875 18.703125 
L 17.828125 18.703125 
L 11.1875 0 
L 0.78125 0 
z
" id="DejaVuSans-65"/>
       <path d="M 48.78125 52.59375 
L 48.78125 44.1875 
Q 44.96875 46.296875 41.140625 47.34375 
Q 37.3125 48.390625 33.40625 48.390625 
Q 24.65625 48.390625 19.8125 42.84375 
Q 14.984375 37.3125 14.984375 27.296875 
Q 14.984375 17.28125 19.8125 11.734375 
Q 24.65625 6.203125 33.40625 6.203125 
Q 37.3125 6.203125 41.140625 7.25 
Q 44.96875 8.296875 48.78125 10.40625 
L 48.78125 2.09375 
Q 45.015625 0.34375 40.984375 -0.53125 
Q 36.96875 -1.421875 32.421875 -1.421875 
Q 20.0625 -1.421875 12.78125 6.34375 
Q 5.515625 14.109375 5.515625 27.296875 
Q 5.515625 40.671875 12.859375 48.328125 
Q 20.21875 56 33.015625 56 
Q 37.15625 56 41.109375 55.140625 
Q 45.0625 54.296875 48.78125 52.59375 
z
" id="DejaVuSans-99"/>
       <path d="M 18.3125 70.21875 
L 18.3125 54.6875 
L 36.8125 54.6875 
L 36.8125 47.703125 
L 18.3125 47.703125 
L 18.3125 18.015625 
Q 18.3125 11.328125 20.140625 9.421875 
Q 21.96875 7.515625 27.59375 7.515625 
L 36.8125 7.515625 
L 36.8125 0 
L 27.59375 0 
Q 17.1875 0 13.234375 3.875 
Q 9.28125 7.765625 9.28125 18.015625 
L 9.28125 47.703125 
L 2.6875 47.703125 
L 2.6875 54.6875 
L 9.28125 54.6875 
L 9.28125 70.21875 
z
" id="DejaVuSans-116"/>
      </defs>
      <use xlink:href="#DejaVuSans-65"/>
      <use x="66.658203" xlink:href="#DejaVuSans-99"/>
      <use x="121.638672" xlink:href="#DejaVuSans-116"/>
      <use x="160.847656" xlink:href="#DejaVuSans-105"/>
      <use x="188.630859" xlink:href="#DejaVuSans-118"/>
      <use x="247.810547" xlink:href="#DejaVuSans-101"/>
     </g>
    </g>
   </g>
   <g id="line2d_7">
    <path clip-path="url(#p04427771f2)" d="M 41.357864 105.987273 
L 126.515136 26.532727 
" style="fill:none;stroke:#808080;stroke-dasharray:5.55,2.4;stroke-dashoffset:0;stroke-width:1.5;"/>
   </g>
   <g id="patch_3">
    <path d="M 37.1 109.96 
L 37.1 22.56 
" style="fill:none;stroke:#000000;stroke-linecap:square;stroke-linejoin:miter;stroke-width:0.8;"/>
   </g>
   <g id="patch_4">
    <path d="M 37.1 109.96 
L 130.773 109.96 
" style="fill:none;stroke:#000000;stroke-linecap:square;stroke-linejoin:miter;stroke-width:0.8;"/>
   </g>
   <g id="text_9">
    <!-- Signal magnitude -->
    <g transform="translate(41.70175 16.56)scale(0.096 -0.096)">
     <defs>
      <path d="M 53.515625 70.515625 
L 53.515625 60.890625 
Q 47.90625 63.578125 42.921875 64.890625 
Q 37.9375 66.21875 33.296875 66.21875 
Q 25.25 66.21875 20.875 63.09375 
Q 16.5 59.96875 16.5 54.203125 
Q 16.5 49.359375 19.40625 46.890625 
Q 22.3125 44.4375 30.421875 42.921875 
L 36.375 41.703125 
Q 47.40625 39.59375 52.65625 34.296875 
Q 57.90625 29 57.90625 20.125 
Q 57.90625 9.515625 50.796875 4.046875 
Q 43.703125 -1.421875 29.984375 -1.421875 
Q 24.8125 -1.421875 18.96875 -0.25 
Q 13.140625 0.921875 6.890625 3.21875 
L 6.890625 13.375 
Q 12.890625 10.015625 18.65625 8.296875 
Q 24.421875 6.59375 29.984375 6.59375 
Q 38.421875 6.59375 43.015625 9.90625 
Q 47.609375 13.234375 47.609375 19.390625 
Q 47.609375 24.75 44.3125 27.78125 
Q 41.015625 30.8125 33.5 32.328125 
L 27.484375 33.5 
Q 16.453125 35.6875 11.515625 40.375 
Q 6.59375 45.0625 6.59375 53.421875 
Q 6.59375 63.09375 13.40625 68.65625 
Q 20.21875 74.21875 32.171875 74.21875 
Q 37.3125 74.21875 42.625 73.28125 
Q 47.953125 72.359375 53.515625 70.515625 
z
" id="DejaVuSans-83"/>
      <path d="M 45.40625 27.984375 
Q 45.40625 37.75 41.375 43.109375 
Q 37.359375 48.484375 30.078125 48.484375 
Q 22.859375 48.484375 18.828125 43.109375 
Q 14.796875 37.75 14.796875 27.984375 
Q 14.796875 18.265625 18.828125 12.890625 
Q 22.859375 7.515625 30.078125 7.515625 
Q 37.359375 7.515625 41.375 12.890625 
Q 45.40625 18.265625 45.40625 27.984375 
z
M 54.390625 6.78125 
Q 54.390625 -7.171875 48.1875 -13.984375 
Q 42 -20.796875 29.203125 -20.796875 
Q 24.46875 -20.796875 20.265625 -20.09375 
Q 16.0625 -19.390625 12.109375 -17.921875 
L 12.109375 -9.1875 
Q 16.0625 -11.328125 19.921875 -12.34375 
Q 23.78125 -13.375 27.78125 -13.375 
Q 36.625 -13.375 41.015625 -8.765625 
Q 45.40625 -4.15625 45.40625 5.171875 
L 45.40625 9.625 
Q 42.625 4.78125 38.28125 2.390625 
Q 33.9375 0 27.875 0 
Q 17.828125 0 11.671875 7.65625 
Q 5.515625 15.328125 5.515625 27.984375 
Q 5.515625 40.671875 11.671875 48.328125 
Q 17.828125 56 27.875 56 
Q 33.9375 56 38.28125 53.609375 
Q 42.625 51.21875 45.40625 46.390625 
L 45.40625 54.6875 
L 54.390625 54.6875 
z
" id="DejaVuSans-103"/>
      <path d="M 54.890625 33.015625 
L 54.890625 0 
L 45.90625 0 
L 45.90625 32.71875 
Q 45.90625 40.484375 42.875 44.328125 
Q 39.84375 48.1875 33.796875 48.1875 
Q 26.515625 48.1875 22.3125 43.546875 
Q 18.109375 38.921875 18.109375 30.90625 
L 18.109375 0 
L 9.078125 0 
L 9.078125 54.6875 
L 18.109375 54.6875 
L 18.109375 46.1875 
Q 21.34375 51.125 25.703125 53.5625 
Q 30.078125 56 35.796875 56 
Q 45.21875 56 50.046875 50.171875 
Q 54.890625 44.34375 54.890625 33.015625 
z
" id="DejaVuSans-110"/>
      <path d="M 9.421875 75.984375 
L 18.40625 75.984375 
L 18.40625 0 
L 9.421875 0 
z
" id="DejaVuSans-108"/>
      <path id="DejaVuSans-32"/>
      <path d="M 52 44.1875 
Q 55.375 50.25 60.0625 53.125 
Q 64.75 56 71.09375 56 
Q 79.640625 56 84.28125 50.015625 
Q 88.921875 44.046875 88.921875 33.015625 
L 88.921875 0 
L 79.890625 0 
L 79.890625 32.71875 
Q 79.890625 40.578125 77.09375 44.375 
Q 74.3125 48.1875 68.609375 48.1875 
Q 61.625 48.1875 57.5625 43.546875 
Q 53.515625 38.921875 53.515625 30.90625 
L 53.515625 0 
L 44.484375 0 
L 44.484375 32.71875 
Q 44.484375 40.625 41.703125 44.40625 
Q 38.921875 48.1875 33.109375 48.1875 
Q 26.21875 48.1875 22.15625 43.53125 
Q 18.109375 38.875 18.109375 30.90625 
L 18.109375 0 
L 9.078125 0 
L 9.078125 54.6875 
L 18.109375 54.6875 
L 18.109375 46.1875 
Q 21.1875 51.21875 25.484375 53.609375 
Q 29.78125 56 35.6875 56 
Q 41.65625 56 45.828125 52.96875 
Q 50 49.953125 52 44.1875 
z
" id="DejaVuSans-109"/>
      <path d="M 8.5 21.578125 
L 8.5 54.6875 
L 17.484375 54.6875 
L 17.484375 21.921875 
Q 17.484375 14.15625 20.5 10.265625 
Q 23.53125 6.390625 29.59375 6.390625 
Q 36.859375 6.390625 41.078125 11.03125 
Q 45.3125 15.671875 45.3125 23.6875 
L 45.3125 54.6875 
L 54.296875 54.6875 
L 54.296875 0 
L 45.3125 0 
L 45.3125 8.40625 
Q 42.046875 3.421875 37.71875 1 
Q 33.40625 -1.421875 27.6875 -1.421875 
Q 18.265625 -1.421875 13.375 4.4375 
Q 8.5 10.296875 8.5 21.578125 
z
M 31.109375 56 
z
" id="DejaVuSans-117"/>
      <path d="M 45.40625 46.390625 
L 45.40625 75.984375 
L 54.390625 75.984375 
L 54.390625 0 
L 45.40625 0 
L 45.40625 8.203125 
Q 42.578125 3.328125 38.25 0.953125 
Q 33.9375 -1.421875 27.875 -1.421875 
Q 17.96875 -1.421875 11.734375 6.484375 
Q 5.515625 14.40625 5.515625 27.296875 
Q 5.515625 40.1875 11.734375 48.09375 
Q 17.96875 56 27.875 56 
Q 33.9375 56 38.25 53.625 
Q 42.578125 51.265625 45.40625 46.390625 
z
M 14.796875 27.296875 
Q 14.796875 17.390625 18.875 11.75 
Q 22.953125 6.109375 30.078125 6.109375 
Q 37.203125 6.109375 41.296875 11.75 
Q 45.40625 17.390625 45.40625 27.296875 
Q 45.40625 37.203125 41.296875 42.84375 
Q 37.203125 48.484375 30.078125 48.484375 
Q 22.953125 48.484375 18.875 42.84375 
Q 14.796875 37.203125 14.796875 27.296875 
z
" id="DejaVuSans-100"/>
     </defs>
     <use xlink:href="#DejaVuSans-83"/>
     <use x="63.476562" xlink:href="#DejaVuSans-105"/>
     <use x="91.259766" xlink:href="#DejaVuSans-103"/>
     <use x="154.736328" xlink:href="#DejaVuSans-110"/>
     <use x="218.115234" xlink:href="#DejaVuSans-97"/>
     <use x="279.394531" xlink:href="#DejaVuSans-108"/>
     <use x="307.177734" xlink:href="#DejaVuSans-32"/>
     <use x="338.964844" xlink:href="#DejaVuSans-109"/>
     <use x="436.376953" xlink:href="#DejaVuSans-97"/>
     <use x="497.65625" xlink:href="#DejaVuSans-103"/>
     <use x="561.132812" xlink:href="#DejaVuSans-110"/>
     <use x="624.511719" xlink:href="#DejaVuSans-105"/>
     <use x="652.294922" xlink:href="#DejaVuSans-116"/>
     <use x="691.503906" xlink:href="#DejaVuSans-117"/>
     <use x="754.882812" xlink:href="#DejaVuSans-100"/>
     <use x="818.359375" xlink:href="#DejaVuSans-101"/>
    </g>
   </g>
  </g>
  <g id="axes_2">
   <g id="patch_5">
    <path d="M 182.111 109.96 
L 275.784 109.96 
L 275.784 22.56 
L 182.111 22.56 
z
" style="fill:#ffffff;"/>
   </g>
   <g id="PathCollection_2">
    <defs>
     <path d="M 0 1.936492 
C 0.513564 1.936492 1.006162 1.732451 1.369306 1.369306 
C 1.732451 1.006162 1.936492 0.513564 1.936492 0 
C 1.936492 -0.513564 1.732451 -1.006162 1.369306 -1.369306 
C 1.006162 -1.732451 0.513564 -1.936492 0 -1.936492 
C -0.513564 -1.936492 -1.006162 -1.732451 -1.369306 -1.369306 
C -1.732451 -1.006162 -1.936492 -0.513564 -1.936492 0 
C -1.936492 0.513564 -1.732451 1.006162 -1.369306 1.369306 
C -1.006162 1.732451 -0.513564 1.936492 0 1.936492 
z
" id="mf161a58381" style="stroke:#ffffff;"/>
    </defs>
    <g clip-path="url(#p76a6265183)">
     <use style="fill:#ff7f0e;stroke:#ffffff;" x="196.187204" xlink:href="#mf161a58381" y="95.309749"/>
     <use style="fill:#ff7f0e;stroke:#ffffff;" x="194.495588" xlink:href="#mf161a58381" y="97.064892"/>
     <use style="fill:#ff7f0e;stroke:#ffffff;" x="204.008962" xlink:href="#mf161a58381" y="87.98371"/>
     <use style="fill:#ff7f0e;stroke:#ffffff;" x="227.117862" xlink:href="#mf161a58381" y="83.662436"/>
     <use style="fill:#ff7f0e;stroke:#ffffff;" x="212.753936" xlink:href="#mf161a58381" y="83.015038"/>
     <use style="fill:#ff7f0e;stroke:#ffffff;" x="214.523273" xlink:href="#mf161a58381" y="85.262482"/>
     <use style="fill:#ff7f0e;stroke:#ffffff;" x="230.59954" xlink:href="#mf161a58381" y="73.70935"/>
     <use style="fill:#ff7f0e;stroke:#ffffff;" x="242.566231" xlink:href="#mf161a58381" y="72.05834"/>
     <use style="fill:#ff7f0e;stroke:#ffffff;" x="235.297937" xlink:href="#mf161a58381" y="67.957962"/>
     <use style="fill:#ff7f0e;stroke:#ffffff;" x="234.899448" xlink:href="#mf161a58381" y="66.492296"/>
     <use style="fill:#ff7f0e;stroke:#ffffff;" x="200.990289" xlink:href="#mf161a58381" y="92.241055"/>
     <use style="fill:#ff7f0e;stroke:#ffffff;" x="222.037529" xlink:href="#mf161a58381" y="93.541093"/>
     <use style="fill:#ff7f0e;stroke:#ffffff;" x="205.466669" xlink:href="#mf161a58381" y="90.690522"/>
     <use style="fill:#ff7f0e;stroke:#ffffff;" x="211.003208" xlink:href="#mf161a58381" y="83.6396"/>
     <use style="fill:#ff7f0e;stroke:#ffffff;" x="208.076635" xlink:href="#mf161a58381" y="96.894543"/>
     <use style="fill:#ff7f0e;stroke:#ffffff;" x="206.295016" xlink:href="#mf161a58381" y="96.201562"/>
     <use style="fill:#ff7f0e;stroke:#ffffff;" x="191.287042" xlink:href="#mf161a58381" y="101.743039"/>
     <use style="fill:#ff7f0e;stroke:#ffffff;" x="192.208219" xlink:href="#mf161a58381" y="101.636667"/>
     <use style="fill:#ff7f0e;stroke:#ffffff;" x="190.239649" xlink:href="#mf161a58381" y="102.423315"/>
     <use style="fill:#ff7f0e;stroke:#ffffff;" x="193.965004" xlink:href="#mf161a58381" y="98.316077"/>
     <use style="fill:#ff7f0e;stroke:#ffffff;" x="195.312209" xlink:href="#mf161a58381" y="99.419382"/>
     <use style="fill:#ff7f0e;stroke:#ffffff;" x="193.364044" xlink:href="#mf161a58381" y="94.611735"/>
     <use style="fill:#ff7f0e;stroke:#ffffff;" x="205.049798" xlink:href="#mf161a58381" y="93.741328"/>
     <use style="fill:#ff7f0e;stroke:#ffffff;" x="206.066089" xlink:href="#mf161a58381" y="86.119162"/>
     <use style="fill:#ff7f0e;stroke:#ffffff;" x="200.988861" xlink:href="#mf161a58381" y="89.026404"/>
     <use style="fill:#ff7f0e;stroke:#ffffff;" x="205.485073" xlink:href="#mf161a58381" y="83.552654"/>
     <use style="fill:#ff7f0e;stroke:#ffffff;" x="210.443309" xlink:href="#mf161a58381" y="79.681796"/>
     <use style="fill:#ff7f0e;stroke:#ffffff;" x="212.191442" xlink:href="#mf161a58381" y="77.366893"/>
     <use style="fill:#ff7f0e;stroke:#ffffff;" x="210.313901" xlink:href="#mf161a58381" y="76.410644"/>
     <use style="fill:#ff7f0e;stroke:#ffffff;" x="210.473314" xlink:href="#mf161a58381" y="76.667846"/>
     <use style="fill:#ff7f0e;stroke:#ffffff;" x="206.489945" xlink:href="#mf161a58381" y="87.334213"/>
     <use style="fill:#ff7f0e;stroke:#ffffff;" x="193.997591" xlink:href="#mf161a58381" y="97.564821"/>
     <use style="fill:#ff7f0e;stroke:#ffffff;" x="199.793111" xlink:href="#mf161a58381" y="94.234497"/>
     <use style="fill:#ff7f0e;stroke:#ffffff;" x="203.06856" xlink:href="#mf161a58381" y="90.047761"/>
     <use style="fill:#ff7f0e;stroke:#ffffff;" x="194.124664" xlink:href="#mf161a58381" y="97.228013"/>
     <use style="fill:#ff7f0e;stroke:#ffffff;" x="193.140632" xlink:href="#mf161a58381" y="99.387099"/>
     <use style="fill:#ff7f0e;stroke:#ffffff;" x="195.068241" xlink:href="#mf161a58381" y="98.950556"/>
     <use style="fill:#ff7f0e;stroke:#ffffff;" x="194.27302" xlink:href="#mf161a58381" y="98.160149"/>
     <use style="fill:#ff7f0e;stroke:#ffffff;" x="199.257537" xlink:href="#mf161a58381" y="94.845513"/>
     <use style="fill:#ff7f0e;stroke:#ffffff;" x="193.918202" xlink:href="#mf161a58381" y="98.381699"/>
     <use style="fill:#ff7f0e;stroke:#ffffff;" x="208.18946" xlink:href="#mf161a58381" y="90.136732"/>
     <use style="fill:#ff7f0e;stroke:#ffffff;" x="207.065118" xlink:href="#mf161a58381" y="88.955072"/>
     <use style="fill:#ff7f0e;stroke:#ffffff;" x="210.98456" xlink:href="#mf161a58381" y="88.529674"/>
     <use style="fill:#ff7f0e;stroke:#ffffff;" x="204.255397" xlink:href="#mf161a58381" y="90.10778"/>
     <use style="fill:#ff7f0e;stroke:#ffffff;" x="203.52451" xlink:href="#mf161a58381" y="91.392907"/>
     <use style="fill:#ff7f0e;stroke:#ffffff;" x="196.310676" xlink:href="#mf161a58381" y="98.920225"/>
     <use style="fill:#ff7f0e;stroke:#ffffff;" x="196.013566" xlink:href="#mf161a58381" y="99.270672"/>
     <use style="fill:#ff7f0e;stroke:#ffffff;" x="196.705213" xlink:href="#mf161a58381" y="99.403392"/>
     <use style="fill:#ff7f0e;stroke:#ffffff;" x="192.824078" xlink:href="#mf161a58381" y="100.779646"/>
     <use style="fill:#ff7f0e;stroke:#ffffff;" x="194.254411" xlink:href="#mf161a58381" y="99.622695"/>
     <use style="fill:#ff7f0e;stroke:#ffffff;" x="201.709804" xlink:href="#mf161a58381" y="100.700033"/>
     <use style="fill:#ff7f0e;stroke:#ffffff;" x="195.776863" xlink:href="#mf161a58381" y="91.009535"/>
     <use style="fill:#ff7f0e;stroke:#ffffff;" x="200.274288" xlink:href="#mf161a58381" y="87.979606"/>
     <use style="fill:#ff7f0e;stroke:#ffffff;" x="197.273995" xlink:href="#mf161a58381" y="91.423452"/>
     <use style="fill:#ff7f0e;stroke:#ffffff;" x="200.775391" xlink:href="#mf161a58381" y="92.141925"/>
     <use style="fill:#ff7f0e;stroke:#ffffff;" x="201.106998" xlink:href="#mf161a58381" y="90.434947"/>
     <use style="fill:#ff7f0e;stroke:#ffffff;" x="226.857039" xlink:href="#mf161a58381" y="68.098815"/>
     <use style="fill:#ff7f0e;stroke:#ffffff;" x="232.098836" xlink:href="#mf161a58381" y="70.485294"/>
     <use style="fill:#ff7f0e;stroke:#ffffff;" x="233.309826" xlink:href="#mf161a58381" y="73.523618"/>
     <use style="fill:#ff7f0e;stroke:#ffffff;" x="267.580489" xlink:href="#mf161a58381" y="32.126658"/>
     <use style="fill:#ff7f0e;stroke:#ffffff;" x="249.690599" xlink:href="#mf161a58381" y="37.582581"/>
     <use style="fill:#ff7f0e;stroke:#ffffff;" x="267.655351" xlink:href="#mf161a58381" y="34.511568"/>
     <use style="fill:#ff7f0e;stroke:#ffffff;" x="213.185017" xlink:href="#mf161a58381" y="71.539044"/>
     <use style="fill:#ff7f0e;stroke:#ffffff;" x="219.444242" xlink:href="#mf161a58381" y="74.427224"/>
     <use style="fill:#ff7f0e;stroke:#ffffff;" x="221.401313" xlink:href="#mf161a58381" y="84.037339"/>
     <use style="fill:#ff7f0e;stroke:#ffffff;" x="218.805831" xlink:href="#mf161a58381" y="89.511996"/>
     <use style="fill:#ff7f0e;stroke:#ffffff;" x="235.755112" xlink:href="#mf161a58381" y="33.319758"/>
     <use style="fill:#ff7f0e;stroke:#ffffff;" x="235.294505" xlink:href="#mf161a58381" y="66.47993"/>
    </g>
   </g>
   <g id="matplotlib.axis_3">
    <g id="xtick_3">
     <g id="line2d_8">
      <g>
       <use style="stroke:#000000;stroke-width:0.8;" x="187.796691" xlink:href="#m2d43c66eea" y="109.96"/>
      </g>
     </g>
     <g id="text_10">
      <!-- 0 -->
      <g transform="translate(185.251691 123.03875)scale(0.08 -0.08)">
       <use xlink:href="#DejaVuSans-48"/>
      </g>
     </g>
    </g>
    <g id="xtick_4">
     <g id="line2d_9">
      <g>
       <use style="stroke:#000000;stroke-width:0.8;" x="226.374959" xlink:href="#m2d43c66eea" y="109.96"/>
      </g>
     </g>
     <g id="text_11">
      <!-- 10 -->
      <g transform="translate(221.284959 123.03875)scale(0.08 -0.08)">
       <use xlink:href="#DejaVuSans-49"/>
       <use x="63.623047" xlink:href="#DejaVuSans-48"/>
      </g>
     </g>
    </g>
    <g id="xtick_5">
     <g id="line2d_10">
      <g>
       <use style="stroke:#000000;stroke-width:0.8;" x="264.953228" xlink:href="#m2d43c66eea" y="109.96"/>
      </g>
     </g>
     <g id="text_12">
      <!-- 20 -->
      <g transform="translate(259.863228 123.03875)scale(0.08 -0.08)">
       <defs>
        <path d="M 19.1875 8.296875 
L 53.609375 8.296875 
L 53.609375 0 
L 7.328125 0 
L 7.328125 8.296875 
Q 12.9375 14.109375 22.625 23.890625 
Q 32.328125 33.6875 34.8125 36.53125 
Q 39.546875 41.84375 41.421875 45.53125 
Q 43.3125 49.21875 43.3125 52.78125 
Q 43.3125 58.59375 39.234375 62.25 
Q 35.15625 65.921875 28.609375 65.921875 
Q 23.96875 65.921875 18.8125 64.3125 
Q 13.671875 62.703125 7.8125 59.421875 
L 7.8125 69.390625 
Q 13.765625 71.78125 18.9375 73 
Q 24.125 74.21875 28.421875 74.21875 
Q 39.75 74.21875 46.484375 68.546875 
Q 53.21875 62.890625 53.21875 53.421875 
Q 53.21875 48.921875 51.53125 44.890625 
Q 49.859375 40.875 45.40625 35.40625 
Q 44.1875 33.984375 37.640625 27.21875 
Q 31.109375 20.453125 19.1875 8.296875 
z
" id="DejaVuSans-50"/>
       </defs>
       <use xlink:href="#DejaVuSans-50"/>
       <use x="63.623047" xlink:href="#DejaVuSans-48"/>
      </g>
     </g>
    </g>
    <g id="text_13">
     <!-- Passive -->
     <g transform="translate(214.156875 134.78125)scale(0.08 -0.08)">
      <use xlink:href="#DejaVuSans-80"/>
      <use x="55.802734" xlink:href="#DejaVuSans-97"/>
      <use x="117.082031" xlink:href="#DejaVuSans-115"/>
      <use x="169.181641" xlink:href="#DejaVuSans-115"/>
      <use x="221.28125" xlink:href="#DejaVuSans-105"/>
      <use x="249.064453" xlink:href="#DejaVuSans-118"/>
      <use x="308.244141" xlink:href="#DejaVuSans-101"/>
     </g>
    </g>
   </g>
   <g id="matplotlib.axis_4">
    <g id="ytick_5">
     <g id="line2d_11">
      <g>
       <use style="stroke:#000000;stroke-width:0.8;" x="182.111" xlink:href="#m2feb0caaee" y="104.655063"/>
      </g>
     </g>
     <g id="text_14">
      <!-- 0 -->
      <g transform="translate(170.021 107.694438)scale(0.08 -0.08)">
       <use xlink:href="#DejaVuSans-48"/>
      </g>
     </g>
    </g>
    <g id="ytick_6">
     <g id="line2d_12">
      <g>
       <use style="stroke:#000000;stroke-width:0.8;" x="182.111" xlink:href="#m2feb0caaee" y="86.657664"/>
      </g>
     </g>
     <g id="text_15">
      <!-- 5 -->
      <g transform="translate(170.021 89.697039)scale(0.08 -0.08)">
       <use xlink:href="#DejaVuSans-53"/>
      </g>
     </g>
    </g>
    <g id="ytick_7">
     <g id="line2d_13">
      <g>
       <use style="stroke:#000000;stroke-width:0.8;" x="182.111" xlink:href="#m2feb0caaee" y="68.660266"/>
      </g>
     </g>
     <g id="text_16">
      <!-- 10 -->
      <g transform="translate(164.931 71.699641)scale(0.08 -0.08)">
       <use xlink:href="#DejaVuSans-49"/>
       <use x="63.623047" xlink:href="#DejaVuSans-48"/>
      </g>
     </g>
    </g>
    <g id="ytick_8">
     <g id="line2d_14">
      <g>
       <use style="stroke:#000000;stroke-width:0.8;" x="182.111" xlink:href="#m2feb0caaee" y="50.662867"/>
      </g>
     </g>
     <g id="text_17">
      <!-- 15 -->
      <g transform="translate(164.931 53.702242)scale(0.08 -0.08)">
       <use xlink:href="#DejaVuSans-49"/>
       <use x="63.623047" xlink:href="#DejaVuSans-53"/>
      </g>
     </g>
    </g>
    <g id="ytick_9">
     <g id="line2d_15">
      <g>
       <use style="stroke:#000000;stroke-width:0.8;" x="182.111" xlink:href="#m2feb0caaee" y="32.665468"/>
      </g>
     </g>
     <g id="text_18">
      <!-- 20 -->
      <g transform="translate(164.931 35.704843)scale(0.08 -0.08)">
       <use xlink:href="#DejaVuSans-50"/>
       <use x="63.623047" xlink:href="#DejaVuSans-48"/>
      </g>
     </g>
    </g>
    <g id="text_19">
     <!-- Active -->
     <g transform="translate(159.26725 78.63375)rotate(-90)scale(0.08 -0.08)">
      <use xlink:href="#DejaVuSans-65"/>
      <use x="66.658203" xlink:href="#DejaVuSans-99"/>
      <use x="121.638672" xlink:href="#DejaVuSans-116"/>
      <use x="160.847656" xlink:href="#DejaVuSans-105"/>
      <use x="188.630859" xlink:href="#DejaVuSans-118"/>
      <use x="247.810547" xlink:href="#DejaVuSans-101"/>
     </g>
    </g>
   </g>
   <g id="line2d_16">
    <path clip-path="url(#p76a6265183)" d="M 186.368864 105.987273 
L 271.526136 26.532727 
" style="fill:none;stroke:#808080;stroke-dasharray:5.55,2.4;stroke-dashoffset:0;stroke-width:1.5;"/>
   </g>
   <g id="patch_6">
    <path d="M 182.111 109.96 
L 182.111 22.56 
" style="fill:none;stroke:#000000;stroke-linecap:square;stroke-linejoin:miter;stroke-width:0.8;"/>
   </g>
   <g id="patch_7">
    <path d="M 182.111 109.96 
L 275.784 109.96 
" style="fill:none;stroke:#000000;stroke-linecap:square;stroke-linejoin:miter;stroke-width:0.8;"/>
   </g>
   <g id="text_20">
    <!-- Shared noise variance -->
    <g transform="translate(175.56775 16.56)scale(0.096 -0.096)">
     <defs>
      <path d="M 54.890625 33.015625 
L 54.890625 0 
L 45.90625 0 
L 45.90625 32.71875 
Q 45.90625 40.484375 42.875 44.328125 
Q 39.84375 48.1875 33.796875 48.1875 
Q 26.515625 48.1875 22.3125 43.546875 
Q 18.109375 38.921875 18.109375 30.90625 
L 18.109375 0 
L 9.078125 0 
L 9.078125 75.984375 
L 18.109375 75.984375 
L 18.109375 46.1875 
Q 21.34375 51.125 25.703125 53.5625 
Q 30.078125 56 35.796875 56 
Q 45.21875 56 50.046875 50.171875 
Q 54.890625 44.34375 54.890625 33.015625 
z
" id="DejaVuSans-104"/>
      <path d="M 41.109375 46.296875 
Q 39.59375 47.171875 37.8125 47.578125 
Q 36.03125 48 33.890625 48 
Q 26.265625 48 22.1875 43.046875 
Q 18.109375 38.09375 18.109375 28.8125 
L 18.109375 0 
L 9.078125 0 
L 9.078125 54.6875 
L 18.109375 54.6875 
L 18.109375 46.1875 
Q 20.953125 51.171875 25.484375 53.578125 
Q 30.03125 56 36.53125 56 
Q 37.453125 56 38.578125 55.875 
Q 39.703125 55.765625 41.0625 55.515625 
z
" id="DejaVuSans-114"/>
      <path d="M 30.609375 48.390625 
Q 23.390625 48.390625 19.1875 42.75 
Q 14.984375 37.109375 14.984375 27.296875 
Q 14.984375 17.484375 19.15625 11.84375 
Q 23.34375 6.203125 30.609375 6.203125 
Q 37.796875 6.203125 41.984375 11.859375 
Q 46.1875 17.53125 46.1875 27.296875 
Q 46.1875 37.015625 41.984375 42.703125 
Q 37.796875 48.390625 30.609375 48.390625 
z
M 30.609375 56 
Q 42.328125 56 49.015625 48.375 
Q 55.71875 40.765625 55.71875 27.296875 
Q 55.71875 13.875 49.015625 6.21875 
Q 42.328125 -1.421875 30.609375 -1.421875 
Q 18.84375 -1.421875 12.171875 6.21875 
Q 5.515625 13.875 5.515625 27.296875 
Q 5.515625 40.765625 12.171875 48.375 
Q 18.84375 56 30.609375 56 
z
" id="DejaVuSans-111"/>
     </defs>
     <use xlink:href="#DejaVuSans-83"/>
     <use x="63.476562" xlink:href="#DejaVuSans-104"/>
     <use x="126.855469" xlink:href="#DejaVuSans-97"/>
     <use x="188.134766" xlink:href="#DejaVuSans-114"/>
     <use x="226.998047" xlink:href="#DejaVuSans-101"/>
     <use x="288.521484" xlink:href="#DejaVuSans-100"/>
     <use x="351.998047" xlink:href="#DejaVuSans-32"/>
     <use x="383.785156" xlink:href="#DejaVuSans-110"/>
     <use x="447.164062" xlink:href="#DejaVuSans-111"/>
     <use x="508.345703" xlink:href="#DejaVuSans-105"/>
     <use x="536.128906" xlink:href="#DejaVuSans-115"/>
     <use x="588.228516" xlink:href="#DejaVuSans-101"/>
     <use x="649.751953" xlink:href="#DejaVuSans-32"/>
     <use x="681.539062" xlink:href="#DejaVuSans-118"/>
     <use x="740.71875" xlink:href="#DejaVuSans-97"/>
     <use x="801.998047" xlink:href="#DejaVuSans-114"/>
     <use x="843.111328" xlink:href="#DejaVuSans-105"/>
     <use x="870.894531" xlink:href="#DejaVuSans-97"/>
     <use x="932.173828" xlink:href="#DejaVuSans-110"/>
     <use x="995.552734" xlink:href="#DejaVuSans-99"/>
     <use x="1050.533203" xlink:href="#DejaVuSans-101"/>
    </g>
   </g>
  </g>
  <g id="axes_3">
   <g id="patch_8">
    <path d="M 327.122 109.96 
L 348.2895 109.96 
L 348.2895 22.56 
L 327.122 22.56 
z
" style="fill:#ffffff;"/>
   </g>
   <g id="matplotlib.axis_5">
    <g id="xtick_6">
     <g id="line2d_17">
      <g>
       <use style="stroke:#000000;stroke-width:0.8;" x="327.122" xlink:href="#m2d43c66eea" y="109.96"/>
      </g>
     </g>
     <g id="text_21">
      <!-- −0.5 -->
      <g transform="translate(317.408875 123.03875)scale(0.08 -0.08)">
       <defs>
        <path d="M 10.59375 35.5 
L 73.1875 35.5 
L 73.1875 27.203125 
L 10.59375 27.203125 
z
" id="DejaVuSans-8722"/>
        <path d="M 10.6875 12.40625 
L 21 12.40625 
L 21 0 
L 10.6875 0 
z
" id="DejaVuSans-46"/>
       </defs>
       <use xlink:href="#DejaVuSans-8722"/>
       <use x="83.789062" xlink:href="#DejaVuSans-48"/>
       <use x="147.412109" xlink:href="#DejaVuSans-46"/>
       <use x="179.199219" xlink:href="#DejaVuSans-53"/>
      </g>
     </g>
    </g>
    <g id="xtick_7">
     <g id="line2d_18">
      <g>
       <use style="stroke:#000000;stroke-width:0.8;" x="337.70575" xlink:href="#m2d43c66eea" y="109.96"/>
      </g>
     </g>
     <g id="text_22">
      <!-- 0.0 -->
      <g transform="translate(331.3445 123.03875)scale(0.08 -0.08)">
       <use xlink:href="#DejaVuSans-48"/>
       <use x="63.623047" xlink:href="#DejaVuSans-46"/>
       <use x="95.410156" xlink:href="#DejaVuSans-48"/>
      </g>
     </g>
    </g>
    <g id="xtick_8">
     <g id="line2d_19">
      <g>
       <use style="stroke:#000000;stroke-width:0.8;" x="348.2895" xlink:href="#m2d43c66eea" y="109.96"/>
      </g>
     </g>
     <g id="text_23">
      <!-- 0.5 -->
      <g transform="translate(341.92825 123.03875)scale(0.08 -0.08)">
       <use xlink:href="#DejaVuSans-48"/>
       <use x="63.623047" xlink:href="#DejaVuSans-46"/>
       <use x="95.410156" xlink:href="#DejaVuSans-53"/>
      </g>
     </g>
    </g>
   </g>
   <g id="matplotlib.axis_6">
    <g id="ytick_10">
     <g id="line2d_20">
      <g>
       <use style="stroke:#000000;stroke-width:0.8;" x="327.122" xlink:href="#m2feb0caaee" y="97.390162"/>
      </g>
     </g>
     <g id="text_24">
      <!-- −0.25 -->
      <g transform="translate(295.60575 100.429537)scale(0.08 -0.08)">
       <use xlink:href="#DejaVuSans-8722"/>
       <use x="83.789062" xlink:href="#DejaVuSans-48"/>
       <use x="147.412109" xlink:href="#DejaVuSans-46"/>
       <use x="179.199219" xlink:href="#DejaVuSans-50"/>
       <use x="242.822266" xlink:href="#DejaVuSans-53"/>
      </g>
     </g>
    </g>
    <g id="ytick_11">
     <g id="line2d_21">
      <g>
       <use style="stroke:#000000;stroke-width:0.8;" x="327.122" xlink:href="#m2feb0caaee" y="76.698898"/>
      </g>
     </g>
     <g id="text_25">
      <!-- 0.00 -->
      <g transform="translate(302.3095 79.738273)scale(0.08 -0.08)">
       <use xlink:href="#DejaVuSans-48"/>
       <use x="63.623047" xlink:href="#DejaVuSans-46"/>
       <use x="95.410156" xlink:href="#DejaVuSans-48"/>
       <use x="159.033203" xlink:href="#DejaVuSans-48"/>
      </g>
     </g>
    </g>
    <g id="ytick_12">
     <g id="line2d_22">
      <g>
       <use style="stroke:#000000;stroke-width:0.8;" x="327.122" xlink:href="#m2feb0caaee" y="56.007634"/>
      </g>
     </g>
     <g id="text_26">
      <!-- 0.25 -->
      <g transform="translate(302.3095 59.047009)scale(0.08 -0.08)">
       <use xlink:href="#DejaVuSans-48"/>
       <use x="63.623047" xlink:href="#DejaVuSans-46"/>
       <use x="95.410156" xlink:href="#DejaVuSans-50"/>
       <use x="159.033203" xlink:href="#DejaVuSans-53"/>
      </g>
     </g>
    </g>
    <g id="ytick_13">
     <g id="line2d_23">
      <g>
       <use style="stroke:#000000;stroke-width:0.8;" x="327.122" xlink:href="#m2feb0caaee" y="35.31637"/>
      </g>
     </g>
     <g id="text_27">
      <!-- 0.50 -->
      <g transform="translate(302.3095 38.355745)scale(0.08 -0.08)">
       <use xlink:href="#DejaVuSans-48"/>
       <use x="63.623047" xlink:href="#DejaVuSans-46"/>
       <use x="95.410156" xlink:href="#DejaVuSans-53"/>
       <use x="159.033203" xlink:href="#DejaVuSans-48"/>
      </g>
     </g>
    </g>
    <g id="text_28">
     <!-- $cv\beta$ weight -->
     <g transform="translate(289.92575 88.14)rotate(-90)scale(0.08 -0.08)">
      <defs>
       <path d="M 53.609375 52.59375 
L 51.8125 43.703125 
Q 48.578125 46.046875 44.9375 47.21875 
Q 41.3125 48.390625 37.40625 48.390625 
Q 33.109375 48.390625 29.21875 46.875 
Q 25.34375 45.359375 22.703125 42.578125 
Q 18.5 38.328125 16.203125 32.609375 
Q 13.921875 26.90625 13.921875 20.796875 
Q 13.921875 13.421875 17.609375 9.8125 
Q 21.296875 6.203125 28.8125 6.203125 
Q 32.515625 6.203125 36.6875 7.328125 
Q 40.875 8.453125 45.40625 10.6875 
L 43.703125 1.8125 
Q 39.796875 0.203125 35.671875 -0.609375 
Q 31.546875 -1.421875 27.203125 -1.421875 
Q 16.3125 -1.421875 10.453125 4.015625 
Q 4.59375 9.46875 4.59375 19.578125 
Q 4.59375 28.078125 7.640625 35.234375 
Q 10.6875 42.390625 16.703125 48.09375 
Q 20.796875 52 26.3125 54 
Q 31.84375 56 38.375 56 
Q 42.1875 56 45.9375 55.140625 
Q 49.703125 54.296875 53.609375 52.59375 
z
" id="DejaVuSans-Oblique-99"/>
       <path d="M 7.171875 54.6875 
L 16.703125 54.6875 
L 24.703125 8.203125 
L 50.875 54.6875 
L 60.40625 54.6875 
L 29.296875 0 
L 17.1875 0 
z
" id="DejaVuSans-Oblique-118"/>
       <path d="M 13.625 3.375 
L 8.9375 -20.796875 
L -0.09375 -20.796875 
L 14.5 54.34375 
Q 18.84375 76.609375 39.65625 76.609375 
Q 60.75 76.609375 57.171875 57.8125 
Q 54.734375 44.4375 45.21875 39.546875 
Q 58.015625 35.15625 55.515625 22.125 
Q 51.125 -1.078125 27.484375 -1.03125 
Q 17.140625 -0.984375 13.625 3.375 
z
M 15.921875 15.09375 
Q 19.671875 6.59375 29.296875 6.640625 
Q 43.359375 6.640625 46.34375 21.96875 
Q 49.03125 35.75 26.171875 34.671875 
L 27.78125 42.96875 
Q 45.453125 42.671875 48.53125 58.59375 
Q 50.640625 69.34375 39.203125 69.28125 
Q 26.421875 69.28125 23.484375 54.046875 
z
" id="DejaVuSans-Oblique-946"/>
       <path d="M 4.203125 54.6875 
L 13.1875 54.6875 
L 24.421875 12.015625 
L 35.59375 54.6875 
L 46.1875 54.6875 
L 57.421875 12.015625 
L 68.609375 54.6875 
L 77.59375 54.6875 
L 63.28125 0 
L 52.6875 0 
L 40.921875 44.828125 
L 29.109375 0 
L 18.5 0 
z
" id="DejaVuSans-119"/>
      </defs>
      <use transform="translate(0 0.390625)" xlink:href="#DejaVuSans-Oblique-99"/>
      <use transform="translate(54.980469 0.390625)" xlink:href="#DejaVuSans-Oblique-118"/>
      <use transform="translate(114.160156 0.390625)" xlink:href="#DejaVuSans-Oblique-946"/>
      <use transform="translate(177.978516 0.390625)" xlink:href="#DejaVuSans-32"/>
      <use transform="translate(209.765625 0.390625)" xlink:href="#DejaVuSans-119"/>
      <use transform="translate(291.552734 0.390625)" xlink:href="#DejaVuSans-101"/>
      <use transform="translate(353.076172 0.390625)" xlink:href="#DejaVuSans-105"/>
      <use transform="translate(380.859375 0.390625)" xlink:href="#DejaVuSans-103"/>
      <use transform="translate(444.335938 0.390625)" xlink:href="#DejaVuSans-104"/>
      <use transform="translate(507.714844 0.390625)" xlink:href="#DejaVuSans-116"/>
     </g>
    </g>
   </g>
   <g id="LineCollection_1">
    <path clip-path="url(#pa20ef265b9)" d="M 342.997625 105.987273 
L 342.997625 87.661774 
" style="fill:none;stroke:#ff7f0e;"/>
   </g>
   <g id="LineCollection_2">
    <path clip-path="url(#pa20ef265b9)" d="M 332.413875 55.46596 
L 332.413875 26.532727 
" style="fill:none;stroke:#1f77b4;"/>
   </g>
   <g id="line2d_24">
    <defs>
     <path d="M 2 0 
L -2 -0 
" id="m8ef3305773" style="stroke:#ff7f0e;"/>
    </defs>
    <g clip-path="url(#pa20ef265b9)">
     <use style="fill:#ff7f0e;stroke:#ff7f0e;" x="342.997625" xlink:href="#m8ef3305773" y="105.987273"/>
    </g>
   </g>
   <g id="line2d_25">
    <g clip-path="url(#pa20ef265b9)">
     <use style="fill:#ff7f0e;stroke:#ff7f0e;" x="342.997625" xlink:href="#m8ef3305773" y="87.661774"/>
    </g>
   </g>
   <g id="line2d_26">
    <defs>
     <path d="M 2 0 
L -2 -0 
" id="m0481fdc1e9" style="stroke:#1f77b4;"/>
    </defs>
    <g clip-path="url(#pa20ef265b9)">
     <use style="fill:#1f77b4;stroke:#1f77b4;" x="332.413875" xlink:href="#m0481fdc1e9" y="55.46596"/>
    </g>
   </g>
   <g id="line2d_27">
    <g clip-path="url(#pa20ef265b9)">
     <use style="fill:#1f77b4;stroke:#1f77b4;" x="332.413875" xlink:href="#m0481fdc1e9" y="26.532727"/>
    </g>
   </g>
   <g id="line2d_28">
    <path clip-path="url(#pa20ef265b9)" d="M 327.122 76.698898 
L 348.2895 76.698898 
" style="fill:none;stroke:#808080;stroke-dasharray:5.55,2.4;stroke-dashoffset:0;stroke-width:1.5;"/>
   </g>
   <g id="line2d_29">
    <path clip-path="url(#pa20ef265b9)" d="M 342.997625 97.171283 
" style="fill:none;"/>
    <defs>
     <path d="M 0 3 
C 0.795609 3 1.55874 2.683901 2.12132 2.12132 
C 2.683901 1.55874 3 0.795609 3 0 
C 3 -0.795609 2.683901 -1.55874 2.12132 -2.12132 
C 1.55874 -2.683901 0.795609 -3 0 -3 
C -0.795609 -3 -1.55874 -2.683901 -2.12132 -2.12132 
C -2.683901 -1.55874 -3 -0.795609 -3 0 
C -3 0.795609 -2.683901 1.55874 -2.12132 2.12132 
C -1.55874 2.683901 -0.795609 3 0 3 
z
" id="mbe13757ada" style="stroke:#ff7f0e;"/>
    </defs>
    <g clip-path="url(#pa20ef265b9)">
     <use style="fill:#ff7f0e;stroke:#ff7f0e;" x="342.997625" xlink:href="#mbe13757ada" y="97.171283"/>
    </g>
   </g>
   <g id="line2d_30">
    <path clip-path="url(#pa20ef265b9)" d="M 332.413875 39.7518 
" style="fill:none;"/>
    <defs>
     <path d="M 0 3 
C 0.795609 3 1.55874 2.683901 2.12132 2.12132 
C 2.683901 1.55874 3 0.795609 3 0 
C 3 -0.795609 2.683901 -1.55874 2.12132 -2.12132 
C 1.55874 -2.683901 0.795609 -3 0 -3 
C -0.795609 -3 -1.55874 -2.683901 -2.12132 -2.12132 
C -2.683901 -1.55874 -3 -0.795609 -3 0 
C -3 0.795609 -2.683901 1.55874 -2.12132 2.12132 
C -1.55874 2.683901 -0.795609 3 0 3 
z
" id="m5a0105de55" style="stroke:#1f77b4;"/>
    </defs>
    <g clip-path="url(#pa20ef265b9)">
     <use style="fill:#1f77b4;stroke:#1f77b4;" x="332.413875" xlink:href="#m5a0105de55" y="39.7518"/>
    </g>
   </g>
   <g id="patch_9">
    <path d="M 327.122 109.96 
L 327.122 22.56 
" style="fill:none;stroke:#000000;stroke-linecap:square;stroke-linejoin:miter;stroke-width:0.8;"/>
   </g>
   <g id="patch_10">
    <path d="M 327.122 109.96 
L 348.2895 109.96 
" style="fill:none;stroke:#000000;stroke-linecap:square;stroke-linejoin:miter;stroke-width:0.8;"/>
   </g>
  </g>
  <g id="axes_4">
   <g id="patch_11">
    <path d="M 399.6275 109.96 
L 420.795 109.96 
L 420.795 22.56 
L 399.6275 22.56 
z
" style="fill:#ffffff;"/>
   </g>
   <g id="patch_12">
    <path clip-path="url(#pcc99414450)" d="M 412.857188 100.248889 
L 418.149063 100.248889 
L 418.149063 81.891907 
L 412.857188 81.891907 
z
" style="fill:#ff7f0e;stroke:#000000;stroke-linejoin:miter;"/>
   </g>
   <g id="patch_13">
    <path clip-path="url(#pcc99414450)" d="M 402.273438 100.248889 
L 407.565313 100.248889 
L 407.565313 58.43143 
L 402.273438 58.43143 
z
" style="fill:#1f77b4;stroke:#000000;stroke-linejoin:miter;"/>
   </g>
   <g id="matplotlib.axis_7">
    <g id="xtick_9">
     <g id="line2d_31">
      <g>
       <use style="stroke:#000000;stroke-width:0.8;" x="399.6275" xlink:href="#m2d43c66eea" y="109.96"/>
      </g>
     </g>
     <g id="text_29">
      <!-- −1 -->
      <g transform="translate(393.730625 123.03875)scale(0.08 -0.08)">
       <use xlink:href="#DejaVuSans-8722"/>
       <use x="83.789062" xlink:href="#DejaVuSans-49"/>
      </g>
     </g>
    </g>
    <g id="xtick_10">
     <g id="line2d_32">
      <g>
       <use style="stroke:#000000;stroke-width:0.8;" x="410.21125" xlink:href="#m2d43c66eea" y="109.96"/>
      </g>
     </g>
     <g id="text_30">
      <!-- 0 -->
      <g transform="translate(407.66625 123.03875)scale(0.08 -0.08)">
       <use xlink:href="#DejaVuSans-48"/>
      </g>
     </g>
    </g>
    <g id="xtick_11">
     <g id="line2d_33">
      <g>
       <use style="stroke:#000000;stroke-width:0.8;" x="420.795" xlink:href="#m2d43c66eea" y="109.96"/>
      </g>
     </g>
     <g id="text_31">
      <!-- 1 -->
      <g transform="translate(418.25 123.03875)scale(0.08 -0.08)">
       <use xlink:href="#DejaVuSans-49"/>
      </g>
     </g>
    </g>
   </g>
   <g id="matplotlib.axis_8">
    <g id="ytick_14">
     <g id="line2d_34">
      <g>
       <use style="stroke:#000000;stroke-width:0.8;" x="399.6275" xlink:href="#m2feb0caaee" y="100.248889"/>
      </g>
     </g>
     <g id="text_32">
      <!-- 0.0 -->
      <g transform="translate(379.905 103.288264)scale(0.08 -0.08)">
       <use xlink:href="#DejaVuSans-48"/>
       <use x="63.623047" xlink:href="#DejaVuSans-46"/>
       <use x="95.410156" xlink:href="#DejaVuSans-48"/>
      </g>
     </g>
    </g>
    <g id="ytick_15">
     <g id="line2d_35">
      <g>
       <use style="stroke:#000000;stroke-width:0.8;" x="399.6275" xlink:href="#m2feb0caaee" y="80.826667"/>
      </g>
     </g>
     <g id="text_33">
      <!-- 0.1 -->
      <g transform="translate(379.905 83.866042)scale(0.08 -0.08)">
       <use xlink:href="#DejaVuSans-48"/>
       <use x="63.623047" xlink:href="#DejaVuSans-46"/>
       <use x="95.410156" xlink:href="#DejaVuSans-49"/>
      </g>
     </g>
    </g>
    <g id="ytick_16">
     <g id="line2d_36">
      <g>
       <use style="stroke:#000000;stroke-width:0.8;" x="399.6275" xlink:href="#m2feb0caaee" y="61.404444"/>
      </g>
     </g>
     <g id="text_34">
      <!-- 0.2 -->
      <g transform="translate(379.905 64.443819)scale(0.08 -0.08)">
       <use xlink:href="#DejaVuSans-48"/>
       <use x="63.623047" xlink:href="#DejaVuSans-46"/>
       <use x="95.410156" xlink:href="#DejaVuSans-50"/>
      </g>
     </g>
    </g>
    <g id="ytick_17">
     <g id="line2d_37">
      <g>
       <use style="stroke:#000000;stroke-width:0.8;" x="399.6275" xlink:href="#m2feb0caaee" y="41.982222"/>
      </g>
     </g>
     <g id="text_35">
      <!-- 0.3 -->
      <g transform="translate(379.905 45.021597)scale(0.08 -0.08)">
       <defs>
        <path d="M 40.578125 39.3125 
Q 47.65625 37.796875 51.625 33 
Q 55.609375 28.21875 55.609375 21.1875 
Q 55.609375 10.40625 48.1875 4.484375 
Q 40.765625 -1.421875 27.09375 -1.421875 
Q 22.515625 -1.421875 17.65625 -0.515625 
Q 12.796875 0.390625 7.625 2.203125 
L 7.625 11.71875 
Q 11.71875 9.328125 16.59375 8.109375 
Q 21.484375 6.890625 26.8125 6.890625 
Q 36.078125 6.890625 40.9375 10.546875 
Q 45.796875 14.203125 45.796875 21.1875 
Q 45.796875 27.640625 41.28125 31.265625 
Q 36.765625 34.90625 28.71875 34.90625 
L 20.21875 34.90625 
L 20.21875 43.015625 
L 29.109375 43.015625 
Q 36.375 43.015625 40.234375 45.921875 
Q 44.09375 48.828125 44.09375 54.296875 
Q 44.09375 59.90625 40.109375 62.90625 
Q 36.140625 65.921875 28.71875 65.921875 
Q 24.65625 65.921875 20.015625 65.03125 
Q 15.375 64.15625 9.8125 62.3125 
L 9.8125 71.09375 
Q 15.4375 72.65625 20.34375 73.4375 
Q 25.25 74.21875 29.59375 74.21875 
Q 40.828125 74.21875 47.359375 69.109375 
Q 53.90625 64.015625 53.90625 55.328125 
Q 53.90625 49.265625 50.4375 45.09375 
Q 46.96875 40.921875 40.578125 39.3125 
z
" id="DejaVuSans-51"/>
       </defs>
       <use xlink:href="#DejaVuSans-48"/>
       <use x="63.623047" xlink:href="#DejaVuSans-46"/>
       <use x="95.410156" xlink:href="#DejaVuSans-51"/>
      </g>
     </g>
    </g>
    <g id="ytick_18">
     <g id="line2d_38">
      <g>
       <use style="stroke:#000000;stroke-width:0.8;" x="399.6275" xlink:href="#m2feb0caaee" y="22.56"/>
      </g>
     </g>
     <g id="text_36">
      <!-- 0.4 -->
      <g transform="translate(379.905 25.599375)scale(0.08 -0.08)">
       <defs>
        <path d="M 37.796875 64.3125 
L 12.890625 25.390625 
L 37.796875 25.390625 
z
M 35.203125 72.90625 
L 47.609375 72.90625 
L 47.609375 25.390625 
L 58.015625 25.390625 
L 58.015625 17.1875 
L 47.609375 17.1875 
L 47.609375 0 
L 37.796875 0 
L 37.796875 17.1875 
L 4.890625 17.1875 
L 4.890625 26.703125 
z
" id="DejaVuSans-52"/>
       </defs>
       <use xlink:href="#DejaVuSans-48"/>
       <use x="63.623047" xlink:href="#DejaVuSans-46"/>
       <use x="95.410156" xlink:href="#DejaVuSans-52"/>
      </g>
     </g>
    </g>
    <g id="text_37">
     <!-- $cvR_{unique}^2$ -->
     <g transform="translate(372.545 83.34)rotate(-90)scale(0.08 -0.08)">
      <defs>
       <path d="M 25.203125 64.796875 
L 20.21875 38.921875 
L 32.90625 38.921875 
Q 40.375 38.921875 44.984375 43.046875 
Q 49.609375 47.171875 49.609375 53.8125 
Q 49.609375 59.125 46.5 61.953125 
Q 43.40625 64.796875 37.59375 64.796875 
z
M 43.3125 35.015625 
Q 46.4375 34.28125 48.515625 31.390625 
Q 50.59375 28.515625 53.328125 19.921875 
L 59.515625 0 
L 49.125 0 
L 43.40625 18.703125 
Q 41.21875 25.921875 38.328125 28.359375 
Q 35.453125 30.8125 29.5 30.8125 
L 18.609375 30.8125 
L 12.59375 0 
L 2.6875 0 
L 16.890625 72.90625 
L 39.109375 72.90625 
Q 49.21875 72.90625 54.609375 68.328125 
Q 60.015625 63.765625 60.015625 55.171875 
Q 60.015625 47.5625 55.421875 41.984375 
Q 50.828125 36.421875 43.3125 35.015625 
z
" id="DejaVuSans-Oblique-82"/>
       <path d="M 6.6875 21.6875 
L 13.09375 54.6875 
L 22.125 54.6875 
L 15.71875 22.015625 
Q 15.234375 19.625 15.015625 17.921875 
Q 14.796875 16.21875 14.796875 15.09375 
Q 14.796875 10.9375 17.328125 8.65625 
Q 19.875 6.390625 24.515625 6.390625 
Q 31.734375 6.390625 37 11.265625 
Q 42.28125 16.15625 43.890625 24.421875 
L 49.90625 54.6875 
L 58.890625 54.6875 
L 48.296875 0 
L 39.3125 0 
L 41.109375 8.59375 
Q 37.3125 3.8125 32.0625 1.1875 
Q 26.8125 -1.421875 20.90625 -1.421875 
Q 13.71875 -1.421875 9.71875 2.515625 
Q 5.71875 6.453125 5.71875 13.484375 
Q 5.71875 14.9375 5.953125 17.140625 
Q 6.203125 19.34375 6.6875 21.6875 
z
" id="DejaVuSans-Oblique-117"/>
       <path d="M 55.71875 33.015625 
L 49.3125 0 
L 40.28125 0 
L 46.6875 32.671875 
Q 47.125 34.96875 47.359375 36.71875 
Q 47.609375 38.484375 47.609375 39.5 
Q 47.609375 43.609375 45.015625 45.890625 
Q 42.4375 48.1875 37.796875 48.1875 
Q 30.5625 48.1875 25.34375 43.375 
Q 20.125 38.578125 18.5 30.328125 
L 12.5 0 
L 3.515625 0 
L 14.109375 54.6875 
L 23.09375 54.6875 
L 21.296875 46.09375 
Q 25.046875 50.828125 30.3125 53.40625 
Q 35.59375 56 41.40625 56 
Q 48.640625 56 52.609375 52.09375 
Q 56.59375 48.1875 56.59375 41.109375 
Q 56.59375 39.359375 56.375 37.359375 
Q 56.15625 35.359375 55.71875 33.015625 
z
" id="DejaVuSans-Oblique-110"/>
       <path d="M 18.3125 75.984375 
L 27.296875 75.984375 
L 25.09375 64.59375 
L 16.109375 64.59375 
z
M 14.203125 54.6875 
L 23.1875 54.6875 
L 12.5 0 
L 3.515625 0 
z
" id="DejaVuSans-Oblique-105"/>
       <path d="M 41.703125 8.203125 
Q 38.09375 3.46875 33.171875 1.015625 
Q 28.265625 -1.421875 22.3125 -1.421875 
Q 14.015625 -1.421875 9.296875 4.171875 
Q 4.59375 9.765625 4.59375 19.578125 
Q 4.59375 27.484375 7.5 34.859375 
Q 10.40625 42.234375 15.828125 48.09375 
Q 19.34375 51.90625 23.90625 53.953125 
Q 28.46875 56 33.5 56 
Q 39.546875 56 43.453125 53.609375 
Q 47.359375 51.21875 49.125 46.390625 
L 50.6875 54.59375 
L 59.71875 54.59375 
L 45.125 -20.609375 
L 36.078125 -20.609375 
z
M 13.921875 20.90625 
Q 13.921875 13.671875 16.9375 9.890625 
Q 19.96875 6.109375 25.6875 6.109375 
Q 34.1875 6.109375 40.1875 14.234375 
Q 46.1875 22.359375 46.1875 33.984375 
Q 46.1875 41.015625 43.078125 44.75 
Q 39.984375 48.484375 34.1875 48.484375 
Q 29.9375 48.484375 26.3125 46.5 
Q 22.703125 44.53125 20.015625 40.71875 
Q 17.1875 36.71875 15.546875 31.34375 
Q 13.921875 25.984375 13.921875 20.90625 
z
" id="DejaVuSans-Oblique-113"/>
       <path d="M 48.09375 32.234375 
Q 48.25 33.015625 48.3125 33.84375 
Q 48.390625 34.671875 48.390625 35.5 
Q 48.390625 41.453125 44.890625 44.921875 
Q 41.40625 48.390625 35.40625 48.390625 
Q 28.71875 48.390625 23.578125 44.15625 
Q 18.453125 39.9375 15.828125 32.171875 
z
M 55.90625 25.203125 
L 14.109375 25.203125 
Q 13.8125 23.34375 13.71875 22.265625 
Q 13.625 21.1875 13.625 20.40625 
Q 13.625 13.625 17.796875 9.90625 
Q 21.96875 6.203125 29.59375 6.203125 
Q 35.453125 6.203125 40.671875 7.515625 
Q 45.90625 8.84375 50.390625 11.375 
L 48.6875 2.484375 
Q 43.84375 0.53125 38.6875 -0.4375 
Q 33.546875 -1.421875 28.21875 -1.421875 
Q 16.84375 -1.421875 10.71875 4.015625 
Q 4.59375 9.46875 4.59375 19.484375 
Q 4.59375 28.03125 7.640625 35.375 
Q 10.6875 42.71875 16.609375 48.484375 
Q 20.40625 52.09375 25.65625 54.046875 
Q 30.90625 56 36.8125 56 
Q 46.09375 56 51.578125 50.4375 
Q 57.078125 44.875 57.078125 35.5 
Q 57.078125 33.25 56.78125 30.6875 
Q 56.5 28.125 55.90625 25.203125 
z
" id="DejaVuSans-Oblique-101"/>
      </defs>
      <use transform="translate(0 0.701562)" xlink:href="#DejaVuSans-Oblique-99"/>
      <use transform="translate(54.980469 0.701562)" xlink:href="#DejaVuSans-Oblique-118"/>
      <use transform="translate(114.160156 0.701562)" xlink:href="#DejaVuSans-Oblique-82"/>
      <use transform="translate(190.659349 39.046875)scale(0.7)" xlink:href="#DejaVuSans-50"/>
      <use transform="translate(183.642578 -26.642188)scale(0.7)" xlink:href="#DejaVuSans-Oblique-117"/>
      <use transform="translate(228.007812 -26.642188)scale(0.7)" xlink:href="#DejaVuSans-Oblique-110"/>
      <use transform="translate(272.373047 -26.642188)scale(0.7)" xlink:href="#DejaVuSans-Oblique-105"/>
      <use transform="translate(291.821289 -26.642188)scale(0.7)" xlink:href="#DejaVuSans-Oblique-113"/>
      <use transform="translate(336.254883 -26.642188)scale(0.7)" xlink:href="#DejaVuSans-Oblique-117"/>
      <use transform="translate(380.620117 -26.642188)scale(0.7)" xlink:href="#DejaVuSans-Oblique-101"/>
     </g>
    </g>
   </g>
   <g id="LineCollection_3">
    <path clip-path="url(#pcc99414450)" d="M 415.503125 101.936484 
L 415.503125 68.166592 
" style="fill:none;stroke:#000000;"/>
   </g>
   <g id="LineCollection_4">
    <path clip-path="url(#pcc99414450)" d="M 404.919375 77.341477 
L 404.919375 33.622974 
" style="fill:none;stroke:#000000;"/>
   </g>
   <g id="line2d_39">
    <defs>
     <path d="M 2 0 
L -2 -0 
" id="m16106e9a89" style="stroke:#000000;"/>
    </defs>
    <g clip-path="url(#pcc99414450)">
     <use style="stroke:#000000;" x="415.503125" xlink:href="#m16106e9a89" y="101.936484"/>
    </g>
   </g>
   <g id="line2d_40">
    <g clip-path="url(#pcc99414450)">
     <use style="stroke:#000000;" x="415.503125" xlink:href="#m16106e9a89" y="68.166592"/>
    </g>
   </g>
   <g id="line2d_41">
    <g clip-path="url(#pcc99414450)">
     <use style="stroke:#000000;" x="404.919375" xlink:href="#m16106e9a89" y="77.341477"/>
    </g>
   </g>
   <g id="line2d_42">
    <g clip-path="url(#pcc99414450)">
     <use style="stroke:#000000;" x="404.919375" xlink:href="#m16106e9a89" y="33.622974"/>
    </g>
   </g>
   <g id="line2d_43">
    <path clip-path="url(#pcc99414450)" d="M 399.6275 100.248889 
L 420.795 100.248889 
" style="fill:none;stroke:#808080;stroke-dasharray:5.55,2.4;stroke-dashoffset:0;stroke-width:1.5;"/>
   </g>
   <g id="patch_14">
    <path d="M 399.6275 109.96 
L 399.6275 22.56 
" style="fill:none;stroke:#000000;stroke-linecap:square;stroke-linejoin:miter;stroke-width:0.8;"/>
   </g>
   <g id="patch_15">
    <path d="M 399.6275 109.96 
L 420.795 109.96 
" style="fill:none;stroke:#000000;stroke-linecap:square;stroke-linejoin:miter;stroke-width:0.8;"/>
   </g>
  </g>
 </g>
 <defs>
  <clipPath id="p04427771f2">
   <rect height="87.4" width="93.673" x="37.1" y="22.56"/>
  </clipPath>
  <clipPath id="p76a6265183">
   <rect height="87.4" width="93.673" x="182.111" y="22.56"/>
  </clipPath>
  <clipPath id="pa20ef265b9">
   <rect height="87.4" width="21.1675" x="327.122" y="22.56"/>
  </clipPath>
  <clipPath id="pcc99414450">
   <rect height="87.4" width="21.1675" x="399.6275" y="22.56"/>
  </clipPath>
 </defs>
</svg>
