<?xml version="1.0" encoding="utf-8" standalone="no"?>
<!DOCTYPE svg PUBLIC "-//W3C//DTD SVG 1.1//EN"
  "http://www.w3.org/Graphics/SVG/1.1/DTD/svg11.dtd">
<!-- Created with matplotlib (https://matplotlib.org/) -->
<svg height="288pt" version="1.1" viewBox="0 0 165.6 288" width="165.6pt" xmlns="http://www.w3.org/2000/svg" xmlns:xlink="http://www.w3.org/1999/xlink">
 <defs>
  <style type="text/css">
*{stroke-linecap:butt;stroke-linejoin:round;}
  </style>
 </defs>
 <g id="figure_1">
  <g id="patch_1">
   <path d="M 0 288 
L 165.6 288 
L 165.6 0 
L 0 0 
z
" style="fill:#ffffff;"/>
  </g>
  <g id="axes_1">
   <g id="patch_2">
    <path d="M 47.63 121.38 
L 154.44 121.38 
L 154.44 25.152 
L 47.63 25.152 
z
" style="fill:#ffffff;"/>
   </g>
   <g id="PathCollection_1">
    <defs>
     <path d="M 0 1.936492 
C 0.513564 1.936492 1.006162 1.732451 1.369306 1.369306 
C 1.732451 1.006162 1.936492 0.513564 1.936492 0 
C 1.936492 -0.513564 1.732451 -1.006162 1.369306 -1.369306 
C 1.006162 -1.732451 0.513564 -1.936492 0 -1.936492 
C -0.513564 -1.936492 -1.006162 -1.732451 -1.369306 -1.369306 
C -1.732451 -1.006162 -1.936492 -0.513564 -1.936492 0 
C -1.936492 0.513564 -1.732451 1.006162 -1.369306 1.369306 
C -1.006162 1.732451 -0.513564 1.936492 0 1.936492 
z
" id="md86f8932f0" style="stroke:#1f77b4;stroke-opacity:0.8;"/>
    </defs>
    <g clip-path="url(#p9abed27391)">
     <use style="fill:#1f77b4;fill-opacity:0.8;stroke:#1f77b4;stroke-opacity:0.8;" x="138.586807" xlink:href="#md86f8932f0" y="91.542266"/>
     <use style="fill:#1f77b4;fill-opacity:0.8;stroke:#1f77b4;stroke-opacity:0.8;" x="138.131502" xlink:href="#md86f8932f0" y="79.178083"/>
     <use style="fill:#1f77b4;fill-opacity:0.8;stroke:#1f77b4;stroke-opacity:0.8;" x="132.724761" xlink:href="#md86f8932f0" y="88.568574"/>
     <use style="fill:#1f77b4;fill-opacity:0.8;stroke:#1f77b4;stroke-opacity:0.8;" x="134.147588" xlink:href="#md86f8932f0" y="91.176663"/>
     <use style="fill:#1f77b4;fill-opacity:0.8;stroke:#1f77b4;stroke-opacity:0.8;" x="108.837284" xlink:href="#md86f8932f0" y="83.063169"/>
     <use style="fill:#1f77b4;fill-opacity:0.8;stroke:#1f77b4;stroke-opacity:0.8;" x="104.208082" xlink:href="#md86f8932f0" y="103.553143"/>
     <use style="fill:#1f77b4;fill-opacity:0.8;stroke:#1f77b4;stroke-opacity:0.8;" x="127.995951" xlink:href="#md86f8932f0" y="81.85914"/>
     <use style="fill:#1f77b4;fill-opacity:0.8;stroke:#1f77b4;stroke-opacity:0.8;" x="142.450201" xlink:href="#md86f8932f0" y="85.320072"/>
     <use style="fill:#1f77b4;fill-opacity:0.8;stroke:#1f77b4;stroke-opacity:0.8;" x="138.586807" xlink:href="#md86f8932f0" y="76.781457"/>
     <use style="fill:#1f77b4;fill-opacity:0.8;stroke:#1f77b4;stroke-opacity:0.8;" x="138.131502" xlink:href="#md86f8932f0" y="84.459655"/>
     <use style="fill:#1f77b4;fill-opacity:0.8;stroke:#1f77b4;stroke-opacity:0.8;" x="132.724761" xlink:href="#md86f8932f0" y="84.543844"/>
     <use style="fill:#1f77b4;fill-opacity:0.8;stroke:#1f77b4;stroke-opacity:0.8;" x="134.147588" xlink:href="#md86f8932f0" y="98.726407"/>
     <use style="fill:#1f77b4;fill-opacity:0.8;stroke:#1f77b4;stroke-opacity:0.8;" x="108.837284" xlink:href="#md86f8932f0" y="80.746261"/>
     <use style="fill:#1f77b4;fill-opacity:0.8;stroke:#1f77b4;stroke-opacity:0.8;" x="104.208082" xlink:href="#md86f8932f0" y="115.152443"/>
     <use style="fill:#1f77b4;fill-opacity:0.8;stroke:#1f77b4;stroke-opacity:0.8;" x="127.995951" xlink:href="#md86f8932f0" y="88.698229"/>
     <use style="fill:#1f77b4;fill-opacity:0.8;stroke:#1f77b4;stroke-opacity:0.8;" x="142.450201" xlink:href="#md86f8932f0" y="95.676183"/>
     <use style="fill:#1f77b4;fill-opacity:0.8;stroke:#1f77b4;stroke-opacity:0.8;" x="76.649477" xlink:href="#md86f8932f0" y="88.643"/>
     <use style="fill:#1f77b4;fill-opacity:0.8;stroke:#1f77b4;stroke-opacity:0.8;" x="88.201631" xlink:href="#md86f8932f0" y="79.116031"/>
     <use style="fill:#1f77b4;fill-opacity:0.8;stroke:#1f77b4;stroke-opacity:0.8;" x="119.716041" xlink:href="#md86f8932f0" y="91.711472"/>
     <use style="fill:#1f77b4;fill-opacity:0.8;stroke:#1f77b4;stroke-opacity:0.8;" x="134.991903" xlink:href="#md86f8932f0" y="75.940118"/>
     <use style="fill:#1f77b4;fill-opacity:0.8;stroke:#1f77b4;stroke-opacity:0.8;" x="132.420415" xlink:href="#md86f8932f0" y="99.735305"/>
     <use style="fill:#1f77b4;fill-opacity:0.8;stroke:#1f77b4;stroke-opacity:0.8;" x="118.943024" xlink:href="#md86f8932f0" y="76.163644"/>
     <use style="fill:#1f77b4;fill-opacity:0.8;stroke:#1f77b4;stroke-opacity:0.8;" x="110.712124" xlink:href="#md86f8932f0" y="78.470178"/>
     <use style="fill:#1f77b4;fill-opacity:0.8;stroke:#1f77b4;stroke-opacity:0.8;" x="120.963079" xlink:href="#md86f8932f0" y="81.40499"/>
     <use style="fill:#1f77b4;fill-opacity:0.8;stroke:#1f77b4;stroke-opacity:0.8;" x="104.617041" xlink:href="#md86f8932f0" y="70.757751"/>
     <use style="fill:#1f77b4;fill-opacity:0.8;stroke:#1f77b4;stroke-opacity:0.8;" x="104.280309" xlink:href="#md86f8932f0" y="75.951205"/>
     <use style="fill:#1f77b4;fill-opacity:0.8;stroke:#1f77b4;stroke-opacity:0.8;" x="99.684882" xlink:href="#md86f8932f0" y="86.49272"/>
     <use style="fill:#1f77b4;fill-opacity:0.8;stroke:#1f77b4;stroke-opacity:0.8;" x="126.536619" xlink:href="#md86f8932f0" y="82.502137"/>
     <use style="fill:#1f77b4;fill-opacity:0.8;stroke:#1f77b4;stroke-opacity:0.8;" x="104.313613" xlink:href="#md86f8932f0" y="94.258648"/>
     <use style="fill:#1f77b4;fill-opacity:0.8;stroke:#1f77b4;stroke-opacity:0.8;" x="117.207299" xlink:href="#md86f8932f0" y="92.147401"/>
     <use style="fill:#1f77b4;fill-opacity:0.8;stroke:#1f77b4;stroke-opacity:0.8;" x="109.247485" xlink:href="#md86f8932f0" y="73.562402"/>
     <use style="fill:#1f77b4;fill-opacity:0.8;stroke:#1f77b4;stroke-opacity:0.8;" x="132.347516" xlink:href="#md86f8932f0" y="96.831029"/>
     <use style="fill:#1f77b4;fill-opacity:0.8;stroke:#1f77b4;stroke-opacity:0.8;" x="125.66134" xlink:href="#md86f8932f0" y="116.666675"/>
     <use style="fill:#1f77b4;fill-opacity:0.8;stroke:#1f77b4;stroke-opacity:0.8;" x="129.155504" xlink:href="#md86f8932f0" y="91.301514"/>
     <use style="fill:#1f77b4;fill-opacity:0.8;stroke:#1f77b4;stroke-opacity:0.8;" x="126.528481" xlink:href="#md86f8932f0" y="89.930613"/>
     <use style="fill:#1f77b4;fill-opacity:0.8;stroke:#1f77b4;stroke-opacity:0.8;" x="107.358809" xlink:href="#md86f8932f0" y="92.121886"/>
     <use style="fill:#1f77b4;fill-opacity:0.8;stroke:#1f77b4;stroke-opacity:0.8;" x="113.013845" xlink:href="#md86f8932f0" y="95.329967"/>
     <use style="fill:#1f77b4;fill-opacity:0.8;stroke:#1f77b4;stroke-opacity:0.8;" x="111.495025" xlink:href="#md86f8932f0" y="104.965751"/>
     <use style="fill:#1f77b4;fill-opacity:0.8;stroke:#1f77b4;stroke-opacity:0.8;" x="130.356768" xlink:href="#md86f8932f0" y="64.130314"/>
     <use style="fill:#1f77b4;fill-opacity:0.8;stroke:#1f77b4;stroke-opacity:0.8;" x="116.112394" xlink:href="#md86f8932f0" y="105.777763"/>
     <use style="fill:#1f77b4;fill-opacity:0.8;stroke:#1f77b4;stroke-opacity:0.8;" x="112.805167" xlink:href="#md86f8932f0" y="73.000526"/>
     <use style="fill:#1f77b4;fill-opacity:0.8;stroke:#1f77b4;stroke-opacity:0.8;" x="67.590863" xlink:href="#md86f8932f0" y="78.037065"/>
     <use style="fill:#1f77b4;fill-opacity:0.8;stroke:#1f77b4;stroke-opacity:0.8;" x="130.311218" xlink:href="#md86f8932f0" y="84.481804"/>
     <use style="fill:#1f77b4;fill-opacity:0.8;stroke:#1f77b4;stroke-opacity:0.8;" x="116.862865" xlink:href="#md86f8932f0" y="95.860972"/>
     <use style="fill:#1f77b4;fill-opacity:0.8;stroke:#1f77b4;stroke-opacity:0.8;" x="145.84639" xlink:href="#md86f8932f0" y="99.205076"/>
     <use style="fill:#1f77b4;fill-opacity:0.8;stroke:#1f77b4;stroke-opacity:0.8;" x="120.893158" xlink:href="#md86f8932f0" y="92.285462"/>
     <use style="fill:#1f77b4;fill-opacity:0.8;stroke:#1f77b4;stroke-opacity:0.8;" x="123.283776" xlink:href="#md86f8932f0" y="98.586361"/>
     <use style="fill:#1f77b4;fill-opacity:0.8;stroke:#1f77b4;stroke-opacity:0.8;" x="115.381872" xlink:href="#md86f8932f0" y="105.187624"/>
     <use style="fill:#1f77b4;fill-opacity:0.8;stroke:#1f77b4;stroke-opacity:0.8;" x="130.046836" xlink:href="#md86f8932f0" y="101.405833"/>
     <use style="fill:#1f77b4;fill-opacity:0.8;stroke:#1f77b4;stroke-opacity:0.8;" x="119.809549" xlink:href="#md86f8932f0" y="94.0921"/>
     <use style="fill:#1f77b4;fill-opacity:0.8;stroke:#1f77b4;stroke-opacity:0.8;" x="120.906916" xlink:href="#md86f8932f0" y="32.604812"/>
     <use style="fill:#1f77b4;fill-opacity:0.8;stroke:#1f77b4;stroke-opacity:0.8;" x="61.380102" xlink:href="#md86f8932f0" y="52.149755"/>
     <use style="fill:#1f77b4;fill-opacity:0.8;stroke:#1f77b4;stroke-opacity:0.8;" x="97.690675" xlink:href="#md86f8932f0" y="42.213149"/>
     <use style="fill:#1f77b4;fill-opacity:0.8;stroke:#1f77b4;stroke-opacity:0.8;" x="101.178626" xlink:href="#md86f8932f0" y="88.189842"/>
     <use style="fill:#1f77b4;fill-opacity:0.8;stroke:#1f77b4;stroke-opacity:0.8;" x="82.620893" xlink:href="#md86f8932f0" y="94.429713"/>
     <use style="fill:#1f77b4;fill-opacity:0.8;stroke:#1f77b4;stroke-opacity:0.8;" x="86.645455" xlink:href="#md86f8932f0" y="103.992947"/>
     <use style="fill:#1f77b4;fill-opacity:0.8;stroke:#1f77b4;stroke-opacity:0.8;" x="67.08543" xlink:href="#md86f8932f0" y="95.612471"/>
     <use style="fill:#1f77b4;fill-opacity:0.8;stroke:#1f77b4;stroke-opacity:0.8;" x="141.624793" xlink:href="#md86f8932f0" y="85.414273"/>
     <use style="fill:#1f77b4;fill-opacity:0.8;stroke:#1f77b4;stroke-opacity:0.8;" x="141.408918" xlink:href="#md86f8932f0" y="90.603887"/>
     <use style="fill:#1f77b4;fill-opacity:0.8;stroke:#1f77b4;stroke-opacity:0.8;" x="84.773335" xlink:href="#md86f8932f0" y="65.745392"/>
     <use style="fill:#1f77b4;fill-opacity:0.8;stroke:#1f77b4;stroke-opacity:0.8;" x="147.544614" xlink:href="#md86f8932f0" y="50.09561"/>
     <use style="fill:#1f77b4;fill-opacity:0.8;stroke:#1f77b4;stroke-opacity:0.8;" x="139.996043" xlink:href="#md86f8932f0" y="29.865325"/>
     <use style="fill:#1f77b4;fill-opacity:0.8;stroke:#1f77b4;stroke-opacity:0.8;" x="69.380457" xlink:href="#md86f8932f0" y="34.716648"/>
     <use style="fill:#1f77b4;fill-opacity:0.8;stroke:#1f77b4;stroke-opacity:0.8;" x="135.85498" xlink:href="#md86f8932f0" y="64.871322"/>
     <use style="fill:#1f77b4;fill-opacity:0.8;stroke:#1f77b4;stroke-opacity:0.8;" x="111.019873" xlink:href="#md86f8932f0" y="80.576322"/>
     <use style="fill:#1f77b4;fill-opacity:0.8;stroke:#1f77b4;stroke-opacity:0.8;" x="143.104219" xlink:href="#md86f8932f0" y="90.10857"/>
     <use style="fill:#1f77b4;fill-opacity:0.8;stroke:#1f77b4;stroke-opacity:0.8;" x="54.525386" xlink:href="#md86f8932f0" y="80.171507"/>
     <use style="fill:#1f77b4;fill-opacity:0.8;stroke:#1f77b4;stroke-opacity:0.8;" x="111.981428" xlink:href="#md86f8932f0" y="60.839582"/>
    </g>
   </g>
   <g id="PolyCollection_1">
    <path clip-path="url(#p9abed27391)" d="M 54.525386 63.028619 
L 54.525386 92.135663 
L 55.464974 92.029784 
L 56.404563 91.950219 
L 57.344151 91.828609 
L 58.283739 91.712147 
L 59.223327 91.606268 
L 60.162915 91.500389 
L 61.102503 91.39451 
L 62.042092 91.288631 
L 62.98168 91.182752 
L 63.921268 91.044478 
L 64.860856 90.875821 
L 65.800444 90.733369 
L 66.740032 90.611279 
L 67.67962 90.501121 
L 68.619209 90.476307 
L 69.558797 90.35539 
L 70.498385 90.229607 
L 71.437973 90.103823 
L 72.377561 89.997798 
L 73.317149 89.952793 
L 74.256738 89.856924 
L 75.196326 89.665361 
L 76.135914 89.495586 
L 77.075502 89.393077 
L 78.01509 89.29013 
L 78.954678 89.187132 
L 79.894266 89.084134 
L 80.833855 88.981136 
L 81.773443 88.878102 
L 82.713031 88.775064 
L 83.652619 88.672027 
L 84.592207 88.587238 
L 85.531795 88.466146 
L 86.471384 88.403861 
L 87.410972 88.344369 
L 88.35056 88.291258 
L 89.290148 88.221976 
L 90.229736 88.161475 
L 91.169324 88.065105 
L 92.108913 88.041056 
L 93.048501 87.982237 
L 93.988089 87.9237 
L 94.927677 87.886888 
L 95.867265 87.799641 
L 96.806853 87.739783 
L 97.746441 87.679422 
L 98.68603 87.662067 
L 99.625618 87.564776 
L 100.565206 87.55674 
L 101.504794 87.55699 
L 102.444382 87.542636 
L 103.38397 87.522033 
L 104.323559 87.446989 
L 105.263147 87.370862 
L 106.202735 87.325949 
L 107.142323 87.339475 
L 108.081911 87.388361 
L 109.021499 87.425136 
L 109.961087 87.477249 
L 110.900676 87.515541 
L 111.840264 87.553742 
L 112.779852 87.572166 
L 113.71944 87.640563 
L 114.659028 87.718006 
L 115.598616 87.743851 
L 116.538205 87.834067 
L 117.477793 87.950851 
L 118.417381 87.989911 
L 119.356969 88.063446 
L 120.296557 88.15788 
L 121.236145 88.251086 
L 122.175734 88.394929 
L 123.115322 88.555741 
L 124.05491 88.691993 
L 124.994498 88.841006 
L 125.934086 89.010789 
L 126.873674 89.140772 
L 127.813262 89.300256 
L 128.752851 89.509452 
L 129.692439 89.695242 
L 130.632027 89.880106 
L 131.571615 90.064809 
L 132.511203 90.249647 
L 133.450791 90.46155 
L 134.39038 90.742705 
L 135.329968 91.005912 
L 136.269556 91.322329 
L 137.209144 91.638473 
L 138.148732 91.914071 
L 139.08832 92.237028 
L 140.027908 92.457254 
L 140.967497 92.722526 
L 141.907085 92.994348 
L 142.846673 93.230767 
L 143.786261 93.562378 
L 144.725849 93.901327 
L 145.665437 94.196411 
L 146.605026 94.49116 
L 147.544614 94.761134 
L 147.544614 79.545878 
L 147.544614 79.545878 
L 146.605026 79.57425 
L 145.665437 79.685013 
L 144.725849 79.718496 
L 143.786261 79.751978 
L 142.846673 79.78546 
L 141.907085 79.776134 
L 140.967497 79.848376 
L 140.027908 79.859527 
L 139.08832 79.871713 
L 138.148732 79.955292 
L 137.209144 79.999509 
L 136.269556 80.023189 
L 135.329968 80.101587 
L 134.39038 80.154768 
L 133.450791 80.123072 
L 132.511203 80.157159 
L 131.571615 80.157967 
L 130.632027 80.198231 
L 129.692439 80.157771 
L 128.752851 80.173292 
L 127.813262 80.21901 
L 126.873674 80.345327 
L 125.934086 80.354711 
L 124.994498 80.319788 
L 124.05491 80.274396 
L 123.115322 80.265632 
L 122.175734 80.216127 
L 121.236145 80.162138 
L 120.296557 80.105122 
L 119.356969 80.039639 
L 118.417381 79.997549 
L 117.477793 79.874792 
L 116.538205 79.790678 
L 115.598616 79.629931 
L 114.659028 79.483259 
L 113.71944 79.330994 
L 112.779852 79.189328 
L 111.840264 78.984305 
L 110.900676 78.807082 
L 109.961087 78.687424 
L 109.021499 78.528342 
L 108.081911 78.364294 
L 107.142323 78.178008 
L 106.202735 77.976965 
L 105.263147 77.787817 
L 104.323559 77.560469 
L 103.38397 77.224832 
L 102.444382 76.961857 
L 101.504794 76.727655 
L 100.565206 76.518075 
L 99.625618 76.253207 
L 98.68603 76.014829 
L 97.746441 75.797313 
L 96.806853 75.569196 
L 95.867265 75.344134 
L 94.927677 75.17607 
L 93.988089 75.040259 
L 93.048501 74.820168 
L 92.108913 74.55738 
L 91.169324 74.247659 
L 90.229736 73.922764 
L 89.290148 73.575879 
L 88.35056 73.228995 
L 87.410972 72.88211 
L 86.471384 72.535226 
L 85.531795 72.189039 
L 84.592207 71.909701 
L 83.652619 71.659084 
L 82.713031 71.342083 
L 81.773443 71.083249 
L 80.833855 70.869041 
L 79.894266 70.654833 
L 78.954678 70.411748 
L 78.01509 70.126947 
L 77.075502 69.851917 
L 76.135914 69.554132 
L 75.196326 69.256347 
L 74.256738 68.962592 
L 73.317149 68.667258 
L 72.377561 68.36442 
L 71.437973 68.066412 
L 70.498385 67.768404 
L 69.558797 67.470605 
L 68.619209 67.173608 
L 67.67962 66.87661 
L 66.740032 66.590253 
L 65.800444 66.286487 
L 64.860856 65.984019 
L 63.921268 65.689817 
L 62.98168 65.43243 
L 62.042092 65.21333 
L 61.102503 64.931301 
L 60.162915 64.658731 
L 59.223327 64.398241 
L 58.283739 64.124316 
L 57.344151 63.850392 
L 56.404563 63.576468 
L 55.464974 63.302543 
L 54.525386 63.028619 
z
" style="fill:#1f77b4;fill-opacity:0.15;"/>
   </g>
   <g id="matplotlib.axis_1">
    <g id="xtick_1">
     <g id="line2d_1">
      <defs>
       <path d="M 0 0 
L 0 3.5 
" id="ma374c9d261" style="stroke:#000000;stroke-width:0.8;"/>
      </defs>
      <g>
       <use style="stroke:#000000;stroke-width:0.8;" x="84.633175" xlink:href="#ma374c9d261" y="121.38"/>
      </g>
     </g>
    </g>
    <g id="xtick_2">
     <g id="line2d_2">
      <g>
       <use style="stroke:#000000;stroke-width:0.8;" x="122.195832" xlink:href="#ma374c9d261" y="121.38"/>
      </g>
     </g>
    </g>
    <g id="text_1">
     <!-- DI -->
     <defs>
      <path d="M 19.671875 64.796875 
L 19.671875 8.109375 
L 31.59375 8.109375 
Q 46.6875 8.109375 53.6875 14.9375 
Q 60.6875 21.78125 60.6875 36.53125 
Q 60.6875 51.171875 53.6875 57.984375 
Q 46.6875 64.796875 31.59375 64.796875 
z
M 9.8125 72.90625 
L 30.078125 72.90625 
Q 51.265625 72.90625 61.171875 64.09375 
Q 71.09375 55.28125 71.09375 36.53125 
Q 71.09375 17.671875 61.125 8.828125 
Q 51.171875 0 30.078125 0 
L 9.8125 0 
z
" id="DejaVuSans-68"/>
      <path d="M 9.8125 72.90625 
L 19.671875 72.90625 
L 19.671875 0 
L 9.8125 0 
z
" id="DejaVuSans-73"/>
     </defs>
     <g transform="translate(96.775 131.45875)scale(0.08 -0.08)">
      <use xlink:href="#DejaVuSans-68"/>
      <use x="77.001953" xlink:href="#DejaVuSans-73"/>
     </g>
    </g>
   </g>
   <g id="matplotlib.axis_2">
    <g id="ytick_1">
     <g id="line2d_3">
      <defs>
       <path d="M 0 0 
L -3.5 0 
" id="m2021cd0f60" style="stroke:#000000;stroke-width:0.8;"/>
      </defs>
      <g>
       <use style="stroke:#000000;stroke-width:0.8;" x="47.63" xlink:href="#m2021cd0f60" y="101.644389"/>
      </g>
     </g>
     <g id="text_2">
      <!-- 0 -->
      <defs>
       <path d="M 31.78125 66.40625 
Q 24.171875 66.40625 20.328125 58.90625 
Q 16.5 51.421875 16.5 36.375 
Q 16.5 21.390625 20.328125 13.890625 
Q 24.171875 6.390625 31.78125 6.390625 
Q 39.453125 6.390625 43.28125 13.890625 
Q 47.125 21.390625 47.125 36.375 
Q 47.125 51.421875 43.28125 58.90625 
Q 39.453125 66.40625 31.78125 66.40625 
z
M 31.78125 74.21875 
Q 44.046875 74.21875 50.515625 64.515625 
Q 56.984375 54.828125 56.984375 36.375 
Q 56.984375 17.96875 50.515625 8.265625 
Q 44.046875 -1.421875 31.78125 -1.421875 
Q 19.53125 -1.421875 13.0625 8.265625 
Q 6.59375 17.96875 6.59375 36.375 
Q 6.59375 54.828125 13.0625 64.515625 
Q 19.53125 74.21875 31.78125 74.21875 
z
" id="DejaVuSans-48"/>
      </defs>
      <g transform="translate(35.54 104.683764)scale(0.08 -0.08)">
       <use xlink:href="#DejaVuSans-48"/>
      </g>
     </g>
    </g>
    <g id="ytick_2">
     <g id="line2d_4">
      <g>
       <use style="stroke:#000000;stroke-width:0.8;" x="47.63" xlink:href="#m2021cd0f60" y="77.112687"/>
      </g>
     </g>
     <g id="text_3">
      <!-- 1 -->
      <defs>
       <path d="M 12.40625 8.296875 
L 28.515625 8.296875 
L 28.515625 63.921875 
L 10.984375 60.40625 
L 10.984375 69.390625 
L 28.421875 72.90625 
L 38.28125 72.90625 
L 38.28125 8.296875 
L 54.390625 8.296875 
L 54.390625 0 
L 12.40625 0 
z
" id="DejaVuSans-49"/>
      </defs>
      <g transform="translate(35.54 80.152062)scale(0.08 -0.08)">
       <use xlink:href="#DejaVuSans-49"/>
      </g>
     </g>
    </g>
    <g id="ytick_3">
     <g id="line2d_5">
      <g>
       <use style="stroke:#000000;stroke-width:0.8;" x="47.63" xlink:href="#m2021cd0f60" y="52.580985"/>
      </g>
     </g>
     <g id="text_4">
      <!-- 2 -->
      <defs>
       <path d="M 19.1875 8.296875 
L 53.609375 8.296875 
L 53.609375 0 
L 7.328125 0 
L 7.328125 8.296875 
Q 12.9375 14.109375 22.625 23.890625 
Q 32.328125 33.6875 34.8125 36.53125 
Q 39.546875 41.84375 41.421875 45.53125 
Q 43.3125 49.21875 43.3125 52.78125 
Q 43.3125 58.59375 39.234375 62.25 
Q 35.15625 65.921875 28.609375 65.921875 
Q 23.96875 65.921875 18.8125 64.3125 
Q 13.671875 62.703125 7.8125 59.421875 
L 7.8125 69.390625 
Q 13.765625 71.78125 18.9375 73 
Q 24.125 74.21875 28.421875 74.21875 
Q 39.75 74.21875 46.484375 68.546875 
Q 53.21875 62.890625 53.21875 53.421875 
Q 53.21875 48.921875 51.53125 44.890625 
Q 49.859375 40.875 45.40625 35.40625 
Q 44.1875 33.984375 37.640625 27.21875 
Q 31.109375 20.453125 19.1875 8.296875 
z
" id="DejaVuSans-50"/>
      </defs>
      <g transform="translate(35.54 55.62036)scale(0.08 -0.08)">
       <use xlink:href="#DejaVuSans-50"/>
      </g>
     </g>
    </g>
    <g id="ytick_4">
     <g id="line2d_6">
      <g>
       <use style="stroke:#000000;stroke-width:0.8;" x="47.63" xlink:href="#m2021cd0f60" y="28.049282"/>
      </g>
     </g>
     <g id="text_5">
      <!-- 3 -->
      <defs>
       <path d="M 40.578125 39.3125 
Q 47.65625 37.796875 51.625 33 
Q 55.609375 28.21875 55.609375 21.1875 
Q 55.609375 10.40625 48.1875 4.484375 
Q 40.765625 -1.421875 27.09375 -1.421875 
Q 22.515625 -1.421875 17.65625 -0.515625 
Q 12.796875 0.390625 7.625 2.203125 
L 7.625 11.71875 
Q 11.71875 9.328125 16.59375 8.109375 
Q 21.484375 6.890625 26.8125 6.890625 
Q 36.078125 6.890625 40.9375 10.546875 
Q 45.796875 14.203125 45.796875 21.1875 
Q 45.796875 27.640625 41.28125 31.265625 
Q 36.765625 34.90625 28.71875 34.90625 
L 20.21875 34.90625 
L 20.21875 43.015625 
L 29.109375 43.015625 
Q 36.375 43.015625 40.234375 45.921875 
Q 44.09375 48.828125 44.09375 54.296875 
Q 44.09375 59.90625 40.109375 62.90625 
Q 36.140625 65.921875 28.71875 65.921875 
Q 24.65625 65.921875 20.015625 65.03125 
Q 15.375 64.15625 9.8125 62.3125 
L 9.8125 71.09375 
Q 15.4375 72.65625 20.34375 73.4375 
Q 25.25 74.21875 29.59375 74.21875 
Q 40.828125 74.21875 47.359375 69.109375 
Q 53.90625 64.015625 53.90625 55.328125 
Q 53.90625 49.265625 50.4375 45.09375 
Q 46.96875 40.921875 40.578125 39.3125 
z
" id="DejaVuSans-51"/>
      </defs>
      <g transform="translate(35.54 31.088657)scale(0.08 -0.08)">
       <use xlink:href="#DejaVuSans-51"/>
      </g>
     </g>
    </g>
    <g id="text_6">
     <!-- $\Delta$ Signal magnitude -->
     <defs>
      <path d="M 34.1875 63.1875 
L 14.15625 8.203125 
L 54.25 8.203125 
z
M 0.78125 0 
L 28.609375 72.90625 
L 39.796875 72.90625 
L 67.578125 0 
z
" id="DejaVuSans-916"/>
      <path id="DejaVuSans-32"/>
      <path d="M 53.515625 70.515625 
L 53.515625 60.890625 
Q 47.90625 63.578125 42.921875 64.890625 
Q 37.9375 66.21875 33.296875 66.21875 
Q 25.25 66.21875 20.875 63.09375 
Q 16.5 59.96875 16.5 54.203125 
Q 16.5 49.359375 19.40625 46.890625 
Q 22.3125 44.4375 30.421875 42.921875 
L 36.375 41.703125 
Q 47.40625 39.59375 52.65625 34.296875 
Q 57.90625 29 57.90625 20.125 
Q 57.90625 9.515625 50.796875 4.046875 
Q 43.703125 -1.421875 29.984375 -1.421875 
Q 24.8125 -1.421875 18.96875 -0.25 
Q 13.140625 0.921875 6.890625 3.21875 
L 6.890625 13.375 
Q 12.890625 10.015625 18.65625 8.296875 
Q 24.421875 6.59375 29.984375 6.59375 
Q 38.421875 6.59375 43.015625 9.90625 
Q 47.609375 13.234375 47.609375 19.390625 
Q 47.609375 24.75 44.3125 27.78125 
Q 41.015625 30.8125 33.5 32.328125 
L 27.484375 33.5 
Q 16.453125 35.6875 11.515625 40.375 
Q 6.59375 45.0625 6.59375 53.421875 
Q 6.59375 63.09375 13.40625 68.65625 
Q 20.21875 74.21875 32.171875 74.21875 
Q 37.3125 74.21875 42.625 73.28125 
Q 47.953125 72.359375 53.515625 70.515625 
z
" id="DejaVuSans-83"/>
      <path d="M 9.421875 54.6875 
L 18.40625 54.6875 
L 18.40625 0 
L 9.421875 0 
z
M 9.421875 75.984375 
L 18.40625 75.984375 
L 18.40625 64.59375 
L 9.421875 64.59375 
z
" id="DejaVuSans-105"/>
      <path d="M 45.40625 27.984375 
Q 45.40625 37.75 41.375 43.109375 
Q 37.359375 48.484375 30.078125 48.484375 
Q 22.859375 48.484375 18.828125 43.109375 
Q 14.796875 37.75 14.796875 27.984375 
Q 14.796875 18.265625 18.828125 12.890625 
Q 22.859375 7.515625 30.078125 7.515625 
Q 37.359375 7.515625 41.375 12.890625 
Q 45.40625 18.265625 45.40625 27.984375 
z
M 54.390625 6.78125 
Q 54.390625 -7.171875 48.1875 -13.984375 
Q 42 -20.796875 29.203125 -20.796875 
Q 24.46875 -20.796875 20.265625 -20.09375 
Q 16.0625 -19.390625 12.109375 -17.921875 
L 12.109375 -9.1875 
Q 16.0625 -11.328125 19.921875 -12.34375 
Q 23.78125 -13.375 27.78125 -13.375 
Q 36.625 -13.375 41.015625 -8.765625 
Q 45.40625 -4.15625 45.40625 5.171875 
L 45.40625 9.625 
Q 42.625 4.78125 38.28125 2.390625 
Q 33.9375 0 27.875 0 
Q 17.828125 0 11.671875 7.65625 
Q 5.515625 15.328125 5.515625 27.984375 
Q 5.515625 40.671875 11.671875 48.328125 
Q 17.828125 56 27.875 56 
Q 33.9375 56 38.28125 53.609375 
Q 42.625 51.21875 45.40625 46.390625 
L 45.40625 54.6875 
L 54.390625 54.6875 
z
" id="DejaVuSans-103"/>
      <path d="M 54.890625 33.015625 
L 54.890625 0 
L 45.90625 0 
L 45.90625 32.71875 
Q 45.90625 40.484375 42.875 44.328125 
Q 39.84375 48.1875 33.796875 48.1875 
Q 26.515625 48.1875 22.3125 43.546875 
Q 18.109375 38.921875 18.109375 30.90625 
L 18.109375 0 
L 9.078125 0 
L 9.078125 54.6875 
L 18.109375 54.6875 
L 18.109375 46.1875 
Q 21.34375 51.125 25.703125 53.5625 
Q 30.078125 56 35.796875 56 
Q 45.21875 56 50.046875 50.171875 
Q 54.890625 44.34375 54.890625 33.015625 
z
" id="DejaVuSans-110"/>
      <path d="M 34.28125 27.484375 
Q 23.390625 27.484375 19.1875 25 
Q 14.984375 22.515625 14.984375 16.5 
Q 14.984375 11.71875 18.140625 8.90625 
Q 21.296875 6.109375 26.703125 6.109375 
Q 34.1875 6.109375 38.703125 11.40625 
Q 43.21875 16.703125 43.21875 25.484375 
L 43.21875 27.484375 
z
M 52.203125 31.203125 
L 52.203125 0 
L 43.21875 0 
L 43.21875 8.296875 
Q 40.140625 3.328125 35.546875 0.953125 
Q 30.953125 -1.421875 24.3125 -1.421875 
Q 15.921875 -1.421875 10.953125 3.296875 
Q 6 8.015625 6 15.921875 
Q 6 25.140625 12.171875 29.828125 
Q 18.359375 34.515625 30.609375 34.515625 
L 43.21875 34.515625 
L 43.21875 35.40625 
Q 43.21875 41.609375 39.140625 45 
Q 35.0625 48.390625 27.6875 48.390625 
Q 23 48.390625 18.546875 47.265625 
Q 14.109375 46.140625 10.015625 43.890625 
L 10.015625 52.203125 
Q 14.9375 54.109375 19.578125 55.046875 
Q 24.21875 56 28.609375 56 
Q 40.484375 56 46.34375 49.84375 
Q 52.203125 43.703125 52.203125 31.203125 
z
" id="DejaVuSans-97"/>
      <path d="M 9.421875 75.984375 
L 18.40625 75.984375 
L 18.40625 0 
L 9.421875 0 
z
" id="DejaVuSans-108"/>
      <path d="M 52 44.1875 
Q 55.375 50.25 60.0625 53.125 
Q 64.75 56 71.09375 56 
Q 79.640625 56 84.28125 50.015625 
Q 88.921875 44.046875 88.921875 33.015625 
L 88.921875 0 
L 79.890625 0 
L 79.890625 32.71875 
Q 79.890625 40.578125 77.09375 44.375 
Q 74.3125 48.1875 68.609375 48.1875 
Q 61.625 48.1875 57.5625 43.546875 
Q 53.515625 38.921875 53.515625 30.90625 
L 53.515625 0 
L 44.484375 0 
L 44.484375 32.71875 
Q 44.484375 40.625 41.703125 44.40625 
Q 38.921875 48.1875 33.109375 48.1875 
Q 26.21875 48.1875 22.15625 43.53125 
Q 18.109375 38.875 18.109375 30.90625 
L 18.109375 0 
L 9.078125 0 
L 9.078125 54.6875 
L 18.109375 54.6875 
L 18.109375 46.1875 
Q 21.1875 51.21875 25.484375 53.609375 
Q 29.78125 56 35.6875 56 
Q 41.65625 56 45.828125 52.96875 
Q 50 49.953125 52 44.1875 
z
" id="DejaVuSans-109"/>
      <path d="M 18.3125 70.21875 
L 18.3125 54.6875 
L 36.8125 54.6875 
L 36.8125 47.703125 
L 18.3125 47.703125 
L 18.3125 18.015625 
Q 18.3125 11.328125 20.140625 9.421875 
Q 21.96875 7.515625 27.59375 7.515625 
L 36.8125 7.515625 
L 36.8125 0 
L 27.59375 0 
Q 17.1875 0 13.234375 3.875 
Q 9.28125 7.765625 9.28125 18.015625 
L 9.28125 47.703125 
L 2.6875 47.703125 
L 2.6875 54.6875 
L 9.28125 54.6875 
L 9.28125 70.21875 
z
" id="DejaVuSans-116"/>
      <path d="M 8.5 21.578125 
L 8.5 54.6875 
L 17.484375 54.6875 
L 17.484375 21.921875 
Q 17.484375 14.15625 20.5 10.265625 
Q 23.53125 6.390625 29.59375 6.390625 
Q 36.859375 6.390625 41.078125 11.03125 
Q 45.3125 15.671875 45.3125 23.6875 
L 45.3125 54.6875 
L 54.296875 54.6875 
L 54.296875 0 
L 45.3125 0 
L 45.3125 8.40625 
Q 42.046875 3.421875 37.71875 1 
Q 33.40625 -1.421875 27.6875 -1.421875 
Q 18.265625 -1.421875 13.375 4.4375 
Q 8.5 10.296875 8.5 21.578125 
z
M 31.109375 56 
z
" id="DejaVuSans-117"/>
      <path d="M 45.40625 46.390625 
L 45.40625 75.984375 
L 54.390625 75.984375 
L 54.390625 0 
L 45.40625 0 
L 45.40625 8.203125 
Q 42.578125 3.328125 38.25 0.953125 
Q 33.9375 -1.421875 27.875 -1.421875 
Q 17.96875 -1.421875 11.734375 6.484375 
Q 5.515625 14.40625 5.515625 27.296875 
Q 5.515625 40.1875 11.734375 48.09375 
Q 17.96875 56 27.875 56 
Q 33.9375 56 38.25 53.625 
Q 42.578125 51.265625 45.40625 46.390625 
z
M 14.796875 27.296875 
Q 14.796875 17.390625 18.875 11.75 
Q 22.953125 6.109375 30.078125 6.109375 
Q 37.203125 6.109375 41.296875 11.75 
Q 45.40625 17.390625 45.40625 27.296875 
Q 45.40625 37.203125 41.296875 42.84375 
Q 37.203125 48.484375 30.078125 48.484375 
Q 22.953125 48.484375 18.875 42.84375 
Q 14.796875 37.203125 14.796875 27.296875 
z
" id="DejaVuSans-100"/>
      <path d="M 56.203125 29.59375 
L 56.203125 25.203125 
L 14.890625 25.203125 
Q 15.484375 15.921875 20.484375 11.0625 
Q 25.484375 6.203125 34.421875 6.203125 
Q 39.59375 6.203125 44.453125 7.46875 
Q 49.3125 8.734375 54.109375 11.28125 
L 54.109375 2.78125 
Q 49.265625 0.734375 44.1875 -0.34375 
Q 39.109375 -1.421875 33.890625 -1.421875 
Q 20.796875 -1.421875 13.15625 6.1875 
Q 5.515625 13.8125 5.515625 26.8125 
Q 5.515625 40.234375 12.765625 48.109375 
Q 20.015625 56 32.328125 56 
Q 43.359375 56 49.78125 48.890625 
Q 56.203125 41.796875 56.203125 29.59375 
z
M 47.21875 32.234375 
Q 47.125 39.59375 43.09375 43.984375 
Q 39.0625 48.390625 32.421875 48.390625 
Q 24.90625 48.390625 20.390625 44.140625 
Q 15.875 39.890625 15.1875 32.171875 
z
" id="DejaVuSans-101"/>
     </defs>
     <g transform="translate(29.86 112.506)rotate(-90)scale(0.08 -0.08)">
      <use transform="translate(0 0.015625)" xlink:href="#DejaVuSans-916"/>
      <use transform="translate(68.408203 0.015625)" xlink:href="#DejaVuSans-32"/>
      <use transform="translate(100.195312 0.015625)" xlink:href="#DejaVuSans-83"/>
      <use transform="translate(163.671875 0.015625)" xlink:href="#DejaVuSans-105"/>
      <use transform="translate(191.455078 0.015625)" xlink:href="#DejaVuSans-103"/>
      <use transform="translate(254.931641 0.015625)" xlink:href="#DejaVuSans-110"/>
      <use transform="translate(318.310547 0.015625)" xlink:href="#DejaVuSans-97"/>
      <use transform="translate(379.589844 0.015625)" xlink:href="#DejaVuSans-108"/>
      <use transform="translate(407.373047 0.015625)" xlink:href="#DejaVuSans-32"/>
      <use transform="translate(439.160156 0.015625)" xlink:href="#DejaVuSans-109"/>
      <use transform="translate(536.572266 0.015625)" xlink:href="#DejaVuSans-97"/>
      <use transform="translate(597.851562 0.015625)" xlink:href="#DejaVuSans-103"/>
      <use transform="translate(661.328125 0.015625)" xlink:href="#DejaVuSans-110"/>
      <use transform="translate(724.707031 0.015625)" xlink:href="#DejaVuSans-105"/>
      <use transform="translate(752.490234 0.015625)" xlink:href="#DejaVuSans-116"/>
      <use transform="translate(791.699219 0.015625)" xlink:href="#DejaVuSans-117"/>
      <use transform="translate(855.078125 0.015625)" xlink:href="#DejaVuSans-100"/>
      <use transform="translate(918.554688 0.015625)" xlink:href="#DejaVuSans-101"/>
     </g>
    </g>
   </g>
   <g id="line2d_7">
    <path clip-path="url(#p9abed27391)" d="M 54.525386 77.447872 
L 55.464974 77.544522 
L 56.404563 77.641172 
L 57.344151 77.737822 
L 58.283739 77.834472 
L 59.223327 77.931121 
L 60.162915 78.027771 
L 61.102503 78.124421 
L 62.042092 78.221071 
L 62.98168 78.317721 
L 63.921268 78.414371 
L 64.860856 78.511021 
L 65.800444 78.60767 
L 66.740032 78.70432 
L 67.67962 78.80097 
L 68.619209 78.89762 
L 69.558797 78.99427 
L 70.498385 79.09092 
L 71.437973 79.187569 
L 72.377561 79.284219 
L 73.317149 79.380869 
L 74.256738 79.477519 
L 75.196326 79.574169 
L 76.135914 79.670819 
L 77.075502 79.767468 
L 78.01509 79.864118 
L 78.954678 79.960768 
L 79.894266 80.057418 
L 80.833855 80.154068 
L 81.773443 80.250718 
L 82.713031 80.347367 
L 83.652619 80.444017 
L 84.592207 80.540667 
L 85.531795 80.637317 
L 86.471384 80.733967 
L 87.410972 80.830617 
L 88.35056 80.927267 
L 89.290148 81.023916 
L 90.229736 81.120566 
L 91.169324 81.217216 
L 92.108913 81.313866 
L 93.048501 81.410516 
L 93.988089 81.507166 
L 94.927677 81.603815 
L 95.867265 81.700465 
L 96.806853 81.797115 
L 97.746441 81.893765 
L 98.68603 81.990415 
L 99.625618 82.087065 
L 100.565206 82.183714 
L 101.504794 82.280364 
L 102.444382 82.377014 
L 103.38397 82.473664 
L 104.323559 82.570314 
L 105.263147 82.666964 
L 106.202735 82.763614 
L 107.142323 82.860263 
L 108.081911 82.956913 
L 109.021499 83.053563 
L 109.961087 83.150213 
L 110.900676 83.246863 
L 111.840264 83.343513 
L 112.779852 83.440162 
L 113.71944 83.536812 
L 114.659028 83.633462 
L 115.598616 83.730112 
L 116.538205 83.826762 
L 117.477793 83.923412 
L 118.417381 84.020061 
L 119.356969 84.116711 
L 120.296557 84.213361 
L 121.236145 84.310011 
L 122.175734 84.406661 
L 123.115322 84.503311 
L 124.05491 84.599961 
L 124.994498 84.69661 
L 125.934086 84.79326 
L 126.873674 84.88991 
L 127.813262 84.98656 
L 128.752851 85.08321 
L 129.692439 85.17986 
L 130.632027 85.276509 
L 131.571615 85.373159 
L 132.511203 85.469809 
L 133.450791 85.566459 
L 134.39038 85.663109 
L 135.329968 85.759759 
L 136.269556 85.856408 
L 137.209144 85.953058 
L 138.148732 86.049708 
L 139.08832 86.146358 
L 140.027908 86.243008 
L 140.967497 86.339658 
L 141.907085 86.436308 
L 142.846673 86.532957 
L 143.786261 86.629607 
L 144.725849 86.726257 
L 145.665437 86.822907 
L 146.605026 86.919557 
L 147.544614 87.016207 
" style="fill:none;stroke:#1f77b4;stroke-linecap:square;stroke-width:2.25;"/>
   </g>
   <g id="line2d_8">
    <path clip-path="url(#p9abed27391)" d="M 47.63 101.644389 
L 154.44 101.644389 
" style="fill:none;stroke:#808080;stroke-dasharray:5.55,2.4;stroke-dashoffset:0;stroke-width:1.5;"/>
   </g>
   <g id="line2d_9">
    <path clip-path="url(#p9abed27391)" d="M 65.851847 121.38 
L 65.851847 25.152 
" style="fill:none;stroke:#808080;stroke-dasharray:5.55,2.4;stroke-dashoffset:0;stroke-width:1.5;"/>
   </g>
   <g id="patch_3">
    <path d="M 47.63 121.38 
L 47.63 25.152 
" style="fill:none;stroke:#000000;stroke-linecap:square;stroke-linejoin:miter;stroke-width:0.8;"/>
   </g>
   <g id="patch_4">
    <path d="M 47.63 121.38 
L 154.44 121.38 
" style="fill:none;stroke:#000000;stroke-linecap:square;stroke-linejoin:miter;stroke-width:0.8;"/>
   </g>
   <g id="text_7">
    <!-- $R^2$: -0.059, $p &gt; 0.05$ -->
    <defs>
     <path d="M 25.203125 64.796875 
L 20.21875 38.921875 
L 32.90625 38.921875 
Q 40.375 38.921875 44.984375 43.046875 
Q 49.609375 47.171875 49.609375 53.8125 
Q 49.609375 59.125 46.5 61.953125 
Q 43.40625 64.796875 37.59375 64.796875 
z
M 43.3125 35.015625 
Q 46.4375 34.28125 48.515625 31.390625 
Q 50.59375 28.515625 53.328125 19.921875 
L 59.515625 0 
L 49.125 0 
L 43.40625 18.703125 
Q 41.21875 25.921875 38.328125 28.359375 
Q 35.453125 30.8125 29.5 30.8125 
L 18.609375 30.8125 
L 12.59375 0 
L 2.6875 0 
L 16.890625 72.90625 
L 39.109375 72.90625 
Q 49.21875 72.90625 54.609375 68.328125 
Q 60.015625 63.765625 60.015625 55.171875 
Q 60.015625 47.5625 55.421875 41.984375 
Q 50.828125 36.421875 43.3125 35.015625 
z
" id="DejaVuSans-Oblique-82"/>
     <path d="M 11.71875 12.40625 
L 22.015625 12.40625 
L 22.015625 0 
L 11.71875 0 
z
M 11.71875 51.703125 
L 22.015625 51.703125 
L 22.015625 39.3125 
L 11.71875 39.3125 
z
" id="DejaVuSans-58"/>
     <path d="M 4.890625 31.390625 
L 31.203125 31.390625 
L 31.203125 23.390625 
L 4.890625 23.390625 
z
" id="DejaVuSans-45"/>
     <path d="M 10.6875 12.40625 
L 21 12.40625 
L 21 0 
L 10.6875 0 
z
" id="DejaVuSans-46"/>
     <path d="M 10.796875 72.90625 
L 49.515625 72.90625 
L 49.515625 64.59375 
L 19.828125 64.59375 
L 19.828125 46.734375 
Q 21.96875 47.46875 24.109375 47.828125 
Q 26.265625 48.1875 28.421875 48.1875 
Q 40.625 48.1875 47.75 41.5 
Q 54.890625 34.8125 54.890625 23.390625 
Q 54.890625 11.625 47.5625 5.09375 
Q 40.234375 -1.421875 26.90625 -1.421875 
Q 22.3125 -1.421875 17.546875 -0.640625 
Q 12.796875 0.140625 7.71875 1.703125 
L 7.71875 11.625 
Q 12.109375 9.234375 16.796875 8.0625 
Q 21.484375 6.890625 26.703125 6.890625 
Q 35.15625 6.890625 40.078125 11.328125 
Q 45.015625 15.765625 45.015625 23.390625 
Q 45.015625 31 40.078125 35.4375 
Q 35.15625 39.890625 26.703125 39.890625 
Q 22.75 39.890625 18.8125 39.015625 
Q 14.890625 38.140625 10.796875 36.28125 
z
" id="DejaVuSans-53"/>
     <path d="M 10.984375 1.515625 
L 10.984375 10.5 
Q 14.703125 8.734375 18.5 7.8125 
Q 22.3125 6.890625 25.984375 6.890625 
Q 35.75 6.890625 40.890625 13.453125 
Q 46.046875 20.015625 46.78125 33.40625 
Q 43.953125 29.203125 39.59375 26.953125 
Q 35.25 24.703125 29.984375 24.703125 
Q 19.046875 24.703125 12.671875 31.3125 
Q 6.296875 37.9375 6.296875 49.421875 
Q 6.296875 60.640625 12.9375 67.421875 
Q 19.578125 74.21875 30.609375 74.21875 
Q 43.265625 74.21875 49.921875 64.515625 
Q 56.59375 54.828125 56.59375 36.375 
Q 56.59375 19.140625 48.40625 8.859375 
Q 40.234375 -1.421875 26.421875 -1.421875 
Q 22.703125 -1.421875 18.890625 -0.6875 
Q 15.09375 0.046875 10.984375 1.515625 
z
M 30.609375 32.421875 
Q 37.25 32.421875 41.125 36.953125 
Q 45.015625 41.5 45.015625 49.421875 
Q 45.015625 57.28125 41.125 61.84375 
Q 37.25 66.40625 30.609375 66.40625 
Q 23.96875 66.40625 20.09375 61.84375 
Q 16.21875 57.28125 16.21875 49.421875 
Q 16.21875 41.5 20.09375 36.953125 
Q 23.96875 32.421875 30.609375 32.421875 
z
" id="DejaVuSans-57"/>
     <path d="M 11.71875 12.40625 
L 22.015625 12.40625 
L 22.015625 4 
L 14.015625 -11.625 
L 7.71875 -11.625 
L 11.71875 4 
z
" id="DejaVuSans-44"/>
     <path d="M 49.609375 33.6875 
Q 49.609375 40.875 46.484375 44.671875 
Q 43.359375 48.484375 37.5 48.484375 
Q 33.5 48.484375 29.859375 46.4375 
Q 26.21875 44.390625 23.390625 40.484375 
Q 20.609375 36.625 18.9375 31.15625 
Q 17.28125 25.6875 17.28125 20.3125 
Q 17.28125 13.484375 20.40625 9.796875 
Q 23.53125 6.109375 29.296875 6.109375 
Q 33.546875 6.109375 37.1875 8.109375 
Q 40.828125 10.109375 43.40625 13.921875 
Q 46.1875 17.921875 47.890625 23.34375 
Q 49.609375 28.765625 49.609375 33.6875 
z
M 21.78125 46.390625 
Q 25.390625 51.125 30.296875 53.5625 
Q 35.203125 56 41.21875 56 
Q 49.609375 56 54.25 50.5 
Q 58.890625 45.015625 58.890625 35.109375 
Q 58.890625 27 56 19.65625 
Q 53.125 12.3125 47.703125 6.5 
Q 44.09375 2.640625 39.546875 0.609375 
Q 35.015625 -1.421875 29.984375 -1.421875 
Q 24.171875 -1.421875 20.21875 1 
Q 16.265625 3.421875 14.3125 8.203125 
L 8.6875 -20.796875 
L -0.296875 -20.796875 
L 14.40625 54.6875 
L 23.390625 54.6875 
z
" id="DejaVuSans-Oblique-112"/>
     <path d="M 10.59375 49.21875 
L 10.59375 58.109375 
L 73.1875 35.40625 
L 73.1875 27.296875 
L 10.59375 4.59375 
L 10.59375 13.484375 
L 60.890625 31.296875 
z
" id="DejaVuSans-62"/>
    </defs>
    <g transform="translate(53.803 19.152)scale(0.096 -0.096)">
     <use transform="translate(0 0.765625)" xlink:href="#DejaVuSans-Oblique-82"/>
     <use transform="translate(76.499193 39.046875)scale(0.7)" xlink:href="#DejaVuSans-50"/>
     <use transform="translate(123.769701 0.765625)" xlink:href="#DejaVuSans-58"/>
     <use transform="translate(157.461107 0.765625)" xlink:href="#DejaVuSans-32"/>
     <use transform="translate(189.248216 0.765625)" xlink:href="#DejaVuSans-45"/>
     <use transform="translate(225.332201 0.765625)" xlink:href="#DejaVuSans-48"/>
     <use transform="translate(288.955247 0.765625)" xlink:href="#DejaVuSans-46"/>
     <use transform="translate(320.742357 0.765625)" xlink:href="#DejaVuSans-48"/>
     <use transform="translate(384.365404 0.765625)" xlink:href="#DejaVuSans-53"/>
     <use transform="translate(447.910326 0.765625)" xlink:href="#DejaVuSans-57"/>
     <use transform="translate(511.533372 0.765625)" xlink:href="#DejaVuSans-44"/>
     <use transform="translate(543.320482 0.765625)" xlink:href="#DejaVuSans-32"/>
     <use transform="translate(575.107591 0.765625)" xlink:href="#DejaVuSans-Oblique-112"/>
     <use transform="translate(658.066576 0.765625)" xlink:href="#DejaVuSans-62"/>
     <use transform="translate(761.33806 0.765625)" xlink:href="#DejaVuSans-48"/>
     <use transform="translate(824.961107 0.765625)" xlink:href="#DejaVuSans-46"/>
     <use transform="translate(856.748216 0.765625)" xlink:href="#DejaVuSans-48"/>
     <use transform="translate(920.371263 0.765625)" xlink:href="#DejaVuSans-53"/>
    </g>
   </g>
  </g>
  <g id="axes_2">
   <g id="patch_5">
    <path d="M 47.63 253.96 
L 154.44 253.96 
L 154.44 157.732 
L 47.63 157.732 
z
" style="fill:#ffffff;"/>
   </g>
   <g id="PathCollection_2">
    <defs>
     <path d="M 0 1.936492 
C 0.513564 1.936492 1.006162 1.732451 1.369306 1.369306 
C 1.732451 1.006162 1.936492 0.513564 1.936492 0 
C 1.936492 -0.513564 1.732451 -1.006162 1.369306 -1.369306 
C 1.006162 -1.732451 0.513564 -1.936492 0 -1.936492 
C -0.513564 -1.936492 -1.006162 -1.732451 -1.369306 -1.369306 
C -1.732451 -1.006162 -1.936492 -0.513564 -1.936492 0 
C -1.936492 0.513564 -1.732451 1.006162 -1.369306 1.369306 
C -1.006162 1.732451 -0.513564 1.936492 0 1.936492 
z
" id="mcdad3c532a" style="stroke:#ff7f0e;stroke-opacity:0.8;"/>
    </defs>
    <g clip-path="url(#pba95bc07d8)">
     <use style="fill:#ff7f0e;fill-opacity:0.8;stroke:#ff7f0e;stroke-opacity:0.8;" x="138.586807" xlink:href="#mcdad3c532a" y="208.350707"/>
     <use style="fill:#ff7f0e;fill-opacity:0.8;stroke:#ff7f0e;stroke-opacity:0.8;" x="138.131502" xlink:href="#mcdad3c532a" y="208.676185"/>
     <use style="fill:#ff7f0e;fill-opacity:0.8;stroke:#ff7f0e;stroke-opacity:0.8;" x="132.724761" xlink:href="#mcdad3c532a" y="208.299017"/>
     <use style="fill:#ff7f0e;fill-opacity:0.8;stroke:#ff7f0e;stroke-opacity:0.8;" x="134.147588" xlink:href="#mcdad3c532a" y="240.035153"/>
     <use style="fill:#ff7f0e;fill-opacity:0.8;stroke:#ff7f0e;stroke-opacity:0.8;" x="108.837284" xlink:href="#mcdad3c532a" y="214.172522"/>
     <use style="fill:#ff7f0e;fill-opacity:0.8;stroke:#ff7f0e;stroke-opacity:0.8;" x="104.208082" xlink:href="#mcdad3c532a" y="221.348631"/>
     <use style="fill:#ff7f0e;fill-opacity:0.8;stroke:#ff7f0e;stroke-opacity:0.8;" x="127.995951" xlink:href="#mcdad3c532a" y="227.693165"/>
     <use style="fill:#ff7f0e;fill-opacity:0.8;stroke:#ff7f0e;stroke-opacity:0.8;" x="142.450201" xlink:href="#mcdad3c532a" y="245.20742"/>
     <use style="fill:#ff7f0e;fill-opacity:0.8;stroke:#ff7f0e;stroke-opacity:0.8;" x="138.586807" xlink:href="#mcdad3c532a" y="225.175588"/>
     <use style="fill:#ff7f0e;fill-opacity:0.8;stroke:#ff7f0e;stroke-opacity:0.8;" x="138.131502" xlink:href="#mcdad3c532a" y="221.793114"/>
     <use style="fill:#ff7f0e;fill-opacity:0.8;stroke:#ff7f0e;stroke-opacity:0.8;" x="132.724761" xlink:href="#mcdad3c532a" y="210.951332"/>
     <use style="fill:#ff7f0e;fill-opacity:0.8;stroke:#ff7f0e;stroke-opacity:0.8;" x="134.147588" xlink:href="#mcdad3c532a" y="249.494348"/>
     <use style="fill:#ff7f0e;fill-opacity:0.8;stroke:#ff7f0e;stroke-opacity:0.8;" x="108.837284" xlink:href="#mcdad3c532a" y="215.785503"/>
     <use style="fill:#ff7f0e;fill-opacity:0.8;stroke:#ff7f0e;stroke-opacity:0.8;" x="104.208082" xlink:href="#mcdad3c532a" y="212.315258"/>
     <use style="fill:#ff7f0e;fill-opacity:0.8;stroke:#ff7f0e;stroke-opacity:0.8;" x="127.995951" xlink:href="#mcdad3c532a" y="231.688841"/>
     <use style="fill:#ff7f0e;fill-opacity:0.8;stroke:#ff7f0e;stroke-opacity:0.8;" x="142.450201" xlink:href="#mcdad3c532a" y="227.353144"/>
     <use style="fill:#ff7f0e;fill-opacity:0.8;stroke:#ff7f0e;stroke-opacity:0.8;" x="76.649477" xlink:href="#mcdad3c532a" y="211.77701"/>
     <use style="fill:#ff7f0e;fill-opacity:0.8;stroke:#ff7f0e;stroke-opacity:0.8;" x="88.201631" xlink:href="#mcdad3c532a" y="213.16337"/>
     <use style="fill:#ff7f0e;fill-opacity:0.8;stroke:#ff7f0e;stroke-opacity:0.8;" x="119.716041" xlink:href="#mcdad3c532a" y="211.230324"/>
     <use style="fill:#ff7f0e;fill-opacity:0.8;stroke:#ff7f0e;stroke-opacity:0.8;" x="134.991903" xlink:href="#mcdad3c532a" y="210.068099"/>
     <use style="fill:#ff7f0e;fill-opacity:0.8;stroke:#ff7f0e;stroke-opacity:0.8;" x="132.420415" xlink:href="#mcdad3c532a" y="214.413003"/>
     <use style="fill:#ff7f0e;fill-opacity:0.8;stroke:#ff7f0e;stroke-opacity:0.8;" x="118.943024" xlink:href="#mcdad3c532a" y="202.216837"/>
     <use style="fill:#ff7f0e;fill-opacity:0.8;stroke:#ff7f0e;stroke-opacity:0.8;" x="110.712124" xlink:href="#mcdad3c532a" y="220.685528"/>
     <use style="fill:#ff7f0e;fill-opacity:0.8;stroke:#ff7f0e;stroke-opacity:0.8;" x="120.963079" xlink:href="#mcdad3c532a" y="208.39993"/>
     <use style="fill:#ff7f0e;fill-opacity:0.8;stroke:#ff7f0e;stroke-opacity:0.8;" x="104.617041" xlink:href="#mcdad3c532a" y="205.031242"/>
     <use style="fill:#ff7f0e;fill-opacity:0.8;stroke:#ff7f0e;stroke-opacity:0.8;" x="104.280309" xlink:href="#mcdad3c532a" y="202.677487"/>
     <use style="fill:#ff7f0e;fill-opacity:0.8;stroke:#ff7f0e;stroke-opacity:0.8;" x="99.684882" xlink:href="#mcdad3c532a" y="204.067941"/>
     <use style="fill:#ff7f0e;fill-opacity:0.8;stroke:#ff7f0e;stroke-opacity:0.8;" x="126.536619" xlink:href="#mcdad3c532a" y="202.809112"/>
     <use style="fill:#ff7f0e;fill-opacity:0.8;stroke:#ff7f0e;stroke-opacity:0.8;" x="104.313613" xlink:href="#mcdad3c532a" y="197.824031"/>
     <use style="fill:#ff7f0e;fill-opacity:0.8;stroke:#ff7f0e;stroke-opacity:0.8;" x="117.207299" xlink:href="#mcdad3c532a" y="198.571298"/>
     <use style="fill:#ff7f0e;fill-opacity:0.8;stroke:#ff7f0e;stroke-opacity:0.8;" x="109.247485" xlink:href="#mcdad3c532a" y="211.364633"/>
     <use style="fill:#ff7f0e;fill-opacity:0.8;stroke:#ff7f0e;stroke-opacity:0.8;" x="132.347516" xlink:href="#mcdad3c532a" y="208.741132"/>
     <use style="fill:#ff7f0e;fill-opacity:0.8;stroke:#ff7f0e;stroke-opacity:0.8;" x="125.66134" xlink:href="#mcdad3c532a" y="212.564705"/>
     <use style="fill:#ff7f0e;fill-opacity:0.8;stroke:#ff7f0e;stroke-opacity:0.8;" x="129.155504" xlink:href="#mcdad3c532a" y="210.483395"/>
     <use style="fill:#ff7f0e;fill-opacity:0.8;stroke:#ff7f0e;stroke-opacity:0.8;" x="126.528481" xlink:href="#mcdad3c532a" y="208.339379"/>
     <use style="fill:#ff7f0e;fill-opacity:0.8;stroke:#ff7f0e;stroke-opacity:0.8;" x="107.358809" xlink:href="#mcdad3c532a" y="210.623766"/>
     <use style="fill:#ff7f0e;fill-opacity:0.8;stroke:#ff7f0e;stroke-opacity:0.8;" x="113.013845" xlink:href="#mcdad3c532a" y="213.130943"/>
     <use style="fill:#ff7f0e;fill-opacity:0.8;stroke:#ff7f0e;stroke-opacity:0.8;" x="111.495025" xlink:href="#mcdad3c532a" y="210.310097"/>
     <use style="fill:#ff7f0e;fill-opacity:0.8;stroke:#ff7f0e;stroke-opacity:0.8;" x="130.356768" xlink:href="#mcdad3c532a" y="212.769604"/>
     <use style="fill:#ff7f0e;fill-opacity:0.8;stroke:#ff7f0e;stroke-opacity:0.8;" x="116.112394" xlink:href="#mcdad3c532a" y="210.108513"/>
     <use style="fill:#ff7f0e;fill-opacity:0.8;stroke:#ff7f0e;stroke-opacity:0.8;" x="112.805167" xlink:href="#mcdad3c532a" y="219.44262"/>
     <use style="fill:#ff7f0e;fill-opacity:0.8;stroke:#ff7f0e;stroke-opacity:0.8;" x="67.590863" xlink:href="#mcdad3c532a" y="215.336258"/>
     <use style="fill:#ff7f0e;fill-opacity:0.8;stroke:#ff7f0e;stroke-opacity:0.8;" x="130.311218" xlink:href="#mcdad3c532a" y="221.285042"/>
     <use style="fill:#ff7f0e;fill-opacity:0.8;stroke:#ff7f0e;stroke-opacity:0.8;" x="116.862865" xlink:href="#mcdad3c532a" y="212.632342"/>
     <use style="fill:#ff7f0e;fill-opacity:0.8;stroke:#ff7f0e;stroke-opacity:0.8;" x="145.84639" xlink:href="#mcdad3c532a" y="213.742706"/>
     <use style="fill:#ff7f0e;fill-opacity:0.8;stroke:#ff7f0e;stroke-opacity:0.8;" x="120.893158" xlink:href="#mcdad3c532a" y="215.209062"/>
     <use style="fill:#ff7f0e;fill-opacity:0.8;stroke:#ff7f0e;stroke-opacity:0.8;" x="123.283776" xlink:href="#mcdad3c532a" y="215.343873"/>
     <use style="fill:#ff7f0e;fill-opacity:0.8;stroke:#ff7f0e;stroke-opacity:0.8;" x="115.381872" xlink:href="#mcdad3c532a" y="216.776133"/>
     <use style="fill:#ff7f0e;fill-opacity:0.8;stroke:#ff7f0e;stroke-opacity:0.8;" x="130.046836" xlink:href="#mcdad3c532a" y="212.643511"/>
     <use style="fill:#ff7f0e;fill-opacity:0.8;stroke:#ff7f0e;stroke-opacity:0.8;" x="119.809549" xlink:href="#mcdad3c532a" y="212.97044"/>
     <use style="fill:#ff7f0e;fill-opacity:0.8;stroke:#ff7f0e;stroke-opacity:0.8;" x="120.906916" xlink:href="#mcdad3c532a" y="227.758711"/>
     <use style="fill:#ff7f0e;fill-opacity:0.8;stroke:#ff7f0e;stroke-opacity:0.8;" x="61.380102" xlink:href="#mcdad3c532a" y="199.729946"/>
     <use style="fill:#ff7f0e;fill-opacity:0.8;stroke:#ff7f0e;stroke-opacity:0.8;" x="97.690675" xlink:href="#mcdad3c532a" y="201.876942"/>
     <use style="fill:#ff7f0e;fill-opacity:0.8;stroke:#ff7f0e;stroke-opacity:0.8;" x="101.178626" xlink:href="#mcdad3c532a" y="203.063311"/>
     <use style="fill:#ff7f0e;fill-opacity:0.8;stroke:#ff7f0e;stroke-opacity:0.8;" x="82.620893" xlink:href="#mcdad3c532a" y="210.39975"/>
     <use style="fill:#ff7f0e;fill-opacity:0.8;stroke:#ff7f0e;stroke-opacity:0.8;" x="86.645455" xlink:href="#mcdad3c532a" y="207.827043"/>
     <use style="fill:#ff7f0e;fill-opacity:0.8;stroke:#ff7f0e;stroke-opacity:0.8;" x="67.08543" xlink:href="#mcdad3c532a" y="210.937142"/>
     <use style="fill:#ff7f0e;fill-opacity:0.8;stroke:#ff7f0e;stroke-opacity:0.8;" x="141.624793" xlink:href="#mcdad3c532a" y="224.333344"/>
     <use style="fill:#ff7f0e;fill-opacity:0.8;stroke:#ff7f0e;stroke-opacity:0.8;" x="141.408918" xlink:href="#mcdad3c532a" y="232.006338"/>
     <use style="fill:#ff7f0e;fill-opacity:0.8;stroke:#ff7f0e;stroke-opacity:0.8;" x="84.773335" xlink:href="#mcdad3c532a" y="214.663293"/>
     <use style="fill:#ff7f0e;fill-opacity:0.8;stroke:#ff7f0e;stroke-opacity:0.8;" x="147.544614" xlink:href="#mcdad3c532a" y="193.979809"/>
     <use style="fill:#ff7f0e;fill-opacity:0.8;stroke:#ff7f0e;stroke-opacity:0.8;" x="139.996043" xlink:href="#mcdad3c532a" y="219.182095"/>
     <use style="fill:#ff7f0e;fill-opacity:0.8;stroke:#ff7f0e;stroke-opacity:0.8;" x="69.380457" xlink:href="#mcdad3c532a" y="193.787535"/>
     <use style="fill:#ff7f0e;fill-opacity:0.8;stroke:#ff7f0e;stroke-opacity:0.8;" x="135.85498" xlink:href="#mcdad3c532a" y="209.854777"/>
     <use style="fill:#ff7f0e;fill-opacity:0.8;stroke:#ff7f0e;stroke-opacity:0.8;" x="111.019873" xlink:href="#mcdad3c532a" y="230.906782"/>
     <use style="fill:#ff7f0e;fill-opacity:0.8;stroke:#ff7f0e;stroke-opacity:0.8;" x="143.104219" xlink:href="#mcdad3c532a" y="236.526821"/>
     <use style="fill:#ff7f0e;fill-opacity:0.8;stroke:#ff7f0e;stroke-opacity:0.8;" x="54.525386" xlink:href="#mcdad3c532a" y="162.197652"/>
     <use style="fill:#ff7f0e;fill-opacity:0.8;stroke:#ff7f0e;stroke-opacity:0.8;" x="111.981428" xlink:href="#mcdad3c532a" y="222.448884"/>
    </g>
   </g>
   <g id="PolyCollection_2">
    <path clip-path="url(#pba95bc07d8)" d="M 54.525386 185.259764 
L 54.525386 206.271943 
L 55.464974 206.382917 
L 56.404563 206.493891 
L 57.344151 206.604864 
L 58.283739 206.715838 
L 59.223327 206.826811 
L 60.162915 206.937785 
L 61.102503 207.055223 
L 62.042092 207.184284 
L 62.98168 207.307774 
L 63.921268 207.41049 
L 64.860856 207.513206 
L 65.800444 207.615921 
L 66.740032 207.718637 
L 67.67962 207.82985 
L 68.619209 207.956585 
L 69.558797 208.109904 
L 70.498385 208.263223 
L 71.437973 208.413764 
L 72.377561 208.520789 
L 73.317149 208.626444 
L 74.256738 208.731899 
L 75.196326 208.837353 
L 76.135914 208.951214 
L 77.075502 209.104049 
L 78.01509 209.256612 
L 78.954678 209.407629 
L 79.894266 209.558646 
L 80.833855 209.709663 
L 81.773443 209.86068 
L 82.713031 210.011697 
L 83.652619 210.151562 
L 84.592207 210.305386 
L 85.531795 210.409824 
L 86.471384 210.559175 
L 87.410972 210.70818 
L 88.35056 210.866545 
L 89.290148 211.024702 
L 90.229736 211.18089 
L 91.169324 211.275375 
L 92.108913 211.416086 
L 93.048501 211.609575 
L 93.988089 211.792648 
L 94.927677 211.893814 
L 95.867265 212.049248 
L 96.806853 212.198318 
L 97.746441 212.360105 
L 98.68603 212.541493 
L 99.625618 212.704932 
L 100.565206 212.839953 
L 101.504794 213.040874 
L 102.444382 213.180453 
L 103.38397 213.359192 
L 104.323559 213.501737 
L 105.263147 213.679192 
L 106.202735 213.957961 
L 107.142323 214.12 
L 108.081911 214.324154 
L 109.021499 214.573731 
L 109.961087 214.754832 
L 110.900676 214.97755 
L 111.840264 215.150474 
L 112.779852 215.450968 
L 113.71944 215.707487 
L 114.659028 215.963856 
L 115.598616 216.163181 
L 116.538205 216.406094 
L 117.477793 216.696329 
L 118.417381 216.965464 
L 119.356969 217.317248 
L 120.296557 217.607571 
L 121.236145 217.913855 
L 122.175734 218.320882 
L 123.115322 218.602562 
L 124.05491 218.962606 
L 124.994498 219.358745 
L 125.934086 219.682708 
L 126.873674 219.996894 
L 127.813262 220.305518 
L 128.752851 220.638752 
L 129.692439 221.086173 
L 130.632027 221.469257 
L 131.571615 221.835082 
L 132.511203 222.200906 
L 133.450791 222.555003 
L 134.39038 222.904596 
L 135.329968 223.300232 
L 136.269556 223.69166 
L 137.209144 224.056555 
L 138.148732 224.463167 
L 139.08832 224.84649 
L 140.027908 225.261135 
L 140.967497 225.666914 
L 141.907085 226.07087 
L 142.846673 226.482896 
L 143.786261 226.843289 
L 144.725849 227.189265 
L 145.665437 227.535241 
L 146.605026 227.881217 
L 147.544614 228.288704 
L 147.544614 216.604994 
L 147.544614 216.604994 
L 146.605026 216.507859 
L 145.665437 216.390025 
L 144.725849 216.264385 
L 143.786261 216.138745 
L 142.846673 215.980945 
L 141.907085 215.877695 
L 140.967497 215.740767 
L 140.027908 215.575527 
L 139.08832 215.485037 
L 138.148732 215.335599 
L 137.209144 215.200159 
L 136.269556 215.076253 
L 135.329968 214.950404 
L 134.39038 214.838118 
L 133.450791 214.748165 
L 132.511203 214.574961 
L 131.571615 214.440133 
L 130.632027 214.265753 
L 129.692439 214.127855 
L 128.752851 213.94694 
L 127.813262 213.780805 
L 126.873674 213.512587 
L 125.934086 213.292871 
L 124.994498 213.139706 
L 124.05491 212.960969 
L 123.115322 212.721163 
L 122.175734 212.484754 
L 121.236145 212.279203 
L 120.296557 212.050258 
L 119.356969 211.852923 
L 118.417381 211.651305 
L 117.477793 211.360157 
L 116.538205 211.073016 
L 115.598616 210.842818 
L 114.659028 210.55917 
L 113.71944 210.276072 
L 112.779852 209.991791 
L 111.840264 209.669202 
L 110.900676 209.376105 
L 109.961087 209.026466 
L 109.021499 208.641981 
L 108.081911 208.309391 
L 107.142323 207.979435 
L 106.202735 207.647778 
L 105.263147 207.344044 
L 104.323559 206.975701 
L 103.38397 206.580663 
L 102.444382 206.214162 
L 101.504794 205.786686 
L 100.565206 205.411534 
L 99.625618 204.980346 
L 98.68603 204.545536 
L 97.746441 204.144062 
L 96.806853 203.700411 
L 95.867265 203.25676 
L 94.927677 202.851011 
L 93.988089 202.443373 
L 93.048501 202.103417 
L 92.108913 201.785111 
L 91.169324 201.468406 
L 90.229736 201.142296 
L 89.290148 200.714289 
L 88.35056 200.286281 
L 87.410972 199.932391 
L 86.471384 199.519111 
L 85.531795 199.178855 
L 84.592207 198.760042 
L 83.652619 198.343121 
L 82.713031 197.92498 
L 81.773443 197.505218 
L 80.833855 197.085456 
L 79.894266 196.666253 
L 78.954678 196.24833 
L 78.01509 195.791019 
L 77.075502 195.34608 
L 76.135914 194.955185 
L 75.196326 194.523202 
L 74.256738 194.140114 
L 73.317149 193.735306 
L 72.377561 193.315219 
L 71.437973 192.895133 
L 70.498385 192.475046 
L 69.558797 192.055343 
L 68.619209 191.636414 
L 67.67962 191.217485 
L 66.740032 190.798556 
L 65.800444 190.379627 
L 64.860856 189.961018 
L 63.921268 189.543154 
L 62.98168 189.12529 
L 62.042092 188.707426 
L 61.102503 188.266633 
L 60.162915 187.813116 
L 59.223327 187.359598 
L 58.283739 186.906081 
L 57.344151 186.452563 
L 56.404563 186.039231 
L 55.464974 185.649497 
L 54.525386 185.259764 
z
" style="fill:#ff7f0e;fill-opacity:0.15;"/>
   </g>
   <g id="matplotlib.axis_3">
    <g id="xtick_3">
     <g id="line2d_10">
      <g>
       <use style="stroke:#000000;stroke-width:0.8;" x="84.633175" xlink:href="#ma374c9d261" y="253.96"/>
      </g>
     </g>
     <g id="text_8">
      <!-- 0.6 -->
      <defs>
       <path d="M 33.015625 40.375 
Q 26.375 40.375 22.484375 35.828125 
Q 18.609375 31.296875 18.609375 23.390625 
Q 18.609375 15.53125 22.484375 10.953125 
Q 26.375 6.390625 33.015625 6.390625 
Q 39.65625 6.390625 43.53125 10.953125 
Q 47.40625 15.53125 47.40625 23.390625 
Q 47.40625 31.296875 43.53125 35.828125 
Q 39.65625 40.375 33.015625 40.375 
z
M 52.59375 71.296875 
L 52.59375 62.3125 
Q 48.875 64.0625 45.09375 64.984375 
Q 41.3125 65.921875 37.59375 65.921875 
Q 27.828125 65.921875 22.671875 59.328125 
Q 17.53125 52.734375 16.796875 39.40625 
Q 19.671875 43.65625 24.015625 45.921875 
Q 28.375 48.1875 33.59375 48.1875 
Q 44.578125 48.1875 50.953125 41.515625 
Q 57.328125 34.859375 57.328125 23.390625 
Q 57.328125 12.15625 50.6875 5.359375 
Q 44.046875 -1.421875 33.015625 -1.421875 
Q 20.359375 -1.421875 13.671875 8.265625 
Q 6.984375 17.96875 6.984375 36.375 
Q 6.984375 53.65625 15.1875 63.9375 
Q 23.390625 74.21875 37.203125 74.21875 
Q 40.921875 74.21875 44.703125 73.484375 
Q 48.484375 72.75 52.59375 71.296875 
z
" id="DejaVuSans-54"/>
      </defs>
      <g transform="translate(78.271925 267.03875)scale(0.08 -0.08)">
       <use xlink:href="#DejaVuSans-48"/>
       <use x="63.623047" xlink:href="#DejaVuSans-46"/>
       <use x="95.410156" xlink:href="#DejaVuSans-54"/>
      </g>
     </g>
    </g>
    <g id="xtick_4">
     <g id="line2d_11">
      <g>
       <use style="stroke:#000000;stroke-width:0.8;" x="122.195832" xlink:href="#ma374c9d261" y="253.96"/>
      </g>
     </g>
     <g id="text_9">
      <!-- 0.8 -->
      <defs>
       <path d="M 31.78125 34.625 
Q 24.75 34.625 20.71875 30.859375 
Q 16.703125 27.09375 16.703125 20.515625 
Q 16.703125 13.921875 20.71875 10.15625 
Q 24.75 6.390625 31.78125 6.390625 
Q 38.8125 6.390625 42.859375 10.171875 
Q 46.921875 13.96875 46.921875 20.515625 
Q 46.921875 27.09375 42.890625 30.859375 
Q 38.875 34.625 31.78125 34.625 
z
M 21.921875 38.8125 
Q 15.578125 40.375 12.03125 44.71875 
Q 8.5 49.078125 8.5 55.328125 
Q 8.5 64.0625 14.71875 69.140625 
Q 20.953125 74.21875 31.78125 74.21875 
Q 42.671875 74.21875 48.875 69.140625 
Q 55.078125 64.0625 55.078125 55.328125 
Q 55.078125 49.078125 51.53125 44.71875 
Q 48 40.375 41.703125 38.8125 
Q 48.828125 37.15625 52.796875 32.3125 
Q 56.78125 27.484375 56.78125 20.515625 
Q 56.78125 9.90625 50.3125 4.234375 
Q 43.84375 -1.421875 31.78125 -1.421875 
Q 19.734375 -1.421875 13.25 4.234375 
Q 6.78125 9.90625 6.78125 20.515625 
Q 6.78125 27.484375 10.78125 32.3125 
Q 14.796875 37.15625 21.921875 38.8125 
z
M 18.3125 54.390625 
Q 18.3125 48.734375 21.84375 45.5625 
Q 25.390625 42.390625 31.78125 42.390625 
Q 38.140625 42.390625 41.71875 45.5625 
Q 45.3125 48.734375 45.3125 54.390625 
Q 45.3125 60.0625 41.71875 63.234375 
Q 38.140625 66.40625 31.78125 66.40625 
Q 25.390625 66.40625 21.84375 63.234375 
Q 18.3125 60.0625 18.3125 54.390625 
z
" id="DejaVuSans-56"/>
      </defs>
      <g transform="translate(115.834582 267.03875)scale(0.08 -0.08)">
       <use xlink:href="#DejaVuSans-48"/>
       <use x="63.623047" xlink:href="#DejaVuSans-46"/>
       <use x="95.410156" xlink:href="#DejaVuSans-56"/>
      </g>
     </g>
    </g>
    <g id="text_10">
     <!-- Behavior performance (DI) -->
     <defs>
      <path d="M 19.671875 34.8125 
L 19.671875 8.109375 
L 35.5 8.109375 
Q 43.453125 8.109375 47.28125 11.40625 
Q 51.125 14.703125 51.125 21.484375 
Q 51.125 28.328125 47.28125 31.5625 
Q 43.453125 34.8125 35.5 34.8125 
z
M 19.671875 64.796875 
L 19.671875 42.828125 
L 34.28125 42.828125 
Q 41.5 42.828125 45.03125 45.53125 
Q 48.578125 48.25 48.578125 53.8125 
Q 48.578125 59.328125 45.03125 62.0625 
Q 41.5 64.796875 34.28125 64.796875 
z
M 9.8125 72.90625 
L 35.015625 72.90625 
Q 46.296875 72.90625 52.390625 68.21875 
Q 58.5 63.53125 58.5 54.890625 
Q 58.5 48.1875 55.375 44.234375 
Q 52.25 40.28125 46.1875 39.3125 
Q 53.46875 37.75 57.5 32.78125 
Q 61.53125 27.828125 61.53125 20.40625 
Q 61.53125 10.640625 54.890625 5.3125 
Q 48.25 0 35.984375 0 
L 9.8125 0 
z
" id="DejaVuSans-66"/>
      <path d="M 54.890625 33.015625 
L 54.890625 0 
L 45.90625 0 
L 45.90625 32.71875 
Q 45.90625 40.484375 42.875 44.328125 
Q 39.84375 48.1875 33.796875 48.1875 
Q 26.515625 48.1875 22.3125 43.546875 
Q 18.109375 38.921875 18.109375 30.90625 
L 18.109375 0 
L 9.078125 0 
L 9.078125 75.984375 
L 18.109375 75.984375 
L 18.109375 46.1875 
Q 21.34375 51.125 25.703125 53.5625 
Q 30.078125 56 35.796875 56 
Q 45.21875 56 50.046875 50.171875 
Q 54.890625 44.34375 54.890625 33.015625 
z
" id="DejaVuSans-104"/>
      <path d="M 2.984375 54.6875 
L 12.5 54.6875 
L 29.59375 8.796875 
L 46.6875 54.6875 
L 56.203125 54.6875 
L 35.6875 0 
L 23.484375 0 
z
" id="DejaVuSans-118"/>
      <path d="M 30.609375 48.390625 
Q 23.390625 48.390625 19.1875 42.75 
Q 14.984375 37.109375 14.984375 27.296875 
Q 14.984375 17.484375 19.15625 11.84375 
Q 23.34375 6.203125 30.609375 6.203125 
Q 37.796875 6.203125 41.984375 11.859375 
Q 46.1875 17.53125 46.1875 27.296875 
Q 46.1875 37.015625 41.984375 42.703125 
Q 37.796875 48.390625 30.609375 48.390625 
z
M 30.609375 56 
Q 42.328125 56 49.015625 48.375 
Q 55.71875 40.765625 55.71875 27.296875 
Q 55.71875 13.875 49.015625 6.21875 
Q 42.328125 -1.421875 30.609375 -1.421875 
Q 18.84375 -1.421875 12.171875 6.21875 
Q 5.515625 13.875 5.515625 27.296875 
Q 5.515625 40.765625 12.171875 48.375 
Q 18.84375 56 30.609375 56 
z
" id="DejaVuSans-111"/>
      <path d="M 41.109375 46.296875 
Q 39.59375 47.171875 37.8125 47.578125 
Q 36.03125 48 33.890625 48 
Q 26.265625 48 22.1875 43.046875 
Q 18.109375 38.09375 18.109375 28.8125 
L 18.109375 0 
L 9.078125 0 
L 9.078125 54.6875 
L 18.109375 54.6875 
L 18.109375 46.1875 
Q 20.953125 51.171875 25.484375 53.578125 
Q 30.03125 56 36.53125 56 
Q 37.453125 56 38.578125 55.875 
Q 39.703125 55.765625 41.0625 55.515625 
z
" id="DejaVuSans-114"/>
      <path d="M 18.109375 8.203125 
L 18.109375 -20.796875 
L 9.078125 -20.796875 
L 9.078125 54.6875 
L 18.109375 54.6875 
L 18.109375 46.390625 
Q 20.953125 51.265625 25.265625 53.625 
Q 29.59375 56 35.59375 56 
Q 45.5625 56 51.78125 48.09375 
Q 58.015625 40.1875 58.015625 27.296875 
Q 58.015625 14.40625 51.78125 6.484375 
Q 45.5625 -1.421875 35.59375 -1.421875 
Q 29.59375 -1.421875 25.265625 0.953125 
Q 20.953125 3.328125 18.109375 8.203125 
z
M 48.6875 27.296875 
Q 48.6875 37.203125 44.609375 42.84375 
Q 40.53125 48.484375 33.40625 48.484375 
Q 26.265625 48.484375 22.1875 42.84375 
Q 18.109375 37.203125 18.109375 27.296875 
Q 18.109375 17.390625 22.1875 11.75 
Q 26.265625 6.109375 33.40625 6.109375 
Q 40.53125 6.109375 44.609375 11.75 
Q 48.6875 17.390625 48.6875 27.296875 
z
" id="DejaVuSans-112"/>
      <path d="M 37.109375 75.984375 
L 37.109375 68.5 
L 28.515625 68.5 
Q 23.6875 68.5 21.796875 66.546875 
Q 19.921875 64.59375 19.921875 59.515625 
L 19.921875 54.6875 
L 34.71875 54.6875 
L 34.71875 47.703125 
L 19.921875 47.703125 
L 19.921875 0 
L 10.890625 0 
L 10.890625 47.703125 
L 2.296875 47.703125 
L 2.296875 54.6875 
L 10.890625 54.6875 
L 10.890625 58.5 
Q 10.890625 67.625 15.140625 71.796875 
Q 19.390625 75.984375 28.609375 75.984375 
z
" id="DejaVuSans-102"/>
      <path d="M 48.78125 52.59375 
L 48.78125 44.1875 
Q 44.96875 46.296875 41.140625 47.34375 
Q 37.3125 48.390625 33.40625 48.390625 
Q 24.65625 48.390625 19.8125 42.84375 
Q 14.984375 37.3125 14.984375 27.296875 
Q 14.984375 17.28125 19.8125 11.734375 
Q 24.65625 6.203125 33.40625 6.203125 
Q 37.3125 6.203125 41.140625 7.25 
Q 44.96875 8.296875 48.78125 10.40625 
L 48.78125 2.09375 
Q 45.015625 0.34375 40.984375 -0.53125 
Q 36.96875 -1.421875 32.421875 -1.421875 
Q 20.0625 -1.421875 12.78125 6.34375 
Q 5.515625 14.109375 5.515625 27.296875 
Q 5.515625 40.671875 12.859375 48.328125 
Q 20.21875 56 33.015625 56 
Q 37.15625 56 41.109375 55.140625 
Q 45.0625 54.296875 48.78125 52.59375 
z
" id="DejaVuSans-99"/>
      <path d="M 31 75.875 
Q 24.46875 64.65625 21.28125 53.65625 
Q 18.109375 42.671875 18.109375 31.390625 
Q 18.109375 20.125 21.3125 9.0625 
Q 24.515625 -2 31 -13.1875 
L 23.1875 -13.1875 
Q 15.875 -1.703125 12.234375 9.375 
Q 8.59375 20.453125 8.59375 31.390625 
Q 8.59375 42.28125 12.203125 53.3125 
Q 15.828125 64.359375 23.1875 75.875 
z
" id="DejaVuSans-40"/>
      <path d="M 8.015625 75.875 
L 15.828125 75.875 
Q 23.140625 64.359375 26.78125 53.3125 
Q 30.421875 42.28125 30.421875 31.390625 
Q 30.421875 20.453125 26.78125 9.375 
Q 23.140625 -1.703125 15.828125 -13.1875 
L 8.015625 -13.1875 
Q 14.5 -2 17.703125 9.0625 
Q 20.90625 20.125 20.90625 31.390625 
Q 20.90625 42.671875 17.703125 53.65625 
Q 14.5 64.65625 8.015625 75.875 
z
" id="DejaVuSans-41"/>
     </defs>
     <g transform="translate(47.66125 278.78125)scale(0.08 -0.08)">
      <use xlink:href="#DejaVuSans-66"/>
      <use x="68.603516" xlink:href="#DejaVuSans-101"/>
      <use x="130.126953" xlink:href="#DejaVuSans-104"/>
      <use x="193.505859" xlink:href="#DejaVuSans-97"/>
      <use x="254.785156" xlink:href="#DejaVuSans-118"/>
      <use x="313.964844" xlink:href="#DejaVuSans-105"/>
      <use x="341.748047" xlink:href="#DejaVuSans-111"/>
      <use x="402.929688" xlink:href="#DejaVuSans-114"/>
      <use x="444.042969" xlink:href="#DejaVuSans-32"/>
      <use x="475.830078" xlink:href="#DejaVuSans-112"/>
      <use x="539.306641" xlink:href="#DejaVuSans-101"/>
      <use x="600.830078" xlink:href="#DejaVuSans-114"/>
      <use x="641.943359" xlink:href="#DejaVuSans-102"/>
      <use x="677.148438" xlink:href="#DejaVuSans-111"/>
      <use x="738.330078" xlink:href="#DejaVuSans-114"/>
      <use x="779.427734" xlink:href="#DejaVuSans-109"/>
      <use x="876.839844" xlink:href="#DejaVuSans-97"/>
      <use x="938.119141" xlink:href="#DejaVuSans-110"/>
      <use x="1001.498047" xlink:href="#DejaVuSans-99"/>
      <use x="1056.478516" xlink:href="#DejaVuSans-101"/>
      <use x="1118.001953" xlink:href="#DejaVuSans-32"/>
      <use x="1149.789062" xlink:href="#DejaVuSans-40"/>
      <use x="1188.802734" xlink:href="#DejaVuSans-68"/>
      <use x="1265.804688" xlink:href="#DejaVuSans-73"/>
      <use x="1295.296875" xlink:href="#DejaVuSans-41"/>
     </g>
    </g>
   </g>
   <g id="matplotlib.axis_4">
    <g id="ytick_5">
     <g id="line2d_12">
      <g>
       <use style="stroke:#000000;stroke-width:0.8;" x="47.63" xlink:href="#m2021cd0f60" y="244.27289"/>
      </g>
     </g>
     <g id="text_11">
      <!-- 5.0 -->
      <defs>
       <path d="M 10.59375 35.5 
L 73.1875 35.5 
L 73.1875 27.203125 
L 10.59375 27.203125 
z
" id="DejaVuSans-8722"/>
      </defs>
      <g transform="translate(21.20375 247.312265)scale(0.08 -0.08)">
       <use xlink:href="#DejaVuSans-8722"/>
       <use x="83.789062" xlink:href="#DejaVuSans-53"/>
       <use x="147.412109" xlink:href="#DejaVuSans-46"/>
       <use x="179.199219" xlink:href="#DejaVuSans-48"/>
      </g>
     </g>
    </g>
    <g id="ytick_6">
     <g id="line2d_13">
      <g>
       <use style="stroke:#000000;stroke-width:0.8;" x="47.63" xlink:href="#m2021cd0f60" y="227.707784"/>
      </g>
     </g>
     <g id="text_12">
      <!-- 2.5 -->
      <g transform="translate(21.20375 230.747159)scale(0.08 -0.08)">
       <use xlink:href="#DejaVuSans-8722"/>
       <use x="83.789062" xlink:href="#DejaVuSans-50"/>
       <use x="147.412109" xlink:href="#DejaVuSans-46"/>
       <use x="179.199219" xlink:href="#DejaVuSans-53"/>
      </g>
     </g>
    </g>
    <g id="ytick_7">
     <g id="line2d_14">
      <g>
       <use style="stroke:#000000;stroke-width:0.8;" x="47.63" xlink:href="#m2021cd0f60" y="211.142678"/>
      </g>
     </g>
     <g id="text_13">
      <!-- 0.0 -->
      <g transform="translate(27.9075 214.182053)scale(0.08 -0.08)">
       <use xlink:href="#DejaVuSans-48"/>
       <use x="63.623047" xlink:href="#DejaVuSans-46"/>
       <use x="95.410156" xlink:href="#DejaVuSans-48"/>
      </g>
     </g>
    </g>
    <g id="ytick_8">
     <g id="line2d_15">
      <g>
       <use style="stroke:#000000;stroke-width:0.8;" x="47.63" xlink:href="#m2021cd0f60" y="194.577572"/>
      </g>
     </g>
     <g id="text_14">
      <!-- 2.5 -->
      <g transform="translate(27.9075 197.616947)scale(0.08 -0.08)">
       <use xlink:href="#DejaVuSans-50"/>
       <use x="63.623047" xlink:href="#DejaVuSans-46"/>
       <use x="95.410156" xlink:href="#DejaVuSans-53"/>
      </g>
     </g>
    </g>
    <g id="ytick_9">
     <g id="line2d_16">
      <g>
       <use style="stroke:#000000;stroke-width:0.8;" x="47.63" xlink:href="#m2021cd0f60" y="178.012466"/>
      </g>
     </g>
     <g id="text_15">
      <!-- 5.0 -->
      <g transform="translate(27.9075 181.051841)scale(0.08 -0.08)">
       <use xlink:href="#DejaVuSans-53"/>
       <use x="63.623047" xlink:href="#DejaVuSans-46"/>
       <use x="95.410156" xlink:href="#DejaVuSans-48"/>
      </g>
     </g>
    </g>
    <g id="ytick_10">
     <g id="line2d_17">
      <g>
       <use style="stroke:#000000;stroke-width:0.8;" x="47.63" xlink:href="#m2021cd0f60" y="161.44736"/>
      </g>
     </g>
     <g id="text_16">
      <!-- 7.5 -->
      <defs>
       <path d="M 8.203125 72.90625 
L 55.078125 72.90625 
L 55.078125 68.703125 
L 28.609375 0 
L 18.3125 0 
L 43.21875 64.59375 
L 8.203125 64.59375 
z
" id="DejaVuSans-55"/>
      </defs>
      <g transform="translate(27.9075 164.486735)scale(0.08 -0.08)">
       <use xlink:href="#DejaVuSans-55"/>
       <use x="63.623047" xlink:href="#DejaVuSans-46"/>
       <use x="95.410156" xlink:href="#DejaVuSans-53"/>
      </g>
     </g>
    </g>
    <g id="text_17">
     <!-- $\Delta$ Shared noise variance -->
     <defs>
      <path d="M 44.28125 53.078125 
L 44.28125 44.578125 
Q 40.484375 46.53125 36.375 47.5 
Q 32.28125 48.484375 27.875 48.484375 
Q 21.1875 48.484375 17.84375 46.4375 
Q 14.5 44.390625 14.5 40.28125 
Q 14.5 37.15625 16.890625 35.375 
Q 19.28125 33.59375 26.515625 31.984375 
L 29.59375 31.296875 
Q 39.15625 29.25 43.1875 25.515625 
Q 47.21875 21.78125 47.21875 15.09375 
Q 47.21875 7.46875 41.1875 3.015625 
Q 35.15625 -1.421875 24.609375 -1.421875 
Q 20.21875 -1.421875 15.453125 -0.5625 
Q 10.6875 0.296875 5.421875 2 
L 5.421875 11.28125 
Q 10.40625 8.6875 15.234375 7.390625 
Q 20.0625 6.109375 24.8125 6.109375 
Q 31.15625 6.109375 34.5625 8.28125 
Q 37.984375 10.453125 37.984375 14.40625 
Q 37.984375 18.0625 35.515625 20.015625 
Q 33.0625 21.96875 24.703125 23.78125 
L 21.578125 24.515625 
Q 13.234375 26.265625 9.515625 29.90625 
Q 5.8125 33.546875 5.8125 39.890625 
Q 5.8125 47.609375 11.28125 51.796875 
Q 16.75 56 26.8125 56 
Q 31.78125 56 36.171875 55.265625 
Q 40.578125 54.546875 44.28125 53.078125 
z
" id="DejaVuSans-115"/>
     </defs>
     <g transform="translate(15.54 254.446)rotate(-90)scale(0.08 -0.08)">
      <use transform="translate(0 0.015625)" xlink:href="#DejaVuSans-916"/>
      <use transform="translate(68.408203 0.015625)" xlink:href="#DejaVuSans-32"/>
      <use transform="translate(100.195312 0.015625)" xlink:href="#DejaVuSans-83"/>
      <use transform="translate(163.671875 0.015625)" xlink:href="#DejaVuSans-104"/>
      <use transform="translate(227.050781 0.015625)" xlink:href="#DejaVuSans-97"/>
      <use transform="translate(288.330078 0.015625)" xlink:href="#DejaVuSans-114"/>
      <use transform="translate(329.443359 0.015625)" xlink:href="#DejaVuSans-101"/>
      <use transform="translate(390.966797 0.015625)" xlink:href="#DejaVuSans-100"/>
      <use transform="translate(454.443359 0.015625)" xlink:href="#DejaVuSans-32"/>
      <use transform="translate(486.230469 0.015625)" xlink:href="#DejaVuSans-110"/>
      <use transform="translate(549.609375 0.015625)" xlink:href="#DejaVuSans-111"/>
      <use transform="translate(610.791016 0.015625)" xlink:href="#DejaVuSans-105"/>
      <use transform="translate(638.574219 0.015625)" xlink:href="#DejaVuSans-115"/>
      <use transform="translate(690.673828 0.015625)" xlink:href="#DejaVuSans-101"/>
      <use transform="translate(752.197266 0.015625)" xlink:href="#DejaVuSans-32"/>
      <use transform="translate(783.984375 0.015625)" xlink:href="#DejaVuSans-118"/>
      <use transform="translate(843.164062 0.015625)" xlink:href="#DejaVuSans-97"/>
      <use transform="translate(904.443359 0.015625)" xlink:href="#DejaVuSans-114"/>
      <use transform="translate(945.556641 0.015625)" xlink:href="#DejaVuSans-105"/>
      <use transform="translate(973.339844 0.015625)" xlink:href="#DejaVuSans-97"/>
      <use transform="translate(1034.619141 0.015625)" xlink:href="#DejaVuSans-110"/>
      <use transform="translate(1097.998047 0.015625)" xlink:href="#DejaVuSans-99"/>
      <use transform="translate(1152.978516 0.015625)" xlink:href="#DejaVuSans-101"/>
     </g>
    </g>
   </g>
   <g id="line2d_18">
    <path clip-path="url(#pba95bc07d8)" d="M 54.525386 196.32942 
L 55.464974 196.595508 
L 56.404563 196.861597 
L 57.344151 197.127686 
L 58.283739 197.393774 
L 59.223327 197.659863 
L 60.162915 197.925952 
L 61.102503 198.19204 
L 62.042092 198.458129 
L 62.98168 198.724218 
L 63.921268 198.990306 
L 64.860856 199.256395 
L 65.800444 199.522484 
L 66.740032 199.788572 
L 67.67962 200.054661 
L 68.619209 200.320749 
L 69.558797 200.586838 
L 70.498385 200.852927 
L 71.437973 201.119015 
L 72.377561 201.385104 
L 73.317149 201.651193 
L 74.256738 201.917281 
L 75.196326 202.18337 
L 76.135914 202.449459 
L 77.075502 202.715547 
L 78.01509 202.981636 
L 78.954678 203.247725 
L 79.894266 203.513813 
L 80.833855 203.779902 
L 81.773443 204.04599 
L 82.713031 204.312079 
L 83.652619 204.578168 
L 84.592207 204.844256 
L 85.531795 205.110345 
L 86.471384 205.376434 
L 87.410972 205.642522 
L 88.35056 205.908611 
L 89.290148 206.1747 
L 90.229736 206.440788 
L 91.169324 206.706877 
L 92.108913 206.972966 
L 93.048501 207.239054 
L 93.988089 207.505143 
L 94.927677 207.771232 
L 95.867265 208.03732 
L 96.806853 208.303409 
L 97.746441 208.569497 
L 98.68603 208.835586 
L 99.625618 209.101675 
L 100.565206 209.367763 
L 101.504794 209.633852 
L 102.444382 209.899941 
L 103.38397 210.166029 
L 104.323559 210.432118 
L 105.263147 210.698207 
L 106.202735 210.964295 
L 107.142323 211.230384 
L 108.081911 211.496473 
L 109.021499 211.762561 
L 109.961087 212.02865 
L 110.900676 212.294738 
L 111.840264 212.560827 
L 112.779852 212.826916 
L 113.71944 213.093004 
L 114.659028 213.359093 
L 115.598616 213.625182 
L 116.538205 213.89127 
L 117.477793 214.157359 
L 118.417381 214.423448 
L 119.356969 214.689536 
L 120.296557 214.955625 
L 121.236145 215.221714 
L 122.175734 215.487802 
L 123.115322 215.753891 
L 124.05491 216.019979 
L 124.994498 216.286068 
L 125.934086 216.552157 
L 126.873674 216.818245 
L 127.813262 217.084334 
L 128.752851 217.350423 
L 129.692439 217.616511 
L 130.632027 217.8826 
L 131.571615 218.148689 
L 132.511203 218.414777 
L 133.450791 218.680866 
L 134.39038 218.946955 
L 135.329968 219.213043 
L 136.269556 219.479132 
L 137.209144 219.74522 
L 138.148732 220.011309 
L 139.08832 220.277398 
L 140.027908 220.543486 
L 140.967497 220.809575 
L 141.907085 221.075664 
L 142.846673 221.341752 
L 143.786261 221.607841 
L 144.725849 221.87393 
L 145.665437 222.140018 
L 146.605026 222.406107 
L 147.544614 222.672196 
" style="fill:none;stroke:#ff7f0e;stroke-linecap:square;stroke-width:2.25;"/>
   </g>
   <g id="line2d_19">
    <path clip-path="url(#pba95bc07d8)" d="M 47.63 211.142678 
L 154.44 211.142678 
" style="fill:none;stroke:#808080;stroke-dasharray:5.55,2.4;stroke-dashoffset:0;stroke-width:1.5;"/>
   </g>
   <g id="line2d_20">
    <path clip-path="url(#pba95bc07d8)" d="M 65.851847 253.96 
L 65.851847 157.732 
" style="fill:none;stroke:#808080;stroke-dasharray:5.55,2.4;stroke-dashoffset:0;stroke-width:1.5;"/>
   </g>
   <g id="patch_6">
    <path d="M 47.63 253.96 
L 47.63 157.732 
" style="fill:none;stroke:#000000;stroke-linecap:square;stroke-linejoin:miter;stroke-width:0.8;"/>
   </g>
   <g id="patch_7">
    <path d="M 47.63 253.96 
L 154.44 253.96 
" style="fill:none;stroke:#000000;stroke-linecap:square;stroke-linejoin:miter;stroke-width:0.8;"/>
   </g>
   <g id="text_18">
    <!-- $R^2$: 0.194, $p &lt; 0.05$ -->
    <defs>
     <path d="M 37.796875 64.3125 
L 12.890625 25.390625 
L 37.796875 25.390625 
z
M 35.203125 72.90625 
L 47.609375 72.90625 
L 47.609375 25.390625 
L 58.015625 25.390625 
L 58.015625 17.1875 
L 47.609375 17.1875 
L 47.609375 0 
L 37.796875 0 
L 37.796875 17.1875 
L 4.890625 17.1875 
L 4.890625 26.703125 
z
" id="DejaVuSans-52"/>
     <path d="M 73.1875 49.21875 
L 22.796875 31.296875 
L 73.1875 13.484375 
L 73.1875 4.59375 
L 10.59375 27.296875 
L 10.59375 35.40625 
L 73.1875 58.109375 
z
" id="DejaVuSans-60"/>
    </defs>
    <g transform="translate(55.531 151.732)scale(0.096 -0.096)">
     <use transform="translate(0 0.765625)" xlink:href="#DejaVuSans-Oblique-82"/>
     <use transform="translate(76.499193 39.046875)scale(0.7)" xlink:href="#DejaVuSans-50"/>
     <use transform="translate(123.769701 0.765625)" xlink:href="#DejaVuSans-58"/>
     <use transform="translate(157.461107 0.765625)" xlink:href="#DejaVuSans-32"/>
     <use transform="translate(189.248216 0.765625)" xlink:href="#DejaVuSans-48"/>
     <use transform="translate(252.871263 0.765625)" xlink:href="#DejaVuSans-46"/>
     <use transform="translate(284.658372 0.765625)" xlink:href="#DejaVuSans-49"/>
     <use transform="translate(348.281419 0.765625)" xlink:href="#DejaVuSans-57"/>
     <use transform="translate(411.904466 0.765625)" xlink:href="#DejaVuSans-52"/>
     <use transform="translate(475.527513 0.765625)" xlink:href="#DejaVuSans-44"/>
     <use transform="translate(507.314622 0.765625)" xlink:href="#DejaVuSans-32"/>
     <use transform="translate(539.101732 0.765625)" xlink:href="#DejaVuSans-Oblique-112"/>
     <use transform="translate(622.060716 0.765625)" xlink:href="#DejaVuSans-60"/>
     <use transform="translate(725.332201 0.765625)" xlink:href="#DejaVuSans-48"/>
     <use transform="translate(788.955247 0.765625)" xlink:href="#DejaVuSans-46"/>
     <use transform="translate(820.742357 0.765625)" xlink:href="#DejaVuSans-48"/>
     <use transform="translate(884.365404 0.765625)" xlink:href="#DejaVuSans-53"/>
    </g>
   </g>
  </g>
 </g>
 <defs>
  <clipPath id="p9abed27391">
   <rect height="96.228" width="106.81" x="47.63" y="25.152"/>
  </clipPath>
  <clipPath id="pba95bc07d8">
   <rect height="96.228" width="106.81" x="47.63" y="157.732"/>
  </clipPath>
 </defs>
</svg>
