<?xml version="1.0" encoding="utf-8" standalone="no"?>
<!DOCTYPE svg PUBLIC "-//W3C//DTD SVG 1.1//EN"
  "http://www.w3.org/Graphics/SVG/1.1/DTD/svg11.dtd">
<!-- Created with matplotlib (https://matplotlib.org/) -->
<svg height="144pt" version="1.1" viewBox="0 0 432 144" width="432pt" xmlns="http://www.w3.org/2000/svg" xmlns:xlink="http://www.w3.org/1999/xlink">
 <defs>
  <style type="text/css">
*{stroke-linecap:butt;stroke-linejoin:round;}
  </style>
 </defs>
 <g id="figure_1">
  <g id="patch_1">
   <path d="M 0 144 
L 432 144 
L 432 0 
L 0 0 
z
" style="fill:#ffffff;"/>
  </g>
  <g id="axes_1">
   <g id="patch_2">
    <path d="M 36.92 109.96 
L 130.5 109.96 
L 130.5 22.56 
L 36.92 22.56 
z
" style="fill:#ffffff;"/>
   </g>
   <g id="PathCollection_1">
    <defs>
     <path d="M 0 1.936492 
C 0.513564 1.936492 1.006162 1.732451 1.369306 1.369306 
C 1.732451 1.006162 1.936492 0.513564 1.936492 0 
C 1.936492 -0.513564 1.732451 -1.006162 1.369306 -1.369306 
C 1.006162 -1.732451 0.513564 -1.936492 0 -1.936492 
C -0.513564 -1.936492 -1.006162 -1.732451 -1.369306 -1.369306 
C -1.732451 -1.006162 -1.936492 -0.513564 -1.936492 0 
C -1.936492 0.513564 -1.732451 1.006162 -1.369306 1.369306 
C -1.006162 1.732451 -0.513564 1.936492 0 1.936492 
z
" id="mee5c340d8f" style="stroke:#ffffff;"/>
    </defs>
    <g clip-path="url(#p8f28d1df99)">
     <use style="fill:#1f77b4;stroke:#ffffff;" x="61.327194" xlink:href="#mee5c340d8f" y="85.338246"/>
     <use style="fill:#1f77b4;stroke:#ffffff;" x="58.082553" xlink:href="#mee5c340d8f" y="86.133239"/>
     <use style="fill:#1f77b4;stroke:#ffffff;" x="54.48401" xlink:href="#mee5c340d8f" y="91.191881"/>
     <use style="fill:#1f77b4;stroke:#ffffff;" x="58.164625" xlink:href="#mee5c340d8f" y="88.22586"/>
     <use style="fill:#1f77b4;stroke:#ffffff;" x="53.522247" xlink:href="#mee5c340d8f" y="91.094785"/>
     <use style="fill:#1f77b4;stroke:#ffffff;" x="55.655383" xlink:href="#mee5c340d8f" y="92.806989"/>
     <use style="fill:#1f77b4;stroke:#ffffff;" x="54.044154" xlink:href="#mee5c340d8f" y="90.389662"/>
     <use style="fill:#1f77b4;stroke:#ffffff;" x="57.134155" xlink:href="#mee5c340d8f" y="88.129441"/>
     <use style="fill:#1f77b4;stroke:#ffffff;" x="70.451797" xlink:href="#mee5c340d8f" y="74.14756"/>
     <use style="fill:#1f77b4;stroke:#ffffff;" x="77.598438" xlink:href="#mee5c340d8f" y="68.861056"/>
     <use style="fill:#1f77b4;stroke:#ffffff;" x="57.631427" xlink:href="#mee5c340d8f" y="87.524671"/>
     <use style="fill:#1f77b4;stroke:#ffffff;" x="60.512106" xlink:href="#mee5c340d8f" y="87.398357"/>
     <use style="fill:#1f77b4;stroke:#ffffff;" x="59.13513" xlink:href="#mee5c340d8f" y="85.433691"/>
     <use style="fill:#1f77b4;stroke:#ffffff;" x="62.837672" xlink:href="#mee5c340d8f" y="88.196103"/>
     <use style="fill:#1f77b4;stroke:#ffffff;" x="54.122745" xlink:href="#mee5c340d8f" y="91.552729"/>
     <use style="fill:#1f77b4;stroke:#ffffff;" x="54.777072" xlink:href="#mee5c340d8f" y="92.203188"/>
     <use style="fill:#1f77b4;stroke:#ffffff;" x="62.237266" xlink:href="#mee5c340d8f" y="83.964104"/>
     <use style="fill:#1f77b4;stroke:#ffffff;" x="57.569949" xlink:href="#mee5c340d8f" y="86.600772"/>
     <use style="fill:#1f77b4;stroke:#ffffff;" x="53.669181" xlink:href="#mee5c340d8f" y="92.521117"/>
     <use style="fill:#1f77b4;stroke:#ffffff;" x="48.741912" xlink:href="#mee5c340d8f" y="94.271621"/>
     <use style="fill:#1f77b4;stroke:#ffffff;" x="47.13708" xlink:href="#mee5c340d8f" y="100.072502"/>
     <use style="fill:#1f77b4;stroke:#ffffff;" x="45.745989" xlink:href="#mee5c340d8f" y="97.110106"/>
     <use style="fill:#1f77b4;stroke:#ffffff;" x="48.234035" xlink:href="#mee5c340d8f" y="95.203378"/>
     <use style="fill:#1f77b4;stroke:#ffffff;" x="57.271925" xlink:href="#mee5c340d8f" y="87.292945"/>
     <use style="fill:#1f77b4;stroke:#ffffff;" x="56.950644" xlink:href="#mee5c340d8f" y="85.66805"/>
     <use style="fill:#1f77b4;stroke:#ffffff;" x="57.876873" xlink:href="#mee5c340d8f" y="85.741935"/>
     <use style="fill:#1f77b4;stroke:#ffffff;" x="65.688326" xlink:href="#mee5c340d8f" y="80.352194"/>
     <use style="fill:#1f77b4;stroke:#ffffff;" x="68.502883" xlink:href="#mee5c340d8f" y="77.002035"/>
     <use style="fill:#1f77b4;stroke:#ffffff;" x="70.401658" xlink:href="#mee5c340d8f" y="77.354163"/>
     <use style="fill:#1f77b4;stroke:#ffffff;" x="66.434544" xlink:href="#mee5c340d8f" y="80.677589"/>
     <use style="fill:#1f77b4;stroke:#ffffff;" x="44.633936" xlink:href="#mee5c340d8f" y="97.67843"/>
     <use style="fill:#1f77b4;stroke:#ffffff;" x="47.855089" xlink:href="#mee5c340d8f" y="98.876834"/>
     <use style="fill:#1f77b4;stroke:#ffffff;" x="51.45278" xlink:href="#mee5c340d8f" y="99.102904"/>
     <use style="fill:#1f77b4;stroke:#ffffff;" x="49.438076" xlink:href="#mee5c340d8f" y="96.398683"/>
     <use style="fill:#1f77b4;stroke:#ffffff;" x="48.840139" xlink:href="#mee5c340d8f" y="96.709281"/>
     <use style="fill:#1f77b4;stroke:#ffffff;" x="49.240465" xlink:href="#mee5c340d8f" y="96.731562"/>
     <use style="fill:#1f77b4;stroke:#ffffff;" x="50.845589" xlink:href="#mee5c340d8f" y="95.812442"/>
     <use style="fill:#1f77b4;stroke:#ffffff;" x="53.422073" xlink:href="#mee5c340d8f" y="95.148203"/>
     <use style="fill:#1f77b4;stroke:#ffffff;" x="52.060167" xlink:href="#mee5c340d8f" y="89.037359"/>
     <use style="fill:#1f77b4;stroke:#ffffff;" x="53.053386" xlink:href="#mee5c340d8f" y="95.639349"/>
     <use style="fill:#1f77b4;stroke:#ffffff;" x="68.615777" xlink:href="#mee5c340d8f" y="75.17876"/>
     <use style="fill:#1f77b4;stroke:#ffffff;" x="67.495304" xlink:href="#mee5c340d8f" y="77.135814"/>
     <use style="fill:#1f77b4;stroke:#ffffff;" x="62.164856" xlink:href="#mee5c340d8f" y="83.279412"/>
     <use style="fill:#1f77b4;stroke:#ffffff;" x="57.782966" xlink:href="#mee5c340d8f" y="89.42921"/>
     <use style="fill:#1f77b4;stroke:#ffffff;" x="59.80028" xlink:href="#mee5c340d8f" y="88.149715"/>
     <use style="fill:#1f77b4;stroke:#ffffff;" x="46.206813" xlink:href="#mee5c340d8f" y="99.594446"/>
     <use style="fill:#1f77b4;stroke:#ffffff;" x="48.072955" xlink:href="#mee5c340d8f" y="98.990709"/>
     <use style="fill:#1f77b4;stroke:#ffffff;" x="50.110069" xlink:href="#mee5c340d8f" y="98.281596"/>
     <use style="fill:#1f77b4;stroke:#ffffff;" x="48.680924" xlink:href="#mee5c340d8f" y="98.932635"/>
     <use style="fill:#1f77b4;stroke:#ffffff;" x="48.308542" xlink:href="#mee5c340d8f" y="97.958145"/>
     <use style="fill:#1f77b4;stroke:#ffffff;" x="54.759034" xlink:href="#mee5c340d8f" y="80.817096"/>
     <use style="fill:#1f77b4;stroke:#ffffff;" x="47.415737" xlink:href="#mee5c340d8f" y="91.209056"/>
     <use style="fill:#1f77b4;stroke:#ffffff;" x="51.911309" xlink:href="#mee5c340d8f" y="85.213889"/>
     <use style="fill:#1f77b4;stroke:#ffffff;" x="53.363391" xlink:href="#mee5c340d8f" y="92.170022"/>
     <use style="fill:#1f77b4;stroke:#ffffff;" x="59.109803" xlink:href="#mee5c340d8f" y="87.931234"/>
     <use style="fill:#1f77b4;stroke:#ffffff;" x="63.122065" xlink:href="#mee5c340d8f" y="85.912918"/>
     <use style="fill:#1f77b4;stroke:#ffffff;" x="64.122517" xlink:href="#mee5c340d8f" y="83.463395"/>
     <use style="fill:#1f77b4;stroke:#ffffff;" x="65.18148" xlink:href="#mee5c340d8f" y="80.63059"/>
     <use style="fill:#1f77b4;stroke:#ffffff;" x="72.848316" xlink:href="#mee5c340d8f" y="74.408322"/>
     <use style="fill:#1f77b4;stroke:#ffffff;" x="108.809932" xlink:href="#mee5c340d8f" y="36.327331"/>
     <use style="fill:#1f77b4;stroke:#ffffff;" x="112.455582" xlink:href="#mee5c340d8f" y="30.093048"/>
     <use style="fill:#1f77b4;stroke:#ffffff;" x="96.391295" xlink:href="#mee5c340d8f" y="41.438935"/>
     <use style="fill:#1f77b4;stroke:#ffffff;" x="65.637518" xlink:href="#mee5c340d8f" y="71.038832"/>
     <use style="fill:#1f77b4;stroke:#ffffff;" x="67.181206" xlink:href="#mee5c340d8f" y="75.048879"/>
     <use style="fill:#1f77b4;stroke:#ffffff;" x="64.50616" xlink:href="#mee5c340d8f" y="80.386639"/>
     <use style="fill:#1f77b4;stroke:#ffffff;" x="71.972982" xlink:href="#mee5c340d8f" y="75.136299"/>
     <use style="fill:#1f77b4;stroke:#ffffff;" x="83.392604" xlink:href="#mee5c340d8f" y="62.674263"/>
     <use style="fill:#1f77b4;stroke:#ffffff;" x="81.581823" xlink:href="#mee5c340d8f" y="60.87036"/>
    </g>
   </g>
   <g id="matplotlib.axis_1">
    <g id="xtick_1">
     <g id="line2d_1">
      <defs>
       <path d="M 0 0 
L 0 3.5 
" id="m02662250e0" style="stroke:#000000;stroke-width:0.8;"/>
      </defs>
      <g>
       <use style="stroke:#000000;stroke-width:0.8;" x="43.087179" xlink:href="#m02662250e0" y="109.96"/>
      </g>
     </g>
     <g id="text_1">
      <!-- 0 -->
      <defs>
       <path d="M 31.78125 66.40625 
Q 24.171875 66.40625 20.328125 58.90625 
Q 16.5 51.421875 16.5 36.375 
Q 16.5 21.390625 20.328125 13.890625 
Q 24.171875 6.390625 31.78125 6.390625 
Q 39.453125 6.390625 43.28125 13.890625 
Q 47.125 21.390625 47.125 36.375 
Q 47.125 51.421875 43.28125 58.90625 
Q 39.453125 66.40625 31.78125 66.40625 
z
M 31.78125 74.21875 
Q 44.046875 74.21875 50.515625 64.515625 
Q 56.984375 54.828125 56.984375 36.375 
Q 56.984375 17.96875 50.515625 8.265625 
Q 44.046875 -1.421875 31.78125 -1.421875 
Q 19.53125 -1.421875 13.0625 8.265625 
Q 6.59375 17.96875 6.59375 36.375 
Q 6.59375 54.828125 13.0625 64.515625 
Q 19.53125 74.21875 31.78125 74.21875 
z
" id="DejaVuSans-48"/>
      </defs>
      <g transform="translate(40.542179 123.03875)scale(0.08 -0.08)">
       <use xlink:href="#DejaVuSans-48"/>
      </g>
     </g>
    </g>
    <g id="xtick_2">
     <g id="line2d_2">
      <g>
       <use style="stroke:#000000;stroke-width:0.8;" x="90.575171" xlink:href="#m02662250e0" y="109.96"/>
      </g>
     </g>
     <g id="text_2">
      <!-- 10 -->
      <defs>
       <path d="M 12.40625 8.296875 
L 28.515625 8.296875 
L 28.515625 63.921875 
L 10.984375 60.40625 
L 10.984375 69.390625 
L 28.421875 72.90625 
L 38.28125 72.90625 
L 38.28125 8.296875 
L 54.390625 8.296875 
L 54.390625 0 
L 12.40625 0 
z
" id="DejaVuSans-49"/>
      </defs>
      <g transform="translate(85.485171 123.03875)scale(0.08 -0.08)">
       <use xlink:href="#DejaVuSans-49"/>
       <use x="63.623047" xlink:href="#DejaVuSans-48"/>
      </g>
     </g>
    </g>
    <g id="text_3">
     <!-- Passive -->
     <defs>
      <path d="M 19.671875 64.796875 
L 19.671875 37.40625 
L 32.078125 37.40625 
Q 38.96875 37.40625 42.71875 40.96875 
Q 46.484375 44.53125 46.484375 51.125 
Q 46.484375 57.671875 42.71875 61.234375 
Q 38.96875 64.796875 32.078125 64.796875 
z
M 9.8125 72.90625 
L 32.078125 72.90625 
Q 44.34375 72.90625 50.609375 67.359375 
Q 56.890625 61.8125 56.890625 51.125 
Q 56.890625 40.328125 50.609375 34.8125 
Q 44.34375 29.296875 32.078125 29.296875 
L 19.671875 29.296875 
L 19.671875 0 
L 9.8125 0 
z
" id="DejaVuSans-80"/>
      <path d="M 34.28125 27.484375 
Q 23.390625 27.484375 19.1875 25 
Q 14.984375 22.515625 14.984375 16.5 
Q 14.984375 11.71875 18.140625 8.90625 
Q 21.296875 6.109375 26.703125 6.109375 
Q 34.1875 6.109375 38.703125 11.40625 
Q 43.21875 16.703125 43.21875 25.484375 
L 43.21875 27.484375 
z
M 52.203125 31.203125 
L 52.203125 0 
L 43.21875 0 
L 43.21875 8.296875 
Q 40.140625 3.328125 35.546875 0.953125 
Q 30.953125 -1.421875 24.3125 -1.421875 
Q 15.921875 -1.421875 10.953125 3.296875 
Q 6 8.015625 6 15.921875 
Q 6 25.140625 12.171875 29.828125 
Q 18.359375 34.515625 30.609375 34.515625 
L 43.21875 34.515625 
L 43.21875 35.40625 
Q 43.21875 41.609375 39.140625 45 
Q 35.0625 48.390625 27.6875 48.390625 
Q 23 48.390625 18.546875 47.265625 
Q 14.109375 46.140625 10.015625 43.890625 
L 10.015625 52.203125 
Q 14.9375 54.109375 19.578125 55.046875 
Q 24.21875 56 28.609375 56 
Q 40.484375 56 46.34375 49.84375 
Q 52.203125 43.703125 52.203125 31.203125 
z
" id="DejaVuSans-97"/>
      <path d="M 44.28125 53.078125 
L 44.28125 44.578125 
Q 40.484375 46.53125 36.375 47.5 
Q 32.28125 48.484375 27.875 48.484375 
Q 21.1875 48.484375 17.84375 46.4375 
Q 14.5 44.390625 14.5 40.28125 
Q 14.5 37.15625 16.890625 35.375 
Q 19.28125 33.59375 26.515625 31.984375 
L 29.59375 31.296875 
Q 39.15625 29.25 43.1875 25.515625 
Q 47.21875 21.78125 47.21875 15.09375 
Q 47.21875 7.46875 41.1875 3.015625 
Q 35.15625 -1.421875 24.609375 -1.421875 
Q 20.21875 -1.421875 15.453125 -0.5625 
Q 10.6875 0.296875 5.421875 2 
L 5.421875 11.28125 
Q 10.40625 8.6875 15.234375 7.390625 
Q 20.0625 6.109375 24.8125 6.109375 
Q 31.15625 6.109375 34.5625 8.28125 
Q 37.984375 10.453125 37.984375 14.40625 
Q 37.984375 18.0625 35.515625 20.015625 
Q 33.0625 21.96875 24.703125 23.78125 
L 21.578125 24.515625 
Q 13.234375 26.265625 9.515625 29.90625 
Q 5.8125 33.546875 5.8125 39.890625 
Q 5.8125 47.609375 11.28125 51.796875 
Q 16.75 56 26.8125 56 
Q 31.78125 56 36.171875 55.265625 
Q 40.578125 54.546875 44.28125 53.078125 
z
" id="DejaVuSans-115"/>
      <path d="M 9.421875 54.6875 
L 18.40625 54.6875 
L 18.40625 0 
L 9.421875 0 
z
M 9.421875 75.984375 
L 18.40625 75.984375 
L 18.40625 64.59375 
L 9.421875 64.59375 
z
" id="DejaVuSans-105"/>
      <path d="M 2.984375 54.6875 
L 12.5 54.6875 
L 29.59375 8.796875 
L 46.6875 54.6875 
L 56.203125 54.6875 
L 35.6875 0 
L 23.484375 0 
z
" id="DejaVuSans-118"/>
      <path d="M 56.203125 29.59375 
L 56.203125 25.203125 
L 14.890625 25.203125 
Q 15.484375 15.921875 20.484375 11.0625 
Q 25.484375 6.203125 34.421875 6.203125 
Q 39.59375 6.203125 44.453125 7.46875 
Q 49.3125 8.734375 54.109375 11.28125 
L 54.109375 2.78125 
Q 49.265625 0.734375 44.1875 -0.34375 
Q 39.109375 -1.421875 33.890625 -1.421875 
Q 20.796875 -1.421875 13.15625 6.1875 
Q 5.515625 13.8125 5.515625 26.8125 
Q 5.515625 40.234375 12.765625 48.109375 
Q 20.015625 56 32.328125 56 
Q 43.359375 56 49.78125 48.890625 
Q 56.203125 41.796875 56.203125 29.59375 
z
M 47.21875 32.234375 
Q 47.125 39.59375 43.09375 43.984375 
Q 39.0625 48.390625 32.421875 48.390625 
Q 24.90625 48.390625 20.390625 44.140625 
Q 15.875 39.890625 15.1875 32.171875 
z
" id="DejaVuSans-101"/>
     </defs>
     <g transform="translate(68.741875 134.78125)scale(0.08 -0.08)">
      <use xlink:href="#DejaVuSans-80"/>
      <use x="60.240234" xlink:href="#DejaVuSans-97"/>
      <use x="121.519531" xlink:href="#DejaVuSans-115"/>
      <use x="173.619141" xlink:href="#DejaVuSans-115"/>
      <use x="225.71875" xlink:href="#DejaVuSans-105"/>
      <use x="253.501953" xlink:href="#DejaVuSans-118"/>
      <use x="312.681641" xlink:href="#DejaVuSans-101"/>
     </g>
    </g>
   </g>
   <g id="matplotlib.axis_2">
    <g id="ytick_1">
     <g id="line2d_3">
      <defs>
       <path d="M 0 0 
L -3.5 0 
" id="mbb7b0dffa5" style="stroke:#000000;stroke-width:0.8;"/>
      </defs>
      <g>
       <use style="stroke:#000000;stroke-width:0.8;" x="36.92" xlink:href="#mbb7b0dffa5" y="104.2001"/>
      </g>
     </g>
     <g id="text_4">
      <!-- 0 -->
      <g transform="translate(24.83 107.239475)scale(0.08 -0.08)">
       <use xlink:href="#DejaVuSans-48"/>
      </g>
     </g>
    </g>
    <g id="ytick_2">
     <g id="line2d_4">
      <g>
       <use style="stroke:#000000;stroke-width:0.8;" x="36.92" xlink:href="#mbb7b0dffa5" y="82.024152"/>
      </g>
     </g>
     <g id="text_5">
      <!-- 5 -->
      <defs>
       <path d="M 10.796875 72.90625 
L 49.515625 72.90625 
L 49.515625 64.59375 
L 19.828125 64.59375 
L 19.828125 46.734375 
Q 21.96875 47.46875 24.109375 47.828125 
Q 26.265625 48.1875 28.421875 48.1875 
Q 40.625 48.1875 47.75 41.5 
Q 54.890625 34.8125 54.890625 23.390625 
Q 54.890625 11.625 47.5625 5.09375 
Q 40.234375 -1.421875 26.90625 -1.421875 
Q 22.3125 -1.421875 17.546875 -0.640625 
Q 12.796875 0.140625 7.71875 1.703125 
L 7.71875 11.625 
Q 12.109375 9.234375 16.796875 8.0625 
Q 21.484375 6.890625 26.703125 6.890625 
Q 35.15625 6.890625 40.078125 11.328125 
Q 45.015625 15.765625 45.015625 23.390625 
Q 45.015625 31 40.078125 35.4375 
Q 35.15625 39.890625 26.703125 39.890625 
Q 22.75 39.890625 18.8125 39.015625 
Q 14.890625 38.140625 10.796875 36.28125 
z
" id="DejaVuSans-53"/>
      </defs>
      <g transform="translate(24.83 85.063527)scale(0.08 -0.08)">
       <use xlink:href="#DejaVuSans-53"/>
      </g>
     </g>
    </g>
    <g id="ytick_3">
     <g id="line2d_5">
      <g>
       <use style="stroke:#000000;stroke-width:0.8;" x="36.92" xlink:href="#mbb7b0dffa5" y="59.848203"/>
      </g>
     </g>
     <g id="text_6">
      <!-- 10 -->
      <g transform="translate(19.74 62.887578)scale(0.08 -0.08)">
       <use xlink:href="#DejaVuSans-49"/>
       <use x="63.623047" xlink:href="#DejaVuSans-48"/>
      </g>
     </g>
    </g>
    <g id="ytick_4">
     <g id="line2d_6">
      <g>
       <use style="stroke:#000000;stroke-width:0.8;" x="36.92" xlink:href="#mbb7b0dffa5" y="37.672254"/>
      </g>
     </g>
     <g id="text_7">
      <!-- 15 -->
      <g transform="translate(19.74 40.711629)scale(0.08 -0.08)">
       <use xlink:href="#DejaVuSans-49"/>
       <use x="63.623047" xlink:href="#DejaVuSans-53"/>
      </g>
     </g>
    </g>
    <g id="text_8">
     <!-- Active -->
     <defs>
      <path d="M 34.1875 63.1875 
L 20.796875 26.90625 
L 47.609375 26.90625 
z
M 28.609375 72.90625 
L 39.796875 72.90625 
L 67.578125 0 
L 57.328125 0 
L 50.6875 18.703125 
L 17.828125 18.703125 
L 11.1875 0 
L 0.78125 0 
z
" id="DejaVuSans-65"/>
      <path d="M 48.78125 52.59375 
L 48.78125 44.1875 
Q 44.96875 46.296875 41.140625 47.34375 
Q 37.3125 48.390625 33.40625 48.390625 
Q 24.65625 48.390625 19.8125 42.84375 
Q 14.984375 37.3125 14.984375 27.296875 
Q 14.984375 17.28125 19.8125 11.734375 
Q 24.65625 6.203125 33.40625 6.203125 
Q 37.3125 6.203125 41.140625 7.25 
Q 44.96875 8.296875 48.78125 10.40625 
L 48.78125 2.09375 
Q 45.015625 0.34375 40.984375 -0.53125 
Q 36.96875 -1.421875 32.421875 -1.421875 
Q 20.0625 -1.421875 12.78125 6.34375 
Q 5.515625 14.109375 5.515625 27.296875 
Q 5.515625 40.671875 12.859375 48.328125 
Q 20.21875 56 33.015625 56 
Q 37.15625 56 41.109375 55.140625 
Q 45.0625 54.296875 48.78125 52.59375 
z
" id="DejaVuSans-99"/>
      <path d="M 18.3125 70.21875 
L 18.3125 54.6875 
L 36.8125 54.6875 
L 36.8125 47.703125 
L 18.3125 47.703125 
L 18.3125 18.015625 
Q 18.3125 11.328125 20.140625 9.421875 
Q 21.96875 7.515625 27.59375 7.515625 
L 36.8125 7.515625 
L 36.8125 0 
L 27.59375 0 
Q 17.1875 0 13.234375 3.875 
Q 9.28125 7.765625 9.28125 18.015625 
L 9.28125 47.703125 
L 2.6875 47.703125 
L 2.6875 54.6875 
L 9.28125 54.6875 
L 9.28125 70.21875 
z
" id="DejaVuSans-116"/>
     </defs>
     <g transform="translate(14.07625 78.703125)rotate(-90)scale(0.08 -0.08)">
      <use xlink:href="#DejaVuSans-65"/>
      <use x="68.392578" xlink:href="#DejaVuSans-99"/>
      <use x="123.373047" xlink:href="#DejaVuSans-116"/>
      <use x="162.582031" xlink:href="#DejaVuSans-105"/>
      <use x="190.365234" xlink:href="#DejaVuSans-118"/>
      <use x="249.544922" xlink:href="#DejaVuSans-101"/>
     </g>
    </g>
   </g>
   <g id="line2d_7">
    <path clip-path="url(#p8f28d1df99)" d="M 41.173636 105.987273 
L 126.246364 26.532727 
" style="fill:none;stroke:#808080;stroke-dasharray:5.55,2.4;stroke-dashoffset:0;stroke-width:1.5;"/>
   </g>
   <g id="patch_3">
    <path d="M 36.92 109.96 
L 36.92 22.56 
" style="fill:none;stroke:#000000;stroke-linecap:square;stroke-linejoin:miter;stroke-width:0.8;"/>
   </g>
   <g id="patch_4">
    <path d="M 36.92 109.96 
L 130.5 109.96 
" style="fill:none;stroke:#000000;stroke-linecap:square;stroke-linejoin:miter;stroke-width:0.8;"/>
   </g>
   <g id="text_9">
    <!-- Signal magnitude -->
    <defs>
     <path d="M 53.515625 70.515625 
L 53.515625 60.890625 
Q 47.90625 63.578125 42.921875 64.890625 
Q 37.9375 66.21875 33.296875 66.21875 
Q 25.25 66.21875 20.875 63.09375 
Q 16.5 59.96875 16.5 54.203125 
Q 16.5 49.359375 19.40625 46.890625 
Q 22.3125 44.4375 30.421875 42.921875 
L 36.375 41.703125 
Q 47.40625 39.59375 52.65625 34.296875 
Q 57.90625 29 57.90625 20.125 
Q 57.90625 9.515625 50.796875 4.046875 
Q 43.703125 -1.421875 29.984375 -1.421875 
Q 24.8125 -1.421875 18.96875 -0.25 
Q 13.140625 0.921875 6.890625 3.21875 
L 6.890625 13.375 
Q 12.890625 10.015625 18.65625 8.296875 
Q 24.421875 6.59375 29.984375 6.59375 
Q 38.421875 6.59375 43.015625 9.90625 
Q 47.609375 13.234375 47.609375 19.390625 
Q 47.609375 24.75 44.3125 27.78125 
Q 41.015625 30.8125 33.5 32.328125 
L 27.484375 33.5 
Q 16.453125 35.6875 11.515625 40.375 
Q 6.59375 45.0625 6.59375 53.421875 
Q 6.59375 63.09375 13.40625 68.65625 
Q 20.21875 74.21875 32.171875 74.21875 
Q 37.3125 74.21875 42.625 73.28125 
Q 47.953125 72.359375 53.515625 70.515625 
z
" id="DejaVuSans-83"/>
     <path d="M 45.40625 27.984375 
Q 45.40625 37.75 41.375 43.109375 
Q 37.359375 48.484375 30.078125 48.484375 
Q 22.859375 48.484375 18.828125 43.109375 
Q 14.796875 37.75 14.796875 27.984375 
Q 14.796875 18.265625 18.828125 12.890625 
Q 22.859375 7.515625 30.078125 7.515625 
Q 37.359375 7.515625 41.375 12.890625 
Q 45.40625 18.265625 45.40625 27.984375 
z
M 54.390625 6.78125 
Q 54.390625 -7.171875 48.1875 -13.984375 
Q 42 -20.796875 29.203125 -20.796875 
Q 24.46875 -20.796875 20.265625 -20.09375 
Q 16.0625 -19.390625 12.109375 -17.921875 
L 12.109375 -9.1875 
Q 16.0625 -11.328125 19.921875 -12.34375 
Q 23.78125 -13.375 27.78125 -13.375 
Q 36.625 -13.375 41.015625 -8.765625 
Q 45.40625 -4.15625 45.40625 5.171875 
L 45.40625 9.625 
Q 42.625 4.78125 38.28125 2.390625 
Q 33.9375 0 27.875 0 
Q 17.828125 0 11.671875 7.65625 
Q 5.515625 15.328125 5.515625 27.984375 
Q 5.515625 40.671875 11.671875 48.328125 
Q 17.828125 56 27.875 56 
Q 33.9375 56 38.28125 53.609375 
Q 42.625 51.21875 45.40625 46.390625 
L 45.40625 54.6875 
L 54.390625 54.6875 
z
" id="DejaVuSans-103"/>
     <path d="M 54.890625 33.015625 
L 54.890625 0 
L 45.90625 0 
L 45.90625 32.71875 
Q 45.90625 40.484375 42.875 44.328125 
Q 39.84375 48.1875 33.796875 48.1875 
Q 26.515625 48.1875 22.3125 43.546875 
Q 18.109375 38.921875 18.109375 30.90625 
L 18.109375 0 
L 9.078125 0 
L 9.078125 54.6875 
L 18.109375 54.6875 
L 18.109375 46.1875 
Q 21.34375 51.125 25.703125 53.5625 
Q 30.078125 56 35.796875 56 
Q 45.21875 56 50.046875 50.171875 
Q 54.890625 44.34375 54.890625 33.015625 
z
" id="DejaVuSans-110"/>
     <path d="M 9.421875 75.984375 
L 18.40625 75.984375 
L 18.40625 0 
L 9.421875 0 
z
" id="DejaVuSans-108"/>
     <path id="DejaVuSans-32"/>
     <path d="M 52 44.1875 
Q 55.375 50.25 60.0625 53.125 
Q 64.75 56 71.09375 56 
Q 79.640625 56 84.28125 50.015625 
Q 88.921875 44.046875 88.921875 33.015625 
L 88.921875 0 
L 79.890625 0 
L 79.890625 32.71875 
Q 79.890625 40.578125 77.09375 44.375 
Q 74.3125 48.1875 68.609375 48.1875 
Q 61.625 48.1875 57.5625 43.546875 
Q 53.515625 38.921875 53.515625 30.90625 
L 53.515625 0 
L 44.484375 0 
L 44.484375 32.71875 
Q 44.484375 40.625 41.703125 44.40625 
Q 38.921875 48.1875 33.109375 48.1875 
Q 26.21875 48.1875 22.15625 43.53125 
Q 18.109375 38.875 18.109375 30.90625 
L 18.109375 0 
L 9.078125 0 
L 9.078125 54.6875 
L 18.109375 54.6875 
L 18.109375 46.1875 
Q 21.1875 51.21875 25.484375 53.609375 
Q 29.78125 56 35.6875 56 
Q 41.65625 56 45.828125 52.96875 
Q 50 49.953125 52 44.1875 
z
" id="DejaVuSans-109"/>
     <path d="M 8.5 21.578125 
L 8.5 54.6875 
L 17.484375 54.6875 
L 17.484375 21.921875 
Q 17.484375 14.15625 20.5 10.265625 
Q 23.53125 6.390625 29.59375 6.390625 
Q 36.859375 6.390625 41.078125 11.03125 
Q 45.3125 15.671875 45.3125 23.6875 
L 45.3125 54.6875 
L 54.296875 54.6875 
L 54.296875 0 
L 45.3125 0 
L 45.3125 8.40625 
Q 42.046875 3.421875 37.71875 1 
Q 33.40625 -1.421875 27.6875 -1.421875 
Q 18.265625 -1.421875 13.375 4.4375 
Q 8.5 10.296875 8.5 21.578125 
z
M 31.109375 56 
z
" id="DejaVuSans-117"/>
     <path d="M 45.40625 46.390625 
L 45.40625 75.984375 
L 54.390625 75.984375 
L 54.390625 0 
L 45.40625 0 
L 45.40625 8.203125 
Q 42.578125 3.328125 38.25 0.953125 
Q 33.9375 -1.421875 27.875 -1.421875 
Q 17.96875 -1.421875 11.734375 6.484375 
Q 5.515625 14.40625 5.515625 27.296875 
Q 5.515625 40.1875 11.734375 48.09375 
Q 17.96875 56 27.875 56 
Q 33.9375 56 38.25 53.625 
Q 42.578125 51.265625 45.40625 46.390625 
z
M 14.796875 27.296875 
Q 14.796875 17.390625 18.875 11.75 
Q 22.953125 6.109375 30.078125 6.109375 
Q 37.203125 6.109375 41.296875 11.75 
Q 45.40625 17.390625 45.40625 27.296875 
Q 45.40625 37.203125 41.296875 42.84375 
Q 37.203125 48.484375 30.078125 48.484375 
Q 22.953125 48.484375 18.875 42.84375 
Q 14.796875 37.203125 14.796875 27.296875 
z
" id="DejaVuSans-100"/>
    </defs>
    <g transform="translate(41.47525 16.56)scale(0.096 -0.096)">
     <use xlink:href="#DejaVuSans-83"/>
     <use x="63.476562" xlink:href="#DejaVuSans-105"/>
     <use x="91.259766" xlink:href="#DejaVuSans-103"/>
     <use x="154.736328" xlink:href="#DejaVuSans-110"/>
     <use x="218.115234" xlink:href="#DejaVuSans-97"/>
     <use x="279.394531" xlink:href="#DejaVuSans-108"/>
     <use x="307.177734" xlink:href="#DejaVuSans-32"/>
     <use x="338.964844" xlink:href="#DejaVuSans-109"/>
     <use x="436.376953" xlink:href="#DejaVuSans-97"/>
     <use x="497.65625" xlink:href="#DejaVuSans-103"/>
     <use x="561.132812" xlink:href="#DejaVuSans-110"/>
     <use x="624.511719" xlink:href="#DejaVuSans-105"/>
     <use x="652.294922" xlink:href="#DejaVuSans-116"/>
     <use x="691.503906" xlink:href="#DejaVuSans-117"/>
     <use x="754.882812" xlink:href="#DejaVuSans-100"/>
     <use x="818.359375" xlink:href="#DejaVuSans-101"/>
    </g>
   </g>
  </g>
  <g id="axes_2">
   <g id="patch_5">
    <path d="M 182.09 109.96 
L 275.67 109.96 
L 275.67 22.56 
L 182.09 22.56 
z
" style="fill:#ffffff;"/>
   </g>
   <g id="PathCollection_2">
    <defs>
     <path d="M 0 1.936492 
C 0.513564 1.936492 1.006162 1.732451 1.369306 1.369306 
C 1.732451 1.006162 1.936492 0.513564 1.936492 0 
C 1.936492 -0.513564 1.732451 -1.006162 1.369306 -1.369306 
C 1.006162 -1.732451 0.513564 -1.936492 0 -1.936492 
C -0.513564 -1.936492 -1.006162 -1.732451 -1.369306 -1.369306 
C -1.732451 -1.006162 -1.936492 -0.513564 -1.936492 0 
C -1.936492 0.513564 -1.732451 1.006162 -1.369306 1.369306 
C -1.006162 1.732451 -0.513564 1.936492 0 1.936492 
z
" id="m65bcf28235" style="stroke:#ffffff;"/>
    </defs>
    <g clip-path="url(#p3dab1b1850)">
     <use style="fill:#ff7f0e;stroke:#ffffff;" x="196.195393" xlink:href="#m65bcf28235" y="95.271435"/>
     <use style="fill:#ff7f0e;stroke:#ffffff;" x="194.507685" xlink:href="#m65bcf28235" y="97.024264"/>
     <use style="fill:#ff7f0e;stroke:#ffffff;" x="203.99908" xlink:href="#m65bcf28235" y="87.955059"/>
     <use style="fill:#ff7f0e;stroke:#ffffff;" x="227.054589" xlink:href="#m65bcf28235" y="83.639484"/>
     <use style="fill:#ff7f0e;stroke:#ffffff;" x="212.723849" xlink:href="#m65bcf28235" y="82.99294"/>
     <use style="fill:#ff7f0e;stroke:#ffffff;" x="214.489099" xlink:href="#m65bcf28235" y="85.23742"/>
     <use style="fill:#ff7f0e;stroke:#ffffff;" x="230.528223" xlink:href="#m65bcf28235" y="73.699525"/>
     <use style="fill:#ff7f0e;stroke:#ffffff;" x="242.467266" xlink:href="#m65bcf28235" y="72.050693"/>
     <use style="fill:#ff7f0e;stroke:#ffffff;" x="235.215765" xlink:href="#m65bcf28235" y="67.955722"/>
     <use style="fill:#ff7f0e;stroke:#ffffff;" x="234.818197" xlink:href="#m65bcf28235" y="66.491989"/>
     <use style="fill:#ff7f0e;stroke:#ffffff;" x="200.987381" xlink:href="#m65bcf28235" y="92.206788"/>
     <use style="fill:#ff7f0e;stroke:#ffffff;" x="221.985994" xlink:href="#m65bcf28235" y="93.505113"/>
     <use style="fill:#ff7f0e;stroke:#ffffff;" x="205.453419" xlink:href="#m65bcf28235" y="90.658301"/>
     <use style="fill:#ff7f0e;stroke:#ffffff;" x="210.977166" xlink:href="#m65bcf28235" y="83.616678"/>
     <use style="fill:#ff7f0e;stroke:#ffffff;" x="208.057355" xlink:href="#m65bcf28235" y="96.854139"/>
     <use style="fill:#ff7f0e;stroke:#ffffff;" x="206.279852" xlink:href="#m65bcf28235" y="96.162073"/>
     <use style="fill:#ff7f0e;stroke:#ffffff;" x="191.306553" xlink:href="#m65bcf28235" y="101.696241"/>
     <use style="fill:#ff7f0e;stroke:#ffffff;" x="192.225601" xlink:href="#m65bcf28235" y="101.590009"/>
     <use style="fill:#ff7f0e;stroke:#ffffff;" x="190.261579" xlink:href="#m65bcf28235" y="102.375619"/>
     <use style="fill:#ff7f0e;stroke:#ffffff;" x="193.978327" xlink:href="#m65bcf28235" y="98.273799"/>
     <use style="fill:#ff7f0e;stroke:#ffffff;" x="195.32242" xlink:href="#m65bcf28235" y="99.375648"/>
     <use style="fill:#ff7f0e;stroke:#ffffff;" x="193.378756" xlink:href="#m65bcf28235" y="94.574342"/>
     <use style="fill:#ff7f0e;stroke:#ffffff;" x="205.037511" xlink:href="#m65bcf28235" y="93.705083"/>
     <use style="fill:#ff7f0e;stroke:#ffffff;" x="206.051454" xlink:href="#m65bcf28235" y="86.09297"/>
     <use style="fill:#ff7f0e;stroke:#ffffff;" x="200.985957" xlink:href="#m65bcf28235" y="88.996377"/>
     <use style="fill:#ff7f0e;stroke:#ffffff;" x="205.471781" xlink:href="#m65bcf28235" y="83.529847"/>
     <use style="fill:#ff7f0e;stroke:#ffffff;" x="210.418561" xlink:href="#m65bcf28235" y="79.664094"/>
     <use style="fill:#ff7f0e;stroke:#ffffff;" x="212.162655" xlink:href="#m65bcf28235" y="77.352244"/>
     <use style="fill:#ff7f0e;stroke:#ffffff;" x="210.289452" xlink:href="#m65bcf28235" y="76.397257"/>
     <use style="fill:#ff7f0e;stroke:#ffffff;" x="210.448497" xlink:href="#m65bcf28235" y="76.654119"/>
     <use style="fill:#ff7f0e;stroke:#ffffff;" x="206.474331" xlink:href="#m65bcf28235" y="87.306418"/>
     <use style="fill:#ff7f0e;stroke:#ffffff;" x="194.010839" xlink:href="#m65bcf28235" y="97.523533"/>
     <use style="fill:#ff7f0e;stroke:#ffffff;" x="199.79297" xlink:href="#m65bcf28235" y="94.197602"/>
     <use style="fill:#ff7f0e;stroke:#ffffff;" x="203.06085" xlink:href="#m65bcf28235" y="90.016388"/>
     <use style="fill:#ff7f0e;stroke:#ffffff;" x="194.137619" xlink:href="#m65bcf28235" y="97.187169"/>
     <use style="fill:#ff7f0e;stroke:#ffffff;" x="193.15586" xlink:href="#m65bcf28235" y="99.343408"/>
     <use style="fill:#ff7f0e;stroke:#ffffff;" x="195.079016" xlink:href="#m65bcf28235" y="98.90744"/>
     <use style="fill:#ff7f0e;stroke:#ffffff;" x="194.285632" xlink:href="#m65bcf28235" y="98.118076"/>
     <use style="fill:#ff7f0e;stroke:#ffffff;" x="199.258633" xlink:href="#m65bcf28235" y="94.807812"/>
     <use style="fill:#ff7f0e;stroke:#ffffff;" x="193.931634" xlink:href="#m65bcf28235" y="98.339334"/>
     <use style="fill:#ff7f0e;stroke:#ffffff;" x="208.16992" xlink:href="#m65bcf28235" y="90.105241"/>
     <use style="fill:#ff7f0e;stroke:#ffffff;" x="207.048175" xlink:href="#m65bcf28235" y="88.925139"/>
     <use style="fill:#ff7f0e;stroke:#ffffff;" x="210.958562" xlink:href="#m65bcf28235" y="88.500303"/>
     <use style="fill:#ff7f0e;stroke:#ffffff;" x="204.244946" xlink:href="#m65bcf28235" y="90.076327"/>
     <use style="fill:#ff7f0e;stroke:#ffffff;" x="203.515747" xlink:href="#m65bcf28235" y="91.35976"/>
     <use style="fill:#ff7f0e;stroke:#ffffff;" x="196.31858" xlink:href="#m65bcf28235" y="98.877149"/>
     <use style="fill:#ff7f0e;stroke:#ffffff;" x="196.022156" xlink:href="#m65bcf28235" y="99.227134"/>
     <use style="fill:#ff7f0e;stroke:#ffffff;" x="196.712205" xlink:href="#m65bcf28235" y="99.35968"/>
     <use style="fill:#ff7f0e;stroke:#ffffff;" x="192.840037" xlink:href="#m65bcf28235" y="100.734118"/>
     <use style="fill:#ff7f0e;stroke:#ffffff;" x="194.267066" xlink:href="#m65bcf28235" y="99.578694"/>
     <use style="fill:#ff7f0e;stroke:#ffffff;" x="201.705234" xlink:href="#m65bcf28235" y="100.654611"/>
     <use style="fill:#ff7f0e;stroke:#ffffff;" x="195.786" xlink:href="#m65bcf28235" y="90.976893"/>
     <use style="fill:#ff7f0e;stroke:#ffffff;" x="200.273035" xlink:href="#m65bcf28235" y="87.95096"/>
     <use style="fill:#ff7f0e;stroke:#ffffff;" x="197.279674" xlink:href="#m65bcf28235" y="91.390265"/>
     <use style="fill:#ff7f0e;stroke:#ffffff;" x="200.772979" xlink:href="#m65bcf28235" y="92.10779"/>
     <use style="fill:#ff7f0e;stroke:#ffffff;" x="201.103821" xlink:href="#m65bcf28235" y="90.403063"/>
     <use style="fill:#ff7f0e;stroke:#ffffff;" x="226.794369" xlink:href="#m65bcf28235" y="68.09639"/>
     <use style="fill:#ff7f0e;stroke:#ffffff;" x="232.024056" xlink:href="#m65bcf28235" y="70.479721"/>
     <use style="fill:#ff7f0e;stroke:#ffffff;" x="233.232247" xlink:href="#m65bcf28235" y="73.514038"/>
     <use style="fill:#ff7f0e;stroke:#ffffff;" x="267.423732" xlink:href="#m65bcf28235" y="32.171676"/>
     <use style="fill:#ff7f0e;stroke:#ffffff;" x="249.575174" xlink:href="#m65bcf28235" y="37.620403"/>
     <use style="fill:#ff7f0e;stroke:#ffffff;" x="267.498421" xlink:href="#m65bcf28235" y="34.55344"/>
     <use style="fill:#ff7f0e;stroke:#ffffff;" x="213.153935" xlink:href="#m65bcf28235" y="71.532081"/>
     <use style="fill:#ff7f0e;stroke:#ffffff;" x="219.398698" xlink:href="#m65bcf28235" y="74.416452"/>
     <use style="fill:#ff7f0e;stroke:#ffffff;" x="221.351248" xlink:href="#m65bcf28235" y="84.013893"/>
     <use style="fill:#ff7f0e;stroke:#ffffff;" x="218.761763" xlink:href="#m65bcf28235" y="89.481329"/>
     <use style="fill:#ff7f0e;stroke:#ffffff;" x="235.671884" xlink:href="#m65bcf28235" y="33.363202"/>
     <use style="fill:#ff7f0e;stroke:#ffffff;" x="235.212341" xlink:href="#m65bcf28235" y="66.47964"/>
    </g>
   </g>
   <g id="matplotlib.axis_3">
    <g id="xtick_3">
     <g id="line2d_8">
      <g>
       <use style="stroke:#000000;stroke-width:0.8;" x="187.824265" xlink:href="#m02662250e0" y="109.96"/>
      </g>
     </g>
     <g id="text_10">
      <!-- 0 -->
      <g transform="translate(185.279265 123.03875)scale(0.08 -0.08)">
       <use xlink:href="#DejaVuSans-48"/>
      </g>
     </g>
    </g>
    <g id="xtick_4">
     <g id="line2d_9">
      <g>
       <use style="stroke:#000000;stroke-width:0.8;" x="226.313403" xlink:href="#m02662250e0" y="109.96"/>
      </g>
     </g>
     <g id="text_11">
      <!-- 10 -->
      <g transform="translate(221.223403 123.03875)scale(0.08 -0.08)">
       <use xlink:href="#DejaVuSans-49"/>
       <use x="63.623047" xlink:href="#DejaVuSans-48"/>
      </g>
     </g>
    </g>
    <g id="xtick_5">
     <g id="line2d_10">
      <g>
       <use style="stroke:#000000;stroke-width:0.8;" x="264.80254" xlink:href="#m02662250e0" y="109.96"/>
      </g>
     </g>
     <g id="text_12">
      <!-- 20 -->
      <defs>
       <path d="M 19.1875 8.296875 
L 53.609375 8.296875 
L 53.609375 0 
L 7.328125 0 
L 7.328125 8.296875 
Q 12.9375 14.109375 22.625 23.890625 
Q 32.328125 33.6875 34.8125 36.53125 
Q 39.546875 41.84375 41.421875 45.53125 
Q 43.3125 49.21875 43.3125 52.78125 
Q 43.3125 58.59375 39.234375 62.25 
Q 35.15625 65.921875 28.609375 65.921875 
Q 23.96875 65.921875 18.8125 64.3125 
Q 13.671875 62.703125 7.8125 59.421875 
L 7.8125 69.390625 
Q 13.765625 71.78125 18.9375 73 
Q 24.125 74.21875 28.421875 74.21875 
Q 39.75 74.21875 46.484375 68.546875 
Q 53.21875 62.890625 53.21875 53.421875 
Q 53.21875 48.921875 51.53125 44.890625 
Q 49.859375 40.875 45.40625 35.40625 
Q 44.1875 33.984375 37.640625 27.21875 
Q 31.109375 20.453125 19.1875 8.296875 
z
" id="DejaVuSans-50"/>
      </defs>
      <g transform="translate(259.71254 123.03875)scale(0.08 -0.08)">
       <use xlink:href="#DejaVuSans-50"/>
       <use x="63.623047" xlink:href="#DejaVuSans-48"/>
      </g>
     </g>
    </g>
    <g id="text_13">
     <!-- Passive -->
     <g transform="translate(213.911875 134.78125)scale(0.08 -0.08)">
      <use xlink:href="#DejaVuSans-80"/>
      <use x="60.240234" xlink:href="#DejaVuSans-97"/>
      <use x="121.519531" xlink:href="#DejaVuSans-115"/>
      <use x="173.619141" xlink:href="#DejaVuSans-115"/>
      <use x="225.71875" xlink:href="#DejaVuSans-105"/>
      <use x="253.501953" xlink:href="#DejaVuSans-118"/>
      <use x="312.681641" xlink:href="#DejaVuSans-101"/>
     </g>
    </g>
   </g>
   <g id="matplotlib.axis_4">
    <g id="ytick_5">
     <g id="line2d_11">
      <g>
       <use style="stroke:#000000;stroke-width:0.8;" x="182.09" xlink:href="#mbb7b0dffa5" y="104.604424"/>
      </g>
     </g>
     <g id="text_14">
      <!-- 0 -->
      <g transform="translate(170 107.643799)scale(0.08 -0.08)">
       <use xlink:href="#DejaVuSans-48"/>
      </g>
     </g>
    </g>
    <g id="ytick_6">
     <g id="line2d_12">
      <g>
       <use style="stroke:#000000;stroke-width:0.8;" x="182.09" xlink:href="#mbb7b0dffa5" y="86.630762"/>
      </g>
     </g>
     <g id="text_15">
      <!-- 5 -->
      <g transform="translate(170 89.670137)scale(0.08 -0.08)">
       <use xlink:href="#DejaVuSans-53"/>
      </g>
     </g>
    </g>
    <g id="ytick_7">
     <g id="line2d_13">
      <g>
       <use style="stroke:#000000;stroke-width:0.8;" x="182.09" xlink:href="#mbb7b0dffa5" y="68.6571"/>
      </g>
     </g>
     <g id="text_16">
      <!-- 10 -->
      <g transform="translate(164.91 71.696475)scale(0.08 -0.08)">
       <use xlink:href="#DejaVuSans-49"/>
       <use x="63.623047" xlink:href="#DejaVuSans-48"/>
      </g>
     </g>
    </g>
    <g id="ytick_8">
     <g id="line2d_14">
      <g>
       <use style="stroke:#000000;stroke-width:0.8;" x="182.09" xlink:href="#mbb7b0dffa5" y="50.683438"/>
      </g>
     </g>
     <g id="text_17">
      <!-- 15 -->
      <g transform="translate(164.91 53.722813)scale(0.08 -0.08)">
       <use xlink:href="#DejaVuSans-49"/>
       <use x="63.623047" xlink:href="#DejaVuSans-53"/>
      </g>
     </g>
    </g>
    <g id="ytick_9">
     <g id="line2d_15">
      <g>
       <use style="stroke:#000000;stroke-width:0.8;" x="182.09" xlink:href="#mbb7b0dffa5" y="32.709776"/>
      </g>
     </g>
     <g id="text_18">
      <!-- 20 -->
      <g transform="translate(164.91 35.749151)scale(0.08 -0.08)">
       <use xlink:href="#DejaVuSans-50"/>
       <use x="63.623047" xlink:href="#DejaVuSans-48"/>
      </g>
     </g>
    </g>
    <g id="text_19">
     <!-- Active -->
     <g transform="translate(159.24625 78.703125)rotate(-90)scale(0.08 -0.08)">
      <use xlink:href="#DejaVuSans-65"/>
      <use x="68.392578" xlink:href="#DejaVuSans-99"/>
      <use x="123.373047" xlink:href="#DejaVuSans-116"/>
      <use x="162.582031" xlink:href="#DejaVuSans-105"/>
      <use x="190.365234" xlink:href="#DejaVuSans-118"/>
      <use x="249.544922" xlink:href="#DejaVuSans-101"/>
     </g>
    </g>
   </g>
   <g id="line2d_16">
    <path clip-path="url(#p3dab1b1850)" d="M 186.343636 105.987273 
L 271.416364 26.532727 
" style="fill:none;stroke:#808080;stroke-dasharray:5.55,2.4;stroke-dashoffset:0;stroke-width:1.5;"/>
   </g>
   <g id="patch_6">
    <path d="M 182.09 109.96 
L 182.09 22.56 
" style="fill:none;stroke:#000000;stroke-linecap:square;stroke-linejoin:miter;stroke-width:0.8;"/>
   </g>
   <g id="patch_7">
    <path d="M 182.09 109.96 
L 275.67 109.96 
" style="fill:none;stroke:#000000;stroke-linecap:square;stroke-linejoin:miter;stroke-width:0.8;"/>
   </g>
   <g id="text_20">
    <!-- Shared noise variance -->
    <defs>
     <path d="M 54.890625 33.015625 
L 54.890625 0 
L 45.90625 0 
L 45.90625 32.71875 
Q 45.90625 40.484375 42.875 44.328125 
Q 39.84375 48.1875 33.796875 48.1875 
Q 26.515625 48.1875 22.3125 43.546875 
Q 18.109375 38.921875 18.109375 30.90625 
L 18.109375 0 
L 9.078125 0 
L 9.078125 75.984375 
L 18.109375 75.984375 
L 18.109375 46.1875 
Q 21.34375 51.125 25.703125 53.5625 
Q 30.078125 56 35.796875 56 
Q 45.21875 56 50.046875 50.171875 
Q 54.890625 44.34375 54.890625 33.015625 
z
" id="DejaVuSans-104"/>
     <path d="M 41.109375 46.296875 
Q 39.59375 47.171875 37.8125 47.578125 
Q 36.03125 48 33.890625 48 
Q 26.265625 48 22.1875 43.046875 
Q 18.109375 38.09375 18.109375 28.8125 
L 18.109375 0 
L 9.078125 0 
L 9.078125 54.6875 
L 18.109375 54.6875 
L 18.109375 46.1875 
Q 20.953125 51.171875 25.484375 53.578125 
Q 30.03125 56 36.53125 56 
Q 37.453125 56 38.578125 55.875 
Q 39.703125 55.765625 41.0625 55.515625 
z
" id="DejaVuSans-114"/>
     <path d="M 30.609375 48.390625 
Q 23.390625 48.390625 19.1875 42.75 
Q 14.984375 37.109375 14.984375 27.296875 
Q 14.984375 17.484375 19.15625 11.84375 
Q 23.34375 6.203125 30.609375 6.203125 
Q 37.796875 6.203125 41.984375 11.859375 
Q 46.1875 17.53125 46.1875 27.296875 
Q 46.1875 37.015625 41.984375 42.703125 
Q 37.796875 48.390625 30.609375 48.390625 
z
M 30.609375 56 
Q 42.328125 56 49.015625 48.375 
Q 55.71875 40.765625 55.71875 27.296875 
Q 55.71875 13.875 49.015625 6.21875 
Q 42.328125 -1.421875 30.609375 -1.421875 
Q 18.84375 -1.421875 12.171875 6.21875 
Q 5.515625 13.875 5.515625 27.296875 
Q 5.515625 40.765625 12.171875 48.375 
Q 18.84375 56 30.609375 56 
z
" id="DejaVuSans-111"/>
    </defs>
    <g transform="translate(175.39375 16.56)scale(0.096 -0.096)">
     <use xlink:href="#DejaVuSans-83"/>
     <use x="63.476562" xlink:href="#DejaVuSans-104"/>
     <use x="126.855469" xlink:href="#DejaVuSans-97"/>
     <use x="188.134766" xlink:href="#DejaVuSans-114"/>
     <use x="229.216797" xlink:href="#DejaVuSans-101"/>
     <use x="290.740234" xlink:href="#DejaVuSans-100"/>
     <use x="354.216797" xlink:href="#DejaVuSans-32"/>
     <use x="386.003906" xlink:href="#DejaVuSans-110"/>
     <use x="449.382812" xlink:href="#DejaVuSans-111"/>
     <use x="510.564453" xlink:href="#DejaVuSans-105"/>
     <use x="538.347656" xlink:href="#DejaVuSans-115"/>
     <use x="590.447266" xlink:href="#DejaVuSans-101"/>
     <use x="651.970703" xlink:href="#DejaVuSans-32"/>
     <use x="683.757812" xlink:href="#DejaVuSans-118"/>
     <use x="742.9375" xlink:href="#DejaVuSans-97"/>
     <use x="804.216797" xlink:href="#DejaVuSans-114"/>
     <use x="845.330078" xlink:href="#DejaVuSans-105"/>
     <use x="873.113281" xlink:href="#DejaVuSans-97"/>
     <use x="934.392578" xlink:href="#DejaVuSans-110"/>
     <use x="997.771484" xlink:href="#DejaVuSans-99"/>
     <use x="1052.751953" xlink:href="#DejaVuSans-101"/>
    </g>
   </g>
  </g>
  <g id="axes_3">
   <g id="patch_8">
    <path d="M 327.26 109.96 
L 348.255 109.96 
L 348.255 22.56 
L 327.26 22.56 
z
" style="fill:#ffffff;"/>
   </g>
   <g id="matplotlib.axis_5">
    <g id="xtick_6">
     <g id="line2d_17">
      <g>
       <use style="stroke:#000000;stroke-width:0.8;" x="327.26" xlink:href="#m02662250e0" y="109.96"/>
      </g>
     </g>
     <g id="text_21">
      <!-- −0.5 -->
      <defs>
       <path d="M 10.59375 35.5 
L 73.1875 35.5 
L 73.1875 27.203125 
L 10.59375 27.203125 
z
" id="DejaVuSans-8722"/>
       <path d="M 10.6875 12.40625 
L 21 12.40625 
L 21 0 
L 10.6875 0 
z
" id="DejaVuSans-46"/>
      </defs>
      <g transform="translate(317.546875 123.03875)scale(0.08 -0.08)">
       <use xlink:href="#DejaVuSans-8722"/>
       <use x="83.789062" xlink:href="#DejaVuSans-48"/>
       <use x="147.412109" xlink:href="#DejaVuSans-46"/>
       <use x="179.199219" xlink:href="#DejaVuSans-53"/>
      </g>
     </g>
    </g>
    <g id="xtick_7">
     <g id="line2d_18">
      <g>
       <use style="stroke:#000000;stroke-width:0.8;" x="337.7575" xlink:href="#m02662250e0" y="109.96"/>
      </g>
     </g>
     <g id="text_22">
      <!-- 0.0 -->
      <g transform="translate(331.39625 123.03875)scale(0.08 -0.08)">
       <use xlink:href="#DejaVuSans-48"/>
       <use x="63.623047" xlink:href="#DejaVuSans-46"/>
       <use x="95.410156" xlink:href="#DejaVuSans-48"/>
      </g>
     </g>
    </g>
    <g id="xtick_8">
     <g id="line2d_19">
      <g>
       <use style="stroke:#000000;stroke-width:0.8;" x="348.255" xlink:href="#m02662250e0" y="109.96"/>
      </g>
     </g>
     <g id="text_23">
      <!-- 0.5 -->
      <g transform="translate(341.89375 123.03875)scale(0.08 -0.08)">
       <use xlink:href="#DejaVuSans-48"/>
       <use x="63.623047" xlink:href="#DejaVuSans-46"/>
       <use x="95.410156" xlink:href="#DejaVuSans-53"/>
      </g>
     </g>
    </g>
   </g>
   <g id="matplotlib.axis_6">
    <g id="ytick_10">
     <g id="line2d_20">
      <g>
       <use style="stroke:#000000;stroke-width:0.8;" x="327.26" xlink:href="#mbb7b0dffa5" y="98.02196"/>
      </g>
     </g>
     <g id="text_24">
      <!-- −0.25 -->
      <g transform="translate(295.74375 101.061335)scale(0.08 -0.08)">
       <use xlink:href="#DejaVuSans-8722"/>
       <use x="83.789062" xlink:href="#DejaVuSans-48"/>
       <use x="147.412109" xlink:href="#DejaVuSans-46"/>
       <use x="179.199219" xlink:href="#DejaVuSans-50"/>
       <use x="242.822266" xlink:href="#DejaVuSans-53"/>
      </g>
     </g>
    </g>
    <g id="ytick_11">
     <g id="line2d_21">
      <g>
       <use style="stroke:#000000;stroke-width:0.8;" x="327.26" xlink:href="#mbb7b0dffa5" y="76.915813"/>
      </g>
     </g>
     <g id="text_25">
      <!-- 0.00 -->
      <g transform="translate(302.4475 79.955188)scale(0.08 -0.08)">
       <use xlink:href="#DejaVuSans-48"/>
       <use x="63.623047" xlink:href="#DejaVuSans-46"/>
       <use x="95.410156" xlink:href="#DejaVuSans-48"/>
       <use x="159.033203" xlink:href="#DejaVuSans-48"/>
      </g>
     </g>
    </g>
    <g id="ytick_12">
     <g id="line2d_22">
      <g>
       <use style="stroke:#000000;stroke-width:0.8;" x="327.26" xlink:href="#mbb7b0dffa5" y="55.809666"/>
      </g>
     </g>
     <g id="text_26">
      <!-- 0.25 -->
      <g transform="translate(302.4475 58.849041)scale(0.08 -0.08)">
       <use xlink:href="#DejaVuSans-48"/>
       <use x="63.623047" xlink:href="#DejaVuSans-46"/>
       <use x="95.410156" xlink:href="#DejaVuSans-50"/>
       <use x="159.033203" xlink:href="#DejaVuSans-53"/>
      </g>
     </g>
    </g>
    <g id="ytick_13">
     <g id="line2d_23">
      <g>
       <use style="stroke:#000000;stroke-width:0.8;" x="327.26" xlink:href="#mbb7b0dffa5" y="34.703518"/>
      </g>
     </g>
     <g id="text_27">
      <!-- 0.50 -->
      <g transform="translate(302.4475 37.742893)scale(0.08 -0.08)">
       <use xlink:href="#DejaVuSans-48"/>
       <use x="63.623047" xlink:href="#DejaVuSans-46"/>
       <use x="95.410156" xlink:href="#DejaVuSans-53"/>
       <use x="159.033203" xlink:href="#DejaVuSans-48"/>
      </g>
     </g>
    </g>
    <g id="text_28">
     <!-- $cv\beta$ weight -->
     <defs>
      <path d="M 53.609375 52.59375 
L 51.8125 43.703125 
Q 48.578125 46.046875 44.9375 47.21875 
Q 41.3125 48.390625 37.40625 48.390625 
Q 33.109375 48.390625 29.21875 46.875 
Q 25.34375 45.359375 22.703125 42.578125 
Q 18.5 38.328125 16.203125 32.609375 
Q 13.921875 26.90625 13.921875 20.796875 
Q 13.921875 13.421875 17.609375 9.8125 
Q 21.296875 6.203125 28.8125 6.203125 
Q 32.515625 6.203125 36.6875 7.328125 
Q 40.875 8.453125 45.40625 10.6875 
L 43.703125 1.8125 
Q 39.796875 0.203125 35.671875 -0.609375 
Q 31.546875 -1.421875 27.203125 -1.421875 
Q 16.3125 -1.421875 10.453125 4.015625 
Q 4.59375 9.46875 4.59375 19.578125 
Q 4.59375 28.078125 7.640625 35.234375 
Q 10.6875 42.390625 16.703125 48.09375 
Q 20.796875 52 26.3125 54 
Q 31.84375 56 38.375 56 
Q 42.1875 56 45.9375 55.140625 
Q 49.703125 54.296875 53.609375 52.59375 
z
" id="DejaVuSans-Oblique-99"/>
      <path d="M 7.171875 54.6875 
L 16.703125 54.6875 
L 24.703125 8.203125 
L 50.875 54.6875 
L 60.40625 54.6875 
L 29.296875 0 
L 17.1875 0 
z
" id="DejaVuSans-Oblique-118"/>
      <path d="M 13.625 3.375 
L 8.9375 -20.796875 
L -0.09375 -20.796875 
L 14.5 54.34375 
Q 18.84375 76.609375 39.65625 76.609375 
Q 60.75 76.609375 57.171875 57.8125 
Q 54.734375 44.4375 45.21875 39.546875 
Q 58.015625 35.15625 55.515625 22.125 
Q 51.125 -1.078125 27.484375 -1.03125 
Q 17.140625 -0.984375 13.625 3.375 
z
M 15.921875 15.09375 
Q 19.671875 6.59375 29.296875 6.640625 
Q 43.359375 6.640625 46.34375 21.96875 
Q 49.03125 35.75 26.171875 34.671875 
L 27.78125 42.96875 
Q 45.453125 42.671875 48.53125 58.59375 
Q 50.640625 69.34375 39.203125 69.28125 
Q 26.421875 69.28125 23.484375 54.046875 
z
" id="DejaVuSans-Oblique-946"/>
      <path d="M 4.203125 54.6875 
L 13.1875 54.6875 
L 24.421875 12.015625 
L 35.59375 54.6875 
L 46.1875 54.6875 
L 57.421875 12.015625 
L 68.609375 54.6875 
L 77.59375 54.6875 
L 63.28125 0 
L 52.6875 0 
L 40.921875 44.828125 
L 29.109375 0 
L 18.5 0 
z
" id="DejaVuSans-119"/>
     </defs>
     <g transform="translate(290.06375 88.14)rotate(-90)scale(0.08 -0.08)">
      <use transform="translate(0 0.390625)" xlink:href="#DejaVuSans-Oblique-99"/>
      <use transform="translate(54.980469 0.390625)" xlink:href="#DejaVuSans-Oblique-118"/>
      <use transform="translate(114.160156 0.390625)" xlink:href="#DejaVuSans-Oblique-946"/>
      <use transform="translate(177.978516 0.390625)" xlink:href="#DejaVuSans-32"/>
      <use transform="translate(209.765625 0.390625)" xlink:href="#DejaVuSans-119"/>
      <use transform="translate(291.552734 0.390625)" xlink:href="#DejaVuSans-101"/>
      <use transform="translate(353.076172 0.390625)" xlink:href="#DejaVuSans-105"/>
      <use transform="translate(380.859375 0.390625)" xlink:href="#DejaVuSans-103"/>
      <use transform="translate(444.335938 0.390625)" xlink:href="#DejaVuSans-104"/>
      <use transform="translate(507.714844 0.390625)" xlink:href="#DejaVuSans-116"/>
     </g>
    </g>
   </g>
   <g id="LineCollection_1">
    <path clip-path="url(#pbec005f949)" d="M 343.00625 105.987273 
L 343.00625 88.906428 
" style="fill:none;stroke:#ff7f0e;"/>
   </g>
   <g id="LineCollection_2">
    <path clip-path="url(#pbec005f949)" d="M 332.50875 55.216962 
L 332.50875 26.532727 
" style="fill:none;stroke:#1f77b4;"/>
   </g>
   <g id="line2d_24">
    <defs>
     <path d="M 2 0 
L -2 -0 
" id="m3e68a93812" style="stroke:#ff7f0e;"/>
    </defs>
    <g clip-path="url(#pbec005f949)">
     <use style="fill:#ff7f0e;stroke:#ff7f0e;" x="343.00625" xlink:href="#m3e68a93812" y="105.987273"/>
    </g>
   </g>
   <g id="line2d_25">
    <g clip-path="url(#pbec005f949)">
     <use style="fill:#ff7f0e;stroke:#ff7f0e;" x="343.00625" xlink:href="#m3e68a93812" y="88.906428"/>
    </g>
   </g>
   <g id="line2d_26">
    <defs>
     <path d="M 2 0 
L -2 -0 
" id="m70ea73cbfa" style="stroke:#1f77b4;"/>
    </defs>
    <g clip-path="url(#pbec005f949)">
     <use style="fill:#1f77b4;stroke:#1f77b4;" x="332.50875" xlink:href="#m70ea73cbfa" y="55.216962"/>
    </g>
   </g>
   <g id="line2d_27">
    <g clip-path="url(#pbec005f949)">
     <use style="fill:#1f77b4;stroke:#1f77b4;" x="332.50875" xlink:href="#m70ea73cbfa" y="26.532727"/>
    </g>
   </g>
   <g id="line2d_28">
    <path clip-path="url(#pbec005f949)" d="M 327.26 76.915813 
L 348.255 76.915813 
" style="fill:none;stroke:#808080;stroke-dasharray:5.55,2.4;stroke-dashoffset:0;stroke-width:1.5;"/>
   </g>
   <g id="line2d_29">
    <path clip-path="url(#pbec005f949)" d="M 343.00625 97.752756 
" style="fill:none;"/>
    <defs>
     <path d="M 0 3 
C 0.795609 3 1.55874 2.683901 2.12132 2.12132 
C 2.683901 1.55874 3 0.795609 3 0 
C 3 -0.795609 2.683901 -1.55874 2.12132 -2.12132 
C 1.55874 -2.683901 0.795609 -3 0 -3 
C -0.795609 -3 -1.55874 -2.683901 -2.12132 -2.12132 
C -2.683901 -1.55874 -3 -0.795609 -3 0 
C -3 0.795609 -2.683901 1.55874 -2.12132 2.12132 
C -1.55874 2.683901 -0.795609 3 0 3 
z
" id="m85341b869c" style="stroke:#ff7f0e;"/>
    </defs>
    <g clip-path="url(#pbec005f949)">
     <use style="fill:#ff7f0e;stroke:#ff7f0e;" x="343.00625" xlink:href="#m85341b869c" y="97.752756"/>
    </g>
   </g>
   <g id="line2d_30">
    <path clip-path="url(#pbec005f949)" d="M 332.50875 39.350964 
" style="fill:none;"/>
    <defs>
     <path d="M 0 3 
C 0.795609 3 1.55874 2.683901 2.12132 2.12132 
C 2.683901 1.55874 3 0.795609 3 0 
C 3 -0.795609 2.683901 -1.55874 2.12132 -2.12132 
C 1.55874 -2.683901 0.795609 -3 0 -3 
C -0.795609 -3 -1.55874 -2.683901 -2.12132 -2.12132 
C -2.683901 -1.55874 -3 -0.795609 -3 0 
C -3 0.795609 -2.683901 1.55874 -2.12132 2.12132 
C -1.55874 2.683901 -0.795609 3 0 3 
z
" id="m499a89ff0c" style="stroke:#1f77b4;"/>
    </defs>
    <g clip-path="url(#pbec005f949)">
     <use style="fill:#1f77b4;stroke:#1f77b4;" x="332.50875" xlink:href="#m499a89ff0c" y="39.350964"/>
    </g>
   </g>
   <g id="patch_9">
    <path d="M 327.26 109.96 
L 327.26 22.56 
" style="fill:none;stroke:#000000;stroke-linecap:square;stroke-linejoin:miter;stroke-width:0.8;"/>
   </g>
   <g id="patch_10">
    <path d="M 327.26 109.96 
L 348.255 109.96 
" style="fill:none;stroke:#000000;stroke-linecap:square;stroke-linejoin:miter;stroke-width:0.8;"/>
   </g>
  </g>
  <g id="axes_4">
   <g id="patch_11">
    <path d="M 399.845 109.96 
L 420.84 109.96 
L 420.84 22.56 
L 399.845 22.56 
z
" style="fill:#ffffff;"/>
   </g>
   <g id="patch_12">
    <path clip-path="url(#p9df941536b)" d="M 412.966875 100.248889 
L 418.215625 100.248889 
L 418.215625 81.840114 
L 412.966875 81.840114 
z
" style="fill:#ff7f0e;stroke:#000000;stroke-linejoin:miter;"/>
   </g>
   <g id="patch_13">
    <path clip-path="url(#p9df941536b)" d="M 402.469375 100.248889 
L 407.718125 100.248889 
L 407.718125 56.354593 
L 402.469375 56.354593 
z
" style="fill:#1f77b4;stroke:#000000;stroke-linejoin:miter;"/>
   </g>
   <g id="matplotlib.axis_7">
    <g id="xtick_9">
     <g id="line2d_31">
      <g>
       <use style="stroke:#000000;stroke-width:0.8;" x="399.845" xlink:href="#m02662250e0" y="109.96"/>
      </g>
     </g>
     <g id="text_29">
      <!-- −1 -->
      <g transform="translate(393.948125 123.03875)scale(0.08 -0.08)">
       <use xlink:href="#DejaVuSans-8722"/>
       <use x="83.789062" xlink:href="#DejaVuSans-49"/>
      </g>
     </g>
    </g>
    <g id="xtick_10">
     <g id="line2d_32">
      <g>
       <use style="stroke:#000000;stroke-width:0.8;" x="410.3425" xlink:href="#m02662250e0" y="109.96"/>
      </g>
     </g>
     <g id="text_30">
      <!-- 0 -->
      <g transform="translate(407.7975 123.03875)scale(0.08 -0.08)">
       <use xlink:href="#DejaVuSans-48"/>
      </g>
     </g>
    </g>
    <g id="xtick_11">
     <g id="line2d_33">
      <g>
       <use style="stroke:#000000;stroke-width:0.8;" x="420.84" xlink:href="#m02662250e0" y="109.96"/>
      </g>
     </g>
     <g id="text_31">
      <!-- 1 -->
      <g transform="translate(418.295 123.03875)scale(0.08 -0.08)">
       <use xlink:href="#DejaVuSans-49"/>
      </g>
     </g>
    </g>
   </g>
   <g id="matplotlib.axis_8">
    <g id="ytick_14">
     <g id="line2d_34">
      <g>
       <use style="stroke:#000000;stroke-width:0.8;" x="399.845" xlink:href="#mbb7b0dffa5" y="100.248889"/>
      </g>
     </g>
     <g id="text_32">
      <!-- 0.0 -->
      <g transform="translate(380.1225 103.288264)scale(0.08 -0.08)">
       <use xlink:href="#DejaVuSans-48"/>
       <use x="63.623047" xlink:href="#DejaVuSans-46"/>
       <use x="95.410156" xlink:href="#DejaVuSans-48"/>
      </g>
     </g>
    </g>
    <g id="ytick_15">
     <g id="line2d_35">
      <g>
       <use style="stroke:#000000;stroke-width:0.8;" x="399.845" xlink:href="#mbb7b0dffa5" y="80.826667"/>
      </g>
     </g>
     <g id="text_33">
      <!-- 0.1 -->
      <g transform="translate(380.1225 83.866042)scale(0.08 -0.08)">
       <use xlink:href="#DejaVuSans-48"/>
       <use x="63.623047" xlink:href="#DejaVuSans-46"/>
       <use x="95.410156" xlink:href="#DejaVuSans-49"/>
      </g>
     </g>
    </g>
    <g id="ytick_16">
     <g id="line2d_36">
      <g>
       <use style="stroke:#000000;stroke-width:0.8;" x="399.845" xlink:href="#mbb7b0dffa5" y="61.404444"/>
      </g>
     </g>
     <g id="text_34">
      <!-- 0.2 -->
      <g transform="translate(380.1225 64.443819)scale(0.08 -0.08)">
       <use xlink:href="#DejaVuSans-48"/>
       <use x="63.623047" xlink:href="#DejaVuSans-46"/>
       <use x="95.410156" xlink:href="#DejaVuSans-50"/>
      </g>
     </g>
    </g>
    <g id="ytick_17">
     <g id="line2d_37">
      <g>
       <use style="stroke:#000000;stroke-width:0.8;" x="399.845" xlink:href="#mbb7b0dffa5" y="41.982222"/>
      </g>
     </g>
     <g id="text_35">
      <!-- 0.3 -->
      <defs>
       <path d="M 40.578125 39.3125 
Q 47.65625 37.796875 51.625 33 
Q 55.609375 28.21875 55.609375 21.1875 
Q 55.609375 10.40625 48.1875 4.484375 
Q 40.765625 -1.421875 27.09375 -1.421875 
Q 22.515625 -1.421875 17.65625 -0.515625 
Q 12.796875 0.390625 7.625 2.203125 
L 7.625 11.71875 
Q 11.71875 9.328125 16.59375 8.109375 
Q 21.484375 6.890625 26.8125 6.890625 
Q 36.078125 6.890625 40.9375 10.546875 
Q 45.796875 14.203125 45.796875 21.1875 
Q 45.796875 27.640625 41.28125 31.265625 
Q 36.765625 34.90625 28.71875 34.90625 
L 20.21875 34.90625 
L 20.21875 43.015625 
L 29.109375 43.015625 
Q 36.375 43.015625 40.234375 45.921875 
Q 44.09375 48.828125 44.09375 54.296875 
Q 44.09375 59.90625 40.109375 62.90625 
Q 36.140625 65.921875 28.71875 65.921875 
Q 24.65625 65.921875 20.015625 65.03125 
Q 15.375 64.15625 9.8125 62.3125 
L 9.8125 71.09375 
Q 15.4375 72.65625 20.34375 73.4375 
Q 25.25 74.21875 29.59375 74.21875 
Q 40.828125 74.21875 47.359375 69.109375 
Q 53.90625 64.015625 53.90625 55.328125 
Q 53.90625 49.265625 50.4375 45.09375 
Q 46.96875 40.921875 40.578125 39.3125 
z
" id="DejaVuSans-51"/>
      </defs>
      <g transform="translate(380.1225 45.021597)scale(0.08 -0.08)">
       <use xlink:href="#DejaVuSans-48"/>
       <use x="63.623047" xlink:href="#DejaVuSans-46"/>
       <use x="95.410156" xlink:href="#DejaVuSans-51"/>
      </g>
     </g>
    </g>
    <g id="ytick_18">
     <g id="line2d_38">
      <g>
       <use style="stroke:#000000;stroke-width:0.8;" x="399.845" xlink:href="#mbb7b0dffa5" y="22.56"/>
      </g>
     </g>
     <g id="text_36">
      <!-- 0.4 -->
      <defs>
       <path d="M 37.796875 64.3125 
L 12.890625 25.390625 
L 37.796875 25.390625 
z
M 35.203125 72.90625 
L 47.609375 72.90625 
L 47.609375 25.390625 
L 58.015625 25.390625 
L 58.015625 17.1875 
L 47.609375 17.1875 
L 47.609375 0 
L 37.796875 0 
L 37.796875 17.1875 
L 4.890625 17.1875 
L 4.890625 26.703125 
z
" id="DejaVuSans-52"/>
      </defs>
      <g transform="translate(380.1225 25.599375)scale(0.08 -0.08)">
       <use xlink:href="#DejaVuSans-48"/>
       <use x="63.623047" xlink:href="#DejaVuSans-46"/>
       <use x="95.410156" xlink:href="#DejaVuSans-52"/>
      </g>
     </g>
    </g>
    <g id="text_37">
     <!-- $cvR_{unique}^2$ -->
     <defs>
      <path d="M 25.203125 64.796875 
L 20.21875 38.921875 
L 32.90625 38.921875 
Q 40.375 38.921875 44.984375 43.046875 
Q 49.609375 47.171875 49.609375 53.8125 
Q 49.609375 59.125 46.5 61.953125 
Q 43.40625 64.796875 37.59375 64.796875 
z
M 43.3125 35.015625 
Q 46.4375 34.28125 48.515625 31.390625 
Q 50.59375 28.515625 53.328125 19.921875 
L 59.515625 0 
L 49.125 0 
L 43.40625 18.703125 
Q 41.21875 25.921875 38.328125 28.359375 
Q 35.453125 30.8125 29.5 30.8125 
L 18.609375 30.8125 
L 12.59375 0 
L 2.6875 0 
L 16.890625 72.90625 
L 39.109375 72.90625 
Q 49.21875 72.90625 54.609375 68.328125 
Q 60.015625 63.765625 60.015625 55.171875 
Q 60.015625 47.5625 55.421875 41.984375 
Q 50.828125 36.421875 43.3125 35.015625 
z
" id="DejaVuSans-Oblique-82"/>
      <path d="M 6.6875 21.6875 
L 13.09375 54.6875 
L 22.125 54.6875 
L 15.71875 22.015625 
Q 15.234375 19.625 15.015625 17.921875 
Q 14.796875 16.21875 14.796875 15.09375 
Q 14.796875 10.9375 17.328125 8.65625 
Q 19.875 6.390625 24.515625 6.390625 
Q 31.734375 6.390625 37 11.265625 
Q 42.28125 16.15625 43.890625 24.421875 
L 49.90625 54.6875 
L 58.890625 54.6875 
L 48.296875 0 
L 39.3125 0 
L 41.109375 8.59375 
Q 37.3125 3.8125 32.0625 1.1875 
Q 26.8125 -1.421875 20.90625 -1.421875 
Q 13.71875 -1.421875 9.71875 2.515625 
Q 5.71875 6.453125 5.71875 13.484375 
Q 5.71875 14.9375 5.953125 17.140625 
Q 6.203125 19.34375 6.6875 21.6875 
z
" id="DejaVuSans-Oblique-117"/>
      <path d="M 55.71875 33.015625 
L 49.3125 0 
L 40.28125 0 
L 46.6875 32.671875 
Q 47.125 34.96875 47.359375 36.71875 
Q 47.609375 38.484375 47.609375 39.5 
Q 47.609375 43.609375 45.015625 45.890625 
Q 42.4375 48.1875 37.796875 48.1875 
Q 30.5625 48.1875 25.34375 43.375 
Q 20.125 38.578125 18.5 30.328125 
L 12.5 0 
L 3.515625 0 
L 14.109375 54.6875 
L 23.09375 54.6875 
L 21.296875 46.09375 
Q 25.046875 50.828125 30.3125 53.40625 
Q 35.59375 56 41.40625 56 
Q 48.640625 56 52.609375 52.09375 
Q 56.59375 48.1875 56.59375 41.109375 
Q 56.59375 39.359375 56.375 37.359375 
Q 56.15625 35.359375 55.71875 33.015625 
z
" id="DejaVuSans-Oblique-110"/>
      <path d="M 18.3125 75.984375 
L 27.296875 75.984375 
L 25.09375 64.59375 
L 16.109375 64.59375 
z
M 14.203125 54.6875 
L 23.1875 54.6875 
L 12.5 0 
L 3.515625 0 
z
" id="DejaVuSans-Oblique-105"/>
      <path d="M 41.703125 8.203125 
Q 38.09375 3.46875 33.171875 1.015625 
Q 28.265625 -1.421875 22.3125 -1.421875 
Q 14.015625 -1.421875 9.296875 4.171875 
Q 4.59375 9.765625 4.59375 19.578125 
Q 4.59375 27.484375 7.5 34.859375 
Q 10.40625 42.234375 15.828125 48.09375 
Q 19.34375 51.90625 23.90625 53.953125 
Q 28.46875 56 33.5 56 
Q 39.546875 56 43.453125 53.609375 
Q 47.359375 51.21875 49.125 46.390625 
L 50.6875 54.59375 
L 59.71875 54.59375 
L 45.125 -20.609375 
L 36.078125 -20.609375 
z
M 13.921875 20.90625 
Q 13.921875 13.671875 16.9375 9.890625 
Q 19.96875 6.109375 25.6875 6.109375 
Q 34.1875 6.109375 40.1875 14.234375 
Q 46.1875 22.359375 46.1875 33.984375 
Q 46.1875 41.015625 43.078125 44.75 
Q 39.984375 48.484375 34.1875 48.484375 
Q 29.9375 48.484375 26.3125 46.5 
Q 22.703125 44.53125 20.015625 40.71875 
Q 17.1875 36.71875 15.546875 31.34375 
Q 13.921875 25.984375 13.921875 20.90625 
z
" id="DejaVuSans-Oblique-113"/>
      <path d="M 48.09375 32.234375 
Q 48.25 33.015625 48.3125 33.84375 
Q 48.390625 34.671875 48.390625 35.5 
Q 48.390625 41.453125 44.890625 44.921875 
Q 41.40625 48.390625 35.40625 48.390625 
Q 28.71875 48.390625 23.578125 44.15625 
Q 18.453125 39.9375 15.828125 32.171875 
z
M 55.90625 25.203125 
L 14.109375 25.203125 
Q 13.8125 23.34375 13.71875 22.265625 
Q 13.625 21.1875 13.625 20.40625 
Q 13.625 13.625 17.796875 9.90625 
Q 21.96875 6.203125 29.59375 6.203125 
Q 35.453125 6.203125 40.671875 7.515625 
Q 45.90625 8.84375 50.390625 11.375 
L 48.6875 2.484375 
Q 43.84375 0.53125 38.6875 -0.4375 
Q 33.546875 -1.421875 28.21875 -1.421875 
Q 16.84375 -1.421875 10.71875 4.015625 
Q 4.59375 9.46875 4.59375 19.484375 
Q 4.59375 28.03125 7.640625 35.375 
Q 10.6875 42.71875 16.609375 48.484375 
Q 20.40625 52.09375 25.65625 54.046875 
Q 30.90625 56 36.8125 56 
Q 46.09375 56 51.578125 50.4375 
Q 57.078125 44.875 57.078125 35.5 
Q 57.078125 33.25 56.78125 30.6875 
Q 56.5 28.125 55.90625 25.203125 
z
" id="DejaVuSans-Oblique-101"/>
     </defs>
     <g transform="translate(372.7625 83.34)rotate(-90)scale(0.08 -0.08)">
      <use transform="translate(0 0.701562)" xlink:href="#DejaVuSans-Oblique-99"/>
      <use transform="translate(54.980469 0.701562)" xlink:href="#DejaVuSans-Oblique-118"/>
      <use transform="translate(114.160156 0.701562)" xlink:href="#DejaVuSans-Oblique-82"/>
      <use transform="translate(190.659349 39.046875)scale(0.7)" xlink:href="#DejaVuSans-50"/>
      <use transform="translate(183.642578 -26.642188)scale(0.7)" xlink:href="#DejaVuSans-Oblique-117"/>
      <use transform="translate(228.007812 -26.642188)scale(0.7)" xlink:href="#DejaVuSans-Oblique-110"/>
      <use transform="translate(272.373047 -26.642188)scale(0.7)" xlink:href="#DejaVuSans-Oblique-105"/>
      <use transform="translate(291.821289 -26.642188)scale(0.7)" xlink:href="#DejaVuSans-Oblique-113"/>
      <use transform="translate(336.254883 -26.642188)scale(0.7)" xlink:href="#DejaVuSans-Oblique-117"/>
      <use transform="translate(380.620117 -26.642188)scale(0.7)" xlink:href="#DejaVuSans-Oblique-101"/>
     </g>
    </g>
   </g>
   <g id="LineCollection_3">
    <path clip-path="url(#p9df941536b)" d="M 415.59125 96.502728 
L 415.59125 66.960452 
" style="fill:none;stroke:#000000;"/>
   </g>
   <g id="LineCollection_4">
    <path clip-path="url(#p9df941536b)" d="M 405.09375 77.203996 
L 405.09375 32.972416 
" style="fill:none;stroke:#000000;"/>
   </g>
   <g id="line2d_39">
    <defs>
     <path d="M 2 0 
L -2 -0 
" id="mcb67b85c6a" style="stroke:#000000;"/>
    </defs>
    <g clip-path="url(#p9df941536b)">
     <use style="stroke:#000000;" x="415.59125" xlink:href="#mcb67b85c6a" y="96.502728"/>
    </g>
   </g>
   <g id="line2d_40">
    <g clip-path="url(#p9df941536b)">
     <use style="stroke:#000000;" x="415.59125" xlink:href="#mcb67b85c6a" y="66.960452"/>
    </g>
   </g>
   <g id="line2d_41">
    <g clip-path="url(#p9df941536b)">
     <use style="stroke:#000000;" x="405.09375" xlink:href="#mcb67b85c6a" y="77.203996"/>
    </g>
   </g>
   <g id="line2d_42">
    <g clip-path="url(#p9df941536b)">
     <use style="stroke:#000000;" x="405.09375" xlink:href="#mcb67b85c6a" y="32.972416"/>
    </g>
   </g>
   <g id="line2d_43">
    <path clip-path="url(#p9df941536b)" d="M 399.845 100.248889 
L 420.84 100.248889 
" style="fill:none;stroke:#808080;stroke-dasharray:5.55,2.4;stroke-dashoffset:0;stroke-width:1.5;"/>
   </g>
   <g id="patch_14">
    <path d="M 399.845 109.96 
L 399.845 22.56 
" style="fill:none;stroke:#000000;stroke-linecap:square;stroke-linejoin:miter;stroke-width:0.8;"/>
   </g>
   <g id="patch_15">
    <path d="M 399.845 109.96 
L 420.84 109.96 
" style="fill:none;stroke:#000000;stroke-linecap:square;stroke-linejoin:miter;stroke-width:0.8;"/>
   </g>
  </g>
 </g>
 <defs>
  <clipPath id="p8f28d1df99">
   <rect height="87.4" width="93.58" x="36.92" y="22.56"/>
  </clipPath>
  <clipPath id="p3dab1b1850">
   <rect height="87.4" width="93.58" x="182.09" y="22.56"/>
  </clipPath>
  <clipPath id="pbec005f949">
   <rect height="87.4" width="20.995" x="327.26" y="22.56"/>
  </clipPath>
  <clipPath id="p9df941536b">
   <rect height="87.4" width="20.995" x="399.845" y="22.56"/>
  </clipPath>
 </defs>
</svg>
