<?xml version="1.0" encoding="utf-8" standalone="no"?>
<!DOCTYPE svg PUBLIC "-//W3C//DTD SVG 1.1//EN"
  "http://www.w3.org/Graphics/SVG/1.1/DTD/svg11.dtd">
<!-- Created with matplotlib (https://matplotlib.org/) -->
<svg height="288pt" version="1.1" viewBox="0 0 576 288" width="576pt" xmlns="http://www.w3.org/2000/svg" xmlns:xlink="http://www.w3.org/1999/xlink">
 <defs>
  <style type="text/css">
*{stroke-linecap:butt;stroke-linejoin:round;}
  </style>
 </defs>
 <g id="figure_1">
  <g id="patch_1">
   <path d="M 0 288 
L 576 288 
L 576 0 
L 0 0 
z
" style="fill:#ffffff;"/>
  </g>
  <g id="axes_1">
   <g id="patch_2">
    <path d="M 64.748 222.518286 
L 277.209 222.518286 
L 277.209 26.88 
L 64.748 26.88 
z
" style="fill:#ffffff;"/>
   </g>
   <g id="patch_3">
    <path clip-path="url(#p2b918ef1c0)" d="M 132.73552 194.569959 
L 166.72928 194.569959 
L 166.72928 153.22836 
L 132.73552 153.22836 
z
" style="fill:#ff7f0e;stroke:#000000;stroke-linejoin:miter;stroke-width:2;"/>
   </g>
   <g id="patch_4">
    <path clip-path="url(#p2b918ef1c0)" d="M 175.22772 194.569959 
L 209.22148 194.569959 
L 209.22148 127.021936 
L 175.22772 127.021936 
z
" style="fill:#ff7f0e;stroke:#000000;stroke-linejoin:miter;stroke-width:2;"/>
   </g>
   <g id="matplotlib.axis_1">
    <g id="xtick_1">
     <g id="line2d_1">
      <defs>
       <path d="M 0 0 
L 0 3.5 
" id="m17ac9af9bb" style="stroke:#000000;stroke-width:0.8;"/>
      </defs>
      <g>
       <use style="stroke:#000000;stroke-width:0.8;" x="149.7324" xlink:href="#m17ac9af9bb" y="222.518286"/>
      </g>
     </g>
     <g id="text_1">
      <!-- Active -->
      <defs>
       <path d="M 34.1875 63.1875 
L 20.796875 26.90625 
L 47.609375 26.90625 
z
M 28.609375 72.90625 
L 39.796875 72.90625 
L 67.578125 0 
L 57.328125 0 
L 50.6875 18.703125 
L 17.828125 18.703125 
L 11.1875 0 
L 0.78125 0 
z
" id="DejaVuSans-65"/>
       <path d="M 48.78125 52.59375 
L 48.78125 44.1875 
Q 44.96875 46.296875 41.140625 47.34375 
Q 37.3125 48.390625 33.40625 48.390625 
Q 24.65625 48.390625 19.8125 42.84375 
Q 14.984375 37.3125 14.984375 27.296875 
Q 14.984375 17.28125 19.8125 11.734375 
Q 24.65625 6.203125 33.40625 6.203125 
Q 37.3125 6.203125 41.140625 7.25 
Q 44.96875 8.296875 48.78125 10.40625 
L 48.78125 2.09375 
Q 45.015625 0.34375 40.984375 -0.53125 
Q 36.96875 -1.421875 32.421875 -1.421875 
Q 20.0625 -1.421875 12.78125 6.34375 
Q 5.515625 14.109375 5.515625 27.296875 
Q 5.515625 40.671875 12.859375 48.328125 
Q 20.21875 56 33.015625 56 
Q 37.15625 56 41.109375 55.140625 
Q 45.0625 54.296875 48.78125 52.59375 
z
" id="DejaVuSans-99"/>
       <path d="M 18.3125 70.21875 
L 18.3125 54.6875 
L 36.8125 54.6875 
L 36.8125 47.703125 
L 18.3125 47.703125 
L 18.3125 18.015625 
Q 18.3125 11.328125 20.140625 9.421875 
Q 21.96875 7.515625 27.59375 7.515625 
L 36.8125 7.515625 
L 36.8125 0 
L 27.59375 0 
Q 17.1875 0 13.234375 3.875 
Q 9.28125 7.765625 9.28125 18.015625 
L 9.28125 47.703125 
L 2.6875 47.703125 
L 2.6875 54.6875 
L 9.28125 54.6875 
L 9.28125 70.21875 
z
" id="DejaVuSans-116"/>
       <path d="M 9.421875 54.6875 
L 18.40625 54.6875 
L 18.40625 0 
L 9.421875 0 
z
M 9.421875 75.984375 
L 18.40625 75.984375 
L 18.40625 64.59375 
L 9.421875 64.59375 
z
" id="DejaVuSans-105"/>
       <path d="M 2.984375 54.6875 
L 12.5 54.6875 
L 29.59375 8.796875 
L 46.6875 54.6875 
L 56.203125 54.6875 
L 35.6875 0 
L 23.484375 0 
z
" id="DejaVuSans-118"/>
       <path d="M 56.203125 29.59375 
L 56.203125 25.203125 
L 14.890625 25.203125 
Q 15.484375 15.921875 20.484375 11.0625 
Q 25.484375 6.203125 34.421875 6.203125 
Q 39.59375 6.203125 44.453125 7.46875 
Q 49.3125 8.734375 54.109375 11.28125 
L 54.109375 2.78125 
Q 49.265625 0.734375 44.1875 -0.34375 
Q 39.109375 -1.421875 33.890625 -1.421875 
Q 20.796875 -1.421875 13.15625 6.1875 
Q 5.515625 13.8125 5.515625 26.8125 
Q 5.515625 40.234375 12.765625 48.109375 
Q 20.015625 56 32.328125 56 
Q 43.359375 56 49.78125 48.890625 
Q 56.203125 41.796875 56.203125 29.59375 
z
M 47.21875 32.234375 
Q 47.125 39.59375 43.09375 43.984375 
Q 39.0625 48.390625 32.421875 48.390625 
Q 24.90625 48.390625 20.390625 44.140625 
Q 15.875 39.890625 15.1875 32.171875 
z
" id="DejaVuSans-101"/>
      </defs>
      <g transform="translate(140.6853 256.887738)rotate(-45)scale(0.1 -0.1)">
       <use xlink:href="#DejaVuSans-65"/>
       <use x="68.392578" xlink:href="#DejaVuSans-99"/>
       <use x="123.373047" xlink:href="#DejaVuSans-116"/>
       <use x="162.582031" xlink:href="#DejaVuSans-105"/>
       <use x="190.365234" xlink:href="#DejaVuSans-118"/>
       <use x="249.544922" xlink:href="#DejaVuSans-101"/>
      </g>
     </g>
    </g>
    <g id="xtick_2">
     <g id="line2d_2">
      <g>
       <use style="stroke:#000000;stroke-width:0.8;" x="192.2246" xlink:href="#m17ac9af9bb" y="222.518286"/>
      </g>
     </g>
     <g id="text_2">
      <!-- Passive -->
      <defs>
       <path d="M 19.671875 64.796875 
L 19.671875 37.40625 
L 32.078125 37.40625 
Q 38.96875 37.40625 42.71875 40.96875 
Q 46.484375 44.53125 46.484375 51.125 
Q 46.484375 57.671875 42.71875 61.234375 
Q 38.96875 64.796875 32.078125 64.796875 
z
M 9.8125 72.90625 
L 32.078125 72.90625 
Q 44.34375 72.90625 50.609375 67.359375 
Q 56.890625 61.8125 56.890625 51.125 
Q 56.890625 40.328125 50.609375 34.8125 
Q 44.34375 29.296875 32.078125 29.296875 
L 19.671875 29.296875 
L 19.671875 0 
L 9.8125 0 
z
" id="DejaVuSans-80"/>
       <path d="M 34.28125 27.484375 
Q 23.390625 27.484375 19.1875 25 
Q 14.984375 22.515625 14.984375 16.5 
Q 14.984375 11.71875 18.140625 8.90625 
Q 21.296875 6.109375 26.703125 6.109375 
Q 34.1875 6.109375 38.703125 11.40625 
Q 43.21875 16.703125 43.21875 25.484375 
L 43.21875 27.484375 
z
M 52.203125 31.203125 
L 52.203125 0 
L 43.21875 0 
L 43.21875 8.296875 
Q 40.140625 3.328125 35.546875 0.953125 
Q 30.953125 -1.421875 24.3125 -1.421875 
Q 15.921875 -1.421875 10.953125 3.296875 
Q 6 8.015625 6 15.921875 
Q 6 25.140625 12.171875 29.828125 
Q 18.359375 34.515625 30.609375 34.515625 
L 43.21875 34.515625 
L 43.21875 35.40625 
Q 43.21875 41.609375 39.140625 45 
Q 35.0625 48.390625 27.6875 48.390625 
Q 23 48.390625 18.546875 47.265625 
Q 14.109375 46.140625 10.015625 43.890625 
L 10.015625 52.203125 
Q 14.9375 54.109375 19.578125 55.046875 
Q 24.21875 56 28.609375 56 
Q 40.484375 56 46.34375 49.84375 
Q 52.203125 43.703125 52.203125 31.203125 
z
" id="DejaVuSans-97"/>
       <path d="M 44.28125 53.078125 
L 44.28125 44.578125 
Q 40.484375 46.53125 36.375 47.5 
Q 32.28125 48.484375 27.875 48.484375 
Q 21.1875 48.484375 17.84375 46.4375 
Q 14.5 44.390625 14.5 40.28125 
Q 14.5 37.15625 16.890625 35.375 
Q 19.28125 33.59375 26.515625 31.984375 
L 29.59375 31.296875 
Q 39.15625 29.25 43.1875 25.515625 
Q 47.21875 21.78125 47.21875 15.09375 
Q 47.21875 7.46875 41.1875 3.015625 
Q 35.15625 -1.421875 24.609375 -1.421875 
Q 20.21875 -1.421875 15.453125 -0.5625 
Q 10.6875 0.296875 5.421875 2 
L 5.421875 11.28125 
Q 10.40625 8.6875 15.234375 7.390625 
Q 20.0625 6.109375 24.8125 6.109375 
Q 31.15625 6.109375 34.5625 8.28125 
Q 37.984375 10.453125 37.984375 14.40625 
Q 37.984375 18.0625 35.515625 20.015625 
Q 33.0625 21.96875 24.703125 23.78125 
L 21.578125 24.515625 
Q 13.234375 26.265625 9.515625 29.90625 
Q 5.8125 33.546875 5.8125 39.890625 
Q 5.8125 47.609375 11.28125 51.796875 
Q 16.75 56 26.8125 56 
Q 31.78125 56 36.171875 55.265625 
Q 40.578125 54.546875 44.28125 53.078125 
z
" id="DejaVuSans-115"/>
      </defs>
      <g transform="translate(180.945694 261.351349)rotate(-45)scale(0.1 -0.1)">
       <use xlink:href="#DejaVuSans-80"/>
       <use x="60.240234" xlink:href="#DejaVuSans-97"/>
       <use x="121.519531" xlink:href="#DejaVuSans-115"/>
       <use x="173.619141" xlink:href="#DejaVuSans-115"/>
       <use x="225.71875" xlink:href="#DejaVuSans-105"/>
       <use x="253.501953" xlink:href="#DejaVuSans-118"/>
       <use x="312.681641" xlink:href="#DejaVuSans-101"/>
      </g>
     </g>
    </g>
    <g id="text_3">
     <!-- Behavior State -->
     <defs>
      <path d="M 19.671875 34.8125 
L 19.671875 8.109375 
L 35.5 8.109375 
Q 43.453125 8.109375 47.28125 11.40625 
Q 51.125 14.703125 51.125 21.484375 
Q 51.125 28.328125 47.28125 31.5625 
Q 43.453125 34.8125 35.5 34.8125 
z
M 19.671875 64.796875 
L 19.671875 42.828125 
L 34.28125 42.828125 
Q 41.5 42.828125 45.03125 45.53125 
Q 48.578125 48.25 48.578125 53.8125 
Q 48.578125 59.328125 45.03125 62.0625 
Q 41.5 64.796875 34.28125 64.796875 
z
M 9.8125 72.90625 
L 35.015625 72.90625 
Q 46.296875 72.90625 52.390625 68.21875 
Q 58.5 63.53125 58.5 54.890625 
Q 58.5 48.1875 55.375 44.234375 
Q 52.25 40.28125 46.1875 39.3125 
Q 53.46875 37.75 57.5 32.78125 
Q 61.53125 27.828125 61.53125 20.40625 
Q 61.53125 10.640625 54.890625 5.3125 
Q 48.25 0 35.984375 0 
L 9.8125 0 
z
" id="DejaVuSans-66"/>
      <path d="M 54.890625 33.015625 
L 54.890625 0 
L 45.90625 0 
L 45.90625 32.71875 
Q 45.90625 40.484375 42.875 44.328125 
Q 39.84375 48.1875 33.796875 48.1875 
Q 26.515625 48.1875 22.3125 43.546875 
Q 18.109375 38.921875 18.109375 30.90625 
L 18.109375 0 
L 9.078125 0 
L 9.078125 75.984375 
L 18.109375 75.984375 
L 18.109375 46.1875 
Q 21.34375 51.125 25.703125 53.5625 
Q 30.078125 56 35.796875 56 
Q 45.21875 56 50.046875 50.171875 
Q 54.890625 44.34375 54.890625 33.015625 
z
" id="DejaVuSans-104"/>
      <path d="M 30.609375 48.390625 
Q 23.390625 48.390625 19.1875 42.75 
Q 14.984375 37.109375 14.984375 27.296875 
Q 14.984375 17.484375 19.15625 11.84375 
Q 23.34375 6.203125 30.609375 6.203125 
Q 37.796875 6.203125 41.984375 11.859375 
Q 46.1875 17.53125 46.1875 27.296875 
Q 46.1875 37.015625 41.984375 42.703125 
Q 37.796875 48.390625 30.609375 48.390625 
z
M 30.609375 56 
Q 42.328125 56 49.015625 48.375 
Q 55.71875 40.765625 55.71875 27.296875 
Q 55.71875 13.875 49.015625 6.21875 
Q 42.328125 -1.421875 30.609375 -1.421875 
Q 18.84375 -1.421875 12.171875 6.21875 
Q 5.515625 13.875 5.515625 27.296875 
Q 5.515625 40.765625 12.171875 48.375 
Q 18.84375 56 30.609375 56 
z
" id="DejaVuSans-111"/>
      <path d="M 41.109375 46.296875 
Q 39.59375 47.171875 37.8125 47.578125 
Q 36.03125 48 33.890625 48 
Q 26.265625 48 22.1875 43.046875 
Q 18.109375 38.09375 18.109375 28.8125 
L 18.109375 0 
L 9.078125 0 
L 9.078125 54.6875 
L 18.109375 54.6875 
L 18.109375 46.1875 
Q 20.953125 51.171875 25.484375 53.578125 
Q 30.03125 56 36.53125 56 
Q 37.453125 56 38.578125 55.875 
Q 39.703125 55.765625 41.0625 55.515625 
z
" id="DejaVuSans-114"/>
      <path id="DejaVuSans-32"/>
      <path d="M 53.515625 70.515625 
L 53.515625 60.890625 
Q 47.90625 63.578125 42.921875 64.890625 
Q 37.9375 66.21875 33.296875 66.21875 
Q 25.25 66.21875 20.875 63.09375 
Q 16.5 59.96875 16.5 54.203125 
Q 16.5 49.359375 19.40625 46.890625 
Q 22.3125 44.4375 30.421875 42.921875 
L 36.375 41.703125 
Q 47.40625 39.59375 52.65625 34.296875 
Q 57.90625 29 57.90625 20.125 
Q 57.90625 9.515625 50.796875 4.046875 
Q 43.703125 -1.421875 29.984375 -1.421875 
Q 24.8125 -1.421875 18.96875 -0.25 
Q 13.140625 0.921875 6.890625 3.21875 
L 6.890625 13.375 
Q 12.890625 10.015625 18.65625 8.296875 
Q 24.421875 6.59375 29.984375 6.59375 
Q 38.421875 6.59375 43.015625 9.90625 
Q 47.609375 13.234375 47.609375 19.390625 
Q 47.609375 24.75 44.3125 27.78125 
Q 41.015625 30.8125 33.5 32.328125 
L 27.484375 33.5 
Q 16.453125 35.6875 11.515625 40.375 
Q 6.59375 45.0625 6.59375 53.421875 
Q 6.59375 63.09375 13.40625 68.65625 
Q 20.21875 74.21875 32.171875 74.21875 
Q 37.3125 74.21875 42.625 73.28125 
Q 47.953125 72.359375 53.515625 70.515625 
z
" id="DejaVuSans-83"/>
     </defs>
     <g transform="translate(133.951156 274.420348)scale(0.1 -0.1)">
      <use xlink:href="#DejaVuSans-66"/>
      <use x="68.603516" xlink:href="#DejaVuSans-101"/>
      <use x="130.126953" xlink:href="#DejaVuSans-104"/>
      <use x="193.505859" xlink:href="#DejaVuSans-97"/>
      <use x="254.785156" xlink:href="#DejaVuSans-118"/>
      <use x="313.964844" xlink:href="#DejaVuSans-105"/>
      <use x="341.748047" xlink:href="#DejaVuSans-111"/>
      <use x="402.929688" xlink:href="#DejaVuSans-114"/>
      <use x="444.042969" xlink:href="#DejaVuSans-32"/>
      <use x="475.830078" xlink:href="#DejaVuSans-83"/>
      <use x="539.306641" xlink:href="#DejaVuSans-116"/>
      <use x="578.515625" xlink:href="#DejaVuSans-97"/>
      <use x="639.794922" xlink:href="#DejaVuSans-116"/>
      <use x="679.003906" xlink:href="#DejaVuSans-101"/>
     </g>
    </g>
   </g>
   <g id="matplotlib.axis_2">
    <g id="ytick_1">
     <g id="line2d_3">
      <defs>
       <path d="M 0 0 
L -3.5 0 
" id="m55d5c24608" style="stroke:#000000;stroke-width:0.8;"/>
      </defs>
      <g>
       <use style="stroke:#000000;stroke-width:0.8;" x="64.748" xlink:href="#m55d5c24608" y="222.518286"/>
      </g>
     </g>
     <g id="text_4">
      <!-- −0.02 -->
      <defs>
       <path d="M 10.59375 35.5 
L 73.1875 35.5 
L 73.1875 27.203125 
L 10.59375 27.203125 
z
" id="DejaVuSans-8722"/>
       <path d="M 31.78125 66.40625 
Q 24.171875 66.40625 20.328125 58.90625 
Q 16.5 51.421875 16.5 36.375 
Q 16.5 21.390625 20.328125 13.890625 
Q 24.171875 6.390625 31.78125 6.390625 
Q 39.453125 6.390625 43.28125 13.890625 
Q 47.125 21.390625 47.125 36.375 
Q 47.125 51.421875 43.28125 58.90625 
Q 39.453125 66.40625 31.78125 66.40625 
z
M 31.78125 74.21875 
Q 44.046875 74.21875 50.515625 64.515625 
Q 56.984375 54.828125 56.984375 36.375 
Q 56.984375 17.96875 50.515625 8.265625 
Q 44.046875 -1.421875 31.78125 -1.421875 
Q 19.53125 -1.421875 13.0625 8.265625 
Q 6.59375 17.96875 6.59375 36.375 
Q 6.59375 54.828125 13.0625 64.515625 
Q 19.53125 74.21875 31.78125 74.21875 
z
" id="DejaVuSans-48"/>
       <path d="M 10.6875 12.40625 
L 21 12.40625 
L 21 0 
L 10.6875 0 
z
" id="DejaVuSans-46"/>
       <path d="M 19.1875 8.296875 
L 53.609375 8.296875 
L 53.609375 0 
L 7.328125 0 
L 7.328125 8.296875 
Q 12.9375 14.109375 22.625 23.890625 
Q 32.328125 33.6875 34.8125 36.53125 
Q 39.546875 41.84375 41.421875 45.53125 
Q 43.3125 49.21875 43.3125 52.78125 
Q 43.3125 58.59375 39.234375 62.25 
Q 35.15625 65.921875 28.609375 65.921875 
Q 23.96875 65.921875 18.8125 64.3125 
Q 13.671875 62.703125 7.8125 59.421875 
L 7.8125 69.390625 
Q 13.765625 71.78125 18.9375 73 
Q 24.125 74.21875 28.421875 74.21875 
Q 39.75 74.21875 46.484375 68.546875 
Q 53.21875 62.890625 53.21875 53.421875 
Q 53.21875 48.921875 51.53125 44.890625 
Q 49.859375 40.875 45.40625 35.40625 
Q 44.1875 33.984375 37.640625 27.21875 
Q 31.109375 20.453125 19.1875 8.296875 
z
" id="DejaVuSans-50"/>
      </defs>
      <g transform="translate(27.102688 226.317505)scale(0.1 -0.1)">
       <use xlink:href="#DejaVuSans-8722"/>
       <use x="83.789062" xlink:href="#DejaVuSans-48"/>
       <use x="147.412109" xlink:href="#DejaVuSans-46"/>
       <use x="179.199219" xlink:href="#DejaVuSans-48"/>
       <use x="242.822266" xlink:href="#DejaVuSans-50"/>
      </g>
     </g>
    </g>
    <g id="ytick_2">
     <g id="line2d_4">
      <g>
       <use style="stroke:#000000;stroke-width:0.8;" x="64.748" xlink:href="#m55d5c24608" y="194.569959"/>
      </g>
     </g>
     <g id="text_5">
      <!-- 0.00 -->
      <g transform="translate(35.482375 198.369178)scale(0.1 -0.1)">
       <use xlink:href="#DejaVuSans-48"/>
       <use x="63.623047" xlink:href="#DejaVuSans-46"/>
       <use x="95.410156" xlink:href="#DejaVuSans-48"/>
       <use x="159.033203" xlink:href="#DejaVuSans-48"/>
      </g>
     </g>
    </g>
    <g id="ytick_3">
     <g id="line2d_5">
      <g>
       <use style="stroke:#000000;stroke-width:0.8;" x="64.748" xlink:href="#m55d5c24608" y="166.621633"/>
      </g>
     </g>
     <g id="text_6">
      <!-- 0.02 -->
      <g transform="translate(35.482375 170.420851)scale(0.1 -0.1)">
       <use xlink:href="#DejaVuSans-48"/>
       <use x="63.623047" xlink:href="#DejaVuSans-46"/>
       <use x="95.410156" xlink:href="#DejaVuSans-48"/>
       <use x="159.033203" xlink:href="#DejaVuSans-50"/>
      </g>
     </g>
    </g>
    <g id="ytick_4">
     <g id="line2d_6">
      <g>
       <use style="stroke:#000000;stroke-width:0.8;" x="64.748" xlink:href="#m55d5c24608" y="138.673306"/>
      </g>
     </g>
     <g id="text_7">
      <!-- 0.04 -->
      <defs>
       <path d="M 37.796875 64.3125 
L 12.890625 25.390625 
L 37.796875 25.390625 
z
M 35.203125 72.90625 
L 47.609375 72.90625 
L 47.609375 25.390625 
L 58.015625 25.390625 
L 58.015625 17.1875 
L 47.609375 17.1875 
L 47.609375 0 
L 37.796875 0 
L 37.796875 17.1875 
L 4.890625 17.1875 
L 4.890625 26.703125 
z
" id="DejaVuSans-52"/>
      </defs>
      <g transform="translate(35.482375 142.472525)scale(0.1 -0.1)">
       <use xlink:href="#DejaVuSans-48"/>
       <use x="63.623047" xlink:href="#DejaVuSans-46"/>
       <use x="95.410156" xlink:href="#DejaVuSans-48"/>
       <use x="159.033203" xlink:href="#DejaVuSans-52"/>
      </g>
     </g>
    </g>
    <g id="ytick_5">
     <g id="line2d_7">
      <g>
       <use style="stroke:#000000;stroke-width:0.8;" x="64.748" xlink:href="#m55d5c24608" y="110.72498"/>
      </g>
     </g>
     <g id="text_8">
      <!-- 0.06 -->
      <defs>
       <path d="M 33.015625 40.375 
Q 26.375 40.375 22.484375 35.828125 
Q 18.609375 31.296875 18.609375 23.390625 
Q 18.609375 15.53125 22.484375 10.953125 
Q 26.375 6.390625 33.015625 6.390625 
Q 39.65625 6.390625 43.53125 10.953125 
Q 47.40625 15.53125 47.40625 23.390625 
Q 47.40625 31.296875 43.53125 35.828125 
Q 39.65625 40.375 33.015625 40.375 
z
M 52.59375 71.296875 
L 52.59375 62.3125 
Q 48.875 64.0625 45.09375 64.984375 
Q 41.3125 65.921875 37.59375 65.921875 
Q 27.828125 65.921875 22.671875 59.328125 
Q 17.53125 52.734375 16.796875 39.40625 
Q 19.671875 43.65625 24.015625 45.921875 
Q 28.375 48.1875 33.59375 48.1875 
Q 44.578125 48.1875 50.953125 41.515625 
Q 57.328125 34.859375 57.328125 23.390625 
Q 57.328125 12.15625 50.6875 5.359375 
Q 44.046875 -1.421875 33.015625 -1.421875 
Q 20.359375 -1.421875 13.671875 8.265625 
Q 6.984375 17.96875 6.984375 36.375 
Q 6.984375 53.65625 15.1875 63.9375 
Q 23.390625 74.21875 37.203125 74.21875 
Q 40.921875 74.21875 44.703125 73.484375 
Q 48.484375 72.75 52.59375 71.296875 
z
" id="DejaVuSans-54"/>
      </defs>
      <g transform="translate(35.482375 114.524198)scale(0.1 -0.1)">
       <use xlink:href="#DejaVuSans-48"/>
       <use x="63.623047" xlink:href="#DejaVuSans-46"/>
       <use x="95.410156" xlink:href="#DejaVuSans-48"/>
       <use x="159.033203" xlink:href="#DejaVuSans-54"/>
      </g>
     </g>
    </g>
    <g id="ytick_6">
     <g id="line2d_8">
      <g>
       <use style="stroke:#000000;stroke-width:0.8;" x="64.748" xlink:href="#m55d5c24608" y="82.776653"/>
      </g>
     </g>
     <g id="text_9">
      <!-- 0.08 -->
      <defs>
       <path d="M 31.78125 34.625 
Q 24.75 34.625 20.71875 30.859375 
Q 16.703125 27.09375 16.703125 20.515625 
Q 16.703125 13.921875 20.71875 10.15625 
Q 24.75 6.390625 31.78125 6.390625 
Q 38.8125 6.390625 42.859375 10.171875 
Q 46.921875 13.96875 46.921875 20.515625 
Q 46.921875 27.09375 42.890625 30.859375 
Q 38.875 34.625 31.78125 34.625 
z
M 21.921875 38.8125 
Q 15.578125 40.375 12.03125 44.71875 
Q 8.5 49.078125 8.5 55.328125 
Q 8.5 64.0625 14.71875 69.140625 
Q 20.953125 74.21875 31.78125 74.21875 
Q 42.671875 74.21875 48.875 69.140625 
Q 55.078125 64.0625 55.078125 55.328125 
Q 55.078125 49.078125 51.53125 44.71875 
Q 48 40.375 41.703125 38.8125 
Q 48.828125 37.15625 52.796875 32.3125 
Q 56.78125 27.484375 56.78125 20.515625 
Q 56.78125 9.90625 50.3125 4.234375 
Q 43.84375 -1.421875 31.78125 -1.421875 
Q 19.734375 -1.421875 13.25 4.234375 
Q 6.78125 9.90625 6.78125 20.515625 
Q 6.78125 27.484375 10.78125 32.3125 
Q 14.796875 37.15625 21.921875 38.8125 
z
M 18.3125 54.390625 
Q 18.3125 48.734375 21.84375 45.5625 
Q 25.390625 42.390625 31.78125 42.390625 
Q 38.140625 42.390625 41.71875 45.5625 
Q 45.3125 48.734375 45.3125 54.390625 
Q 45.3125 60.0625 41.71875 63.234375 
Q 38.140625 66.40625 31.78125 66.40625 
Q 25.390625 66.40625 21.84375 63.234375 
Q 18.3125 60.0625 18.3125 54.390625 
z
" id="DejaVuSans-56"/>
      </defs>
      <g transform="translate(35.482375 86.575872)scale(0.1 -0.1)">
       <use xlink:href="#DejaVuSans-48"/>
       <use x="63.623047" xlink:href="#DejaVuSans-46"/>
       <use x="95.410156" xlink:href="#DejaVuSans-48"/>
       <use x="159.033203" xlink:href="#DejaVuSans-56"/>
      </g>
     </g>
    </g>
    <g id="ytick_7">
     <g id="line2d_9">
      <g>
       <use style="stroke:#000000;stroke-width:0.8;" x="64.748" xlink:href="#m55d5c24608" y="54.828327"/>
      </g>
     </g>
     <g id="text_10">
      <!-- 0.10 -->
      <defs>
       <path d="M 12.40625 8.296875 
L 28.515625 8.296875 
L 28.515625 63.921875 
L 10.984375 60.40625 
L 10.984375 69.390625 
L 28.421875 72.90625 
L 38.28125 72.90625 
L 38.28125 8.296875 
L 54.390625 8.296875 
L 54.390625 0 
L 12.40625 0 
z
" id="DejaVuSans-49"/>
      </defs>
      <g transform="translate(35.482375 58.627545)scale(0.1 -0.1)">
       <use xlink:href="#DejaVuSans-48"/>
       <use x="63.623047" xlink:href="#DejaVuSans-46"/>
       <use x="95.410156" xlink:href="#DejaVuSans-49"/>
       <use x="159.033203" xlink:href="#DejaVuSans-48"/>
      </g>
     </g>
    </g>
    <g id="ytick_8">
     <g id="line2d_10">
      <g>
       <use style="stroke:#000000;stroke-width:0.8;" x="64.748" xlink:href="#m55d5c24608" y="26.88"/>
      </g>
     </g>
     <g id="text_11">
      <!-- 0.12 -->
      <g transform="translate(35.482375 30.679219)scale(0.1 -0.1)">
       <use xlink:href="#DejaVuSans-48"/>
       <use x="63.623047" xlink:href="#DejaVuSans-46"/>
       <use x="95.410156" xlink:href="#DejaVuSans-49"/>
       <use x="159.033203" xlink:href="#DejaVuSans-50"/>
      </g>
     </g>
    </g>
    <g id="text_12">
     <!-- Noise Correlation ($r_{sc}$) -->
     <defs>
      <path d="M 9.8125 72.90625 
L 23.09375 72.90625 
L 55.421875 11.921875 
L 55.421875 72.90625 
L 64.984375 72.90625 
L 64.984375 0 
L 51.703125 0 
L 19.390625 60.984375 
L 19.390625 0 
L 9.8125 0 
z
" id="DejaVuSans-78"/>
      <path d="M 64.40625 67.28125 
L 64.40625 56.890625 
Q 59.421875 61.53125 53.78125 63.8125 
Q 48.140625 66.109375 41.796875 66.109375 
Q 29.296875 66.109375 22.65625 58.46875 
Q 16.015625 50.828125 16.015625 36.375 
Q 16.015625 21.96875 22.65625 14.328125 
Q 29.296875 6.6875 41.796875 6.6875 
Q 48.140625 6.6875 53.78125 8.984375 
Q 59.421875 11.28125 64.40625 15.921875 
L 64.40625 5.609375 
Q 59.234375 2.09375 53.4375 0.328125 
Q 47.65625 -1.421875 41.21875 -1.421875 
Q 24.65625 -1.421875 15.125 8.703125 
Q 5.609375 18.84375 5.609375 36.375 
Q 5.609375 53.953125 15.125 64.078125 
Q 24.65625 74.21875 41.21875 74.21875 
Q 47.75 74.21875 53.53125 72.484375 
Q 59.328125 70.75 64.40625 67.28125 
z
" id="DejaVuSans-67"/>
      <path d="M 9.421875 75.984375 
L 18.40625 75.984375 
L 18.40625 0 
L 9.421875 0 
z
" id="DejaVuSans-108"/>
      <path d="M 54.890625 33.015625 
L 54.890625 0 
L 45.90625 0 
L 45.90625 32.71875 
Q 45.90625 40.484375 42.875 44.328125 
Q 39.84375 48.1875 33.796875 48.1875 
Q 26.515625 48.1875 22.3125 43.546875 
Q 18.109375 38.921875 18.109375 30.90625 
L 18.109375 0 
L 9.078125 0 
L 9.078125 54.6875 
L 18.109375 54.6875 
L 18.109375 46.1875 
Q 21.34375 51.125 25.703125 53.5625 
Q 30.078125 56 35.796875 56 
Q 45.21875 56 50.046875 50.171875 
Q 54.890625 44.34375 54.890625 33.015625 
z
" id="DejaVuSans-110"/>
      <path d="M 31 75.875 
Q 24.46875 64.65625 21.28125 53.65625 
Q 18.109375 42.671875 18.109375 31.390625 
Q 18.109375 20.125 21.3125 9.0625 
Q 24.515625 -2 31 -13.1875 
L 23.1875 -13.1875 
Q 15.875 -1.703125 12.234375 9.375 
Q 8.59375 20.453125 8.59375 31.390625 
Q 8.59375 42.28125 12.203125 53.3125 
Q 15.828125 64.359375 23.1875 75.875 
z
" id="DejaVuSans-40"/>
      <path d="M 44.578125 46.390625 
Q 43.21875 47.125 41.453125 47.515625 
Q 39.703125 47.90625 37.703125 47.90625 
Q 30.515625 47.90625 25.140625 42.453125 
Q 19.78125 37.015625 18.015625 27.875 
L 12.5 0 
L 3.515625 0 
L 14.203125 54.6875 
L 23.1875 54.6875 
L 21.484375 46.1875 
Q 25.046875 50.921875 30 53.453125 
Q 34.96875 56 40.578125 56 
Q 42.046875 56 43.453125 55.828125 
Q 44.875 55.671875 46.296875 55.28125 
z
" id="DejaVuSans-Oblique-114"/>
      <path d="M 50 53.078125 
L 48.296875 44.578125 
Q 44.734375 46.53125 40.765625 47.5 
Q 36.8125 48.484375 32.625 48.484375 
Q 25.53125 48.484375 21.453125 46.0625 
Q 17.390625 43.65625 17.390625 39.5 
Q 17.390625 34.671875 26.859375 32.078125 
Q 27.59375 31.890625 27.9375 31.78125 
L 30.8125 30.90625 
Q 39.796875 28.421875 42.796875 25.6875 
Q 45.796875 22.953125 45.796875 18.21875 
Q 45.796875 9.515625 38.890625 4.046875 
Q 31.984375 -1.421875 20.796875 -1.421875 
Q 16.453125 -1.421875 11.671875 -0.578125 
Q 6.890625 0.25 1.125 2 
L 2.875 11.28125 
Q 7.8125 8.734375 12.59375 7.421875 
Q 17.390625 6.109375 21.78125 6.109375 
Q 28.375 6.109375 32.5 8.9375 
Q 36.625 11.765625 36.625 16.109375 
Q 36.625 20.796875 25.78125 23.6875 
L 24.859375 23.921875 
L 21.78125 24.703125 
Q 14.9375 26.515625 11.765625 29.46875 
Q 8.59375 32.421875 8.59375 37.015625 
Q 8.59375 45.75 15.15625 50.875 
Q 21.734375 56 33.015625 56 
Q 37.453125 56 41.671875 55.265625 
Q 45.90625 54.546875 50 53.078125 
z
" id="DejaVuSans-Oblique-115"/>
      <path d="M 53.609375 52.59375 
L 51.8125 43.703125 
Q 48.578125 46.046875 44.9375 47.21875 
Q 41.3125 48.390625 37.40625 48.390625 
Q 33.109375 48.390625 29.21875 46.875 
Q 25.34375 45.359375 22.703125 42.578125 
Q 18.5 38.328125 16.203125 32.609375 
Q 13.921875 26.90625 13.921875 20.796875 
Q 13.921875 13.421875 17.609375 9.8125 
Q 21.296875 6.203125 28.8125 6.203125 
Q 32.515625 6.203125 36.6875 7.328125 
Q 40.875 8.453125 45.40625 10.6875 
L 43.703125 1.8125 
Q 39.796875 0.203125 35.671875 -0.609375 
Q 31.546875 -1.421875 27.203125 -1.421875 
Q 16.3125 -1.421875 10.453125 4.015625 
Q 4.59375 9.46875 4.59375 19.578125 
Q 4.59375 28.078125 7.640625 35.234375 
Q 10.6875 42.390625 16.703125 48.09375 
Q 20.796875 52 26.3125 54 
Q 31.84375 56 38.375 56 
Q 42.1875 56 45.9375 55.140625 
Q 49.703125 54.296875 53.609375 52.59375 
z
" id="DejaVuSans-Oblique-99"/>
      <path d="M 8.015625 75.875 
L 15.828125 75.875 
Q 23.140625 64.359375 26.78125 53.3125 
Q 30.421875 42.28125 30.421875 31.390625 
Q 30.421875 20.453125 26.78125 9.375 
Q 23.140625 -1.703125 15.828125 -13.1875 
L 8.015625 -13.1875 
Q 14.5 -2 17.703125 9.0625 
Q 20.90625 20.125 20.90625 31.390625 
Q 20.90625 42.671875 17.703125 53.65625 
Q 14.5 64.65625 8.015625 75.875 
z
" id="DejaVuSans-41"/>
     </defs>
     <g transform="translate(21.023 179.399143)rotate(-90)scale(0.1 -0.1)">
      <use transform="translate(0 0.015625)" xlink:href="#DejaVuSans-78"/>
      <use transform="translate(74.804688 0.015625)" xlink:href="#DejaVuSans-111"/>
      <use transform="translate(135.986328 0.015625)" xlink:href="#DejaVuSans-105"/>
      <use transform="translate(163.769531 0.015625)" xlink:href="#DejaVuSans-115"/>
      <use transform="translate(215.869141 0.015625)" xlink:href="#DejaVuSans-101"/>
      <use transform="translate(277.392578 0.015625)" xlink:href="#DejaVuSans-32"/>
      <use transform="translate(309.179688 0.015625)" xlink:href="#DejaVuSans-67"/>
      <use transform="translate(379.003906 0.015625)" xlink:href="#DejaVuSans-111"/>
      <use transform="translate(440.185547 0.015625)" xlink:href="#DejaVuSans-114"/>
      <use transform="translate(481.298828 0.015625)" xlink:href="#DejaVuSans-114"/>
      <use transform="translate(522.412109 0.015625)" xlink:href="#DejaVuSans-101"/>
      <use transform="translate(583.935547 0.015625)" xlink:href="#DejaVuSans-108"/>
      <use transform="translate(611.71875 0.015625)" xlink:href="#DejaVuSans-97"/>
      <use transform="translate(672.998047 0.015625)" xlink:href="#DejaVuSans-116"/>
      <use transform="translate(712.207031 0.015625)" xlink:href="#DejaVuSans-105"/>
      <use transform="translate(739.990234 0.015625)" xlink:href="#DejaVuSans-111"/>
      <use transform="translate(801.171875 0.015625)" xlink:href="#DejaVuSans-110"/>
      <use transform="translate(864.550781 0.015625)" xlink:href="#DejaVuSans-32"/>
      <use transform="translate(896.337891 0.015625)" xlink:href="#DejaVuSans-40"/>
      <use transform="translate(935.351562 0.015625)" xlink:href="#DejaVuSans-Oblique-114"/>
      <use transform="translate(976.464844 -16.390625)scale(0.7)" xlink:href="#DejaVuSans-Oblique-115"/>
      <use transform="translate(1012.93457 -16.390625)scale(0.7)" xlink:href="#DejaVuSans-Oblique-99"/>
      <use transform="translate(1054.155273 0.015625)" xlink:href="#DejaVuSans-41"/>
     </g>
    </g>
   </g>
   <g id="LineCollection_1">
    <path clip-path="url(#p2b918ef1c0)" d="M 149.7324 163.857464 
L 149.7324 142.599257 
" style="fill:none;stroke:#000000;stroke-width:1.5;"/>
    <path clip-path="url(#p2b918ef1c0)" d="M 192.2246 135.850158 
L 192.2246 118.193713 
" style="fill:none;stroke:#000000;stroke-width:1.5;"/>
   </g>
   <g id="line2d_11">
    <path clip-path="url(#p2b918ef1c0)" d="M 149.7324 106.379252 
L 192.2246 75.572052 
" style="fill:none;stroke:#808080;stroke-linecap:square;stroke-width:0.8;"/>
   </g>
   <g id="line2d_12">
    <path clip-path="url(#p2b918ef1c0)" d="M 149.7324 34.158832 
L 192.2246 87.289495 
" style="fill:none;stroke:#808080;stroke-linecap:square;stroke-width:0.8;"/>
   </g>
   <g id="line2d_13">
    <path clip-path="url(#p2b918ef1c0)" d="M 149.7324 162.042828 
L 192.2246 203.115733 
" style="fill:none;stroke:#808080;stroke-linecap:square;stroke-width:0.8;"/>
   </g>
   <g id="line2d_14">
    <path clip-path="url(#p2b918ef1c0)" d="M 149.7324 184.248851 
L 192.2246 167.657534 
" style="fill:none;stroke:#808080;stroke-linecap:square;stroke-width:0.8;"/>
   </g>
   <g id="line2d_15">
    <path clip-path="url(#p2b918ef1c0)" d="M 149.7324 172.113301 
L 192.2246 94.8961 
" style="fill:none;stroke:#808080;stroke-linecap:square;stroke-width:0.8;"/>
   </g>
   <g id="line2d_16">
    <path clip-path="url(#p2b918ef1c0)" d="M 149.7324 133.856153 
L 192.2246 128.418709 
" style="fill:none;stroke:#808080;stroke-linecap:square;stroke-width:0.8;"/>
   </g>
   <g id="line2d_17">
    <path clip-path="url(#p2b918ef1c0)" d="M 149.7324 125.029542 
L 192.2246 78.320642 
" style="fill:none;stroke:#808080;stroke-linecap:square;stroke-width:0.8;"/>
   </g>
   <g id="line2d_18">
    <path clip-path="url(#p2b918ef1c0)" d="M 149.7324 172.423258 
L 192.2246 123.002255 
" style="fill:none;stroke:#808080;stroke-linecap:square;stroke-width:0.8;"/>
   </g>
   <g id="line2d_19">
    <path clip-path="url(#p2b918ef1c0)" d="M 149.7324 161.141983 
L 192.2246 154.233034 
" style="fill:none;stroke:#808080;stroke-linecap:square;stroke-width:0.8;"/>
   </g>
   <g id="line2d_20">
    <path clip-path="url(#p2b918ef1c0)" d="M 149.7324 138.355255 
L 192.2246 62.272821 
" style="fill:none;stroke:#808080;stroke-linecap:square;stroke-width:0.8;"/>
   </g>
   <g id="line2d_21">
    <path clip-path="url(#p2b918ef1c0)" d="M 149.7324 178.763748 
L 192.2246 144.711311 
" style="fill:none;stroke:#808080;stroke-linecap:square;stroke-width:0.8;"/>
   </g>
   <g id="line2d_22">
    <path clip-path="url(#p2b918ef1c0)" d="M 149.7324 132.626266 
L 192.2246 142.218273 
" style="fill:none;stroke:#808080;stroke-linecap:square;stroke-width:0.8;"/>
   </g>
   <g id="line2d_23">
    <path clip-path="url(#p2b918ef1c0)" d="M 162.94003 289 
L 192.2246 228.579207 
" style="fill:none;stroke:#808080;stroke-linecap:square;stroke-width:0.8;"/>
   </g>
   <g id="line2d_24">
    <path clip-path="url(#p2b918ef1c0)" d="M 149.7324 166.619246 
L 192.2246 124.136964 
" style="fill:none;stroke:#808080;stroke-linecap:square;stroke-width:0.8;"/>
   </g>
   <g id="line2d_25">
    <path clip-path="url(#p2b918ef1c0)" d="M 149.7324 220.097516 
L 192.2246 181.856769 
" style="fill:none;stroke:#808080;stroke-linecap:square;stroke-width:0.8;"/>
   </g>
   <g id="line2d_26">
    <path clip-path="url(#p2b918ef1c0)" d="M 149.7324 183.042373 
L 192.2246 105.236927 
" style="fill:none;stroke:#808080;stroke-linecap:square;stroke-width:0.8;"/>
   </g>
   <g id="line2d_27">
    <path clip-path="url(#p2b918ef1c0)" d="M 149.7324 156.943237 
L 192.2246 132.264673 
" style="fill:none;stroke:#808080;stroke-linecap:square;stroke-width:0.8;"/>
   </g>
   <g id="line2d_28">
    <path clip-path="url(#p2b918ef1c0)" d="M 149.7324 125.849906 
L 192.2246 97.579108 
" style="fill:none;stroke:#808080;stroke-linecap:square;stroke-width:0.8;"/>
   </g>
   <g id="line2d_29">
    <path clip-path="url(#p2b918ef1c0)" d="M 149.7324 179.059642 
L 192.2246 180.20925 
" style="fill:none;stroke:#808080;stroke-linecap:square;stroke-width:0.8;"/>
   </g>
   <g id="line2d_30">
    <path clip-path="url(#p2b918ef1c0)" d="M 149.7324 177.165682 
L 192.2246 153.85504 
" style="fill:none;stroke:#808080;stroke-linecap:square;stroke-width:0.8;"/>
   </g>
   <g id="line2d_31">
    <path clip-path="url(#p2b918ef1c0)" d="M 149.7324 102.469721 
L 192.2246 56.559361 
" style="fill:none;stroke:#808080;stroke-linecap:square;stroke-width:0.8;"/>
   </g>
   <g id="line2d_32">
    <path clip-path="url(#p2b918ef1c0)" d="M 149.7324 146.749942 
L 192.2246 110.514054 
" style="fill:none;stroke:#808080;stroke-linecap:square;stroke-width:0.8;"/>
   </g>
   <g id="line2d_33">
    <path clip-path="url(#p2b918ef1c0)" d="M 149.7324 56.869282 
L 192.2246 79.510101 
" style="fill:none;stroke:#808080;stroke-linecap:square;stroke-width:0.8;"/>
   </g>
   <g id="line2d_34">
    <path clip-path="url(#p2b918ef1c0)" d="M 149.7324 172.285867 
L 192.2246 146.081197 
" style="fill:none;stroke:#808080;stroke-linecap:square;stroke-width:0.8;"/>
   </g>
   <g id="line2d_35">
    <path clip-path="url(#p2b918ef1c0)" d="M 149.7324 126.167016 
L 192.2246 117.457613 
" style="fill:none;stroke:#808080;stroke-linecap:square;stroke-width:0.8;"/>
   </g>
   <g id="line2d_36">
    <path clip-path="url(#p2b918ef1c0)" d="M 64.748 194.569959 
L 277.209 194.569959 
" style="fill:none;stroke:#000000;stroke-dasharray:5.55,2.4;stroke-dashoffset:0;stroke-width:1.5;"/>
   </g>
   <g id="patch_5">
    <path d="M 64.748 222.518286 
L 64.748 26.88 
" style="fill:none;stroke:#000000;stroke-linecap:square;stroke-linejoin:miter;stroke-width:0.8;"/>
   </g>
   <g id="patch_6">
    <path d="M 64.748 222.518286 
L 277.209 222.518286 
" style="fill:none;stroke:#000000;stroke-linecap:square;stroke-linejoin:miter;stroke-width:0.8;"/>
   </g>
  </g>
  <g id="axes_2">
   <g id="patch_7">
    <path d="M 350.219 222.518286 
L 562.68 222.518286 
L 562.68 26.88 
L 350.219 26.88 
z
" style="fill:#ffffff;"/>
   </g>
   <g id="PathCollection_1">
    <defs>
     <path d="M 0 3 
C 0.795609 3 1.55874 2.683901 2.12132 2.12132 
C 2.683901 1.55874 3 0.795609 3 0 
C 3 -0.795609 2.683901 -1.55874 2.12132 -2.12132 
C 1.55874 -2.683901 0.795609 -3 0 -3 
C -0.795609 -3 -1.55874 -2.683901 -2.12132 -2.12132 
C -2.683901 -1.55874 -3 -0.795609 -3 0 
C -3 0.795609 -2.683901 1.55874 -2.12132 2.12132 
C -1.55874 2.683901 -0.795609 3 0 3 
z
" id="m35019c47c2" style="stroke:#ff7f0e;stroke-opacity:0.8;"/>
    </defs>
    <g clip-path="url(#pa508fc0f80)">
     <use style="fill:#ff7f0e;fill-opacity:0.8;stroke:#ff7f0e;stroke-opacity:0.8;" x="377.503196" xlink:href="#m35019c47c2" y="139.374486"/>
     <use style="fill:#ff7f0e;fill-opacity:0.8;stroke:#ff7f0e;stroke-opacity:0.8;" x="449.791505" xlink:href="#m35019c47c2" y="135.854803"/>
     <use style="fill:#ff7f0e;fill-opacity:0.8;stroke:#ff7f0e;stroke-opacity:0.8;" x="495.983789" xlink:href="#m35019c47c2" y="95.791718"/>
     <use style="fill:#ff7f0e;fill-opacity:0.8;stroke:#ff7f0e;stroke-opacity:0.8;" x="479.881945" xlink:href="#m35019c47c2" y="126.619651"/>
     <use style="fill:#ff7f0e;fill-opacity:0.8;stroke:#ff7f0e;stroke-opacity:0.8;" x="472.799192" xlink:href="#m35019c47c2" y="172.308304"/>
     <use style="fill:#ff7f0e;fill-opacity:0.8;stroke:#ff7f0e;stroke-opacity:0.8;" x="469.039152" xlink:href="#m35019c47c2" y="114.209332"/>
     <use style="fill:#ff7f0e;fill-opacity:0.8;stroke:#ff7f0e;stroke-opacity:0.8;" x="462.910371" xlink:href="#m35019c47c2" y="139.577386"/>
     <use style="fill:#ff7f0e;fill-opacity:0.8;stroke:#ff7f0e;stroke-opacity:0.8;" x="518.93264" xlink:href="#m35019c47c2" y="112.094163"/>
     <use style="fill:#ff7f0e;fill-opacity:0.8;stroke:#ff7f0e;stroke-opacity:0.8;" x="456.735435" xlink:href="#m35019c47c2" y="142.528907"/>
     <use style="fill:#ff7f0e;fill-opacity:0.8;stroke:#ff7f0e;stroke-opacity:0.8;" x="500.743111" xlink:href="#m35019c47c2" y="102.066992"/>
     <use style="fill:#ff7f0e;fill-opacity:0.8;stroke:#ff7f0e;stroke-opacity:0.8;" x="389.867788" xlink:href="#m35019c47c2" y="160.544965"/>
     <use style="fill:#ff7f0e;fill-opacity:0.8;stroke:#ff7f0e;stroke-opacity:0.8;" x="518.787511" xlink:href="#m35019c47c2" y="164.661845"/>
     <use style="fill:#ff7f0e;fill-opacity:0.8;stroke:#ff7f0e;stroke-opacity:0.8;" x="480.297387" xlink:href="#m35019c47c2" y="114.852984"/>
     <use style="fill:#ff7f0e;fill-opacity:0.8;stroke:#ff7f0e;stroke-opacity:0.8;" x="453.76164" xlink:href="#m35019c47c2" y="141.79764"/>
     <use style="fill:#ff7f0e;fill-opacity:0.8;stroke:#ff7f0e;stroke-opacity:0.8;" x="492.101396" xlink:href="#m35019c47c2" y="120.687418"/>
     <use style="fill:#ff7f0e;fill-opacity:0.8;stroke:#ff7f0e;stroke-opacity:0.8;" x="388.861554" xlink:href="#m35019c47c2" y="129.941368"/>
     <use style="fill:#ff7f0e;fill-opacity:0.8;stroke:#ff7f0e;stroke-opacity:0.8;" x="419.790077" xlink:href="#m35019c47c2" y="147.4395"/>
     <use style="fill:#ff7f0e;fill-opacity:0.8;stroke:#ff7f0e;stroke-opacity:0.8;" x="424.075231" xlink:href="#m35019c47c2" y="124.522761"/>
     <use style="fill:#ff7f0e;fill-opacity:0.8;stroke:#ff7f0e;stroke-opacity:0.8;" x="476.32772" xlink:href="#m35019c47c2" y="120.274491"/>
     <use style="fill:#ff7f0e;fill-opacity:0.8;stroke:#ff7f0e;stroke-opacity:0.8;" x="485.011734" xlink:href="#m35019c47c2" y="102.972653"/>
     <use style="fill:#ff7f0e;fill-opacity:0.8;stroke:#ff7f0e;stroke-opacity:0.8;" x="393.430571" xlink:href="#m35019c47c2" y="152.586276"/>
     <use style="fill:#ff7f0e;fill-opacity:0.8;stroke:#ff7f0e;stroke-opacity:0.8;" x="514.733579" xlink:href="#m35019c47c2" y="101.668505"/>
     <use style="fill:#ff7f0e;fill-opacity:0.8;stroke:#ff7f0e;stroke-opacity:0.8;" x="505.476446" xlink:href="#m35019c47c2" y="98.809937"/>
     <use style="fill:#ff7f0e;fill-opacity:0.8;stroke:#ff7f0e;stroke-opacity:0.8;" x="477.27367" xlink:href="#m35019c47c2" y="126.803503"/>
     <use style="fill:#ff7f0e;fill-opacity:0.8;stroke:#ff7f0e;stroke-opacity:0.8;" x="507.218981" xlink:href="#m35019c47c2" y="113.213101"/>
     <use style="fill:#ff7f0e;fill-opacity:0.8;stroke:#ff7f0e;stroke-opacity:0.8;" x="475.715043" xlink:href="#m35019c47c2" y="93.74829"/>
     <use style="fill:#ff7f0e;fill-opacity:0.8;stroke:#ff7f0e;stroke-opacity:0.8;" x="363.856597" xlink:href="#m35019c47c2" y="209.569171"/>
     <use style="fill:#ff7f0e;fill-opacity:0.8;stroke:#ff7f0e;stroke-opacity:0.8;" x="537.257025" xlink:href="#m35019c47c2" y="85.726972"/>
     <use style="fill:#ff7f0e;fill-opacity:0.8;stroke:#ff7f0e;stroke-opacity:0.8;" x="427.80231" xlink:href="#m35019c47c2" y="118.821184"/>
     <use style="fill:#ff7f0e;fill-opacity:0.8;stroke:#ff7f0e;stroke-opacity:0.8;" x="549.042403" xlink:href="#m35019c47c2" y="114.171364"/>
     <use style="fill:#ff7f0e;fill-opacity:0.8;stroke:#ff7f0e;stroke-opacity:0.8;" x="540.202317" xlink:href="#m35019c47c2" y="131.971307"/>
     <use style="fill:#ff7f0e;fill-opacity:0.8;stroke:#ff7f0e;stroke-opacity:0.8;" x="514.207239" xlink:href="#m35019c47c2" y="123.739969"/>
     <use style="fill:#ff7f0e;fill-opacity:0.8;stroke:#ff7f0e;stroke-opacity:0.8;" x="525.770287" xlink:href="#m35019c47c2" y="130.781266"/>
     <use style="fill:#ff7f0e;fill-opacity:0.8;stroke:#ff7f0e;stroke-opacity:0.8;" x="487.960146" xlink:href="#m35019c47c2" y="142.148058"/>
     <use style="fill:#ff7f0e;fill-opacity:0.8;stroke:#ff7f0e;stroke-opacity:0.8;" x="512.432745" xlink:href="#m35019c47c2" y="39.829115"/>
     <use style="fill:#ff7f0e;fill-opacity:0.8;stroke:#ff7f0e;stroke-opacity:0.8;" x="514.824262" xlink:href="#m35019c47c2" y="117.482301"/>
     <use style="fill:#ff7f0e;fill-opacity:0.8;stroke:#ff7f0e;stroke-opacity:0.8;" x="462.976674" xlink:href="#m35019c47c2" y="158.802206"/>
     <use style="fill:#ff7f0e;fill-opacity:0.8;stroke:#ff7f0e;stroke-opacity:0.8;" x="496.122991" xlink:href="#m35019c47c2" y="127.240927"/>
     <use style="fill:#ff7f0e;fill-opacity:0.8;stroke:#ff7f0e;stroke-opacity:0.8;" x="478.242017" xlink:href="#m35019c47c2" y="78.795684"/>
     <use style="fill:#ff7f0e;fill-opacity:0.8;stroke:#ff7f0e;stroke-opacity:0.8;" x="493.826503" xlink:href="#m35019c47c2" y="131.782312"/>
     <use style="fill:#ff7f0e;fill-opacity:0.8;stroke:#ff7f0e;stroke-opacity:0.8;" x="545.661522" xlink:href="#m35019c47c2" y="127.829712"/>
     <use style="fill:#ff7f0e;fill-opacity:0.8;stroke:#ff7f0e;stroke-opacity:0.8;" x="507.202778" xlink:href="#m35019c47c2" y="124.514538"/>
     <use style="fill:#ff7f0e;fill-opacity:0.8;stroke:#ff7f0e;stroke-opacity:0.8;" x="486.466083" xlink:href="#m35019c47c2" y="122.648095"/>
     <use style="fill:#ff7f0e;fill-opacity:0.8;stroke:#ff7f0e;stroke-opacity:0.8;" x="536.827253" xlink:href="#m35019c47c2" y="145.119859"/>
     <use style="fill:#ff7f0e;fill-opacity:0.8;stroke:#ff7f0e;stroke-opacity:0.8;" x="496.011179" xlink:href="#m35019c47c2" y="123.796679"/>
     <use style="fill:#ff7f0e;fill-opacity:0.8;stroke:#ff7f0e;stroke-opacity:0.8;" x="530.302464" xlink:href="#m35019c47c2" y="74.454521"/>
     <use style="fill:#ff7f0e;fill-opacity:0.8;stroke:#ff7f0e;stroke-opacity:0.8;" x="530.302464" xlink:href="#m35019c47c2" y="118.182983"/>
     <use style="fill:#ff7f0e;fill-opacity:0.8;stroke:#ff7f0e;stroke-opacity:0.8;" x="534.014455" xlink:href="#m35019c47c2" y="130.771381"/>
     <use style="fill:#ff7f0e;fill-opacity:0.8;stroke:#ff7f0e;stroke-opacity:0.8;" x="524.052044" xlink:href="#m35019c47c2" y="129.000515"/>
     <use style="fill:#ff7f0e;fill-opacity:0.8;stroke:#ff7f0e;stroke-opacity:0.8;" x="462.766579" xlink:href="#m35019c47c2" y="138.729088"/>
     <use style="fill:#ff7f0e;fill-opacity:0.8;stroke:#ff7f0e;stroke-opacity:0.8;" x="462.766579" xlink:href="#m35019c47c2" y="131.729921"/>
     <use style="fill:#ff7f0e;fill-opacity:0.8;stroke:#ff7f0e;stroke-opacity:0.8;" x="522.371153" xlink:href="#m35019c47c2" y="125.74117"/>
     <use style="fill:#ff7f0e;fill-opacity:0.8;stroke:#ff7f0e;stroke-opacity:0.8;" x="522.371153" xlink:href="#m35019c47c2" y="129.285947"/>
     <use style="fill:#ff7f0e;fill-opacity:0.8;stroke:#ff7f0e;stroke-opacity:0.8;" x="430.900397" xlink:href="#m35019c47c2" y="149.779352"/>
     <use style="fill:#ff7f0e;fill-opacity:0.8;stroke:#ff7f0e;stroke-opacity:0.8;" x="531.2089" xlink:href="#m35019c47c2" y="199.670353"/>
     <use style="fill:#ff7f0e;fill-opacity:0.8;stroke:#ff7f0e;stroke-opacity:0.8;" x="531.2089" xlink:href="#m35019c47c2" y="121.631892"/>
     <use style="fill:#ff7f0e;fill-opacity:0.8;stroke:#ff7f0e;stroke-opacity:0.8;" x="510.124268" xlink:href="#m35019c47c2" y="124.250131"/>
     <use style="fill:#ff7f0e;fill-opacity:0.8;stroke:#ff7f0e;stroke-opacity:0.8;" x="510.124268" xlink:href="#m35019c47c2" y="132.813708"/>
     <use style="fill:#ff7f0e;fill-opacity:0.8;stroke:#ff7f0e;stroke-opacity:0.8;" x="530.302464" xlink:href="#m35019c47c2" y="49.326132"/>
     <use style="fill:#ff7f0e;fill-opacity:0.8;stroke:#ff7f0e;stroke-opacity:0.8;" x="530.302464" xlink:href="#m35019c47c2" y="140.638571"/>
     <use style="fill:#ff7f0e;fill-opacity:0.8;stroke:#ff7f0e;stroke-opacity:0.8;" x="538.900274" xlink:href="#m35019c47c2" y="131.269882"/>
     <use style="fill:#ff7f0e;fill-opacity:0.8;stroke:#ff7f0e;stroke-opacity:0.8;" x="538.900274" xlink:href="#m35019c47c2" y="118.232641"/>
     <use style="fill:#ff7f0e;fill-opacity:0.8;stroke:#ff7f0e;stroke-opacity:0.8;" x="519.538543" xlink:href="#m35019c47c2" y="138.973971"/>
     <use style="fill:#ff7f0e;fill-opacity:0.8;stroke:#ff7f0e;stroke-opacity:0.8;" x="519.538543" xlink:href="#m35019c47c2" y="149.872373"/>
     <use style="fill:#ff7f0e;fill-opacity:0.8;stroke:#ff7f0e;stroke-opacity:0.8;" x="522.371153" xlink:href="#m35019c47c2" y="99.138006"/>
     <use style="fill:#ff7f0e;fill-opacity:0.8;stroke:#ff7f0e;stroke-opacity:0.8;" x="522.371153" xlink:href="#m35019c47c2" y="97.400927"/>
     <use style="fill:#ff7f0e;fill-opacity:0.8;stroke:#ff7f0e;stroke-opacity:0.8;" x="471.982549" xlink:href="#m35019c47c2" y="106.054655"/>
     <use style="fill:#ff7f0e;fill-opacity:0.8;stroke:#ff7f0e;stroke-opacity:0.8;" x="471.982549" xlink:href="#m35019c47c2" y="155.617686"/>
     <use style="fill:#ff7f0e;fill-opacity:0.8;stroke:#ff7f0e;stroke-opacity:0.8;" x="488.645856" xlink:href="#m35019c47c2" y="108.910975"/>
     <use style="fill:#ff7f0e;fill-opacity:0.8;stroke:#ff7f0e;stroke-opacity:0.8;" x="462.766579" xlink:href="#m35019c47c2" y="122.861647"/>
     <use style="fill:#ff7f0e;fill-opacity:0.8;stroke:#ff7f0e;stroke-opacity:0.8;" x="462.766579" xlink:href="#m35019c47c2" y="115.515608"/>
     <use style="fill:#ff7f0e;fill-opacity:0.8;stroke:#ff7f0e;stroke-opacity:0.8;" x="538.900274" xlink:href="#m35019c47c2" y="76.75167"/>
     <use style="fill:#ff7f0e;fill-opacity:0.8;stroke:#ff7f0e;stroke-opacity:0.8;" x="538.900274" xlink:href="#m35019c47c2" y="130.148201"/>
     <use style="fill:#ff7f0e;fill-opacity:0.8;stroke:#ff7f0e;stroke-opacity:0.8;" x="407.901981" xlink:href="#m35019c47c2" y="124.763841"/>
     <use style="fill:#ff7f0e;fill-opacity:0.8;stroke:#ff7f0e;stroke-opacity:0.8;" x="463.580748" xlink:href="#m35019c47c2" y="100.344878"/>
     <use style="fill:#ff7f0e;fill-opacity:0.8;stroke:#ff7f0e;stroke-opacity:0.8;" x="493.640344" xlink:href="#m35019c47c2" y="146.185841"/>
    </g>
   </g>
   <g id="PolyCollection_1">
    <path clip-path="url(#pa508fc0f80)" d="M 363.856597 133.81231 
L 363.856597 170.386128 
L 365.727161 169.756851 
L 367.597725 169.049292 
L 369.468288 168.340341 
L 371.338852 167.631391 
L 373.209416 166.92244 
L 375.079979 166.213489 
L 376.950543 165.504538 
L 378.821107 164.785805 
L 380.69167 164.06452 
L 382.562234 163.343235 
L 384.432798 162.624293 
L 386.303362 161.942157 
L 388.173925 161.252901 
L 390.044489 160.544954 
L 391.915053 159.837007 
L 393.785616 159.12779 
L 395.65618 158.412229 
L 397.526744 157.701444 
L 399.397307 156.923152 
L 401.267871 156.200521 
L 403.138435 155.570161 
L 405.008998 154.919215 
L 406.879562 154.281076 
L 408.750126 153.68487 
L 410.62069 153.004798 
L 412.491253 152.365695 
L 414.361817 151.679943 
L 416.232381 150.966806 
L 418.102944 150.357658 
L 419.973508 149.676551 
L 421.844072 149.001379 
L 423.714635 148.350957 
L 425.585199 147.700535 
L 427.455763 147.049537 
L 429.326326 146.382482 
L 431.19689 145.802829 
L 433.067454 145.257854 
L 434.938018 144.667756 
L 436.808581 144.099851 
L 438.679145 143.531776 
L 440.549709 142.961494 
L 442.420272 142.314014 
L 444.290836 141.648934 
L 446.1614 141.08375 
L 448.031963 140.533613 
L 449.902527 139.863002 
L 451.773091 139.373961 
L 453.643654 138.806697 
L 455.514218 138.241223 
L 457.384782 137.810528 
L 459.255346 137.323565 
L 461.125909 136.70772 
L 462.996473 136.179008 
L 464.867037 135.625021 
L 466.7376 135.092878 
L 468.608164 134.489335 
L 470.478728 134.059849 
L 472.349291 133.617118 
L 474.219855 133.151991 
L 476.090419 132.729634 
L 477.960982 132.270564 
L 479.831546 131.842919 
L 481.70211 131.447602 
L 483.572674 131.021912 
L 485.443237 130.677002 
L 487.313801 130.264198 
L 489.184365 129.961259 
L 491.054928 129.451498 
L 492.925492 129.178499 
L 494.796056 128.937123 
L 496.666619 128.648042 
L 498.537183 128.306089 
L 500.407747 127.931774 
L 502.27831 127.561426 
L 504.148874 127.384426 
L 506.019438 127.047661 
L 507.890002 126.84599 
L 509.760565 126.609293 
L 511.631129 126.379402 
L 513.501693 126.159277 
L 515.372256 125.952902 
L 517.24282 125.748679 
L 519.113384 125.540836 
L 520.983947 125.332118 
L 522.854511 125.173764 
L 524.725075 124.959538 
L 526.595638 124.790036 
L 528.466202 124.598928 
L 530.336766 124.407819 
L 532.20733 124.238775 
L 534.077893 124.083065 
L 535.948457 123.927354 
L 537.819021 123.771643 
L 539.689584 123.615933 
L 541.560148 123.459037 
L 543.430712 123.292655 
L 545.301275 123.126273 
L 547.171839 122.959891 
L 549.042403 122.792745 
L 549.042403 100.505789 
L 549.042403 100.505789 
L 547.171839 101.228306 
L 545.301275 101.968458 
L 543.430712 102.661029 
L 541.560148 103.275794 
L 539.689584 103.965372 
L 537.819021 104.562271 
L 535.948457 105.132848 
L 534.077893 105.728936 
L 532.20733 106.321005 
L 530.336766 106.872353 
L 528.466202 107.414643 
L 526.595638 108.042826 
L 524.725075 108.710718 
L 522.854511 109.241674 
L 520.983947 109.929575 
L 519.113384 110.554404 
L 517.24282 111.097848 
L 515.372256 111.641292 
L 513.501693 112.185383 
L 511.631129 112.72818 
L 509.760565 113.271624 
L 507.890002 113.814642 
L 506.019438 114.29498 
L 504.148874 114.770197 
L 502.27831 115.398211 
L 500.407747 115.980511 
L 498.537183 116.465204 
L 496.666619 117.037479 
L 494.796056 117.540222 
L 492.925492 118.149511 
L 491.054928 118.625383 
L 489.184365 118.98597 
L 487.313801 119.40111 
L 485.443237 119.8772 
L 483.572674 120.289632 
L 481.70211 120.682573 
L 479.831546 121.064448 
L 477.960982 121.416743 
L 476.090419 121.840329 
L 474.219855 122.224895 
L 472.349291 122.554365 
L 470.478728 122.887796 
L 468.608164 123.315463 
L 466.7376 123.645354 
L 464.867037 123.923596 
L 462.996473 124.214691 
L 461.125909 124.516366 
L 459.255346 124.779067 
L 457.384782 125.066999 
L 455.514218 125.368266 
L 453.643654 125.642147 
L 451.773091 125.888665 
L 449.902527 126.148906 
L 448.031963 126.318238 
L 446.1614 126.508161 
L 444.290836 126.655331 
L 442.420272 126.823193 
L 440.549709 126.992238 
L 438.679145 127.143781 
L 436.808581 127.341178 
L 434.938018 127.53775 
L 433.067454 127.669077 
L 431.19689 127.848908 
L 429.326326 128.074679 
L 427.455763 128.300451 
L 425.585199 128.447597 
L 423.714635 128.594425 
L 421.844072 128.742628 
L 419.973508 128.88808 
L 418.102944 129.034908 
L 416.232381 129.188652 
L 414.361817 129.368968 
L 412.491253 129.596913 
L 410.62069 129.752367 
L 408.750126 129.908223 
L 406.879562 130.089403 
L 405.008998 130.254001 
L 403.138435 130.449172 
L 401.267871 130.627271 
L 399.397307 130.814122 
L 397.526744 130.969516 
L 395.65618 131.116966 
L 393.785616 131.264416 
L 391.915053 131.411865 
L 390.044489 131.559315 
L 388.173925 131.721051 
L 386.303362 131.889342 
L 384.432798 132.0406 
L 382.562234 132.179203 
L 380.69167 132.317806 
L 378.821107 132.456408 
L 376.950543 132.595011 
L 375.079979 132.734671 
L 373.209416 132.897607 
L 371.338852 133.080538 
L 369.468288 133.263481 
L 367.597725 133.446424 
L 365.727161 133.629367 
L 363.856597 133.81231 
z
" style="fill:#ff7f0e;fill-opacity:0.15;"/>
   </g>
   <g id="matplotlib.axis_3">
    <g id="xtick_3">
     <g id="line2d_37">
      <g>
       <use style="stroke:#000000;stroke-width:0.8;" x="386.405696" xlink:href="#m17ac9af9bb" y="222.518286"/>
      </g>
     </g>
     <g id="text_13">
      <!-- 0.5 -->
      <defs>
       <path d="M 10.796875 72.90625 
L 49.515625 72.90625 
L 49.515625 64.59375 
L 19.828125 64.59375 
L 19.828125 46.734375 
Q 21.96875 47.46875 24.109375 47.828125 
Q 26.265625 48.1875 28.421875 48.1875 
Q 40.625 48.1875 47.75 41.5 
Q 54.890625 34.8125 54.890625 23.390625 
Q 54.890625 11.625 47.5625 5.09375 
Q 40.234375 -1.421875 26.90625 -1.421875 
Q 22.3125 -1.421875 17.546875 -0.640625 
Q 12.796875 0.140625 7.71875 1.703125 
L 7.71875 11.625 
Q 12.109375 9.234375 16.796875 8.0625 
Q 21.484375 6.890625 26.703125 6.890625 
Q 35.15625 6.890625 40.078125 11.328125 
Q 45.015625 15.765625 45.015625 23.390625 
Q 45.015625 31 40.078125 35.4375 
Q 35.15625 39.890625 26.703125 39.890625 
Q 22.75 39.890625 18.8125 39.015625 
Q 14.890625 38.140625 10.796875 36.28125 
z
" id="DejaVuSans-53"/>
      </defs>
      <g transform="translate(378.454133 237.116723)scale(0.1 -0.1)">
       <use xlink:href="#DejaVuSans-48"/>
       <use x="63.623047" xlink:href="#DejaVuSans-46"/>
       <use x="95.410156" xlink:href="#DejaVuSans-53"/>
      </g>
     </g>
    </g>
    <g id="xtick_4">
     <g id="line2d_38">
      <g>
       <use style="stroke:#000000;stroke-width:0.8;" x="423.796195" xlink:href="#m17ac9af9bb" y="222.518286"/>
      </g>
     </g>
     <g id="text_14">
      <!-- 0.6 -->
      <g transform="translate(415.844633 237.116723)scale(0.1 -0.1)">
       <use xlink:href="#DejaVuSans-48"/>
       <use x="63.623047" xlink:href="#DejaVuSans-46"/>
       <use x="95.410156" xlink:href="#DejaVuSans-54"/>
      </g>
     </g>
    </g>
    <g id="xtick_5">
     <g id="line2d_39">
      <g>
       <use style="stroke:#000000;stroke-width:0.8;" x="461.186695" xlink:href="#m17ac9af9bb" y="222.518286"/>
      </g>
     </g>
     <g id="text_15">
      <!-- 0.7 -->
      <defs>
       <path d="M 8.203125 72.90625 
L 55.078125 72.90625 
L 55.078125 68.703125 
L 28.609375 0 
L 18.3125 0 
L 43.21875 64.59375 
L 8.203125 64.59375 
z
" id="DejaVuSans-55"/>
      </defs>
      <g transform="translate(453.235133 237.116723)scale(0.1 -0.1)">
       <use xlink:href="#DejaVuSans-48"/>
       <use x="63.623047" xlink:href="#DejaVuSans-46"/>
       <use x="95.410156" xlink:href="#DejaVuSans-55"/>
      </g>
     </g>
    </g>
    <g id="xtick_6">
     <g id="line2d_40">
      <g>
       <use style="stroke:#000000;stroke-width:0.8;" x="498.577195" xlink:href="#m17ac9af9bb" y="222.518286"/>
      </g>
     </g>
     <g id="text_16">
      <!-- 0.8 -->
      <g transform="translate(490.625633 237.116723)scale(0.1 -0.1)">
       <use xlink:href="#DejaVuSans-48"/>
       <use x="63.623047" xlink:href="#DejaVuSans-46"/>
       <use x="95.410156" xlink:href="#DejaVuSans-56"/>
      </g>
     </g>
    </g>
    <g id="xtick_7">
     <g id="line2d_41">
      <g>
       <use style="stroke:#000000;stroke-width:0.8;" x="535.967695" xlink:href="#m17ac9af9bb" y="222.518286"/>
      </g>
     </g>
     <g id="text_17">
      <!-- 0.9 -->
      <defs>
       <path d="M 10.984375 1.515625 
L 10.984375 10.5 
Q 14.703125 8.734375 18.5 7.8125 
Q 22.3125 6.890625 25.984375 6.890625 
Q 35.75 6.890625 40.890625 13.453125 
Q 46.046875 20.015625 46.78125 33.40625 
Q 43.953125 29.203125 39.59375 26.953125 
Q 35.25 24.703125 29.984375 24.703125 
Q 19.046875 24.703125 12.671875 31.3125 
Q 6.296875 37.9375 6.296875 49.421875 
Q 6.296875 60.640625 12.9375 67.421875 
Q 19.578125 74.21875 30.609375 74.21875 
Q 43.265625 74.21875 49.921875 64.515625 
Q 56.59375 54.828125 56.59375 36.375 
Q 56.59375 19.140625 48.40625 8.859375 
Q 40.234375 -1.421875 26.421875 -1.421875 
Q 22.703125 -1.421875 18.890625 -0.6875 
Q 15.09375 0.046875 10.984375 1.515625 
z
M 30.609375 32.421875 
Q 37.25 32.421875 41.125 36.953125 
Q 45.015625 41.5 45.015625 49.421875 
Q 45.015625 57.28125 41.125 61.84375 
Q 37.25 66.40625 30.609375 66.40625 
Q 23.96875 66.40625 20.09375 61.84375 
Q 16.21875 57.28125 16.21875 49.421875 
Q 16.21875 41.5 20.09375 36.953125 
Q 23.96875 32.421875 30.609375 32.421875 
z
" id="DejaVuSans-57"/>
      </defs>
      <g transform="translate(528.016132 237.116723)scale(0.1 -0.1)">
       <use xlink:href="#DejaVuSans-48"/>
       <use x="63.623047" xlink:href="#DejaVuSans-46"/>
       <use x="95.410156" xlink:href="#DejaVuSans-57"/>
      </g>
     </g>
    </g>
    <g id="text_18">
     <!-- Behavior performance (DI) -->
     <defs>
      <path d="M 18.109375 8.203125 
L 18.109375 -20.796875 
L 9.078125 -20.796875 
L 9.078125 54.6875 
L 18.109375 54.6875 
L 18.109375 46.390625 
Q 20.953125 51.265625 25.265625 53.625 
Q 29.59375 56 35.59375 56 
Q 45.5625 56 51.78125 48.09375 
Q 58.015625 40.1875 58.015625 27.296875 
Q 58.015625 14.40625 51.78125 6.484375 
Q 45.5625 -1.421875 35.59375 -1.421875 
Q 29.59375 -1.421875 25.265625 0.953125 
Q 20.953125 3.328125 18.109375 8.203125 
z
M 48.6875 27.296875 
Q 48.6875 37.203125 44.609375 42.84375 
Q 40.53125 48.484375 33.40625 48.484375 
Q 26.265625 48.484375 22.1875 42.84375 
Q 18.109375 37.203125 18.109375 27.296875 
Q 18.109375 17.390625 22.1875 11.75 
Q 26.265625 6.109375 33.40625 6.109375 
Q 40.53125 6.109375 44.609375 11.75 
Q 48.6875 17.390625 48.6875 27.296875 
z
" id="DejaVuSans-112"/>
      <path d="M 37.109375 75.984375 
L 37.109375 68.5 
L 28.515625 68.5 
Q 23.6875 68.5 21.796875 66.546875 
Q 19.921875 64.59375 19.921875 59.515625 
L 19.921875 54.6875 
L 34.71875 54.6875 
L 34.71875 47.703125 
L 19.921875 47.703125 
L 19.921875 0 
L 10.890625 0 
L 10.890625 47.703125 
L 2.296875 47.703125 
L 2.296875 54.6875 
L 10.890625 54.6875 
L 10.890625 58.5 
Q 10.890625 67.625 15.140625 71.796875 
Q 19.390625 75.984375 28.609375 75.984375 
z
" id="DejaVuSans-102"/>
      <path d="M 52 44.1875 
Q 55.375 50.25 60.0625 53.125 
Q 64.75 56 71.09375 56 
Q 79.640625 56 84.28125 50.015625 
Q 88.921875 44.046875 88.921875 33.015625 
L 88.921875 0 
L 79.890625 0 
L 79.890625 32.71875 
Q 79.890625 40.578125 77.09375 44.375 
Q 74.3125 48.1875 68.609375 48.1875 
Q 61.625 48.1875 57.5625 43.546875 
Q 53.515625 38.921875 53.515625 30.90625 
L 53.515625 0 
L 44.484375 0 
L 44.484375 32.71875 
Q 44.484375 40.625 41.703125 44.40625 
Q 38.921875 48.1875 33.109375 48.1875 
Q 26.21875 48.1875 22.15625 43.53125 
Q 18.109375 38.875 18.109375 30.90625 
L 18.109375 0 
L 9.078125 0 
L 9.078125 54.6875 
L 18.109375 54.6875 
L 18.109375 46.1875 
Q 21.1875 51.21875 25.484375 53.609375 
Q 29.78125 56 35.6875 56 
Q 41.65625 56 45.828125 52.96875 
Q 50 49.953125 52 44.1875 
z
" id="DejaVuSans-109"/>
      <path d="M 19.671875 64.796875 
L 19.671875 8.109375 
L 31.59375 8.109375 
Q 46.6875 8.109375 53.6875 14.9375 
Q 60.6875 21.78125 60.6875 36.53125 
Q 60.6875 51.171875 53.6875 57.984375 
Q 46.6875 64.796875 31.59375 64.796875 
z
M 9.8125 72.90625 
L 30.078125 72.90625 
Q 51.265625 72.90625 61.171875 64.09375 
Q 71.09375 55.28125 71.09375 36.53125 
Q 71.09375 17.671875 61.125 8.828125 
Q 51.171875 0 30.078125 0 
L 9.8125 0 
z
" id="DejaVuSans-68"/>
      <path d="M 9.8125 72.90625 
L 19.671875 72.90625 
L 19.671875 0 
L 9.8125 0 
z
" id="DejaVuSans-73"/>
     </defs>
     <g transform="translate(389.732312 250.794848)scale(0.1 -0.1)">
      <use xlink:href="#DejaVuSans-66"/>
      <use x="68.603516" xlink:href="#DejaVuSans-101"/>
      <use x="130.126953" xlink:href="#DejaVuSans-104"/>
      <use x="193.505859" xlink:href="#DejaVuSans-97"/>
      <use x="254.785156" xlink:href="#DejaVuSans-118"/>
      <use x="313.964844" xlink:href="#DejaVuSans-105"/>
      <use x="341.748047" xlink:href="#DejaVuSans-111"/>
      <use x="402.929688" xlink:href="#DejaVuSans-114"/>
      <use x="444.042969" xlink:href="#DejaVuSans-32"/>
      <use x="475.830078" xlink:href="#DejaVuSans-112"/>
      <use x="539.306641" xlink:href="#DejaVuSans-101"/>
      <use x="600.830078" xlink:href="#DejaVuSans-114"/>
      <use x="641.943359" xlink:href="#DejaVuSans-102"/>
      <use x="677.148438" xlink:href="#DejaVuSans-111"/>
      <use x="738.330078" xlink:href="#DejaVuSans-114"/>
      <use x="779.427734" xlink:href="#DejaVuSans-109"/>
      <use x="876.839844" xlink:href="#DejaVuSans-97"/>
      <use x="938.119141" xlink:href="#DejaVuSans-110"/>
      <use x="1001.498047" xlink:href="#DejaVuSans-99"/>
      <use x="1056.478516" xlink:href="#DejaVuSans-101"/>
      <use x="1118.001953" xlink:href="#DejaVuSans-32"/>
      <use x="1149.789062" xlink:href="#DejaVuSans-40"/>
      <use x="1188.802734" xlink:href="#DejaVuSans-68"/>
      <use x="1265.804688" xlink:href="#DejaVuSans-73"/>
      <use x="1295.296875" xlink:href="#DejaVuSans-41"/>
     </g>
    </g>
   </g>
   <g id="matplotlib.axis_4">
    <g id="ytick_9">
     <g id="line2d_42">
      <g>
       <use style="stroke:#000000;stroke-width:0.8;" x="350.219" xlink:href="#m55d5c24608" y="217.23788"/>
      </g>
     </g>
     <g id="text_19">
      <!-- −0.2 -->
      <g transform="translate(318.936188 221.037099)scale(0.1 -0.1)">
       <use xlink:href="#DejaVuSans-8722"/>
       <use x="83.789062" xlink:href="#DejaVuSans-48"/>
       <use x="147.412109" xlink:href="#DejaVuSans-46"/>
       <use x="179.199219" xlink:href="#DejaVuSans-50"/>
      </g>
     </g>
    </g>
    <g id="ytick_10">
     <g id="line2d_43">
      <g>
       <use style="stroke:#000000;stroke-width:0.8;" x="350.219" xlink:href="#m55d5c24608" y="175.591504"/>
      </g>
     </g>
     <g id="text_20">
      <!-- −0.1 -->
      <g transform="translate(318.936188 179.390722)scale(0.1 -0.1)">
       <use xlink:href="#DejaVuSans-8722"/>
       <use x="83.789062" xlink:href="#DejaVuSans-48"/>
       <use x="147.412109" xlink:href="#DejaVuSans-46"/>
       <use x="179.199219" xlink:href="#DejaVuSans-49"/>
      </g>
     </g>
    </g>
    <g id="ytick_11">
     <g id="line2d_44">
      <g>
       <use style="stroke:#000000;stroke-width:0.8;" x="350.219" xlink:href="#m55d5c24608" y="133.945127"/>
      </g>
     </g>
     <g id="text_21">
      <!-- 0.0 -->
      <g transform="translate(327.315875 137.744346)scale(0.1 -0.1)">
       <use xlink:href="#DejaVuSans-48"/>
       <use x="63.623047" xlink:href="#DejaVuSans-46"/>
       <use x="95.410156" xlink:href="#DejaVuSans-48"/>
      </g>
     </g>
    </g>
    <g id="ytick_12">
     <g id="line2d_45">
      <g>
       <use style="stroke:#000000;stroke-width:0.8;" x="350.219" xlink:href="#m55d5c24608" y="92.29875"/>
      </g>
     </g>
     <g id="text_22">
      <!-- 0.1 -->
      <g transform="translate(327.315875 96.097969)scale(0.1 -0.1)">
       <use xlink:href="#DejaVuSans-48"/>
       <use x="63.623047" xlink:href="#DejaVuSans-46"/>
       <use x="95.410156" xlink:href="#DejaVuSans-49"/>
      </g>
     </g>
    </g>
    <g id="ytick_13">
     <g id="line2d_46">
      <g>
       <use style="stroke:#000000;stroke-width:0.8;" x="350.219" xlink:href="#m55d5c24608" y="50.652374"/>
      </g>
     </g>
     <g id="text_23">
      <!-- 0.2 -->
      <g transform="translate(327.315875 54.451593)scale(0.1 -0.1)">
       <use xlink:href="#DejaVuSans-48"/>
       <use x="63.623047" xlink:href="#DejaVuSans-46"/>
       <use x="95.410156" xlink:href="#DejaVuSans-50"/>
      </g>
     </g>
    </g>
    <g id="text_24">
     <!-- $\Delta r_{sc}$ -->
     <defs>
      <path d="M 34.1875 63.1875 
L 14.15625 8.203125 
L 54.25 8.203125 
z
M 0.78125 0 
L 28.609375 72.90625 
L 39.796875 72.90625 
L 67.578125 0 
z
" id="DejaVuSans-916"/>
     </defs>
     <g transform="translate(301.658688 134.099143)rotate(-90)scale(0.1 -0.1)">
      <use transform="translate(0 0.09375)" xlink:href="#DejaVuSans-916"/>
      <use transform="translate(68.408203 0.09375)" xlink:href="#DejaVuSans-Oblique-114"/>
      <use transform="translate(109.521484 -16.3125)scale(0.7)" xlink:href="#DejaVuSans-Oblique-115"/>
      <use transform="translate(145.991211 -16.3125)scale(0.7)" xlink:href="#DejaVuSans-Oblique-99"/>
     </g>
     <!-- (Active - Passive) -->
     <defs>
      <path d="M 4.890625 31.390625 
L 31.203125 31.390625 
L 31.203125 23.390625 
L 4.890625 23.390625 
z
" id="DejaVuSans-45"/>
     </defs>
     <g transform="translate(312.8565 167.846799)rotate(-90)scale(0.1 -0.1)">
      <use xlink:href="#DejaVuSans-40"/>
      <use x="39.013672" xlink:href="#DejaVuSans-65"/>
      <use x="107.40625" xlink:href="#DejaVuSans-99"/>
      <use x="162.386719" xlink:href="#DejaVuSans-116"/>
      <use x="201.595703" xlink:href="#DejaVuSans-105"/>
      <use x="229.378906" xlink:href="#DejaVuSans-118"/>
      <use x="288.558594" xlink:href="#DejaVuSans-101"/>
      <use x="350.082031" xlink:href="#DejaVuSans-32"/>
      <use x="381.869141" xlink:href="#DejaVuSans-45"/>
      <use x="417.953125" xlink:href="#DejaVuSans-32"/>
      <use x="449.740234" xlink:href="#DejaVuSans-80"/>
      <use x="509.980469" xlink:href="#DejaVuSans-97"/>
      <use x="571.259766" xlink:href="#DejaVuSans-115"/>
      <use x="623.359375" xlink:href="#DejaVuSans-115"/>
      <use x="675.458984" xlink:href="#DejaVuSans-105"/>
      <use x="703.242188" xlink:href="#DejaVuSans-118"/>
      <use x="762.421875" xlink:href="#DejaVuSans-101"/>
      <use x="823.945312" xlink:href="#DejaVuSans-41"/>
     </g>
    </g>
   </g>
   <g id="line2d_47">
    <path clip-path="url(#pa508fc0f80)" d="M 363.856597 152.173014 
L 365.727161 151.761615 
L 367.597725 151.350217 
L 369.468288 150.938818 
L 371.338852 150.52742 
L 373.209416 150.116021 
L 375.079979 149.704623 
L 376.950543 149.293224 
L 378.821107 148.881826 
L 380.69167 148.470427 
L 382.562234 148.059029 
L 384.432798 147.64763 
L 386.303362 147.236231 
L 388.173925 146.824833 
L 390.044489 146.413434 
L 391.915053 146.002036 
L 393.785616 145.590637 
L 395.65618 145.179239 
L 397.526744 144.76784 
L 399.397307 144.356442 
L 401.267871 143.945043 
L 403.138435 143.533644 
L 405.008998 143.122246 
L 406.879562 142.710847 
L 408.750126 142.299449 
L 410.62069 141.88805 
L 412.491253 141.476652 
L 414.361817 141.065253 
L 416.232381 140.653855 
L 418.102944 140.242456 
L 419.973508 139.831057 
L 421.844072 139.419659 
L 423.714635 139.00826 
L 425.585199 138.596862 
L 427.455763 138.185463 
L 429.326326 137.774065 
L 431.19689 137.362666 
L 433.067454 136.951268 
L 434.938018 136.539869 
L 436.808581 136.128471 
L 438.679145 135.717072 
L 440.549709 135.305673 
L 442.420272 134.894275 
L 444.290836 134.482876 
L 446.1614 134.071478 
L 448.031963 133.660079 
L 449.902527 133.248681 
L 451.773091 132.837282 
L 453.643654 132.425884 
L 455.514218 132.014485 
L 457.384782 131.603086 
L 459.255346 131.191688 
L 461.125909 130.780289 
L 462.996473 130.368891 
L 464.867037 129.957492 
L 466.7376 129.546094 
L 468.608164 129.134695 
L 470.478728 128.723297 
L 472.349291 128.311898 
L 474.219855 127.900499 
L 476.090419 127.489101 
L 477.960982 127.077702 
L 479.831546 126.666304 
L 481.70211 126.254905 
L 483.572674 125.843507 
L 485.443237 125.432108 
L 487.313801 125.02071 
L 489.184365 124.609311 
L 491.054928 124.197913 
L 492.925492 123.786514 
L 494.796056 123.375115 
L 496.666619 122.963717 
L 498.537183 122.552318 
L 500.407747 122.14092 
L 502.27831 121.729521 
L 504.148874 121.318123 
L 506.019438 120.906724 
L 507.890002 120.495326 
L 509.760565 120.083927 
L 511.631129 119.672528 
L 513.501693 119.26113 
L 515.372256 118.849731 
L 517.24282 118.438333 
L 519.113384 118.026934 
L 520.983947 117.615536 
L 522.854511 117.204137 
L 524.725075 116.792739 
L 526.595638 116.38134 
L 528.466202 115.969941 
L 530.336766 115.558543 
L 532.20733 115.147144 
L 534.077893 114.735746 
L 535.948457 114.324347 
L 537.819021 113.912949 
L 539.689584 113.50155 
L 541.560148 113.090152 
L 543.430712 112.678753 
L 545.301275 112.267355 
L 547.171839 111.855956 
L 549.042403 111.444557 
" style="fill:none;stroke:#ff7f0e;stroke-linecap:square;stroke-width:2.25;"/>
   </g>
   <g id="line2d_48">
    <path clip-path="url(#pa508fc0f80)" d="M 350.219 133.945127 
L 562.68 133.945127 
" style="fill:none;stroke:#000000;stroke-dasharray:5.55,2.4;stroke-dashoffset:0;stroke-width:1.5;"/>
   </g>
   <g id="line2d_49">
    <path clip-path="url(#pa508fc0f80)" d="M 386.405696 222.518286 
L 386.405696 26.88 
" style="fill:none;stroke:#000000;stroke-dasharray:5.55,2.4;stroke-dashoffset:0;stroke-width:1.5;"/>
   </g>
   <g id="patch_8">
    <path d="M 350.219 222.518286 
L 350.219 26.88 
" style="fill:none;stroke:#000000;stroke-linecap:square;stroke-linejoin:miter;stroke-width:0.8;"/>
   </g>
   <g id="patch_9">
    <path d="M 350.219 222.518286 
L 562.68 222.518286 
" style="fill:none;stroke:#000000;stroke-linecap:square;stroke-linejoin:miter;stroke-width:0.8;"/>
   </g>
   <g id="text_25">
    <!-- $r$: 0.354, $p$: 0.002 -->
    <defs>
     <path d="M 11.71875 12.40625 
L 22.015625 12.40625 
L 22.015625 0 
L 11.71875 0 
z
M 11.71875 51.703125 
L 22.015625 51.703125 
L 22.015625 39.3125 
L 11.71875 39.3125 
z
" id="DejaVuSans-58"/>
     <path d="M 40.578125 39.3125 
Q 47.65625 37.796875 51.625 33 
Q 55.609375 28.21875 55.609375 21.1875 
Q 55.609375 10.40625 48.1875 4.484375 
Q 40.765625 -1.421875 27.09375 -1.421875 
Q 22.515625 -1.421875 17.65625 -0.515625 
Q 12.796875 0.390625 7.625 2.203125 
L 7.625 11.71875 
Q 11.71875 9.328125 16.59375 8.109375 
Q 21.484375 6.890625 26.8125 6.890625 
Q 36.078125 6.890625 40.9375 10.546875 
Q 45.796875 14.203125 45.796875 21.1875 
Q 45.796875 27.640625 41.28125 31.265625 
Q 36.765625 34.90625 28.71875 34.90625 
L 20.21875 34.90625 
L 20.21875 43.015625 
L 29.109375 43.015625 
Q 36.375 43.015625 40.234375 45.921875 
Q 44.09375 48.828125 44.09375 54.296875 
Q 44.09375 59.90625 40.109375 62.90625 
Q 36.140625 65.921875 28.71875 65.921875 
Q 24.65625 65.921875 20.015625 65.03125 
Q 15.375 64.15625 9.8125 62.3125 
L 9.8125 71.09375 
Q 15.4375 72.65625 20.34375 73.4375 
Q 25.25 74.21875 29.59375 74.21875 
Q 40.828125 74.21875 47.359375 69.109375 
Q 53.90625 64.015625 53.90625 55.328125 
Q 53.90625 49.265625 50.4375 45.09375 
Q 46.96875 40.921875 40.578125 39.3125 
z
" id="DejaVuSans-51"/>
     <path d="M 11.71875 12.40625 
L 22.015625 12.40625 
L 22.015625 4 
L 14.015625 -11.625 
L 7.71875 -11.625 
L 11.71875 4 
z
" id="DejaVuSans-44"/>
     <path d="M 49.609375 33.6875 
Q 49.609375 40.875 46.484375 44.671875 
Q 43.359375 48.484375 37.5 48.484375 
Q 33.5 48.484375 29.859375 46.4375 
Q 26.21875 44.390625 23.390625 40.484375 
Q 20.609375 36.625 18.9375 31.15625 
Q 17.28125 25.6875 17.28125 20.3125 
Q 17.28125 13.484375 20.40625 9.796875 
Q 23.53125 6.109375 29.296875 6.109375 
Q 33.546875 6.109375 37.1875 8.109375 
Q 40.828125 10.109375 43.40625 13.921875 
Q 46.1875 17.921875 47.890625 23.34375 
Q 49.609375 28.765625 49.609375 33.6875 
z
M 21.78125 46.390625 
Q 25.390625 51.125 30.296875 53.5625 
Q 35.203125 56 41.21875 56 
Q 49.609375 56 54.25 50.5 
Q 58.890625 45.015625 58.890625 35.109375 
Q 58.890625 27 56 19.65625 
Q 53.125 12.3125 47.703125 6.5 
Q 44.09375 2.640625 39.546875 0.609375 
Q 35.015625 -1.421875 29.984375 -1.421875 
Q 24.171875 -1.421875 20.21875 1 
Q 16.265625 3.421875 14.3125 8.203125 
L 8.6875 -20.796875 
L -0.296875 -20.796875 
L 14.40625 54.6875 
L 23.390625 54.6875 
z
" id="DejaVuSans-Oblique-112"/>
    </defs>
    <g transform="translate(404.1295 20.88)scale(0.12 -0.12)">
     <use transform="translate(0 0.78125)" xlink:href="#DejaVuSans-Oblique-114"/>
     <use transform="translate(41.113281 0.78125)" xlink:href="#DejaVuSans-58"/>
     <use transform="translate(74.804688 0.78125)" xlink:href="#DejaVuSans-32"/>
     <use transform="translate(106.591797 0.78125)" xlink:href="#DejaVuSans-48"/>
     <use transform="translate(170.214844 0.78125)" xlink:href="#DejaVuSans-46"/>
     <use transform="translate(202.001953 0.78125)" xlink:href="#DejaVuSans-51"/>
     <use transform="translate(265.625 0.78125)" xlink:href="#DejaVuSans-53"/>
     <use transform="translate(329.248047 0.78125)" xlink:href="#DejaVuSans-52"/>
     <use transform="translate(392.871094 0.78125)" xlink:href="#DejaVuSans-44"/>
     <use transform="translate(424.658203 0.78125)" xlink:href="#DejaVuSans-32"/>
     <use transform="translate(456.445312 0.78125)" xlink:href="#DejaVuSans-Oblique-112"/>
     <use transform="translate(519.921875 0.78125)" xlink:href="#DejaVuSans-58"/>
     <use transform="translate(553.613281 0.78125)" xlink:href="#DejaVuSans-32"/>
     <use transform="translate(585.400391 0.78125)" xlink:href="#DejaVuSans-48"/>
     <use transform="translate(649.023438 0.78125)" xlink:href="#DejaVuSans-46"/>
     <use transform="translate(680.810547 0.78125)" xlink:href="#DejaVuSans-48"/>
     <use transform="translate(744.433594 0.78125)" xlink:href="#DejaVuSans-48"/>
     <use transform="translate(808.056641 0.78125)" xlink:href="#DejaVuSans-50"/>
    </g>
   </g>
  </g>
 </g>
 <defs>
  <clipPath id="p2b918ef1c0">
   <rect height="195.638286" width="212.461" x="64.748" y="26.88"/>
  </clipPath>
  <clipPath id="pa508fc0f80">
   <rect height="195.638286" width="212.461" x="350.219" y="26.88"/>
  </clipPath>
 </defs>
</svg>
