<?xml version="1.0" encoding="utf-8" standalone="no"?>
<!DOCTYPE svg PUBLIC "-//W3C//DTD SVG 1.1//EN"
  "http://www.w3.org/Graphics/SVG/1.1/DTD/svg11.dtd">
<!-- Created with matplotlib (https://matplotlib.org/) -->
<svg height="288pt" version="1.1" viewBox="0 0 576 288" width="576pt" xmlns="http://www.w3.org/2000/svg" xmlns:xlink="http://www.w3.org/1999/xlink">
 <defs>
  <style type="text/css">
*{stroke-linecap:butt;stroke-linejoin:round;}
  </style>
 </defs>
 <g id="figure_1">
  <g id="patch_1">
   <path d="M 0 288 
L 576 288 
L 576 0 
L 0 0 
z
" style="fill:#ffffff;"/>
  </g>
  <g id="axes_1">
   <g id="patch_2">
    <path d="M 64.748 222.518286 
L 277.209 222.518286 
L 277.209 26.88 
L 64.748 26.88 
z
" style="fill:#ffffff;"/>
   </g>
   <g id="patch_3">
    <path clip-path="url(#p0cc7fb8f4e)" d="M 132.73552 194.569959 
L 166.72928 194.569959 
L 166.72928 163.008165 
L 132.73552 163.008165 
z
" style="fill:#ff7f0e;stroke:#000000;stroke-linejoin:miter;stroke-width:2;"/>
   </g>
   <g id="patch_4">
    <path clip-path="url(#p0cc7fb8f4e)" d="M 175.22772 194.569959 
L 209.22148 194.569959 
L 209.22148 118.889266 
L 175.22772 118.889266 
z
" style="fill:#ff7f0e;stroke:#000000;stroke-linejoin:miter;stroke-width:2;"/>
   </g>
   <g id="matplotlib.axis_1">
    <g id="xtick_1">
     <g id="line2d_1">
      <defs>
       <path d="M 0 0 
L 0 3.5 
" id="m171e6f79b3" style="stroke:#000000;stroke-width:0.8;"/>
      </defs>
      <g>
       <use style="stroke:#000000;stroke-width:0.8;" x="149.7324" xlink:href="#m171e6f79b3" y="222.518286"/>
      </g>
     </g>
     <g id="text_1">
      <!-- Active -->
      <defs>
       <path d="M 34.1875 63.1875 
L 20.796875 26.90625 
L 47.609375 26.90625 
z
M 28.609375 72.90625 
L 39.796875 72.90625 
L 67.578125 0 
L 57.328125 0 
L 50.6875 18.703125 
L 17.828125 18.703125 
L 11.1875 0 
L 0.78125 0 
z
" id="DejaVuSans-65"/>
       <path d="M 48.78125 52.59375 
L 48.78125 44.1875 
Q 44.96875 46.296875 41.140625 47.34375 
Q 37.3125 48.390625 33.40625 48.390625 
Q 24.65625 48.390625 19.8125 42.84375 
Q 14.984375 37.3125 14.984375 27.296875 
Q 14.984375 17.28125 19.8125 11.734375 
Q 24.65625 6.203125 33.40625 6.203125 
Q 37.3125 6.203125 41.140625 7.25 
Q 44.96875 8.296875 48.78125 10.40625 
L 48.78125 2.09375 
Q 45.015625 0.34375 40.984375 -0.53125 
Q 36.96875 -1.421875 32.421875 -1.421875 
Q 20.0625 -1.421875 12.78125 6.34375 
Q 5.515625 14.109375 5.515625 27.296875 
Q 5.515625 40.671875 12.859375 48.328125 
Q 20.21875 56 33.015625 56 
Q 37.15625 56 41.109375 55.140625 
Q 45.0625 54.296875 48.78125 52.59375 
z
" id="DejaVuSans-99"/>
       <path d="M 18.3125 70.21875 
L 18.3125 54.6875 
L 36.8125 54.6875 
L 36.8125 47.703125 
L 18.3125 47.703125 
L 18.3125 18.015625 
Q 18.3125 11.328125 20.140625 9.421875 
Q 21.96875 7.515625 27.59375 7.515625 
L 36.8125 7.515625 
L 36.8125 0 
L 27.59375 0 
Q 17.1875 0 13.234375 3.875 
Q 9.28125 7.765625 9.28125 18.015625 
L 9.28125 47.703125 
L 2.6875 47.703125 
L 2.6875 54.6875 
L 9.28125 54.6875 
L 9.28125 70.21875 
z
" id="DejaVuSans-116"/>
       <path d="M 9.421875 54.6875 
L 18.40625 54.6875 
L 18.40625 0 
L 9.421875 0 
z
M 9.421875 75.984375 
L 18.40625 75.984375 
L 18.40625 64.59375 
L 9.421875 64.59375 
z
" id="DejaVuSans-105"/>
       <path d="M 2.984375 54.6875 
L 12.5 54.6875 
L 29.59375 8.796875 
L 46.6875 54.6875 
L 56.203125 54.6875 
L 35.6875 0 
L 23.484375 0 
z
" id="DejaVuSans-118"/>
       <path d="M 56.203125 29.59375 
L 56.203125 25.203125 
L 14.890625 25.203125 
Q 15.484375 15.921875 20.484375 11.0625 
Q 25.484375 6.203125 34.421875 6.203125 
Q 39.59375 6.203125 44.453125 7.46875 
Q 49.3125 8.734375 54.109375 11.28125 
L 54.109375 2.78125 
Q 49.265625 0.734375 44.1875 -0.34375 
Q 39.109375 -1.421875 33.890625 -1.421875 
Q 20.796875 -1.421875 13.15625 6.1875 
Q 5.515625 13.8125 5.515625 26.8125 
Q 5.515625 40.234375 12.765625 48.109375 
Q 20.015625 56 32.328125 56 
Q 43.359375 56 49.78125 48.890625 
Q 56.203125 41.796875 56.203125 29.59375 
z
M 47.21875 32.234375 
Q 47.125 39.59375 43.09375 43.984375 
Q 39.0625 48.390625 32.421875 48.390625 
Q 24.90625 48.390625 20.390625 44.140625 
Q 15.875 39.890625 15.1875 32.171875 
z
" id="DejaVuSans-101"/>
      </defs>
      <g transform="translate(140.6853 256.887738)rotate(-45)scale(0.1 -0.1)">
       <use xlink:href="#DejaVuSans-65"/>
       <use x="68.392578" xlink:href="#DejaVuSans-99"/>
       <use x="123.373047" xlink:href="#DejaVuSans-116"/>
       <use x="162.582031" xlink:href="#DejaVuSans-105"/>
       <use x="190.365234" xlink:href="#DejaVuSans-118"/>
       <use x="249.544922" xlink:href="#DejaVuSans-101"/>
      </g>
     </g>
    </g>
    <g id="xtick_2">
     <g id="line2d_2">
      <g>
       <use style="stroke:#000000;stroke-width:0.8;" x="192.2246" xlink:href="#m171e6f79b3" y="222.518286"/>
      </g>
     </g>
     <g id="text_2">
      <!-- Passive -->
      <defs>
       <path d="M 19.671875 64.796875 
L 19.671875 37.40625 
L 32.078125 37.40625 
Q 38.96875 37.40625 42.71875 40.96875 
Q 46.484375 44.53125 46.484375 51.125 
Q 46.484375 57.671875 42.71875 61.234375 
Q 38.96875 64.796875 32.078125 64.796875 
z
M 9.8125 72.90625 
L 32.078125 72.90625 
Q 44.34375 72.90625 50.609375 67.359375 
Q 56.890625 61.8125 56.890625 51.125 
Q 56.890625 40.328125 50.609375 34.8125 
Q 44.34375 29.296875 32.078125 29.296875 
L 19.671875 29.296875 
L 19.671875 0 
L 9.8125 0 
z
" id="DejaVuSans-80"/>
       <path d="M 34.28125 27.484375 
Q 23.390625 27.484375 19.1875 25 
Q 14.984375 22.515625 14.984375 16.5 
Q 14.984375 11.71875 18.140625 8.90625 
Q 21.296875 6.109375 26.703125 6.109375 
Q 34.1875 6.109375 38.703125 11.40625 
Q 43.21875 16.703125 43.21875 25.484375 
L 43.21875 27.484375 
z
M 52.203125 31.203125 
L 52.203125 0 
L 43.21875 0 
L 43.21875 8.296875 
Q 40.140625 3.328125 35.546875 0.953125 
Q 30.953125 -1.421875 24.3125 -1.421875 
Q 15.921875 -1.421875 10.953125 3.296875 
Q 6 8.015625 6 15.921875 
Q 6 25.140625 12.171875 29.828125 
Q 18.359375 34.515625 30.609375 34.515625 
L 43.21875 34.515625 
L 43.21875 35.40625 
Q 43.21875 41.609375 39.140625 45 
Q 35.0625 48.390625 27.6875 48.390625 
Q 23 48.390625 18.546875 47.265625 
Q 14.109375 46.140625 10.015625 43.890625 
L 10.015625 52.203125 
Q 14.9375 54.109375 19.578125 55.046875 
Q 24.21875 56 28.609375 56 
Q 40.484375 56 46.34375 49.84375 
Q 52.203125 43.703125 52.203125 31.203125 
z
" id="DejaVuSans-97"/>
       <path d="M 44.28125 53.078125 
L 44.28125 44.578125 
Q 40.484375 46.53125 36.375 47.5 
Q 32.28125 48.484375 27.875 48.484375 
Q 21.1875 48.484375 17.84375 46.4375 
Q 14.5 44.390625 14.5 40.28125 
Q 14.5 37.15625 16.890625 35.375 
Q 19.28125 33.59375 26.515625 31.984375 
L 29.59375 31.296875 
Q 39.15625 29.25 43.1875 25.515625 
Q 47.21875 21.78125 47.21875 15.09375 
Q 47.21875 7.46875 41.1875 3.015625 
Q 35.15625 -1.421875 24.609375 -1.421875 
Q 20.21875 -1.421875 15.453125 -0.5625 
Q 10.6875 0.296875 5.421875 2 
L 5.421875 11.28125 
Q 10.40625 8.6875 15.234375 7.390625 
Q 20.0625 6.109375 24.8125 6.109375 
Q 31.15625 6.109375 34.5625 8.28125 
Q 37.984375 10.453125 37.984375 14.40625 
Q 37.984375 18.0625 35.515625 20.015625 
Q 33.0625 21.96875 24.703125 23.78125 
L 21.578125 24.515625 
Q 13.234375 26.265625 9.515625 29.90625 
Q 5.8125 33.546875 5.8125 39.890625 
Q 5.8125 47.609375 11.28125 51.796875 
Q 16.75 56 26.8125 56 
Q 31.78125 56 36.171875 55.265625 
Q 40.578125 54.546875 44.28125 53.078125 
z
" id="DejaVuSans-115"/>
      </defs>
      <g transform="translate(180.945694 261.351349)rotate(-45)scale(0.1 -0.1)">
       <use xlink:href="#DejaVuSans-80"/>
       <use x="60.240234" xlink:href="#DejaVuSans-97"/>
       <use x="121.519531" xlink:href="#DejaVuSans-115"/>
       <use x="173.619141" xlink:href="#DejaVuSans-115"/>
       <use x="225.71875" xlink:href="#DejaVuSans-105"/>
       <use x="253.501953" xlink:href="#DejaVuSans-118"/>
       <use x="312.681641" xlink:href="#DejaVuSans-101"/>
      </g>
     </g>
    </g>
    <g id="text_3">
     <!-- Behavior State -->
     <defs>
      <path d="M 19.671875 34.8125 
L 19.671875 8.109375 
L 35.5 8.109375 
Q 43.453125 8.109375 47.28125 11.40625 
Q 51.125 14.703125 51.125 21.484375 
Q 51.125 28.328125 47.28125 31.5625 
Q 43.453125 34.8125 35.5 34.8125 
z
M 19.671875 64.796875 
L 19.671875 42.828125 
L 34.28125 42.828125 
Q 41.5 42.828125 45.03125 45.53125 
Q 48.578125 48.25 48.578125 53.8125 
Q 48.578125 59.328125 45.03125 62.0625 
Q 41.5 64.796875 34.28125 64.796875 
z
M 9.8125 72.90625 
L 35.015625 72.90625 
Q 46.296875 72.90625 52.390625 68.21875 
Q 58.5 63.53125 58.5 54.890625 
Q 58.5 48.1875 55.375 44.234375 
Q 52.25 40.28125 46.1875 39.3125 
Q 53.46875 37.75 57.5 32.78125 
Q 61.53125 27.828125 61.53125 20.40625 
Q 61.53125 10.640625 54.890625 5.3125 
Q 48.25 0 35.984375 0 
L 9.8125 0 
z
" id="DejaVuSans-66"/>
      <path d="M 54.890625 33.015625 
L 54.890625 0 
L 45.90625 0 
L 45.90625 32.71875 
Q 45.90625 40.484375 42.875 44.328125 
Q 39.84375 48.1875 33.796875 48.1875 
Q 26.515625 48.1875 22.3125 43.546875 
Q 18.109375 38.921875 18.109375 30.90625 
L 18.109375 0 
L 9.078125 0 
L 9.078125 75.984375 
L 18.109375 75.984375 
L 18.109375 46.1875 
Q 21.34375 51.125 25.703125 53.5625 
Q 30.078125 56 35.796875 56 
Q 45.21875 56 50.046875 50.171875 
Q 54.890625 44.34375 54.890625 33.015625 
z
" id="DejaVuSans-104"/>
      <path d="M 30.609375 48.390625 
Q 23.390625 48.390625 19.1875 42.75 
Q 14.984375 37.109375 14.984375 27.296875 
Q 14.984375 17.484375 19.15625 11.84375 
Q 23.34375 6.203125 30.609375 6.203125 
Q 37.796875 6.203125 41.984375 11.859375 
Q 46.1875 17.53125 46.1875 27.296875 
Q 46.1875 37.015625 41.984375 42.703125 
Q 37.796875 48.390625 30.609375 48.390625 
z
M 30.609375 56 
Q 42.328125 56 49.015625 48.375 
Q 55.71875 40.765625 55.71875 27.296875 
Q 55.71875 13.875 49.015625 6.21875 
Q 42.328125 -1.421875 30.609375 -1.421875 
Q 18.84375 -1.421875 12.171875 6.21875 
Q 5.515625 13.875 5.515625 27.296875 
Q 5.515625 40.765625 12.171875 48.375 
Q 18.84375 56 30.609375 56 
z
" id="DejaVuSans-111"/>
      <path d="M 41.109375 46.296875 
Q 39.59375 47.171875 37.8125 47.578125 
Q 36.03125 48 33.890625 48 
Q 26.265625 48 22.1875 43.046875 
Q 18.109375 38.09375 18.109375 28.8125 
L 18.109375 0 
L 9.078125 0 
L 9.078125 54.6875 
L 18.109375 54.6875 
L 18.109375 46.1875 
Q 20.953125 51.171875 25.484375 53.578125 
Q 30.03125 56 36.53125 56 
Q 37.453125 56 38.578125 55.875 
Q 39.703125 55.765625 41.0625 55.515625 
z
" id="DejaVuSans-114"/>
      <path id="DejaVuSans-32"/>
      <path d="M 53.515625 70.515625 
L 53.515625 60.890625 
Q 47.90625 63.578125 42.921875 64.890625 
Q 37.9375 66.21875 33.296875 66.21875 
Q 25.25 66.21875 20.875 63.09375 
Q 16.5 59.96875 16.5 54.203125 
Q 16.5 49.359375 19.40625 46.890625 
Q 22.3125 44.4375 30.421875 42.921875 
L 36.375 41.703125 
Q 47.40625 39.59375 52.65625 34.296875 
Q 57.90625 29 57.90625 20.125 
Q 57.90625 9.515625 50.796875 4.046875 
Q 43.703125 -1.421875 29.984375 -1.421875 
Q 24.8125 -1.421875 18.96875 -0.25 
Q 13.140625 0.921875 6.890625 3.21875 
L 6.890625 13.375 
Q 12.890625 10.015625 18.65625 8.296875 
Q 24.421875 6.59375 29.984375 6.59375 
Q 38.421875 6.59375 43.015625 9.90625 
Q 47.609375 13.234375 47.609375 19.390625 
Q 47.609375 24.75 44.3125 27.78125 
Q 41.015625 30.8125 33.5 32.328125 
L 27.484375 33.5 
Q 16.453125 35.6875 11.515625 40.375 
Q 6.59375 45.0625 6.59375 53.421875 
Q 6.59375 63.09375 13.40625 68.65625 
Q 20.21875 74.21875 32.171875 74.21875 
Q 37.3125 74.21875 42.625 73.28125 
Q 47.953125 72.359375 53.515625 70.515625 
z
" id="DejaVuSans-83"/>
     </defs>
     <g transform="translate(133.951156 274.420348)scale(0.1 -0.1)">
      <use xlink:href="#DejaVuSans-66"/>
      <use x="68.603516" xlink:href="#DejaVuSans-101"/>
      <use x="130.126953" xlink:href="#DejaVuSans-104"/>
      <use x="193.505859" xlink:href="#DejaVuSans-97"/>
      <use x="254.785156" xlink:href="#DejaVuSans-118"/>
      <use x="313.964844" xlink:href="#DejaVuSans-105"/>
      <use x="341.748047" xlink:href="#DejaVuSans-111"/>
      <use x="402.929688" xlink:href="#DejaVuSans-114"/>
      <use x="444.042969" xlink:href="#DejaVuSans-32"/>
      <use x="475.830078" xlink:href="#DejaVuSans-83"/>
      <use x="539.306641" xlink:href="#DejaVuSans-116"/>
      <use x="578.515625" xlink:href="#DejaVuSans-97"/>
      <use x="639.794922" xlink:href="#DejaVuSans-116"/>
      <use x="679.003906" xlink:href="#DejaVuSans-101"/>
     </g>
    </g>
   </g>
   <g id="matplotlib.axis_2">
    <g id="ytick_1">
     <g id="line2d_3">
      <defs>
       <path d="M 0 0 
L -3.5 0 
" id="m45799173b9" style="stroke:#000000;stroke-width:0.8;"/>
      </defs>
      <g>
       <use style="stroke:#000000;stroke-width:0.8;" x="64.748" xlink:href="#m45799173b9" y="222.518286"/>
      </g>
     </g>
     <g id="text_4">
      <!-- −0.02 -->
      <defs>
       <path d="M 10.59375 35.5 
L 73.1875 35.5 
L 73.1875 27.203125 
L 10.59375 27.203125 
z
" id="DejaVuSans-8722"/>
       <path d="M 31.78125 66.40625 
Q 24.171875 66.40625 20.328125 58.90625 
Q 16.5 51.421875 16.5 36.375 
Q 16.5 21.390625 20.328125 13.890625 
Q 24.171875 6.390625 31.78125 6.390625 
Q 39.453125 6.390625 43.28125 13.890625 
Q 47.125 21.390625 47.125 36.375 
Q 47.125 51.421875 43.28125 58.90625 
Q 39.453125 66.40625 31.78125 66.40625 
z
M 31.78125 74.21875 
Q 44.046875 74.21875 50.515625 64.515625 
Q 56.984375 54.828125 56.984375 36.375 
Q 56.984375 17.96875 50.515625 8.265625 
Q 44.046875 -1.421875 31.78125 -1.421875 
Q 19.53125 -1.421875 13.0625 8.265625 
Q 6.59375 17.96875 6.59375 36.375 
Q 6.59375 54.828125 13.0625 64.515625 
Q 19.53125 74.21875 31.78125 74.21875 
z
" id="DejaVuSans-48"/>
       <path d="M 10.6875 12.40625 
L 21 12.40625 
L 21 0 
L 10.6875 0 
z
" id="DejaVuSans-46"/>
       <path d="M 19.1875 8.296875 
L 53.609375 8.296875 
L 53.609375 0 
L 7.328125 0 
L 7.328125 8.296875 
Q 12.9375 14.109375 22.625 23.890625 
Q 32.328125 33.6875 34.8125 36.53125 
Q 39.546875 41.84375 41.421875 45.53125 
Q 43.3125 49.21875 43.3125 52.78125 
Q 43.3125 58.59375 39.234375 62.25 
Q 35.15625 65.921875 28.609375 65.921875 
Q 23.96875 65.921875 18.8125 64.3125 
Q 13.671875 62.703125 7.8125 59.421875 
L 7.8125 69.390625 
Q 13.765625 71.78125 18.9375 73 
Q 24.125 74.21875 28.421875 74.21875 
Q 39.75 74.21875 46.484375 68.546875 
Q 53.21875 62.890625 53.21875 53.421875 
Q 53.21875 48.921875 51.53125 44.890625 
Q 49.859375 40.875 45.40625 35.40625 
Q 44.1875 33.984375 37.640625 27.21875 
Q 31.109375 20.453125 19.1875 8.296875 
z
" id="DejaVuSans-50"/>
      </defs>
      <g transform="translate(27.102688 226.317505)scale(0.1 -0.1)">
       <use xlink:href="#DejaVuSans-8722"/>
       <use x="83.789062" xlink:href="#DejaVuSans-48"/>
       <use x="147.412109" xlink:href="#DejaVuSans-46"/>
       <use x="179.199219" xlink:href="#DejaVuSans-48"/>
       <use x="242.822266" xlink:href="#DejaVuSans-50"/>
      </g>
     </g>
    </g>
    <g id="ytick_2">
     <g id="line2d_4">
      <g>
       <use style="stroke:#000000;stroke-width:0.8;" x="64.748" xlink:href="#m45799173b9" y="194.569959"/>
      </g>
     </g>
     <g id="text_5">
      <!-- 0.00 -->
      <g transform="translate(35.482375 198.369178)scale(0.1 -0.1)">
       <use xlink:href="#DejaVuSans-48"/>
       <use x="63.623047" xlink:href="#DejaVuSans-46"/>
       <use x="95.410156" xlink:href="#DejaVuSans-48"/>
       <use x="159.033203" xlink:href="#DejaVuSans-48"/>
      </g>
     </g>
    </g>
    <g id="ytick_3">
     <g id="line2d_5">
      <g>
       <use style="stroke:#000000;stroke-width:0.8;" x="64.748" xlink:href="#m45799173b9" y="166.621633"/>
      </g>
     </g>
     <g id="text_6">
      <!-- 0.02 -->
      <g transform="translate(35.482375 170.420851)scale(0.1 -0.1)">
       <use xlink:href="#DejaVuSans-48"/>
       <use x="63.623047" xlink:href="#DejaVuSans-46"/>
       <use x="95.410156" xlink:href="#DejaVuSans-48"/>
       <use x="159.033203" xlink:href="#DejaVuSans-50"/>
      </g>
     </g>
    </g>
    <g id="ytick_4">
     <g id="line2d_6">
      <g>
       <use style="stroke:#000000;stroke-width:0.8;" x="64.748" xlink:href="#m45799173b9" y="138.673306"/>
      </g>
     </g>
     <g id="text_7">
      <!-- 0.04 -->
      <defs>
       <path d="M 37.796875 64.3125 
L 12.890625 25.390625 
L 37.796875 25.390625 
z
M 35.203125 72.90625 
L 47.609375 72.90625 
L 47.609375 25.390625 
L 58.015625 25.390625 
L 58.015625 17.1875 
L 47.609375 17.1875 
L 47.609375 0 
L 37.796875 0 
L 37.796875 17.1875 
L 4.890625 17.1875 
L 4.890625 26.703125 
z
" id="DejaVuSans-52"/>
      </defs>
      <g transform="translate(35.482375 142.472525)scale(0.1 -0.1)">
       <use xlink:href="#DejaVuSans-48"/>
       <use x="63.623047" xlink:href="#DejaVuSans-46"/>
       <use x="95.410156" xlink:href="#DejaVuSans-48"/>
       <use x="159.033203" xlink:href="#DejaVuSans-52"/>
      </g>
     </g>
    </g>
    <g id="ytick_5">
     <g id="line2d_7">
      <g>
       <use style="stroke:#000000;stroke-width:0.8;" x="64.748" xlink:href="#m45799173b9" y="110.72498"/>
      </g>
     </g>
     <g id="text_8">
      <!-- 0.06 -->
      <defs>
       <path d="M 33.015625 40.375 
Q 26.375 40.375 22.484375 35.828125 
Q 18.609375 31.296875 18.609375 23.390625 
Q 18.609375 15.53125 22.484375 10.953125 
Q 26.375 6.390625 33.015625 6.390625 
Q 39.65625 6.390625 43.53125 10.953125 
Q 47.40625 15.53125 47.40625 23.390625 
Q 47.40625 31.296875 43.53125 35.828125 
Q 39.65625 40.375 33.015625 40.375 
z
M 52.59375 71.296875 
L 52.59375 62.3125 
Q 48.875 64.0625 45.09375 64.984375 
Q 41.3125 65.921875 37.59375 65.921875 
Q 27.828125 65.921875 22.671875 59.328125 
Q 17.53125 52.734375 16.796875 39.40625 
Q 19.671875 43.65625 24.015625 45.921875 
Q 28.375 48.1875 33.59375 48.1875 
Q 44.578125 48.1875 50.953125 41.515625 
Q 57.328125 34.859375 57.328125 23.390625 
Q 57.328125 12.15625 50.6875 5.359375 
Q 44.046875 -1.421875 33.015625 -1.421875 
Q 20.359375 -1.421875 13.671875 8.265625 
Q 6.984375 17.96875 6.984375 36.375 
Q 6.984375 53.65625 15.1875 63.9375 
Q 23.390625 74.21875 37.203125 74.21875 
Q 40.921875 74.21875 44.703125 73.484375 
Q 48.484375 72.75 52.59375 71.296875 
z
" id="DejaVuSans-54"/>
      </defs>
      <g transform="translate(35.482375 114.524198)scale(0.1 -0.1)">
       <use xlink:href="#DejaVuSans-48"/>
       <use x="63.623047" xlink:href="#DejaVuSans-46"/>
       <use x="95.410156" xlink:href="#DejaVuSans-48"/>
       <use x="159.033203" xlink:href="#DejaVuSans-54"/>
      </g>
     </g>
    </g>
    <g id="ytick_6">
     <g id="line2d_8">
      <g>
       <use style="stroke:#000000;stroke-width:0.8;" x="64.748" xlink:href="#m45799173b9" y="82.776653"/>
      </g>
     </g>
     <g id="text_9">
      <!-- 0.08 -->
      <defs>
       <path d="M 31.78125 34.625 
Q 24.75 34.625 20.71875 30.859375 
Q 16.703125 27.09375 16.703125 20.515625 
Q 16.703125 13.921875 20.71875 10.15625 
Q 24.75 6.390625 31.78125 6.390625 
Q 38.8125 6.390625 42.859375 10.171875 
Q 46.921875 13.96875 46.921875 20.515625 
Q 46.921875 27.09375 42.890625 30.859375 
Q 38.875 34.625 31.78125 34.625 
z
M 21.921875 38.8125 
Q 15.578125 40.375 12.03125 44.71875 
Q 8.5 49.078125 8.5 55.328125 
Q 8.5 64.0625 14.71875 69.140625 
Q 20.953125 74.21875 31.78125 74.21875 
Q 42.671875 74.21875 48.875 69.140625 
Q 55.078125 64.0625 55.078125 55.328125 
Q 55.078125 49.078125 51.53125 44.71875 
Q 48 40.375 41.703125 38.8125 
Q 48.828125 37.15625 52.796875 32.3125 
Q 56.78125 27.484375 56.78125 20.515625 
Q 56.78125 9.90625 50.3125 4.234375 
Q 43.84375 -1.421875 31.78125 -1.421875 
Q 19.734375 -1.421875 13.25 4.234375 
Q 6.78125 9.90625 6.78125 20.515625 
Q 6.78125 27.484375 10.78125 32.3125 
Q 14.796875 37.15625 21.921875 38.8125 
z
M 18.3125 54.390625 
Q 18.3125 48.734375 21.84375 45.5625 
Q 25.390625 42.390625 31.78125 42.390625 
Q 38.140625 42.390625 41.71875 45.5625 
Q 45.3125 48.734375 45.3125 54.390625 
Q 45.3125 60.0625 41.71875 63.234375 
Q 38.140625 66.40625 31.78125 66.40625 
Q 25.390625 66.40625 21.84375 63.234375 
Q 18.3125 60.0625 18.3125 54.390625 
z
" id="DejaVuSans-56"/>
      </defs>
      <g transform="translate(35.482375 86.575872)scale(0.1 -0.1)">
       <use xlink:href="#DejaVuSans-48"/>
       <use x="63.623047" xlink:href="#DejaVuSans-46"/>
       <use x="95.410156" xlink:href="#DejaVuSans-48"/>
       <use x="159.033203" xlink:href="#DejaVuSans-56"/>
      </g>
     </g>
    </g>
    <g id="ytick_7">
     <g id="line2d_9">
      <g>
       <use style="stroke:#000000;stroke-width:0.8;" x="64.748" xlink:href="#m45799173b9" y="54.828327"/>
      </g>
     </g>
     <g id="text_10">
      <!-- 0.10 -->
      <defs>
       <path d="M 12.40625 8.296875 
L 28.515625 8.296875 
L 28.515625 63.921875 
L 10.984375 60.40625 
L 10.984375 69.390625 
L 28.421875 72.90625 
L 38.28125 72.90625 
L 38.28125 8.296875 
L 54.390625 8.296875 
L 54.390625 0 
L 12.40625 0 
z
" id="DejaVuSans-49"/>
      </defs>
      <g transform="translate(35.482375 58.627545)scale(0.1 -0.1)">
       <use xlink:href="#DejaVuSans-48"/>
       <use x="63.623047" xlink:href="#DejaVuSans-46"/>
       <use x="95.410156" xlink:href="#DejaVuSans-49"/>
       <use x="159.033203" xlink:href="#DejaVuSans-48"/>
      </g>
     </g>
    </g>
    <g id="ytick_8">
     <g id="line2d_10">
      <g>
       <use style="stroke:#000000;stroke-width:0.8;" x="64.748" xlink:href="#m45799173b9" y="26.88"/>
      </g>
     </g>
     <g id="text_11">
      <!-- 0.12 -->
      <g transform="translate(35.482375 30.679219)scale(0.1 -0.1)">
       <use xlink:href="#DejaVuSans-48"/>
       <use x="63.623047" xlink:href="#DejaVuSans-46"/>
       <use x="95.410156" xlink:href="#DejaVuSans-49"/>
       <use x="159.033203" xlink:href="#DejaVuSans-50"/>
      </g>
     </g>
    </g>
    <g id="text_12">
     <!-- Noise Correlation ($r_{sc}$) -->
     <defs>
      <path d="M 9.8125 72.90625 
L 23.09375 72.90625 
L 55.421875 11.921875 
L 55.421875 72.90625 
L 64.984375 72.90625 
L 64.984375 0 
L 51.703125 0 
L 19.390625 60.984375 
L 19.390625 0 
L 9.8125 0 
z
" id="DejaVuSans-78"/>
      <path d="M 64.40625 67.28125 
L 64.40625 56.890625 
Q 59.421875 61.53125 53.78125 63.8125 
Q 48.140625 66.109375 41.796875 66.109375 
Q 29.296875 66.109375 22.65625 58.46875 
Q 16.015625 50.828125 16.015625 36.375 
Q 16.015625 21.96875 22.65625 14.328125 
Q 29.296875 6.6875 41.796875 6.6875 
Q 48.140625 6.6875 53.78125 8.984375 
Q 59.421875 11.28125 64.40625 15.921875 
L 64.40625 5.609375 
Q 59.234375 2.09375 53.4375 0.328125 
Q 47.65625 -1.421875 41.21875 -1.421875 
Q 24.65625 -1.421875 15.125 8.703125 
Q 5.609375 18.84375 5.609375 36.375 
Q 5.609375 53.953125 15.125 64.078125 
Q 24.65625 74.21875 41.21875 74.21875 
Q 47.75 74.21875 53.53125 72.484375 
Q 59.328125 70.75 64.40625 67.28125 
z
" id="DejaVuSans-67"/>
      <path d="M 9.421875 75.984375 
L 18.40625 75.984375 
L 18.40625 0 
L 9.421875 0 
z
" id="DejaVuSans-108"/>
      <path d="M 54.890625 33.015625 
L 54.890625 0 
L 45.90625 0 
L 45.90625 32.71875 
Q 45.90625 40.484375 42.875 44.328125 
Q 39.84375 48.1875 33.796875 48.1875 
Q 26.515625 48.1875 22.3125 43.546875 
Q 18.109375 38.921875 18.109375 30.90625 
L 18.109375 0 
L 9.078125 0 
L 9.078125 54.6875 
L 18.109375 54.6875 
L 18.109375 46.1875 
Q 21.34375 51.125 25.703125 53.5625 
Q 30.078125 56 35.796875 56 
Q 45.21875 56 50.046875 50.171875 
Q 54.890625 44.34375 54.890625 33.015625 
z
" id="DejaVuSans-110"/>
      <path d="M 31 75.875 
Q 24.46875 64.65625 21.28125 53.65625 
Q 18.109375 42.671875 18.109375 31.390625 
Q 18.109375 20.125 21.3125 9.0625 
Q 24.515625 -2 31 -13.1875 
L 23.1875 -13.1875 
Q 15.875 -1.703125 12.234375 9.375 
Q 8.59375 20.453125 8.59375 31.390625 
Q 8.59375 42.28125 12.203125 53.3125 
Q 15.828125 64.359375 23.1875 75.875 
z
" id="DejaVuSans-40"/>
      <path d="M 44.578125 46.390625 
Q 43.21875 47.125 41.453125 47.515625 
Q 39.703125 47.90625 37.703125 47.90625 
Q 30.515625 47.90625 25.140625 42.453125 
Q 19.78125 37.015625 18.015625 27.875 
L 12.5 0 
L 3.515625 0 
L 14.203125 54.6875 
L 23.1875 54.6875 
L 21.484375 46.1875 
Q 25.046875 50.921875 30 53.453125 
Q 34.96875 56 40.578125 56 
Q 42.046875 56 43.453125 55.828125 
Q 44.875 55.671875 46.296875 55.28125 
z
" id="DejaVuSans-Oblique-114"/>
      <path d="M 50 53.078125 
L 48.296875 44.578125 
Q 44.734375 46.53125 40.765625 47.5 
Q 36.8125 48.484375 32.625 48.484375 
Q 25.53125 48.484375 21.453125 46.0625 
Q 17.390625 43.65625 17.390625 39.5 
Q 17.390625 34.671875 26.859375 32.078125 
Q 27.59375 31.890625 27.9375 31.78125 
L 30.8125 30.90625 
Q 39.796875 28.421875 42.796875 25.6875 
Q 45.796875 22.953125 45.796875 18.21875 
Q 45.796875 9.515625 38.890625 4.046875 
Q 31.984375 -1.421875 20.796875 -1.421875 
Q 16.453125 -1.421875 11.671875 -0.578125 
Q 6.890625 0.25 1.125 2 
L 2.875 11.28125 
Q 7.8125 8.734375 12.59375 7.421875 
Q 17.390625 6.109375 21.78125 6.109375 
Q 28.375 6.109375 32.5 8.9375 
Q 36.625 11.765625 36.625 16.109375 
Q 36.625 20.796875 25.78125 23.6875 
L 24.859375 23.921875 
L 21.78125 24.703125 
Q 14.9375 26.515625 11.765625 29.46875 
Q 8.59375 32.421875 8.59375 37.015625 
Q 8.59375 45.75 15.15625 50.875 
Q 21.734375 56 33.015625 56 
Q 37.453125 56 41.671875 55.265625 
Q 45.90625 54.546875 50 53.078125 
z
" id="DejaVuSans-Oblique-115"/>
      <path d="M 53.609375 52.59375 
L 51.8125 43.703125 
Q 48.578125 46.046875 44.9375 47.21875 
Q 41.3125 48.390625 37.40625 48.390625 
Q 33.109375 48.390625 29.21875 46.875 
Q 25.34375 45.359375 22.703125 42.578125 
Q 18.5 38.328125 16.203125 32.609375 
Q 13.921875 26.90625 13.921875 20.796875 
Q 13.921875 13.421875 17.609375 9.8125 
Q 21.296875 6.203125 28.8125 6.203125 
Q 32.515625 6.203125 36.6875 7.328125 
Q 40.875 8.453125 45.40625 10.6875 
L 43.703125 1.8125 
Q 39.796875 0.203125 35.671875 -0.609375 
Q 31.546875 -1.421875 27.203125 -1.421875 
Q 16.3125 -1.421875 10.453125 4.015625 
Q 4.59375 9.46875 4.59375 19.578125 
Q 4.59375 28.078125 7.640625 35.234375 
Q 10.6875 42.390625 16.703125 48.09375 
Q 20.796875 52 26.3125 54 
Q 31.84375 56 38.375 56 
Q 42.1875 56 45.9375 55.140625 
Q 49.703125 54.296875 53.609375 52.59375 
z
" id="DejaVuSans-Oblique-99"/>
      <path d="M 8.015625 75.875 
L 15.828125 75.875 
Q 23.140625 64.359375 26.78125 53.3125 
Q 30.421875 42.28125 30.421875 31.390625 
Q 30.421875 20.453125 26.78125 9.375 
Q 23.140625 -1.703125 15.828125 -13.1875 
L 8.015625 -13.1875 
Q 14.5 -2 17.703125 9.0625 
Q 20.90625 20.125 20.90625 31.390625 
Q 20.90625 42.671875 17.703125 53.65625 
Q 14.5 64.65625 8.015625 75.875 
z
" id="DejaVuSans-41"/>
     </defs>
     <g transform="translate(21.023 179.399143)rotate(-90)scale(0.1 -0.1)">
      <use transform="translate(0 0.015625)" xlink:href="#DejaVuSans-78"/>
      <use transform="translate(74.804688 0.015625)" xlink:href="#DejaVuSans-111"/>
      <use transform="translate(135.986328 0.015625)" xlink:href="#DejaVuSans-105"/>
      <use transform="translate(163.769531 0.015625)" xlink:href="#DejaVuSans-115"/>
      <use transform="translate(215.869141 0.015625)" xlink:href="#DejaVuSans-101"/>
      <use transform="translate(277.392578 0.015625)" xlink:href="#DejaVuSans-32"/>
      <use transform="translate(309.179688 0.015625)" xlink:href="#DejaVuSans-67"/>
      <use transform="translate(379.003906 0.015625)" xlink:href="#DejaVuSans-111"/>
      <use transform="translate(440.185547 0.015625)" xlink:href="#DejaVuSans-114"/>
      <use transform="translate(481.298828 0.015625)" xlink:href="#DejaVuSans-114"/>
      <use transform="translate(522.412109 0.015625)" xlink:href="#DejaVuSans-101"/>
      <use transform="translate(583.935547 0.015625)" xlink:href="#DejaVuSans-108"/>
      <use transform="translate(611.71875 0.015625)" xlink:href="#DejaVuSans-97"/>
      <use transform="translate(672.998047 0.015625)" xlink:href="#DejaVuSans-116"/>
      <use transform="translate(712.207031 0.015625)" xlink:href="#DejaVuSans-105"/>
      <use transform="translate(739.990234 0.015625)" xlink:href="#DejaVuSans-111"/>
      <use transform="translate(801.171875 0.015625)" xlink:href="#DejaVuSans-110"/>
      <use transform="translate(864.550781 0.015625)" xlink:href="#DejaVuSans-32"/>
      <use transform="translate(896.337891 0.015625)" xlink:href="#DejaVuSans-40"/>
      <use transform="translate(935.351562 0.015625)" xlink:href="#DejaVuSans-Oblique-114"/>
      <use transform="translate(976.464844 -16.390625)scale(0.7)" xlink:href="#DejaVuSans-Oblique-115"/>
      <use transform="translate(1012.93457 -16.390625)scale(0.7)" xlink:href="#DejaVuSans-Oblique-99"/>
      <use transform="translate(1054.155273 0.015625)" xlink:href="#DejaVuSans-41"/>
     </g>
    </g>
   </g>
   <g id="LineCollection_1">
    <path clip-path="url(#p0cc7fb8f4e)" d="M 149.7324 174.455561 
L 149.7324 151.560769 
" style="fill:none;stroke:#000000;stroke-width:1.5;"/>
    <path clip-path="url(#p0cc7fb8f4e)" d="M 192.2246 128.548433 
L 192.2246 109.230098 
" style="fill:none;stroke:#000000;stroke-width:1.5;"/>
   </g>
   <g id="line2d_11">
    <path clip-path="url(#p0cc7fb8f4e)" d="M 149.7324 133.970488 
L 192.2246 110.021431 
" style="fill:none;stroke:#808080;stroke-linecap:square;stroke-width:0.8;"/>
   </g>
   <g id="line2d_12">
    <path clip-path="url(#p0cc7fb8f4e)" d="M 149.7324 185.339285 
L 192.2246 156.532365 
" style="fill:none;stroke:#808080;stroke-linecap:square;stroke-width:0.8;"/>
   </g>
   <g id="line2d_13">
    <path clip-path="url(#p0cc7fb8f4e)" d="M 149.7324 172.646394 
L 192.2246 154.813757 
" style="fill:none;stroke:#808080;stroke-linecap:square;stroke-width:0.8;"/>
   </g>
   <g id="line2d_14">
    <path clip-path="url(#p0cc7fb8f4e)" d="M 149.7324 182.588568 
L 192.2246 147.193589 
" style="fill:none;stroke:#808080;stroke-linecap:square;stroke-width:0.8;"/>
   </g>
   <g id="line2d_15">
    <path clip-path="url(#p0cc7fb8f4e)" d="M 149.7324 174.131098 
L 192.2246 75.886346 
" style="fill:none;stroke:#808080;stroke-linecap:square;stroke-width:0.8;"/>
   </g>
   <g id="line2d_16">
    <path clip-path="url(#p0cc7fb8f4e)" d="M 149.7324 105.786012 
L 192.2246 120.041227 
" style="fill:none;stroke:#808080;stroke-linecap:square;stroke-width:0.8;"/>
   </g>
   <g id="line2d_17">
    <path clip-path="url(#p0cc7fb8f4e)" d="M 149.7324 143.071297 
L 192.2246 88.550138 
" style="fill:none;stroke:#808080;stroke-linecap:square;stroke-width:0.8;"/>
   </g>
   <g id="line2d_18">
    <path clip-path="url(#p0cc7fb8f4e)" d="M 149.7324 145.189509 
L 192.2246 118.719136 
" style="fill:none;stroke:#808080;stroke-linecap:square;stroke-width:0.8;"/>
   </g>
   <g id="line2d_19">
    <path clip-path="url(#p0cc7fb8f4e)" d="M 149.7324 174.23385 
L 192.2246 141.412491 
" style="fill:none;stroke:#808080;stroke-linecap:square;stroke-width:0.8;"/>
   </g>
   <g id="line2d_20">
    <path clip-path="url(#p0cc7fb8f4e)" d="M 149.7324 133.173805 
L 192.2246 51.741681 
" style="fill:none;stroke:#808080;stroke-linecap:square;stroke-width:0.8;"/>
   </g>
   <g id="line2d_21">
    <path clip-path="url(#p0cc7fb8f4e)" d="M 149.7324 177.821285 
L 192.2246 115.211355 
" style="fill:none;stroke:#808080;stroke-linecap:square;stroke-width:0.8;"/>
   </g>
   <g id="line2d_22">
    <path clip-path="url(#p0cc7fb8f4e)" d="M 149.7324 121.062669 
L 192.2246 133.361744 
" style="fill:none;stroke:#808080;stroke-linecap:square;stroke-width:0.8;"/>
   </g>
   <g id="line2d_23">
    <path clip-path="url(#p0cc7fb8f4e)" d="M 169.946456 289 
L 192.2246 193.428386 
" style="fill:none;stroke:#808080;stroke-linecap:square;stroke-width:0.8;"/>
   </g>
   <g id="line2d_24">
    <path clip-path="url(#p0cc7fb8f4e)" d="M 149.7324 166.948249 
L 192.2246 129.199972 
" style="fill:none;stroke:#808080;stroke-linecap:square;stroke-width:0.8;"/>
   </g>
   <g id="line2d_25">
    <path clip-path="url(#p0cc7fb8f4e)" d="M 149.7324 223.636656 
L 192.2246 187.036368 
" style="fill:none;stroke:#808080;stroke-linecap:square;stroke-width:0.8;"/>
   </g>
   <g id="line2d_26">
    <path clip-path="url(#p0cc7fb8f4e)" d="M 149.7324 191.645406 
L 192.2246 110.287165 
" style="fill:none;stroke:#808080;stroke-linecap:square;stroke-width:0.8;"/>
   </g>
   <g id="line2d_27">
    <path clip-path="url(#p0cc7fb8f4e)" d="M 149.7324 118.341706 
L 192.2246 94.601057 
" style="fill:none;stroke:#808080;stroke-linecap:square;stroke-width:0.8;"/>
   </g>
   <g id="line2d_28">
    <path clip-path="url(#p0cc7fb8f4e)" d="M 149.7324 138.829741 
L 192.2246 91.136703 
" style="fill:none;stroke:#808080;stroke-linecap:square;stroke-width:0.8;"/>
   </g>
   <g id="line2d_29">
    <path clip-path="url(#p0cc7fb8f4e)" d="M 149.7324 174.826417 
L 192.2246 182.160804 
" style="fill:none;stroke:#808080;stroke-linecap:square;stroke-width:0.8;"/>
   </g>
   <g id="line2d_30">
    <path clip-path="url(#p0cc7fb8f4e)" d="M 149.7324 173.40931 
L 192.2246 155.640868 
" style="fill:none;stroke:#808080;stroke-linecap:square;stroke-width:0.8;"/>
   </g>
   <g id="line2d_31">
    <path clip-path="url(#p0cc7fb8f4e)" d="M 149.7324 112.196765 
L 181.083781 -1 
" style="fill:none;stroke:#808080;stroke-linecap:square;stroke-width:0.8;"/>
   </g>
   <g id="line2d_32">
    <path clip-path="url(#p0cc7fb8f4e)" d="M 149.7324 177.524016 
L 192.2246 83.597514 
" style="fill:none;stroke:#808080;stroke-linecap:square;stroke-width:0.8;"/>
   </g>
   <g id="line2d_33">
    <path clip-path="url(#p0cc7fb8f4e)" d="M 149.7324 60.747819 
L 192.2246 110.670581 
" style="fill:none;stroke:#808080;stroke-linecap:square;stroke-width:0.8;"/>
   </g>
   <g id="line2d_34">
    <path clip-path="url(#p0cc7fb8f4e)" d="M 149.7324 199.615924 
L 192.2246 126.654907 
" style="fill:none;stroke:#808080;stroke-linecap:square;stroke-width:0.8;"/>
   </g>
   <g id="line2d_35">
    <path clip-path="url(#p0cc7fb8f4e)" d="M 149.7324 112.751051 
L 192.2246 135.55695 
" style="fill:none;stroke:#808080;stroke-linecap:square;stroke-width:0.8;"/>
   </g>
   <g id="line2d_36">
    <path clip-path="url(#p0cc7fb8f4e)" d="M 64.748 194.569959 
L 277.209 194.569959 
" style="fill:none;stroke:#000000;stroke-dasharray:5.55,2.4;stroke-dashoffset:0;stroke-width:1.5;"/>
   </g>
   <g id="patch_5">
    <path d="M 64.748 222.518286 
L 64.748 26.88 
" style="fill:none;stroke:#000000;stroke-linecap:square;stroke-linejoin:miter;stroke-width:0.8;"/>
   </g>
   <g id="patch_6">
    <path d="M 64.748 222.518286 
L 277.209 222.518286 
" style="fill:none;stroke:#000000;stroke-linecap:square;stroke-linejoin:miter;stroke-width:0.8;"/>
   </g>
  </g>
  <g id="axes_2">
   <g id="patch_7">
    <path d="M 350.219 222.518286 
L 562.68 222.518286 
L 562.68 26.88 
L 350.219 26.88 
z
" style="fill:#ffffff;"/>
   </g>
   <g id="PathCollection_1">
    <defs>
     <path d="M 0 3 
C 0.795609 3 1.55874 2.683901 2.12132 2.12132 
C 2.683901 1.55874 3 0.795609 3 0 
C 3 -0.795609 2.683901 -1.55874 2.12132 -2.12132 
C 1.55874 -2.683901 0.795609 -3 0 -3 
C -0.795609 -3 -1.55874 -2.683901 -2.12132 -2.12132 
C -2.683901 -1.55874 -3 -0.795609 -3 0 
C -3 0.795609 -2.683901 1.55874 -2.12132 2.12132 
C -1.55874 2.683901 -0.795609 3 0 3 
z
" id="m0e3bd6bc98" style="stroke:#ff7f0e;stroke-opacity:0.8;"/>
    </defs>
    <g clip-path="url(#p1d191c1321)">
     <use style="fill:#ff7f0e;fill-opacity:0.8;stroke:#ff7f0e;stroke-opacity:0.8;" x="377.503196" xlink:href="#m0e3bd6bc98" y="153.641374"/>
     <use style="fill:#ff7f0e;fill-opacity:0.8;stroke:#ff7f0e;stroke-opacity:0.8;" x="449.791505" xlink:href="#m0e3bd6bc98" y="144.092641"/>
     <use style="fill:#ff7f0e;fill-opacity:0.8;stroke:#ff7f0e;stroke-opacity:0.8;" x="495.983789" xlink:href="#m0e3bd6bc98" y="113.870788"/>
     <use style="fill:#ff7f0e;fill-opacity:0.8;stroke:#ff7f0e;stroke-opacity:0.8;" x="479.881945" xlink:href="#m0e3bd6bc98" y="132.80533"/>
     <use style="fill:#ff7f0e;fill-opacity:0.8;stroke:#ff7f0e;stroke-opacity:0.8;" x="472.799192" xlink:href="#m0e3bd6bc98" y="159.786899"/>
     <use style="fill:#ff7f0e;fill-opacity:0.8;stroke:#ff7f0e;stroke-opacity:0.8;" x="469.039152" xlink:href="#m0e3bd6bc98" y="129.076915"/>
     <use style="fill:#ff7f0e;fill-opacity:0.8;stroke:#ff7f0e;stroke-opacity:0.8;" x="462.910371" xlink:href="#m0e3bd6bc98" y="148.700465"/>
     <use style="fill:#ff7f0e;fill-opacity:0.8;stroke:#ff7f0e;stroke-opacity:0.8;" x="518.93264" xlink:href="#m0e3bd6bc98" y="124.560637"/>
     <use style="fill:#ff7f0e;fill-opacity:0.8;stroke:#ff7f0e;stroke-opacity:0.8;" x="456.735435" xlink:href="#m0e3bd6bc98" y="143.983633"/>
     <use style="fill:#ff7f0e;fill-opacity:0.8;stroke:#ff7f0e;stroke-opacity:0.8;" x="500.743111" xlink:href="#m0e3bd6bc98" y="114.291326"/>
     <use style="fill:#ff7f0e;fill-opacity:0.8;stroke:#ff7f0e;stroke-opacity:0.8;" x="389.867788" xlink:href="#m0e3bd6bc98" y="154.337028"/>
     <use style="fill:#ff7f0e;fill-opacity:0.8;stroke:#ff7f0e;stroke-opacity:0.8;" x="518.787511" xlink:href="#m0e3bd6bc98" y="150.089853"/>
     <use style="fill:#ff7f0e;fill-opacity:0.8;stroke:#ff7f0e;stroke-opacity:0.8;" x="480.297387" xlink:href="#m0e3bd6bc98" y="132.172517"/>
     <use style="fill:#ff7f0e;fill-opacity:0.8;stroke:#ff7f0e;stroke-opacity:0.8;" x="453.76164" xlink:href="#m0e3bd6bc98" y="146.07181"/>
     <use style="fill:#ff7f0e;fill-opacity:0.8;stroke:#ff7f0e;stroke-opacity:0.8;" x="492.101396" xlink:href="#m0e3bd6bc98" y="140.618467"/>
     <use style="fill:#ff7f0e;fill-opacity:0.8;stroke:#ff7f0e;stroke-opacity:0.8;" x="388.861554" xlink:href="#m0e3bd6bc98" y="94.188817"/>
     <use style="fill:#ff7f0e;fill-opacity:0.8;stroke:#ff7f0e;stroke-opacity:0.8;" x="419.790077" xlink:href="#m0e3bd6bc98" y="161.233254"/>
     <use style="fill:#ff7f0e;fill-opacity:0.8;stroke:#ff7f0e;stroke-opacity:0.8;" x="424.075231" xlink:href="#m0e3bd6bc98" y="133.016616"/>
     <use style="fill:#ff7f0e;fill-opacity:0.8;stroke:#ff7f0e;stroke-opacity:0.8;" x="476.32772" xlink:href="#m0e3bd6bc98" y="121.903429"/>
     <use style="fill:#ff7f0e;fill-opacity:0.8;stroke:#ff7f0e;stroke-opacity:0.8;" x="485.011734" xlink:href="#m0e3bd6bc98" y="121.104295"/>
     <use style="fill:#ff7f0e;fill-opacity:0.8;stroke:#ff7f0e;stroke-opacity:0.8;" x="393.430571" xlink:href="#m0e3bd6bc98" y="156.922627"/>
     <use style="fill:#ff7f0e;fill-opacity:0.8;stroke:#ff7f0e;stroke-opacity:0.8;" x="514.733579" xlink:href="#m0e3bd6bc98" y="112.247136"/>
     <use style="fill:#ff7f0e;fill-opacity:0.8;stroke:#ff7f0e;stroke-opacity:0.8;" x="505.476446" xlink:href="#m0e3bd6bc98" y="105.602126"/>
     <use style="fill:#ff7f0e;fill-opacity:0.8;stroke:#ff7f0e;stroke-opacity:0.8;" x="477.27367" xlink:href="#m0e3bd6bc98" y="146.827559"/>
     <use style="fill:#ff7f0e;fill-opacity:0.8;stroke:#ff7f0e;stroke-opacity:0.8;" x="507.218981" xlink:href="#m0e3bd6bc98" y="144.189752"/>
     <use style="fill:#ff7f0e;fill-opacity:0.8;stroke:#ff7f0e;stroke-opacity:0.8;" x="475.715043" xlink:href="#m0e3bd6bc98" y="92.709352"/>
     <use style="fill:#ff7f0e;fill-opacity:0.8;stroke:#ff7f0e;stroke-opacity:0.8;" x="363.856597" xlink:href="#m0e3bd6bc98" y="210.54942"/>
     <use style="fill:#ff7f0e;fill-opacity:0.8;stroke:#ff7f0e;stroke-opacity:0.8;" x="537.257025" xlink:href="#m0e3bd6bc98" y="95.803811"/>
     <use style="fill:#ff7f0e;fill-opacity:0.8;stroke:#ff7f0e;stroke-opacity:0.8;" x="427.80231" xlink:href="#m0e3bd6bc98" y="129.797477"/>
     <use style="fill:#ff7f0e;fill-opacity:0.8;stroke:#ff7f0e;stroke-opacity:0.8;" x="549.042403" xlink:href="#m0e3bd6bc98" y="127.108645"/>
     <use style="fill:#ff7f0e;fill-opacity:0.8;stroke:#ff7f0e;stroke-opacity:0.8;" x="540.202317" xlink:href="#m0e3bd6bc98" y="131.789057"/>
     <use style="fill:#ff7f0e;fill-opacity:0.8;stroke:#ff7f0e;stroke-opacity:0.8;" x="514.207239" xlink:href="#m0e3bd6bc98" y="136.451766"/>
     <use style="fill:#ff7f0e;fill-opacity:0.8;stroke:#ff7f0e;stroke-opacity:0.8;" x="525.770287" xlink:href="#m0e3bd6bc98" y="152.698853"/>
     <use style="fill:#ff7f0e;fill-opacity:0.8;stroke:#ff7f0e;stroke-opacity:0.8;" x="487.960146" xlink:href="#m0e3bd6bc98" y="146.185107"/>
     <use style="fill:#ff7f0e;fill-opacity:0.8;stroke:#ff7f0e;stroke-opacity:0.8;" x="512.432745" xlink:href="#m0e3bd6bc98" y="86.916807"/>
     <use style="fill:#ff7f0e;fill-opacity:0.8;stroke:#ff7f0e;stroke-opacity:0.8;" x="514.824262" xlink:href="#m0e3bd6bc98" y="139.195457"/>
     <use style="fill:#ff7f0e;fill-opacity:0.8;stroke:#ff7f0e;stroke-opacity:0.8;" x="462.976674" xlink:href="#m0e3bd6bc98" y="165.132182"/>
     <use style="fill:#ff7f0e;fill-opacity:0.8;stroke:#ff7f0e;stroke-opacity:0.8;" x="496.122991" xlink:href="#m0e3bd6bc98" y="126.766699"/>
     <use style="fill:#ff7f0e;fill-opacity:0.8;stroke:#ff7f0e;stroke-opacity:0.8;" x="478.242017" xlink:href="#m0e3bd6bc98" y="100.221857"/>
     <use style="fill:#ff7f0e;fill-opacity:0.8;stroke:#ff7f0e;stroke-opacity:0.8;" x="493.826503" xlink:href="#m0e3bd6bc98" y="138.940416"/>
     <use style="fill:#ff7f0e;fill-opacity:0.8;stroke:#ff7f0e;stroke-opacity:0.8;" x="545.661522" xlink:href="#m0e3bd6bc98" y="129.502645"/>
     <use style="fill:#ff7f0e;fill-opacity:0.8;stroke:#ff7f0e;stroke-opacity:0.8;" x="507.202778" xlink:href="#m0e3bd6bc98" y="152.673148"/>
     <use style="fill:#ff7f0e;fill-opacity:0.8;stroke:#ff7f0e;stroke-opacity:0.8;" x="486.466083" xlink:href="#m0e3bd6bc98" y="136.546421"/>
     <use style="fill:#ff7f0e;fill-opacity:0.8;stroke:#ff7f0e;stroke-opacity:0.8;" x="536.827253" xlink:href="#m0e3bd6bc98" y="140.127375"/>
     <use style="fill:#ff7f0e;fill-opacity:0.8;stroke:#ff7f0e;stroke-opacity:0.8;" x="496.011179" xlink:href="#m0e3bd6bc98" y="129.185653"/>
     <use style="fill:#ff7f0e;fill-opacity:0.8;stroke:#ff7f0e;stroke-opacity:0.8;" x="530.302464" xlink:href="#m0e3bd6bc98" y="38.848866"/>
     <use style="fill:#ff7f0e;fill-opacity:0.8;stroke:#ff7f0e;stroke-opacity:0.8;" x="530.302464" xlink:href="#m0e3bd6bc98" y="119.763441"/>
     <use style="fill:#ff7f0e;fill-opacity:0.8;stroke:#ff7f0e;stroke-opacity:0.8;" x="534.014455" xlink:href="#m0e3bd6bc98" y="105.583859"/>
     <use style="fill:#ff7f0e;fill-opacity:0.8;stroke:#ff7f0e;stroke-opacity:0.8;" x="524.052044" xlink:href="#m0e3bd6bc98" y="135.336402"/>
     <use style="fill:#ff7f0e;fill-opacity:0.8;stroke:#ff7f0e;stroke-opacity:0.8;" x="462.766579" xlink:href="#m0e3bd6bc98" y="151.089351"/>
     <use style="fill:#ff7f0e;fill-opacity:0.8;stroke:#ff7f0e;stroke-opacity:0.8;" x="462.766579" xlink:href="#m0e3bd6bc98" y="138.369067"/>
     <use style="fill:#ff7f0e;fill-opacity:0.8;stroke:#ff7f0e;stroke-opacity:0.8;" x="522.371153" xlink:href="#m0e3bd6bc98" y="139.89498"/>
     <use style="fill:#ff7f0e;fill-opacity:0.8;stroke:#ff7f0e;stroke-opacity:0.8;" x="522.371153" xlink:href="#m0e3bd6bc98" y="140.932869"/>
     <use style="fill:#ff7f0e;fill-opacity:0.8;stroke:#ff7f0e;stroke-opacity:0.8;" x="430.900397" xlink:href="#m0e3bd6bc98" y="136.825346"/>
     <use style="fill:#ff7f0e;fill-opacity:0.8;stroke:#ff7f0e;stroke-opacity:0.8;" x="531.2089" xlink:href="#m0e3bd6bc98" y="158.147003"/>
     <use style="fill:#ff7f0e;fill-opacity:0.8;stroke:#ff7f0e;stroke-opacity:0.8;" x="531.2089" xlink:href="#m0e3bd6bc98" y="140.202013"/>
     <use style="fill:#ff7f0e;fill-opacity:0.8;stroke:#ff7f0e;stroke-opacity:0.8;" x="510.124268" xlink:href="#m0e3bd6bc98" y="137.362024"/>
     <use style="fill:#ff7f0e;fill-opacity:0.8;stroke:#ff7f0e;stroke-opacity:0.8;" x="510.124268" xlink:href="#m0e3bd6bc98" y="148.827227"/>
     <use style="fill:#ff7f0e;fill-opacity:0.8;stroke:#ff7f0e;stroke-opacity:0.8;" x="530.302464" xlink:href="#m0e3bd6bc98" y="77.772461"/>
     <use style="fill:#ff7f0e;fill-opacity:0.8;stroke:#ff7f0e;stroke-opacity:0.8;" x="530.302464" xlink:href="#m0e3bd6bc98" y="148.133907"/>
     <use style="fill:#ff7f0e;fill-opacity:0.8;stroke:#ff7f0e;stroke-opacity:0.8;" x="538.900274" xlink:href="#m0e3bd6bc98" y="138.576084"/>
     <use style="fill:#ff7f0e;fill-opacity:0.8;stroke:#ff7f0e;stroke-opacity:0.8;" x="538.900274" xlink:href="#m0e3bd6bc98" y="134.224866"/>
     <use style="fill:#ff7f0e;fill-opacity:0.8;stroke:#ff7f0e;stroke-opacity:0.8;" x="519.538543" xlink:href="#m0e3bd6bc98" y="146.936782"/>
     <use style="fill:#ff7f0e;fill-opacity:0.8;stroke:#ff7f0e;stroke-opacity:0.8;" x="519.538543" xlink:href="#m0e3bd6bc98" y="157.13858"/>
     <use style="fill:#ff7f0e;fill-opacity:0.8;stroke:#ff7f0e;stroke-opacity:0.8;" x="522.371153" xlink:href="#m0e3bd6bc98" y="113.221701"/>
     <use style="fill:#ff7f0e;fill-opacity:0.8;stroke:#ff7f0e;stroke-opacity:0.8;" x="522.371153" xlink:href="#m0e3bd6bc98" y="100.064775"/>
     <use style="fill:#ff7f0e;fill-opacity:0.8;stroke:#ff7f0e;stroke-opacity:0.8;" x="471.982549" xlink:href="#m0e3bd6bc98" y="116.379473"/>
     <use style="fill:#ff7f0e;fill-opacity:0.8;stroke:#ff7f0e;stroke-opacity:0.8;" x="471.982549" xlink:href="#m0e3bd6bc98" y="157.716822"/>
     <use style="fill:#ff7f0e;fill-opacity:0.8;stroke:#ff7f0e;stroke-opacity:0.8;" x="488.645856" xlink:href="#m0e3bd6bc98" y="125.90446"/>
     <use style="fill:#ff7f0e;fill-opacity:0.8;stroke:#ff7f0e;stroke-opacity:0.8;" x="462.766579" xlink:href="#m0e3bd6bc98" y="137.723157"/>
     <use style="fill:#ff7f0e;fill-opacity:0.8;stroke:#ff7f0e;stroke-opacity:0.8;" x="462.766579" xlink:href="#m0e3bd6bc98" y="135.363706"/>
     <use style="fill:#ff7f0e;fill-opacity:0.8;stroke:#ff7f0e;stroke-opacity:0.8;" x="538.900274" xlink:href="#m0e3bd6bc98" y="98.90714"/>
     <use style="fill:#ff7f0e;fill-opacity:0.8;stroke:#ff7f0e;stroke-opacity:0.8;" x="538.900274" xlink:href="#m0e3bd6bc98" y="134.6777"/>
     <use style="fill:#ff7f0e;fill-opacity:0.8;stroke:#ff7f0e;stroke-opacity:0.8;" x="407.901981" xlink:href="#m0e3bd6bc98" y="137.923252"/>
     <use style="fill:#ff7f0e;fill-opacity:0.8;stroke:#ff7f0e;stroke-opacity:0.8;" x="463.580748" xlink:href="#m0e3bd6bc98" y="120.770233"/>
     <use style="fill:#ff7f0e;fill-opacity:0.8;stroke:#ff7f0e;stroke-opacity:0.8;" x="493.640344" xlink:href="#m0e3bd6bc98" y="139.305602"/>
    </g>
   </g>
   <g id="PolyCollection_1">
    <path clip-path="url(#p1d191c1321)" d="M 363.856597 135.921935 
L 363.856597 174.625885 
L 365.727161 174.032714 
L 367.597725 173.439543 
L 369.468288 172.846372 
L 371.338852 172.238967 
L 373.209416 171.622994 
L 375.079979 171.007021 
L 376.950543 170.391048 
L 378.821107 169.775075 
L 380.69167 169.159014 
L 382.562234 168.542471 
L 384.432798 168.004671 
L 386.303362 167.441397 
L 388.173925 166.825725 
L 390.044489 166.210641 
L 391.915053 165.598251 
L 393.785616 164.983627 
L 395.65618 164.368817 
L 397.526744 163.754007 
L 399.397307 163.139197 
L 401.267871 162.524387 
L 403.138435 161.909577 
L 405.008998 161.293447 
L 406.879562 160.67473 
L 408.750126 160.037282 
L 410.62069 159.417473 
L 412.491253 158.845256 
L 414.361817 158.291074 
L 416.232381 157.736891 
L 418.102944 157.182709 
L 419.973508 156.626833 
L 421.844072 156.065951 
L 423.714635 155.386199 
L 425.585199 154.789557 
L 427.455763 154.291705 
L 429.326326 153.793853 
L 431.19689 153.291354 
L 433.067454 152.738537 
L 434.938018 152.184964 
L 436.808581 151.628247 
L 438.679145 150.922907 
L 440.549709 150.359633 
L 442.420272 149.738897 
L 444.290836 149.148533 
L 446.1614 148.57002 
L 448.031963 148.073819 
L 449.902527 147.461543 
L 451.773091 146.910035 
L 453.643654 146.298462 
L 455.514218 145.772828 
L 457.384782 145.19723 
L 459.255346 144.661225 
L 461.125909 144.150968 
L 462.996473 143.629727 
L 464.867037 143.047118 
L 466.7376 142.599199 
L 468.608164 142.143525 
L 470.478728 141.719055 
L 472.349291 141.239757 
L 474.219855 140.797379 
L 476.090419 140.370747 
L 477.960982 139.97441 
L 479.831546 139.564439 
L 481.70211 139.178528 
L 483.572674 138.742998 
L 485.443237 138.265907 
L 487.313801 137.878019 
L 489.184365 137.485019 
L 491.054928 137.051285 
L 492.925492 136.690609 
L 494.796056 136.318343 
L 496.666619 135.923467 
L 498.537183 135.570851 
L 500.407747 135.222036 
L 502.27831 134.857827 
L 504.148874 134.6522 
L 506.019438 134.373073 
L 507.890002 134.161783 
L 509.760565 133.949345 
L 511.631129 133.724372 
L 513.501693 133.466016 
L 515.372256 133.100796 
L 517.24282 132.949089 
L 519.113384 132.878872 
L 520.983947 132.815666 
L 522.854511 132.630287 
L 524.725075 132.548363 
L 526.595638 132.374862 
L 528.466202 132.200489 
L 530.336766 132.106107 
L 532.20733 131.970133 
L 534.077893 131.842463 
L 535.948457 131.708244 
L 537.819021 131.680737 
L 539.689584 131.47172 
L 541.560148 131.322839 
L 543.430712 131.237634 
L 545.301275 131.189034 
L 547.171839 131.214451 
L 549.042403 131.033967 
L 549.042403 110.320687 
L 549.042403 110.320687 
L 547.171839 110.915767 
L 545.301275 111.510846 
L 543.430712 112.16093 
L 541.560148 112.70135 
L 539.689584 113.270808 
L 537.819021 113.822248 
L 535.948457 114.419771 
L 534.077893 115.013576 
L 532.20733 115.610099 
L 530.336766 116.20741 
L 528.466202 116.658035 
L 526.595638 117.203297 
L 524.725075 117.817148 
L 522.854511 118.417294 
L 520.983947 118.930271 
L 519.113384 119.470944 
L 517.24282 120.004794 
L 515.372256 120.533819 
L 513.501693 121.034592 
L 511.631129 121.520628 
L 509.760565 122.08868 
L 507.890002 122.645714 
L 506.019438 123.174159 
L 504.148874 123.702653 
L 502.27831 124.198446 
L 500.407747 124.749109 
L 498.537183 125.28852 
L 496.666619 125.783489 
L 494.796056 126.225732 
L 492.925492 126.609737 
L 491.054928 127.030495 
L 489.184365 127.333727 
L 487.313801 127.737562 
L 485.443237 128.066102 
L 483.572674 128.412382 
L 481.70211 128.760976 
L 479.831546 129.034379 
L 477.960982 129.252459 
L 476.090419 129.549241 
L 474.219855 129.812176 
L 472.349291 130.02932 
L 470.478728 130.244421 
L 468.608164 130.468745 
L 466.7376 130.650388 
L 464.867037 130.826797 
L 462.996473 130.980484 
L 461.125909 131.075683 
L 459.255346 131.18185 
L 457.384782 131.290971 
L 455.514218 131.464573 
L 453.643654 131.638619 
L 451.773091 131.825144 
L 449.902527 131.959009 
L 448.031963 132.01431 
L 446.1614 131.934475 
L 444.290836 132.032706 
L 442.420272 132.138789 
L 440.549709 132.244873 
L 438.679145 132.350956 
L 436.808581 132.457556 
L 434.938018 132.565925 
L 433.067454 132.674294 
L 431.19689 132.783093 
L 429.326326 132.922273 
L 427.455763 133.098453 
L 425.585199 133.239101 
L 423.714635 133.302066 
L 421.844072 133.365031 
L 419.973508 133.42179 
L 418.102944 133.488229 
L 416.232381 133.549165 
L 414.361817 133.610102 
L 412.491253 133.672836 
L 410.62069 133.736464 
L 408.750126 133.810039 
L 406.879562 133.860269 
L 405.008998 133.921304 
L 403.138435 134.045878 
L 401.267871 134.231006 
L 399.397307 134.416134 
L 397.526744 134.601262 
L 395.65618 134.753416 
L 393.785616 134.884802 
L 391.915053 135.005445 
L 390.044489 135.083386 
L 388.173925 135.142851 
L 386.303362 135.202317 
L 384.432798 135.261782 
L 382.562234 135.321655 
L 380.69167 135.381683 
L 378.821107 135.441711 
L 376.950543 135.501739 
L 375.079979 135.561767 
L 373.209416 135.621795 
L 371.338852 135.681823 
L 369.468288 135.741851 
L 367.597725 135.801879 
L 365.727161 135.861907 
L 363.856597 135.921935 
z
" style="fill:#ff7f0e;fill-opacity:0.15;"/>
   </g>
   <g id="matplotlib.axis_3">
    <g id="xtick_3">
     <g id="line2d_37">
      <g>
       <use style="stroke:#000000;stroke-width:0.8;" x="386.405696" xlink:href="#m171e6f79b3" y="222.518286"/>
      </g>
     </g>
     <g id="text_13">
      <!-- 0.5 -->
      <defs>
       <path d="M 10.796875 72.90625 
L 49.515625 72.90625 
L 49.515625 64.59375 
L 19.828125 64.59375 
L 19.828125 46.734375 
Q 21.96875 47.46875 24.109375 47.828125 
Q 26.265625 48.1875 28.421875 48.1875 
Q 40.625 48.1875 47.75 41.5 
Q 54.890625 34.8125 54.890625 23.390625 
Q 54.890625 11.625 47.5625 5.09375 
Q 40.234375 -1.421875 26.90625 -1.421875 
Q 22.3125 -1.421875 17.546875 -0.640625 
Q 12.796875 0.140625 7.71875 1.703125 
L 7.71875 11.625 
Q 12.109375 9.234375 16.796875 8.0625 
Q 21.484375 6.890625 26.703125 6.890625 
Q 35.15625 6.890625 40.078125 11.328125 
Q 45.015625 15.765625 45.015625 23.390625 
Q 45.015625 31 40.078125 35.4375 
Q 35.15625 39.890625 26.703125 39.890625 
Q 22.75 39.890625 18.8125 39.015625 
Q 14.890625 38.140625 10.796875 36.28125 
z
" id="DejaVuSans-53"/>
      </defs>
      <g transform="translate(378.454133 237.116723)scale(0.1 -0.1)">
       <use xlink:href="#DejaVuSans-48"/>
       <use x="63.623047" xlink:href="#DejaVuSans-46"/>
       <use x="95.410156" xlink:href="#DejaVuSans-53"/>
      </g>
     </g>
    </g>
    <g id="xtick_4">
     <g id="line2d_38">
      <g>
       <use style="stroke:#000000;stroke-width:0.8;" x="423.796195" xlink:href="#m171e6f79b3" y="222.518286"/>
      </g>
     </g>
     <g id="text_14">
      <!-- 0.6 -->
      <g transform="translate(415.844633 237.116723)scale(0.1 -0.1)">
       <use xlink:href="#DejaVuSans-48"/>
       <use x="63.623047" xlink:href="#DejaVuSans-46"/>
       <use x="95.410156" xlink:href="#DejaVuSans-54"/>
      </g>
     </g>
    </g>
    <g id="xtick_5">
     <g id="line2d_39">
      <g>
       <use style="stroke:#000000;stroke-width:0.8;" x="461.186695" xlink:href="#m171e6f79b3" y="222.518286"/>
      </g>
     </g>
     <g id="text_15">
      <!-- 0.7 -->
      <defs>
       <path d="M 8.203125 72.90625 
L 55.078125 72.90625 
L 55.078125 68.703125 
L 28.609375 0 
L 18.3125 0 
L 43.21875 64.59375 
L 8.203125 64.59375 
z
" id="DejaVuSans-55"/>
      </defs>
      <g transform="translate(453.235133 237.116723)scale(0.1 -0.1)">
       <use xlink:href="#DejaVuSans-48"/>
       <use x="63.623047" xlink:href="#DejaVuSans-46"/>
       <use x="95.410156" xlink:href="#DejaVuSans-55"/>
      </g>
     </g>
    </g>
    <g id="xtick_6">
     <g id="line2d_40">
      <g>
       <use style="stroke:#000000;stroke-width:0.8;" x="498.577195" xlink:href="#m171e6f79b3" y="222.518286"/>
      </g>
     </g>
     <g id="text_16">
      <!-- 0.8 -->
      <g transform="translate(490.625633 237.116723)scale(0.1 -0.1)">
       <use xlink:href="#DejaVuSans-48"/>
       <use x="63.623047" xlink:href="#DejaVuSans-46"/>
       <use x="95.410156" xlink:href="#DejaVuSans-56"/>
      </g>
     </g>
    </g>
    <g id="xtick_7">
     <g id="line2d_41">
      <g>
       <use style="stroke:#000000;stroke-width:0.8;" x="535.967695" xlink:href="#m171e6f79b3" y="222.518286"/>
      </g>
     </g>
     <g id="text_17">
      <!-- 0.9 -->
      <defs>
       <path d="M 10.984375 1.515625 
L 10.984375 10.5 
Q 14.703125 8.734375 18.5 7.8125 
Q 22.3125 6.890625 25.984375 6.890625 
Q 35.75 6.890625 40.890625 13.453125 
Q 46.046875 20.015625 46.78125 33.40625 
Q 43.953125 29.203125 39.59375 26.953125 
Q 35.25 24.703125 29.984375 24.703125 
Q 19.046875 24.703125 12.671875 31.3125 
Q 6.296875 37.9375 6.296875 49.421875 
Q 6.296875 60.640625 12.9375 67.421875 
Q 19.578125 74.21875 30.609375 74.21875 
Q 43.265625 74.21875 49.921875 64.515625 
Q 56.59375 54.828125 56.59375 36.375 
Q 56.59375 19.140625 48.40625 8.859375 
Q 40.234375 -1.421875 26.421875 -1.421875 
Q 22.703125 -1.421875 18.890625 -0.6875 
Q 15.09375 0.046875 10.984375 1.515625 
z
M 30.609375 32.421875 
Q 37.25 32.421875 41.125 36.953125 
Q 45.015625 41.5 45.015625 49.421875 
Q 45.015625 57.28125 41.125 61.84375 
Q 37.25 66.40625 30.609375 66.40625 
Q 23.96875 66.40625 20.09375 61.84375 
Q 16.21875 57.28125 16.21875 49.421875 
Q 16.21875 41.5 20.09375 36.953125 
Q 23.96875 32.421875 30.609375 32.421875 
z
" id="DejaVuSans-57"/>
      </defs>
      <g transform="translate(528.016132 237.116723)scale(0.1 -0.1)">
       <use xlink:href="#DejaVuSans-48"/>
       <use x="63.623047" xlink:href="#DejaVuSans-46"/>
       <use x="95.410156" xlink:href="#DejaVuSans-57"/>
      </g>
     </g>
    </g>
    <g id="text_18">
     <!-- Behavior performance (DI) -->
     <defs>
      <path d="M 18.109375 8.203125 
L 18.109375 -20.796875 
L 9.078125 -20.796875 
L 9.078125 54.6875 
L 18.109375 54.6875 
L 18.109375 46.390625 
Q 20.953125 51.265625 25.265625 53.625 
Q 29.59375 56 35.59375 56 
Q 45.5625 56 51.78125 48.09375 
Q 58.015625 40.1875 58.015625 27.296875 
Q 58.015625 14.40625 51.78125 6.484375 
Q 45.5625 -1.421875 35.59375 -1.421875 
Q 29.59375 -1.421875 25.265625 0.953125 
Q 20.953125 3.328125 18.109375 8.203125 
z
M 48.6875 27.296875 
Q 48.6875 37.203125 44.609375 42.84375 
Q 40.53125 48.484375 33.40625 48.484375 
Q 26.265625 48.484375 22.1875 42.84375 
Q 18.109375 37.203125 18.109375 27.296875 
Q 18.109375 17.390625 22.1875 11.75 
Q 26.265625 6.109375 33.40625 6.109375 
Q 40.53125 6.109375 44.609375 11.75 
Q 48.6875 17.390625 48.6875 27.296875 
z
" id="DejaVuSans-112"/>
      <path d="M 37.109375 75.984375 
L 37.109375 68.5 
L 28.515625 68.5 
Q 23.6875 68.5 21.796875 66.546875 
Q 19.921875 64.59375 19.921875 59.515625 
L 19.921875 54.6875 
L 34.71875 54.6875 
L 34.71875 47.703125 
L 19.921875 47.703125 
L 19.921875 0 
L 10.890625 0 
L 10.890625 47.703125 
L 2.296875 47.703125 
L 2.296875 54.6875 
L 10.890625 54.6875 
L 10.890625 58.5 
Q 10.890625 67.625 15.140625 71.796875 
Q 19.390625 75.984375 28.609375 75.984375 
z
" id="DejaVuSans-102"/>
      <path d="M 52 44.1875 
Q 55.375 50.25 60.0625 53.125 
Q 64.75 56 71.09375 56 
Q 79.640625 56 84.28125 50.015625 
Q 88.921875 44.046875 88.921875 33.015625 
L 88.921875 0 
L 79.890625 0 
L 79.890625 32.71875 
Q 79.890625 40.578125 77.09375 44.375 
Q 74.3125 48.1875 68.609375 48.1875 
Q 61.625 48.1875 57.5625 43.546875 
Q 53.515625 38.921875 53.515625 30.90625 
L 53.515625 0 
L 44.484375 0 
L 44.484375 32.71875 
Q 44.484375 40.625 41.703125 44.40625 
Q 38.921875 48.1875 33.109375 48.1875 
Q 26.21875 48.1875 22.15625 43.53125 
Q 18.109375 38.875 18.109375 30.90625 
L 18.109375 0 
L 9.078125 0 
L 9.078125 54.6875 
L 18.109375 54.6875 
L 18.109375 46.1875 
Q 21.1875 51.21875 25.484375 53.609375 
Q 29.78125 56 35.6875 56 
Q 41.65625 56 45.828125 52.96875 
Q 50 49.953125 52 44.1875 
z
" id="DejaVuSans-109"/>
      <path d="M 19.671875 64.796875 
L 19.671875 8.109375 
L 31.59375 8.109375 
Q 46.6875 8.109375 53.6875 14.9375 
Q 60.6875 21.78125 60.6875 36.53125 
Q 60.6875 51.171875 53.6875 57.984375 
Q 46.6875 64.796875 31.59375 64.796875 
z
M 9.8125 72.90625 
L 30.078125 72.90625 
Q 51.265625 72.90625 61.171875 64.09375 
Q 71.09375 55.28125 71.09375 36.53125 
Q 71.09375 17.671875 61.125 8.828125 
Q 51.171875 0 30.078125 0 
L 9.8125 0 
z
" id="DejaVuSans-68"/>
      <path d="M 9.8125 72.90625 
L 19.671875 72.90625 
L 19.671875 0 
L 9.8125 0 
z
" id="DejaVuSans-73"/>
     </defs>
     <g transform="translate(389.732312 250.794848)scale(0.1 -0.1)">
      <use xlink:href="#DejaVuSans-66"/>
      <use x="68.603516" xlink:href="#DejaVuSans-101"/>
      <use x="130.126953" xlink:href="#DejaVuSans-104"/>
      <use x="193.505859" xlink:href="#DejaVuSans-97"/>
      <use x="254.785156" xlink:href="#DejaVuSans-118"/>
      <use x="313.964844" xlink:href="#DejaVuSans-105"/>
      <use x="341.748047" xlink:href="#DejaVuSans-111"/>
      <use x="402.929688" xlink:href="#DejaVuSans-114"/>
      <use x="444.042969" xlink:href="#DejaVuSans-32"/>
      <use x="475.830078" xlink:href="#DejaVuSans-112"/>
      <use x="539.306641" xlink:href="#DejaVuSans-101"/>
      <use x="600.830078" xlink:href="#DejaVuSans-114"/>
      <use x="641.943359" xlink:href="#DejaVuSans-102"/>
      <use x="677.148438" xlink:href="#DejaVuSans-111"/>
      <use x="738.330078" xlink:href="#DejaVuSans-114"/>
      <use x="779.427734" xlink:href="#DejaVuSans-109"/>
      <use x="876.839844" xlink:href="#DejaVuSans-97"/>
      <use x="938.119141" xlink:href="#DejaVuSans-110"/>
      <use x="1001.498047" xlink:href="#DejaVuSans-99"/>
      <use x="1056.478516" xlink:href="#DejaVuSans-101"/>
      <use x="1118.001953" xlink:href="#DejaVuSans-32"/>
      <use x="1149.789062" xlink:href="#DejaVuSans-40"/>
      <use x="1188.802734" xlink:href="#DejaVuSans-68"/>
      <use x="1265.804688" xlink:href="#DejaVuSans-73"/>
      <use x="1295.296875" xlink:href="#DejaVuSans-41"/>
     </g>
    </g>
   </g>
   <g id="matplotlib.axis_4">
    <g id="ytick_9">
     <g id="line2d_42">
      <g>
       <use style="stroke:#000000;stroke-width:0.8;" x="350.219" xlink:href="#m45799173b9" y="206.500863"/>
      </g>
     </g>
     <g id="text_19">
      <!-- −0.2 -->
      <g transform="translate(318.936188 210.300082)scale(0.1 -0.1)">
       <use xlink:href="#DejaVuSans-8722"/>
       <use x="83.789062" xlink:href="#DejaVuSans-48"/>
       <use x="147.412109" xlink:href="#DejaVuSans-46"/>
       <use x="179.199219" xlink:href="#DejaVuSans-50"/>
      </g>
     </g>
    </g>
    <g id="ytick_10">
     <g id="line2d_43">
      <g>
       <use style="stroke:#000000;stroke-width:0.8;" x="350.219" xlink:href="#m45799173b9" y="174.918376"/>
      </g>
     </g>
     <g id="text_20">
      <!-- −0.1 -->
      <g transform="translate(318.936188 178.717595)scale(0.1 -0.1)">
       <use xlink:href="#DejaVuSans-8722"/>
       <use x="83.789062" xlink:href="#DejaVuSans-48"/>
       <use x="147.412109" xlink:href="#DejaVuSans-46"/>
       <use x="179.199219" xlink:href="#DejaVuSans-49"/>
      </g>
     </g>
    </g>
    <g id="ytick_11">
     <g id="line2d_44">
      <g>
       <use style="stroke:#000000;stroke-width:0.8;" x="350.219" xlink:href="#m45799173b9" y="143.33589"/>
      </g>
     </g>
     <g id="text_21">
      <!-- 0.0 -->
      <g transform="translate(327.315875 147.135109)scale(0.1 -0.1)">
       <use xlink:href="#DejaVuSans-48"/>
       <use x="63.623047" xlink:href="#DejaVuSans-46"/>
       <use x="95.410156" xlink:href="#DejaVuSans-48"/>
      </g>
     </g>
    </g>
    <g id="ytick_12">
     <g id="line2d_45">
      <g>
       <use style="stroke:#000000;stroke-width:0.8;" x="350.219" xlink:href="#m45799173b9" y="111.753404"/>
      </g>
     </g>
     <g id="text_22">
      <!-- 0.1 -->
      <g transform="translate(327.315875 115.552623)scale(0.1 -0.1)">
       <use xlink:href="#DejaVuSans-48"/>
       <use x="63.623047" xlink:href="#DejaVuSans-46"/>
       <use x="95.410156" xlink:href="#DejaVuSans-49"/>
      </g>
     </g>
    </g>
    <g id="ytick_13">
     <g id="line2d_46">
      <g>
       <use style="stroke:#000000;stroke-width:0.8;" x="350.219" xlink:href="#m45799173b9" y="80.170917"/>
      </g>
     </g>
     <g id="text_23">
      <!-- 0.2 -->
      <g transform="translate(327.315875 83.970136)scale(0.1 -0.1)">
       <use xlink:href="#DejaVuSans-48"/>
       <use x="63.623047" xlink:href="#DejaVuSans-46"/>
       <use x="95.410156" xlink:href="#DejaVuSans-50"/>
      </g>
     </g>
    </g>
    <g id="ytick_14">
     <g id="line2d_47">
      <g>
       <use style="stroke:#000000;stroke-width:0.8;" x="350.219" xlink:href="#m45799173b9" y="48.588431"/>
      </g>
     </g>
     <g id="text_24">
      <!-- 0.3 -->
      <defs>
       <path d="M 40.578125 39.3125 
Q 47.65625 37.796875 51.625 33 
Q 55.609375 28.21875 55.609375 21.1875 
Q 55.609375 10.40625 48.1875 4.484375 
Q 40.765625 -1.421875 27.09375 -1.421875 
Q 22.515625 -1.421875 17.65625 -0.515625 
Q 12.796875 0.390625 7.625 2.203125 
L 7.625 11.71875 
Q 11.71875 9.328125 16.59375 8.109375 
Q 21.484375 6.890625 26.8125 6.890625 
Q 36.078125 6.890625 40.9375 10.546875 
Q 45.796875 14.203125 45.796875 21.1875 
Q 45.796875 27.640625 41.28125 31.265625 
Q 36.765625 34.90625 28.71875 34.90625 
L 20.21875 34.90625 
L 20.21875 43.015625 
L 29.109375 43.015625 
Q 36.375 43.015625 40.234375 45.921875 
Q 44.09375 48.828125 44.09375 54.296875 
Q 44.09375 59.90625 40.109375 62.90625 
Q 36.140625 65.921875 28.71875 65.921875 
Q 24.65625 65.921875 20.015625 65.03125 
Q 15.375 64.15625 9.8125 62.3125 
L 9.8125 71.09375 
Q 15.4375 72.65625 20.34375 73.4375 
Q 25.25 74.21875 29.59375 74.21875 
Q 40.828125 74.21875 47.359375 69.109375 
Q 53.90625 64.015625 53.90625 55.328125 
Q 53.90625 49.265625 50.4375 45.09375 
Q 46.96875 40.921875 40.578125 39.3125 
z
" id="DejaVuSans-51"/>
      </defs>
      <g transform="translate(327.315875 52.38765)scale(0.1 -0.1)">
       <use xlink:href="#DejaVuSans-48"/>
       <use x="63.623047" xlink:href="#DejaVuSans-46"/>
       <use x="95.410156" xlink:href="#DejaVuSans-51"/>
      </g>
     </g>
    </g>
    <g id="text_25">
     <!-- $\Delta r_{sc}$ -->
     <defs>
      <path d="M 34.1875 63.1875 
L 14.15625 8.203125 
L 54.25 8.203125 
z
M 0.78125 0 
L 28.609375 72.90625 
L 39.796875 72.90625 
L 67.578125 0 
z
" id="DejaVuSans-916"/>
     </defs>
     <g transform="translate(301.658688 134.099143)rotate(-90)scale(0.1 -0.1)">
      <use transform="translate(0 0.09375)" xlink:href="#DejaVuSans-916"/>
      <use transform="translate(68.408203 0.09375)" xlink:href="#DejaVuSans-Oblique-114"/>
      <use transform="translate(109.521484 -16.3125)scale(0.7)" xlink:href="#DejaVuSans-Oblique-115"/>
      <use transform="translate(145.991211 -16.3125)scale(0.7)" xlink:href="#DejaVuSans-Oblique-99"/>
     </g>
     <!-- (Active - Passive) -->
     <defs>
      <path d="M 4.890625 31.390625 
L 31.203125 31.390625 
L 31.203125 23.390625 
L 4.890625 23.390625 
z
" id="DejaVuSans-45"/>
     </defs>
     <g transform="translate(312.8565 167.846799)rotate(-90)scale(0.1 -0.1)">
      <use xlink:href="#DejaVuSans-40"/>
      <use x="39.013672" xlink:href="#DejaVuSans-65"/>
      <use x="107.40625" xlink:href="#DejaVuSans-99"/>
      <use x="162.386719" xlink:href="#DejaVuSans-116"/>
      <use x="201.595703" xlink:href="#DejaVuSans-105"/>
      <use x="229.378906" xlink:href="#DejaVuSans-118"/>
      <use x="288.558594" xlink:href="#DejaVuSans-101"/>
      <use x="350.082031" xlink:href="#DejaVuSans-32"/>
      <use x="381.869141" xlink:href="#DejaVuSans-45"/>
      <use x="417.953125" xlink:href="#DejaVuSans-32"/>
      <use x="449.740234" xlink:href="#DejaVuSans-80"/>
      <use x="509.980469" xlink:href="#DejaVuSans-97"/>
      <use x="571.259766" xlink:href="#DejaVuSans-115"/>
      <use x="623.359375" xlink:href="#DejaVuSans-115"/>
      <use x="675.458984" xlink:href="#DejaVuSans-105"/>
      <use x="703.242188" xlink:href="#DejaVuSans-118"/>
      <use x="762.421875" xlink:href="#DejaVuSans-101"/>
      <use x="823.945312" xlink:href="#DejaVuSans-41"/>
     </g>
    </g>
   </g>
   <g id="line2d_48">
    <path clip-path="url(#p1d191c1321)" d="M 363.856597 156.258482 
L 365.727161 155.903436 
L 367.597725 155.54839 
L 369.468288 155.193344 
L 371.338852 154.838298 
L 373.209416 154.483252 
L 375.079979 154.128206 
L 376.950543 153.77316 
L 378.821107 153.418114 
L 380.69167 153.063068 
L 382.562234 152.708022 
L 384.432798 152.352976 
L 386.303362 151.99793 
L 388.173925 151.642884 
L 390.044489 151.287838 
L 391.915053 150.932792 
L 393.785616 150.577746 
L 395.65618 150.2227 
L 397.526744 149.867654 
L 399.397307 149.512608 
L 401.267871 149.157562 
L 403.138435 148.802516 
L 405.008998 148.44747 
L 406.879562 148.092425 
L 408.750126 147.737379 
L 410.62069 147.382333 
L 412.491253 147.027287 
L 414.361817 146.672241 
L 416.232381 146.317195 
L 418.102944 145.962149 
L 419.973508 145.607103 
L 421.844072 145.252057 
L 423.714635 144.897011 
L 425.585199 144.541965 
L 427.455763 144.186919 
L 429.326326 143.831873 
L 431.19689 143.476827 
L 433.067454 143.121781 
L 434.938018 142.766735 
L 436.808581 142.411689 
L 438.679145 142.056643 
L 440.549709 141.701597 
L 442.420272 141.346551 
L 444.290836 140.991505 
L 446.1614 140.636459 
L 448.031963 140.281413 
L 449.902527 139.926367 
L 451.773091 139.571321 
L 453.643654 139.216275 
L 455.514218 138.861229 
L 457.384782 138.506183 
L 459.255346 138.151137 
L 461.125909 137.796091 
L 462.996473 137.441045 
L 464.867037 137.085999 
L 466.7376 136.730953 
L 468.608164 136.375907 
L 470.478728 136.020861 
L 472.349291 135.665815 
L 474.219855 135.310769 
L 476.090419 134.955723 
L 477.960982 134.600677 
L 479.831546 134.245631 
L 481.70211 133.890585 
L 483.572674 133.535539 
L 485.443237 133.180493 
L 487.313801 132.825447 
L 489.184365 132.470401 
L 491.054928 132.115355 
L 492.925492 131.760309 
L 494.796056 131.405263 
L 496.666619 131.050217 
L 498.537183 130.695171 
L 500.407747 130.340125 
L 502.27831 129.985079 
L 504.148874 129.630033 
L 506.019438 129.274987 
L 507.890002 128.919941 
L 509.760565 128.564895 
L 511.631129 128.209849 
L 513.501693 127.854803 
L 515.372256 127.499757 
L 517.24282 127.144711 
L 519.113384 126.789665 
L 520.983947 126.434619 
L 522.854511 126.079574 
L 524.725075 125.724528 
L 526.595638 125.369482 
L 528.466202 125.014436 
L 530.336766 124.65939 
L 532.20733 124.304344 
L 534.077893 123.949298 
L 535.948457 123.594252 
L 537.819021 123.239206 
L 539.689584 122.88416 
L 541.560148 122.529114 
L 543.430712 122.174068 
L 545.301275 121.819022 
L 547.171839 121.463976 
L 549.042403 121.10893 
" style="fill:none;stroke:#ff7f0e;stroke-linecap:square;stroke-width:2.25;"/>
   </g>
   <g id="line2d_49">
    <path clip-path="url(#p1d191c1321)" d="M 350.219 143.33589 
L 562.68 143.33589 
" style="fill:none;stroke:#000000;stroke-dasharray:5.55,2.4;stroke-dashoffset:0;stroke-width:1.5;"/>
   </g>
   <g id="line2d_50">
    <path clip-path="url(#p1d191c1321)" d="M 386.405696 222.518286 
L 386.405696 26.88 
" style="fill:none;stroke:#000000;stroke-dasharray:5.55,2.4;stroke-dashoffset:0;stroke-width:1.5;"/>
   </g>
   <g id="patch_8">
    <path d="M 350.219 222.518286 
L 350.219 26.88 
" style="fill:none;stroke:#000000;stroke-linecap:square;stroke-linejoin:miter;stroke-width:0.8;"/>
   </g>
   <g id="patch_9">
    <path d="M 350.219 222.518286 
L 562.68 222.518286 
" style="fill:none;stroke:#000000;stroke-linecap:square;stroke-linejoin:miter;stroke-width:0.8;"/>
   </g>
   <g id="text_26">
    <!-- $r$: 0.351, $p$: 0.002 -->
    <defs>
     <path d="M 11.71875 12.40625 
L 22.015625 12.40625 
L 22.015625 0 
L 11.71875 0 
z
M 11.71875 51.703125 
L 22.015625 51.703125 
L 22.015625 39.3125 
L 11.71875 39.3125 
z
" id="DejaVuSans-58"/>
     <path d="M 11.71875 12.40625 
L 22.015625 12.40625 
L 22.015625 4 
L 14.015625 -11.625 
L 7.71875 -11.625 
L 11.71875 4 
z
" id="DejaVuSans-44"/>
     <path d="M 49.609375 33.6875 
Q 49.609375 40.875 46.484375 44.671875 
Q 43.359375 48.484375 37.5 48.484375 
Q 33.5 48.484375 29.859375 46.4375 
Q 26.21875 44.390625 23.390625 40.484375 
Q 20.609375 36.625 18.9375 31.15625 
Q 17.28125 25.6875 17.28125 20.3125 
Q 17.28125 13.484375 20.40625 9.796875 
Q 23.53125 6.109375 29.296875 6.109375 
Q 33.546875 6.109375 37.1875 8.109375 
Q 40.828125 10.109375 43.40625 13.921875 
Q 46.1875 17.921875 47.890625 23.34375 
Q 49.609375 28.765625 49.609375 33.6875 
z
M 21.78125 46.390625 
Q 25.390625 51.125 30.296875 53.5625 
Q 35.203125 56 41.21875 56 
Q 49.609375 56 54.25 50.5 
Q 58.890625 45.015625 58.890625 35.109375 
Q 58.890625 27 56 19.65625 
Q 53.125 12.3125 47.703125 6.5 
Q 44.09375 2.640625 39.546875 0.609375 
Q 35.015625 -1.421875 29.984375 -1.421875 
Q 24.171875 -1.421875 20.21875 1 
Q 16.265625 3.421875 14.3125 8.203125 
L 8.6875 -20.796875 
L -0.296875 -20.796875 
L 14.40625 54.6875 
L 23.390625 54.6875 
z
" id="DejaVuSans-Oblique-112"/>
    </defs>
    <g transform="translate(404.1295 20.88)scale(0.12 -0.12)">
     <use transform="translate(0 0.78125)" xlink:href="#DejaVuSans-Oblique-114"/>
     <use transform="translate(41.113281 0.78125)" xlink:href="#DejaVuSans-58"/>
     <use transform="translate(74.804688 0.78125)" xlink:href="#DejaVuSans-32"/>
     <use transform="translate(106.591797 0.78125)" xlink:href="#DejaVuSans-48"/>
     <use transform="translate(170.214844 0.78125)" xlink:href="#DejaVuSans-46"/>
     <use transform="translate(202.001953 0.78125)" xlink:href="#DejaVuSans-51"/>
     <use transform="translate(265.625 0.78125)" xlink:href="#DejaVuSans-53"/>
     <use transform="translate(329.248047 0.78125)" xlink:href="#DejaVuSans-49"/>
     <use transform="translate(392.871094 0.78125)" xlink:href="#DejaVuSans-44"/>
     <use transform="translate(424.658203 0.78125)" xlink:href="#DejaVuSans-32"/>
     <use transform="translate(456.445312 0.78125)" xlink:href="#DejaVuSans-Oblique-112"/>
     <use transform="translate(519.921875 0.78125)" xlink:href="#DejaVuSans-58"/>
     <use transform="translate(553.613281 0.78125)" xlink:href="#DejaVuSans-32"/>
     <use transform="translate(585.400391 0.78125)" xlink:href="#DejaVuSans-48"/>
     <use transform="translate(649.023438 0.78125)" xlink:href="#DejaVuSans-46"/>
     <use transform="translate(680.810547 0.78125)" xlink:href="#DejaVuSans-48"/>
     <use transform="translate(744.433594 0.78125)" xlink:href="#DejaVuSans-48"/>
     <use transform="translate(808.056641 0.78125)" xlink:href="#DejaVuSans-50"/>
    </g>
   </g>
  </g>
 </g>
 <defs>
  <clipPath id="p0cc7fb8f4e">
   <rect height="195.638286" width="212.461" x="64.748" y="26.88"/>
  </clipPath>
  <clipPath id="p1d191c1321">
   <rect height="195.638286" width="212.461" x="350.219" y="26.88"/>
  </clipPath>
 </defs>
</svg>
